<?xml version="1.0" encoding="utf-8" standalone="no"?>
<!DOCTYPE svg PUBLIC "-//W3C//DTD SVG 1.1//EN"
  "http://www.w3.org/Graphics/SVG/1.1/DTD/svg11.dtd">
<svg xmlns:xlink="http://www.w3.org/1999/xlink" width="792.53734pt" height="568.8pt" viewBox="0 0 792.53734 568.8" xmlns="http://www.w3.org/2000/svg" version="1.1">
 <metadata>
  <rdf:RDF xmlns:dc="http://purl.org/dc/elements/1.1/" xmlns:cc="http://creativecommons.org/ns#" xmlns:rdf="http://www.w3.org/1999/02/22-rdf-syntax-ns#">
   <cc:Work>
    <dc:type rdf:resource="http://purl.org/dc/dcmitype/StillImage"/>
    <dc:date>2024-10-23T11:03:12.149448</dc:date>
    <dc:format>image/svg+xml</dc:format>
    <dc:creator>
     <cc:Agent>
      <dc:title>Matplotlib v3.9.0, https://matplotlib.org/</dc:title>
     </cc:Agent>
    </dc:creator>
   </cc:Work>
  </rdf:RDF>
 </metadata>
 <defs>
  <style type="text/css">*{stroke-linejoin: round; stroke-linecap: butt}</style>
 </defs>
 <g id="figure_1">
  <g id="patch_1">
   <path d="M 0 568.8 
L 792.53734 568.8 
L 792.53734 0 
L 0 0 
z
" style="fill: #ffffff"/>
  </g>
  <g id="axes_1">
   <g id="patch_2">
    <path d="M 421.782987 157.802178 
Q 461.687557 109.882093 500.876685 62.82116 
" clip-path="url(#p2d15d3458c)" style="fill: none; stroke: #000000; stroke-linecap: round"/>
    <path d="M 494.73187 65.512117 
L 500.876685 62.82116 
L 499.342562 69.351586 
z
" clip-path="url(#p2d15d3458c)" style="stroke: #000000; stroke-linecap: round"/>
   </g>
   <g id="patch_3">
    <path d="M 407.585916 164.213473 
Q 330.453558 162.071972 254.438804 159.961501 
" clip-path="url(#p2d15d3458c)" style="fill: none; stroke: #000000; stroke-linecap: round"/>
    <path d="M 260.353233 163.126865 
L 254.438804 159.961501 
L 260.519752 157.129176 
z
" clip-path="url(#p2d15d3458c)" style="stroke: #000000; stroke-linecap: round"/>
   </g>
   <g id="patch_4">
    <path d="M 298.698944 265.633759 
Q 273.650051 216.520706 249.109131 168.403628 
" clip-path="url(#p2d15d3458c)" style="fill: none; stroke: #000000; stroke-linecap: round"/>
    <path d="M 249.162715 175.111617 
L 249.109131 168.403628 
L 254.507673 172.385554 
z
" clip-path="url(#p2d15d3458c)" style="stroke: #000000; stroke-linecap: round"/>
   </g>
   <g id="patch_5">
    <path d="M 293.984059 272.935055 
Q 186.973803 267.783214 81.080288 262.685137 
" clip-path="url(#p2d15d3458c)" style="fill: none; stroke: #000000; stroke-linecap: round"/>
    <path d="M 86.929083 265.970193 
L 81.080288 262.685137 
L 87.217609 259.977134 
z
" clip-path="url(#p2d15d3458c)" style="stroke: #000000; stroke-linecap: round"/>
   </g>
   <g id="patch_6">
    <path d="M 297.731668 280.491693 
Q 268.664981 322.816236 240.231227 364.219152 
" clip-path="url(#p2d15d3458c)" style="fill: none; stroke: #000000; stroke-linecap: round"/>
    <path d="M 246.100888 360.971525 
L 240.231227 364.219152 
L 241.154922 357.574847 
z
" clip-path="url(#p2d15d3458c)" style="stroke: #000000; stroke-linecap: round"/>
   </g>
   <g id="patch_7">
    <path d="M 401.292253 393.655022 
Q 322.288311 383.51903 244.393313 373.525313 
" clip-path="url(#p2d15d3458c)" style="fill: none; stroke: #000000; stroke-linecap: round"/>
    <path d="M 249.962771 377.264449 
L 244.393313 373.525313 
L 250.726297 371.313228 
z
" clip-path="url(#p2d15d3458c)" style="stroke: #000000; stroke-linecap: round"/>
   </g>
   <g id="patch_8">
    <path d="M 403.868517 400.987501 
Q 352.592203 454.123456 302.092255 506.45489 
" clip-path="url(#p2d15d3458c)" style="fill: none; stroke: #000000; stroke-linecap: round"/>
    <path d="M 308.417431 504.220578 
L 302.092255 506.45489 
L 304.099911 500.054162 
z
" clip-path="url(#p2d15d3458c)" style="stroke: #000000; stroke-linecap: round"/>
   </g>
   <g id="patch_9">
    <path d="M 416.238951 400.632758 
Q 466.834912 447.392134 516.609786 493.392684 
" clip-path="url(#p2d15d3458c)" style="fill: none; stroke: #000000; stroke-linecap: round"/>
    <path d="M 514.239514 487.117191 
L 516.609786 493.392684 
L 510.167229 491.523606 
z
" clip-path="url(#p2d15d3458c)" style="stroke: #000000; stroke-linecap: round"/>
   </g>
   <g id="patch_10">
    <path d="M 418.524987 394.242734 
Q 517.29388 388.367255 614.946712 382.558167 
" clip-path="url(#p2d15d3458c)" style="fill: none; stroke: #000000; stroke-linecap: round"/>
    <path d="M 608.779154 379.919754 
L 614.946712 382.558167 
L 609.135447 385.909166 
z
" clip-path="url(#p2d15d3458c)" style="stroke: #000000; stroke-linecap: round"/>
   </g>
   <g id="patch_11">
    <path d="M 409.992812 170.445753 
Q 359.441235 218.901106 309.696784 266.582802 
" clip-path="url(#p2d15d3458c)" style="fill: none; stroke-dasharray: 3.7,1.6; stroke-dashoffset: 0; stroke: #000000; stroke-linecap: round"/>
    <path d="M 322.511662 262.610533 
L 309.696784 266.582802 
L 314.207896 253.947539 
" clip-path="url(#p2d15d3458c)" style="fill: none; stroke-dasharray: 3.7,1.6; stroke-dashoffset: 0; stroke: #000000; stroke-linecap: round"/>
   </g>
   <g id="patch_12">
    <path d="M 308.366029 279.839004 
Q 356.256335 334.052227 403.406446 387.427528 
" clip-path="url(#p2d15d3458c)" style="fill: none; stroke-dasharray: 3.7,1.6; stroke-dashoffset: 0; stroke: #000000; stroke-linecap: round"/>
    <path d="M 399.958607 374.461712 
L 403.406446 387.427528 
L 390.965089 382.40631 
" clip-path="url(#p2d15d3458c)" style="fill: none; stroke-dasharray: 3.7,1.6; stroke-dashoffset: 0; stroke: #000000; stroke-linecap: round"/>
   </g>
   <g id="patch_13">
    <path d="M 404.150206 388.269486 
Q 356.259901 334.056263 309.109789 280.680962 
" clip-path="url(#p2d15d3458c)" style="fill: none; stroke-dasharray: 3.7,1.6; stroke-dashoffset: 0; stroke: #000000; stroke-linecap: round"/>
    <path d="M 312.557629 293.646778 
L 309.109789 280.680962 
L 321.551147 285.70218 
" clip-path="url(#p2d15d3458c)" style="fill: none; stroke-dasharray: 3.7,1.6; stroke-dashoffset: 0; stroke: #000000; stroke-linecap: round"/>
   </g>
   <g id="text_1">
    <g id="patch_14">
     <path d="M 435.314745 113.842093 
L 488.06037 113.842093 
L 488.06037 94.308343 
L 435.314745 94.308343 
L 435.314745 113.842093 
z
" style="fill: none; opacity: 0"/>
    </g>
    <!-- &lt;flow&gt; -->
    <g transform="translate(439.274745 107.386468) scale(0.12 -0.12)">
     <defs>
      <path id="DejaVuSans-3c" d="M 4684 3150 
L 1459 2003 
L 4684 863 
L 4684 294 
L 678 1747 
L 678 2266 
L 4684 3719 
L 4684 3150 
z
" transform="scale(0.015625)"/>
      <path id="DejaVuSans-66" d="M 2375 4863 
L 2375 4384 
L 1825 4384 
Q 1516 4384 1395 4259 
Q 1275 4134 1275 3809 
L 1275 3500 
L 2222 3500 
L 2222 3053 
L 1275 3053 
L 1275 0 
L 697 0 
L 697 3053 
L 147 3053 
L 147 3500 
L 697 3500 
L 697 3744 
Q 697 4328 969 4595 
Q 1241 4863 1831 4863 
L 2375 4863 
z
" transform="scale(0.015625)"/>
      <path id="DejaVuSans-6c" d="M 603 4863 
L 1178 4863 
L 1178 0 
L 603 0 
L 603 4863 
z
" transform="scale(0.015625)"/>
      <path id="DejaVuSans-6f" d="M 1959 3097 
Q 1497 3097 1228 2736 
Q 959 2375 959 1747 
Q 959 1119 1226 758 
Q 1494 397 1959 397 
Q 2419 397 2687 759 
Q 2956 1122 2956 1747 
Q 2956 2369 2687 2733 
Q 2419 3097 1959 3097 
z
M 1959 3584 
Q 2709 3584 3137 3096 
Q 3566 2609 3566 1747 
Q 3566 888 3137 398 
Q 2709 -91 1959 -91 
Q 1206 -91 779 398 
Q 353 888 353 1747 
Q 353 2609 779 3096 
Q 1206 3584 1959 3584 
z
" transform="scale(0.015625)"/>
      <path id="DejaVuSans-77" d="M 269 3500 
L 844 3500 
L 1563 769 
L 2278 3500 
L 2956 3500 
L 3675 769 
L 4391 3500 
L 4966 3500 
L 4050 0 
L 3372 0 
L 2619 2869 
L 1863 0 
L 1184 0 
L 269 3500 
z
" transform="scale(0.015625)"/>
      <path id="DejaVuSans-3e" d="M 678 3150 
L 678 3719 
L 4684 2266 
L 4684 1747 
L 678 294 
L 678 863 
L 3897 2003 
L 678 3150 
z
" transform="scale(0.015625)"/>
     </defs>
     <use xlink:href="#DejaVuSans-3c"/>
     <use xlink:href="#DejaVuSans-66" x="83.789062"/>
     <use xlink:href="#DejaVuSans-6c" x="118.994141"/>
     <use xlink:href="#DejaVuSans-6f" x="146.777344"/>
     <use xlink:href="#DejaVuSans-77" x="207.958984"/>
     <use xlink:href="#DejaVuSans-3e" x="289.746094"/>
    </g>
   </g>
   <g id="text_2">
    <g id="patch_15">
     <path d="M 304.080745 166.031972 
L 356.82637 166.031972 
L 356.82637 146.498222 
L 304.080745 146.498222 
L 304.080745 166.031972 
z
" style="fill: none; opacity: 0"/>
    </g>
    <!-- &lt;flow&gt; -->
    <g transform="translate(308.040745 159.576347) scale(0.12 -0.12)">
     <use xlink:href="#DejaVuSans-3c"/>
     <use xlink:href="#DejaVuSans-66" x="83.789062"/>
     <use xlink:href="#DejaVuSans-6c" x="118.994141"/>
     <use xlink:href="#DejaVuSans-6f" x="146.777344"/>
     <use xlink:href="#DejaVuSans-77" x="207.958984"/>
     <use xlink:href="#DejaVuSans-3e" x="289.746094"/>
    </g>
   </g>
   <g id="text_3">
    <g id="patch_16">
     <path d="M 315.709672 222.861106 
L 403.172797 222.861106 
L 403.172797 203.327356 
L 315.709672 203.327356 
L 315.709672 222.861106 
z
" style="fill: none; opacity: 0"/>
    </g>
    <!-- &lt;activation&gt; -->
    <g transform="translate(319.669672 216.405481) scale(0.12 -0.12)">
     <defs>
      <path id="DejaVuSans-61" d="M 2194 1759 
Q 1497 1759 1228 1600 
Q 959 1441 959 1056 
Q 959 750 1161 570 
Q 1363 391 1709 391 
Q 2188 391 2477 730 
Q 2766 1069 2766 1631 
L 2766 1759 
L 2194 1759 
z
M 3341 1997 
L 3341 0 
L 2766 0 
L 2766 531 
Q 2569 213 2275 61 
Q 1981 -91 1556 -91 
Q 1019 -91 701 211 
Q 384 513 384 1019 
Q 384 1609 779 1909 
Q 1175 2209 1959 2209 
L 2766 2209 
L 2766 2266 
Q 2766 2663 2505 2880 
Q 2244 3097 1772 3097 
Q 1472 3097 1187 3025 
Q 903 2953 641 2809 
L 641 3341 
Q 956 3463 1253 3523 
Q 1550 3584 1831 3584 
Q 2591 3584 2966 3190 
Q 3341 2797 3341 1997 
z
" transform="scale(0.015625)"/>
      <path id="DejaVuSans-63" d="M 3122 3366 
L 3122 2828 
Q 2878 2963 2633 3030 
Q 2388 3097 2138 3097 
Q 1578 3097 1268 2742 
Q 959 2388 959 1747 
Q 959 1106 1268 751 
Q 1578 397 2138 397 
Q 2388 397 2633 464 
Q 2878 531 3122 666 
L 3122 134 
Q 2881 22 2623 -34 
Q 2366 -91 2075 -91 
Q 1284 -91 818 406 
Q 353 903 353 1747 
Q 353 2603 823 3093 
Q 1294 3584 2113 3584 
Q 2378 3584 2631 3529 
Q 2884 3475 3122 3366 
z
" transform="scale(0.015625)"/>
      <path id="DejaVuSans-74" d="M 1172 4494 
L 1172 3500 
L 2356 3500 
L 2356 3053 
L 1172 3053 
L 1172 1153 
Q 1172 725 1289 603 
Q 1406 481 1766 481 
L 2356 481 
L 2356 0 
L 1766 0 
Q 1100 0 847 248 
Q 594 497 594 1153 
L 594 3053 
L 172 3053 
L 172 3500 
L 594 3500 
L 594 4494 
L 1172 4494 
z
" transform="scale(0.015625)"/>
      <path id="DejaVuSans-69" d="M 603 3500 
L 1178 3500 
L 1178 0 
L 603 0 
L 603 3500 
z
M 603 4863 
L 1178 4863 
L 1178 4134 
L 603 4134 
L 603 4863 
z
" transform="scale(0.015625)"/>
      <path id="DejaVuSans-76" d="M 191 3500 
L 800 3500 
L 1894 563 
L 2988 3500 
L 3597 3500 
L 2284 0 
L 1503 0 
L 191 3500 
z
" transform="scale(0.015625)"/>
      <path id="DejaVuSans-6e" d="M 3513 2113 
L 3513 0 
L 2938 0 
L 2938 2094 
Q 2938 2591 2744 2837 
Q 2550 3084 2163 3084 
Q 1697 3084 1428 2787 
Q 1159 2491 1159 1978 
L 1159 0 
L 581 0 
L 581 3500 
L 1159 3500 
L 1159 2956 
Q 1366 3272 1645 3428 
Q 1925 3584 2291 3584 
Q 2894 3584 3203 3211 
Q 3513 2838 3513 2113 
z
" transform="scale(0.015625)"/>
     </defs>
     <use xlink:href="#DejaVuSans-3c"/>
     <use xlink:href="#DejaVuSans-61" x="83.789062"/>
     <use xlink:href="#DejaVuSans-63" x="145.068359"/>
     <use xlink:href="#DejaVuSans-74" x="200.048828"/>
     <use xlink:href="#DejaVuSans-69" x="239.257812"/>
     <use xlink:href="#DejaVuSans-76" x="267.041016"/>
     <use xlink:href="#DejaVuSans-61" x="326.220703"/>
     <use xlink:href="#DejaVuSans-74" x="387.5"/>
     <use xlink:href="#DejaVuSans-69" x="426.708984"/>
     <use xlink:href="#DejaVuSans-6f" x="454.492188"/>
     <use xlink:href="#DejaVuSans-6e" x="515.673828"/>
     <use xlink:href="#DejaVuSans-3e" x="579.052734"/>
    </g>
   </g>
   <g id="text_4">
    <g id="patch_17">
     <path d="M 247.277239 220.480706 
L 300.022864 220.480706 
L 300.022864 200.946956 
L 247.277239 200.946956 
L 247.277239 220.480706 
z
" style="fill: none; opacity: 0"/>
    </g>
    <!-- &lt;flow&gt; -->
    <g transform="translate(251.237239 214.025081) scale(0.12 -0.12)">
     <use xlink:href="#DejaVuSans-3c"/>
     <use xlink:href="#DejaVuSans-66" x="83.789062"/>
     <use xlink:href="#DejaVuSans-6c" x="118.994141"/>
     <use xlink:href="#DejaVuSans-6f" x="146.777344"/>
     <use xlink:href="#DejaVuSans-77" x="207.958984"/>
     <use xlink:href="#DejaVuSans-3e" x="289.746094"/>
    </g>
   </g>
   <g id="text_5">
    <g id="patch_18">
     <path d="M 160.60099 271.743214 
L 213.346615 271.743214 
L 213.346615 252.209464 
L 160.60099 252.209464 
L 160.60099 271.743214 
z
" style="fill: none; opacity: 0"/>
    </g>
    <!-- &lt;flow&gt; -->
    <g transform="translate(164.56099 265.287589) scale(0.12 -0.12)">
     <use xlink:href="#DejaVuSans-3c"/>
     <use xlink:href="#DejaVuSans-66" x="83.789062"/>
     <use xlink:href="#DejaVuSans-6c" x="118.994141"/>
     <use xlink:href="#DejaVuSans-6f" x="146.777344"/>
     <use xlink:href="#DejaVuSans-77" x="207.958984"/>
     <use xlink:href="#DejaVuSans-3e" x="289.746094"/>
    </g>
   </g>
   <g id="text_6">
    <g id="patch_19">
     <path d="M 242.292168 326.776236 
L 295.037793 326.776236 
L 295.037793 307.242486 
L 242.292168 307.242486 
L 242.292168 326.776236 
z
" style="fill: none; opacity: 0"/>
    </g>
    <!-- &lt;flow&gt; -->
    <g transform="translate(246.252168 320.320611) scale(0.12 -0.12)">
     <use xlink:href="#DejaVuSans-3c"/>
     <use xlink:href="#DejaVuSans-66" x="83.789062"/>
     <use xlink:href="#DejaVuSans-6c" x="118.994141"/>
     <use xlink:href="#DejaVuSans-6f" x="146.777344"/>
     <use xlink:href="#DejaVuSans-77" x="207.958984"/>
     <use xlink:href="#DejaVuSans-3e" x="289.746094"/>
    </g>
   </g>
   <g id="text_7">
    <g id="patch_20">
     <path d="M 312.524773 338.012227 
L 399.987898 338.012227 
L 399.987898 318.478477 
L 312.524773 318.478477 
L 312.524773 338.012227 
z
" style="fill: none; opacity: 0"/>
    </g>
    <!-- &lt;activation&gt; -->
    <g transform="translate(316.484773 331.556602) scale(0.12 -0.12)">
     <use xlink:href="#DejaVuSans-3c"/>
     <use xlink:href="#DejaVuSans-61" x="83.789062"/>
     <use xlink:href="#DejaVuSans-63" x="145.068359"/>
     <use xlink:href="#DejaVuSans-74" x="200.048828"/>
     <use xlink:href="#DejaVuSans-69" x="239.257812"/>
     <use xlink:href="#DejaVuSans-76" x="267.041016"/>
     <use xlink:href="#DejaVuSans-61" x="326.220703"/>
     <use xlink:href="#DejaVuSans-74" x="387.5"/>
     <use xlink:href="#DejaVuSans-69" x="426.708984"/>
     <use xlink:href="#DejaVuSans-6f" x="454.492188"/>
     <use xlink:href="#DejaVuSans-6e" x="515.673828"/>
     <use xlink:href="#DejaVuSans-3e" x="579.052734"/>
    </g>
   </g>
   <g id="text_8">
    <g id="patch_21">
     <path d="M 295.915498 387.47903 
L 348.661123 387.47903 
L 348.661123 367.94528 
L 295.915498 367.94528 
L 295.915498 387.47903 
z
" style="fill: none; opacity: 0"/>
    </g>
    <!-- &lt;flow&gt; -->
    <g transform="translate(299.875498 381.023405) scale(0.12 -0.12)">
     <use xlink:href="#DejaVuSans-3c"/>
     <use xlink:href="#DejaVuSans-66" x="83.789062"/>
     <use xlink:href="#DejaVuSans-6c" x="118.994141"/>
     <use xlink:href="#DejaVuSans-6f" x="146.777344"/>
     <use xlink:href="#DejaVuSans-77" x="207.958984"/>
     <use xlink:href="#DejaVuSans-3e" x="289.746094"/>
    </g>
   </g>
   <g id="text_9">
    <g id="patch_22">
     <path d="M 326.219391 458.083456 
L 378.965016 458.083456 
L 378.965016 438.549706 
L 326.219391 438.549706 
L 326.219391 458.083456 
z
" style="fill: none; opacity: 0"/>
    </g>
    <!-- &lt;flow&gt; -->
    <g transform="translate(330.179391 451.627831) scale(0.12 -0.12)">
     <use xlink:href="#DejaVuSans-3c"/>
     <use xlink:href="#DejaVuSans-66" x="83.789062"/>
     <use xlink:href="#DejaVuSans-6c" x="118.994141"/>
     <use xlink:href="#DejaVuSans-6f" x="146.777344"/>
     <use xlink:href="#DejaVuSans-77" x="207.958984"/>
     <use xlink:href="#DejaVuSans-3e" x="289.746094"/>
    </g>
   </g>
   <g id="text_10">
    <g id="patch_23">
     <path d="M 440.4621 451.352134 
L 493.207725 451.352134 
L 493.207725 431.818384 
L 440.4621 431.818384 
L 440.4621 451.352134 
z
" style="fill: none; opacity: 0"/>
    </g>
    <!-- &lt;flow&gt; -->
    <g transform="translate(444.4221 444.896509) scale(0.12 -0.12)">
     <use xlink:href="#DejaVuSans-3c"/>
     <use xlink:href="#DejaVuSans-66" x="83.789062"/>
     <use xlink:href="#DejaVuSans-6c" x="118.994141"/>
     <use xlink:href="#DejaVuSans-6f" x="146.777344"/>
     <use xlink:href="#DejaVuSans-77" x="207.958984"/>
     <use xlink:href="#DejaVuSans-3e" x="289.746094"/>
    </g>
   </g>
   <g id="text_11">
    <g id="patch_24">
     <path d="M 490.921068 392.327255 
L 543.666693 392.327255 
L 543.666693 372.793505 
L 490.921068 372.793505 
L 490.921068 392.327255 
z
" style="fill: none; opacity: 0"/>
    </g>
    <!-- &lt;flow&gt; -->
    <g transform="translate(494.881068 385.87163) scale(0.12 -0.12)">
     <use xlink:href="#DejaVuSans-3c"/>
     <use xlink:href="#DejaVuSans-66" x="83.789062"/>
     <use xlink:href="#DejaVuSans-6c" x="118.994141"/>
     <use xlink:href="#DejaVuSans-6f" x="146.777344"/>
     <use xlink:href="#DejaVuSans-77" x="207.958984"/>
     <use xlink:href="#DejaVuSans-3e" x="289.746094"/>
    </g>
   </g>
   <g id="text_12">
    <g id="patch_25">
     <path d="M 312.528338 338.016263 
L 399.991463 338.016263 
L 399.991463 318.482513 
L 312.528338 318.482513 
L 312.528338 338.016263 
z
" style="fill: none; opacity: 0"/>
    </g>
    <!-- &lt;activation&gt; -->
    <g transform="translate(316.488338 331.560638) scale(0.12 -0.12)">
     <use xlink:href="#DejaVuSans-3c"/>
     <use xlink:href="#DejaVuSans-61" x="83.789062"/>
     <use xlink:href="#DejaVuSans-63" x="145.068359"/>
     <use xlink:href="#DejaVuSans-74" x="200.048828"/>
     <use xlink:href="#DejaVuSans-69" x="239.257812"/>
     <use xlink:href="#DejaVuSans-76" x="267.041016"/>
     <use xlink:href="#DejaVuSans-61" x="326.220703"/>
     <use xlink:href="#DejaVuSans-74" x="387.5"/>
     <use xlink:href="#DejaVuSans-69" x="426.708984"/>
     <use xlink:href="#DejaVuSans-6f" x="454.492188"/>
     <use xlink:href="#DejaVuSans-6e" x="515.673828"/>
     <use xlink:href="#DejaVuSans-3e" x="579.052734"/>
    </g>
   </g>
   <g id="PathCollection_1">
    <defs>
     <path id="me0a15cbf2f" d="M -11.18034 11.18034 
L 11.18034 11.18034 
L 11.18034 -11.18034 
L -11.18034 -11.18034 
z
" style="stroke: #808080; stroke-width: 2"/>
    </defs>
    <g clip-path="url(#p2d15d3458c)">
     <use xlink:href="#me0a15cbf2f" x="416.243926" y="164.453853" style="fill: #d3d3d3; stroke: #808080; stroke-width: 2"/>
     <use xlink:href="#me0a15cbf2f" x="302.635212" y="273.351552" style="fill: #d3d3d3; stroke: #808080; stroke-width: 2"/>
     <use xlink:href="#me0a15cbf2f" x="409.881024" y="394.756938" style="fill: #d3d3d3; stroke: #808080; stroke-width: 2"/>
    </g>
   </g>
   <g id="PathCollection_2">
    <defs>
     <path id="m9cdc1e914c" d="M 0 11.18034 
C 2.965061 11.18034 5.80908 10.002309 7.905694 7.905694 
C 10.002309 5.80908 11.18034 2.965061 11.18034 0 
C 11.18034 -2.965061 10.002309 -5.80908 7.905694 -7.905694 
C 5.80908 -10.002309 2.965061 -11.18034 0 -11.18034 
C -2.965061 -11.18034 -5.80908 -10.002309 -7.905694 -7.905694 
C -10.002309 -5.80908 -11.18034 -2.965061 -11.18034 0 
C -11.18034 2.965061 -10.002309 5.80908 -7.905694 7.905694 
C -5.80908 10.002309 -2.965061 11.18034 0 11.18034 
z
"/>
    </defs>
    <g clip-path="url(#p2d15d3458c)">
     <use xlink:href="#m9cdc1e914c" x="507.132223" y="55.309091" style="fill: #d3d3d3"/>
     <use xlink:href="#m9cdc1e914c" x="244.665034" y="159.690142" style="fill: #d3d3d3"/>
     <use xlink:href="#m9cdc1e914c" x="71.316562" y="262.215078" style="fill: #d3d3d3"/>
     <use xlink:href="#m9cdc1e914c" x="234.69469" y="372.281006" style="fill: #d3d3d3"/>
     <use xlink:href="#m9cdc1e914c" x="295.302481" y="513.490909" style="fill: #d3d3d3"/>
     <use xlink:href="#m9cdc1e914c" x="523.788395" y="500.026954" style="fill: #d3d3d3"/>
     <use xlink:href="#m9cdc1e914c" x="624.704992" y="381.977675" style="fill: #d3d3d3"/>
    </g>
   </g>
   <g id="text_13">
    <g id="patch_26">
     <path d="M 377.207364 168.413853 
L 455.280489 168.413853 
L 455.280489 148.546353 
L 377.207364 148.546353 
L 377.207364 168.413853 
z
" style="fill: none; opacity: 0"/>
    </g>
    <!-- function_a -->
    <g transform="translate(381.167364 161.624478) scale(0.12 -0.12)">
     <defs>
      <path id="DejaVuSans-Bold-66" d="M 2841 4863 
L 2841 4128 
L 2222 4128 
Q 1984 4128 1890 4042 
Q 1797 3956 1797 3744 
L 1797 3500 
L 2753 3500 
L 2753 2700 
L 1797 2700 
L 1797 0 
L 678 0 
L 678 2700 
L 122 2700 
L 122 3500 
L 678 3500 
L 678 3744 
Q 678 4316 997 4589 
Q 1316 4863 1984 4863 
L 2841 4863 
z
" transform="scale(0.015625)"/>
      <path id="DejaVuSans-Bold-75" d="M 500 1363 
L 500 3500 
L 1625 3500 
L 1625 3150 
Q 1625 2866 1622 2436 
Q 1619 2006 1619 1863 
Q 1619 1441 1641 1255 
Q 1663 1069 1716 984 
Q 1784 875 1895 815 
Q 2006 756 2150 756 
Q 2500 756 2700 1025 
Q 2900 1294 2900 1772 
L 2900 3500 
L 4019 3500 
L 4019 0 
L 2900 0 
L 2900 506 
Q 2647 200 2364 54 
Q 2081 -91 1741 -91 
Q 1134 -91 817 281 
Q 500 653 500 1363 
z
" transform="scale(0.015625)"/>
      <path id="DejaVuSans-Bold-6e" d="M 4056 2131 
L 4056 0 
L 2931 0 
L 2931 347 
L 2931 1631 
Q 2931 2084 2911 2256 
Q 2891 2428 2841 2509 
Q 2775 2619 2662 2680 
Q 2550 2741 2406 2741 
Q 2056 2741 1856 2470 
Q 1656 2200 1656 1722 
L 1656 0 
L 538 0 
L 538 3500 
L 1656 3500 
L 1656 2988 
Q 1909 3294 2193 3439 
Q 2478 3584 2822 3584 
Q 3428 3584 3742 3212 
Q 4056 2841 4056 2131 
z
" transform="scale(0.015625)"/>
      <path id="DejaVuSans-Bold-63" d="M 3366 3391 
L 3366 2478 
Q 3138 2634 2908 2709 
Q 2678 2784 2431 2784 
Q 1963 2784 1702 2511 
Q 1441 2238 1441 1747 
Q 1441 1256 1702 982 
Q 1963 709 2431 709 
Q 2694 709 2930 787 
Q 3166 866 3366 1019 
L 3366 103 
Q 3103 6 2833 -42 
Q 2563 -91 2291 -91 
Q 1344 -91 809 395 
Q 275 881 275 1747 
Q 275 2613 809 3098 
Q 1344 3584 2291 3584 
Q 2566 3584 2833 3536 
Q 3100 3488 3366 3391 
z
" transform="scale(0.015625)"/>
      <path id="DejaVuSans-Bold-74" d="M 1759 4494 
L 1759 3500 
L 2913 3500 
L 2913 2700 
L 1759 2700 
L 1759 1216 
Q 1759 972 1856 886 
Q 1953 800 2241 800 
L 2816 800 
L 2816 0 
L 1856 0 
Q 1194 0 917 276 
Q 641 553 641 1216 
L 641 2700 
L 84 2700 
L 84 3500 
L 641 3500 
L 641 4494 
L 1759 4494 
z
" transform="scale(0.015625)"/>
      <path id="DejaVuSans-Bold-69" d="M 538 3500 
L 1656 3500 
L 1656 0 
L 538 0 
L 538 3500 
z
M 538 4863 
L 1656 4863 
L 1656 3950 
L 538 3950 
L 538 4863 
z
" transform="scale(0.015625)"/>
      <path id="DejaVuSans-Bold-6f" d="M 2203 2784 
Q 1831 2784 1636 2517 
Q 1441 2250 1441 1747 
Q 1441 1244 1636 976 
Q 1831 709 2203 709 
Q 2569 709 2762 976 
Q 2956 1244 2956 1747 
Q 2956 2250 2762 2517 
Q 2569 2784 2203 2784 
z
M 2203 3584 
Q 3106 3584 3614 3096 
Q 4122 2609 4122 1747 
Q 4122 884 3614 396 
Q 3106 -91 2203 -91 
Q 1297 -91 786 396 
Q 275 884 275 1747 
Q 275 2609 786 3096 
Q 1297 3584 2203 3584 
z
" transform="scale(0.015625)"/>
      <path id="DejaVuSans-Bold-5f" d="M 3200 -916 
L 3200 -1509 
L 0 -1509 
L 0 -916 
L 3200 -916 
z
" transform="scale(0.015625)"/>
      <path id="DejaVuSans-Bold-61" d="M 2106 1575 
Q 1756 1575 1579 1456 
Q 1403 1338 1403 1106 
Q 1403 894 1545 773 
Q 1688 653 1941 653 
Q 2256 653 2472 879 
Q 2688 1106 2688 1447 
L 2688 1575 
L 2106 1575 
z
M 3816 1997 
L 3816 0 
L 2688 0 
L 2688 519 
Q 2463 200 2181 54 
Q 1900 -91 1497 -91 
Q 953 -91 614 226 
Q 275 544 275 1050 
Q 275 1666 698 1953 
Q 1122 2241 2028 2241 
L 2688 2241 
L 2688 2328 
Q 2688 2594 2478 2717 
Q 2269 2841 1825 2841 
Q 1466 2841 1156 2769 
Q 847 2697 581 2553 
L 581 3406 
Q 941 3494 1303 3539 
Q 1666 3584 2028 3584 
Q 2975 3584 3395 3211 
Q 3816 2838 3816 1997 
z
" transform="scale(0.015625)"/>
     </defs>
     <use xlink:href="#DejaVuSans-Bold-66"/>
     <use xlink:href="#DejaVuSans-Bold-75" x="43.505859"/>
     <use xlink:href="#DejaVuSans-Bold-6e" x="114.697266"/>
     <use xlink:href="#DejaVuSans-Bold-63" x="185.888672"/>
     <use xlink:href="#DejaVuSans-Bold-74" x="245.166016"/>
     <use xlink:href="#DejaVuSans-Bold-69" x="292.96875"/>
     <use xlink:href="#DejaVuSans-Bold-6f" x="327.246094"/>
     <use xlink:href="#DejaVuSans-Bold-6e" x="395.947266"/>
     <use xlink:href="#DejaVuSans-Bold-5f" x="467.138672"/>
     <use xlink:href="#DejaVuSans-Bold-61" x="517.138672"/>
    </g>
   </g>
   <g id="text_14">
    <g id="patch_27">
     <path d="M 263.353025 277.311552 
L 341.9174 277.311552 
L 341.9174 257.444052 
L 263.353025 257.444052 
L 263.353025 277.311552 
z
" style="fill: none; opacity: 0"/>
    </g>
    <!-- function_b -->
    <g transform="translate(267.313025 270.522177) scale(0.12 -0.12)">
     <defs>
      <path id="DejaVuSans-Bold-62" d="M 2400 722 
Q 2759 722 2948 984 
Q 3138 1247 3138 1747 
Q 3138 2247 2948 2509 
Q 2759 2772 2400 2772 
Q 2041 2772 1848 2508 
Q 1656 2244 1656 1747 
Q 1656 1250 1848 986 
Q 2041 722 2400 722 
z
M 1656 2988 
Q 1888 3294 2169 3439 
Q 2450 3584 2816 3584 
Q 3463 3584 3878 3070 
Q 4294 2556 4294 1747 
Q 4294 938 3878 423 
Q 3463 -91 2816 -91 
Q 2450 -91 2169 54 
Q 1888 200 1656 506 
L 1656 0 
L 538 0 
L 538 4863 
L 1656 4863 
L 1656 2988 
z
" transform="scale(0.015625)"/>
     </defs>
     <use xlink:href="#DejaVuSans-Bold-66"/>
     <use xlink:href="#DejaVuSans-Bold-75" x="43.505859"/>
     <use xlink:href="#DejaVuSans-Bold-6e" x="114.697266"/>
     <use xlink:href="#DejaVuSans-Bold-63" x="185.888672"/>
     <use xlink:href="#DejaVuSans-Bold-74" x="245.166016"/>
     <use xlink:href="#DejaVuSans-Bold-69" x="292.96875"/>
     <use xlink:href="#DejaVuSans-Bold-6f" x="327.246094"/>
     <use xlink:href="#DejaVuSans-Bold-6e" x="395.947266"/>
     <use xlink:href="#DejaVuSans-Bold-5f" x="467.138672"/>
     <use xlink:href="#DejaVuSans-Bold-62" x="517.138672"/>
    </g>
   </g>
   <g id="text_15">
    <g id="patch_28">
     <path d="M 371.336649 398.716938 
L 448.425399 398.716938 
L 448.425399 378.849438 
L 371.336649 378.849438 
L 371.336649 398.716938 
z
" style="fill: none; opacity: 0"/>
    </g>
    <!-- function_c -->
    <g transform="translate(375.296649 391.927563) scale(0.12 -0.12)">
     <use xlink:href="#DejaVuSans-Bold-66"/>
     <use xlink:href="#DejaVuSans-Bold-75" x="43.505859"/>
     <use xlink:href="#DejaVuSans-Bold-6e" x="114.697266"/>
     <use xlink:href="#DejaVuSans-Bold-63" x="185.888672"/>
     <use xlink:href="#DejaVuSans-Bold-74" x="245.166016"/>
     <use xlink:href="#DejaVuSans-Bold-69" x="292.96875"/>
     <use xlink:href="#DejaVuSans-Bold-6f" x="327.246094"/>
     <use xlink:href="#DejaVuSans-Bold-6e" x="395.947266"/>
     <use xlink:href="#DejaVuSans-Bold-5f" x="467.138672"/>
     <use xlink:href="#DejaVuSans-Bold-63" x="517.138672"/>
    </g>
   </g>
   <g id="text_16">
    <g id="patch_29">
     <path d="M 448.088473 59.269091 
L 566.175973 59.269091 
L 566.175973 39.401591 
L 448.088473 39.401591 
L 448.088473 59.269091 
z
" style="fill: none; opacity: 0"/>
    </g>
    <!-- external_signals -->
    <g transform="translate(452.048473 52.479716) scale(0.12 -0.12)">
     <defs>
      <path id="DejaVuSans-Bold-65" d="M 4031 1759 
L 4031 1441 
L 1416 1441 
Q 1456 1047 1700 850 
Q 1944 653 2381 653 
Q 2734 653 3104 758 
Q 3475 863 3866 1075 
L 3866 213 
Q 3469 63 3072 -14 
Q 2675 -91 2278 -91 
Q 1328 -91 801 392 
Q 275 875 275 1747 
Q 275 2603 792 3093 
Q 1309 3584 2216 3584 
Q 3041 3584 3536 3087 
Q 4031 2591 4031 1759 
z
M 2881 2131 
Q 2881 2450 2695 2645 
Q 2509 2841 2209 2841 
Q 1884 2841 1681 2658 
Q 1478 2475 1428 2131 
L 2881 2131 
z
" transform="scale(0.015625)"/>
      <path id="DejaVuSans-Bold-78" d="M 1422 1791 
L 159 3500 
L 1344 3500 
L 2059 2463 
L 2784 3500 
L 3969 3500 
L 2706 1797 
L 4031 0 
L 2847 0 
L 2059 1106 
L 1281 0 
L 97 0 
L 1422 1791 
z
" transform="scale(0.015625)"/>
      <path id="DejaVuSans-Bold-72" d="M 3138 2547 
Q 2991 2616 2845 2648 
Q 2700 2681 2553 2681 
Q 2122 2681 1889 2404 
Q 1656 2128 1656 1613 
L 1656 0 
L 538 0 
L 538 3500 
L 1656 3500 
L 1656 2925 
Q 1872 3269 2151 3426 
Q 2431 3584 2822 3584 
Q 2878 3584 2943 3579 
Q 3009 3575 3134 3559 
L 3138 2547 
z
" transform="scale(0.015625)"/>
      <path id="DejaVuSans-Bold-6c" d="M 538 4863 
L 1656 4863 
L 1656 0 
L 538 0 
L 538 4863 
z
" transform="scale(0.015625)"/>
      <path id="DejaVuSans-Bold-73" d="M 3272 3391 
L 3272 2541 
Q 2913 2691 2578 2766 
Q 2244 2841 1947 2841 
Q 1628 2841 1473 2761 
Q 1319 2681 1319 2516 
Q 1319 2381 1436 2309 
Q 1553 2238 1856 2203 
L 2053 2175 
Q 2913 2066 3209 1816 
Q 3506 1566 3506 1031 
Q 3506 472 3093 190 
Q 2681 -91 1863 -91 
Q 1516 -91 1145 -36 
Q 775 19 384 128 
L 384 978 
Q 719 816 1070 734 
Q 1422 653 1784 653 
Q 2113 653 2278 743 
Q 2444 834 2444 1013 
Q 2444 1163 2330 1236 
Q 2216 1309 1875 1350 
L 1678 1375 
Q 931 1469 631 1722 
Q 331 1975 331 2491 
Q 331 3047 712 3315 
Q 1094 3584 1881 3584 
Q 2191 3584 2531 3537 
Q 2872 3491 3272 3391 
z
" transform="scale(0.015625)"/>
      <path id="DejaVuSans-Bold-67" d="M 2919 594 
Q 2688 288 2409 144 
Q 2131 0 1766 0 
Q 1125 0 706 504 
Q 288 1009 288 1791 
Q 288 2575 706 3076 
Q 1125 3578 1766 3578 
Q 2131 3578 2409 3434 
Q 2688 3291 2919 2981 
L 2919 3500 
L 4044 3500 
L 4044 353 
Q 4044 -491 3511 -936 
Q 2978 -1381 1966 -1381 
Q 1638 -1381 1331 -1331 
Q 1025 -1281 716 -1178 
L 716 -306 
Q 1009 -475 1290 -558 
Q 1572 -641 1856 -641 
Q 2406 -641 2662 -400 
Q 2919 -159 2919 353 
L 2919 594 
z
M 2181 2772 
Q 1834 2772 1640 2515 
Q 1447 2259 1447 1791 
Q 1447 1309 1634 1061 
Q 1822 813 2181 813 
Q 2531 813 2725 1069 
Q 2919 1325 2919 1791 
Q 2919 2259 2725 2515 
Q 2531 2772 2181 2772 
z
" transform="scale(0.015625)"/>
     </defs>
     <use xlink:href="#DejaVuSans-Bold-65"/>
     <use xlink:href="#DejaVuSans-Bold-78" x="67.822266"/>
     <use xlink:href="#DejaVuSans-Bold-74" x="132.324219"/>
     <use xlink:href="#DejaVuSans-Bold-65" x="180.126953"/>
     <use xlink:href="#DejaVuSans-Bold-72" x="247.949219"/>
     <use xlink:href="#DejaVuSans-Bold-6e" x="297.265625"/>
     <use xlink:href="#DejaVuSans-Bold-61" x="368.457031"/>
     <use xlink:href="#DejaVuSans-Bold-6c" x="435.9375"/>
     <use xlink:href="#DejaVuSans-Bold-5f" x="470.214844"/>
     <use xlink:href="#DejaVuSans-Bold-73" x="520.214844"/>
     <use xlink:href="#DejaVuSans-Bold-69" x="579.736328"/>
     <use xlink:href="#DejaVuSans-Bold-67" x="614.013672"/>
     <use xlink:href="#DejaVuSans-Bold-6e" x="685.595703"/>
     <use xlink:href="#DejaVuSans-Bold-61" x="756.787109"/>
     <use xlink:href="#DejaVuSans-Bold-6c" x="824.267578"/>
     <use xlink:href="#DejaVuSans-Bold-73" x="858.544922"/>
    </g>
   </g>
   <g id="text_17">
    <g id="patch_30">
     <path d="M 193.449409 163.650142 
L 295.880659 163.650142 
L 295.880659 143.782642 
L 193.449409 143.782642 
L 193.449409 163.650142 
z
" style="fill: none; opacity: 0"/>
    </g>
    <!-- control_signal -->
    <g transform="translate(197.409409 156.860767) scale(0.12 -0.12)">
     <use xlink:href="#DejaVuSans-Bold-63"/>
     <use xlink:href="#DejaVuSans-Bold-6f" x="59.277344"/>
     <use xlink:href="#DejaVuSans-Bold-6e" x="127.978516"/>
     <use xlink:href="#DejaVuSans-Bold-74" x="199.169922"/>
     <use xlink:href="#DejaVuSans-Bold-72" x="246.972656"/>
     <use xlink:href="#DejaVuSans-Bold-6f" x="296.289062"/>
     <use xlink:href="#DejaVuSans-Bold-6c" x="364.990234"/>
     <use xlink:href="#DejaVuSans-Bold-5f" x="399.267578"/>
     <use xlink:href="#DejaVuSans-Bold-73" x="449.267578"/>
     <use xlink:href="#DejaVuSans-Bold-69" x="508.789062"/>
     <use xlink:href="#DejaVuSans-Bold-67" x="543.066406"/>
     <use xlink:href="#DejaVuSans-Bold-6e" x="614.648438"/>
     <use xlink:href="#DejaVuSans-Bold-61" x="685.839844"/>
     <use xlink:href="#DejaVuSans-Bold-6c" x="753.320312"/>
    </g>
   </g>
   <g id="text_18">
    <g id="patch_31">
     <path d="M 3.24 266.175078 
L 139.393125 266.175078 
L 139.393125 246.307578 
L 3.24 246.307578 
L 3.24 266.175078 
z
" style="fill: none; opacity: 0"/>
    </g>
    <!-- external_energy_in -->
    <g transform="translate(7.2 259.385703) scale(0.12 -0.12)">
     <defs>
      <path id="DejaVuSans-Bold-79" d="M 78 3500 
L 1197 3500 
L 2138 1125 
L 2938 3500 
L 4056 3500 
L 2584 -331 
Q 2363 -916 2067 -1148 
Q 1772 -1381 1288 -1381 
L 641 -1381 
L 641 -647 
L 991 -647 
Q 1275 -647 1404 -556 
Q 1534 -466 1606 -231 
L 1638 -134 
L 78 3500 
z
" transform="scale(0.015625)"/>
     </defs>
     <use xlink:href="#DejaVuSans-Bold-65"/>
     <use xlink:href="#DejaVuSans-Bold-78" x="67.822266"/>
     <use xlink:href="#DejaVuSans-Bold-74" x="132.324219"/>
     <use xlink:href="#DejaVuSans-Bold-65" x="180.126953"/>
     <use xlink:href="#DejaVuSans-Bold-72" x="247.949219"/>
     <use xlink:href="#DejaVuSans-Bold-6e" x="297.265625"/>
     <use xlink:href="#DejaVuSans-Bold-61" x="368.457031"/>
     <use xlink:href="#DejaVuSans-Bold-6c" x="435.9375"/>
     <use xlink:href="#DejaVuSans-Bold-5f" x="470.214844"/>
     <use xlink:href="#DejaVuSans-Bold-65" x="520.214844"/>
     <use xlink:href="#DejaVuSans-Bold-6e" x="588.037109"/>
     <use xlink:href="#DejaVuSans-Bold-65" x="659.228516"/>
     <use xlink:href="#DejaVuSans-Bold-72" x="727.050781"/>
     <use xlink:href="#DejaVuSans-Bold-67" x="776.367188"/>
     <use xlink:href="#DejaVuSans-Bold-79" x="847.949219"/>
     <use xlink:href="#DejaVuSans-Bold-5f" x="913.134766"/>
     <use xlink:href="#DejaVuSans-Bold-69" x="963.134766"/>
     <use xlink:href="#DejaVuSans-Bold-6e" x="997.412109"/>
    </g>
   </g>
   <g id="text_19">
    <g id="patch_32">
     <path d="M 177.557815 376.241006 
L 291.831565 376.241006 
L 291.831565 356.373506 
L 177.557815 356.373506 
L 177.557815 376.241006 
z
" style="fill: none; opacity: 0"/>
    </g>
    <!-- internal_energy -->
    <g transform="translate(181.517815 369.451631) scale(0.12 -0.12)">
     <use xlink:href="#DejaVuSans-Bold-69"/>
     <use xlink:href="#DejaVuSans-Bold-6e" x="34.277344"/>
     <use xlink:href="#DejaVuSans-Bold-74" x="105.46875"/>
     <use xlink:href="#DejaVuSans-Bold-65" x="153.271484"/>
     <use xlink:href="#DejaVuSans-Bold-72" x="221.09375"/>
     <use xlink:href="#DejaVuSans-Bold-6e" x="270.410156"/>
     <use xlink:href="#DejaVuSans-Bold-61" x="341.601562"/>
     <use xlink:href="#DejaVuSans-Bold-6c" x="409.082031"/>
     <use xlink:href="#DejaVuSans-Bold-5f" x="443.359375"/>
     <use xlink:href="#DejaVuSans-Bold-65" x="493.359375"/>
     <use xlink:href="#DejaVuSans-Bold-6e" x="561.181641"/>
     <use xlink:href="#DejaVuSans-Bold-65" x="632.373047"/>
     <use xlink:href="#DejaVuSans-Bold-72" x="700.195312"/>
     <use xlink:href="#DejaVuSans-Bold-67" x="749.511719"/>
     <use xlink:href="#DejaVuSans-Bold-79" x="821.09375"/>
    </g>
   </g>
   <g id="text_20">
    <g id="patch_33">
     <path d="M 222.440918 517.450909 
L 368.164043 517.450909 
L 368.164043 497.583409 
L 222.440918 497.583409 
L 222.440918 517.450909 
z
" style="fill: none; opacity: 0"/>
    </g>
    <!-- external_material_in -->
    <g transform="translate(226.400918 510.661534) scale(0.12 -0.12)">
     <defs>
      <path id="DejaVuSans-Bold-6d" d="M 3781 2919 
Q 3994 3244 4286 3414 
Q 4578 3584 4928 3584 
Q 5531 3584 5847 3212 
Q 6163 2841 6163 2131 
L 6163 0 
L 5038 0 
L 5038 1825 
Q 5041 1866 5042 1909 
Q 5044 1953 5044 2034 
Q 5044 2406 4934 2573 
Q 4825 2741 4581 2741 
Q 4263 2741 4089 2478 
Q 3916 2216 3909 1719 
L 3909 0 
L 2784 0 
L 2784 1825 
Q 2784 2406 2684 2573 
Q 2584 2741 2328 2741 
Q 2006 2741 1831 2477 
Q 1656 2213 1656 1722 
L 1656 0 
L 531 0 
L 531 3500 
L 1656 3500 
L 1656 2988 
Q 1863 3284 2130 3434 
Q 2397 3584 2719 3584 
Q 3081 3584 3359 3409 
Q 3638 3234 3781 2919 
z
" transform="scale(0.015625)"/>
     </defs>
     <use xlink:href="#DejaVuSans-Bold-65"/>
     <use xlink:href="#DejaVuSans-Bold-78" x="67.822266"/>
     <use xlink:href="#DejaVuSans-Bold-74" x="132.324219"/>
     <use xlink:href="#DejaVuSans-Bold-65" x="180.126953"/>
     <use xlink:href="#DejaVuSans-Bold-72" x="247.949219"/>
     <use xlink:href="#DejaVuSans-Bold-6e" x="297.265625"/>
     <use xlink:href="#DejaVuSans-Bold-61" x="368.457031"/>
     <use xlink:href="#DejaVuSans-Bold-6c" x="435.9375"/>
     <use xlink:href="#DejaVuSans-Bold-5f" x="470.214844"/>
     <use xlink:href="#DejaVuSans-Bold-6d" x="520.214844"/>
     <use xlink:href="#DejaVuSans-Bold-61" x="624.414062"/>
     <use xlink:href="#DejaVuSans-Bold-74" x="691.894531"/>
     <use xlink:href="#DejaVuSans-Bold-65" x="739.697266"/>
     <use xlink:href="#DejaVuSans-Bold-72" x="807.519531"/>
     <use xlink:href="#DejaVuSans-Bold-69" x="856.835938"/>
     <use xlink:href="#DejaVuSans-Bold-61" x="891.113281"/>
     <use xlink:href="#DejaVuSans-Bold-6c" x="958.59375"/>
     <use xlink:href="#DejaVuSans-Bold-5f" x="992.871094"/>
     <use xlink:href="#DejaVuSans-Bold-69" x="1042.871094"/>
     <use xlink:href="#DejaVuSans-Bold-6e" x="1077.148438"/>
    </g>
   </g>
   <g id="text_21">
    <g id="patch_34">
     <path d="M 445.993707 503.986954 
L 601.583082 503.986954 
L 601.583082 484.119454 
L 445.993707 484.119454 
L 445.993707 503.986954 
z
" style="fill: none; opacity: 0"/>
    </g>
    <!-- external_material_out -->
    <g transform="translate(449.953707 497.197579) scale(0.12 -0.12)">
     <use xlink:href="#DejaVuSans-Bold-65"/>
     <use xlink:href="#DejaVuSans-Bold-78" x="67.822266"/>
     <use xlink:href="#DejaVuSans-Bold-74" x="132.324219"/>
     <use xlink:href="#DejaVuSans-Bold-65" x="180.126953"/>
     <use xlink:href="#DejaVuSans-Bold-72" x="247.949219"/>
     <use xlink:href="#DejaVuSans-Bold-6e" x="297.265625"/>
     <use xlink:href="#DejaVuSans-Bold-61" x="368.457031"/>
     <use xlink:href="#DejaVuSans-Bold-6c" x="435.9375"/>
     <use xlink:href="#DejaVuSans-Bold-5f" x="470.214844"/>
     <use xlink:href="#DejaVuSans-Bold-6d" x="520.214844"/>
     <use xlink:href="#DejaVuSans-Bold-61" x="624.414062"/>
     <use xlink:href="#DejaVuSans-Bold-74" x="691.894531"/>
     <use xlink:href="#DejaVuSans-Bold-65" x="739.697266"/>
     <use xlink:href="#DejaVuSans-Bold-72" x="807.519531"/>
     <use xlink:href="#DejaVuSans-Bold-69" x="856.835938"/>
     <use xlink:href="#DejaVuSans-Bold-61" x="891.113281"/>
     <use xlink:href="#DejaVuSans-Bold-6c" x="958.59375"/>
     <use xlink:href="#DejaVuSans-Bold-5f" x="992.871094"/>
     <use xlink:href="#DejaVuSans-Bold-6f" x="1042.871094"/>
     <use xlink:href="#DejaVuSans-Bold-75" x="1111.572266"/>
     <use xlink:href="#DejaVuSans-Bold-74" x="1182.763672"/>
    </g>
   </g>
   <g id="text_22">
    <g id="patch_35">
     <path d="M 551.695305 385.937675 
L 697.71468 385.937675 
L 697.71468 366.070175 
L 551.695305 366.070175 
L 551.695305 385.937675 
z
" style="fill: none; opacity: 0"/>
    </g>
    <!-- external_energy_out -->
    <g transform="translate(555.655305 379.1483) scale(0.12 -0.12)">
     <use xlink:href="#DejaVuSans-Bold-65"/>
     <use xlink:href="#DejaVuSans-Bold-78" x="67.822266"/>
     <use xlink:href="#DejaVuSans-Bold-74" x="132.324219"/>
     <use xlink:href="#DejaVuSans-Bold-65" x="180.126953"/>
     <use xlink:href="#DejaVuSans-Bold-72" x="247.949219"/>
     <use xlink:href="#DejaVuSans-Bold-6e" x="297.265625"/>
     <use xlink:href="#DejaVuSans-Bold-61" x="368.457031"/>
     <use xlink:href="#DejaVuSans-Bold-6c" x="435.9375"/>
     <use xlink:href="#DejaVuSans-Bold-5f" x="470.214844"/>
     <use xlink:href="#DejaVuSans-Bold-65" x="520.214844"/>
     <use xlink:href="#DejaVuSans-Bold-6e" x="588.037109"/>
     <use xlink:href="#DejaVuSans-Bold-65" x="659.228516"/>
     <use xlink:href="#DejaVuSans-Bold-72" x="727.050781"/>
     <use xlink:href="#DejaVuSans-Bold-67" x="776.367188"/>
     <use xlink:href="#DejaVuSans-Bold-79" x="847.949219"/>
     <use xlink:href="#DejaVuSans-Bold-5f" x="913.134766"/>
     <use xlink:href="#DejaVuSans-Bold-6f" x="963.134766"/>
     <use xlink:href="#DejaVuSans-Bold-75" x="1031.835938"/>
     <use xlink:href="#DejaVuSans-Bold-74" x="1103.027344"/>
    </g>
   </g>
   <g id="legend_1">
    <g id="patch_36">
     <path d="M 689.810777 328.917188 
L 783.33734 328.917188 
Q 785.33734 328.917188 785.33734 326.917188 
L 785.33734 241.882813 
Q 785.33734 239.882813 783.33734 239.882813 
L 689.810777 239.882813 
Q 687.810777 239.882813 687.810777 241.882813 
L 687.810777 326.917188 
Q 687.810777 328.917188 689.810777 328.917188 
z
" style="fill: #ffffff; opacity: 0.8; stroke: #cccccc; stroke-linejoin: miter"/>
    </g>
    <g id="PathCollection_3">
     <g>
      <use xlink:href="#me0a15cbf2f" x="707.810777" y="254.85625" style="fill: #d3d3d3; stroke: #808080; stroke-width: 2"/>
     </g>
    </g>
    <g id="text_23">
     <!-- function -->
     <g transform="translate(725.810777 257.48125) scale(0.1 -0.1)">
      <defs>
       <path id="DejaVuSans-75" d="M 544 1381 
L 544 3500 
L 1119 3500 
L 1119 1403 
Q 1119 906 1312 657 
Q 1506 409 1894 409 
Q 2359 409 2629 706 
Q 2900 1003 2900 1516 
L 2900 3500 
L 3475 3500 
L 3475 0 
L 2900 0 
L 2900 538 
Q 2691 219 2414 64 
Q 2138 -91 1772 -91 
Q 1169 -91 856 284 
Q 544 659 544 1381 
z
M 1991 3584 
L 1991 3584 
z
" transform="scale(0.015625)"/>
      </defs>
      <use xlink:href="#DejaVuSans-66"/>
      <use xlink:href="#DejaVuSans-75" x="35.205078"/>
      <use xlink:href="#DejaVuSans-6e" x="98.583984"/>
      <use xlink:href="#DejaVuSans-63" x="161.962891"/>
      <use xlink:href="#DejaVuSans-74" x="216.943359"/>
      <use xlink:href="#DejaVuSans-69" x="256.152344"/>
      <use xlink:href="#DejaVuSans-6f" x="283.935547"/>
      <use xlink:href="#DejaVuSans-6e" x="345.117188"/>
     </g>
    </g>
    <g id="line2d_1">
     <path d="M 697.810777 283.659375 
L 707.810777 283.659375 
L 717.810777 283.659375 
" style="fill: none; stroke: #000000; stroke-width: 1.5; stroke-linecap: square"/>
    </g>
    <g id="text_24">
     <!-- flow -->
     <g transform="translate(725.810777 287.159375) scale(0.1 -0.1)">
      <use xlink:href="#DejaVuSans-66"/>
      <use xlink:href="#DejaVuSans-6c" x="35.205078"/>
      <use xlink:href="#DejaVuSans-6f" x="62.988281"/>
      <use xlink:href="#DejaVuSans-77" x="124.169922"/>
     </g>
    </g>
    <g id="line2d_2">
     <path d="M 697.810777 313.3375 
L 707.810777 313.3375 
L 717.810777 313.3375 
" style="fill: none; stroke-dasharray: 5.55,2.4; stroke-dashoffset: 0; stroke: #000000; stroke-width: 1.5"/>
    </g>
    <g id="text_25">
     <!-- activation -->
     <g transform="translate(725.810777 316.8375) scale(0.1 -0.1)">
      <use xlink:href="#DejaVuSans-61"/>
      <use xlink:href="#DejaVuSans-63" x="61.279297"/>
      <use xlink:href="#DejaVuSans-74" x="116.259766"/>
      <use xlink:href="#DejaVuSans-69" x="155.46875"/>
      <use xlink:href="#DejaVuSans-76" x="183.251953"/>
      <use xlink:href="#DejaVuSans-61" x="242.431641"/>
      <use xlink:href="#DejaVuSans-74" x="303.710938"/>
      <use xlink:href="#DejaVuSans-69" x="342.919922"/>
      <use xlink:href="#DejaVuSans-6f" x="370.703125"/>
      <use xlink:href="#DejaVuSans-6e" x="431.884766"/>
     </g>
    </g>
   </g>
  </g>
 </g>
 <defs>
  <clipPath id="p2d15d3458c">
   <rect x="13.210777" y="7.2" width="669.6" height="554.4"/>
  </clipPath>
 </defs>
</svg>
