<?xml version="1.0" encoding="UTF-8" standalone="no"?>
<!DOCTYPE svg PUBLIC "-//W3C//DTD SVG 1.1//EN"
 "http://www.w3.org/Graphics/SVG/1.1/DTD/svg11.dtd">
<!-- Generated by graphviz version 2.50.0 (0)
 -->
<!-- Pages: 1 -->
<svg width="704pt" height="291pt"
 viewBox="0.00 0.00 703.84 291.00" xmlns="http://www.w3.org/2000/svg" xmlns:xlink="http://www.w3.org/1999/xlink">
<g id="graph0" class="graph" transform="scale(1 1) rotate(0) translate(4 287)">
<polygon fill="white" stroke="transparent" points="-4,4 -4,-287 699.84,-287 699.84,4 -4,4"/>
<!-- function_a -->
<g id="node1" class="node">
<title>function_a</title>
<polygon fill="lightgrey" stroke="grey" stroke-width="2" points="489.64,-283 415.64,-283 415.64,-247 489.64,-247 489.64,-283"/>
<text text-anchor="middle" x="452.64" y="-261.3" font-family="Times New Roman,serif" font-size="14.00">function_a</text>
</g>
<!-- function_b -->
<g id="node2" class="node">
<title>function_b</title>
<polygon fill="lightgrey" stroke="grey" stroke-width="2" points="314.14,-196 239.14,-196 239.14,-160 314.14,-160 314.14,-196"/>
<text text-anchor="middle" x="276.64" y="-174.3" font-family="Times New Roman,serif" font-size="14.00">function_b</text>
</g>
<!-- function_a&#45;&gt;function_b -->
<g id="edge10" class="edge">
<title>function_a&#45;&gt;function_b</title>
<path fill="none" stroke="black" stroke-dasharray="5,2" d="M415.47,-257.82C390.61,-252.61 357.8,-243.62 331.64,-229 319.56,-222.24 307.94,-212.37 298.52,-203.17"/>
<polygon fill="black" stroke="black" points="291.47,-196.01 301.69,-199.98 294.98,-199.58 298.49,-203.14 298.49,-203.14 298.49,-203.14 294.98,-199.58 295.28,-206.3 291.47,-196.01 291.47,-196.01"/>
<text text-anchor="middle" x="385.14" y="-217.8" font-family="Times New Roman,serif" font-size="14.00">new_control_signal</text>
</g>
<!-- external_signals -->
<g id="node4" class="node">
<title>external_signals</title>
<ellipse fill="lightgrey" stroke="grey" stroke-width="0" cx="548.64" cy="-178" rx="67.69" ry="18"/>
<text text-anchor="middle" x="548.64" y="-174.3" font-family="Times New Roman,serif" font-size="14.00">external_signals</text>
</g>
<!-- function_a&#45;&gt;external_signals -->
<g id="edge1" class="edge">
<title>function_a&#45;&gt;external_signals</title>
<path fill="none" stroke="black" d="M481.35,-238.58C497.07,-224.67 516.09,-207.82 529.9,-195.6"/>
<polygon fill="none" stroke="black" points="481.06,-238.84 479.22,-245.82 472.07,-246.8 473.91,-239.83 481.06,-238.84"/>
</g>
<!-- control_signal -->
<g id="node5" class="node">
<title>control_signal</title>
<ellipse fill="lightgrey" stroke="grey" stroke-width="0" cx="427.64" cy="-91" rx="61.19" ry="18"/>
<text text-anchor="middle" x="427.64" y="-87.3" font-family="Times New Roman,serif" font-size="14.00">control_signal</text>
</g>
<!-- function_a&#45;&gt;control_signal -->
<g id="edge2" class="edge">
<title>function_a&#45;&gt;control_signal</title>
<path fill="none" stroke="black" d="M448.39,-234.76C443.14,-198.64 434.38,-138.37 430.12,-109.05"/>
<polygon fill="none" stroke="black" points="448.43,-235 453.25,-240.37 450.16,-246.88 445.33,-241.52 448.43,-235"/>
</g>
<!-- function_c -->
<g id="node3" class="node">
<title>function_c</title>
<polygon fill="lightgrey" stroke="grey" stroke-width="2" points="282.64,-109 208.64,-109 208.64,-73 282.64,-73 282.64,-109"/>
<text text-anchor="middle" x="245.64" y="-87.3" font-family="Times New Roman,serif" font-size="14.00">function_c</text>
</g>
<!-- function_b&#45;&gt;function_c -->
<g id="edge11" class="edge">
<title>function_b&#45;&gt;function_c</title>
<path fill="none" stroke="black" stroke-dasharray="5,2" d="M239.12,-175.01C192.5,-171.66 116.94,-163.06 99.64,-142 70.62,-106.68 145.14,-96.23 198.08,-93.19"/>
<polygon fill="black" stroke="black" points="208.34,-92.67 198.58,-97.67 203.35,-92.92 198.35,-93.17 198.35,-93.17 198.35,-93.17 203.35,-92.92 198.13,-88.68 208.34,-92.67 208.34,-92.67"/>
<text text-anchor="middle" x="168.14" y="-130.8" font-family="Times New Roman,serif" font-size="14.00">change_in_energy_usage</text>
</g>
<!-- function_b&#45;&gt;control_signal -->
<g id="edge3" class="edge">
<title>function_b&#45;&gt;control_signal</title>
<path fill="none" stroke="black" d="M326.41,-176.18C355.41,-173.09 390.68,-164.45 413.64,-142 422.41,-133.43 425.81,-119.86 427.08,-109.01"/>
<polygon fill="none" stroke="black" points="326.38,-176.18 320.73,-180.67 314.42,-177.19 320.06,-172.7 326.38,-176.18"/>
</g>
<!-- external_energy_in -->
<g id="node6" class="node">
<title>external_energy_in</title>
<ellipse fill="lightgrey" stroke="grey" stroke-width="0" cx="585.64" cy="-91" rx="78.79" ry="18"/>
<text text-anchor="middle" x="585.64" y="-87.3" font-family="Times New Roman,serif" font-size="14.00">external_energy_in</text>
</g>
<!-- function_b&#45;&gt;external_energy_in -->
<g id="edge4" class="edge">
<title>function_b&#45;&gt;external_energy_in</title>
<path fill="none" stroke="black" d="M326.55,-167.07C357.31,-160.63 397.48,-151.67 432.64,-142 471.18,-131.41 514.4,-117.05 545.05,-106.43"/>
<polygon fill="none" stroke="black" points="326.15,-167.15 321.09,-172.28 314.4,-169.58 319.47,-164.45 326.15,-167.15"/>
</g>
<!-- internal_energy -->
<g id="node7" class="node">
<title>internal_energy</title>
<ellipse fill="lightgrey" stroke="grey" stroke-width="0" cx="65.64" cy="-18" rx="65.79" ry="18"/>
<text text-anchor="middle" x="65.64" y="-14.3" font-family="Times New Roman,serif" font-size="14.00">internal_energy</text>
</g>
<!-- function_b&#45;&gt;internal_energy -->
<g id="edge5" class="edge">
<title>function_b&#45;&gt;internal_energy</title>
<path fill="none" stroke="black" d="M226.7,-173.89C178,-169.79 108.57,-160.78 89.64,-142 61.23,-113.8 61.26,-62.6 63.53,-36.02"/>
<polygon fill="none" stroke="black" points="226.94,-173.91 233.24,-170.39 238.9,-174.85 232.61,-178.37 226.94,-173.91"/>
</g>
<!-- function_c&#45;&gt;function_b -->
<g id="edge12" class="edge">
<title>function_c&#45;&gt;function_b</title>
<path fill="none" stroke="black" stroke-dasharray="5,2" d="M249.69,-109.37C252.16,-119.1 255.62,-131.38 259.64,-142 260.74,-144.88 261.98,-147.84 263.28,-150.76"/>
<polygon fill="black" stroke="black" points="267.54,-159.82 259.21,-152.69 265.41,-155.3 263.29,-150.78 263.29,-150.78 263.29,-150.78 265.41,-155.3 267.36,-148.86 267.54,-159.82 267.54,-159.82"/>
<text text-anchor="middle" x="336.64" y="-130.8" font-family="Times New Roman,serif" font-size="14.00">change_in_energy_potential</text>
</g>
<!-- function_c&#45;&gt;internal_energy -->
<g id="edge6" class="edge">
<title>function_c&#45;&gt;internal_energy</title>
<path fill="none" stroke="black" d="M196.84,-70.75C166.81,-58.91 128.98,-43.98 101.66,-33.21"/>
<polygon fill="none" stroke="black" points="197.19,-70.89 204.23,-69.37 208.35,-75.29 201.3,-76.81 197.19,-70.89"/>
</g>
<!-- external_material_in -->
<g id="node8" class="node">
<title>external_material_in</title>
<ellipse fill="lightgrey" stroke="grey" stroke-width="0" cx="232.64" cy="-18" rx="83.69" ry="18"/>
<text text-anchor="middle" x="232.64" y="-14.3" font-family="Times New Roman,serif" font-size="14.00">external_material_in</text>
</g>
<!-- function_c&#45;&gt;external_material_in -->
<g id="edge7" class="edge">
<title>function_c&#45;&gt;external_material_in</title>
<path fill="none" stroke="black" d="M240.33,-60.99C238.78,-52.5 237.13,-43.51 235.76,-36.03"/>
<polygon fill="none" stroke="black" points="240.34,-61.01 245.35,-66.19 242.5,-72.81 237.48,-67.63 240.34,-61.01"/>
</g>
<!-- external_material_out -->
<g id="node9" class="node">
<title>external_material_out</title>
<ellipse fill="lightgrey" stroke="grey" stroke-width="0" cx="422.64" cy="-18" rx="88.28" ry="18"/>
<text text-anchor="middle" x="422.64" y="-14.3" font-family="Times New Roman,serif" font-size="14.00">external_material_out</text>
</g>
<!-- function_c&#45;&gt;external_material_out -->
<g id="edge8" class="edge">
<title>function_c&#45;&gt;external_material_out</title>
<path fill="none" stroke="black" d="M294.06,-70.58C322.48,-59.18 357.9,-44.97 384.37,-34.35"/>
<polygon fill="none" stroke="black" points="293.89,-70.65 289.81,-76.59 282.75,-75.12 286.83,-69.17 293.89,-70.65"/>
</g>
<!-- external_energy_out -->
<g id="node10" class="node">
<title>external_energy_out</title>
<ellipse fill="lightgrey" stroke="grey" stroke-width="0" cx="612.64" cy="-18" rx="83.39" ry="18"/>
<text text-anchor="middle" x="612.64" y="-14.3" font-family="Times New Roman,serif" font-size="14.00">external_energy_out</text>
</g>
<!-- function_c&#45;&gt;external_energy_out -->
<g id="edge9" class="edge">
<title>function_c&#45;&gt;external_energy_out</title>
<path fill="none" stroke="black" d="M294.68,-80.51C361.39,-67.61 480.69,-44.53 552.66,-30.6"/>
<polygon fill="none" stroke="black" points="294.64,-80.52 289.5,-85.59 282.85,-82.8 287.98,-77.73 294.64,-80.52"/>
</g>
</g>
</svg>
