<svg xmlns="http://www.w3.org/2000/svg" xmlns:xlink="http://www.w3.org/1999/xlink" width="293pt" height="218pt" viewBox="0.00 0.00 293.00 218.00">
<g id="graph0" class="graph" transform="scale(1 1) rotate(0) translate(4 214)">
<polygon fill="white" stroke="transparent" points="-4,4 -4,-214 289,-214 289,4 -4,4"/>
<!-- ImportEE&#45;&#45;MoveWater -->
<g id="edge1" class="edge">
<title>ImportEE--MoveWater</title>
<path fill="none" stroke="lightgray" d="M55.33,-173.8C72.33,-159.05 96.7,-137.92 113.7,-123.18"/>
<text text-anchor="middle" x="106" y="-144.8" font-family="Times New Roman,serif" font-size="14.00">EE_1</text>
</g>
<!-- ImportWater&#45;&#45;MoveWater -->
<g id="edge2" class="edge">
<title>ImportWater--MoveWater</title>
<path fill="none" stroke="lightgray" d="M133.5,-173.8C133.5,-159.05 133.5,-137.92 133.5,-123.18"/>
<text text-anchor="middle" x="152.5" y="-144.8" font-family="Times New Roman,serif" font-size="14.00">Wat_1</text>
</g>
<!-- ImportSignal&#45;&#45;MoveWater -->
<g id="edge3" class="edge">
<title>ImportSignal--MoveWater</title>
<path fill="none" stroke="lightgray" d="M218.85,-173.8C200.28,-159.05 173.68,-137.92 155.12,-123.18"/>
<text text-anchor="middle" x="209" y="-144.8" font-family="Times New Roman,serif" font-size="14.00">Sig_1</text>
</g>
<!-- MoveWater&#45;&#45;ExportWater -->
<g id="edge4" class="edge">
<title>MoveWater--ExportWater</title>
<path fill="none" stroke="lightgray" d="M133.5,-86.8C133.5,-72.05 133.5,-50.92 133.5,-36.18"/>
<text text-anchor="middle" x="152.5" y="-57.8" font-family="Times New Roman,serif" font-size="14.00">Wat_2</text>
</g>
<!-- ImportEE -->
<g id="node1" class="node">
<title>ImportEE</title>
<polygon fill="lightgray" stroke="black" points="71,-210 0,-210 0,-174 71,-174 71,-210"/>
<text text-anchor="middle" x="35.5" y="-188.3" font-family="Times New Roman,serif" font-size="14.00">ImportEE</text>
</g>
<!-- ImportWater -->
<g id="node2" class="node">
<title>ImportWater</title>
<polygon fill="lightgray" stroke="black" points="178,-210 89,-210 89,-174 178,-174 178,-210"/>
<text text-anchor="middle" x="133.5" y="-188.3" font-family="Times New Roman,serif" font-size="14.00">ImportWater</text>
</g>
<!-- ImportSignal -->
<g id="node3" class="node">
<title>ImportSignal</title>
<polygon fill="lightgray" stroke="black" points="285,-210 196,-210 196,-174 285,-174 285,-210"/>
<text text-anchor="middle" x="240.5" y="-188.3" font-family="Times New Roman,serif" font-size="14.00">ImportSignal</text>
</g>
<!-- MoveWater -->
<g id="node4" class="node">
<title>MoveWater</title>
<polygon fill="lightgray" stroke="black" points="175,-123 92,-123 92,-87 175,-87 175,-123"/>
<text text-anchor="middle" x="133.5" y="-101.3" font-family="Times New Roman,serif" font-size="14.00">MoveWater</text>
</g>
<!-- ExportWater -->
<g id="node5" class="node">
<title>ExportWater</title>
<polygon fill="lightgray" stroke="black" points="178,-36 89,-36 89,0 178,0 178,-36"/>
<text text-anchor="middle" x="133.5" y="-14.3" font-family="Times New Roman,serif" font-size="14.00">ExportWater</text>
</g>
</g>
</svg>