<svg xmlns="http://www.w3.org/2000/svg" xmlns:xlink="http://www.w3.org/1999/xlink" width="656pt" height="468pt" viewBox="0.00 0.00 655.99 468.00">
<g id="graph0" class="graph" transform="scale(1 1) rotate(0) translate(36 432)">
<polygon fill="white" stroke="transparent" points="-36,36 -36,-432 619.99,-432 619.99,36 -36,36"/>
<!-- Pump&#45;&gt;MoveWat -->
<g id="edge1" class="edge">
<title>Pump-&gt;MoveWat</title>
<path fill="none" stroke="black" d="M324.98,-360.89C344.49,-329.88 387.39,-261.7 410.82,-224.48"/>
<polygon fill="black" stroke="black" points="413.96,-226.05 416.32,-215.72 408.04,-222.32 413.96,-226.05"/>
</g>
<!-- Pump&#45;&gt;ExportWater -->
<g id="edge2" class="edge">
<title>Pump-&gt;ExportWater</title>
<path fill="none" stroke="black" d="M303.71,-360.89C282.2,-329.75 234.77,-261.12 209.12,-224"/>
<polygon fill="black" stroke="black" points="211.96,-221.96 203.4,-215.72 206.2,-225.94 211.96,-221.96"/>
</g>
<!-- Pump&#45;&gt;ImportWater -->
<g id="edge3" class="edge">
<title>Pump-&gt;ImportWater</title>
<path fill="none" stroke="black" d="M295.11,-363.33C250.68,-332.56 142.55,-257.67 88.98,-220.56"/>
<polygon fill="black" stroke="black" points="90.77,-217.55 80.56,-214.73 86.79,-223.3 90.77,-217.55"/>
</g>
<!-- Pump&#45;&gt;ImportEE -->
<g id="edge4" class="edge">
<title>Pump-&gt;ImportEE</title>
<path fill="none" stroke="black" d="M332.72,-362.73C371.62,-331.68 464.19,-257.8 510.49,-220.84"/>
<polygon fill="black" stroke="black" points="512.67,-223.57 518.31,-214.6 508.31,-218.1 512.67,-223.57"/>
</g>
<!-- Pump&#45;&gt;ImportSig -->
<g id="edge5" class="edge">
<title>Pump-&gt;ImportSig</title>
<path fill="none" stroke="black" d="M314.84,-359.93C314.84,-328.97 314.84,-263.3 314.84,-226.13"/>
<polygon fill="black" stroke="black" points="318.34,-226.02 314.84,-216.02 311.34,-226.02 318.34,-226.02"/>
</g>
<!-- MoveWat&#45;&gt;Sig_1 -->
<g id="edge6" class="edge">
<title>MoveWat-&gt;Sig_1</title>
<path fill="none" stroke="black" d="M420.23,-179.93C408.14,-148.75 382.42,-82.4 368.07,-45.37"/>
<polygon fill="black" stroke="black" points="371.22,-43.81 364.34,-35.76 364.69,-46.34 371.22,-43.81"/>
</g>
<!-- MoveWat&#45;&gt;Water -->
<g id="edge7" class="edge">
<title>MoveWat-&gt;Water</title>
<path fill="none" stroke="black" d="M406.4,-181.52C363.93,-149.35 266.17,-75.29 218.69,-39.33"/>
<polygon fill="black" stroke="black" points="220.52,-36.33 210.44,-33.08 216.29,-41.91 220.52,-36.33"/>
</g>
<!-- MoveWat&#45;&gt;EE_1 -->
<g id="edge8" class="edge">
<title>MoveWat-&gt;EE_1</title>
<path fill="none" stroke="black" d="M432.12,-179.93C441.75,-148.75 462.26,-82.4 473.7,-45.37"/>
<polygon fill="black" stroke="black" points="477.06,-46.34 476.67,-35.76 470.37,-44.28 477.06,-46.34"/>
</g>
<!-- ExportWater&#45;&gt;Water -->
<g id="edge9" class="edge">
<title>ExportWater-&gt;Water</title>
<path fill="none" stroke="black" d="M191.84,-179.93C191.84,-148.97 191.84,-83.3 191.84,-46.13"/>
<polygon fill="black" stroke="black" points="195.34,-46.02 191.84,-36.02 188.34,-46.02 195.34,-46.02"/>
</g>
<!-- ImportWater&#45;&gt;Water -->
<g id="edge10" class="edge">
<title>ImportWater-&gt;Water</title>
<path fill="none" stroke="black" d="M70.45,-180.25C94.34,-148.53 146.26,-79.56 173.82,-42.95"/>
<polygon fill="black" stroke="black" points="176.73,-44.9 179.95,-34.8 171.14,-40.69 176.73,-44.9"/>
</g>
<!-- ImportEE&#45;&gt;EE_1 -->
<g id="edge11" class="edge">
<title>ImportEE-&gt;EE_1</title>
<path fill="none" stroke="black" d="M532.48,-179.93C522.67,-148.75 501.79,-82.4 490.14,-45.37"/>
<polygon fill="black" stroke="black" points="493.46,-44.24 487.12,-35.76 486.78,-46.35 493.46,-44.24"/>
</g>
<!-- ImportSig&#45;&gt;Sig_1 -->
<g id="edge12" class="edge">
<title>ImportSig-&gt;Sig_1</title>
<path fill="none" stroke="black" d="M318.97,-179.93C326.45,-148.97 342.31,-83.3 351.29,-46.13"/>
<polygon fill="black" stroke="black" points="354.79,-46.56 353.73,-36.02 347.98,-44.91 354.79,-46.56"/>
</g>
<!-- Pump -->
<g id="node1" class="node">
<title>Pump</title>
<ellipse fill="lightgrey" stroke="black" cx="314.84" cy="-378" rx="32.49" ry="18"/>
<text text-anchor="middle" x="314.84" y="-374.3" font-family="Times New Roman,serif" font-size="14.00">Pump</text>
</g>
<!-- MoveWat -->
<g id="node2" class="node">
<title>MoveWat</title>
<ellipse fill="lightgrey" stroke="black" cx="426.84" cy="-198" rx="46.59" ry="18"/>
<text text-anchor="middle" x="426.84" y="-194.3" font-family="Times New Roman,serif" font-size="14.00">MoveWat</text>
</g>
<!-- ExportWater -->
<g id="node3" class="node">
<title>ExportWater</title>
<ellipse fill="lightgrey" stroke="black" cx="191.84" cy="-198" rx="57.69" ry="18"/>
<text text-anchor="middle" x="191.84" y="-194.3" font-family="Times New Roman,serif" font-size="14.00">ExportWater</text>
</g>
<!-- ImportWater -->
<g id="node4" class="node">
<title>ImportWater</title>
<ellipse fill="lightgrey" stroke="black" cx="57.84" cy="-198" rx="57.69" ry="18"/>
<text text-anchor="middle" x="57.84" y="-194.3" font-family="Times New Roman,serif" font-size="14.00">ImportWater</text>
</g>
<!-- ImportEE -->
<g id="node5" class="node">
<title>ImportEE</title>
<ellipse fill="lightgrey" stroke="black" cx="537.84" cy="-198" rx="46.29" ry="18"/>
<text text-anchor="middle" x="537.84" y="-194.3" font-family="Times New Roman,serif" font-size="14.00">ImportEE</text>
</g>
<!-- ImportSig -->
<g id="node6" class="node">
<title>ImportSig</title>
<ellipse fill="lightgrey" stroke="black" cx="314.84" cy="-198" rx="47.39" ry="18"/>
<text text-anchor="middle" x="314.84" y="-194.3" font-family="Times New Roman,serif" font-size="14.00">ImportSig</text>
</g>
<!-- Sig_1 -->
<g id="node7" class="node">
<title>Sig_1</title>
<ellipse fill="lightgrey" stroke="black" cx="357.84" cy="-18" rx="31.7" ry="18"/>
<text text-anchor="middle" x="357.84" y="-14.3" font-family="Times New Roman,serif" font-size="14.00">Sig_1</text>
</g>
<!-- Water -->
<g id="node8" class="node">
<title>Water</title>
<ellipse fill="lightgrey" stroke="black" cx="191.84" cy="-18" rx="32.49" ry="18"/>
<text text-anchor="middle" x="191.84" y="-14.3" font-family="Times New Roman,serif" font-size="14.00">Water</text>
</g>
<!-- EE_1 -->
<g id="node9" class="node">
<title>EE_1</title>
<ellipse fill="lightgrey" stroke="black" cx="481.84" cy="-18" rx="30.59" ry="18"/>
<text text-anchor="middle" x="481.84" y="-14.3" font-family="Times New Roman,serif" font-size="14.00">EE_1</text>
</g>
</g>
</svg>