<svg xmlns="http://www.w3.org/2000/svg" xmlns:xlink="http://www.w3.org/1999/xlink" width="891pt" height="447pt" viewBox="0.00 0.00 891.14 447.00">
<g id="graph0" class="graph" transform="scale(1 1) rotate(0) translate(4 443)">
<polygon fill="white" stroke="none" points="-4,4 -4,-443 887.14,-443 887.14,4 -4,4"/>
<!-- Rover -->
<g id="node1" class="node">
<title>Rover</title>
<polygon fill="lightgrey" stroke="grey" points="341.04,-439 273.84,-403.38 408.24,-403.38 341.04,-439"/>
<text text-anchor="middle" x="341.04" y="-409.82" font-family="Times New Roman,serif" font-size="14.00">Rover</text>
</g>
<!-- Communicate -->
<g id="node2" class="node">
<title>Communicate</title>
<ellipse fill="none" stroke="grey" stroke-width="2" cx="204.04" cy="-213.75" rx="62.04" ry="18"/>
<text text-anchor="middle" x="204.04" y="-208.32" font-family="Times New Roman,serif" font-size="14.00">Communicate</text>
</g>
<!-- Rover&#45;&gt;Communicate -->
<g id="edge1" class="edge">
<title>Rover-&gt;Communicate</title>
<path fill="none" stroke="black" d="M318.93,-394.26C299.77,-376.11 272.18,-347.91 253.04,-319.5 233.86,-291.03 218.44,-253.86 210.31,-232.31"/>
<polygon fill="black" stroke="black" points="318.9,-394.23 326.02,-395.39 327.69,-402.4 320.57,-401.25 318.9,-394.23"/>
<text text-anchor="middle" x="295.04" y="-306.2" font-family="Times New Roman,serif" font-size="14.00">&lt;containment&gt;</text>
</g>
<!-- StoreEnergy -->
<g id="node3" class="node">
<title>StoreEnergy</title>
<ellipse fill="none" stroke="grey" stroke-width="2" cx="341.04" cy="-213.75" rx="56.55" ry="18"/>
<text text-anchor="middle" x="341.04" y="-208.32" font-family="Times New Roman,serif" font-size="14.00">StoreEnergy</text>
</g>
<!-- Rover&#45;&gt;StoreEnergy -->
<g id="edge2" class="edge">
<title>Rover-&gt;StoreEnergy</title>
<path fill="none" stroke="black" d="M341.04,-389.94C341.04,-349.25 341.04,-268.3 341.04,-232.49"/>
<polygon fill="black" stroke="black" points="341.04,-390.05 345.04,-396.05 341.04,-402.05 337.04,-396.05 341.04,-390.05"/>
<text text-anchor="middle" x="383.04" y="-306.2" font-family="Times New Roman,serif" font-size="14.00">&lt;containment&gt;</text>
</g>
<!-- MoveRover -->
<g id="node4" class="node">
<title>MoveRover</title>
<ellipse fill="none" stroke="grey" stroke-width="2" cx="471.04" cy="-213.75" rx="55.06" ry="18"/>
<text text-anchor="middle" x="471.04" y="-208.32" font-family="Times New Roman,serif" font-size="14.00">MoveRover</text>
</g>
<!-- Rover&#45;&gt;MoveRover -->
<g id="edge3" class="edge">
<title>Rover-&gt;MoveRover</title>
<path fill="none" stroke="black" d="M363.87,-394.22C383.27,-376.22 410.81,-348.27 429.04,-319.5 446.98,-291.2 459.69,-253.97 466.16,-232.37"/>
<polygon fill="black" stroke="black" points="363.85,-394.23 362.1,-401.23 354.97,-402.3 356.72,-395.3 363.85,-394.23"/>
<text text-anchor="middle" x="478.04" y="-306.2" font-family="Times New Roman,serif" font-size="14.00">&lt;containment&gt;</text>
</g>
<!-- ControlRover -->
<g id="node5" class="node">
<title>ControlRover</title>
<ellipse fill="none" stroke="grey" stroke-width="2" cx="62.04" cy="-213.75" rx="62.04" ry="18"/>
<text text-anchor="middle" x="62.04" y="-208.32" font-family="Times New Roman,serif" font-size="14.00">ControlRover</text>
</g>
<!-- Rover&#45;&gt;ControlRover -->
<g id="edge4" class="edge">
<title>Rover-&gt;ControlRover</title>
<path fill="none" stroke="black" d="M299.52,-397.97C260.52,-381.55 201.66,-353.76 157.04,-319.5 123.16,-293.48 91.45,-254.44 74.61,-232.1"/>
<polygon fill="black" stroke="black" points="299.51,-397.97 306.59,-396.57 310.6,-402.56 303.53,-403.96 299.51,-397.97"/>
<text text-anchor="middle" x="199.04" y="-306.2" font-family="Times New Roman,serif" font-size="14.00">&lt;containment&gt;</text>
</g>
<!-- ViewGround -->
<g id="node6" class="node">
<title>ViewGround</title>
<ellipse fill="none" stroke="grey" stroke-width="2" cx="722.04" cy="-213.75" rx="58.55" ry="18"/>
<text text-anchor="middle" x="722.04" y="-208.32" font-family="Times New Roman,serif" font-size="14.00">ViewGround</text>
</g>
<!-- Rover&#45;&gt;ViewGround -->
<g id="edge5" class="edge">
<title>Rover-&gt;ViewGround</title>
<path fill="none" stroke="black" d="M374.54,-397.02C411.27,-378.1 471.93,-346.78 524.04,-319.5 584.17,-288.03 654.32,-250.79 692.9,-230.27"/>
<polygon fill="black" stroke="black" points="374.52,-397.03 371.01,-403.33 363.85,-402.52 367.35,-396.22 374.52,-397.03"/>
<text text-anchor="middle" x="592.04" y="-306.2" font-family="Times New Roman,serif" font-size="14.00">&lt;containment&gt;</text>
</g>
<!-- EE -->
<g id="node10" class="node">
<title>EE</title>
<ellipse fill="lightgrey" stroke="grey" stroke-width="0" cx="395.04" cy="-18" rx="27" ry="18"/>
<text text-anchor="middle" x="395.04" y="-12.57" font-family="Times New Roman,serif" font-size="14.00">EE</text>
</g>
<!-- Communicate&#45;&gt;EE -->
<g id="edge6" class="edge">
<title>Communicate-&gt;EE</title>
<path fill="none" stroke="black" d="M224.5,-185.02C241.12,-163.21 265.68,-132.5 289.79,-108 318.83,-78.49 356.69,-48.22 378.18,-31.7"/>
<polygon fill="none" stroke="black" points="224.56,-184.94 224.15,-192.14 217.34,-194.53 217.76,-187.33 224.56,-184.94"/>
<text text-anchor="middle" x="310.67" y="-110.45" font-family="Times New Roman,serif" font-size="14.00">&lt;flow&gt;</text>
</g>
<!-- Flow -->
<g id="node11" class="node">
<title>Flow</title>
<ellipse fill="lightgrey" stroke="grey" stroke-width="0" cx="143.04" cy="-18" rx="29.61" ry="18"/>
<text text-anchor="middle" x="143.04" y="-12.57" font-family="Times New Roman,serif" font-size="14.00">Flow</text>
</g>
<!-- Communicate&#45;&gt;Flow -->
<g id="edge7" class="edge">
<title>Communicate-&gt;Flow</title>
<path fill="none" stroke="black" d="M180.92,-185.39C168.31,-168.71 153.87,-146.33 146.79,-123.75 137.43,-93.88 138.96,-56.86 140.96,-35.79"/>
<polygon fill="none" stroke="black" points="180.87,-185.32 187.73,-187.57 188.29,-194.75 181.44,-192.51 180.87,-185.32"/>
<text text-anchor="middle" x="167.67" y="-110.45" font-family="Times New Roman,serif" font-size="14.00">&lt;flow&gt;</text>
</g>
<!-- Control -->
<g id="node7" class="node">
<title>Control</title>
<ellipse fill="lightgrey" stroke="grey" stroke-width="0" cx="230.04" cy="-18" rx="39.09" ry="18"/>
<text text-anchor="middle" x="230.04" y="-12.57" font-family="Times New Roman,serif" font-size="14.00">Control</text>
</g>
<!-- StoreEnergy&#45;&gt;Control -->
<g id="edge8" class="edge">
<title>StoreEnergy-&gt;Control</title>
<path fill="none" stroke="black" d="M292.76,-193.78C263.28,-179.38 228.04,-156.43 210.79,-123.75 195.69,-95.13 210.23,-56.69 220.94,-35.23"/>
<polygon fill="none" stroke="black" points="292.85,-193.83 299.98,-192.72 303.74,-198.87 296.62,-199.98 292.85,-193.83"/>
<text text-anchor="middle" x="231.67" y="-110.45" font-family="Times New Roman,serif" font-size="14.00">&lt;flow&gt;</text>
</g>
<!-- StoreEnergy&#45;&gt;EE -->
<g id="edge9" class="edge">
<title>StoreEnergy-&gt;EE</title>
<path fill="none" stroke="black" d="M335.63,-182.16C333.02,-160.93 331.78,-132.22 338.79,-108 347.23,-78.85 368.38,-50.08 382.2,-33.46"/>
<polygon fill="none" stroke="black" points="335.63,-182.14 340.45,-187.51 337.35,-194.02 332.53,-188.65 335.63,-182.14"/>
<text text-anchor="middle" x="358.67" y="-110.45" font-family="Times New Roman,serif" font-size="14.00">&lt;flow&gt;</text>
</g>
<!-- MoveRover&#45;&gt;Control -->
<g id="edge10" class="edge">
<title>MoveRover-&gt;Control</title>
<path fill="none" stroke="black" d="M450.97,-185.05C433.79,-162.57 407.54,-130.95 380.04,-108 340.52,-75.01 287.34,-46.59 256.07,-31.22"/>
<polygon fill="none" stroke="black" points="450.9,-184.96 457.7,-187.36 458.1,-194.56 451.3,-192.16 450.9,-184.96"/>
<text text-anchor="middle" x="416.67" y="-110.45" font-family="Times New Roman,serif" font-size="14.00">&lt;flow&gt;</text>
</g>
<!-- Force -->
<g id="node8" class="node">
<title>Force</title>
<ellipse fill="lightgrey" stroke="grey" stroke-width="0" cx="549.04" cy="-18" rx="32.6" ry="18"/>
<text text-anchor="middle" x="549.04" y="-12.57" font-family="Times New Roman,serif" font-size="14.00">Force</text>
</g>
<!-- MoveRover&#45;&gt;Force -->
<g id="edge12" class="edge">
<title>MoveRover-&gt;Force</title>
<path fill="none" stroke="black" d="M482.91,-183.28C499.53,-142 529.19,-68.32 542.39,-35.53"/>
<polygon fill="none" stroke="black" points="482.92,-183.25 484.39,-190.31 478.44,-194.38 476.97,-187.32 482.92,-183.25"/>
<text text-anchor="middle" x="532.67" y="-110.45" font-family="Times New Roman,serif" font-size="14.00">&lt;flow&gt;</text>
</g>
<!-- MoveRover&#45;&gt;EE -->
<g id="edge13" class="edge">
<title>MoveRover-&gt;EE</title>
<path fill="none" stroke="black" d="M465.28,-182.15C460.77,-160.91 453.64,-132.2 444.04,-108 433.31,-80.95 416.05,-51.8 405.15,-34.49"/>
<polygon fill="none" stroke="black" points="465.3,-182.26 470.41,-187.34 467.68,-194.02 462.57,-188.93 465.3,-182.26"/>
<text text-anchor="middle" x="469.67" y="-110.45" font-family="Times New Roman,serif" font-size="14.00">&lt;flow&gt;</text>
</g>
<!-- Ground -->
<g id="node12" class="node">
<title>Ground</title>
<ellipse fill="lightgrey" stroke="grey" stroke-width="0" cx="708.04" cy="-18" rx="39.59" ry="18"/>
<text text-anchor="middle" x="708.04" y="-12.57" font-family="Times New Roman,serif" font-size="14.00">Ground</text>
</g>
<!-- MoveRover&#45;&gt;Ground -->
<g id="edge11" class="edge">
<title>MoveRover-&gt;Ground</title>
<path fill="none" stroke="black" d="M518.77,-194.25C553.9,-179.01 601.38,-154.87 636.04,-123.75 665.11,-97.65 688.4,-57.57 700.01,-35.31"/>
<polygon fill="none" stroke="black" points="518.79,-194.25 514.82,-200.27 507.73,-198.92 511.7,-192.9 518.79,-194.25"/>
<text text-anchor="middle" x="670.67" y="-110.45" font-family="Times New Roman,serif" font-size="14.00">&lt;flow&gt;</text>
</g>
<!-- ControlRover&#45;&gt;Control -->
<g id="edge14" class="edge">
<title>ControlRover-&gt;Control</title>
<path fill="none" stroke="black" d="M67.43,-182.04C72.56,-159.73 82.04,-129.75 98.79,-108 126.67,-71.79 173.58,-45.12 203.12,-30.84"/>
<polygon fill="none" stroke="black" points="67.41,-182.17 70.1,-188.86 64.97,-193.92 62.27,-187.23 67.41,-182.17"/>
<text text-anchor="middle" x="119.67" y="-110.45" font-family="Times New Roman,serif" font-size="14.00">&lt;flow&gt;</text>
</g>
<!-- ViewGround&#45;&gt;Force -->
<g id="edge16" class="edge">
<title>ViewGround-&gt;Force</title>
<path fill="none" stroke="black" d="M722.03,-182.28C720.61,-159.85 715.57,-129.63 700.04,-108 669.34,-65.23 611.18,-39.62 576.69,-27.51"/>
<polygon fill="none" stroke="black" points="722.03,-182.2 726.25,-188.05 722.48,-194.19 718.26,-188.35 722.03,-182.2"/>
<text text-anchor="middle" x="728.67" y="-110.45" font-family="Times New Roman,serif" font-size="14.00">&lt;flow&gt;</text>
</g>
<!-- Video -->
<g id="node9" class="node">
<title>Video</title>
<ellipse fill="lightgrey" stroke="grey" stroke-width="0" cx="850.04" cy="-18" rx="33.1" ry="18"/>
<text text-anchor="middle" x="850.04" y="-12.57" font-family="Times New Roman,serif" font-size="14.00">Video</text>
</g>
<!-- ViewGround&#45;&gt;Video -->
<g id="edge18" class="edge">
<title>ViewGround-&gt;Video</title>
<path fill="none" stroke="black" d="M753.29,-187.59C772.11,-171.09 795.4,-148.11 811.04,-123.75 829.29,-95.34 840.75,-57.16 846.22,-35.61"/>
<polygon fill="none" stroke="black" points="753.17,-187.69 751.21,-194.63 744.05,-195.48 746.01,-188.54 753.17,-187.69"/>
<text text-anchor="middle" x="838.67" y="-110.45" font-family="Times New Roman,serif" font-size="14.00">&lt;flow&gt;</text>
</g>
<!-- ViewGround&#45;&gt;EE -->
<g id="edge17" class="edge">
<title>ViewGround-&gt;EE</title>
<path fill="none" stroke="black" d="M686.96,-189.57C653.83,-167.89 602.57,-134.92 557.04,-108 506.91,-78.35 446.43,-46.01 415.48,-29.69"/>
<polygon fill="none" stroke="black" points="686.68,-189.38 693.89,-189.33 696.71,-195.97 689.5,-196.02 686.68,-189.38"/>
<text text-anchor="middle" x="599.67" y="-110.45" font-family="Times New Roman,serif" font-size="14.00">&lt;flow&gt;</text>
</g>
<!-- ViewGround&#45;&gt;Ground -->
<g id="edge15" class="edge">
<title>ViewGround-&gt;Ground</title>
<path fill="none" stroke="black" d="M744.02,-185.1C757.87,-164.28 771.78,-134.84 764.04,-108 755.85,-79.58 735.6,-51.49 721.83,-34.69"/>
<polygon fill="none" stroke="black" points="743.96,-185.19 743.74,-192.4 737,-194.97 737.22,-187.76 743.96,-185.19"/>
<text text-anchor="middle" x="786.67" y="-110.45" font-family="Times New Roman,serif" font-size="14.00">&lt;flow&gt;</text>
</g>
</g>
</svg>