<svg height="322pt" viewBox="0.00 0.00 484.59 321.82" width="485pt" xmlns="http://www.w3.org/2000/svg" xmlns:xlink="http://www.w3.org/1999/xlink">
<g class="graph" id="graph0" transform="scale(1 1) rotate(0) translate(4 317.82)">
<polygon fill="white" points="-4,4 -4,-317.82 480.59,-317.82 480.59,4 -4,4" stroke="transparent"/>
<!-- Control_Rover&#45;&#45;Force -->
<g class="edge" id="edge5">
<title>Control_Rover--Force</title>
<path d="M259.61,-116.39C258.29,-126.49 256.65,-139.01 255.33,-149.13" fill="none" stroke="black"/>
</g>
<!-- Control_Rover&#45;&#45;EE -->
<g class="edge" id="edge3">
<title>Control_Rover--EE</title>
<path d="M211.06,-80.4C179.61,-69.42 140.72,-55.83 116.19,-47.26" fill="none" stroke="black"/>
</g>
<!-- Control_Rover&#45;&#45;Video -->
<g class="edge" id="edge1">
<title>Control_Rover--Video</title>
<path d="M250.77,-80.09C242.78,-67.22 232.11,-50.02 224.26,-37.35" fill="none" stroke="black"/>
</g>
<!-- Control_Rover&#45;&#45;Control -->
<g class="edge" id="edge4">
<title>Control_Rover--Control</title>
<path d="M273.73,-80C282.38,-66.59 294.06,-48.48 302.57,-35.3" fill="none" stroke="black"/>
</g>
<!-- Control_Rover&#45;&#45;Comms -->
<g class="edge" id="edge2">
<title>Control_Rover--Comms</title>
<path d="M308.65,-80.07C335.38,-69.7 368.14,-56.98 391.52,-47.9" fill="none" stroke="black"/>
</g>
<!-- Store_Energy&#45;&#45;Force -->
<g class="edge" id="edge7">
<title>Store_Energy--Force</title>
<path d="M379.3,-163.92C349.34,-164.75 311.79,-165.8 285.43,-166.54" fill="none" stroke="black"/>
</g>
<!-- Store_Energy&#45;&#45;EE -->
<g class="edge" id="edge6">
<title>Store_Energy--EE</title>
<path d="M379.26,-144.58C306.12,-117.65 170.89,-67.86 116.16,-47.7" fill="none" stroke="black"/>
</g>
<!-- Store_Energy&#45;&#45;Control -->
<g class="edge" id="edge8">
<title>Store_Energy--Control</title>
<path d="M400.7,-127.93C377.44,-98.53 345.05,-57.6 327.08,-34.88" fill="none" stroke="black"/>
</g>
<!-- Move_Rover&#45;&#45;Ground -->
<g class="edge" id="edge9">
<title>Move_Rover--Ground</title>
<path d="M359.18,-267.12C365.24,-271.74 371.18,-276.28 376.5,-280.33" fill="none" stroke="black"/>
</g>
<!-- Move_Rover&#45;&#45;Force -->
<g class="edge" id="edge10">
<title>Move_Rover--Force</title>
<path d="M281.21,-197.69C276.58,-192.73 272.01,-187.85 267.95,-183.5" fill="none" stroke="black"/>
</g>
<!-- Move_Rover&#45;&#45;EE -->
<g class="edge" id="edge11">
<title>Move_Rover--EE</title>
<path d="M274.16,-197.89C225,-154.92 143.41,-83.62 108.69,-53.28" fill="none" stroke="black"/>
</g>
<!-- Move_Rover&#45;&#45;Control -->
<g class="edge" id="edge12">
<title>Move_Rover--Control</title>
<path d="M313.76,-197.56C313.75,-151.38 313.74,-71.72 313.73,-36.11" fill="none" stroke="black"/>
</g>
<!-- View_Ground&#45;&#45;Ground -->
<g class="edge" id="edge13">
<title>View_Ground--Ground</title>
<path d="M207.07,-287.47C251.46,-289.43 316.55,-292.29 357.79,-294.1" fill="none" stroke="black"/>
</g>
<!-- View_Ground&#45;&#45;Force -->
<g class="edge" id="edge16">
<title>View_Ground--Force</title>
<path d="M173.41,-267.19C191.54,-244.45 222.33,-205.83 239.8,-183.92" fill="none" stroke="black"/>
</g>
<!-- View_Ground&#45;&#45;EE -->
<g class="edge" id="edge14">
<title>View_Ground--EE</title>
<path d="M154.03,-267.23C141.66,-221.54 109.33,-102.07 97.05,-56.71" fill="none" stroke="black"/>
</g>
<!-- View_Ground&#45;&#45;Video -->
<g class="edge" id="edge15">
<title>View_Ground--Video</title>
<path d="M162.69,-267.13C172.7,-218.56 199.92,-86.47 209.88,-38.16" fill="none" stroke="black"/>
</g>
<!-- Communicate_Externally&#45;&#45;Force -->
<g class="edge" id="edge19">
<title>Communicate_Externally--Force</title>
<path d="M156,-177.85C178.78,-175.4 202.42,-172.87 220.66,-170.91" fill="none" stroke="black"/>
</g>
<!-- Communicate_Externally&#45;&#45;EE -->
<g class="edge" id="edge18">
<title>Communicate_Externally--EE</title>
<path d="M79.74,-168.16C82.48,-139.88 87.73,-85.48 90.47,-57.11" fill="none" stroke="black"/>
</g>
<!-- Communicate_Externally&#45;&#45;Comms -->
<g class="edge" id="edge17">
<title>Communicate_Externally--Comms</title>
<path d="M119.47,-168.12C190.2,-137.24 332.4,-75.17 393.2,-48.63" fill="none" stroke="black"/>
</g>
<!-- Control_Rover -->
<g class="node" id="node1">
<title>Control_Rover</title>
<polygon fill="lightgray" points="312.49,-116.19 211.49,-116.19 211.49,-80.19 312.49,-80.19 312.49,-116.19" stroke="black"/>
<text font-family="Times New Roman,serif" font-size="14.00" text-anchor="middle" x="261.99" y="-94.49">Control_Rover</text>
</g>
<!-- Store_Energy -->
<g class="node" id="node2">
<title>Store_Energy</title>
<polygon fill="red" points="476.59,-197.06 379.59,-197.06 379.59,-128.06 476.59,-128.06 476.59,-197.06" stroke="black"/>
<text font-family="Times New Roman,serif" font-size="14.00" text-anchor="middle" x="428.09" y="-181.86">Store_Energy </text>
<text font-family="Times New Roman,serif" font-size="14.00" text-anchor="middle" x="428.09" y="-166.86"> </text>
<text font-family="Times New Roman,serif" font-size="14.00" text-anchor="middle" x="428.09" y="-135.86"> no_charge </text>
</g>
<!-- Move_Rover -->
<g class="node" id="node3">
<title>Move_Rover</title>
<polygon fill="red" points="361.26,-267 266.26,-267 266.26,-198 361.26,-198 361.26,-267" stroke="black"/>
<text font-family="Times New Roman,serif" font-size="14.00" text-anchor="middle" x="313.76" y="-251.8">Move_Rover </text>
<text font-family="Times New Roman,serif" font-size="14.00" text-anchor="middle" x="313.76" y="-236.8"> </text>
<text font-family="Times New Roman,serif" font-size="14.00" text-anchor="middle" x="313.76" y="-205.8"> short </text>
</g>
<!-- View_Ground -->
<g class="node" id="node4">
<title>View_Ground</title>
<polygon fill="lightgray" points="206.93,-303.36 110.93,-303.36 110.93,-267.36 206.93,-267.36 206.93,-303.36" stroke="black"/>
<text font-family="Times New Roman,serif" font-size="14.00" text-anchor="middle" x="158.93" y="-281.66">View_Ground</text>
</g>
<!-- Communicate_Externally -->
<g class="node" id="node5">
<title>Communicate_Externally</title>
<polygon fill="lightgray" points="156,-204.23 0,-204.23 0,-168.23 156,-168.23 156,-204.23" stroke="black"/>
<text font-family="Times New Roman,serif" font-size="14.00" text-anchor="middle" x="78" y="-182.53">Communicate_Externally</text>
</g>
<!-- Ground -->
<g class="node" id="node6">
<title>Ground</title>
<ellipse cx="396.81" cy="-295.82" fill="orange" rx="38.99" ry="18" stroke="black"/>
<text font-family="Times New Roman,serif" font-size="14.00" text-anchor="middle" x="396.81" y="-292.12">Ground</text>
</g>
<!-- Force -->
<g class="node" id="node7">
<title>Force</title>
<ellipse cx="252.93" cy="-167.44" fill="lightgray" rx="32.49" ry="18" stroke="black"/>
<text font-family="Times New Roman,serif" font-size="14.00" text-anchor="middle" x="252.93" y="-163.74">Force</text>
</g>
<!-- EE -->
<g class="node" id="node8">
<title>EE</title>
<ellipse cx="92.23" cy="-38.9" fill="lightgray" rx="27" ry="18" stroke="black"/>
<text font-family="Times New Roman,serif" font-size="14.00" text-anchor="middle" x="92.23" y="-35.2">EE</text>
</g>
<!-- Video -->
<g class="node" id="node9">
<title>Video</title>
<ellipse cx="213.59" cy="-20.16" fill="lightgray" rx="32.49" ry="18" stroke="black"/>
<text font-family="Times New Roman,serif" font-size="14.00" text-anchor="middle" x="213.59" y="-16.46">Video</text>
</g>
<!-- Control -->
<g class="node" id="node10">
<title>Control</title>
<ellipse cx="313.73" cy="-18" fill="lightgray" rx="38.19" ry="18" stroke="black"/>
<text font-family="Times New Roman,serif" font-size="14.00" text-anchor="middle" x="313.73" y="-14.3">Control</text>
</g>
<!-- Comms -->
<g class="node" id="node11">
<title>Comms</title>
<ellipse cx="421.83" cy="-36.13" fill="lightgray" rx="39.79" ry="18" stroke="black"/>
<text font-family="Times New Roman,serif" font-size="14.00" text-anchor="middle" x="421.83" y="-32.43">Comms</text>
</g>
</g>
</svg>