<svg xmlns="http://www.w3.org/2000/svg" xmlns:xlink="http://www.w3.org/1999/xlink" width="650pt" height="468pt" viewBox="0.00 0.00 650.09 468.00">
<g id="graph0" class="graph" transform="scale(1 1) rotate(0) translate(36 432)">
<polygon fill="white" stroke="transparent" points="-36,36 -36,-432 614.09,-432 614.09,36 -36,36"/>
<!-- Rover&#45;&gt;GenericFxn -->
<g id="edge1" class="edge">
<title>Rover-&gt;GenericFxn</title>
<path fill="none" stroke="black" d="M290.62,-362.43C254.44,-331.47 169.63,-258.89 126.24,-221.76"/>
<polygon fill="black" stroke="black" points="128.27,-218.89 118.39,-215.04 123.71,-224.2 128.27,-218.89"/>
</g>
<!-- Rover&#45;&gt;Control_Rover -->
<g id="edge2" class="edge">
<title>Rover-&gt;Control_Rover</title>
<path fill="none" stroke="black" d="M300.97,-360.25C288.63,-329.32 262.18,-263 247.32,-225.77"/>
<polygon fill="black" stroke="black" points="250.42,-224.08 243.46,-216.09 243.92,-226.68 250.42,-224.08"/>
</g>
<!-- Rover&#45;&gt;Store_Energy -->
<g id="edge3" class="edge">
<title>Rover-&gt;Store_Energy</title>
<path fill="none" stroke="black" d="M324.83,-362.43C361.35,-331.48 446.91,-258.96 490.74,-221.81"/>
<polygon fill="black" stroke="black" points="493.05,-224.44 498.41,-215.3 488.52,-219.1 493.05,-224.44"/>
</g>
<!-- Rover&#45;&gt;Move_Rover -->
<g id="edge4" class="edge">
<title>Rover-&gt;Move_Rover</title>
<path fill="none" stroke="black" d="M314.42,-360.25C326.93,-329.32 353.76,-263 368.82,-225.77"/>
<polygon fill="black" stroke="black" points="372.23,-226.67 372.73,-216.09 365.74,-224.05 372.23,-226.67"/>
</g>
<!-- GenericFxn&#45;&gt;Ground -->
<g id="edge5" class="edge">
<title>GenericFxn-&gt;Ground</title>
<path fill="none" stroke="black" d="M110.84,-180.25C131.86,-148.82 177.31,-80.83 201.95,-43.97"/>
<polygon fill="black" stroke="black" points="205.09,-45.57 207.74,-35.31 199.27,-41.68 205.09,-45.57"/>
</g>
<!-- GenericFxn&#45;&gt;EE -->
<g id="edge6" class="edge">
<title>GenericFxn-&gt;EE</title>
<path fill="none" stroke="black" d="M118.02,-180.89C155.08,-148.4 238.71,-75.07 279.45,-39.34"/>
<polygon fill="black" stroke="black" points="281.79,-41.94 287.01,-32.71 277.18,-36.68 281.79,-41.94"/>
</g>
<!-- GenericFxn&#45;&gt;Comms -->
<g id="edge7" class="edge">
<title>GenericFxn-&gt;Comms</title>
<path fill="none" stroke="black" d="M93.89,-179.93C83.41,-148.83 61.13,-82.73 48.63,-45.65"/>
<polygon fill="black" stroke="black" points="51.89,-44.37 45.38,-36.02 45.26,-46.61 51.89,-44.37"/>
</g>
<!-- GenericFxn&#45;&gt;Force -->
<g id="edge8" class="edge">
<title>GenericFxn-&gt;Force</title>
<path fill="none" stroke="black" d="M123.52,-181.82C174.63,-149.33 294.52,-73.12 350.23,-37.7"/>
<polygon fill="black" stroke="black" points="352.35,-40.5 358.92,-32.18 348.6,-34.59 352.35,-40.5"/>
</g>
<!-- GenericFxn&#45;&gt;Video -->
<g id="edge9" class="edge">
<title>GenericFxn-&gt;Video</title>
<path fill="none" stroke="black" d="M102.52,-179.93C107.74,-148.97 118.81,-83.3 125.07,-46.13"/>
<polygon fill="black" stroke="black" points="128.57,-46.46 126.78,-36.02 121.67,-45.29 128.57,-46.46"/>
</g>
<!-- Control_Rover&#45;&gt;EE -->
<g id="edge11" class="edge">
<title>Control_Rover-&gt;EE</title>
<path fill="none" stroke="black" d="M242.97,-179.93C254.54,-148.75 279.14,-82.4 292.87,-45.37"/>
<polygon fill="black" stroke="black" points="296.24,-46.35 296.43,-35.76 289.68,-43.92 296.24,-46.35"/>
</g>
<!-- Control_Rover&#45;&gt;Comms -->
<g id="edge10" class="edge">
<title>Control_Rover-&gt;Comms</title>
<path fill="none" stroke="black" d="M218.47,-180.57C182.93,-148.46 104.22,-77.34 64.13,-41.13"/>
<polygon fill="black" stroke="black" points="66.42,-38.48 56.66,-34.37 61.73,-43.67 66.42,-38.48"/>
</g>
<!-- Control_Rover&#45;&gt;Control -->
<g id="edge14" class="edge">
<title>Control_Rover-&gt;Control</title>
<path fill="none" stroke="black" d="M257.64,-180.89C299.75,-148.58 394.47,-75.91 441.33,-39.96"/>
<polygon fill="black" stroke="black" points="443.7,-42.55 449.5,-33.69 439.44,-37 443.7,-42.55"/>
</g>
<!-- Control_Rover&#45;&gt;Force -->
<g id="edge12" class="edge">
<title>Control_Rover-&gt;Force</title>
<path fill="none" stroke="black" d="M250.1,-180.25C275.59,-148.53 331,-79.56 360.41,-42.95"/>
<polygon fill="black" stroke="black" points="363.42,-44.79 366.95,-34.8 357.96,-40.41 363.42,-44.79"/>
</g>
<!-- Control_Rover&#45;&gt;Video -->
<g id="edge13" class="edge">
<title>Control_Rover-&gt;Video</title>
<path fill="none" stroke="black" d="M226.39,-179.93C207.39,-148.33 166.66,-80.57 144.59,-43.86"/>
<polygon fill="black" stroke="black" points="147.56,-42.01 139.41,-35.24 141.56,-45.61 147.56,-42.01"/>
</g>
<!-- Store_Energy&#45;&gt;EE -->
<g id="edge16" class="edge">
<title>Store_Energy-&gt;EE</title>
<path fill="none" stroke="black" d="M498.19,-180.89C458.84,-148.32 369.93,-74.7 326.89,-39.07"/>
<polygon fill="black" stroke="black" points="328.86,-36.16 318.92,-32.48 324.39,-41.55 328.86,-36.16"/>
</g>
<!-- Store_Energy&#45;&gt;Control -->
<g id="edge15" class="edge">
<title>Store_Energy-&gt;Control</title>
<path fill="none" stroke="black" d="M512.95,-179.93C504.42,-148.97 486.35,-83.3 476.11,-46.13"/>
<polygon fill="black" stroke="black" points="479.36,-44.73 473.33,-36.02 472.61,-46.59 479.36,-44.73"/>
</g>
<!-- Store_Energy&#45;&gt;Force -->
<g id="edge17" class="edge">
<title>Store_Energy-&gt;Force</title>
<path fill="none" stroke="black" d="M504.66,-180.25C480.07,-148.53 426.6,-79.56 398.21,-42.95"/>
<polygon fill="black" stroke="black" points="400.79,-40.56 391.9,-34.8 395.26,-44.85 400.79,-40.56"/>
</g>
<!-- Move_Rover&#45;&gt;Ground -->
<g id="edge19" class="edge">
<title>Move_Rover-&gt;Ground</title>
<path fill="none" stroke="black" d="M364.79,-180.57C336.13,-148.89 273.12,-79.23 239.98,-42.59"/>
<polygon fill="black" stroke="black" points="242.31,-39.94 233,-34.87 237.12,-44.64 242.31,-39.94"/>
</g>
<!-- Move_Rover&#45;&gt;EE -->
<g id="edge20" class="edge">
<title>Move_Rover-&gt;EE</title>
<path fill="none" stroke="black" d="M372.26,-179.93C358.74,-148.67 329.92,-82.06 313.93,-45.09"/>
<polygon fill="black" stroke="black" points="316.97,-43.29 309.78,-35.5 310.54,-46.07 316.97,-43.29"/>
</g>
<!-- Move_Rover&#45;&gt;Control -->
<g id="edge18" class="edge">
<title>Move_Rover-&gt;Control</title>
<path fill="none" stroke="black" d="M388.18,-179.93C403.84,-148.62 437.23,-81.83 455.7,-44.9"/>
<polygon fill="black" stroke="black" points="458.93,-46.27 460.27,-35.76 452.67,-43.13 458.93,-46.27"/>
</g>
<!-- Move_Rover&#45;&gt;Force -->
<g id="edge21" class="edge">
<title>Move_Rover-&gt;Force</title>
<path fill="none" stroke="black" d="M379.65,-179.93C379.65,-148.97 379.65,-83.3 379.65,-46.13"/>
<polygon fill="black" stroke="black" points="383.15,-46.02 379.65,-36.02 376.15,-46.02 383.15,-46.02"/>
</g>
<!-- Rover -->
<g id="node1" class="node">
<title>Rover</title>
<ellipse fill="lightgrey" stroke="black" cx="307.65" cy="-378" rx="33.29" ry="18"/>
<text text-anchor="middle" x="307.65" y="-374.3" font-family="Times New Roman,serif" font-size="14.00">Rover</text>
</g>
<!-- GenericFxn -->
<g id="node2" class="node">
<title>GenericFxn</title>
<ellipse fill="lightgrey" stroke="black" cx="99.65" cy="-198" rx="53.09" ry="18"/>
<text text-anchor="middle" x="99.65" y="-194.3" font-family="Times New Roman,serif" font-size="14.00">GenericFxn</text>
</g>
<!-- Control_Rover -->
<g id="node3" class="node">
<title>Control_Rover</title>
<ellipse fill="lightgrey" stroke="black" cx="236.65" cy="-198" rx="65.79" ry="18"/>
<text text-anchor="middle" x="236.65" y="-194.3" font-family="Times New Roman,serif" font-size="14.00">Control_Rover</text>
</g>
<!-- Store_Energy -->
<g id="node4" class="node">
<title>Store_Energy</title>
<ellipse fill="lightgrey" stroke="black" cx="517.65" cy="-198" rx="60.39" ry="18"/>
<text text-anchor="middle" x="517.65" y="-194.3" font-family="Times New Roman,serif" font-size="14.00">Store_Energy</text>
</g>
<!-- Move_Rover -->
<g id="node5" class="node">
<title>Move_Rover</title>
<ellipse fill="lightgrey" stroke="black" cx="379.65" cy="-198" rx="59.29" ry="18"/>
<text text-anchor="middle" x="379.65" y="-194.3" font-family="Times New Roman,serif" font-size="14.00">Move_Rover</text>
</g>
<!-- Ground -->
<g id="node6" class="node">
<title>Ground</title>
<ellipse fill="lightgrey" stroke="black" cx="218.65" cy="-18" rx="38.99" ry="18"/>
<text text-anchor="middle" x="218.65" y="-14.3" font-family="Times New Roman,serif" font-size="14.00">Ground</text>
</g>
<!-- EE -->
<g id="node7" class="node">
<title>EE</title>
<ellipse fill="lightgrey" stroke="black" cx="302.65" cy="-18" rx="27" ry="18"/>
<text text-anchor="middle" x="302.65" y="-14.3" font-family="Times New Roman,serif" font-size="14.00">EE</text>
</g>
<!-- Comms -->
<g id="node8" class="node">
<title>Comms</title>
<ellipse fill="lightgrey" stroke="black" cx="39.65" cy="-18" rx="39.79" ry="18"/>
<text text-anchor="middle" x="39.65" y="-14.3" font-family="Times New Roman,serif" font-size="14.00">Comms</text>
</g>
<!-- Control -->
<g id="node9" class="node">
<title>Control</title>
<ellipse fill="lightgrey" stroke="black" cx="468.65" cy="-18" rx="38.19" ry="18"/>
<text text-anchor="middle" x="468.65" y="-14.3" font-family="Times New Roman,serif" font-size="14.00">Control</text>
</g>
<!-- Force -->
<g id="node10" class="node">
<title>Force</title>
<ellipse fill="lightgrey" stroke="black" cx="379.65" cy="-18" rx="32.49" ry="18"/>
<text text-anchor="middle" x="379.65" y="-14.3" font-family="Times New Roman,serif" font-size="14.00">Force</text>
</g>
<!-- Video -->
<g id="node11" class="node">
<title>Video</title>
<ellipse fill="lightgrey" stroke="black" cx="129.65" cy="-18" rx="32.49" ry="18"/>
<text text-anchor="middle" x="129.65" y="-14.3" font-family="Times New Roman,serif" font-size="14.00">Video</text>
</g>
</g>
</svg>