<svg xmlns="http://www.w3.org/2000/svg" xmlns:xlink="http://www.w3.org/1999/xlink" width="657pt" height="468pt" viewBox="0.00 0.00 657.29 468.00">
<g id="graph0" class="graph" transform="scale(1 1) rotate(0) translate(36 432)">
<polygon fill="white" stroke="transparent" points="-36,36 -36,-432 621.29,-432 621.29,36 -36,36"/>
<!-- Pump&#45;&gt;ImportSig -->
<g id="edge1" class="edge">
<title>Pump-&gt;ImportSig</title>
<path fill="none" stroke="black" d="M252.57,-362.73C213.67,-331.68 121.11,-257.8 74.8,-220.84"/>
<polygon fill="black" stroke="black" points="76.98,-218.1 66.98,-214.6 72.62,-223.57 76.98,-218.1"/>
</g>
<!-- Pump&#45;&gt;ImportEE -->
<g id="edge2" class="edge">
<title>Pump-&gt;ImportEE</title>
<path fill="none" stroke="black" d="M260.2,-360.57C240.76,-329.39 198.38,-261.44 175.26,-224.36"/>
<polygon fill="black" stroke="black" points="178.09,-222.28 169.83,-215.65 172.15,-225.98 178.09,-222.28"/>
</g>
<!-- Pump&#45;&gt;ExportWater -->
<g id="edge3" class="edge">
<title>Pump-&gt;ExportWater</title>
<path fill="none" stroke="black" d="M290.19,-363.33C334.61,-332.56 442.74,-257.67 496.31,-220.56"/>
<polygon fill="black" stroke="black" points="498.5,-223.3 504.73,-214.73 494.52,-217.55 498.5,-223.3"/>
</g>
<!-- Pump&#45;&gt;MoveWat -->
<g id="edge4" class="edge">
<title>Pump-&gt;MoveWat</title>
<path fill="none" stroke="black" d="M270.45,-359.93C270.45,-328.97 270.45,-263.3 270.45,-226.13"/>
<polygon fill="black" stroke="black" points="273.95,-226.02 270.45,-216.02 266.95,-226.02 273.95,-226.02"/>
</g>
<!-- Pump&#45;&gt;ImportWater -->
<g id="edge5" class="edge">
<title>Pump-&gt;ImportWater</title>
<path fill="none" stroke="black" d="M281.58,-360.89C303.09,-329.75 350.52,-261.12 376.17,-224"/>
<polygon fill="black" stroke="black" points="379.09,-225.94 381.89,-215.72 373.33,-221.96 379.09,-225.94"/>
</g>
<!-- ImportSig&#45;&gt;Sig_1 -->
<g id="edge6" class="edge">
<title>ImportSig-&gt;Sig_1</title>
<path fill="none" stroke="black" d="M54.25,-179.93C66.69,-148.75 93.16,-82.4 107.93,-45.37"/>
<polygon fill="black" stroke="black" points="111.31,-46.34 111.76,-35.76 104.81,-43.75 111.31,-46.34"/>
</g>
<!-- ImportEE&#45;&gt;EE_1 -->
<g id="edge7" class="edge">
<title>ImportEE-&gt;EE_1</title>
<path fill="none" stroke="black" d="M164.72,-179.93C174.35,-148.75 194.86,-82.4 206.3,-45.37"/>
<polygon fill="black" stroke="black" points="209.66,-46.34 209.27,-35.76 202.97,-44.28 209.66,-46.34"/>
</g>
<!-- ExportWater&#45;&gt;Water -->
<g id="edge8" class="edge">
<title>ExportWater-&gt;Water</title>
<path fill="none" stroke="black" d="M514.84,-180.25C490.95,-148.53 439.04,-79.56 411.47,-42.95"/>
<polygon fill="black" stroke="black" points="414.15,-40.69 405.34,-34.8 408.56,-44.9 414.15,-40.69"/>
</g>
<!-- MoveWat&#45;&gt;EE_1 -->
<g id="edge9" class="edge">
<title>MoveWat-&gt;EE_1</title>
<path fill="none" stroke="black" d="M265.08,-179.93C255.27,-148.75 234.39,-82.4 222.74,-45.37"/>
<polygon fill="black" stroke="black" points="226.06,-44.24 219.72,-35.76 219.38,-46.35 226.06,-44.24"/>
</g>
<!-- MoveWat&#45;&gt;Sig_1 -->
<g id="edge10" class="edge">
<title>MoveWat-&gt;Sig_1</title>
<path fill="none" stroke="black" d="M256.42,-180.57C229.29,-148.81 169.58,-78.88 138.35,-42.31"/>
<polygon fill="black" stroke="black" points="140.94,-39.95 131.78,-34.62 135.62,-44.5 140.94,-39.95"/>
</g>
<!-- MoveWat&#45;&gt;Water -->
<g id="edge11" class="edge">
<title>MoveWat-&gt;Water</title>
<path fill="none" stroke="black" d="M282.02,-180.25C303.79,-148.74 350.96,-80.49 376.38,-43.69"/>
<polygon fill="black" stroke="black" points="379.54,-45.27 382.35,-35.06 373.79,-41.3 379.54,-45.27"/>
</g>
<!-- ImportWater&#45;&gt;Water -->
<g id="edge12" class="edge">
<title>ImportWater-&gt;Water</title>
<path fill="none" stroke="black" d="M393.45,-179.93C393.45,-148.97 393.45,-83.3 393.45,-46.13"/>
<polygon fill="black" stroke="black" points="396.95,-46.02 393.45,-36.02 389.95,-46.02 396.95,-46.02"/>
</g>
<!-- Pump -->
<g id="node1" class="node">
<title>Pump</title>
<ellipse fill="lightgrey" stroke="black" cx="270.45" cy="-378" rx="32.49" ry="18"/>
<text text-anchor="middle" x="270.45" y="-374.3" font-family="Times New Roman,serif" font-size="14.00">Pump</text>
</g>
<!-- ImportSig -->
<g id="node2" class="node">
<title>ImportSig</title>
<ellipse fill="lightgrey" stroke="black" cx="47.45" cy="-198" rx="47.39" ry="18"/>
<text text-anchor="middle" x="47.45" y="-194.3" font-family="Times New Roman,serif" font-size="14.00">ImportSig</text>
</g>
<!-- ImportEE -->
<g id="node3" class="node">
<title>ImportEE</title>
<ellipse fill="lightgrey" stroke="black" cx="159.45" cy="-198" rx="46.29" ry="18"/>
<text text-anchor="middle" x="159.45" y="-194.3" font-family="Times New Roman,serif" font-size="14.00">ImportEE</text>
</g>
<!-- ExportWater -->
<g id="node4" class="node">
<title>ExportWater</title>
<ellipse fill="lightgrey" stroke="black" cx="527.45" cy="-198" rx="57.69" ry="18"/>
<text text-anchor="middle" x="527.45" y="-194.3" font-family="Times New Roman,serif" font-size="14.00">ExportWater</text>
</g>
<!-- MoveWat -->
<g id="node5" class="node">
<title>MoveWat</title>
<ellipse fill="lightgrey" stroke="black" cx="270.45" cy="-198" rx="46.59" ry="18"/>
<text text-anchor="middle" x="270.45" y="-194.3" font-family="Times New Roman,serif" font-size="14.00">MoveWat</text>
</g>
<!-- ImportWater -->
<g id="node6" class="node">
<title>ImportWater</title>
<ellipse fill="lightgrey" stroke="black" cx="393.45" cy="-198" rx="57.69" ry="18"/>
<text text-anchor="middle" x="393.45" y="-194.3" font-family="Times New Roman,serif" font-size="14.00">ImportWater</text>
</g>
<!-- EE_1 -->
<g id="node7" class="node">
<title>EE_1</title>
<ellipse fill="lightgrey" stroke="black" cx="214.45" cy="-18" rx="30.59" ry="18"/>
<text text-anchor="middle" x="214.45" y="-14.3" font-family="Times New Roman,serif" font-size="14.00">EE_1</text>
</g>
<!-- Sig_1 -->
<g id="node8" class="node">
<title>Sig_1</title>
<ellipse fill="lightgrey" stroke="black" cx="118.45" cy="-18" rx="31.7" ry="18"/>
<text text-anchor="middle" x="118.45" y="-14.3" font-family="Times New Roman,serif" font-size="14.00">Sig_1</text>
</g>
<!-- Water -->
<g id="node9" class="node">
<title>Water</title>
<ellipse fill="lightgrey" stroke="black" cx="393.45" cy="-18" rx="32.49" ry="18"/>
<text text-anchor="middle" x="393.45" y="-14.3" font-family="Times New Roman,serif" font-size="14.00">Water</text>
</g>
</g>
</svg>