<svg xmlns="http://www.w3.org/2000/svg" xmlns:xlink="http://www.w3.org/1999/xlink" width="657pt" height="468pt" viewBox="0.00 0.00 656.99 468.00">
<g id="graph0" class="graph" transform="scale(1 1) rotate(0) translate(36 432)">
<polygon fill="white" stroke="transparent" points="-36,36 -36,-432 620.99,-432 620.99,36 -36,36"/>
<!-- Pump&#45;&gt;ImportEE -->
<g id="edge1" class="edge">
<title>Pump-&gt;ImportEE</title>
<path fill="none" stroke="black" d="M252.19,-362.73C213.12,-331.68 120.14,-257.8 73.63,-220.84"/>
<polygon fill="black" stroke="black" points="75.78,-218.08 65.77,-214.6 71.42,-223.56 75.78,-218.08"/>
</g>
<!-- Pump&#45;&gt;ExportWater -->
<g id="edge2" class="edge">
<title>Pump-&gt;ExportWater</title>
<path fill="none" stroke="black" d="M289.89,-363.33C334.31,-332.56 442.44,-257.67 496.01,-220.56"/>
<polygon fill="black" stroke="black" points="498.2,-223.3 504.43,-214.73 494.22,-217.55 498.2,-223.3"/>
</g>
<!-- Pump&#45;&gt;MoveWat -->
<g id="edge3" class="edge">
<title>Pump-&gt;MoveWat</title>
<path fill="none" stroke="black" d="M270.15,-359.93C270.15,-328.97 270.15,-263.3 270.15,-226.13"/>
<polygon fill="black" stroke="black" points="273.65,-226.02 270.15,-216.02 266.65,-226.02 273.65,-226.02"/>
</g>
<!-- Pump&#45;&gt;ImportSig -->
<g id="edge4" class="edge">
<title>Pump-&gt;ImportSig</title>
<path fill="none" stroke="black" d="M260.01,-360.89C240.5,-329.88 197.6,-261.7 174.18,-224.48"/>
<polygon fill="black" stroke="black" points="176.95,-222.32 168.67,-215.72 171.03,-226.05 176.95,-222.32"/>
</g>
<!-- Pump&#45;&gt;ImportWater -->
<g id="edge5" class="edge">
<title>Pump-&gt;ImportWater</title>
<path fill="none" stroke="black" d="M281.28,-360.89C302.79,-329.75 350.22,-261.12 375.87,-224"/>
<polygon fill="black" stroke="black" points="378.79,-225.94 381.59,-215.72 373.03,-221.96 378.79,-225.94"/>
</g>
<!-- ImportEE&#45;&gt;EE_1 -->
<g id="edge6" class="edge">
<title>ImportEE-&gt;EE_1</title>
<path fill="none" stroke="black" d="M53.05,-179.93C65.66,-148.75 92.5,-82.4 107.48,-45.37"/>
<polygon fill="black" stroke="black" points="110.86,-46.34 111.37,-35.76 104.37,-43.71 110.86,-46.34"/>
</g>
<!-- ExportWater&#45;&gt;Water -->
<g id="edge7" class="edge">
<title>ExportWater-&gt;Water</title>
<path fill="none" stroke="black" d="M514.54,-180.25C490.65,-148.53 438.74,-79.56 411.17,-42.95"/>
<polygon fill="black" stroke="black" points="413.85,-40.69 405.04,-34.8 408.26,-44.9 413.85,-40.69"/>
</g>
<!-- MoveWat&#45;&gt;EE_1 -->
<g id="edge8" class="edge">
<title>MoveWat-&gt;EE_1</title>
<path fill="none" stroke="black" d="M256.12,-180.57C228.92,-148.73 168.98,-78.53 137.82,-42.04"/>
<polygon fill="black" stroke="black" points="140.43,-39.7 131.27,-34.37 135.1,-44.25 140.43,-39.7"/>
</g>
<!-- MoveWat&#45;&gt;Sig_1 -->
<g id="edge9" class="edge">
<title>MoveWat-&gt;Sig_1</title>
<path fill="none" stroke="black" d="M264.78,-179.93C254.97,-148.75 234.09,-82.4 222.44,-45.37"/>
<polygon fill="black" stroke="black" points="225.76,-44.24 219.42,-35.76 219.08,-46.35 225.76,-44.24"/>
</g>
<!-- MoveWat&#45;&gt;Water -->
<g id="edge10" class="edge">
<title>MoveWat-&gt;Water</title>
<path fill="none" stroke="black" d="M281.72,-180.25C303.49,-148.74 350.66,-80.49 376.08,-43.69"/>
<polygon fill="black" stroke="black" points="379.24,-45.27 382.05,-35.06 373.49,-41.3 379.24,-45.27"/>
</g>
<!-- ImportSig&#45;&gt;Sig_1 -->
<g id="edge11" class="edge">
<title>ImportSig-&gt;Sig_1</title>
<path fill="none" stroke="black" d="M163.52,-179.93C173.32,-148.75 194.2,-82.4 205.85,-45.37"/>
<polygon fill="black" stroke="black" points="209.21,-46.35 208.87,-35.76 202.53,-44.24 209.21,-46.35"/>
</g>
<!-- ImportWater&#45;&gt;Water -->
<g id="edge12" class="edge">
<title>ImportWater-&gt;Water</title>
<path fill="none" stroke="black" d="M393.15,-179.93C393.15,-148.97 393.15,-83.3 393.15,-46.13"/>
<polygon fill="black" stroke="black" points="396.65,-46.02 393.15,-36.02 389.65,-46.02 396.65,-46.02"/>
</g>
<!-- Pump -->
<g id="node1" class="node">
<title>Pump</title>
<ellipse fill="lightgrey" stroke="black" cx="270.15" cy="-378" rx="32.49" ry="18"/>
<text text-anchor="middle" x="270.15" y="-374.3" font-family="Times New Roman,serif" font-size="14.00">Pump</text>
</g>
<!-- ImportEE -->
<g id="node2" class="node">
<title>ImportEE</title>
<ellipse fill="lightgrey" stroke="black" cx="46.15" cy="-198" rx="46.29" ry="18"/>
<text text-anchor="middle" x="46.15" y="-194.3" font-family="Times New Roman,serif" font-size="14.00">ImportEE</text>
</g>
<!-- ExportWater -->
<g id="node3" class="node">
<title>ExportWater</title>
<ellipse fill="lightgrey" stroke="black" cx="527.15" cy="-198" rx="57.69" ry="18"/>
<text text-anchor="middle" x="527.15" y="-194.3" font-family="Times New Roman,serif" font-size="14.00">ExportWater</text>
</g>
<!-- MoveWat -->
<g id="node4" class="node">
<title>MoveWat</title>
<ellipse fill="lightgrey" stroke="black" cx="270.15" cy="-198" rx="46.59" ry="18"/>
<text text-anchor="middle" x="270.15" y="-194.3" font-family="Times New Roman,serif" font-size="14.00">MoveWat</text>
</g>
<!-- ImportSig -->
<g id="node5" class="node">
<title>ImportSig</title>
<ellipse fill="lightgrey" stroke="black" cx="158.15" cy="-198" rx="47.39" ry="18"/>
<text text-anchor="middle" x="158.15" y="-194.3" font-family="Times New Roman,serif" font-size="14.00">ImportSig</text>
</g>
<!-- ImportWater -->
<g id="node6" class="node">
<title>ImportWater</title>
<ellipse fill="lightgrey" stroke="black" cx="393.15" cy="-198" rx="57.69" ry="18"/>
<text text-anchor="middle" x="393.15" y="-194.3" font-family="Times New Roman,serif" font-size="14.00">ImportWater</text>
</g>
<!-- EE_1 -->
<g id="node7" class="node">
<title>EE_1</title>
<ellipse fill="lightgrey" stroke="black" cx="118.15" cy="-18" rx="30.59" ry="18"/>
<text text-anchor="middle" x="118.15" y="-14.3" font-family="Times New Roman,serif" font-size="14.00">EE_1</text>
</g>
<!-- Sig_1 -->
<g id="node8" class="node">
<title>Sig_1</title>
<ellipse fill="lightgrey" stroke="black" cx="214.15" cy="-18" rx="31.7" ry="18"/>
<text text-anchor="middle" x="214.15" y="-14.3" font-family="Times New Roman,serif" font-size="14.00">Sig_1</text>
</g>
<!-- Water -->
<g id="node9" class="node">
<title>Water</title>
<ellipse fill="lightgrey" stroke="black" cx="393.15" cy="-18" rx="32.49" ry="18"/>
<text text-anchor="middle" x="393.15" y="-14.3" font-family="Times New Roman,serif" font-size="14.00">Water</text>
</g>
</g>
</svg>