<svg xmlns="http://www.w3.org/2000/svg" xmlns:xlink="http://www.w3.org/1999/xlink" width="866pt" height="444pt" viewBox="0.00 0.00 866.16 444.00">
<g id="graph0" class="graph" transform="scale(1 1) rotate(0) translate(4 440)">
<polygon fill="white" stroke="transparent" points="-4,4 -4,-440 862.16,-440 862.16,4 -4,4"/>
<!-- Rover -->
<g id="node1" class="node">
<title>Rover</title>
<polygon fill="lightgrey" stroke="grey" stroke-width="0" points="346.56,-436 281.57,-401.5 411.55,-401.5 346.56,-436"/>
<text text-anchor="middle" x="346.56" y="-409.3" font-family="Times New Roman,serif" font-size="14.00">Rover</text>
</g>
<!-- StoreEnergy -->
<g id="node2" class="node">
<title>StoreEnergy</title>
<polygon fill="lightgrey" stroke="grey" stroke-width="2" points="287.56,-231 203.56,-231 203.56,-195 287.56,-195 287.56,-231"/>
<text text-anchor="middle" x="245.56" y="-209.3" font-family="Times New Roman,serif" font-size="14.00">StoreEnergy</text>
</g>
<!-- Rover&#45;&gt;StoreEnergy -->
<g id="edge1" class="edge">
<title>Rover-&gt;StoreEnergy</title>
<path fill="none" stroke="black" d="M340.75,-401.35C331.3,-383.98 312.12,-348.45 296.56,-318 283.13,-291.72 268.34,-261.39 258.16,-240.29"/>
<polygon fill="black" stroke="black" points="253.69,-231.02 262.09,-238.08 255.86,-235.52 258.03,-240.03 258.03,-240.03 258.03,-240.03 255.86,-235.52 253.98,-241.98 253.69,-231.02 253.69,-231.02"/>
<text text-anchor="start" x="296.56" y="-306.8" font-family="Times New Roman,serif" font-size="14.00">contains</text>
</g>
<!-- MoveRover -->
<g id="node3" class="node">
<title>MoveRover</title>
<polygon fill="lightgrey" stroke="grey" stroke-width="2" points="387.56,-231 305.56,-231 305.56,-195 387.56,-195 387.56,-231"/>
<text text-anchor="middle" x="346.56" y="-209.3" font-family="Times New Roman,serif" font-size="14.00">MoveRover</text>
</g>
<!-- Rover&#45;&gt;MoveRover -->
<g id="edge2" class="edge">
<title>Rover-&gt;MoveRover</title>
<path fill="none" stroke="black" d="M346.56,-401.35C346.56,-371.38 346.56,-285.55 346.56,-241.22"/>
<polygon fill="black" stroke="black" points="346.56,-231.16 351.06,-241.16 346.56,-236.16 346.56,-241.16 346.56,-241.16 346.56,-241.16 346.56,-236.16 342.06,-241.16 346.56,-231.16 346.56,-231.16"/>
<text text-anchor="start" x="346.56" y="-306.8" font-family="Times New Roman,serif" font-size="14.00">contains</text>
</g>
<!-- ViewGround -->
<g id="node4" class="node">
<title>ViewGround</title>
<polygon fill="lightgrey" stroke="grey" stroke-width="2" points="596.56,-231 510.56,-231 510.56,-195 596.56,-195 596.56,-231"/>
<text text-anchor="middle" x="553.56" y="-209.3" font-family="Times New Roman,serif" font-size="14.00">ViewGround</text>
</g>
<!-- Rover&#45;&gt;ViewGround -->
<g id="edge3" class="edge">
<title>Rover-&gt;ViewGround</title>
<path fill="none" stroke="black" d="M357.69,-401.35C389.76,-370.68 482.97,-281.52 528.26,-238.2"/>
<polygon fill="black" stroke="black" points="535.62,-231.16 531.5,-241.32 532.01,-234.62 528.39,-238.07 528.39,-238.07 528.39,-238.07 532.01,-234.62 525.28,-234.82 535.62,-231.16 535.62,-231.16"/>
<text text-anchor="start" x="455.56" y="-306.8" font-family="Times New Roman,serif" font-size="14.00">contains</text>
</g>
<!-- Communicate -->
<g id="node5" class="node">
<title>Communicate</title>
<polygon fill="lightgrey" stroke="grey" stroke-width="2" points="807.56,-231 713.56,-231 713.56,-195 807.56,-195 807.56,-231"/>
<text text-anchor="middle" x="760.56" y="-209.3" font-family="Times New Roman,serif" font-size="14.00">Communicate</text>
</g>
<!-- Rover&#45;&gt;Communicate -->
<g id="edge4" class="edge">
<title>Rover-&gt;Communicate</title>
<path fill="none" stroke="black" d="M368.53,-401.49C433.77,-370.29 627.34,-277.72 715.69,-235.46"/>
<polygon fill="black" stroke="black" points="724.91,-231.05 717.83,-239.42 720.4,-233.21 715.89,-235.36 715.89,-235.36 715.89,-235.36 720.4,-233.21 713.95,-231.3 724.91,-231.05 724.91,-231.05"/>
<text text-anchor="start" x="565.56" y="-306.8" font-family="Times New Roman,serif" font-size="14.00">contains</text>
</g>
<!-- ControlRover -->
<g id="node6" class="node">
<title>ControlRover</title>
<polygon fill="lightgrey" stroke="grey" stroke-width="2" points="116.06,-231 25.06,-231 25.06,-195 116.06,-195 116.06,-231"/>
<text text-anchor="middle" x="70.56" y="-209.3" font-family="Times New Roman,serif" font-size="14.00">ControlRover</text>
</g>
<!-- Rover&#45;&gt;ControlRover -->
<g id="edge5" class="edge">
<title>Rover-&gt;ControlRover</title>
<path fill="none" stroke="black" d="M331.72,-401.35C288.61,-370.42 162.63,-280.05 102.81,-237.13"/>
<polygon fill="black" stroke="black" points="94.48,-231.16 105.23,-233.33 98.54,-234.07 102.61,-236.99 102.61,-236.99 102.61,-236.99 98.54,-234.07 99.98,-240.65 94.48,-231.16 94.48,-231.16"/>
<text text-anchor="start" x="208.56" y="-306.8" font-family="Times New Roman,serif" font-size="14.00">contains</text>
</g>
<!-- Control -->
<g id="node8" class="node">
<title>Control</title>
<ellipse fill="lightgrey" stroke="grey" stroke-width="0" cx="70.56" cy="-18" rx="37.89" ry="18"/>
<text text-anchor="middle" x="70.56" y="-14.3" font-family="Times New Roman,serif" font-size="14.00">Control</text>
</g>
<!-- StoreEnergy&#45;&gt;Control -->
<g id="edge7" class="edge">
<title>StoreEnergy-&gt;Control</title>
<path fill="none" stroke="black" d="M203.33,-203.52C161.7,-192.69 100.29,-169.46 71.56,-123 57.3,-99.93 59.43,-68.13 63.62,-45.78"/>
<polygon fill="black" stroke="black" points="65.72,-35.95 68.04,-46.67 64.68,-40.84 63.63,-45.73 63.63,-45.73 63.63,-45.73 64.68,-40.84 59.23,-44.79 65.72,-35.95 65.72,-35.95"/>
<text text-anchor="start" x="71.56" y="-111.8" font-family="Times New Roman,serif" font-size="14.00">contains</text>
</g>
<!-- EE -->
<g id="node12" class="node">
<title>EE</title>
<ellipse fill="lightgrey" stroke="grey" stroke-width="0" cx="549.56" cy="-18" rx="27" ry="18"/>
<text text-anchor="middle" x="549.56" y="-14.3" font-family="Times New Roman,serif" font-size="14.00">EE</text>
</g>
<!-- StoreEnergy&#45;&gt;EE -->
<g id="edge6" class="edge">
<title>StoreEnergy-&gt;EE</title>
<path fill="none" stroke="black" d="M249.46,-194.77C255.5,-171.85 269.28,-131.51 295.56,-108 358.41,-51.78 458.87,-30.59 512.69,-22.99"/>
<polygon fill="black" stroke="black" points="522.8,-21.64 513.48,-27.42 517.85,-22.3 512.89,-22.96 512.89,-22.96 512.89,-22.96 517.85,-22.3 512.3,-18.5 522.8,-21.64 522.8,-21.64"/>
<text text-anchor="start" x="295.56" y="-111.8" font-family="Times New Roman,serif" font-size="14.00">contains</text>
</g>
<!-- MoveRover&#45;&gt;Control -->
<g id="edge11" class="edge">
<title>MoveRover-&gt;Control</title>
<path fill="none" stroke="black" d="M305.54,-195.43C257.18,-175.46 180.25,-142.2 155.56,-123 126.79,-100.64 101.48,-66.83 86.11,-43.88"/>
<polygon fill="black" stroke="black" points="80.54,-35.36 89.78,-41.26 83.28,-39.54 86.02,-43.73 86.02,-43.73 86.02,-43.73 83.28,-39.54 82.25,-46.19 80.54,-35.36 80.54,-35.36"/>
<text text-anchor="start" x="155.56" y="-111.8" font-family="Times New Roman,serif" font-size="14.00">contains</text>
</g>
<!-- Force -->
<g id="node9" class="node">
<title>Force</title>
<ellipse fill="lightgrey" stroke="grey" stroke-width="0" cx="377.56" cy="-18" rx="30.59" ry="18"/>
<text text-anchor="middle" x="377.56" y="-14.3" font-family="Times New Roman,serif" font-size="14.00">Force</text>
</g>
<!-- MoveRover&#45;&gt;Force -->
<g id="edge8" class="edge">
<title>MoveRover-&gt;Force</title>
<path fill="none" stroke="black" d="M345.09,-194.92C343.68,-174.2 342.45,-138.27 347.56,-108 351.24,-86.23 359.42,-62.58 366.31,-45.14"/>
<polygon fill="black" stroke="black" points="370.18,-35.65 370.57,-46.61 368.29,-40.28 366.4,-44.91 366.4,-44.91 366.4,-44.91 368.29,-40.28 362.24,-43.22 370.18,-35.65 370.18,-35.65"/>
<text text-anchor="start" x="347.56" y="-111.8" font-family="Times New Roman,serif" font-size="14.00">contains</text>
</g>
<!-- Ground -->
<g id="node10" class="node">
<title>Ground</title>
<ellipse fill="lightgrey" stroke="grey" stroke-width="0" cx="249.56" cy="-18" rx="37.89" ry="18"/>
<text text-anchor="middle" x="249.56" y="-14.3" font-family="Times New Roman,serif" font-size="14.00">Ground</text>
</g>
<!-- MoveRover&#45;&gt;Ground -->
<g id="edge9" class="edge">
<title>MoveRover-&gt;Ground</title>
<path fill="none" stroke="black" d="M305.33,-197.82C272.82,-184.2 229.72,-160.14 209.56,-123 195.3,-96.73 212.82,-64.29 228.96,-42.7"/>
<polygon fill="black" stroke="black" points="235.23,-34.71 232.59,-45.35 232.14,-38.64 229.05,-42.57 229.05,-42.57 229.05,-42.57 232.14,-38.64 225.51,-39.79 235.23,-34.71 235.23,-34.71"/>
<text text-anchor="start" x="209.56" y="-111.8" font-family="Times New Roman,serif" font-size="14.00">contains</text>
</g>
<!-- MoveRover&#45;&gt;EE -->
<g id="edge10" class="edge">
<title>MoveRover-&gt;EE</title>
<path fill="none" stroke="black" d="M372.28,-194.74C396.68,-177.8 433.79,-150.58 462.56,-123 488.96,-97.69 515.36,-64.79 532.04,-42.84"/>
<polygon fill="black" stroke="black" points="538.14,-34.72 535.73,-45.42 535.14,-38.72 532.13,-42.71 532.13,-42.71 532.13,-42.71 535.14,-38.72 528.54,-40.01 538.14,-34.72 538.14,-34.72"/>
<text text-anchor="start" x="475.56" y="-111.8" font-family="Times New Roman,serif" font-size="14.00">contains</text>
</g>
<!-- Video -->
<g id="node7" class="node">
<title>Video</title>
<ellipse fill="lightgrey" stroke="grey" stroke-width="0" cx="691.56" cy="-18" rx="31.7" ry="18"/>
<text text-anchor="middle" x="691.56" y="-14.3" font-family="Times New Roman,serif" font-size="14.00">Video</text>
</g>
<!-- ViewGround&#45;&gt;Video -->
<g id="edge15" class="edge">
<title>ViewGround-&gt;Video</title>
<path fill="none" stroke="black" d="M578.31,-194.78C600.16,-178.48 631.57,-152.21 651.56,-123 667.88,-99.16 678.77,-67.74 685.02,-45.7"/>
<polygon fill="black" stroke="black" points="687.63,-36 689.37,-46.83 686.33,-40.83 685.03,-45.65 685.03,-45.65 685.03,-45.65 686.33,-40.83 680.68,-44.48 687.63,-36 687.63,-36"/>
<text text-anchor="start" x="658.56" y="-111.8" font-family="Times New Roman,serif" font-size="14.00">contains</text>
</g>
<!-- ViewGround&#45;&gt;Force -->
<g id="edge12" class="edge">
<title>ViewGround-&gt;Force</title>
<path fill="none" stroke="black" d="M554.04,-194.82C553.8,-172.7 550.42,-133.99 531.56,-108 502.47,-67.9 449.37,-43.11 413.77,-30.19"/>
<polygon fill="black" stroke="black" points="404.23,-26.85 415.15,-25.9 408.95,-28.5 413.67,-30.15 413.67,-30.15 413.67,-30.15 408.95,-28.5 412.18,-34.4 404.23,-26.85 404.23,-26.85"/>
<text text-anchor="start" x="539.56" y="-111.8" font-family="Times New Roman,serif" font-size="14.00">contains</text>
</g>
<!-- ViewGround&#45;&gt;Ground -->
<g id="edge13" class="edge">
<title>ViewGround-&gt;Ground</title>
<path fill="none" stroke="black" d="M524.63,-194.96C495.71,-177.65 450.25,-149.66 412.56,-123 403.78,-116.79 402.37,-114.17 393.56,-108 356.14,-81.8 311.08,-54.61 281.45,-37.29"/>
<polygon fill="black" stroke="black" points="272.78,-32.24 283.68,-33.38 277.1,-34.75 281.42,-37.27 281.42,-37.27 281.42,-37.27 277.1,-34.75 279.16,-41.16 272.78,-32.24 272.78,-32.24"/>
<text text-anchor="start" x="412.56" y="-111.8" font-family="Times New Roman,serif" font-size="14.00">contains</text>
</g>
<!-- ViewGround&#45;&gt;EE -->
<g id="edge14" class="edge">
<title>ViewGround-&gt;EE</title>
<path fill="none" stroke="black" d="M569.44,-194.98C586.21,-174.9 609.12,-140.17 600.56,-108 594.16,-83.97 579.57,-59.67 567.62,-42.55"/>
<polygon fill="black" stroke="black" points="561.67,-34.29 571.17,-39.77 564.6,-38.34 567.52,-42.4 567.52,-42.4 567.52,-42.4 564.6,-38.34 563.87,-45.03 561.67,-34.29 561.67,-34.29"/>
<text text-anchor="start" x="601.56" y="-111.8" font-family="Times New Roman,serif" font-size="14.00">contains</text>
</g>
<!-- Flow -->
<g id="node11" class="node">
<title>Flow</title>
<ellipse fill="lightgrey" stroke="grey" stroke-width="0" cx="829.56" cy="-18" rx="28.7" ry="18"/>
<text text-anchor="middle" x="829.56" y="-14.3" font-family="Times New Roman,serif" font-size="14.00">Flow</text>
</g>
<!-- Communicate&#45;&gt;Flow -->
<g id="edge16" class="edge">
<title>Communicate-&gt;Flow</title>
<path fill="none" stroke="black" d="M771.42,-194.93C782.07,-177.48 798.05,-149.29 807.56,-123 816.75,-97.61 822.62,-67.28 825.96,-45.94"/>
<polygon fill="black" stroke="black" points="827.45,-35.97 830.43,-46.52 826.71,-40.91 825.98,-45.86 825.98,-45.86 825.98,-45.86 826.71,-40.91 821.52,-45.2 827.45,-35.97 827.45,-35.97"/>
<text text-anchor="start" x="811.56" y="-111.8" font-family="Times New Roman,serif" font-size="14.00">contains</text>
</g>
<!-- Communicate&#45;&gt;EE -->
<g id="edge17" class="edge">
<title>Communicate-&gt;EE</title>
<path fill="none" stroke="black" d="M755.44,-194.65C748.12,-172.32 732.81,-133.41 708.56,-108 672.88,-70.61 617.98,-44.7 582.93,-30.84"/>
<polygon fill="black" stroke="black" points="573.17,-27.09 584.12,-26.47 577.83,-28.88 582.5,-30.67 582.5,-30.67 582.5,-30.67 577.83,-28.88 580.89,-34.88 573.17,-27.09 573.17,-27.09"/>
<text text-anchor="start" x="720.56" y="-111.8" font-family="Times New Roman,serif" font-size="14.00">contains</text>
</g>
<!-- ControlRover&#45;&gt;Control -->
<g id="edge18" class="edge">
<title>ControlRover-&gt;Control</title>
<path fill="none" stroke="black" d="M51.67,-194.7C35.11,-178.15 12.22,-151.55 2.56,-123 -8.2,-91.19 19.26,-59.62 42.44,-39.75"/>
<polygon fill="black" stroke="black" points="50.4,-33.23 45.52,-43.05 46.53,-36.4 42.66,-39.57 42.66,-39.57 42.66,-39.57 46.53,-36.4 39.81,-36.09 50.4,-33.23 50.4,-33.23"/>
<text text-anchor="start" x="2.56" y="-111.8" font-family="Times New Roman,serif" font-size="14.00">contains</text>
</g>
</g>
</svg>