<?xml version="1.0" encoding="utf-8" standalone="no"?>
<!DOCTYPE svg PUBLIC "-//W3C//DTD SVG 1.1//EN"
  "http://www.w3.org/Graphics/SVG/1.1/DTD/svg11.dtd">
<svg xmlns:xlink="http://www.w3.org/1999/xlink" width="362.7pt" height="209.158125pt" viewBox="0 0 362.7 209.158125" xmlns="http://www.w3.org/2000/svg" version="1.1">
 <metadata>
  <rdf:RDF xmlns:dc="http://purl.org/dc/elements/1.1/" xmlns:cc="http://creativecommons.org/ns#" xmlns:rdf="http://www.w3.org/1999/02/22-rdf-syntax-ns#">
   <cc:Work>
    <dc:type rdf:resource="http://purl.org/dc/dcmitype/StillImage"/>
    <dc:date>2026-02-25T17:07:05.014797</dc:date>
    <dc:format>image/svg+xml</dc:format>
    <dc:creator>
     <cc:Agent>
      <dc:title>Matplotlib v3.10.8, https://matplotlib.org/</dc:title>
     </cc:Agent>
    </dc:creator>
   </cc:Work>
  </rdf:RDF>
 </metadata>
 <defs>
  <style type="text/css">*{stroke-linejoin: round; stroke-linecap: butt}</style>
 </defs>
 <g id="figure_1">
  <g id="patch_1">
   <path d="M 0 209.158125 
L 362.7 209.158125 
L 362.7 0 
L 0 0 
z
" style="fill: #ffffff"/>
  </g>
  <g id="axes_1">
   <g id="patch_2">
    <path d="M 143.304545 74.338125 
L 194.031818 74.338125 
L 194.031818 23.938125 
L 143.304545 23.938125 
z
" clip-path="url(#p520617d061)" style="fill: #ffffff; stroke: #0000ff; stroke-linejoin: miter"/>
   </g>
   <g id="line2d_1">
    <path d="M 117.940909 175.138125 
L 16.486364 149.938125 
L 16.486364 124.738125 
L 67.213636 99.538125 
" clip-path="url(#p520617d061)" style="fill: none; stroke: #808080; stroke-width: 1.5; stroke-linecap: square"/>
   </g>
   <g id="line2d_2">
    <path d="M 67.213636 99.538125 
L 244.759091 99.538125 
" clip-path="url(#p520617d061)" style="fill: none; stroke: #808080; stroke-width: 1.5; stroke-linecap: square"/>
   </g>
   <g id="line2d_3">
    <path d="M 67.213636 99.538125 
L 67.213636 74.338125 
" clip-path="url(#p520617d061)" style="fill: none; stroke: #808080; stroke-width: 1.5; stroke-linecap: square"/>
   </g>
   <g id="line2d_4">
    <path d="M 244.759091 99.538125 
L 295.486364 99.538125 
" clip-path="url(#p520617d061)" style="fill: none; stroke: #808080; stroke-width: 1.5; stroke-linecap: square"/>
   </g>
   <g id="line2d_5">
    <path d="M 295.486364 99.538125 
L 295.486364 74.338125 
" clip-path="url(#p520617d061)" style="fill: none; stroke: #808080; stroke-width: 1.5; stroke-linecap: square"/>
   </g>
   <g id="line2d_6">
    <path d="M 295.486364 99.538125 
L 346.213636 124.738125 
" clip-path="url(#p520617d061)" style="fill: none; stroke: #808080; stroke-width: 1.5; stroke-linecap: square"/>
   </g>
   <g id="line2d_7">
    <path d="M 346.213636 124.738125 
L 346.213636 99.538125 
" clip-path="url(#p520617d061)" style="fill: none; stroke: #808080; stroke-width: 1.5; stroke-linecap: square"/>
   </g>
   <g id="line2d_8">
    <path d="M 346.213636 124.738125 
L 346.213636 149.938125 
L 244.759091 175.138125 
" clip-path="url(#p520617d061)" style="fill: none; stroke: #808080; stroke-width: 1.5; stroke-linecap: square"/>
   </g>
   <g id="line2d_9">
    <path d="M 117.940909 175.138125 
L 143.304545 175.138125 
" clip-path="url(#p520617d061)" style="fill: none; stroke: #808080; stroke-width: 1.5; stroke-linecap: square"/>
   </g>
   <g id="line2d_10">
    <path d="M 143.304545 175.138125 
L 168.668182 175.138125 
" clip-path="url(#p520617d061)" style="fill: none; stroke: #808080; stroke-width: 1.5; stroke-linecap: square"/>
   </g>
   <g id="line2d_11">
    <path d="M 168.668182 175.138125 
L 181.35 175.138125 
" clip-path="url(#p520617d061)" style="fill: none; stroke: #808080; stroke-width: 1.5; stroke-linecap: square"/>
   </g>
   <g id="line2d_12">
    <path d="M 181.35 175.138125 
L 194.031818 175.138125 
" clip-path="url(#p520617d061)" style="fill: none; stroke: #808080; stroke-width: 1.5; stroke-linecap: square"/>
   </g>
   <g id="line2d_13">
    <path d="M 194.031818 175.138125 
L 219.395455 175.138125 
" clip-path="url(#p520617d061)" style="fill: none; stroke: #808080; stroke-width: 1.5; stroke-linecap: square"/>
   </g>
   <g id="line2d_14">
    <path d="M 219.395455 175.138125 
L 244.759091 175.138125 
" clip-path="url(#p520617d061)" style="fill: none; stroke: #808080; stroke-width: 1.5; stroke-linecap: square"/>
   </g>
   <g id="line2d_15">
    <path d="M 181.35 175.138125 
L 181.35 137.338125 
L 67.213636 137.338125 
L 67.213636 99.538125 
" clip-path="url(#p520617d061)" style="fill: none; stroke: #808080; stroke-width: 1.5; stroke-linecap: square"/>
   </g>
   <g id="line2d_16">
    <path d="M 244.759091 99.538125 
L 244.759091 124.738125 
L 346.213636 124.738125 
" clip-path="url(#p520617d061)" style="fill: none; stroke: #808080; stroke-width: 1.5; stroke-linecap: square"/>
   </g>
   <g id="line2d_17">
    <path d="M 117.940909 175.138125 
L 117.940909 200.338125 
" clip-path="url(#p520617d061)" style="fill: none; stroke: #808080; stroke-width: 1.5; stroke-linecap: square"/>
   </g>
   <g id="line2d_18">
    <path d="M 143.304545 175.138125 
L 143.304545 200.338125 
" clip-path="url(#p520617d061)" style="fill: none; stroke: #808080; stroke-width: 1.5; stroke-linecap: square"/>
   </g>
   <g id="line2d_19">
    <path d="M 168.668182 175.138125 
L 168.668182 200.338125 
" clip-path="url(#p520617d061)" style="fill: none; stroke: #808080; stroke-width: 1.5; stroke-linecap: square"/>
   </g>
   <g id="line2d_20">
    <path d="M 194.031818 175.138125 
L 194.031818 200.338125 
" clip-path="url(#p520617d061)" style="fill: none; stroke: #808080; stroke-width: 1.5; stroke-linecap: square"/>
   </g>
   <g id="line2d_21">
    <path d="M 219.395455 175.138125 
L 219.395455 200.338125 
" clip-path="url(#p520617d061)" style="fill: none; stroke: #808080; stroke-width: 1.5; stroke-linecap: square"/>
   </g>
   <g id="line2d_22">
    <path d="M 244.759091 175.138125 
L 244.759091 200.338125 
" clip-path="url(#p520617d061)" style="fill: none; stroke: #808080; stroke-width: 1.5; stroke-linecap: square"/>
   </g>
   <g id="line2d_23">
    <path d="M 168.668182 49.138125 
" clip-path="url(#p520617d061)" style="fill: none; stroke: #808080; stroke-width: 1.5; stroke-linecap: square"/>
    <defs>
     <path id="m7829b2dcfe" d="M -2.5 -4.330127 
L -2.5 4.330127 
L 5 0 
z
" style="stroke: #800080; stroke-linejoin: miter"/>
    </defs>
    <g clip-path="url(#p520617d061)">
     <use xlink:href="#m7829b2dcfe" x="168.668182" y="49.138125" style="fill: #808080; stroke: #800080; stroke-linejoin: miter"/>
    </g>
   </g>
   <g id="line2d_24">
    <path d="M 67.213636 74.338125 
" clip-path="url(#p520617d061)" style="fill: none; stroke: #008000; stroke-width: 1.5; stroke-linecap: square"/>
    <defs>
     <path id="m80e459a824" d="M -0.750121 4.943412 
L 4.656181 -1.822082 
L -3.906059 -3.12133 
z
" style="stroke: #808080; stroke-linejoin: miter"/>
    </defs>
    <g clip-path="url(#p520617d061)">
     <use xlink:href="#m80e459a824" x="67.213636" y="74.338125" style="fill: #008000; stroke: #808080; stroke-linejoin: miter"/>
    </g>
   </g>
   <g id="line2d_25">
    <path d="M 67.213636 74.338125 
" clip-path="url(#p520617d061)" style="fill: none; stroke: #008000; stroke-width: 1.5; stroke-linecap: square"/>
    <defs>
     <path id="m3775313621" d="M -0.750121 4.943412 
L 4.656181 -1.822082 
L -3.906059 -3.12133 
z
" style="stroke: #800080; stroke-linejoin: miter"/>
    </defs>
    <g clip-path="url(#p520617d061)">
     <use xlink:href="#m3775313621" x="67.213636" y="74.338125" style="fill: #008000; stroke: #800080; stroke-linejoin: miter"/>
    </g>
   </g>
   <g id="line2d_26">
    <path d="M 168.668182 49.138125 
" clip-path="url(#p520617d061)" style="fill: none; stroke: #808080; stroke-width: 1.5; stroke-linecap: square"/>
    <defs>
     <path id="mcc24bc409d" d="M -2.5 -4.330127 
L -2.5 4.330127 
L 5 0 
z
" style="stroke: #808080; stroke-linejoin: miter"/>
    </defs>
    <g clip-path="url(#p520617d061)">
     <use xlink:href="#mcc24bc409d" x="168.668182" y="49.138125" style="fill: #808080; stroke: #808080; stroke-linejoin: miter"/>
    </g>
   </g>
   <g id="line2d_27">
    <path d="M 44.121886 156.802432 
" clip-path="url(#p520617d061)" style="fill: none; stroke: #0000ff; stroke-width: 1.5; stroke-linecap: square"/>
    <defs>
     <path id="m7048503191" d="M 4.677366 -1.766987 
L -3.868939 -3.167225 
L -0.808427 4.934212 
z
" style="stroke: #808080; stroke-linejoin: miter"/>
    </defs>
    <g clip-path="url(#p520617d061)">
     <use xlink:href="#m7048503191" x="44.121886" y="156.802432" style="fill: #0000ff; stroke: #808080; stroke-linejoin: miter"/>
    </g>
   </g>
   <g id="line2d_28">
    <path d="M 194.031818 175.138125 
" clip-path="url(#p520617d061)" style="fill: none; stroke: #0000ff; stroke-width: 1.5; stroke-linecap: square"/>
    <defs>
     <path id="mcc6633a7aa" d="M -0.750121 4.943412 
L 4.656181 -1.822082 
L -3.906059 -3.12133 
z
" style="stroke: #808080; stroke-linejoin: miter"/>
    </defs>
    <g clip-path="url(#p520617d061)">
     <use xlink:href="#mcc6633a7aa" x="194.031818" y="175.138125" style="fill: #0000ff; stroke: #808080; stroke-linejoin: miter"/>
    </g>
   </g>
   <g id="line2d_29">
    <path d="M 168.668182 49.138125 
" clip-path="url(#p520617d061)" style="fill: none; stroke: #808080; stroke-width: 1.5; stroke-linecap: square"/>
    <defs>
     <path id="m8871e8e619" d="M -2.5 5 
L 0 2.5 
L 2.5 5 
L 5 2.5 
L 2.5 0 
L 5 -2.5 
L 2.5 -5 
L 0 -2.5 
L -2.5 -5 
L -5 -2.5 
L -2.5 0 
L -5 2.5 
z
" style="stroke: #800080; stroke-linejoin: miter"/>
    </defs>
    <g clip-path="url(#p520617d061)">
     <use xlink:href="#m8871e8e619" x="168.668182" y="49.138125" style="fill: #808080; stroke: #800080; stroke-linejoin: miter"/>
    </g>
   </g>
   <g id="line2d_30">
    <path d="M 346.213636 99.538125 
" clip-path="url(#p520617d061)" style="fill: none; stroke: #808080; stroke-width: 1.5; stroke-linecap: square"/>
    <g clip-path="url(#p520617d061)">
     <use xlink:href="#m8871e8e619" x="346.213636" y="99.538125" style="fill: #808080; stroke: #800080; stroke-linejoin: miter"/>
    </g>
   </g>
   <g id="text_1">
    <!-- In Air -->
    <g transform="translate(155.570526 23.938125) scale(0.1 -0.1)">
     <defs>
      <path id="DejaVuSans-49" d="M 628 4666 
L 1259 4666 
L 1259 0 
L 628 0 
L 628 4666 
z
" transform="scale(0.015625)"/>
      <path id="DejaVuSans-6e" d="M 3513 2113 
L 3513 0 
L 2938 0 
L 2938 2094 
Q 2938 2591 2744 2837 
Q 2550 3084 2163 3084 
Q 1697 3084 1428 2787 
Q 1159 2491 1159 1978 
L 1159 0 
L 581 0 
L 581 3500 
L 1159 3500 
L 1159 2956 
Q 1366 3272 1645 3428 
Q 1925 3584 2291 3584 
Q 2894 3584 3203 3211 
Q 3513 2838 3513 2113 
z
" transform="scale(0.015625)"/>
      <path id="DejaVuSans-20" transform="scale(0.015625)"/>
      <path id="DejaVuSans-41" d="M 2188 4044 
L 1331 1722 
L 3047 1722 
L 2188 4044 
z
M 1831 4666 
L 2547 4666 
L 4325 0 
L 3669 0 
L 3244 1197 
L 1141 1197 
L 716 0 
L 50 0 
L 1831 4666 
z
" transform="scale(0.015625)"/>
      <path id="DejaVuSans-69" d="M 603 3500 
L 1178 3500 
L 1178 0 
L 603 0 
L 603 3500 
z
M 603 4863 
L 1178 4863 
L 1178 4134 
L 603 4134 
L 603 4863 
z
" transform="scale(0.015625)"/>
      <path id="DejaVuSans-72" d="M 2631 2963 
Q 2534 3019 2420 3045 
Q 2306 3072 2169 3072 
Q 1681 3072 1420 2755 
Q 1159 2438 1159 1844 
L 1159 0 
L 581 0 
L 581 3500 
L 1159 3500 
L 1159 2956 
Q 1341 3275 1631 3429 
Q 1922 3584 2338 3584 
Q 2397 3584 2469 3576 
Q 2541 3569 2628 3553 
L 2631 2963 
z
" transform="scale(0.015625)"/>
     </defs>
     <use xlink:href="#DejaVuSans-49"/>
     <use xlink:href="#DejaVuSans-6e" transform="translate(29.492188 0)"/>
     <use xlink:href="#DejaVuSans-20" transform="translate(92.871094 0)"/>
     <use xlink:href="#DejaVuSans-41" transform="translate(124.658203 0)"/>
     <use xlink:href="#DejaVuSans-69" transform="translate(193.066406 0)"/>
     <use xlink:href="#DejaVuSans-72" transform="translate(220.849609 0)"/>
    </g>
   </g>
   <g id="text_2">
    <!-- ma2: takeoff -->
    <g transform="translate(73.532426 77.759189) scale(0.1 -0.1)">
     <defs>
      <path id="DejaVuSans-6d" d="M 3328 2828 
Q 3544 3216 3844 3400 
Q 4144 3584 4550 3584 
Q 5097 3584 5394 3201 
Q 5691 2819 5691 2113 
L 5691 0 
L 5113 0 
L 5113 2094 
Q 5113 2597 4934 2840 
Q 4756 3084 4391 3084 
Q 3944 3084 3684 2787 
Q 3425 2491 3425 1978 
L 3425 0 
L 2847 0 
L 2847 2094 
Q 2847 2600 2669 2842 
Q 2491 3084 2119 3084 
Q 1678 3084 1418 2786 
Q 1159 2488 1159 1978 
L 1159 0 
L 581 0 
L 581 3500 
L 1159 3500 
L 1159 2956 
Q 1356 3278 1631 3431 
Q 1906 3584 2284 3584 
Q 2666 3584 2933 3390 
Q 3200 3197 3328 2828 
z
" transform="scale(0.015625)"/>
      <path id="DejaVuSans-61" d="M 2194 1759 
Q 1497 1759 1228 1600 
Q 959 1441 959 1056 
Q 959 750 1161 570 
Q 1363 391 1709 391 
Q 2188 391 2477 730 
Q 2766 1069 2766 1631 
L 2766 1759 
L 2194 1759 
z
M 3341 1997 
L 3341 0 
L 2766 0 
L 2766 531 
Q 2569 213 2275 61 
Q 1981 -91 1556 -91 
Q 1019 -91 701 211 
Q 384 513 384 1019 
Q 384 1609 779 1909 
Q 1175 2209 1959 2209 
L 2766 2209 
L 2766 2266 
Q 2766 2663 2505 2880 
Q 2244 3097 1772 3097 
Q 1472 3097 1187 3025 
Q 903 2953 641 2809 
L 641 3341 
Q 956 3463 1253 3523 
Q 1550 3584 1831 3584 
Q 2591 3584 2966 3190 
Q 3341 2797 3341 1997 
z
" transform="scale(0.015625)"/>
      <path id="DejaVuSans-32" d="M 1228 531 
L 3431 531 
L 3431 0 
L 469 0 
L 469 531 
Q 828 903 1448 1529 
Q 2069 2156 2228 2338 
Q 2531 2678 2651 2914 
Q 2772 3150 2772 3378 
Q 2772 3750 2511 3984 
Q 2250 4219 1831 4219 
Q 1534 4219 1204 4116 
Q 875 4013 500 3803 
L 500 4441 
Q 881 4594 1212 4672 
Q 1544 4750 1819 4750 
Q 2544 4750 2975 4387 
Q 3406 4025 3406 3419 
Q 3406 3131 3298 2873 
Q 3191 2616 2906 2266 
Q 2828 2175 2409 1742 
Q 1991 1309 1228 531 
z
" transform="scale(0.015625)"/>
      <path id="DejaVuSans-3a" d="M 750 794 
L 1409 794 
L 1409 0 
L 750 0 
L 750 794 
z
M 750 3309 
L 1409 3309 
L 1409 2516 
L 750 2516 
L 750 3309 
z
" transform="scale(0.015625)"/>
      <path id="DejaVuSans-74" d="M 1172 4494 
L 1172 3500 
L 2356 3500 
L 2356 3053 
L 1172 3053 
L 1172 1153 
Q 1172 725 1289 603 
Q 1406 481 1766 481 
L 2356 481 
L 2356 0 
L 1766 0 
Q 1100 0 847 248 
Q 594 497 594 1153 
L 594 3053 
L 172 3053 
L 172 3500 
L 594 3500 
L 594 4494 
L 1172 4494 
z
" transform="scale(0.015625)"/>
      <path id="DejaVuSans-6b" d="M 581 4863 
L 1159 4863 
L 1159 1991 
L 2875 3500 
L 3609 3500 
L 1753 1863 
L 3688 0 
L 2938 0 
L 1159 1709 
L 1159 0 
L 581 0 
L 581 4863 
z
" transform="scale(0.015625)"/>
      <path id="DejaVuSans-65" d="M 3597 1894 
L 3597 1613 
L 953 1613 
Q 991 1019 1311 708 
Q 1631 397 2203 397 
Q 2534 397 2845 478 
Q 3156 559 3463 722 
L 3463 178 
Q 3153 47 2828 -22 
Q 2503 -91 2169 -91 
Q 1331 -91 842 396 
Q 353 884 353 1716 
Q 353 2575 817 3079 
Q 1281 3584 2069 3584 
Q 2775 3584 3186 3129 
Q 3597 2675 3597 1894 
z
M 3022 2063 
Q 3016 2534 2758 2815 
Q 2500 3097 2075 3097 
Q 1594 3097 1305 2825 
Q 1016 2553 972 2059 
L 3022 2063 
z
" transform="scale(0.015625)"/>
      <path id="DejaVuSans-6f" d="M 1959 3097 
Q 1497 3097 1228 2736 
Q 959 2375 959 1747 
Q 959 1119 1226 758 
Q 1494 397 1959 397 
Q 2419 397 2687 759 
Q 2956 1122 2956 1747 
Q 2956 2369 2687 2733 
Q 2419 3097 1959 3097 
z
M 1959 3584 
Q 2709 3584 3137 3096 
Q 3566 2609 3566 1747 
Q 3566 888 3137 398 
Q 2709 -91 1959 -91 
Q 1206 -91 779 398 
Q 353 888 353 1747 
Q 353 2609 779 3096 
Q 1206 3584 1959 3584 
z
" transform="scale(0.015625)"/>
      <path id="DejaVuSans-66" d="M 2375 4863 
L 2375 4384 
L 1825 4384 
Q 1516 4384 1395 4259 
Q 1275 4134 1275 3809 
L 1275 3500 
L 2222 3500 
L 2222 3053 
L 1275 3053 
L 1275 0 
L 697 0 
L 697 3053 
L 147 3053 
L 147 3500 
L 697 3500 
L 697 3744 
Q 697 4328 969 4595 
Q 1241 4863 1831 4863 
L 2375 4863 
z
" transform="scale(0.015625)"/>
     </defs>
     <use xlink:href="#DejaVuSans-6d"/>
     <use xlink:href="#DejaVuSans-61" transform="translate(97.412109 0)"/>
     <use xlink:href="#DejaVuSans-32" transform="translate(158.691406 0)"/>
     <use xlink:href="#DejaVuSans-3a" transform="translate(222.314453 0)"/>
     <use xlink:href="#DejaVuSans-20" transform="translate(256.005859 0)"/>
     <use xlink:href="#DejaVuSans-74" transform="translate(287.792969 0)"/>
     <use xlink:href="#DejaVuSans-61" transform="translate(327.001953 0)"/>
     <use xlink:href="#DejaVuSans-6b" transform="translate(388.28125 0)"/>
     <use xlink:href="#DejaVuSans-65" transform="translate(442.566406 0)"/>
     <use xlink:href="#DejaVuSans-6f" transform="translate(504.089844 0)"/>
     <use xlink:href="#DejaVuSans-66" transform="translate(565.271484 0)"/>
     <use xlink:href="#DejaVuSans-66" transform="translate(600.476562 0)"/>
    </g>
   </g>
   <g id="text_3">
    <!-- ma3: takeoff -->
    <g transform="translate(63.351995 64.249898) scale(0.1 -0.1)">
     <defs>
      <path id="DejaVuSans-33" d="M 2597 2516 
Q 3050 2419 3304 2112 
Q 3559 1806 3559 1356 
Q 3559 666 3084 287 
Q 2609 -91 1734 -91 
Q 1441 -91 1130 -33 
Q 819 25 488 141 
L 488 750 
Q 750 597 1062 519 
Q 1375 441 1716 441 
Q 2309 441 2620 675 
Q 2931 909 2931 1356 
Q 2931 1769 2642 2001 
Q 2353 2234 1838 2234 
L 1294 2234 
L 1294 2753 
L 1863 2753 
Q 2328 2753 2575 2939 
Q 2822 3125 2822 3475 
Q 2822 3834 2567 4026 
Q 2313 4219 1838 4219 
Q 1578 4219 1281 4162 
Q 984 4106 628 3988 
L 628 4550 
Q 988 4650 1302 4700 
Q 1616 4750 1894 4750 
Q 2613 4750 3031 4423 
Q 3450 4097 3450 3541 
Q 3450 3153 3228 2886 
Q 3006 2619 2597 2516 
z
" transform="scale(0.015625)"/>
     </defs>
     <use xlink:href="#DejaVuSans-6d"/>
     <use xlink:href="#DejaVuSans-61" transform="translate(97.412109 0)"/>
     <use xlink:href="#DejaVuSans-33" transform="translate(158.691406 0)"/>
     <use xlink:href="#DejaVuSans-3a" transform="translate(222.314453 0)"/>
     <use xlink:href="#DejaVuSans-20" transform="translate(256.005859 0)"/>
     <use xlink:href="#DejaVuSans-74" transform="translate(287.792969 0)"/>
     <use xlink:href="#DejaVuSans-61" transform="translate(327.001953 0)"/>
     <use xlink:href="#DejaVuSans-6b" transform="translate(388.28125 0)"/>
     <use xlink:href="#DejaVuSans-65" transform="translate(442.566406 0)"/>
     <use xlink:href="#DejaVuSans-6f" transform="translate(504.089844 0)"/>
     <use xlink:href="#DejaVuSans-66" transform="translate(565.271484 0)"/>
     <use xlink:href="#DejaVuSans-66" transform="translate(600.476562 0)"/>
    </g>
   </g>
   <g id="text_4">
    <!-- {'title': 'MA3 approaches MA2 with no vision cone  t=93'} -->
    <g transform="translate(7.948125 9.118125) scale(0.12 -0.12)">
     <defs>
      <path id="DejaVuSans-7b" d="M 3272 -594 
L 3272 -1044 
L 3078 -1044 
Q 2300 -1044 2036 -812 
Q 1772 -581 1772 109 
L 1772 856 
Q 1772 1328 1603 1509 
Q 1434 1691 991 1691 
L 800 1691 
L 800 2138 
L 991 2138 
Q 1438 2138 1605 2317 
Q 1772 2497 1772 2963 
L 1772 3713 
Q 1772 4403 2036 4633 
Q 2300 4863 3078 4863 
L 3272 4863 
L 3272 4416 
L 3059 4416 
Q 2619 4416 2484 4278 
Q 2350 4141 2350 3700 
L 2350 2925 
Q 2350 2434 2208 2212 
Q 2066 1991 1722 1913 
Q 2069 1828 2209 1606 
Q 2350 1384 2350 897 
L 2350 122 
Q 2350 -319 2484 -456 
Q 2619 -594 3059 -594 
L 3272 -594 
z
" transform="scale(0.015625)"/>
      <path id="DejaVuSans-27" d="M 1147 4666 
L 1147 2931 
L 616 2931 
L 616 4666 
L 1147 4666 
z
" transform="scale(0.015625)"/>
      <path id="DejaVuSans-6c" d="M 603 4863 
L 1178 4863 
L 1178 0 
L 603 0 
L 603 4863 
z
" transform="scale(0.015625)"/>
      <path id="DejaVuSans-4d" d="M 628 4666 
L 1569 4666 
L 2759 1491 
L 3956 4666 
L 4897 4666 
L 4897 0 
L 4281 0 
L 4281 4097 
L 3078 897 
L 2444 897 
L 1241 4097 
L 1241 0 
L 628 0 
L 628 4666 
z
" transform="scale(0.015625)"/>
      <path id="DejaVuSans-70" d="M 1159 525 
L 1159 -1331 
L 581 -1331 
L 581 3500 
L 1159 3500 
L 1159 2969 
Q 1341 3281 1617 3432 
Q 1894 3584 2278 3584 
Q 2916 3584 3314 3078 
Q 3713 2572 3713 1747 
Q 3713 922 3314 415 
Q 2916 -91 2278 -91 
Q 1894 -91 1617 61 
Q 1341 213 1159 525 
z
M 3116 1747 
Q 3116 2381 2855 2742 
Q 2594 3103 2138 3103 
Q 1681 3103 1420 2742 
Q 1159 2381 1159 1747 
Q 1159 1113 1420 752 
Q 1681 391 2138 391 
Q 2594 391 2855 752 
Q 3116 1113 3116 1747 
z
" transform="scale(0.015625)"/>
      <path id="DejaVuSans-63" d="M 3122 3366 
L 3122 2828 
Q 2878 2963 2633 3030 
Q 2388 3097 2138 3097 
Q 1578 3097 1268 2742 
Q 959 2388 959 1747 
Q 959 1106 1268 751 
Q 1578 397 2138 397 
Q 2388 397 2633 464 
Q 2878 531 3122 666 
L 3122 134 
Q 2881 22 2623 -34 
Q 2366 -91 2075 -91 
Q 1284 -91 818 406 
Q 353 903 353 1747 
Q 353 2603 823 3093 
Q 1294 3584 2113 3584 
Q 2378 3584 2631 3529 
Q 2884 3475 3122 3366 
z
" transform="scale(0.015625)"/>
      <path id="DejaVuSans-68" d="M 3513 2113 
L 3513 0 
L 2938 0 
L 2938 2094 
Q 2938 2591 2744 2837 
Q 2550 3084 2163 3084 
Q 1697 3084 1428 2787 
Q 1159 2491 1159 1978 
L 1159 0 
L 581 0 
L 581 4863 
L 1159 4863 
L 1159 2956 
Q 1366 3272 1645 3428 
Q 1925 3584 2291 3584 
Q 2894 3584 3203 3211 
Q 3513 2838 3513 2113 
z
" transform="scale(0.015625)"/>
      <path id="DejaVuSans-73" d="M 2834 3397 
L 2834 2853 
Q 2591 2978 2328 3040 
Q 2066 3103 1784 3103 
Q 1356 3103 1142 2972 
Q 928 2841 928 2578 
Q 928 2378 1081 2264 
Q 1234 2150 1697 2047 
L 1894 2003 
Q 2506 1872 2764 1633 
Q 3022 1394 3022 966 
Q 3022 478 2636 193 
Q 2250 -91 1575 -91 
Q 1294 -91 989 -36 
Q 684 19 347 128 
L 347 722 
Q 666 556 975 473 
Q 1284 391 1588 391 
Q 1994 391 2212 530 
Q 2431 669 2431 922 
Q 2431 1156 2273 1281 
Q 2116 1406 1581 1522 
L 1381 1569 
Q 847 1681 609 1914 
Q 372 2147 372 2553 
Q 372 3047 722 3315 
Q 1072 3584 1716 3584 
Q 2034 3584 2315 3537 
Q 2597 3491 2834 3397 
z
" transform="scale(0.015625)"/>
      <path id="DejaVuSans-77" d="M 269 3500 
L 844 3500 
L 1563 769 
L 2278 3500 
L 2956 3500 
L 3675 769 
L 4391 3500 
L 4966 3500 
L 4050 0 
L 3372 0 
L 2619 2869 
L 1863 0 
L 1184 0 
L 269 3500 
z
" transform="scale(0.015625)"/>
      <path id="DejaVuSans-76" d="M 191 3500 
L 800 3500 
L 1894 563 
L 2988 3500 
L 3597 3500 
L 2284 0 
L 1503 0 
L 191 3500 
z
" transform="scale(0.015625)"/>
      <path id="DejaVuSans-3d" d="M 678 2906 
L 4684 2906 
L 4684 2381 
L 678 2381 
L 678 2906 
z
M 678 1631 
L 4684 1631 
L 4684 1100 
L 678 1100 
L 678 1631 
z
" transform="scale(0.015625)"/>
      <path id="DejaVuSans-39" d="M 703 97 
L 703 672 
Q 941 559 1184 500 
Q 1428 441 1663 441 
Q 2288 441 2617 861 
Q 2947 1281 2994 2138 
Q 2813 1869 2534 1725 
Q 2256 1581 1919 1581 
Q 1219 1581 811 2004 
Q 403 2428 403 3163 
Q 403 3881 828 4315 
Q 1253 4750 1959 4750 
Q 2769 4750 3195 4129 
Q 3622 3509 3622 2328 
Q 3622 1225 3098 567 
Q 2575 -91 1691 -91 
Q 1453 -91 1209 -44 
Q 966 3 703 97 
z
M 1959 2075 
Q 2384 2075 2632 2365 
Q 2881 2656 2881 3163 
Q 2881 3666 2632 3958 
Q 2384 4250 1959 4250 
Q 1534 4250 1286 3958 
Q 1038 3666 1038 3163 
Q 1038 2656 1286 2365 
Q 1534 2075 1959 2075 
z
" transform="scale(0.015625)"/>
      <path id="DejaVuSans-7d" d="M 800 -594 
L 1019 -594 
Q 1456 -594 1589 -459 
Q 1722 -325 1722 122 
L 1722 897 
Q 1722 1384 1862 1606 
Q 2003 1828 2350 1913 
Q 2003 1991 1862 2212 
Q 1722 2434 1722 2925 
L 1722 3700 
Q 1722 4144 1589 4280 
Q 1456 4416 1019 4416 
L 800 4416 
L 800 4863 
L 997 4863 
Q 1775 4863 2036 4633 
Q 2297 4403 2297 3713 
L 2297 2963 
Q 2297 2497 2465 2317 
Q 2634 2138 3078 2138 
L 3272 2138 
L 3272 1691 
L 3078 1691 
Q 2634 1691 2465 1509 
Q 2297 1328 2297 856 
L 2297 109 
Q 2297 -581 2036 -812 
Q 1775 -1044 997 -1044 
L 800 -1044 
L 800 -594 
z
" transform="scale(0.015625)"/>
     </defs>
     <use xlink:href="#DejaVuSans-7b"/>
     <use xlink:href="#DejaVuSans-27" transform="translate(63.623047 0)"/>
     <use xlink:href="#DejaVuSans-74" transform="translate(91.113281 0)"/>
     <use xlink:href="#DejaVuSans-69" transform="translate(130.322266 0)"/>
     <use xlink:href="#DejaVuSans-74" transform="translate(158.105469 0)"/>
     <use xlink:href="#DejaVuSans-6c" transform="translate(197.314453 0)"/>
     <use xlink:href="#DejaVuSans-65" transform="translate(225.097656 0)"/>
     <use xlink:href="#DejaVuSans-27" transform="translate(286.621094 0)"/>
     <use xlink:href="#DejaVuSans-3a" transform="translate(314.111328 0)"/>
     <use xlink:href="#DejaVuSans-20" transform="translate(347.802734 0)"/>
     <use xlink:href="#DejaVuSans-27" transform="translate(379.589844 0)"/>
     <use xlink:href="#DejaVuSans-4d" transform="translate(407.080078 0)"/>
     <use xlink:href="#DejaVuSans-41" transform="translate(493.359375 0)"/>
     <use xlink:href="#DejaVuSans-33" transform="translate(561.767578 0)"/>
     <use xlink:href="#DejaVuSans-20" transform="translate(625.390625 0)"/>
     <use xlink:href="#DejaVuSans-61" transform="translate(657.177734 0)"/>
     <use xlink:href="#DejaVuSans-70" transform="translate(718.457031 0)"/>
     <use xlink:href="#DejaVuSans-70" transform="translate(781.933594 0)"/>
     <use xlink:href="#DejaVuSans-72" transform="translate(845.410156 0)"/>
     <use xlink:href="#DejaVuSans-6f" transform="translate(884.273438 0)"/>
     <use xlink:href="#DejaVuSans-61" transform="translate(945.455078 0)"/>
     <use xlink:href="#DejaVuSans-63" transform="translate(1006.734375 0)"/>
     <use xlink:href="#DejaVuSans-68" transform="translate(1061.714844 0)"/>
     <use xlink:href="#DejaVuSans-65" transform="translate(1125.09375 0)"/>
     <use xlink:href="#DejaVuSans-73" transform="translate(1186.617188 0)"/>
     <use xlink:href="#DejaVuSans-20" transform="translate(1238.716797 0)"/>
     <use xlink:href="#DejaVuSans-4d" transform="translate(1270.503906 0)"/>
     <use xlink:href="#DejaVuSans-41" transform="translate(1356.783203 0)"/>
     <use xlink:href="#DejaVuSans-32" transform="translate(1425.191406 0)"/>
     <use xlink:href="#DejaVuSans-20" transform="translate(1488.814453 0)"/>
     <use xlink:href="#DejaVuSans-77" transform="translate(1520.601562 0)"/>
     <use xlink:href="#DejaVuSans-69" transform="translate(1602.388672 0)"/>
     <use xlink:href="#DejaVuSans-74" transform="translate(1630.171875 0)"/>
     <use xlink:href="#DejaVuSans-68" transform="translate(1669.380859 0)"/>
     <use xlink:href="#DejaVuSans-20" transform="translate(1732.759766 0)"/>
     <use xlink:href="#DejaVuSans-6e" transform="translate(1764.546875 0)"/>
     <use xlink:href="#DejaVuSans-6f" transform="translate(1827.925781 0)"/>
     <use xlink:href="#DejaVuSans-20" transform="translate(1889.107422 0)"/>
     <use xlink:href="#DejaVuSans-76" transform="translate(1920.894531 0)"/>
     <use xlink:href="#DejaVuSans-69" transform="translate(1980.074219 0)"/>
     <use xlink:href="#DejaVuSans-73" transform="translate(2007.857422 0)"/>
     <use xlink:href="#DejaVuSans-69" transform="translate(2059.957031 0)"/>
     <use xlink:href="#DejaVuSans-6f" transform="translate(2087.740234 0)"/>
     <use xlink:href="#DejaVuSans-6e" transform="translate(2148.921875 0)"/>
     <use xlink:href="#DejaVuSans-20" transform="translate(2212.300781 0)"/>
     <use xlink:href="#DejaVuSans-63" transform="translate(2244.087891 0)"/>
     <use xlink:href="#DejaVuSans-6f" transform="translate(2299.068359 0)"/>
     <use xlink:href="#DejaVuSans-6e" transform="translate(2360.25 0)"/>
     <use xlink:href="#DejaVuSans-65" transform="translate(2423.628906 0)"/>
     <use xlink:href="#DejaVuSans-20" transform="translate(2485.152344 0)"/>
     <use xlink:href="#DejaVuSans-20" transform="translate(2516.939453 0)"/>
     <use xlink:href="#DejaVuSans-74" transform="translate(2548.726562 0)"/>
     <use xlink:href="#DejaVuSans-3d" transform="translate(2587.935547 0)"/>
     <use xlink:href="#DejaVuSans-39" transform="translate(2671.724609 0)"/>
     <use xlink:href="#DejaVuSans-33" transform="translate(2735.347656 0)"/>
     <use xlink:href="#DejaVuSans-27" transform="translate(2798.970703 0)"/>
     <use xlink:href="#DejaVuSans-7d" transform="translate(2826.460938 0)"/>
    </g>
   </g>
  </g>
 </g>
 <defs>
  <clipPath id="p520617d061">
   <rect x="0" y="15.118125" width="362.7" height="194.04"/>
  </clipPath>
 </defs>
</svg>
