<svg xmlns="http://www.w3.org/2000/svg" xmlns:xlink="http://www.w3.org/1999/xlink" width="442pt" height="315pt" viewBox="0.00 0.00 442.35 315.29">
<g id="graph0" class="graph" transform="scale(1 1) rotate(0) translate(4 311.29)">
<polygon fill="white" stroke="transparent" points="-4,4 -4,-311.29 438.35,-311.29 438.35,4 -4,4"/>
<!-- control_rover -->
<g id="node1" class="node">
<title>control_rover</title>
<polygon fill="lightgrey" stroke="grey" stroke-width="2" points="91.78,-36 1.78,-36 1.78,0 91.78,0 91.78,-36"/>
<text text-anchor="middle" x="46.78" y="-14.3" font-family="Times New Roman,serif" font-size="14.00">control_rover</text>
</g>
<!-- control -->
<g id="node10" class="node">
<title>control</title>
<ellipse fill="lightgrey" stroke="grey" stroke-width="0" cx="93.25" cy="-72.2" rx="36" ry="18"/>
<text text-anchor="middle" x="93.25" y="-68.5" font-family="Times New Roman,serif" font-size="14.00">control</text>
</g>
<!-- control_rover&#45;&gt;control -->
<g id="edge1" class="edge">
<title>control_rover-&gt;control</title>
<path fill="none" stroke="black" d="M62.26,-36.05C65.45,-39.78 68.87,-43.77 72.23,-47.68"/>
<polygon fill="black" stroke="black" points="78.94,-55.51 69.02,-50.85 75.69,-51.72 72.43,-47.92 72.43,-47.92 72.43,-47.92 75.69,-51.72 75.85,-44.99 78.94,-55.51 78.94,-55.51"/>
<text text-anchor="start" x="21.24" y="-45.67" font-family="Times New Roman,serif" font-size="14.00">contains</text>
</g>
<!-- store_energy -->
<g id="node2" class="node">
<title>store_energy</title>
<polygon fill="lightgrey" stroke="grey" stroke-width="2" points="278.81,-37.03 192.81,-37.03 192.81,-1.03 278.81,-1.03 278.81,-37.03"/>
<text text-anchor="middle" x="235.81" y="-15.33" font-family="Times New Roman,serif" font-size="14.00">store_energy</text>
</g>
<!-- ee -->
<g id="node8" class="node">
<title>ee</title>
<ellipse fill="lightgrey" stroke="grey" stroke-width="0" cx="232.22" cy="-127.55" rx="27" ry="18"/>
<text text-anchor="middle" x="232.22" y="-123.85" font-family="Times New Roman,serif" font-size="14.00">ee</text>
</g>
<!-- store_energy&#45;&gt;ee -->
<g id="edge2" class="edge">
<title>store_energy-&gt;ee</title>
<path fill="none" stroke="black" d="M235.2,-37.44C234.64,-54.38 233.8,-79.76 233.15,-99.27"/>
<polygon fill="black" stroke="black" points="232.82,-109.41 228.65,-99.27 232.98,-104.42 233.15,-99.42 233.15,-99.42 233.15,-99.42 232.98,-104.42 237.64,-99.57 232.82,-109.41 232.82,-109.41"/>
<text text-anchor="start" x="188.17" y="-72.15" font-family="Times New Roman,serif" font-size="14.00">contains</text>
</g>
<!-- store_energy&#45;&gt;control -->
<g id="edge3" class="edge">
<title>store_energy-&gt;control</title>
<path fill="none" stroke="black" d="M192.65,-35.13C173.25,-42.36 150.54,-50.84 131.73,-57.85"/>
<polygon fill="black" stroke="black" points="122.28,-61.37 130.08,-53.66 126.97,-59.63 131.65,-57.88 131.65,-57.88 131.65,-57.88 126.97,-59.63 133.22,-62.1 122.28,-61.37 122.28,-61.37"/>
<text text-anchor="start" x="116.19" y="-35.29" font-family="Times New Roman,serif" font-size="14.00">contains</text>
</g>
<!-- move_rover -->
<g id="node3" class="node">
<title>move_rover</title>
<polygon fill="lightgrey" stroke="grey" stroke-width="2" points="180.86,-160.65 97.86,-160.65 97.86,-124.65 180.86,-124.65 180.86,-160.65"/>
<text text-anchor="middle" x="139.36" y="-138.95" font-family="Times New Roman,serif" font-size="14.00">move_rover</text>
</g>
<!-- ground -->
<g id="node6" class="node">
<title>ground</title>
<ellipse fill="lightgrey" stroke="grey" stroke-width="0" cx="35.75" cy="-214.44" rx="36" ry="18"/>
<text text-anchor="middle" x="35.75" y="-210.74" font-family="Times New Roman,serif" font-size="14.00">ground</text>
</g>
<!-- move_rover&#45;&gt;ground -->
<g id="edge4" class="edge">
<title>move_rover-&gt;ground</title>
<path fill="none" stroke="black" d="M113.22,-160.77C98.68,-170.84 80.54,-183.4 65.47,-193.84"/>
<polygon fill="black" stroke="black" points="57,-199.71 62.66,-190.32 61.11,-196.86 65.22,-194.02 65.22,-194.02 65.22,-194.02 61.11,-196.86 67.79,-197.72 57,-199.71 57,-199.71"/>
<text text-anchor="start" x="43.34" y="-181.11" font-family="Times New Roman,serif" font-size="14.00">contains</text>
</g>
<!-- force -->
<g id="node7" class="node">
<title>force</title>
<ellipse fill="lightgrey" stroke="grey" stroke-width="0" cx="117.3" cy="-276.12" rx="28.7" ry="18"/>
<text text-anchor="middle" x="117.3" y="-272.42" font-family="Times New Roman,serif" font-size="14.00">force</text>
</g>
<!-- move_rover&#45;&gt;force -->
<g id="edge7" class="edge">
<title>move_rover-&gt;force</title>
<path fill="none" stroke="black" d="M136.39,-160.65C132.69,-183.04 126.32,-221.52 121.97,-247.86"/>
<polygon fill="black" stroke="black" points="120.3,-257.98 117.49,-247.38 121.11,-253.05 121.93,-248.11 121.93,-248.11 121.93,-248.11 121.11,-253.05 126.37,-248.85 120.3,-257.98 120.3,-257.98"/>
<text text-anchor="start" x="83.18" y="-208.05" font-family="Times New Roman,serif" font-size="14.00">contains</text>
</g>
<!-- move_rover&#45;&gt;ee -->
<g id="edge5" class="edge">
<title>move_rover-&gt;ee</title>
<path fill="none" stroke="black" d="M180.9,-135.9C185.95,-135.08 191.07,-134.24 196.03,-133.44"/>
<polygon fill="black" stroke="black" points="205.9,-131.83 196.76,-137.88 200.97,-132.63 196.03,-133.44 196.03,-133.44 196.03,-133.44 200.97,-132.63 195.31,-128.99 205.9,-131.83 205.9,-131.83"/>
<text text-anchor="start" x="153.97" y="-123.47" font-family="Times New Roman,serif" font-size="14.00">contains</text>
</g>
<!-- move_rover&#45;&gt;control -->
<g id="edge6" class="edge">
<title>move_rover-&gt;control</title>
<path fill="none" stroke="black" d="M127.49,-124.51C122.2,-116.44 115.89,-106.78 110.13,-97.98"/>
<polygon fill="black" stroke="black" points="104.61,-89.55 113.85,-95.46 107.35,-93.74 110.09,-97.92 110.09,-97.92 110.09,-97.92 107.35,-93.74 106.32,-100.39 104.61,-89.55 104.61,-89.55"/>
<text text-anchor="start" x="72.81" y="-100.05" font-family="Times New Roman,serif" font-size="14.00">contains</text>
</g>
<!-- view_ground -->
<g id="node4" class="node">
<title>view_ground</title>
<polygon fill="lightgrey" stroke="grey" stroke-width="2" points="274.86,-231.83 186.86,-231.83 186.86,-195.83 274.86,-195.83 274.86,-231.83"/>
<text text-anchor="middle" x="230.86" y="-210.13" font-family="Times New Roman,serif" font-size="14.00">view_ground</text>
</g>
<!-- view_ground&#45;&gt;ground -->
<g id="edge8" class="edge">
<title>view_ground-&gt;ground</title>
<path fill="none" stroke="black" d="M186.59,-213.97C155.37,-214.07 113.66,-214.2 82.01,-214.3"/>
<polygon fill="black" stroke="black" points="71.7,-214.33 81.68,-209.8 76.7,-214.31 81.7,-214.3 81.7,-214.3 81.7,-214.3 76.7,-214.31 81.71,-218.8 71.7,-214.33 71.7,-214.33"/>
<text text-anchor="start" x="134.3" y="-217.93" font-family="Times New Roman,serif" font-size="14.00">contains</text>
</g>
<!-- view_ground&#45;&gt;force -->
<g id="edge11" class="edge">
<title>view_ground-&gt;force</title>
<path fill="none" stroke="black" d="M198.02,-231.85C182.28,-240.48 163.55,-250.75 148.09,-259.23"/>
<polygon fill="black" stroke="black" points="138.95,-264.25 145.55,-255.49 143.33,-261.84 147.72,-259.44 147.72,-259.44 147.72,-259.44 143.33,-261.84 149.88,-263.38 138.95,-264.25 138.95,-264.25"/>
<text text-anchor="start" x="127.05" y="-234.34" font-family="Times New Roman,serif" font-size="14.00">contains</text>
</g>
<!-- view_ground&#45;&gt;ee -->
<g id="edge9" class="edge">
<title>view_ground-&gt;ee</title>
<path fill="none" stroke="black" d="M231.15,-195.54C231.33,-184.1 231.56,-169.12 231.77,-156.14"/>
<polygon fill="black" stroke="black" points="231.93,-145.82 236.27,-155.89 231.85,-150.82 231.77,-155.82 231.77,-155.82 231.77,-155.82 231.85,-150.82 227.27,-155.75 231.93,-145.82 231.93,-145.82"/>
<text text-anchor="start" x="185.46" y="-179.64" font-family="Times New Roman,serif" font-size="14.00">contains</text>
</g>
<!-- video -->
<g id="node9" class="node">
<title>video</title>
<ellipse fill="lightgrey" stroke="grey" stroke-width="0" cx="301.82" cy="-289.29" rx="30.59" ry="18"/>
<text text-anchor="middle" x="301.82" y="-285.59" font-family="Times New Roman,serif" font-size="14.00">video</text>
</g>
<!-- view_ground&#45;&gt;video -->
<g id="edge10" class="edge">
<title>view_ground-&gt;video</title>
<path fill="none" stroke="black" d="M248.04,-232.1C257.55,-242.21 269.47,-254.88 279.67,-265.73"/>
<polygon fill="black" stroke="black" points="286.73,-273.24 276.6,-269.04 283.31,-269.6 279.88,-265.96 279.88,-265.96 279.88,-265.96 283.31,-269.6 283.16,-262.88 286.73,-273.24 286.73,-273.24"/>
<text text-anchor="start" x="217.85" y="-252.72" font-family="Times New Roman,serif" font-size="14.00">contains</text>
</g>
<!-- communicate -->
<g id="node5" class="node">
<title>communicate</title>
<polygon fill="lightgrey" stroke="grey" stroke-width="2" points="373.72,-171.47 282.72,-171.47 282.72,-135.47 373.72,-135.47 373.72,-171.47"/>
<text text-anchor="middle" x="328.22" y="-149.77" font-family="Times New Roman,serif" font-size="14.00">communicate</text>
</g>
<!-- communicate&#45;&gt;ee -->
<g id="edge13" class="edge">
<title>communicate-&gt;ee</title>
<path fill="none" stroke="black" d="M282.47,-141.12C277.36,-139.74 272.23,-138.35 267.28,-137.02"/>
<polygon fill="black" stroke="black" points="257.5,-134.38 268.32,-132.64 262.32,-135.68 267.15,-136.98 267.15,-136.98 267.15,-136.98 262.32,-135.68 265.98,-141.33 257.5,-134.38 257.5,-134.38"/>
<text text-anchor="start" x="263.38" y="-127.87" font-family="Times New Roman,serif" font-size="14.00">contains</text>
</g>
<!-- comms -->
<g id="node11" class="node">
<title>comms</title>
<ellipse fill="lightgrey" stroke="grey" stroke-width="0" cx="397.3" cy="-98.27" rx="37.09" ry="18"/>
<text text-anchor="middle" x="397.3" y="-94.57" font-family="Times New Roman,serif" font-size="14.00">comms</text>
</g>
<!-- communicate&#45;&gt;comms -->
<g id="edge12" class="edge">
<title>communicate-&gt;comms</title>
<path fill="none" stroke="black" d="M350.84,-135.4C356.79,-130.64 363.28,-125.45 369.47,-120.51"/>
<polygon fill="black" stroke="black" points="377.65,-113.97 372.65,-123.73 373.74,-117.09 369.84,-120.22 369.84,-120.22 369.84,-120.22 373.74,-117.09 367.03,-116.7 377.65,-113.97 377.65,-113.97"/>
<text text-anchor="start" x="314.16" y="-116.75" font-family="Times New Roman,serif" font-size="14.00">contains</text>
</g>
</g>
</svg>