<svg width="3900" height="1827" xmlns="http://www.w3.org/2000/svg" xmlns:xlink="http://www.w3.org/1999/xlink" xml:space="preserve" overflow="hidden"><g transform="translate(-87 -26)"><rect x="233" y="1680" width="572" height="125" fill="#F8CBAD"/><rect x="222" y="1576" width="842" height="126" fill="#FA7676"/><rect x="233" y="1359" width="1480" height="240" fill="#F1D9F1"/><rect x="1857.5" y="699.5" width="1802" height="121" stroke="#DAE3F3" stroke-width="4.58333" stroke-miterlimit="8" fill="#D0CECE"/><rect x="1857.5" y="493.5" width="956" height="134" stroke="#DAE3F3" stroke-width="4.58333" stroke-miterlimit="8" fill="#FFE699"/><rect x="359.5" y="438.5" width="312" height="205" stroke="#DAE3F3" stroke-width="4.58333" stroke-miterlimit="8" fill="#B4C7E7"/><rect x="653.5" y="438.5" width="236" height="205" stroke="#DAE3F3" stroke-width="4.58333" stroke-miterlimit="8" fill="#F8CBAD"/><rect x="857.5" y="438.5" width="530" height="205" stroke="#DAE3F3" stroke-width="4.58333" stroke-miterlimit="8" fill="#C5E0B4"/><rect x="276" y="345" width="1408" height="337" stroke="#4472C4" stroke-width="10.3125" stroke-miterlimit="8" fill="none"/><text font-family="Calibri,Calibri_MSFontService,sans-serif" font-weight="400" font-size="73" transform="matrix(1 0 0 1 308.957 431)">class </text><text font-family="Calibri,Calibri_MSFontService,sans-serif" font-weight="400" font-size="73" transform="matrix(1 0 0 1 465.363 431)">StateName</text><text font-family="Calibri,Calibri_MSFontService,sans-serif" font-weight="400" font-size="73" transform="matrix(1 0 0 1 795.294 431)">(State):</text><text font-family="Calibri,Calibri_MSFontService,sans-serif" font-weight="400" font-size="73" transform="matrix(1 0 0 1 375.415 519)">varname1: float = 1.0</text><text font-family="Calibri,Calibri_MSFontService,sans-serif" font-weight="400" font-size="73" transform="matrix(1 0 0 1 375.415 607)">varname2: str = “</text><text font-family="Calibri,Calibri_MSFontService,sans-serif" font-weight="400" font-size="73" transform="matrix(1 0 0 1 885.815 607)">default_value</text><text font-family="Calibri,Calibri_MSFontService,sans-serif" font-weight="400" font-size="73" transform="matrix(1 0 0 1 1291.14 607)">”</text><rect x="1814" y="319" width="1997" height="465" stroke="#4472C4" stroke-width="10.3125" stroke-miterlimit="8" fill="none"/><text font-family="Calibri,Calibri_MSFontService,sans-serif" font-weight="400" font-size="73" transform="matrix(1 0 0 1 1847.03 405)">class </text><text font-family="Calibri,Calibri_MSFontService,sans-serif" font-weight="400" font-size="73" transform="matrix(1 0 0 1 2003.44 405)">ParameterName</text><text font-family="Calibri,Calibri_MSFontService,sans-serif" font-weight="400" font-size="73" transform="matrix(1 0 0 1 2492.46 405)">(Parameter):</text><text font-family="Calibri,Calibri_MSFontService,sans-serif" font-weight="400" font-size="73" transform="matrix(1 0 0 1 1913.49 493)">varname1: float = 1.0</text><text font-family="Calibri,Calibri_MSFontService,sans-serif" font-weight="400" font-size="73" transform="matrix(1 0 0 1 1913.49 581)">varname1_range = (0.0, 10.0)</text><text font-family="Calibri,Calibri_MSFontService,sans-serif" font-weight="400" font-size="73" transform="matrix(1 0 0 1 1913.49 669)">varname2 : str = “</text><text font-family="Calibri,Calibri_MSFontService,sans-serif" font-weight="400" font-size="73" transform="matrix(1 0 0 1 2440.51 669)">default_value</text><text font-family="Calibri,Calibri_MSFontService,sans-serif" font-weight="400" font-size="73" transform="matrix(1 0 0 1 2845.83 669)">”</text><text font-family="Calibri,Calibri_MSFontService,sans-serif" font-weight="400" font-size="73" transform="matrix(1 0 0 1 1913.49 757)">varname2_set = (“</text><text font-family="Calibri,Calibri_MSFontService,sans-serif" font-weight="400" font-size="73" transform="matrix(1 0 0 1 2458.13 757)">default_value</text><text font-family="Calibri,Calibri_MSFontService,sans-serif" font-weight="400" font-size="73" transform="matrix(1 0 0 1 2863.46 757)">”, “</text><text font-family="Calibri,Calibri_MSFontService,sans-serif" font-weight="400" font-size="73" transform="matrix(1 0 0 1 2950.7 757)">other_possible_value</text><text font-family="Calibri,Calibri_MSFontService,sans-serif" font-weight="400" font-size="73" transform="matrix(1 0 0 1 3590.14 757)">”)</text><rect x="158" y="1329" width="1997" height="464" stroke="#4472C4" stroke-width="10.3125" stroke-miterlimit="8" fill="none"/><text font-family="Calibri,Calibri_MSFontService,sans-serif" font-weight="400" font-size="73" transform="matrix(1 0 0 1 191.099 1414)">class </text><text font-family="Calibri,Calibri_MSFontService,sans-serif" font-weight="400" font-size="73" transform="matrix(1 0 0 1 347.506 1414)">ModeName</text><text font-family="Calibri,Calibri_MSFontService,sans-serif" font-weight="400" font-size="73" transform="matrix(1 0 0 1 701.568 1414)">(Mode):</text><text font-family="Calibri,Calibri_MSFontService,sans-serif" font-weight="400" font-size="73" transform="matrix(1 0 0 1 257.558 1502)">f</text><text font-family="Calibri,Calibri_MSFontService,sans-serif" font-weight="400" font-size="73" transform="matrix(1 0 0 1 278.458 1502)">ault_faultname1 = </text><text font-family="Calibri,Calibri_MSFontService,sans-serif" font-weight="400" font-size="73" transform="matrix(1 0 0 1 840.764 1502)">(0.001</text><text font-family="Calibri,Calibri_MSFontService,sans-serif" font-weight="400" font-size="73" transform="matrix(1 0 0 1 1030.4 1502)">, 200.0</text><text font-family="Calibri,Calibri_MSFontService,sans-serif" font-weight="400" font-size="73" transform="matrix(1 0 0 1 1232.64 1502)">),</text><text font-family="Calibri,Calibri_MSFontService,sans-serif" font-weight="400" font-size="73" transform="matrix(1 0 0 1 257.558 1590)">fault_faultname2 = (0.00001, 100.0, {‘on’: 1.0})</text><text font-family="Calibri,Calibri_MSFontService,sans-serif" font-weight="400" font-size="73" transform="matrix(1 0 0 1 257.558 1678)">opermodes</text><text font-family="Calibri,Calibri_MSFontService,sans-serif" font-weight="400" font-size="73" transform="matrix(1 0 0 1 615.058 1678)">= </text><text font-family="Calibri,Calibri_MSFontService,sans-serif" font-weight="400" font-size="73" transform="matrix(1 0 0 1 668.339 1678)">(</text><text font-family="Calibri,Calibri_MSFontService,sans-serif" font-weight="400" font-size="73" transform="matrix(1 0 0 1 690.683 1678)">“</text><text font-family="Calibri,Calibri_MSFontService,sans-serif" font-weight="400" font-size="73" transform="matrix(1 0 0 1 719.122 1678)">off”, “on</text><text font-family="Calibri,Calibri_MSFontService,sans-serif" font-weight="400" font-size="73" transform="matrix(1 0 0 1 970.541 1678)">”</text><text font-family="Calibri,Calibri_MSFontService,sans-serif" font-weight="400" font-size="73" transform="matrix(1 0 0 1 1001.48 1678)">)</text><text font-family="Calibri,Calibri_MSFontService,sans-serif" font-weight="400" font-size="73" transform="matrix(1 0 0 1 257.558 1766)">mode: str = “off”</text><text font-family="Calibri,Calibri_MSFontService,sans-serif" font-weight="700" font-size="83" transform="matrix(1 0 0 1 137.318 175)">State classes are used to represent variables </text><text font-family="Calibri,Calibri_MSFontService,sans-serif" font-weight="700" font-size="83" transform="matrix(1 0 0 1 137.318 274)">(called fields) that change over time </text><text font-family="Calibri,Calibri_MSFontService,sans-serif" font-weight="700" font-size="83" transform="matrix(1 0 0 1 1939.79 128)">Parameter classes are used to represent variables that </text><text font-family="Calibri,Calibri_MSFontService,sans-serif" font-weight="700" font-size="83" transform="matrix(1 0 0 1 1939.79 227)">don’t change over time, with similar syntax to States </text><text font-family="Calibri,Calibri_MSFontService,sans-serif" font-weight="700" font-size="83" transform="matrix(1 0 0 1 189.243 1187)">Mode classes are used to represent modes (faults and </text><text font-family="Calibri,Calibri_MSFontService,sans-serif" font-weight="700" font-size="83" transform="matrix(1 0 0 1 189.243 1286)">operational modes) that could occur in the system</text><rect x="158.5" y="734.5" width="465" height="189" stroke="#DAE3F3" stroke-width="4.58333" stroke-miterlimit="8" fill="#B4C7E7"/><text font-family="Calibri,Calibri_MSFontService,sans-serif" font-weight="400" font-size="64" transform="matrix(1 0 0 1 246.978 850)">Field name</text><rect x="653.5" y="736.5" width="465" height="189" stroke="#DAE3F3" stroke-width="4.58333" stroke-miterlimit="8" fill="#F8CBAD"/><text font-family="Calibri,Calibri_MSFontService,sans-serif" font-weight="400" font-size="64" transform="matrix(1 0 0 1 722.169 813)">Field type or </text><text font-family="Calibri,Calibri_MSFontService,sans-serif" font-weight="400" font-size="64" transform="matrix(1 0 0 1 823.85 890)">class</text><rect x="1134.5" y="734.5" width="465" height="189" stroke="#DAE3F3" stroke-width="4.58333" stroke-miterlimit="8" fill="#C5E0B4"/><text font-family="Calibri,Calibri_MSFontService,sans-serif" font-weight="400" font-size="64" transform="matrix(1 0 0 1 1191 812)">Default initial </text><text font-family="Calibri,Calibri_MSFontService,sans-serif" font-weight="400" font-size="64" transform="matrix(1 0 0 1 1296.53 889)">value</text><path d="M6.875-2.39628e-05 6.87524 69.1661-6.87476 69.1661-6.875 2.39628e-05ZM20.6252 62.291 0.000360892 103.541-20.6248 62.2912Z" fill="#4472C4" transform="matrix(1 0 0 -1 515 739.541)"/><path d="M6.875-2.1121e-05 6.87526 83.0976-6.87474 83.0977-6.875 2.1121e-05ZM20.6252 76.2226 0.000360892 117.473-20.6248 76.2227Z" fill="#ED7D31" transform="matrix(1 0 0 -1 771 739.472)"/><path d="M6.875-2.39628e-05 6.87524 69.1661-6.87476 69.1661-6.875 2.39628e-05ZM20.6252 62.291 0.000360892 103.541-20.6248 62.2912Z" fill="#70AD47" transform="matrix(1 0 0 -1 1213 739.541)"/><rect x="2975.5" y="457.5" width="1004" height="188" stroke="#DAE3F3" stroke-width="4.58333" stroke-miterlimit="8" fill="#FFE699"/><text font-family="Calibri,Calibri_MSFontService,sans-serif" font-weight="400" font-size="64" transform="matrix(1 0 0 1 3020.99 534)">varname1_range defines allowable </text><text font-family="Calibri,Calibri_MSFontService,sans-serif" font-weight="400" font-size="64" transform="matrix(1 0 0 1 3058.6 611)">range for the variable varname1</text><path d="M1.47919e-05-6.875 133.361-6.87471 133.361 6.87529-1.47919e-05 6.875ZM126.486-20.6247 167.736 0.000360892 126.486 20.6253Z" fill="#FFE699" transform="matrix(-1 0 0 1 2975.74 551)"/><rect x="1882.5" y="895.5" width="1752" height="121" stroke="#DAE3F3" stroke-width="4.58333" stroke-miterlimit="8" fill="#D0CECE"/><text font-family="Calibri,Calibri_MSFontService,sans-serif" font-weight="400" font-size="64" transform="matrix(1 0 0 1 1948.27 977)">varname2_set defines allowable values for the field varname2</text><path d="M6.875-3.31151e-05 6.8752 40.5495-6.8748 40.5495-6.875 3.31151e-05ZM20.6252 33.6744 0.000360892 74.9245-20.6248 33.6746Z" fill="#BFBFBF" transform="matrix(1 0 0 -1 2758 894.924)"/><rect x="2094" y="1354" width="1768" height="240" fill="#F1D9F1"/><text font-family="Calibri,Calibri_MSFontService,sans-serif" font-weight="400" font-size="64" transform="matrix(1 0 0 1 2187.5 1457)">Dictionary of fault names and their optional properties (rate, </text><text font-family="Calibri,Calibri_MSFontService,sans-serif" font-weight="400" font-size="64" transform="matrix(1 0 0 1 2303.32 1534)">repair cost, phases they could occur and their rates)</text><path d="M0.0697064-6.87465 345.893-3.36812 345.754 10.3812-0.0697064 6.87465ZM339.158-17.1871 380.197 3.85505 338.74 24.0608Z" fill="#E890E8" transform="matrix(-1 0 0 1 2093.2 1475)"/><rect x="2094" y="1588" width="1415" height="125" fill="#FA7676"/><text font-family="Calibri,Calibri_MSFontService,sans-serif" font-weight="400" font-size="64" transform="matrix(1 0 0 1 2185.56 1672)">List of potential operational modes (if multiple)</text><path d="M0.0232431-6.87496 995.218-3.51037 995.171 10.2396-0.0232431 6.87496ZM988.39-17.2835 1029.57 3.48081 988.25 23.9662Z" fill="#F91900" transform="matrix(-1 0 0 1 2093.57 1650)"/><rect x="2094" y="1713" width="1287" height="126" fill="#F8CBAD"/><text font-family="Calibri,Calibri_MSFontService,sans-serif" font-weight="400" font-size="64" transform="matrix(1 0 0 1 2134.01 1797)">Default mode (if multiple modes/not nominal)</text><path d="M2093.78 1783.3 851.284 1767.32 851.46 1753.57 2093.95 1769.55ZM857.981 1781.15 817 1760 858.512 1739.91Z" fill="#ED7D31"/></g></svg>