<svg width="4295" height="1827" xmlns="http://www.w3.org/2000/svg" xmlns:xlink="http://www.w3.org/1999/xlink" xml:space="preserve" overflow="hidden"><g transform="translate(2 -42)"><rect x="1454" y="122" width="832" height="166" fill="#FA7676"/><rect x="1380" y="1042" width="2320" height="791" fill="#DAE3F3"/><rect x="1457" y="861" width="1313" height="176" fill="#D0CECE"/><rect x="1457" y="780" width="713" height="80.0001" fill="#F8CBAD"/><rect x="1457" y="677" width="939" height="97.0003" fill="#C5E0B4"/><rect x="1457" y="510" width="1525" height="177" fill="#FFC000"/><rect x="1457" y="241" width="939" height="269" fill="#B4C7E7"/><rect x="0" y="643" width="1256" height="394" fill="#F8CBAD"/><text font-family="Calibri,Calibri_MSFontService,sans-serif" font-weight="400" font-size="64" transform="matrix(1 0 0 1 113.181 708)">Specifies </text><text font-family="Calibri,Calibri_MSFontService,sans-serif" font-weight="700" font-size="64" transform="matrix(1 0 0 1 356.098 708)">what should be tracked</text><text font-family="Calibri,Calibri_MSFontService,sans-serif" font-weight="400" font-size="64" transform="matrix(1 0 0 1 992.265 708)">in the </text><text font-family="Calibri,Calibri_MSFontService,sans-serif" font-weight="400" font-size="64" transform="matrix(1 0 0 1 38.9771 785)">FxnBlock</text><text font-family="Calibri,Calibri_MSFontService,sans-serif" font-weight="400" font-size="64" transform="matrix(1 0 0 1 284.185 785)">history (</text><text font-family="Calibri,Calibri_MSFontService,sans-serif" font-weight="400" font-size="64" transform="matrix(1 0 0 1 498.021 785)">fxnname.h</text><text font-family="Calibri,Calibri_MSFontService,sans-serif" font-weight="400" font-size="64" transform="matrix(1 0 0 1 777.031 785)">) by default. May </text><text font-family="Calibri,Calibri_MSFontService,sans-serif" font-weight="400" font-size="64" transform="matrix(1 0 0 1 47.7771 862)">be a </text><text font-family="Calibri,Calibri_MSFontService,sans-serif" font-weight="400" font-size="64" transform="matrix(1 0 0 1 173.246 862)">dict</text><text font-family="Calibri,Calibri_MSFontService,sans-serif" font-weight="400" font-size="64" transform="matrix(1 0 0 1 284.965 862)">({</text><text font-family="Calibri,Calibri_MSFontService,sans-serif" font-weight="400" font-size="64" transform="matrix(1 0 0 1 324.496 862)">role:value</text><text font-family="Calibri,Calibri_MSFontService,sans-serif" font-weight="400" font-size="64" transform="matrix(1 0 0 1 583.775 862)">}), list ([role1, role2]), or </text><text font-family="Calibri,Calibri_MSFontService,sans-serif" font-weight="400" font-size="64" transform="matrix(1 0 0 1 60.45 939)">string (“</text><text font-family="Calibri,Calibri_MSFontService,sans-serif" font-weight="400" font-size="64" transform="matrix(1 0 0 1 267.296 939)">all”,”none</text><text font-family="Calibri,Calibri_MSFontService,sans-serif" font-weight="400" font-size="64" transform="matrix(1 0 0 1 519.402 939)">”, </text><text font-family="Calibri,Calibri_MSFontService,sans-serif" font-weight="400" font-size="64" transform="matrix(1 0 0 1 570.483 939)">etc</text><text font-family="Calibri,Calibri_MSFontService,sans-serif" font-weight="400" font-size="64" transform="matrix(1 0 0 1 650.142 939)">). Overwritten by the </text><text font-family="Calibri,Calibri_MSFontService,sans-serif" font-weight="400" font-size="64" transform="matrix(1 0 0 1 56.875 1016)">track parameter during model instantiation.</text><rect x="0" y="234" width="1256" height="422" fill="#FFC000"/><text font-family="Calibri,Calibri_MSFontService,sans-serif" font-weight="400" font-size="64" transform="matrix(1 0 0 1 67.9553 313)">flow_XXX</text><text font-family="Calibri,Calibri_MSFontService,sans-serif" font-weight="400" font-size="64" transform="matrix(1 0 0 1 327.807 313)">is used to append a </text><text font-family="Calibri,Calibri_MSFontService,sans-serif" font-weight="700" font-size="64" transform="matrix(1 0 0 1 848.543 313)">flow </text><text font-family="Calibri,Calibri_MSFontService,sans-serif" font-weight="400" font-size="64" transform="matrix(1 0 0 1 980.772 313)">of given </text><text font-family="Calibri,Calibri_MSFontService,sans-serif" font-weight="400" font-size="64" transform="matrix(1 0 0 1 47.7199 390)">type that is named XXX to the function class. </text><text font-family="Calibri,Calibri_MSFontService,sans-serif" font-weight="400" font-size="64" transform="matrix(1 0 0 1 82.3011 467)">If the flow(s) has a different name outside </text><text font-family="Calibri,Calibri_MSFontService,sans-serif" font-weight="400" font-size="64" transform="matrix(1 0 0 1 56.6574 544)">the function (optional), </text><text font-family="Calibri,Calibri_MSFontService,sans-serif" font-weight="400" font-size="64" transform="matrix(1 0 0 1 677.997 544)">flownames</text><text font-family="Calibri,Calibri_MSFontService,sans-serif" font-weight="400" font-size="64" transform="matrix(1 0 0 1 979.099 544)">matches </text><text font-family="Calibri,Calibri_MSFontService,sans-serif" font-weight="400" font-size="64" transform="matrix(1 0 0 1 113.239 621)">the external name to the internal name</text><rect x="2627" y="274" width="1661" height="227" fill="#B4C7E7"/><text font-family="Calibri,Calibri_MSFontService,sans-serif" font-weight="400" font-size="64" transform="matrix(1 0 0 1 2708.17 332)">Specifies which classes play specific </text><text font-family="Calibri,Calibri_MSFontService,sans-serif" font-weight="400" font-size="64" transform="matrix(1 0 0 1 3645.99 332)">FxnBlock</text><text font-family="Calibri,Calibri_MSFontService,sans-serif" font-weight="700" font-size="64" transform="matrix(1 0 0 1 3891.2 332)">roles </text><text font-family="Calibri,Calibri_MSFontService,sans-serif" font-weight="400" font-size="64" transform="matrix(1 0 0 1 4035.94 332)">(e.g., s </text><text font-family="Calibri,Calibri_MSFontService,sans-serif" font-weight="400" font-size="64" transform="matrix(1 0 0 1 2703.98 409)">corresponds to the state role, m corresponds to the mode </text><text font-family="Calibri,Calibri_MSFontService,sans-serif" font-weight="400" font-size="64" transform="matrix(1 0 0 1 3341.38 486)">role, </text><text font-family="Calibri,Calibri_MSFontService,sans-serif" font-weight="400" font-size="64" transform="matrix(1 0 0 1 3473.84 486)">etc</text><text font-family="Calibri,Calibri_MSFontService,sans-serif" font-weight="400" font-size="64" transform="matrix(1 0 0 1 3553.5 486)">)</text><rect x="2974" y="835" width="1314" height="313" fill="#D0CECE"/><text font-family="Calibri,Calibri_MSFontService,sans-serif" font-weight="700" font-size="64" transform="matrix(1 0 0 1 3042.97 897)">Optional</text><text font-family="Calibri,Calibri_MSFontService,sans-serif" font-weight="400" font-size="64" transform="matrix(1 0 0 1 3289.65 897)">method to call to set up </text><text font-family="Calibri,Calibri_MSFontService,sans-serif" font-weight="400" font-size="64" transform="matrix(1 0 0 1 3924.85 897)">FxnBlock</text><text font-family="Calibri,Calibri_MSFontService,sans-serif" font-weight="400" font-size="64" transform="matrix(1 0 0 1 4170.06 897)">in </text><text font-family="Calibri,Calibri_MSFontService,sans-serif" font-weight="400" font-size="64" transform="matrix(1 0 0 1 3048.03 974)">ways not already defined by role </text><text font-family="Calibri,Calibri_MSFontService,sans-serif" font-weight="400" font-size="64" transform="matrix(1 0 0 1 3909.59 974)">initalization</text><text font-family="Calibri,Calibri_MSFontService,sans-serif" font-weight="400" font-size="64" transform="matrix(1 0 0 1 3086.12 1051)">(e.g., attaching local </text><text font-family="Calibri,Calibri_MSFontService,sans-serif" font-weight="400" font-size="64" transform="matrix(1 0 0 1 3623.68 1051)">MultiFlows</text><text font-family="Calibri,Calibri_MSFontService,sans-serif" font-weight="400" font-size="64" transform="matrix(1 0 0 1 3926.5 1051)">or setting </text><text font-family="Calibri,Calibri_MSFontService,sans-serif" font-weight="400" font-size="64" transform="matrix(1 0 0 1 3113.76 1128)">initial values for States from Parameter)</text><path d="M2626.76 394.431 2429.99 384.584 2430.68 370.852 2627.45 380.698ZM2436.17 398.661 2396 376 2438.23 357.462Z" fill="#4472C4"/><path d="M1244 592.125 1442.04 592.125 1442.04 605.875 1244 605.875ZM1435.16 578.375 1476.41 599.001 1435.16 619.625Z" fill="#ED7D31"/><path d="M1256 813.125 1441.83 813.125 1441.83 826.875 1256 826.875ZM1434.95 799.375 1476.2 820 1434.95 840.625Z" fill="#C55A11"/><path d="M3.75019e-06-6.875 627.228-6.87466 627.228 6.87534-3.75019e-06 6.875ZM620.353-20.6247 661.603 0.000360892 620.353 20.6253Z" fill="#70AD47" transform="matrix(-1 0 0 1 3057.6 723)"/><path d="M1.21865e-05-6.875 169.222-6.8747 169.222 6.8753-1.21865e-05 6.875ZM162.347-20.6247 203.597 0.000360892 162.347 20.6253Z" fill="#7F7F7F" transform="matrix(-1 0 0 1 2973.6 966)"/><rect x="0.499836" y="1037.5" width="1256" height="262" stroke="#DAE3F3" stroke-width="4.58333" stroke-miterlimit="8" fill="#B4C7E7"/><text font-family="Calibri,Calibri_MSFontService,sans-serif" font-weight="400" font-size="64" transform="matrix(1 0 0 1 77.5458 1112)">These methods define the </text><text font-family="Calibri,Calibri_MSFontService,sans-serif" font-weight="700" font-size="64" transform="matrix(1 0 0 1 773.869 1112)">behavior</text><text font-family="Calibri,Calibri_MSFontService,sans-serif" font-weight="400" font-size="64" transform="matrix(1 0 0 1 1023.32 1112)">of the </text><text font-family="Calibri,Calibri_MSFontService,sans-serif" font-weight="400" font-size="64" transform="matrix(1 0 0 1 38.1521 1189)">FxnBlock</text><text font-family="Calibri,Calibri_MSFontService,sans-serif" font-weight="400" font-size="64" transform="matrix(1 0 0 1 283.36 1189)">and thus simulate at each time</text><text font-family="Calibri,Calibri_MSFontService,sans-serif" font-weight="400" font-size="64" transform="matrix(1 0 0 1 1087 1189)">-</text><text font-family="Calibri,Calibri_MSFontService,sans-serif" font-weight="400" font-size="64" transform="matrix(1 0 0 1 1106.48 1189)">step </text><text font-family="Calibri,Calibri_MSFontService,sans-serif" font-weight="400" font-size="64" transform="matrix(1 0 0 1 398.035 1266)">of the simulation. </text><path d="M1256 1247.12 1348.35 1247.13 1348.35 1260.88 1256 1260.88ZM1341.48 1233.38 1382.73 1254 1341.48 1274.63Z" fill="#4472C4"/><rect x="0" y="1313" width="1256" height="259" fill="#E2F0D9"/><text font-family="Calibri,Calibri_MSFontService,sans-serif" font-weight="400" font-size="64" transform="matrix(1 0 0 1 77.1108 1387)">These methods define </text><text font-family="Calibri,Calibri_MSFontService,sans-serif" font-weight="400" font-size="64" transform="matrix(1 0 0 1 671.455 1387)">FxnBlock</text><text font-family="Calibri,Calibri_MSFontService,sans-serif" font-weight="700" font-size="64" transform="matrix(1 0 0 1 916.663 1387)">indicators</text><text font-family="Calibri,Calibri_MSFontService,sans-serif" font-weight="400" font-size="64" transform="matrix(1 0 0 1 59.2358 1464)">and are called/tracked during simulation (in </text><text font-family="Calibri,Calibri_MSFontService,sans-serif" font-weight="400" font-size="64" transform="matrix(1 0 0 1 488.259 1541)">fxnname.i</text><text font-family="Calibri,Calibri_MSFontService,sans-serif" font-weight="400" font-size="64" transform="matrix(1 0 0 1 748.363 1541)">)</text><rect x="3060" y="568" width="1228" height="267" fill="#C5E0B4"/><text font-family="Calibri,Calibri_MSFontService,sans-serif" font-weight="400" font-size="64" transform="matrix(1 0 0 1 3112.75 646)">Default </text><text font-family="Calibri,Calibri_MSFontService,sans-serif" font-weight="700" font-size="64" transform="matrix(1 0 0 1 3317.74 646)">keyword arguments for </text><text font-family="Calibri,Calibri_MSFontService,sans-serif" font-weight="700" font-size="64" transform="matrix(1 0 0 1 3950.93 646)">SimParam</text><text font-family="Calibri,Calibri_MSFontService,sans-serif" font-weight="400" font-size="64" transform="matrix(1 0 0 1 4219.24 646)">. </text><text font-family="Calibri,Calibri_MSFontService,sans-serif" font-weight="400" font-size="64" transform="matrix(1 0 0 1 3108.68 723)">Only necessary when the </text><text font-family="Calibri,Calibri_MSFontService,sans-serif" font-weight="400" font-size="64" transform="matrix(1 0 0 1 3777.59 723)">functionblock</text><text font-family="Calibri,Calibri_MSFontService,sans-serif" font-weight="400" font-size="64" transform="matrix(1 0 0 1 4148.84 723)">will </text><text font-family="Calibri,Calibri_MSFontService,sans-serif" font-weight="400" font-size="64" transform="matrix(1 0 0 1 3342.77 800)">be simulated individually.</text><path d="M1256 1462.12 1360.5 1462.13 1360.5 1475.88 1256 1475.87ZM1353.62 1448.38 1394.87 1469 1353.62 1489.63Z" fill="#70AD47"/><rect x="0" y="1569" width="1254" height="240" fill="#F1D9F1"/><text font-family="Calibri,Calibri_MSFontService,sans-serif" font-weight="400" font-size="64" transform="matrix(1 0 0 1 147.821 1672)">This method defines the Result to be </text><text font-family="Calibri,Calibri_MSFontService,sans-serif" font-weight="400" font-size="64" transform="matrix(1 0 0 1 129.144 1749)">returned </text><text font-family="Calibri,Calibri_MSFontService,sans-serif" font-weight="700" font-size="64" transform="matrix(1 0 0 1 374.306 1749)">when simulated individually</text><path d="M1256 1695.12 1360.5 1695.13 1360.5 1708.88 1256 1708.87ZM1353.62 1681.38 1394.87 1702 1353.62 1722.63Z" fill="#E890E8"/><rect x="2582" y="107" width="1304" height="166" fill="#FA7676"/><text font-family="Calibri,Calibri_MSFontService,sans-serif" font-weight="400" font-size="64" transform="matrix(1 0 0 1 2652.88 211)">Tuple of flows must be specified in __slots__</text><path d="M2582.06 196.832 2318.26 192.445 2318.48 178.697 2582.29 183.083ZM2324.9 206.308 2284 185 2325.59 165.064Z" fill="#FA7676"/><rect x="1378" y="1391" width="2321" height="278" fill="#E2F0D9"/><rect x="1377" y="1650" width="2307" height="183" fill="#F1D9F1"/><rect x="1377" y="48.0001" width="2323" height="1785" stroke="#4472C4" stroke-width="10.3125" stroke-miterlimit="8" fill="none"/><path d="M1543 1119.42 2627.94 1119.42 2627.94 1208.42 1543 1208.42Z" fill="#00FFFF" fill-rule="evenodd"/><path d="M1543 1295.42 2720.87 1295.42 2720.87 1384.42 1543 1384.42Z" fill="#00FFFF" fill-rule="evenodd"/><path d="M1543 1471.42 2387.25 1471.42 2387.25 1560.42 1543 1560.42Z" fill="#00FF00" fill-rule="evenodd"/><path d="M2387.25 1471.42 2698.29 1471.42 2698.29 1560.42 2387.25 1560.42Z" fill="#00FF00" fill-rule="evenodd"/><path d="M2698.29 1471.42 3602.61 1471.42 3602.61 1560.42 2698.29 1560.42Z" fill="#00FF00" fill-rule="evenodd"/><path d="M1410.08 1559.42 2999.49 1559.42 2999.49 1648.42 1410.08 1648.42Z" fill="#00FF00" fill-rule="evenodd"/><path d="M1410.08 1735.42 1543 1735.42 1543 1824.42 1410.08 1824.42Z" fill="#E997E9" fill-rule="evenodd"/><path d="M1543 1735.42 3133.34 1735.42 3133.34 1824.42 1543 1824.42Z" fill="#E997E9" fill-rule="evenodd"/><text font-family="Calibri,Calibri_MSFontService,sans-serif" font-weight="400" font-size="73" transform="matrix(1 0 0 1 1410.08 133)">class </text><text font-family="Calibri,Calibri_MSFontService,sans-serif" font-weight="400" font-size="73" transform="matrix(1 0 0 1 1566.49 133)">FunctionName</text><text font-family="Calibri,Calibri_MSFontService,sans-serif" font-weight="400" font-size="73" transform="matrix(1 0 0 1 2004.19 133)">(Function):</text><text font-family="Calibri,Calibri_MSFontService,sans-serif" font-weight="400" font-size="73" transform="matrix(1 0 0 1 1476.54 221)">__slots__ =(‘flowname1’,)</text><text font-family="Calibri,Calibri_MSFontService,sans-serif" font-weight="400" font-size="73" transform="matrix(1 0 0 1 1476.54 309)">container_s</text><text font-family="Calibri,Calibri_MSFontService,sans-serif" font-weight="400" font-size="73" transform="matrix(1 0 0 1 1841.58 309)">= </text><text font-family="Calibri,Calibri_MSFontService,sans-serif" font-weight="400" font-size="73" transform="matrix(1 0 0 1 1894.86 309)">FunctionState</text><text font-family="Calibri,Calibri_MSFontService,sans-serif" font-weight="400" font-size="73" transform="matrix(1 0 0 1 1476.54 397)">container_m</text><text font-family="Calibri,Calibri_MSFontService,sans-serif" font-weight="400" font-size="73" transform="matrix(1 0 0 1 1871.37 397)">= </text><text font-family="Calibri,Calibri_MSFontService,sans-serif" font-weight="400" font-size="73" transform="matrix(1 0 0 1 1924.65 397)">FunctionMode</text><text font-family="Calibri,Calibri_MSFontService,sans-serif" font-weight="400" font-size="73" transform="matrix(1 0 0 1 1476.54 485)">container_t</text><text font-family="Calibri,Calibri_MSFontService,sans-serif" font-weight="400" font-size="73" transform="matrix(1 0 0 1 1837.57 485)">= </text><text font-family="Calibri,Calibri_MSFontService,sans-serif" font-weight="400" font-size="73" transform="matrix(1 0 0 1 1890.85 485)">FunctionTime</text><text font-family="Calibri,Calibri_MSFontService,sans-serif" font-weight="400" font-size="73" transform="matrix(1 0 0 1 1476.54 573)">flow_flowname1 = FlowClass1</text><text font-family="Calibri,Calibri_MSFontService,sans-serif" font-weight="400" font-size="73" transform="matrix(1 0 0 1 1476.54 661)">flownames</text><text font-family="Calibri,Calibri_MSFontService,sans-serif" font-weight="400" font-size="73" transform="matrix(1 0 0 1 1820.56 661)">= {“outsideflowname”:”flowname1”}</text><text font-family="Calibri,Calibri_MSFontService,sans-serif" font-weight="400" font-size="73" transform="matrix(1 0 0 1 1476.54 749)">default_sp</text><text font-family="Calibri,Calibri_MSFontService,sans-serif" font-weight="400" font-size="73" transform="matrix(1 0 0 1 1806.74 749)">= {‘</text><text font-family="Calibri,Calibri_MSFontService,sans-serif" font-weight="400" font-size="73" transform="matrix(1 0 0 1 1898.16 749)">end_time</text><text font-family="Calibri,Calibri_MSFontService,sans-serif" font-weight="400" font-size="73" transform="matrix(1 0 0 1 2184.62 749)">’: </text><text font-family="Calibri,Calibri_MSFontService,sans-serif" font-weight="400" font-size="73" transform="matrix(1 0 0 1 2239.04 749)">100</text><text font-family="Calibri,Calibri_MSFontService,sans-serif" font-weight="400" font-size="73" transform="matrix(1 0 0 1 2350.76 749)">}</text><text font-family="Calibri,Calibri_MSFontService,sans-serif" font-weight="400" font-size="73" transform="matrix(1 0 0 1 1476.54 837)">default_track</text><text font-family="Calibri,Calibri_MSFontService,sans-serif" font-weight="400" font-size="73" transform="matrix(1 0 0 1 1887.73 837)">= [‘</text><text font-family="Calibri,Calibri_MSFontService,sans-serif" font-weight="400" font-size="73" transform="matrix(1 0 0 1 1980.02 837)">s’,’m</text><text font-family="Calibri,Calibri_MSFontService,sans-serif" font-weight="400" font-size="73" transform="matrix(1 0 0 1 2108.4 837)">’]</text><text font-family="Calibri,Calibri_MSFontService,sans-serif" font-weight="400" font-size="73" transform="matrix(1 0 0 1 1476.54 925)">def </text><text font-family="Calibri,Calibri_MSFontService,sans-serif" font-weight="400" font-size="73" transform="matrix(1 0 0 1 1589.91 925)">init_block</text><text font-family="Calibri,Calibri_MSFontService,sans-serif" font-weight="400" font-size="73" transform="matrix(1 0 0 1 1880.95 925)">(self, **</text><text font-family="Calibri,Calibri_MSFontService,sans-serif" font-weight="400" font-size="73" transform="matrix(1 0 0 1 2111.33 925)">kwargs</text><text font-family="Calibri,Calibri_MSFontService,sans-serif" font-weight="400" font-size="73" transform="matrix(1 0 0 1 2319.18 925)">):</text><text font-family="Calibri,Calibri_MSFontService,sans-serif" font-weight="400" font-size="73" transform="matrix(1 0 0 1 1543 1013)">&lt;e.g., </text><text font-family="Calibri,Calibri_MSFontService,sans-serif" font-weight="400" font-size="73" transform="matrix(1 0 0 1 1723.1 1013)">self.s.x</text><text font-family="Calibri,Calibri_MSFontService,sans-serif" font-weight="400" font-size="73" transform="matrix(1 0 0 1 1935.93 1013)">= 2.0&gt;</text><text font-family="Calibri,Calibri_MSFontService,sans-serif" font-weight="400" font-size="73" transform="matrix(1 0 0 1 1459.92 1101)">def </text><text font-family="Calibri,Calibri_MSFontService,sans-serif" font-weight="400" font-size="73" transform="matrix(1 0 0 1 1573.29 1101)">static_behavior</text><text font-family="Calibri,Calibri_MSFontService,sans-serif" font-weight="400" font-size="73" transform="matrix(1 0 0 1 2029.72 1101)">(self, time):</text><text font-family="Calibri,Calibri_MSFontService,sans-serif" font-weight="400" font-size="73" transform="matrix(1 0 0 1 1543 1189)">Runs only in static propagation steps</text><text font-family="Calibri,Calibri_MSFontService,sans-serif" font-weight="400" font-size="73" transform="matrix(1 0 0 1 1476.54 1277)">def </text><text font-family="Calibri,Calibri_MSFontService,sans-serif" font-weight="400" font-size="73" transform="matrix(1 0 0 1 1589.91 1277)">dynamic_behavior</text><text font-family="Calibri,Calibri_MSFontService,sans-serif" font-weight="400" font-size="73" transform="matrix(1 0 0 1 2139.27 1277)">(self, time):</text><text font-family="Calibri,Calibri_MSFontService,sans-serif" font-weight="400" font-size="73" transform="matrix(1 0 0 1 1543 1365)">Runs only in dynamic propagation steps</text><text font-family="Calibri,Calibri_MSFontService,sans-serif" font-weight="400" font-size="73" transform="matrix(1 0 0 1 1410.08 1453)">def </text><text font-family="Calibri,Calibri_MSFontService,sans-serif" font-weight="400" font-size="73" transform="matrix(1 0 0 1 1523.45 1453)">indicate_XXX</text><text font-family="Calibri,Calibri_MSFontService,sans-serif" font-weight="400" font-size="73" transform="matrix(1 0 0 1 1908.66 1453)">(self, time):</text><text font-family="Calibri,Calibri_MSFontService,sans-serif" font-weight="400" font-size="73" transform="matrix(1 0 0 1 1543 1541)">Conditional statement (e.g., </text><text font-family="Calibri,Calibri_MSFontService,sans-serif" font-weight="400" font-size="73" transform="matrix(1 0 0 1 2387.25 1541)">self.s.state</text><text font-family="Calibri,Calibri_MSFontService,sans-serif" font-weight="400" font-size="73" transform="matrix(1 0 0 1 2698.29 1541)">&gt;threshold) which is logged in </text><text font-family="Calibri,Calibri_MSFontService,sans-serif" font-weight="400" font-size="73" transform="matrix(1 0 0 1 1410.08 1629)">the history and may be used to terminate simulations</text><text font-family="Calibri,Calibri_MSFontService,sans-serif" font-weight="400" font-size="73" transform="matrix(1 0 0 1 1476.54 1717)">def </text><text font-family="Calibri,Calibri_MSFontService,sans-serif" font-weight="400" font-size="73" transform="matrix(1 0 0 1 1589.91 1717)">find_classification</text><text font-family="Calibri,Calibri_MSFontService,sans-serif" font-weight="400" font-size="73" transform="matrix(1 0 0 1 2120.84 1717)">(self, time):</text><text font-family="Calibri,Calibri_MSFontService,sans-serif" font-weight="400" font-size="73" transform="matrix(1 0 0 1 1410.08 1805)">        </text><text font-family="Calibri,Calibri_MSFontService,sans-serif" font-weight="400" font-size="73" transform="matrix(1 0 0 1 1543 1805)">Returns a Result dictionary (calculated at completion)</text></g></svg>