<svg xmlns="http://www.w3.org/2000/svg" xmlns:xlink="http://www.w3.org/1999/xlink" width="546pt" height="620pt" viewBox="0.00 0.00 545.85 620.14">
<g id="graph0" class="graph" transform="scale(1 1) rotate(0) translate(4 616.14)">
<polygon fill="white" stroke="none" points="-4,4 -4,-616.14 541.85,-616.14 541.85,4 -4,4"/>
<!-- drone.flows.force_st -->
<g id="node1" class="node">
<title>drone.flows.force_st</title>
<ellipse fill="lightgrey" stroke="grey" stroke-width="0" cx="161.59" cy="-355.75" rx="41.58" ry="18"/>
<text text-anchor="middle" x="161.59" y="-350.33" font-family="Times New Roman,serif" font-size="14.00">force_st</text>
</g>
<!-- drone.flows.force_lin -->
<g id="node2" class="node">
<title>drone.flows.force_lin</title>
<ellipse fill="lightgrey" stroke="grey" stroke-width="0" cx="71.81" cy="-18" rx="43.58" ry="18"/>
<text text-anchor="middle" x="71.81" y="-12.57" font-family="Times New Roman,serif" font-size="14.00">force_lin</text>
</g>
<!-- drone.flows.ee_1 -->
<g id="node3" class="node">
<title>drone.flows.ee_1</title>
<ellipse fill="lightgrey" stroke="grey" stroke-width="0" cx="251.38" cy="-243.17" rx="28.11" ry="18"/>
<text text-anchor="middle" x="251.38" y="-237.74" font-family="Times New Roman,serif" font-size="14.00">ee_1</text>
</g>
<!-- drone.flows.ee_mot -->
<g id="node4" class="node">
<title>drone.flows.ee_mot</title>
<ellipse fill="lightgrey" stroke="grey" stroke-width="0" cx="283.42" cy="-102.78" rx="38.09" ry="18"/>
<text text-anchor="middle" x="283.42" y="-97.35" font-family="Times New Roman,serif" font-size="14.00">ee_mot</text>
</g>
<!-- drone.flows.ee_ctl -->
<g id="node5" class="node">
<title>drone.flows.ee_ctl</title>
<ellipse fill="lightgrey" stroke="grey" stroke-width="0" cx="381.11" cy="-180.69" rx="32.6" ry="18"/>
<text text-anchor="middle" x="381.11" y="-175.26" font-family="Times New Roman,serif" font-size="14.00">ee_ctl</text>
</g>
<!-- drone.flows.ctl -->
<g id="node6" class="node">
<title>drone.flows.ctl</title>
<ellipse fill="lightgrey" stroke="grey" stroke-width="0" cx="510.85" cy="-368.13" rx="27" ry="18"/>
<text text-anchor="middle" x="510.85" y="-362.7" font-family="Times New Roman,serif" font-size="14.00">ctl</text>
</g>
<!-- drone.flows.dofs -->
<g id="node7" class="node">
<title>drone.flows.dofs</title>
<ellipse fill="lightgrey" stroke="grey" stroke-width="0" cx="315.46" cy="-523.95" rx="27.61" ry="18"/>
<text text-anchor="middle" x="315.46" y="-518.52" font-family="Times New Roman,serif" font-size="14.00">dofs</text>
</g>
<!-- drone.flows.des_traj -->
<g id="node8" class="node">
<title>drone.flows.des_traj</title>
<ellipse fill="lightgrey" stroke="grey" stroke-width="0" cx="71.81" cy="-468.33" rx="40.09" ry="18"/>
<text text-anchor="middle" x="71.81" y="-462.91" font-family="Times New Roman,serif" font-size="14.00">des_traj</text>
</g>
<!-- drone.fxns.store_ee -->
<g id="node9" class="node">
<title>drone.fxns.store_ee</title>
<polygon fill="lightgrey" stroke="grey" stroke-width="2" points="238.11,-317.46 174.86,-317.46 174.86,-281.46 238.11,-281.46 238.11,-317.46"/>
<text text-anchor="middle" x="206.48" y="-294.03" font-family="Times New Roman,serif" font-size="14.00">store_ee</text>
</g>
<!-- drone.fxns.store_ee&#45;&gt;drone.flows.force_st -->
<g id="edge2" class="edge">
<title>drone.fxns.store_ee-&gt;drone.flows.force_st</title>
<path fill="none" stroke="black" d="M183.54,-328.23C180.66,-331.84 177.79,-335.45 175.11,-338.79"/>
<polygon fill="none" stroke="black" points="183.49,-328.29 184.11,-321.11 190.97,-318.91 190.36,-326.09 183.49,-328.29"/>
<text text-anchor="middle" x="158.7" y="-320.21" font-family="Times New Roman,serif" font-size="14.00">&lt;flow&gt;</text>
</g>
<!-- drone.fxns.store_ee&#45;&gt;drone.flows.ee_1 -->
<g id="edge1" class="edge">
<title>drone.fxns.store_ee-&gt;drone.flows.ee_1</title>
<path fill="none" stroke="black" d="M229.34,-270.8C232.58,-266.74 235.8,-262.7 238.74,-259.01"/>
<polygon fill="none" stroke="black" points="229.48,-270.63 228.86,-277.81 221.99,-280.01 222.61,-272.83 229.48,-270.63"/>
<text text-anchor="middle" x="254.67" y="-267.35" font-family="Times New Roman,serif" font-size="14.00">&lt;flow&gt;</text>
</g>
<!-- drone.fxns.dist_ee -->
<g id="node10" class="node">
<title>drone.fxns.dist_ee</title>
<polygon fill="lightgrey" stroke="grey" stroke-width="2" points="324.14,-204.88 268.39,-204.88 268.39,-168.88 324.14,-168.88 324.14,-204.88"/>
<text text-anchor="middle" x="296.27" y="-181.45" font-family="Times New Roman,serif" font-size="14.00">dist_ee</text>
</g>
<!-- drone.fxns.dist_ee&#45;&gt;drone.flows.force_st -->
<g id="edge6" class="edge">
<title>drone.fxns.dist_ee-&gt;drone.flows.force_st</title>
<path fill="none" stroke="black" d="M273.21,-215.79C244.92,-251.26 197.9,-310.23 174.98,-338.97"/>
<polygon fill="none" stroke="black" points="273.3,-215.68 273.91,-208.5 280.78,-206.3 280.16,-213.48 273.3,-215.68"/>
<text text-anchor="middle" x="203.47" y="-264.08" font-family="Times New Roman,serif" font-size="14.00">&lt;flow&gt;</text>
</g>
<!-- drone.fxns.dist_ee&#45;&gt;drone.flows.ee_1 -->
<g id="edge3" class="edge">
<title>drone.fxns.dist_ee-&gt;drone.flows.ee_1</title>
<path fill="none" stroke="black" d="M273.41,-215.54C270.17,-219.59 266.95,-223.64 264.01,-227.33"/>
<polygon fill="none" stroke="black" points="273.27,-215.71 273.89,-208.52 280.76,-206.32 280.14,-213.51 273.27,-215.71"/>
<text text-anchor="middle" x="248.08" y="-208.13" font-family="Times New Roman,serif" font-size="14.00">&lt;flow&gt;</text>
</g>
<!-- drone.fxns.dist_ee&#45;&gt;drone.flows.ee_mot -->
<g id="edge4" class="edge">
<title>drone.fxns.dist_ee-&gt;drone.flows.ee_mot</title>
<path fill="none" stroke="black" d="M291.49,-155.59C289.68,-143.75 287.68,-130.69 286.13,-120.53"/>
<polygon fill="none" stroke="black" points="291.47,-155.46 296.33,-160.79 293.28,-167.32 288.42,-161.99 291.47,-155.46"/>
<text text-anchor="middle" x="268.18" y="-140.51" font-family="Times New Roman,serif" font-size="14.00">&lt;flow&gt;</text>
</g>
<!-- drone.fxns.dist_ee&#45;&gt;drone.flows.ee_ctl -->
<g id="edge5" class="edge">
<title>drone.fxns.dist_ee-&gt;drone.flows.ee_ctl</title>
<path fill="none" stroke="black" d="M337.65,-183.86C341.43,-183.58 345.23,-183.31 348.92,-183.04"/>
<polygon fill="none" stroke="black" points="337.86,-183.84 332.17,-188.27 325.89,-184.72 331.58,-180.29 337.86,-183.84"/>
<text text-anchor="middle" x="322.66" y="-170.15" font-family="Times New Roman,serif" font-size="14.00">&lt;flow&gt;</text>
</g>
<!-- drone.fxns.affect_dof -->
<g id="node11" class="node">
<title>drone.fxns.affect_dof</title>
<polygon fill="lightgrey" stroke="grey" stroke-width="2" points="336.69,-50.58 262.19,-50.58 262.19,-14.58 336.69,-14.58 336.69,-50.58"/>
<text text-anchor="middle" x="299.44" y="-27.16" font-family="Times New Roman,serif" font-size="14.00">affect_dof</text>
</g>
<!-- drone.fxns.affect_dof&#45;&gt;drone.flows.force_lin -->
<g id="edge10" class="edge">
<title>drone.fxns.affect_dof-&gt;drone.flows.force_lin</title>
<path fill="none" stroke="black" d="M248.32,-29.31C208.08,-26.73 152.64,-23.18 114.69,-20.75"/>
<polygon fill="none" stroke="black" points="248.46,-29.32 254.71,-25.71 260.44,-30.08 254.2,-33.69 248.46,-29.32"/>
<text text-anchor="middle" x="160.88" y="-27.48" font-family="Times New Roman,serif" font-size="14.00">&lt;flow&gt;</text>
</g>
<!-- drone.fxns.affect_dof&#45;&gt;drone.flows.ee_mot -->
<g id="edge7" class="edge">
<title>drone.fxns.affect_dof-&gt;drone.flows.ee_mot</title>
<path fill="none" stroke="black" d="M292.3,-63.86C290.66,-71.06 288.96,-78.48 287.5,-84.88"/>
<polygon fill="none" stroke="black" points="292.28,-63.97 289.71,-57.23 294.95,-52.27 297.51,-59.01 292.28,-63.97"/>
<text text-anchor="middle" x="269.28" y="-61.07" font-family="Times New Roman,serif" font-size="14.00">&lt;flow&gt;</text>
</g>
<!-- drone.fxns.affect_dof&#45;&gt;drone.flows.ctl -->
<g id="edge8" class="edge">
<title>drone.fxns.affect_dof-&gt;drone.flows.ctl</title>
<path fill="none" stroke="black" d="M317.93,-61.92C361,-130.29 466.94,-298.42 500.49,-351.67"/>
<polygon fill="none" stroke="black" points="317.98,-62.02 311.4,-59.07 311.59,-51.86 318.17,-54.81 317.98,-62.02"/>
<text text-anchor="middle" x="388.58" y="-209.25" font-family="Times New Roman,serif" font-size="14.00">&lt;flow&gt;</text>
</g>
<!-- drone.fxns.affect_dof&#45;&gt;drone.flows.dofs -->
<g id="edge9" class="edge">
<title>drone.fxns.affect_dof-&gt;drone.flows.dofs</title>
<path fill="none" stroke="black" d="M300.48,-64.58C303.56,-158.83 312.51,-433.35 314.88,-506.09"/>
<polygon fill="none" stroke="black" points="300.48,-64.44 296.28,-58.57 300.09,-52.44 304.28,-58.31 300.48,-64.44"/>
<text text-anchor="middle" x="287.06" y="-287.78" font-family="Times New Roman,serif" font-size="14.00">&lt;flow&gt;</text>
</g>
<!-- drone.fxns.ctl_dof -->
<g id="node12" class="node">
<title>drone.fxns.ctl_dof</title>
<polygon fill="lightgrey" stroke="grey" stroke-width="2" points="327.69,-471.75 271.19,-471.75 271.19,-435.75 327.69,-435.75 327.69,-471.75"/>
<text text-anchor="middle" x="299.44" y="-448.33" font-family="Times New Roman,serif" font-size="14.00">ctl_dof</text>
</g>
<!-- drone.fxns.ctl_dof&#45;&gt;drone.flows.force_st -->
<g id="edge15" class="edge">
<title>drone.fxns.ctl_dof-&gt;drone.flows.force_st</title>
<path fill="none" stroke="black" d="M262.5,-427.49C237.12,-409.45 204.31,-386.12 183.11,-371.05"/>
<polygon fill="none" stroke="black" points="262.35,-427.38 269.55,-427.6 272.13,-434.33 264.92,-434.12 262.35,-427.38"/>
<text text-anchor="middle" x="202.18" y="-401.72" font-family="Times New Roman,serif" font-size="14.00">&lt;flow&gt;</text>
</g>
<!-- drone.fxns.ctl_dof&#45;&gt;drone.flows.ee_ctl -->
<g id="edge11" class="edge">
<title>drone.fxns.ctl_dof-&gt;drone.flows.ee_ctl</title>
<path fill="none" stroke="black" d="M308.71,-422.76C325.93,-365.19 362.34,-243.47 375.89,-198.16"/>
<polygon fill="none" stroke="black" points="308.75,-422.62 310.86,-429.52 305.31,-434.12 303.2,-427.22 308.75,-422.62"/>
<text text-anchor="middle" x="321.67" y="-312.91" font-family="Times New Roman,serif" font-size="14.00">&lt;flow&gt;</text>
</g>
<!-- drone.fxns.ctl_dof&#45;&gt;drone.flows.ctl -->
<g id="edge13" class="edge">
<title>drone.fxns.ctl_dof-&gt;drone.flows.ctl</title>
<path fill="none" stroke="black" d="M340.39,-437.17C384.4,-419.34 452.78,-391.64 488.07,-377.35"/>
<polygon fill="none" stroke="black" points="340.35,-437.18 336.29,-443.14 329.23,-441.69 333.29,-435.73 340.35,-437.18"/>
<text text-anchor="middle" x="393.6" y="-409.71" font-family="Times New Roman,serif" font-size="14.00">&lt;flow&gt;</text>
</g>
<!-- drone.fxns.ctl_dof&#45;&gt;drone.flows.dofs -->
<g id="edge14" class="edge">
<title>drone.fxns.ctl_dof-&gt;drone.flows.dofs</title>
<path fill="none" stroke="black" d="M306.62,-485.23C308.29,-492.55 310.01,-500.08 311.49,-506.53"/>
<polygon fill="none" stroke="black" points="306.6,-485.14 301.37,-480.18 303.93,-473.44 309.17,-478.4 306.6,-485.14"/>
<text text-anchor="middle" x="288.43" y="-482.58" font-family="Times New Roman,serif" font-size="14.00">&lt;flow&gt;</text>
</g>
<!-- drone.fxns.ctl_dof&#45;&gt;drone.flows.des_traj -->
<g id="edge12" class="edge">
<title>drone.fxns.ctl_dof-&gt;drone.flows.des_traj</title>
<path fill="none" stroke="black" d="M257.64,-456.43C215.95,-459.1 152.4,-463.17 111.48,-465.79"/>
<polygon fill="none" stroke="black" points="257.74,-456.42 263.47,-452.05 269.71,-455.66 263.98,-460.03 257.74,-456.42"/>
<text text-anchor="middle" x="163.93" y="-463.56" font-family="Times New Roman,serif" font-size="14.00">&lt;flow&gt;</text>
</g>
<!-- drone.fxns.plan_path -->
<g id="node13" class="node">
<title>drone.fxns.plan_path</title>
<polygon fill="lightgrey" stroke="grey" stroke-width="2" points="70.75,-261.17 0,-261.17 0,-225.17 70.75,-225.17 70.75,-261.17"/>
<text text-anchor="middle" x="35.38" y="-237.74" font-family="Times New Roman,serif" font-size="14.00">plan_path</text>
</g>
<!-- drone.fxns.plan_path&#45;&gt;drone.flows.force_st -->
<g id="edge18" class="edge">
<title>drone.fxns.plan_path-&gt;drone.flows.force_st</title>
<path fill="none" stroke="black" d="M65.99,-270.48C90.31,-292.17 123.48,-321.75 143.67,-339.76"/>
<polygon fill="none" stroke="black" points="66.13,-270.6 58.99,-269.59 57.17,-262.61 64.31,-263.62 66.13,-270.6"/>
<text text-anchor="middle" x="84.21" y="-307.57" font-family="Times New Roman,serif" font-size="14.00">&lt;flow&gt;</text>
</g>
<!-- drone.fxns.plan_path&#45;&gt;drone.flows.ee_ctl -->
<g id="edge16" class="edge">
<title>drone.fxns.plan_path-&gt;drone.flows.ee_ctl</title>
<path fill="none" stroke="black" d="M84.5,-234.29C156.9,-221.21 290.16,-197.12 350.27,-186.26"/>
<polygon fill="none" stroke="black" points="84.42,-234.3 79.22,-239.31 72.61,-236.44 77.8,-231.44 84.42,-234.3"/>
<text text-anchor="middle" x="196.76" y="-212.73" font-family="Times New Roman,serif" font-size="14.00">&lt;flow&gt;</text>
</g>
<!-- drone.fxns.plan_path&#45;&gt;drone.flows.dofs -->
<g id="edge19" class="edge">
<title>drone.fxns.plan_path-&gt;drone.flows.dofs</title>
<path fill="none" stroke="black" d="M63.23,-271.09C121.76,-329.77 255.79,-464.13 300.58,-509.03"/>
<polygon fill="none" stroke="black" points="63.3,-271.16 56.23,-269.74 54.82,-262.66 61.89,-264.09 63.3,-271.16"/>
<text text-anchor="middle" x="161.28" y="-392.51" font-family="Times New Roman,serif" font-size="14.00">&lt;flow&gt;</text>
</g>
<!-- drone.fxns.plan_path&#45;&gt;drone.flows.des_traj -->
<g id="edge17" class="edge">
<title>drone.fxns.plan_path-&gt;drone.flows.des_traj</title>
<path fill="none" stroke="black" d="M40.46,-274.6C48.23,-322.62 62.8,-412.65 68.95,-450.67"/>
<polygon fill="none" stroke="black" points="40.48,-274.71 35.57,-269.43 38.56,-262.87 43.47,-268.15 40.48,-274.71"/>
<text text-anchor="middle" x="34.08" y="-365.09" font-family="Times New Roman,serif" font-size="14.00">&lt;flow&gt;</text>
</g>
<!-- drone.fxns.hold_payload -->
<g id="node14" class="node">
<title>drone.fxns.hold_payload</title>
<polygon fill="lightgrey" stroke="grey" stroke-width="2" points="162.95,-92.29 70.45,-92.29 70.45,-56.29 162.95,-56.29 162.95,-92.29"/>
<text text-anchor="middle" x="116.7" y="-68.87" font-family="Times New Roman,serif" font-size="14.00">hold_payload</text>
</g>
<!-- drone.fxns.hold_payload&#45;&gt;drone.flows.force_st -->
<g id="edge22" class="edge">
<title>drone.fxns.hold_payload-&gt;drone.flows.force_st</title>
<path fill="none" stroke="black" d="M121.72,-105.75C131.17,-165.02 151.33,-291.42 158.76,-338.02"/>
<polygon fill="none" stroke="black" points="121.75,-105.94 116.85,-100.64 119.86,-94.09 124.75,-99.38 121.75,-105.94"/>
<text text-anchor="middle" x="119.62" y="-224.34" font-family="Times New Roman,serif" font-size="14.00">&lt;flow&gt;</text>
</g>
<!-- drone.fxns.hold_payload&#45;&gt;drone.flows.force_lin -->
<g id="edge21" class="edge">
<title>drone.fxns.hold_payload-&gt;drone.flows.force_lin</title>
<path fill="none" stroke="black" d="M93.76,-45.52C90.87,-41.91 88,-38.31 85.33,-34.96"/>
<polygon fill="none" stroke="black" points="93.71,-45.46 100.58,-47.66 101.19,-54.84 94.32,-52.65 93.71,-45.46"/>
<text text-anchor="middle" x="68.92" y="-42.69" font-family="Times New Roman,serif" font-size="14.00">&lt;flow&gt;</text>
</g>
<!-- drone.fxns.hold_payload&#45;&gt;drone.flows.dofs -->
<g id="edge20" class="edge">
<title>drone.fxns.hold_payload-&gt;drone.flows.dofs</title>
<path fill="none" stroke="black" d="M130.25,-104.94C168.82,-192.21 278.38,-440.06 308,-507.07"/>
<polygon fill="none" stroke="black" points="130.2,-104.84 124.12,-100.97 125.35,-93.86 131.44,-97.74 130.2,-104.84"/>
<text text-anchor="middle" x="239.75" y="-308.45" font-family="Times New Roman,serif" font-size="14.00">&lt;flow&gt;</text>
</g>
<!-- drone.fxns.view_env -->
<g id="node15" class="node">
<title>drone.fxns.view_env</title>
<polygon fill="lightgrey" stroke="grey" stroke-width="2" points="365.73,-612.14 297.23,-612.14 297.23,-576.14 365.73,-576.14 365.73,-612.14"/>
<text text-anchor="middle" x="331.48" y="-588.72" font-family="Times New Roman,serif" font-size="14.00">view_env</text>
</g>
<!-- drone.fxns.view_env&#45;&gt;drone.flows.dofs -->
<g id="edge23" class="edge">
<title>drone.fxns.view_env-&gt;drone.flows.dofs</title>
<path fill="none" stroke="black" d="M324.3,-562.66C322.63,-555.35 320.91,-547.82 319.44,-541.36"/>
<polygon fill="none" stroke="black" points="324.32,-562.75 329.55,-567.71 326.99,-574.45 321.75,-569.49 324.32,-562.75"/>
<text text-anchor="middle" x="301.24" y="-554.46" font-family="Times New Roman,serif" font-size="14.00">&lt;flow&gt;</text>
</g>
</g>
</svg>