<svg width="4261" height="1755" xmlns="http://www.w3.org/2000/svg" xmlns:xlink="http://www.w3.org/1999/xlink" xml:space="preserve" overflow="hidden"><g transform="translate(-68 -232)"><rect x="1417" y="1238" width="2432" height="425" fill="#E2F0D9"/><rect x="1408" y="1678" width="2418" height="304" fill="#F1D9F1"/><rect x="1417" y="731" width="2432" height="533" fill="#D0CECE"/><rect x="1501" y="637" width="948" height="74.9999" fill="#F8CBAD"/><rect x="1501" y="534" width="1167" height="97.0003" fill="#C5E0B4"/><rect x="1501" y="454" width="786" height="68.0001" fill="#B4C7E7"/><rect x="1409" y="238" width="2432" height="1744" stroke="#4472C4" stroke-width="10.3125" stroke-miterlimit="8" fill="none"/><path d="M1574.95 1397.42 2236.8 1397.42 2236.8 1486.42 1574.95 1486.42Z" fill="#00FF00" fill-rule="evenodd"/><path d="M1574.95 1485.42 1740.73 1485.42 1740.73 1574.42 1574.95 1574.42Z" fill="#00FF00" fill-rule="evenodd"/><path d="M1740.73 1485.42 1977.89 1485.42 1977.89 1574.42 1740.73 1574.42Z" fill="#00FF00" fill-rule="evenodd"/><path d="M1977.89 1485.42 2031.17 1485.42 2031.17 1574.42 1977.89 1574.42Z" fill="#00FF00" fill-rule="evenodd"/><path d="M2031.17 1485.42 2448.26 1485.42 2448.26 1574.42 2031.17 1574.42Z" fill="#00FF00" fill-rule="evenodd"/><path d="M2448.26 1485.42 2519.87 1485.42 2519.87 1574.42 2448.26 1574.42Z" fill="#00FF00" fill-rule="evenodd"/><path d="M2519.87 1485.42 2713.2 1485.42 2713.2 1574.42 2519.87 1574.42Z" fill="#00FF00" fill-rule="evenodd"/><path d="M2713.2 1485.42 3057.7 1485.42 3057.7 1574.42 2713.2 1574.42Z" fill="#00FF00" fill-rule="evenodd"/><path d="M1442.03 1573.42 1458.65 1573.42 1458.65 1662.42 1442.03 1662.42Z" fill="#00FF00" fill-rule="evenodd"/><path d="M1458.65 1573.42 3591.25 1573.42 3591.25 1662.42 1458.65 1662.42Z" fill="#00FF00" fill-rule="evenodd"/><path d="M1442.03 1837.42 1574.95 1837.42 1574.95 1926.42 1442.03 1926.42Z" fill="#E997E9" fill-rule="evenodd"/><path d="M1574.95 1837.42 3165.3 1837.42 3165.3 1926.42 1574.95 1926.42Z" fill="#E997E9" fill-rule="evenodd"/><text font-family="Calibri,Calibri_MSFontService,sans-serif" font-weight="400" font-size="73" transform="matrix(1 0 0 1 1442.03 323)">class </text><text font-family="Calibri,Calibri_MSFontService,sans-serif" font-weight="400" font-size="73" transform="matrix(1 0 0 1 1598.44 323)">ArchitectureName</text><text font-family="Calibri,Calibri_MSFontService,sans-serif" font-weight="400" font-size="73" transform="matrix(1 0 0 1 2145.05 323)">(</text><text font-family="Calibri,Calibri_MSFontService,sans-serif" font-weight="400" font-size="73" transform="matrix(1 0 0 1 2167.39 323)">FunctionArchitecture</text><text font-family="Calibri,Calibri_MSFontService,sans-serif" font-weight="400" font-size="73" transform="matrix(1 0 0 1 2796.5 323)">):</text><text font-family="Calibri,Calibri_MSFontService,sans-serif" font-weight="400" font-size="73" transform="matrix(1 0 0 1 1508.49 411)">__slots__ = ()</text><text font-family="Calibri,Calibri_MSFontService,sans-serif" font-weight="400" font-size="73" transform="matrix(1 0 0 1 1508.49 499)">container_p</text><text font-family="Calibri,Calibri_MSFontService,sans-serif" font-weight="400" font-size="73" transform="matrix(1 0 0 1 1866.65 499)">= </text><text font-family="Calibri,Calibri_MSFontService,sans-serif" font-weight="400" font-size="73" transform="matrix(1 0 0 1 1919.94 499)">ModelParam</text><text font-family="Calibri,Calibri_MSFontService,sans-serif" font-weight="400" font-size="73" transform="matrix(1 0 0 1 1508.49 587)">default_sp</text><text font-family="Calibri,Calibri_MSFontService,sans-serif" font-weight="400" font-size="73" transform="matrix(1 0 0 1 1838.7 587)">= {‘</text><text font-family="Calibri,Calibri_MSFontService,sans-serif" font-weight="400" font-size="73" transform="matrix(1 0 0 1 1930.11 587)">end_time</text><text font-family="Calibri,Calibri_MSFontService,sans-serif" font-weight="400" font-size="73" transform="matrix(1 0 0 1 2216.57 587)">’:</text><text font-family="Calibri,Calibri_MSFontService,sans-serif" font-weight="400" font-size="73" transform="matrix(1 0 0 1 2271 587)">100</text><text font-family="Calibri,Calibri_MSFontService,sans-serif" font-weight="400" font-size="73" transform="matrix(1 0 0 1 2382.71 587)">}</text><text font-family="Calibri,Calibri_MSFontService,sans-serif" font-weight="400" font-size="73" transform="matrix(1 0 0 1 1508.49 675)">default_track</text><text font-family="Calibri,Calibri_MSFontService,sans-serif" font-weight="400" font-size="73" transform="matrix(1 0 0 1 1919.68 675)">= [“</text><text font-family="Calibri,Calibri_MSFontService,sans-serif" font-weight="400" font-size="73" transform="matrix(1 0 0 1 2026.25 675)">fxns</text><text font-family="Calibri,Calibri_MSFontService,sans-serif" font-weight="400" font-size="73" transform="matrix(1 0 0 1 2147.13 675)">”, “flows]</text><text font-family="Calibri,Calibri_MSFontService,sans-serif" font-weight="400" font-size="73" transform="matrix(1 0 0 1 1508.49 851)">def </text><text font-family="Calibri,Calibri_MSFontService,sans-serif" font-weight="400" font-size="73" transform="matrix(1 0 0 1 1621.86 851)">init_architecture</text><text font-family="Calibri,Calibri_MSFontService,sans-serif" font-weight="400" font-size="73" transform="matrix(1 0 0 1 2116.33 851)">(self, **</text><text font-family="Calibri,Calibri_MSFontService,sans-serif" font-weight="400" font-size="73" transform="matrix(1 0 0 1 2346.71 851)">kwargs</text><text font-family="Calibri,Calibri_MSFontService,sans-serif" font-weight="400" font-size="73" transform="matrix(1 0 0 1 2554.57 851)">):</text><text font-family="Calibri,Calibri_MSFontService,sans-serif" font-weight="400" font-size="73" transform="matrix(1 0 0 1 1574.95 939)">self.add_flow</text><text font-family="Calibri,Calibri_MSFontService,sans-serif" font-weight="400" font-size="73" transform="matrix(1 0 0 1 1971.38 939)">(“</text><text font-family="Calibri,Calibri_MSFontService,sans-serif" font-weight="400" font-size="73" transform="matrix(1 0 0 1 2024.66 939)">flowname</text><text font-family="Calibri,Calibri_MSFontService,sans-serif" font-weight="400" font-size="73" transform="matrix(1 0 0 1 2323.43 939)">”, </text><text font-family="Calibri,Calibri_MSFontService,sans-serif" font-weight="400" font-size="73" transform="matrix(1 0 0 1 2382.23 939)">FlowClass</text><text font-family="Calibri,Calibri_MSFontService,sans-serif" font-weight="400" font-size="73" transform="matrix(1 0 0 1 2671.83 939)">)</text><text font-family="Calibri,Calibri_MSFontService,sans-serif" font-weight="400" font-size="73" transform="matrix(1 0 0 1 1574.95 1027)">…</text><text font-family="Calibri,Calibri_MSFontService,sans-serif" font-weight="400" font-size="73" transform="matrix(1 0 0 1 1574.95 1115)">self.add_fxn</text><text font-family="Calibri,Calibri_MSFontService,sans-serif" font-weight="400" font-size="73" transform="matrix(1 0 0 1 1933.3 1115)">(“</text><text font-family="Calibri,Calibri_MSFontService,sans-serif" font-weight="400" font-size="73" transform="matrix(1 0 0 1 1986.58 1115)">functionname</text><text font-family="Calibri,Calibri_MSFontService,sans-serif" font-weight="400" font-size="73" transform="matrix(1 0 0 1 2403.66 1115)">”, </text><text font-family="Calibri,Calibri_MSFontService,sans-serif" font-weight="400" font-size="73" transform="matrix(1 0 0 1 2462.46 1115)">FunctionClass</text><text font-family="Calibri,Calibri_MSFontService,sans-serif" font-weight="400" font-size="73" transform="matrix(1 0 0 1 2870.38 1115)">, “flowname1”, “flowname2”)</text><text font-family="Calibri,Calibri_MSFontService,sans-serif" font-weight="400" font-size="73" transform="matrix(1 0 0 1 1574.95 1203)">…</text><text font-family="Calibri,Calibri_MSFontService,sans-serif" font-weight="400" font-size="73" transform="matrix(1 0 0 1 1442.03 1379)">def </text><text font-family="Calibri,Calibri_MSFontService,sans-serif" font-weight="400" font-size="73" transform="matrix(1 0 0 1 1555.4 1379)">indicate_XXX</text><text font-family="Calibri,Calibri_MSFontService,sans-serif" font-weight="400" font-size="73" transform="matrix(1 0 0 1 1940.61 1379)">(</text><text font-family="Calibri,Calibri_MSFontService,sans-serif" font-weight="400" font-size="73" transform="matrix(1 0 0 1 1962.95 1379)">self):</text><text font-family="Calibri,Calibri_MSFontService,sans-serif" font-weight="400" font-size="73" transform="matrix(1 0 0 1 1574.95 1467)">Conditional statement</text><text font-family="Calibri,Calibri_MSFontService,sans-serif" font-weight="400" font-size="73" transform="matrix(1 0 0 1 1574.95 1555)">(e.g., </text><text font-family="Calibri,Calibri_MSFontService,sans-serif" font-weight="400" font-size="73" transform="matrix(1 0 0 1 1740.73 1555)">self.fxns</text><text font-family="Calibri,Calibri_MSFontService,sans-serif" font-weight="400" font-size="73" transform="matrix(1 0 0 1 1977.89 1555)">[“</text><text font-family="Calibri,Calibri_MSFontService,sans-serif" font-weight="400" font-size="73" transform="matrix(1 0 0 1 2031.17 1555)">functionname</text><text font-family="Calibri,Calibri_MSFontService,sans-serif" font-weight="400" font-size="73" transform="matrix(1 0 0 1 2448.26 1555)">”].</text><text font-family="Calibri,Calibri_MSFontService,sans-serif" font-weight="400" font-size="73" transform="matrix(1 0 0 1 2519.87 1555)">s.state</text><text font-family="Calibri,Calibri_MSFontService,sans-serif" font-weight="400" font-size="73" transform="matrix(1 0 0 1 2713.2 1555)">&gt;threshold)</text><text font-family="Calibri,Calibri_MSFontService,sans-serif" font-weight="400" font-size="73" transform="matrix(1 0 0 1 1442.03 1643)"> </text><text font-family="Calibri,Calibri_MSFontService,sans-serif" font-weight="400" font-size="73" transform="matrix(1 0 0 1 1458.65 1643)">which is logged in the history and may be used to terminate simulations</text><text font-family="Calibri,Calibri_MSFontService,sans-serif" font-weight="400" font-size="73" transform="matrix(1 0 0 1 1442.03 1819)">def </text><text font-family="Calibri,Calibri_MSFontService,sans-serif" font-weight="400" font-size="73" transform="matrix(1 0 0 1 1555.4 1819)">find_classification</text><text font-family="Calibri,Calibri_MSFontService,sans-serif" font-weight="400" font-size="73" transform="matrix(1 0 0 1 2086.33 1819)">(self, </text><text font-family="Calibri,Calibri_MSFontService,sans-serif" font-weight="400" font-size="73" transform="matrix(1 0 0 1 2243.38 1819)">scen</text><text font-family="Calibri,Calibri_MSFontService,sans-serif" font-weight="400" font-size="73" transform="matrix(1 0 0 1 2378.02 1819)">, </text><text font-family="Calibri,Calibri_MSFontService,sans-serif" font-weight="400" font-size="73" transform="matrix(1 0 0 1 2412.96 1819)">mdlhists</text><text font-family="Calibri,Calibri_MSFontService,sans-serif" font-weight="400" font-size="73" transform="matrix(1 0 0 1 2662.5 1819)">):</text><text font-family="Calibri,Calibri_MSFontService,sans-serif" font-weight="400" font-size="73" transform="matrix(1 0 0 1 1442.03 1907)">        </text><text font-family="Calibri,Calibri_MSFontService,sans-serif" font-weight="400" font-size="73" transform="matrix(1 0 0 1 1574.95 1907)">Returns a Result dictionary (calculated at completion)</text><rect x="2857" y="594" width="1472" height="340" fill="#F8CBAD"/><text font-family="Calibri,Calibri_MSFontService,sans-serif" font-weight="400" font-size="64" transform="matrix(1 0 0 1 2986.07 670)">Specifies </text><text font-family="Calibri,Calibri_MSFontService,sans-serif" font-weight="700" font-size="64" transform="matrix(1 0 0 1 3228.99 670)">what should be tracked</text><text font-family="Calibri,Calibri_MSFontService,sans-serif" font-weight="400" font-size="64" transform="matrix(1 0 0 1 3865.16 670)">in the Model </text><text font-family="Calibri,Calibri_MSFontService,sans-serif" font-weight="400" font-size="64" transform="matrix(1 0 0 1 2944.43 747)">history by default. May be a </text><text font-family="Calibri,Calibri_MSFontService,sans-serif" font-weight="400" font-size="64" transform="matrix(1 0 0 1 3684.87 747)">dict</text><text font-family="Calibri,Calibri_MSFontService,sans-serif" font-weight="400" font-size="64" transform="matrix(1 0 0 1 3796.59 747)">({</text><text font-family="Calibri,Calibri_MSFontService,sans-serif" font-weight="400" font-size="64" transform="matrix(1 0 0 1 3836.12 747)">role:value</text><text font-family="Calibri,Calibri_MSFontService,sans-serif" font-weight="400" font-size="64" transform="matrix(1 0 0 1 4095.4 747)">}), list </text><text font-family="Calibri,Calibri_MSFontService,sans-serif" font-weight="400" font-size="64" transform="matrix(1 0 0 1 3040.98 824)">([role1, role2]), or string (“</text><text font-family="Calibri,Calibri_MSFontService,sans-serif" font-weight="400" font-size="64" transform="matrix(1 0 0 1 3726.44 824)">all”,”none</text><text font-family="Calibri,Calibri_MSFontService,sans-serif" font-weight="400" font-size="64" transform="matrix(1 0 0 1 3978.55 824)">”, </text><text font-family="Calibri,Calibri_MSFontService,sans-serif" font-weight="400" font-size="64" transform="matrix(1 0 0 1 4029.63 824)">etc</text><text font-family="Calibri,Calibri_MSFontService,sans-serif" font-weight="400" font-size="64" transform="matrix(1 0 0 1 4109.29 824)">). </text><text font-family="Calibri,Calibri_MSFontService,sans-serif" font-weight="400" font-size="64" transform="matrix(1 0 0 1 3000.14 901)">Overwritten by the track option in propagate. </text><rect x="2668" y="433" width="1661" height="177" fill="#B4C7E7"/><text font-family="Calibri,Calibri_MSFontService,sans-serif" font-weight="400" font-size="64" transform="matrix(1 0 0 1 2804.57 504)">Points to a Parameter representing immutable model </text><text font-family="Calibri,Calibri_MSFontService,sans-serif" font-weight="400" font-size="64" transform="matrix(1 0 0 1 2766.78 581)">characteristics instantiated at the start of the simulation</text><rect x="74.9999" y="807" width="1265" height="457" fill="#D0CECE"/><text font-family="Calibri,Calibri_MSFontService,sans-serif" font-weight="400" font-size="64" transform="matrix(1 0 0 1 125.638 903)">Method to </text><text font-family="Calibri,Calibri_MSFontService,sans-serif" font-weight="700" font-size="64" transform="matrix(1 0 0 1 419.155 903)">instantiate the model and define </text><text font-family="Calibri,Calibri_MSFontService,sans-serif" font-weight="700" font-size="64" transform="matrix(1 0 0 1 529.59 980)">its structure:</text><text font-family="Calibri,Calibri_MSFontService,sans-serif" font-weight="400" font-size="64" transform="matrix(1 0 0 1 868.482 980)">,</text><text font-family="Calibri,Calibri_MSFontService,sans-serif" font-weight="400" font-size="64" transform="matrix(1 0 0 1 107.511 1057)">-</text><text font-family="Calibri,Calibri_MSFontService,sans-serif" font-weight="700" font-size="64" transform="matrix(1 0 0 1 210.636 1057)">.</text><text font-family="Calibri,Calibri_MSFontService,sans-serif" font-weight="700" font-size="64" transform="matrix(1 0 0 1 227.823 1057)">add_flow</text><text font-family="Calibri,Calibri_MSFontService,sans-serif" font-weight="400" font-size="64" transform="matrix(1 0 0 1 492.396 1057)">is used to instantiate a flow</text><text font-family="Calibri,Calibri_MSFontService,sans-serif" font-weight="400" font-size="64" transform="matrix(1 0 0 1 107.511 1134)">-</text><text font-family="Calibri,Calibri_MSFontService,sans-serif" font-weight="400" font-size="64" transform="matrix(1 0 0 1 210.636 1134)">.</text><text font-family="Calibri,Calibri_MSFontService,sans-serif" font-weight="700" font-size="64" transform="matrix(1 0 0 1 226.678 1134)">add_fxn</text><text font-family="Calibri,Calibri_MSFontService,sans-serif" font-weight="400" font-size="64" transform="matrix(1 0 0 1 456.99 1134)">is used to instantiate a function </text><text font-family="Calibri,Calibri_MSFontService,sans-serif" font-weight="400" font-size="64" transform="matrix(1 0 0 1 210.636 1211)">and attach connected flows</text><path d="M8.17352e-06-6.875 269.183-6.87468 269.183 6.87532-8.17352e-06 6.875ZM262.308-20.6247 303.558 0.000360892 262.308 20.6253Z" fill="#4472C4" transform="matrix(-1 0 0 1 2667.56 502)"/><path d="M2479 666.125 2823.25 666.125 2823.25 679.875 2479 679.875ZM2816.37 652.375 2857.62 673 2816.37 693.625Z" fill="#C55A11"/><path d="M1285.14 563.126 1452.17 566.614 1451.88 580.361 1284.86 576.873ZM1445.58 552.724 1486.39 574.205 1444.72 593.965Z" fill="#70AD47"/><path d="M1319 1067.12 1393.67 1067.13 1393.67 1080.88 1319 1080.87ZM1386.79 1053.38 1428.04 1074 1386.79 1094.63Z" fill="#7F7F7F"/><rect x="74.9999" y="1285" width="1160" height="267" fill="#E2F0D9"/><text font-family="Calibri,Calibri_MSFontService,sans-serif" font-weight="400" font-size="64" transform="matrix(1 0 0 1 134.278 1363)">These methods define Model </text><text font-family="Calibri,Calibri_MSFontService,sans-serif" font-weight="700" font-size="64" transform="matrix(1 0 0 1 912.528 1363)">indicators</text><text font-family="Calibri,Calibri_MSFontService,sans-serif" font-weight="400" font-size="64" transform="matrix(1 0 0 1 126.991 1440)">and are called/tracked during simulation </text><text font-family="Calibri,Calibri_MSFontService,sans-serif" font-weight="400" font-size="64" transform="matrix(1 0 0 1 431.416 1517)">(in </text><text font-family="Calibri,Calibri_MSFontService,sans-serif" font-weight="400" font-size="64" transform="matrix(1 0 0 1 513.916 1517)">modelname.i</text><text font-family="Calibri,Calibri_MSFontService,sans-serif" font-weight="400" font-size="64" transform="matrix(1 0 0 1 858.239 1517)">)</text><rect x="74.9999" y="379" width="1210" height="267" fill="#C5E0B4"/><text font-family="Calibri,Calibri_MSFontService,sans-serif" font-weight="400" font-size="64" transform="matrix(1 0 0 1 118.675 457)">Default </text><text font-family="Calibri,Calibri_MSFontService,sans-serif" font-weight="700" font-size="64" transform="matrix(1 0 0 1 323.665 457)">keyword arguments for </text><text font-family="Calibri,Calibri_MSFontService,sans-serif" font-weight="700" font-size="64" transform="matrix(1 0 0 1 956.852 457)">SimParam</text><text font-family="Calibri,Calibri_MSFontService,sans-serif" font-weight="400" font-size="64" transform="matrix(1 0 0 1 1225.16 457)">. </text><text font-family="Calibri,Calibri_MSFontService,sans-serif" font-weight="400" font-size="64" transform="matrix(1 0 0 1 136.55 534)">Defines max time of the simulation, along </text><text font-family="Calibri,Calibri_MSFontService,sans-serif" font-weight="400" font-size="64" transform="matrix(1 0 0 1 250.377 611)">with phases, timestep, units, etc.</text><path d="M1234 1435.12 1394.04 1435.13 1394.04 1448.88 1234 1448.88ZM1387.16 1421.38 1428.41 1442 1387.16 1462.63Z" fill="#70AD47"/><rect x="73.9999" y="1696" width="1160" height="240" fill="#F1D9F1"/><text font-family="Calibri,Calibri_MSFontService,sans-serif" font-weight="400" font-size="64" transform="matrix(1 0 0 1 174.781 1799)">This method defines the Result to be </text><text font-family="Calibri,Calibri_MSFontService,sans-serif" font-weight="400" font-size="64" transform="matrix(1 0 0 1 343.791 1876)">returned </text><text font-family="Calibri,Calibri_MSFontService,sans-serif" font-weight="400" font-size="64" transform="matrix(1 0 0 1 603.277 1876)">by the model.</text><path d="M1241 1815.12 1401.04 1815.13 1401.04 1828.88 1241 1828.87ZM1394.16 1801.38 1435.41 1822 1394.16 1842.63Z" fill="#E890E8"/><rect x="2785" y="325" width="1544" height="108" fill="#FA7676"/><text font-family="Calibri,Calibri_MSFontService,sans-serif" font-weight="400" font-size="64" transform="matrix(1 0 0 1 2849.77 401)">Architecture classes are usually given empty __slots__</text><path d="M0.10226-6.87424 777.261 4.68667 777.057 18.4351-0.10226 6.87424ZM770.592-9.16407 811.53 12.0722 769.978 32.0814Z" fill="#FA7676" transform="matrix(-1 0 0 1 2784.53 379)"/></g></svg>