<svg width="1280" height="720" xmlns="http://www.w3.org/2000/svg" xmlns:xlink="http://www.w3.org/1999/xlink" overflow="hidden"><g><rect x="0" y="0" width="1280" height="720" fill="#FFFFFF"/><rect x="585" y="306" width="66" height="272" fill="#B4C7E7"/><path d="M171 193 171 652.907" stroke="#7F7F7F" stroke-width="4" stroke-miterlimit="8" fill="none" fill-rule="evenodd"/><path d="M0 0 656 0.000104987" stroke="#7F7F7F" stroke-width="4" stroke-miterlimit="8" fill="none" fill-rule="evenodd" transform="matrix(-1 0 0 1 784 625)"/><path d="M0 0 142.884 0.000104987" stroke="#4472C4" stroke-width="4" stroke-miterlimit="8" fill="none" fill-rule="evenodd" transform="matrix(-1 0 0 1 313.884 340)"/><path d="M0 0 0.000104987 195.157" stroke="#FE7F00" stroke-width="4" stroke-linecap="square" stroke-miterlimit="8" stroke-dasharray="12 4" stroke-opacity="0.619608" fill="none" fill-rule="evenodd" transform="matrix(-1 0 0 1 314 340)"/><path d="M0 0 664.93 0.000104987" stroke="#FF0000" stroke-width="4" stroke-miterlimit="8" stroke-dasharray="4 4" fill="none" fill-rule="evenodd" transform="matrix(-1 0 0 1 800.93 486)"/><path d="M603.604 536.604 314 535" stroke="#FE7F00" stroke-width="4" stroke-linecap="square" stroke-miterlimit="8" stroke-dasharray="12 4" stroke-opacity="0.619608" fill="none" fill-rule="evenodd"/><path d="M356.419 436.834 314 340" stroke="#FE7F00" stroke-width="4" stroke-linecap="square" stroke-miterlimit="8" stroke-dasharray="12 4" stroke-opacity="0.619608" fill="none" fill-rule="evenodd"/><path d="M0 0 263.767 3.19139" stroke="#FE7F00" stroke-width="4" stroke-linecap="square" stroke-miterlimit="8" stroke-dasharray="12 4" stroke-opacity="0.619608" fill="none" fill-rule="evenodd" transform="matrix(1 0 0 -1 356 437.191)"/><path d="M0 0 515.349 252.651" stroke="#FF0000" stroke-width="4" stroke-miterlimit="8" stroke-dasharray="4 4" fill="none" fill-rule="evenodd" transform="matrix(-1 0 0 1 686.349 377)"/><path d="M0 0 92.0932 87.1722" stroke="#FE7F00" stroke-width="4" stroke-linecap="square" stroke-miterlimit="8" stroke-dasharray="12 4" stroke-opacity="0.619608" fill="none" fill-rule="evenodd" transform="matrix(1 0 0 -1 524 438.172)"/><text font-family="Calibri,Calibri_MSFontService,sans-serif" font-weight="700" font-size="27" transform="translate(65.516 475)">Robustness Safety</text><text font-family="Calibri,Calibri_MSFontService,sans-serif" font-weight="700" font-size="27" transform="translate(65.516 507)">Threshold</text><text font-family="Calibri,Calibri_MSFontService,sans-serif" font-weight="700" font-size="27" transform="translate(189.062 573)">Recovery Time Safety</text><text font-family="Calibri,Calibri_MSFontService,sans-serif" font-weight="700" font-size="27" transform="translate(189.062 605)">Threshold</text><path d="M618 527.046 625.754 515.5 624.99 526.101 633.792 524.373 630.296 530.062 639.452 531.699 632.181 536.353 640.5 541.957 630.577 541.264 633.302 551.523 624.708 544.28 623.098 554.791 617.442 545.232 613.177 558.5 611.573 546.609 605.421 550.571 607.306 543.245 595.781 544.539 603.254 538.941 595.5 532.65 605.14 530.664 596.271 520.069 610.733 528.082 612.9 520.069Z" stroke="#BC8C00" stroke-width="1.33333" stroke-miterlimit="8" fill="#ED7D31" fill-rule="evenodd"/><path d="M618.5 429.046 626.082 417.5 625.334 428.101 633.941 426.373 630.523 432.062 639.475 433.699 632.366 438.353 640.5 443.957 630.798 443.264 633.462 453.523 625.059 446.28 623.485 456.791 617.954 447.232 613.784 460.5 612.216 448.609 606.2 452.571 608.044 445.245 596.775 446.539 604.082 440.941 596.5 434.65 605.925 432.664 597.254 422.069 611.395 430.082 613.513 422.069Z" stroke="#BC8C00" stroke-width="1.33333" stroke-miterlimit="8" fill="#ED7D31" fill-rule="evenodd"/><path d="M601.5 352C601.5 342.887 608.887 335.5 618 335.5 627.113 335.5 634.5 342.887 634.5 352 634.5 361.113 627.113 368.5 618 368.5 608.887 368.5 601.5 361.113 601.5 352Z" stroke="#507E32" stroke-width="1.33333" stroke-miterlimit="8" fill="#70AD47" fill-rule="evenodd"/><text font-family="Calibri,Calibri_MSFontService,sans-serif" font-weight="400" font-size="27" transform="translate(578.112 479)">Unsafe</text><text font-family="Calibri,Calibri_MSFontService,sans-serif" font-weight="400" font-size="27" transform="translate(578.112 511)">Disruptions</text><rect x="188" y="157" width="452" height="74" fill="#D9D9D9" fill-opacity="0.8"/><text font-family="Arial Nova,Arial Nova_MSFontService,sans-serif" font-weight="400" font-size="27" transform="translate(197.693 188)">Resilience means taking a</text><text font-family="Arial Nova,Arial Nova_MSFontService,sans-serif" font-weight="700" font-size="27" transform="translate(518.726 188)">dynamic</text><text font-family="Arial Nova,Arial Nova_MSFontService,sans-serif" font-weight="700" font-size="27" transform="translate(197.693 220)">understanding of risk/safety</text><text font-family="Calibri,Calibri_MSFontService,sans-serif" font-weight="400" font-size="27" transform="translate(529.873 333)">Safe Disruptions</text><text fill="#4472C4" font-family="Calibri,Calibri_MSFontService,sans-serif" font-weight="700" font-size="27" transform="translate(540.736 289)">Risk Outcomes</text><rect x="722" y="225" width="541" height="365" fill="#D9D9D9" fill-opacity="0.8"/><text font-family="Arial Nova,Arial Nova_MSFontService,sans-serif" font-weight="400" font-size="27" transform="translate(732.066 256)">Considering resilience is important when</text><text font-family="Arial Nova,Arial Nova_MSFontService,sans-serif" font-weight="400" font-size="27" transform="translate(732.066 288)">our system has dynamic attributes, e.g.:</text><text font-family="Arial Nova,Arial Nova_MSFontService,sans-serif" font-weight="400" font-size="27" transform="translate(732.066 320)">-</text><text font-family="Arial Nova,Arial Nova_MSFontService,sans-serif" font-weight="700" font-size="27" transform="translate(768.066 320)">The system state changes over time</text><text font-family="Arial Nova,Arial Nova_MSFontService,sans-serif" font-weight="400" font-size="27" transform="translate(780.066 352)">-</text><text font-family="Arial Nova,Arial Nova_MSFontService,sans-serif" font-weight="400" font-size="27" transform="translate(816.066 352)">(e.g., position, velocity,</text><text font-family="Arial Nova,Arial Nova_MSFontService,sans-serif" font-weight="400" font-size="27" transform="translate(1089.01 352)">etc</text><text font-family="Arial Nova,Arial Nova_MSFontService,sans-serif" font-weight="400" font-size="27" transform="translate(1125.05 352)">)</text><text font-family="Arial Nova,Arial Nova_MSFontService,sans-serif" font-weight="400" font-size="27" transform="translate(732.066 384)">-</text><text font-family="Arial Nova,Arial Nova_MSFontService,sans-serif" font-weight="700" font-size="27" transform="translate(768.066 384)">We can control this state</text><text font-family="Arial Nova,Arial Nova_MSFontService,sans-serif" font-weight="400" font-size="27" transform="translate(780.066 416)">-</text><text font-family="Arial Nova,Arial Nova_MSFontService,sans-serif" font-weight="400" font-size="27" transform="translate(816.066 416)">(e.g., operators, autopilot)</text><text font-family="Arial Nova,Arial Nova_MSFontService,sans-serif" font-weight="400" font-size="27" transform="translate(732.066 448)">Because we can use it to determine</text><text font-family="Arial Nova,Arial Nova_MSFontService,sans-serif" font-weight="700" font-size="27" transform="translate(1160.09 448)">how to</text><text font-family="Arial Nova,Arial Nova_MSFontService,sans-serif" font-weight="700" font-size="27" transform="translate(732.066 480)">control the system to a safe outcome</text><text font-family="Arial Nova,Arial Nova_MSFontService,sans-serif" font-weight="400" font-size="27" transform="translate(1200.33 480)">in</text><text font-family="Arial Nova,Arial Nova_MSFontService,sans-serif" font-weight="400" font-size="27" transform="translate(732.066 512)">unsafe circumstances and what</text><text font-family="Arial Nova,Arial Nova_MSFontService,sans-serif" font-weight="700" font-size="27" transform="translate(732.066 544)">design/operational features</text><text font-family="Arial Nova,Arial Nova_MSFontService,sans-serif" font-weight="400" font-size="27" transform="translate(1083.53 544)">we need to</text><text font-family="Arial Nova,Arial Nova_MSFontService,sans-serif" font-weight="400" font-size="27" transform="translate(732.066 576)">enable this control</text></g></svg>