<svg height="468pt" viewBox="0.00 0.00 655.09 468.00" width="655pt" xmlns="http://www.w3.org/2000/svg" xmlns:xlink="http://www.w3.org/1999/xlink">
<g class="graph" id="graph0" transform="scale(1 1) rotate(0) translate(36 432)">
<polygon fill="white" points="-36,36 -36,-432 619.09,-432 619.09,36 -36,36" stroke="transparent"/>
<!-- Rover&#45;&gt;GenericFxn -->
<g class="edge" id="edge1">
<title>Rover-&gt;GenericFxn</title>
<path d="M286.55,-362.43C322.98,-331.4 408.48,-258.59 451.99,-221.53" fill="none" stroke="black"/>
<polygon fill="black" points="454.26,-224.19 459.61,-215.04 449.73,-218.86 454.26,-224.19" stroke="black"/>
</g>
<!-- Rover&#45;&gt;Move_Rover -->
<g class="edge" id="edge2">
<title>Rover-&gt;Move_Rover</title>
<path d="M262.77,-360.25C250.43,-329.32 223.97,-263 209.12,-225.77" fill="none" stroke="black"/>
<polygon fill="black" points="212.22,-224.08 205.26,-216.09 205.72,-226.68 212.22,-224.08" stroke="black"/>
</g>
<!-- Rover&#45;&gt;Control_Rover -->
<g class="edge" id="edge3">
<title>Rover-&gt;Control_Rover</title>
<path d="M276.22,-360.25C288.73,-329.32 315.56,-263 330.62,-225.77" fill="none" stroke="black"/>
<polygon fill="black" points="334.03,-226.67 334.53,-216.09 327.54,-224.05 334.03,-226.67" stroke="black"/>
</g>
<!-- Rover&#45;&gt;Store_Energy -->
<g class="edge" id="edge4">
<title>Rover-&gt;Store_Energy</title>
<path d="M252.34,-362.43C216,-331.48 130.84,-258.96 87.23,-221.81" fill="none" stroke="black"/>
<polygon fill="black" points="89.47,-219.12 79.59,-215.3 84.93,-224.45 89.47,-219.12" stroke="black"/>
</g>
<!-- GenericFxn&#45;&gt;EE -->
<g class="edge" id="edge7">
<title>GenericFxn-&gt;EE</title>
<path d="M454.57,-181.82C402.83,-148.93 280.62,-71.24 225.84,-36.42" fill="none" stroke="black"/>
<polygon fill="black" points="227.66,-33.43 217.34,-31.01 223.9,-39.33 227.66,-33.43" stroke="black"/>
</g>
<!-- GenericFxn&#45;&gt;Video -->
<g class="edge" id="edge9">
<title>GenericFxn-&gt;Video</title>
<path d="M476.05,-179.93C471.7,-148.97 462.48,-83.3 457.25,-46.13" fill="none" stroke="black"/>
<polygon fill="black" points="460.69,-45.43 455.83,-36.02 453.76,-46.41 460.69,-45.43" stroke="black"/>
</g>
<!-- GenericFxn&#45;&gt;Ground -->
<g class="edge" id="edge6">
<title>GenericFxn-&gt;Ground</title>
<path d="M467.72,-180.25C447.64,-148.9 404.27,-81.18 380.62,-44.25" fill="none" stroke="black"/>
<polygon fill="black" points="383.4,-42.11 375.06,-35.57 377.5,-45.88 383.4,-42.11" stroke="black"/>
</g>
<!-- GenericFxn&#45;&gt;Force -->
<g class="edge" id="edge8">
<title>GenericFxn-&gt;Force</title>
<path d="M460.07,-180.89C423.38,-148.72 341.03,-76.51 299.86,-40.41" fill="none" stroke="black"/>
<polygon fill="black" points="302.02,-37.65 292.2,-33.69 297.41,-42.91 302.02,-37.65" stroke="black"/>
</g>
<!-- GenericFxn&#45;&gt;Comms -->
<g class="edge" id="edge5">
<title>GenericFxn-&gt;Comms</title>
<path d="M484.68,-179.93C496.03,-148.83 520.17,-82.73 533.71,-45.65" fill="none" stroke="black"/>
<polygon fill="black" points="537.09,-46.61 537.23,-36.02 530.51,-44.21 537.09,-46.61" stroke="black"/>
</g>
<!-- Move_Rover&#45;&gt;EE -->
<g class="edge" id="edge12">
<title>Move_Rover-&gt;EE</title>
<path d="M198.44,-179.93C198.44,-148.97 198.44,-83.3 198.44,-46.13" fill="none" stroke="black"/>
<polygon fill="black" points="201.94,-46.02 198.44,-36.02 194.94,-46.02 201.94,-46.02" stroke="black"/>
</g>
<!-- Move_Rover&#45;&gt;Control -->
<g class="edge" id="edge10">
<title>Move_Rover-&gt;Control</title>
<path d="M190.49,-179.93C175.89,-148.62 144.74,-81.83 127.52,-44.9" fill="none" stroke="black"/>
<polygon fill="black" points="130.66,-43.34 123.26,-35.76 124.31,-46.3 130.66,-43.34" stroke="black"/>
</g>
<!-- Move_Rover&#45;&gt;Ground -->
<g class="edge" id="edge11">
<title>Move_Rover-&gt;Ground</title>
<path d="M213.76,-180.57C243.31,-148.89 308.28,-79.23 342.44,-42.59" fill="none" stroke="black"/>
<polygon fill="black" points="345.38,-44.57 349.64,-34.87 340.26,-39.8 345.38,-44.57" stroke="black"/>
</g>
<!-- Move_Rover&#45;&gt;Force -->
<g class="edge" id="edge13">
<title>Move_Rover-&gt;Force</title>
<path d="M205.83,-179.93C219.32,-148.75 248.02,-82.4 264.04,-45.37" fill="none" stroke="black"/>
<polygon fill="black" points="267.44,-46.32 268.2,-35.76 261.01,-43.54 267.44,-46.32" stroke="black"/>
</g>
<!-- Control_Rover&#45;&gt;EE -->
<g class="edge" id="edge15">
<title>Control_Rover-&gt;EE</title>
<path d="M327.99,-180.25C302.37,-148.37 246.54,-78.86 217.24,-42.4" fill="none" stroke="black"/>
<polygon fill="black" points="219.73,-39.9 210.74,-34.3 214.27,-44.29 219.73,-39.9" stroke="black"/>
</g>
<!-- Control_Rover&#45;&gt;Control -->
<g class="edge" id="edge17">
<title>Control_Rover-&gt;Control</title>
<path d="M320.99,-180.89C280.07,-148.66 188.16,-76.27 142.39,-40.23" fill="none" stroke="black"/>
<polygon fill="black" points="144.43,-37.37 134.41,-33.94 140.1,-42.87 144.43,-37.37" stroke="black"/>
</g>
<!-- Control_Rover&#45;&gt;Video -->
<g class="edge" id="edge18">
<title>Control_Rover-&gt;Video</title>
<path d="M352.18,-179.93C372.07,-148.33 414.7,-80.57 437.8,-43.86" fill="none" stroke="black"/>
<polygon fill="black" points="440.86,-45.57 443.23,-35.24 434.94,-41.84 440.86,-45.57" stroke="black"/>
</g>
<!-- Control_Rover&#45;&gt;Force -->
<g class="edge" id="edge16">
<title>Control_Rover-&gt;Force</title>
<path d="M335.12,-179.93C323.56,-148.75 298.95,-82.4 285.22,-45.37" fill="none" stroke="black"/>
<polygon fill="black" points="288.42,-43.92 281.66,-35.76 281.85,-46.35 288.42,-43.92" stroke="black"/>
</g>
<!-- Control_Rover&#45;&gt;Comms -->
<g class="edge" id="edge14">
<title>Control_Rover-&gt;Comms</title>
<path d="M360.09,-180.57C396.53,-148.46 477.24,-77.34 518.34,-41.13" fill="none" stroke="black"/>
<polygon fill="black" points="520.81,-43.61 526,-34.37 516.19,-38.35 520.81,-43.61" stroke="black"/>
</g>
<!-- Store_Energy&#45;&gt;EE -->
<g class="edge" id="edge20">
<title>Store_Energy-&gt;EE</title>
<path d="M73.43,-180.25C98.15,-148.37 152.04,-78.86 180.31,-42.4" fill="none" stroke="black"/>
<polygon fill="black" points="183.22,-44.35 186.58,-34.3 177.69,-40.06 183.22,-44.35" stroke="black"/>
</g>
<!-- Store_Energy&#45;&gt;Control -->
<g class="edge" id="edge19">
<title>Store_Energy-&gt;Control</title>
<path d="M65.72,-179.93C75.33,-148.83 95.75,-82.73 107.21,-45.65" fill="none" stroke="black"/>
<polygon fill="black" points="110.58,-46.6 110.19,-36.02 103.89,-44.54 110.58,-46.6" stroke="black"/>
</g>
<!-- Store_Energy&#45;&gt;Force -->
<g class="edge" id="edge21">
<title>Store_Energy-&gt;Force</title>
<path d="M79.9,-180.89C118.94,-148.57 206.78,-75.85 250.19,-39.91" fill="none" stroke="black"/>
<polygon fill="black" points="252.53,-42.52 258,-33.44 248.06,-37.12 252.53,-42.52" stroke="black"/>
</g>
<!-- Rover -->
<g class="node" id="node1">
<title>Rover</title>
<ellipse cx="269.44" cy="-378" fill="lightgrey" rx="33.29" ry="18" stroke="black"/>
<text font-family="Times New Roman,serif" font-size="14.00" text-anchor="middle" x="269.44" y="-374.3">Rover</text>
</g>
<!-- GenericFxn -->
<g class="node" id="node2">
<title>GenericFxn</title>
<ellipse cx="478.44" cy="-198" fill="lightgrey" rx="53.09" ry="18" stroke="black"/>
<text font-family="Times New Roman,serif" font-size="14.00" text-anchor="middle" x="478.44" y="-194.3">GenericFxn</text>
</g>
<!-- Move_Rover -->
<g class="node" id="node3">
<title>Move_Rover</title>
<ellipse cx="198.44" cy="-198" fill="lightgrey" rx="59.29" ry="18" stroke="black"/>
<text font-family="Times New Roman,serif" font-size="14.00" text-anchor="middle" x="198.44" y="-194.3">Move_Rover</text>
</g>
<!-- Control_Rover -->
<g class="node" id="node4">
<title>Control_Rover</title>
<ellipse cx="341.44" cy="-198" fill="lightgrey" rx="65.79" ry="18" stroke="black"/>
<text font-family="Times New Roman,serif" font-size="14.00" text-anchor="middle" x="341.44" y="-194.3">Control_Rover</text>
</g>
<!-- Store_Energy -->
<g class="node" id="node5">
<title>Store_Energy</title>
<ellipse cx="60.44" cy="-198" fill="lightgrey" rx="60.39" ry="18" stroke="black"/>
<text font-family="Times New Roman,serif" font-size="14.00" text-anchor="middle" x="60.44" y="-194.3">Store_Energy</text>
</g>
<!-- EE -->
<g class="node" id="node6">
<title>EE</title>
<ellipse cx="198.44" cy="-18" fill="lightgrey" rx="27" ry="18" stroke="black"/>
<text font-family="Times New Roman,serif" font-size="14.00" text-anchor="middle" x="198.44" y="-14.3">EE</text>
</g>
<!-- Control -->
<g class="node" id="node7">
<title>Control</title>
<ellipse cx="115.44" cy="-18" fill="lightgrey" rx="38.19" ry="18" stroke="black"/>
<text font-family="Times New Roman,serif" font-size="14.00" text-anchor="middle" x="115.44" y="-14.3">Control</text>
</g>
<!-- Video -->
<g class="node" id="node8">
<title>Video</title>
<ellipse cx="453.44" cy="-18" fill="lightgrey" rx="32.49" ry="18" stroke="black"/>
<text font-family="Times New Roman,serif" font-size="14.00" text-anchor="middle" x="453.44" y="-14.3">Video</text>
</g>
<!-- Ground -->
<g class="node" id="node9">
<title>Ground</title>
<ellipse cx="364.44" cy="-18" fill="lightgrey" rx="38.99" ry="18" stroke="black"/>
<text font-family="Times New Roman,serif" font-size="14.00" text-anchor="middle" x="364.44" y="-14.3">Ground</text>
</g>
<!-- Force -->
<g class="node" id="node10">
<title>Force</title>
<ellipse cx="275.44" cy="-18" fill="lightgrey" rx="32.49" ry="18" stroke="black"/>
<text font-family="Times New Roman,serif" font-size="14.00" text-anchor="middle" x="275.44" y="-14.3">Force</text>
</g>
<!-- Comms -->
<g class="node" id="node11">
<title>Comms</title>
<ellipse cx="543.44" cy="-18" fill="lightgrey" rx="39.79" ry="18" stroke="black"/>
<text font-family="Times New Roman,serif" font-size="14.00" text-anchor="middle" x="543.44" y="-14.3">Comms</text>
</g>
</g>
</svg>