<svg height="311pt" viewBox="0.00 0.00 448.10 310.76" width="448pt" xmlns="http://www.w3.org/2000/svg" xmlns:xlink="http://www.w3.org/1999/xlink">
<g class="graph" id="graph0" transform="scale(1 1) rotate(0) translate(4 306.76)">
<polygon fill="white" points="-4,4 -4,-306.76 444.1,-306.76 444.1,4 -4,4" stroke="transparent"/>
<!-- Control_Rover&#45;&#45;Force -->
<g class="edge" id="edge5">
<title>Control_Rover--Force</title>
<path d="M246.55,-110.29C246.64,-119.4 246.75,-130.39 246.84,-139.49" fill="none" stroke="black"/>
</g>
<!-- Control_Rover&#45;&#45;EE -->
<g class="edge" id="edge3">
<title>Control_Rover--EE</title>
<path d="M197.22,-73.86C171.4,-64.34 140.91,-53.1 120.25,-45.48" fill="none" stroke="black"/>
</g>
<!-- Control_Rover&#45;&#45;Video -->
<g class="edge" id="edge1">
<title>Control_Rover--Video</title>
<path d="M236.29,-73.89C229.88,-62.38 221.63,-47.54 215.3,-36.17" fill="none" stroke="black"/>
</g>
<!-- Control_Rover&#45;&#45;Control -->
<g class="edge" id="edge4">
<title>Control_Rover--Control</title>
<path d="M256.55,-73.7C263.03,-62.06 271.38,-47.07 277.78,-35.57" fill="none" stroke="black"/>
</g>
<!-- Control_Rover&#45;&#45;Comms -->
<g class="edge" id="edge2">
<title>Control_Rover--Comms</title>
<path d="M292.02,-73.95C311.58,-66.22 333.88,-57.41 351.29,-50.53" fill="none" stroke="black"/>
</g>
<!-- Store_Energy&#45;&#45;Force -->
<g class="edge" id="edge7">
<title>Store_Energy--Force</title>
<path d="M346.82,-154.77C325.03,-155.41 299.64,-156.15 279.92,-156.73" fill="none" stroke="black"/>
</g>
<!-- Store_Energy&#45;&#45;EE -->
<g class="edge" id="edge6">
<title>Store_Energy--EE</title>
<path d="M347.47,-135.28C283.04,-109.98 168.51,-65 119.53,-45.77" fill="none" stroke="black"/>
</g>
<!-- Store_Energy&#45;&#45;Control -->
<g class="edge" id="edge8">
<title>Store_Energy--Control</title>
<path d="M379.3,-135.14C358.72,-108.87 321.03,-60.74 300.97,-35.12" fill="none" stroke="black"/>
</g>
<!-- Move_Rover&#45;&#45;Ground -->
<g class="edge" id="edge9">
<title>Move_Rover--Ground</title>
<path d="M318.39,-237.45C325.82,-246.85 334.84,-258.24 342.15,-267.49" fill="none" stroke="black"/>
</g>
<!-- Move_Rover&#45;&#45;Force -->
<g class="edge" id="edge10">
<title>Move_Rover--Force</title>
<path d="M287.17,-201.07C279.17,-192.42 269.68,-182.17 261.93,-173.8" fill="none" stroke="black"/>
</g>
<!-- Move_Rover&#45;&#45;EE -->
<g class="edge" id="edge11">
<title>Move_Rover--EE</title>
<path d="M283.27,-201.01C242.02,-164.76 150.27,-84.1 112.74,-51.12" fill="none" stroke="black"/>
</g>
<!-- Move_Rover&#45;&#45;Control -->
<g class="edge" id="edge12">
<title>Move_Rover--Control</title>
<path d="M302.46,-200.98C299.34,-162.67 292.13,-74.16 289.03,-36.02" fill="none" stroke="black"/>
</g>
<!-- View_Ground&#45;&#45;Ground -->
<g class="edge" id="edge13">
<title>View_Ground--Ground</title>
<path d="M204.38,-266.48C239.2,-270.69 285.62,-276.29 317.85,-280.18" fill="none" stroke="black"/>
</g>
<!-- View_Ground&#45;&#45;Force -->
<g class="edge" id="edge16">
<title>View_Ground--Force</title>
<path d="M172.56,-242.28C189.68,-222.83 216.4,-192.48 232.74,-173.91" fill="none" stroke="black"/>
</g>
<!-- View_Ground&#45;&#45;EE -->
<g class="edge" id="edge14">
<title>View_Ground--EE</title>
<path d="M151.44,-242.35C140.11,-200.13 112.31,-96.45 101.09,-54.6" fill="none" stroke="black"/>
</g>
<!-- View_Ground&#45;&#45;Video -->
<g class="edge" id="edge15">
<title>View_Ground--Video</title>
<path d="M160.06,-242.51C169.21,-197.57 192.82,-81.66 201.94,-36.85" fill="none" stroke="black"/>
</g>
<!-- Communicate_Externally&#45;&#45;Force -->
<g class="edge" id="edge19">
<title>Communicate_Externally--Force</title>
<path d="M156.08,-164.21C176.67,-162.73 197.76,-161.22 214.45,-160.02" fill="none" stroke="black"/>
</g>
<!-- Communicate_Externally&#45;&#45;EE -->
<g class="edge" id="edge18">
<title>Communicate_Externally--EE</title>
<path d="M80.5,-151.56C84,-126.06 90.31,-80.03 93.8,-54.65" fill="none" stroke="black"/>
</g>
<!-- Communicate_Externally&#45;&#45;Comms -->
<g class="edge" id="edge17">
<title>Communicate_Externally--Comms</title>
<path d="M119.84,-151.71C182.39,-124.66 298.67,-74.39 352.5,-51.12" fill="none" stroke="black"/>
</g>
<!-- Control_Rover -->
<g class="node" id="node1">
<title>Control_Rover</title>
<polygon fill="lightgray" points="296.86,-109.99 195.86,-109.99 195.86,-73.99 296.86,-73.99 296.86,-109.99" stroke="black"/>
<text font-family="Times New Roman,serif" font-size="14.00" text-anchor="middle" x="246.36" y="-88.29">Control_Rover</text>
</g>
<!-- Store_Energy -->
<g class="node" id="node2">
<title>Store_Energy</title>
<polygon fill="lightgray" points="440.1,-171.4 347.1,-171.4 347.1,-135.4 440.1,-135.4 440.1,-171.4" stroke="black"/>
<text font-family="Times New Roman,serif" font-size="14.00" text-anchor="middle" x="393.6" y="-149.7">Store_Energy</text>
</g>
<!-- Move_Rover -->
<g class="node" id="node3">
<title>Move_Rover</title>
<polygon fill="lightgray" points="349.44,-237.18 258.44,-237.18 258.44,-201.18 349.44,-201.18 349.44,-237.18" stroke="black"/>
<text font-family="Times New Roman,serif" font-size="14.00" text-anchor="middle" x="303.94" y="-215.48">Move_Rover</text>
</g>
<!-- View_Ground -->
<g class="node" id="node4">
<title>View_Ground</title>
<polygon fill="lightgray" points="204.35,-278.69 108.35,-278.69 108.35,-242.69 204.35,-242.69 204.35,-278.69" stroke="black"/>
<text font-family="Times New Roman,serif" font-size="14.00" text-anchor="middle" x="156.35" y="-256.99">View_Ground</text>
</g>
<!-- Communicate_Externally -->
<g class="node" id="node5">
<title>Communicate_Externally</title>
<polygon fill="lightgray" points="156,-187.8 0,-187.8 0,-151.8 156,-151.8 156,-187.8" stroke="black"/>
<text font-family="Times New Roman,serif" font-size="14.00" text-anchor="middle" x="78" y="-166.1">Communicate_Externally</text>
</g>
<!-- Ground -->
<g class="node" id="node6">
<title>Ground</title>
<ellipse cx="355.81" cy="-284.76" fill="lightgray" rx="38.99" ry="18" stroke="black"/>
<text font-family="Times New Roman,serif" font-size="14.00" text-anchor="middle" x="355.81" y="-281.06">Ground</text>
</g>
<!-- Force -->
<g class="node" id="node7">
<title>Force</title>
<ellipse cx="247.02" cy="-157.69" fill="lightgray" rx="32.49" ry="18" stroke="black"/>
<text font-family="Times New Roman,serif" font-size="14.00" text-anchor="middle" x="247.02" y="-153.99">Force</text>
</g>
<!-- EE -->
<g class="node" id="node8">
<title>EE</title>
<ellipse cx="96.27" cy="-36.63" fill="lightgray" rx="27" ry="18" stroke="black"/>
<text font-family="Times New Roman,serif" font-size="14.00" text-anchor="middle" x="96.27" y="-32.93">EE</text>
</g>
<!-- Video -->
<g class="node" id="node9">
<title>Video</title>
<ellipse cx="205.62" cy="-18.78" fill="lightgray" rx="32.49" ry="18" stroke="black"/>
<text font-family="Times New Roman,serif" font-size="14.00" text-anchor="middle" x="205.62" y="-15.08">Video</text>
</g>
<!-- Control -->
<g class="node" id="node10">
<title>Control</title>
<ellipse cx="287.56" cy="-18" fill="lightgray" rx="38.19" ry="18" stroke="black"/>
<text font-family="Times New Roman,serif" font-size="14.00" text-anchor="middle" x="287.56" y="-14.3">Control</text>
</g>
<!-- Comms -->
<g class="node" id="node11">
<title>Comms</title>
<ellipse cx="381.22" cy="-38.7" fill="lightgray" rx="39.79" ry="18" stroke="black"/>
<text font-family="Times New Roman,serif" font-size="14.00" text-anchor="middle" x="381.22" y="-35">Comms</text>
</g>
</g>
</svg>