<svg width="4295" height="1967" xmlns="http://www.w3.org/2000/svg" xmlns:xlink="http://www.w3.org/1999/xlink" xml:space="preserve" overflow="hidden"><g transform="translate(-87 -26)"><rect x="233" y="1801" width="572" height="125" fill="#F8CBAD"/><rect x="222" y="1698" width="842" height="125" fill="#FA7676"/><rect x="233" y="1480" width="1480" height="240" fill="#F1D9F1"/><rect x="1857.5" y="699.5" width="1802" height="121" stroke="#DAE3F3" stroke-width="4.58333" stroke-miterlimit="8" fill="#D0CECE"/><rect x="1857.5" y="493.5" width="956" height="134" stroke="#DAE3F3" stroke-width="4.58333" stroke-miterlimit="8" fill="#FFE699"/><rect x="359.5" y="438.5" width="312" height="205" stroke="#DAE3F3" stroke-width="4.58333" stroke-miterlimit="8" fill="#B4C7E7"/><rect x="653.5" y="438.5" width="236" height="205" stroke="#DAE3F3" stroke-width="4.58333" stroke-miterlimit="8" fill="#F8CBAD"/><rect x="857.5" y="438.5" width="530" height="205" stroke="#DAE3F3" stroke-width="4.58333" stroke-miterlimit="8" fill="#C5E0B4"/><rect x="276" y="345" width="1408" height="337" stroke="#4472C4" stroke-width="10.3125" stroke-miterlimit="8" fill="none"/><text font-family="Calibri,Calibri_MSFontService,sans-serif" font-weight="400" font-size="73" transform="matrix(1 0 0 1 308.957 431)">class </text><text font-family="Calibri,Calibri_MSFontService,sans-serif" font-weight="400" font-size="73" transform="matrix(1 0 0 1 465.363 431)">Stat</text><text font-family="Calibri,Calibri_MSFontService,sans-serif" font-weight="400" font-size="73" transform="matrix(1 0 0 1 581.023 431)">e</text><text font-family="Calibri,Calibri_MSFontService,sans-serif" font-weight="400" font-size="73" transform="matrix(1 0 0 1 617.69 431)">Name</text><text font-family="Calibri,Calibri_MSFontService,sans-serif" font-weight="400" font-size="73" transform="matrix(1 0 0 1 795.294 431)">(</text><text font-family="Calibri,Calibri_MSFontService,sans-serif" font-weight="400" font-size="73" transform="matrix(1 0 0 1 817.638 431)">State</text><text font-family="Calibri,Calibri_MSFontService,sans-serif" font-weight="400" font-size="73" transform="matrix(1 0 0 1 969.965 431)">):</text><text font-family="Calibri,Calibri_MSFontService,sans-serif" font-weight="400" font-size="73" transform="matrix(1 0 0 1 375.415 519)">varname1: float = 1.0</text><text font-family="Calibri,Calibri_MSFontService,sans-serif" font-weight="400" font-size="73" transform="matrix(1 0 0 1 375.415 607)">varname2:</text><text font-family="Calibri,Calibri_MSFontService,sans-serif" font-weight="400" font-size="73" transform="matrix(1 0 0 1 710.067 607)">str</text><text font-family="Calibri,Calibri_MSFontService,sans-serif" font-weight="400" font-size="73" transform="matrix(1 0 0 1 804.919 607)">=</text><text font-family="Calibri,Calibri_MSFontService,sans-serif" font-weight="400" font-size="73" transform="matrix(1 0 0 1 858.2 607)">“</text><text font-family="Calibri,Calibri_MSFontService,sans-serif" font-weight="400" font-size="73" transform="matrix(1 0 0 1 885.815 607)">default_value</text><text font-family="Calibri,Calibri_MSFontService,sans-serif" font-weight="400" font-size="73" transform="matrix(1 0 0 1 1291.14 607)">”</text><rect x="1814" y="319" width="1997" height="465" stroke="#4472C4" stroke-width="10.3125" stroke-miterlimit="8" fill="none"/><text font-family="Calibri,Calibri_MSFontService,sans-serif" font-weight="400" font-size="73" transform="matrix(1 0 0 1 1847.03 405)">class </text><text font-family="Calibri,Calibri_MSFontService,sans-serif" font-weight="400" font-size="73" transform="matrix(1 0 0 1 2003.44 405)">Parameter</text><text font-family="Calibri,Calibri_MSFontService,sans-serif" font-weight="400" font-size="73" transform="matrix(1 0 0 1 2314.85 405)">Name</text><text font-family="Calibri,Calibri_MSFontService,sans-serif" font-weight="400" font-size="73" transform="matrix(1 0 0 1 2492.46 405)">(</text><text font-family="Calibri,Calibri_MSFontService,sans-serif" font-weight="400" font-size="73" transform="matrix(1 0 0 1 2514.8 405)">Paramete</text><text font-family="Calibri,Calibri_MSFontService,sans-serif" font-weight="400" font-size="73" transform="matrix(1 0 0 1 2800.44 405)">r</text><text font-family="Calibri,Calibri_MSFontService,sans-serif" font-weight="400" font-size="73" transform="matrix(1 0 0 1 2826.22 405)">):</text><text font-family="Calibri,Calibri_MSFontService,sans-serif" font-weight="400" font-size="73" transform="matrix(1 0 0 1 1913.49 493)">varname1: float = 1.0</text><text font-family="Calibri,Calibri_MSFontService,sans-serif" font-weight="400" font-size="73" transform="matrix(1 0 0 1 1913.49 581)">varname1_range = (0.0, 10.0)</text><text font-family="Calibri,Calibri_MSFontService,sans-serif" font-weight="400" font-size="73" transform="matrix(1 0 0 1 1913.49 669)">varname2 : str = “</text><text font-family="Calibri,Calibri_MSFontService,sans-serif" font-weight="400" font-size="73" transform="matrix(1 0 0 1 2440.51 669)">default_value</text><text font-family="Calibri,Calibri_MSFontService,sans-serif" font-weight="400" font-size="73" transform="matrix(1 0 0 1 2845.83 669)">”</text><text font-family="Calibri,Calibri_MSFontService,sans-serif" font-weight="400" font-size="73" transform="matrix(1 0 0 1 1913.49 757)">varname2_set = (“</text><text font-family="Calibri,Calibri_MSFontService,sans-serif" font-weight="400" font-size="73" transform="matrix(1 0 0 1 2458.13 757)">default_value</text><text font-family="Calibri,Calibri_MSFontService,sans-serif" font-weight="400" font-size="73" transform="matrix(1 0 0 1 2863.46 757)">”, “</text><text font-family="Calibri,Calibri_MSFontService,sans-serif" font-weight="400" font-size="73" transform="matrix(1 0 0 1 2950.7 757)">other_possible_value</text><text font-family="Calibri,Calibri_MSFontService,sans-serif" font-weight="400" font-size="73" transform="matrix(1 0 0 1 3590.14 757)">”)</text><rect x="158" y="1450" width="1997" height="465" stroke="#4472C4" stroke-width="10.3125" stroke-miterlimit="8" fill="none"/><text font-family="Calibri,Calibri_MSFontService,sans-serif" font-weight="400" font-size="73" transform="matrix(1 0 0 1 191.099 1536)">class </text><text font-family="Calibri,Calibri_MSFontService,sans-serif" font-weight="400" font-size="73" transform="matrix(1 0 0 1 347.506 1536)">Mode</text><text font-family="Calibri,Calibri_MSFontService,sans-serif" font-weight="400" font-size="73" transform="matrix(1 0 0 1 523.964 1536)">Name</text><text font-family="Calibri,Calibri_MSFontService,sans-serif" font-weight="400" font-size="73" transform="matrix(1 0 0 1 701.568 1536)">(</text><text font-family="Calibri,Calibri_MSFontService,sans-serif" font-weight="400" font-size="73" transform="matrix(1 0 0 1 723.912 1536)">Mode</text><text font-family="Calibri,Calibri_MSFontService,sans-serif" font-weight="400" font-size="73" transform="matrix(1 0 0 1 900.37 1536)">):</text><text font-family="Calibri,Calibri_MSFontService,sans-serif" font-weight="400" font-size="73" transform="matrix(1 0 0 1 257.558 1624)">fm_args</text><text font-family="Calibri,Calibri_MSFontService,sans-serif" font-weight="400" font-size="73" transform="matrix(1 0 0 1 514.362 1624)">= {‘fault_1’: (0.001, 200.0),</text><text font-family="Calibri,Calibri_MSFontService,sans-serif" font-weight="400" font-size="73" transform="matrix(1 0 0 1 587.558 1712)">‘fault_2’:</text><text font-family="Calibri,Calibri_MSFontService,sans-serif" font-weight="400" font-size="73" transform="matrix(1 0 0 1 869.708 1712)">0.00001,</text><text font-family="Calibri,Calibri_MSFontService,sans-serif" font-weight="400" font-size="73" transform="matrix(1 0 0 1 1146.43 1712)">100.0,</text><text font-family="Calibri,Calibri_MSFontService,sans-serif" font-weight="400" font-size="73" transform="matrix(1 0 0 1 1348.67 1712)">{‘on’: 1.0}}</text><text font-family="Calibri,Calibri_MSFontService,sans-serif" font-weight="400" font-size="73" transform="matrix(1 0 0 1 257.558 1800)">opermodes</text><text font-family="Calibri,Calibri_MSFontService,sans-serif" font-weight="400" font-size="73" transform="matrix(1 0 0 1 615.058 1800)">=</text><text font-family="Calibri,Calibri_MSFontService,sans-serif" font-weight="400" font-size="73" transform="matrix(1 0 0 1 668.339 1800)">[“off”, “on”]</text><text font-family="Calibri,Calibri_MSFontService,sans-serif" font-weight="400" font-size="73" transform="matrix(1 0 0 1 257.558 1888)">mode:</text><text font-family="Calibri,Calibri_MSFontService,sans-serif" font-weight="400" font-size="73" transform="matrix(1 0 0 1 466.099 1888)">str = “off”</text><text font-family="Calibri,Calibri_MSFontService,sans-serif" font-weight="700" font-size="83" transform="matrix(1 0 0 1 137.318 175)">State classes are used to represent variables </text><text font-family="Calibri,Calibri_MSFontService,sans-serif" font-weight="700" font-size="83" transform="matrix(1 0 0 1 137.318 274)">(called fields) that change over time </text><text font-family="Calibri,Calibri_MSFontService,sans-serif" font-weight="700" font-size="83" transform="matrix(1 0 0 1 1939.79 128)">Parameter classes are used to represent variables that </text><text font-family="Calibri,Calibri_MSFontService,sans-serif" font-weight="700" font-size="83" transform="matrix(1 0 0 1 1939.79 227)">don’t change over time, with similar syntax to States </text><text font-family="Calibri,Calibri_MSFontService,sans-serif" font-weight="700" font-size="83" transform="matrix(1 0 0 1 157.426 1255)">Mode classes are used to represent modes (faults and </text><text font-family="Calibri,Calibri_MSFontService,sans-serif" font-weight="700" font-size="83" transform="matrix(1 0 0 1 157.426 1354)">operational modes) that could occur in the system</text><rect x="158.5" y="734.5" width="465" height="189" stroke="#DAE3F3" stroke-width="4.58333" stroke-miterlimit="8" fill="#B4C7E7"/><text font-family="Calibri,Calibri_MSFontService,sans-serif" font-weight="400" font-size="64" transform="matrix(1 0 0 1 246.978 850)">Field name</text><rect x="653.5" y="736.5" width="465" height="189" stroke="#DAE3F3" stroke-width="4.58333" stroke-miterlimit="8" fill="#F8CBAD"/><text font-family="Calibri,Calibri_MSFontService,sans-serif" font-weight="400" font-size="64" transform="matrix(1 0 0 1 722.169 813)">Field type or </text><text font-family="Calibri,Calibri_MSFontService,sans-serif" font-weight="400" font-size="64" transform="matrix(1 0 0 1 823.85 890)">class</text><rect x="1134.5" y="734.5" width="465" height="189" stroke="#DAE3F3" stroke-width="4.58333" stroke-miterlimit="8" fill="#C5E0B4"/><text font-family="Calibri,Calibri_MSFontService,sans-serif" font-weight="400" font-size="64" transform="matrix(1 0 0 1 1191 812)">Default initial </text><text font-family="Calibri,Calibri_MSFontService,sans-serif" font-weight="400" font-size="64" transform="matrix(1 0 0 1 1296.53 889)">value</text><path d="M6.875-2.39628e-05 6.87524 69.1661-6.87476 69.1661-6.875 2.39628e-05ZM20.6252 62.291 0.000360892 103.541-20.6248 62.2912Z" fill="#4472C4" transform="matrix(1 0 0 -1 515 739.541)"/><path d="M6.875-2.1121e-05 6.87526 83.0976-6.87474 83.0977-6.875 2.1121e-05ZM20.6252 76.2226 0.000360892 117.473-20.6248 76.2227Z" fill="#ED7D31" transform="matrix(1 0 0 -1 771 739.472)"/><path d="M6.875-2.39628e-05 6.87524 69.1661-6.87476 69.1661-6.875 2.39628e-05ZM20.6252 62.291 0.000360892 103.541-20.6248 62.2912Z" fill="#70AD47" transform="matrix(1 0 0 -1 1213 739.541)"/><rect x="3131.5" y="457.5" width="1232" height="189" stroke="#DAE3F3" stroke-width="4.58333" stroke-miterlimit="8" fill="#FFE699"/><text font-family="Calibri,Calibri_MSFontService,sans-serif" font-weight="400" font-size="64" transform="matrix(1 0 0 1 3165.46 534)">varname1_range defines allowable range for </text><text font-family="Calibri,Calibri_MSFontService,sans-serif" font-weight="400" font-size="64" transform="matrix(1 0 0 1 3453.68 611)">the variable varname1</text><path d="M0.0887148-6.87443 284.464-3.20455 284.286 10.5443-0.0887148 6.87443ZM277.767-17.0421 318.747 4.11345 277.235 24.2044Z" fill="#FFE699" transform="matrix(-1 0 0 1 3131.75 551)"/><rect x="1882.5" y="913.5" width="1752" height="121" stroke="#DAE3F3" stroke-width="4.58333" stroke-miterlimit="8" fill="#D0CECE"/><text font-family="Calibri,Calibri_MSFontService,sans-serif" font-weight="400" font-size="64" transform="matrix(1 0 0 1 1948.27 995)">varname2_set defines allowable values for the field varname2</text><path d="M6.875-2.66091e-05 6.87523 58.8687-6.87477 58.8688-6.875 2.66091e-05ZM20.6252 51.9937 0.000360892 93.2438-20.6248 51.9938Z" fill="#BFBFBF" transform="matrix(1 0 0 -1 2758 913.244)"/><rect x="2094" y="1476" width="1768" height="240" fill="#F1D9F1"/><text font-family="Calibri,Calibri_MSFontService,sans-serif" font-weight="400" font-size="64" transform="matrix(1 0 0 1 2187.5 1579)">Dictionary of fault names and their optional properties (rate, </text><text font-family="Calibri,Calibri_MSFontService,sans-serif" font-weight="400" font-size="64" transform="matrix(1 0 0 1 2303.32 1656)">repair cost, phases they could occur and their rates)</text><path d="M0.0697064-6.87465 345.893-3.36812 345.754 10.3812-0.0697064 6.87465ZM339.158-17.1871 380.197 3.85505 338.74 24.0608Z" fill="#E890E8" transform="matrix(-1 0 0 1 2093.2 1596)"/><rect x="2094" y="1724" width="1415" height="125" fill="#FA7676"/><text font-family="Calibri,Calibri_MSFontService,sans-serif" font-weight="400" font-size="64" transform="matrix(1 0 0 1 2185.56 1808)">List of potential operational modes (if multiple)</text><path d="M2093.46 1793.7 1098.27 1778.4 1098.48 1764.65 2093.68 1779.95ZM1104.93 1792.26 1064 1771 1105.56 1751.01Z" fill="#F91900"/><rect x="2094" y="1853" width="1287" height="126" fill="#F8CBAD"/><text font-family="Calibri,Calibri_MSFontService,sans-serif" font-weight="400" font-size="64" transform="matrix(1 0 0 1 2134.01 1937)">Default mode (if multiple modes/not nominal)</text><path d="M2093.64 1922.67 839.145 1883.93 839.569 1870.19 2094.07 1908.93ZM845.594 1897.89 805 1876 846.867 1856.66Z" fill="#ED7D31"/></g></svg>