<svg xmlns="http://www.w3.org/2000/svg" xmlns:xlink="http://www.w3.org/1999/xlink" width="448pt" height="311pt" viewBox="0.00 0.00 448.10 310.76">
<g id="graph0" class="graph" transform="scale(1 1) rotate(0) translate(4 306.76)">
<polygon fill="white" stroke="transparent" points="-4,4 -4,-306.76 444.1,-306.76 444.1,4 -4,4"/>
<!-- Control_Rover&#45;&#45;Force -->
<g id="edge5" class="edge">
<title>Control_Rover--Force</title>
<path fill="none" stroke="black" d="M246.55,-110.29C246.64,-119.4 246.75,-130.39 246.84,-139.49"/>
</g>
<!-- Control_Rover&#45;&#45;EE -->
<g id="edge3" class="edge">
<title>Control_Rover--EE</title>
<path fill="none" stroke="black" d="M197.22,-73.86C171.4,-64.34 140.91,-53.1 120.25,-45.48"/>
</g>
<!-- Control_Rover&#45;&#45;Video -->
<g id="edge1" class="edge">
<title>Control_Rover--Video</title>
<path fill="none" stroke="black" d="M236.29,-73.89C229.88,-62.38 221.63,-47.54 215.3,-36.17"/>
</g>
<!-- Control_Rover&#45;&#45;Control -->
<g id="edge4" class="edge">
<title>Control_Rover--Control</title>
<path fill="none" stroke="black" d="M256.55,-73.7C263.03,-62.06 271.38,-47.07 277.78,-35.57"/>
</g>
<!-- Control_Rover&#45;&#45;Comms -->
<g id="edge2" class="edge">
<title>Control_Rover--Comms</title>
<path fill="none" stroke="black" d="M292.02,-73.95C311.58,-66.22 333.88,-57.41 351.29,-50.53"/>
</g>
<!-- Store_Energy&#45;&#45;Force -->
<g id="edge7" class="edge">
<title>Store_Energy--Force</title>
<path fill="none" stroke="black" d="M346.82,-154.77C325.03,-155.41 299.64,-156.15 279.92,-156.73"/>
</g>
<!-- Store_Energy&#45;&#45;EE -->
<g id="edge6" class="edge">
<title>Store_Energy--EE</title>
<path fill="none" stroke="black" d="M347.47,-135.28C283.04,-109.98 168.51,-65 119.53,-45.77"/>
</g>
<!-- Store_Energy&#45;&#45;Control -->
<g id="edge8" class="edge">
<title>Store_Energy--Control</title>
<path fill="none" stroke="black" d="M379.3,-135.14C358.72,-108.87 321.03,-60.74 300.97,-35.12"/>
</g>
<!-- Move_Rover&#45;&#45;Ground -->
<g id="edge9" class="edge">
<title>Move_Rover--Ground</title>
<path fill="none" stroke="black" d="M318.39,-237.45C325.82,-246.85 334.84,-258.24 342.15,-267.49"/>
</g>
<!-- Move_Rover&#45;&#45;Force -->
<g id="edge10" class="edge">
<title>Move_Rover--Force</title>
<path fill="none" stroke="black" d="M287.17,-201.07C279.17,-192.42 269.68,-182.17 261.93,-173.8"/>
</g>
<!-- Move_Rover&#45;&#45;EE -->
<g id="edge11" class="edge">
<title>Move_Rover--EE</title>
<path fill="none" stroke="black" d="M283.27,-201.01C242.02,-164.76 150.27,-84.1 112.74,-51.12"/>
</g>
<!-- Move_Rover&#45;&#45;Control -->
<g id="edge12" class="edge">
<title>Move_Rover--Control</title>
<path fill="none" stroke="black" d="M302.46,-200.98C299.34,-162.67 292.13,-74.16 289.03,-36.02"/>
</g>
<!-- View_Ground&#45;&#45;Ground -->
<g id="edge13" class="edge">
<title>View_Ground--Ground</title>
<path fill="none" stroke="black" d="M204.38,-266.48C239.2,-270.69 285.62,-276.29 317.85,-280.18"/>
</g>
<!-- View_Ground&#45;&#45;Force -->
<g id="edge16" class="edge">
<title>View_Ground--Force</title>
<path fill="none" stroke="black" d="M172.56,-242.28C189.68,-222.83 216.4,-192.48 232.74,-173.91"/>
</g>
<!-- View_Ground&#45;&#45;EE -->
<g id="edge14" class="edge">
<title>View_Ground--EE</title>
<path fill="none" stroke="black" d="M151.44,-242.35C140.11,-200.13 112.31,-96.45 101.09,-54.6"/>
</g>
<!-- View_Ground&#45;&#45;Video -->
<g id="edge15" class="edge">
<title>View_Ground--Video</title>
<path fill="none" stroke="black" d="M160.06,-242.51C169.21,-197.57 192.82,-81.66 201.94,-36.85"/>
</g>
<!-- Communicate_Externally&#45;&#45;Force -->
<g id="edge19" class="edge">
<title>Communicate_Externally--Force</title>
<path fill="none" stroke="black" d="M156.08,-164.21C176.67,-162.73 197.76,-161.22 214.45,-160.02"/>
</g>
<!-- Communicate_Externally&#45;&#45;EE -->
<g id="edge18" class="edge">
<title>Communicate_Externally--EE</title>
<path fill="none" stroke="black" d="M80.5,-151.56C84,-126.06 90.31,-80.03 93.8,-54.65"/>
</g>
<!-- Communicate_Externally&#45;&#45;Comms -->
<g id="edge17" class="edge">
<title>Communicate_Externally--Comms</title>
<path fill="none" stroke="black" d="M119.84,-151.71C182.39,-124.66 298.67,-74.39 352.5,-51.12"/>
</g>
<!-- Control_Rover -->
<g id="node1" class="node">
<title>Control_Rover</title>
<polygon fill="lightgray" stroke="black" points="296.86,-109.99 195.86,-109.99 195.86,-73.99 296.86,-73.99 296.86,-109.99"/>
<text text-anchor="middle" x="246.36" y="-88.29" font-family="Times New Roman,serif" font-size="14.00">Control_Rover</text>
</g>
<!-- Store_Energy -->
<g id="node2" class="node">
<title>Store_Energy</title>
<polygon fill="lightgray" stroke="black" points="440.1,-171.4 347.1,-171.4 347.1,-135.4 440.1,-135.4 440.1,-171.4"/>
<text text-anchor="middle" x="393.6" y="-149.7" font-family="Times New Roman,serif" font-size="14.00">Store_Energy</text>
</g>
<!-- Move_Rover -->
<g id="node3" class="node">
<title>Move_Rover</title>
<polygon fill="lightgray" stroke="black" points="349.44,-237.18 258.44,-237.18 258.44,-201.18 349.44,-201.18 349.44,-237.18"/>
<text text-anchor="middle" x="303.94" y="-215.48" font-family="Times New Roman,serif" font-size="14.00">Move_Rover</text>
</g>
<!-- View_Ground -->
<g id="node4" class="node">
<title>View_Ground</title>
<polygon fill="lightgray" stroke="black" points="204.35,-278.69 108.35,-278.69 108.35,-242.69 204.35,-242.69 204.35,-278.69"/>
<text text-anchor="middle" x="156.35" y="-256.99" font-family="Times New Roman,serif" font-size="14.00">View_Ground</text>
</g>
<!-- Communicate_Externally -->
<g id="node5" class="node">
<title>Communicate_Externally</title>
<polygon fill="lightgray" stroke="black" points="156,-187.8 0,-187.8 0,-151.8 156,-151.8 156,-187.8"/>
<text text-anchor="middle" x="78" y="-166.1" font-family="Times New Roman,serif" font-size="14.00">Communicate_Externally</text>
</g>
<!-- Ground -->
<g id="node6" class="node">
<title>Ground</title>
<ellipse fill="lightgray" stroke="black" cx="355.81" cy="-284.76" rx="38.99" ry="18"/>
<text text-anchor="middle" x="355.81" y="-281.06" font-family="Times New Roman,serif" font-size="14.00">Ground</text>
</g>
<!-- Force -->
<g id="node7" class="node">
<title>Force</title>
<ellipse fill="lightgray" stroke="black" cx="247.02" cy="-157.69" rx="32.49" ry="18"/>
<text text-anchor="middle" x="247.02" y="-153.99" font-family="Times New Roman,serif" font-size="14.00">Force</text>
</g>
<!-- EE -->
<g id="node8" class="node">
<title>EE</title>
<ellipse fill="lightgray" stroke="black" cx="96.27" cy="-36.63" rx="27" ry="18"/>
<text text-anchor="middle" x="96.27" y="-32.93" font-family="Times New Roman,serif" font-size="14.00">EE</text>
</g>
<!-- Video -->
<g id="node9" class="node">
<title>Video</title>
<ellipse fill="lightgray" stroke="black" cx="205.62" cy="-18.78" rx="32.49" ry="18"/>
<text text-anchor="middle" x="205.62" y="-15.08" font-family="Times New Roman,serif" font-size="14.00">Video</text>
</g>
<!-- Control -->
<g id="node10" class="node">
<title>Control</title>
<ellipse fill="lightgray" stroke="black" cx="287.56" cy="-18" rx="38.19" ry="18"/>
<text text-anchor="middle" x="287.56" y="-14.3" font-family="Times New Roman,serif" font-size="14.00">Control</text>
</g>
<!-- Comms -->
<g id="node11" class="node">
<title>Comms</title>
<ellipse fill="lightgray" stroke="black" cx="381.22" cy="-38.7" rx="39.79" ry="18"/>
<text text-anchor="middle" x="381.22" y="-35" font-family="Times New Roman,serif" font-size="14.00">Comms</text>
</g>
</g>
</svg>