<svg xmlns="http://www.w3.org/2000/svg" xmlns:xlink="http://www.w3.org/1999/xlink" width="492pt" height="321pt" viewBox="0.00 0.00 492.21 321.29">
<g id="graph0" class="graph" transform="scale(1 1) rotate(0) translate(4 317.29)">
<polygon fill="white" stroke="transparent" points="-4,4 -4,-317.29 488.21,-317.29 488.21,4 -4,4"/>
<!-- Control_Rover&#45;&#45;Force -->
<g id="edge5" class="edge">
<title>Control_Rover--Force</title>
<path fill="none" stroke="black" d="M263.04,-132.53C262.1,-137.32 261.17,-142.06 260.33,-146.36"/>
</g>
<!-- Control_Rover&#45;&#45;EE -->
<g id="edge3" class="edge">
<title>Control_Rover--EE</title>
<path fill="none" stroke="black" d="M217.24,-80.18C187.35,-70.25 151.36,-58.3 127.99,-50.54"/>
</g>
<!-- Control_Rover&#45;&#45;Video -->
<g id="edge1" class="edge">
<title>Control_Rover--Video</title>
<path fill="none" stroke="black" d="M249.43,-62.95C243.8,-53.39 237.93,-43.43 233.15,-35.32"/>
</g>
<!-- Control_Rover&#45;&#45;Control -->
<g id="edge4" class="edge">
<title>Control_Rover--Control</title>
<path fill="none" stroke="black" d="M292.41,-63.03C298.62,-53.49 305.08,-43.56 310.35,-35.47"/>
</g>
<!-- Control_Rover&#45;&#45;Comms -->
<g id="edge2" class="edge">
<title>Control_Rover--Comms</title>
<path fill="none" stroke="black" d="M322.63,-77.21C348.08,-67.34 377.7,-55.86 399.32,-47.48"/>
</g>
<!-- Store_Energy&#45;&#45;Force -->
<g id="edge7" class="edge">
<title>Store_Energy--Force</title>
<path fill="none" stroke="black" d="M386.83,-162.61C355.9,-163.01 316.76,-163.51 289.54,-163.86"/>
</g>
<!-- Store_Energy&#45;&#45;EE -->
<g id="edge6" class="edge">
<title>Store_Energy--EE</title>
<path fill="none" stroke="black" d="M387.06,-144.47C314.79,-118.46 181.81,-70.59 127.54,-51.06"/>
</g>
<!-- Store_Energy&#45;&#45;Control -->
<g id="edge8" class="edge">
<title>Store_Energy--Control</title>
<path fill="none" stroke="black" d="M408.09,-127.17C385,-98.08 353.06,-57.83 335.16,-35.28"/>
</g>
<!-- Move_Rover&#45;&#45;Ground -->
<g id="edge9" class="edge">
<title>Move_Rover--Ground</title>
<path fill="none" stroke="black" d="M366.44,-264.51C373.03,-269.78 379.53,-274.98 385.26,-279.57"/>
</g>
<!-- Move_Rover&#45;&#45;Force -->
<g id="edge10" class="edge">
<title>Move_Rover--Force</title>
<path fill="none" stroke="black" d="M288.06,-195.16C282.71,-189.88 277.43,-184.66 272.78,-180.06"/>
</g>
<!-- Move_Rover&#45;&#45;EE -->
<g id="edge11" class="edge">
<title>Move_Rover--EE</title>
<path fill="none" stroke="black" d="M282.64,-195.28C233.92,-153.71 154.47,-85.89 120.17,-56.62"/>
</g>
<!-- Move_Rover&#45;&#45;Control -->
<g id="edge12" class="edge">
<title>Move_Rover--Control</title>
<path fill="none" stroke="black" d="M322.92,-194.93C322.58,-149.36 322,-71.36 321.74,-36.25"/>
</g>
<!-- View_Ground&#45;&#45;Ground -->
<g id="edge13" class="edge">
<title>View_Ground--Ground</title>
<path fill="none" stroke="black" d="M231.3,-282.6C271.68,-285.55 328.61,-289.71 366.11,-292.46"/>
</g>
<!-- View_Ground&#45;&#45;Force -->
<g id="edge16" class="edge">
<title>View_Ground--Force</title>
<path fill="none" stroke="black" d="M194.86,-260.89C208.89,-239.02 232.25,-202.59 245.93,-181.26"/>
</g>
<!-- View_Ground&#45;&#45;EE -->
<g id="edge14" class="edge">
<title>View_Ground--EE</title>
<path fill="none" stroke="black" d="M177.07,-260.9C162.17,-216.63 124.15,-103.67 109.45,-60.01"/>
</g>
<!-- View_Ground&#45;&#45;Video -->
<g id="edge15" class="edge">
<title>View_Ground--Video</title>
<path fill="none" stroke="black" d="M185.99,-260.72C193.31,-212.67 212.96,-83.63 220.21,-35.99"/>
</g>
<!-- Communicate_Externally&#45;&#45;Force -->
<g id="edge19" class="edge">
<title>Communicate_Externally--Force</title>
<path fill="none" stroke="black" d="M156.17,-186.3C180.98,-180.87 206.97,-175.19 226.32,-170.95"/>
</g>
<!-- Communicate_Externally&#45;&#45;EE -->
<g id="edge18" class="edge">
<title>Communicate_Externally--EE</title>
<path fill="none" stroke="black" d="M80.88,-185.24C85.78,-154.33 95.7,-91.79 100.62,-60.75"/>
</g>
<!-- Communicate_Externally&#45;&#45;Comms -->
<g id="edge17" class="edge">
<title>Communicate_Externally--Comms</title>
<path fill="none" stroke="black" d="M115.97,-185.29C187.18,-151.34 339.26,-78.82 401.85,-48.98"/>
</g>
<!-- Control_Rover -->
<g id="node1" class="node">
<title>Control_Rover</title>
<polygon fill="teal" stroke="black" points="322.37,-132.15 217.37,-132.15 217.37,-63.15 322.37,-63.15 322.37,-132.15"/>
<text text-anchor="middle" x="269.87" y="-116.95" font-family="Times New Roman,serif" font-size="14.00">Control_Rover </text>
<text text-anchor="middle" x="269.87" y="-101.95" font-family="Times New Roman,serif" font-size="14.00"> </text>
<text text-anchor="middle" x="269.87" y="-70.95" font-family="Times New Roman,serif" font-size="14.00"> 0</text>
</g>
<!-- Store_Energy -->
<g id="node2" class="node">
<title>Store_Energy</title>
<polygon fill="cyan" stroke="black" points="484.21,-196.48 387.21,-196.48 387.21,-127.48 484.21,-127.48 484.21,-196.48"/>
<text text-anchor="middle" x="435.71" y="-181.28" font-family="Times New Roman,serif" font-size="14.00">Store_Energy </text>
<text text-anchor="middle" x="435.71" y="-166.28" font-family="Times New Roman,serif" font-size="14.00"> </text>
<text text-anchor="middle" x="435.71" y="-135.28" font-family="Times New Roman,serif" font-size="14.00"> 1,dt=0.5</text>
</g>
<!-- Move_Rover -->
<g id="node3" class="node">
<title>Move_Rover</title>
<polygon fill="cyan" stroke="black" points="370.68,-264.39 275.68,-264.39 275.68,-195.39 370.68,-195.39 370.68,-264.39"/>
<text text-anchor="middle" x="323.18" y="-249.19" font-family="Times New Roman,serif" font-size="14.00">Move_Rover </text>
<text text-anchor="middle" x="323.18" y="-234.19" font-family="Times New Roman,serif" font-size="14.00"> </text>
<text text-anchor="middle" x="323.18" y="-203.19" font-family="Times New Roman,serif" font-size="14.00"> 2</text>
</g>
<!-- View_Ground -->
<g id="node4" class="node">
<title>View_Ground</title>
<polygon fill="lightgray" stroke="black" points="231.19,-297.08 135.19,-297.08 135.19,-261.08 231.19,-261.08 231.19,-297.08"/>
<text text-anchor="middle" x="183.19" y="-275.38" font-family="Times New Roman,serif" font-size="14.00">View_Ground</text>
</g>
<!-- Communicate_Externally -->
<g id="node5" class="node">
<title>Communicate_Externally</title>
<polygon fill="lightgray" stroke="black" points="156,-221.4 0,-221.4 0,-185.4 156,-185.4 156,-221.4"/>
<text text-anchor="middle" x="78" y="-199.7" font-family="Times New Roman,serif" font-size="14.00">Communicate_Externally</text>
</g>
<!-- Ground -->
<g id="node6" class="node">
<title>Ground</title>
<ellipse fill="cyan" stroke="black" cx="404.91" cy="-295.29" rx="38.99" ry="18"/>
<text text-anchor="middle" x="404.91" y="-291.59" font-family="Times New Roman,serif" font-size="14.00">Ground</text>
</g>
<!-- Force -->
<g id="node7" class="node">
<title>Force</title>
<ellipse fill="cyan" stroke="black" cx="256.82" cy="-164.28" rx="32.49" ry="18"/>
<text text-anchor="middle" x="256.82" y="-160.58" font-family="Times New Roman,serif" font-size="14.00">Force</text>
</g>
<!-- EE -->
<g id="node8" class="node">
<title>EE</title>
<ellipse fill="cyan" stroke="black" cx="103.53" cy="-42.42" rx="27" ry="18"/>
<text text-anchor="middle" x="103.53" y="-38.72" font-family="Times New Roman,serif" font-size="14.00">EE</text>
</g>
<!-- Video -->
<g id="node9" class="node">
<title>Video</title>
<ellipse fill="lightgray" stroke="black" cx="222.95" cy="-18" rx="32.49" ry="18"/>
<text text-anchor="middle" x="222.95" y="-14.3" font-family="Times New Roman,serif" font-size="14.00">Video</text>
</g>
<!-- Control -->
<g id="node10" class="node">
<title>Control</title>
<ellipse fill="cyan" stroke="black" cx="321.6" cy="-18.19" rx="38.19" ry="18"/>
<text text-anchor="middle" x="321.6" y="-14.49" font-family="Times New Roman,serif" font-size="14.00">Control</text>
</g>
<!-- Comms -->
<g id="node11" class="node">
<title>Comms</title>
<ellipse fill="lightgray" stroke="black" cx="429.65" cy="-35.73" rx="39.79" ry="18"/>
<text text-anchor="middle" x="429.65" y="-32.03" font-family="Times New Roman,serif" font-size="14.00">Comms</text>
</g>
</g>
</svg>