<svg xmlns="http://www.w3.org/2000/svg" xmlns:xlink="http://www.w3.org/1999/xlink" width="450pt" height="285pt" viewBox="0.00 0.00 449.95 285.27">
<g id="graph0" class="graph" transform="scale(1 1) rotate(0) translate(4 281.27)">
<polygon fill="white" stroke="transparent" points="-4,4 -4,-281.27 445.95,-281.27 445.95,4 -4,4"/>
<!-- Control_Rover&#45;&#45;Force -->
<g id="edge5" class="edge">
<title>Control_Rover--Force</title>
<path fill="none" stroke="black" d="M255.4,-38.9C259.66,-63.13 267.13,-105.65 271.38,-129.86"/>
</g>
<!-- Control_Rover&#45;&#45;EE -->
<g id="edge3" class="edge">
<title>Control_Rover--EE</title>
<path fill="none" stroke="black" d="M237.18,-38.92C222.78,-56.46 201.23,-82.68 187.48,-99.42"/>
</g>
<!-- Control_Rover&#45;&#45;Video -->
<g id="edge1" class="edge">
<title>Control_Rover--Video</title>
<path fill="none" stroke="black" d="M217.82,-38.83C174.73,-61.63 102,-100.1 64.73,-119.81"/>
</g>
<!-- Control_Rover&#45;&#45;Control -->
<g id="edge4" class="edge">
<title>Control_Rover--Control</title>
<path fill="none" stroke="black" d="M201.52,-20.57C163.35,-20.51 111.82,-20.44 76.96,-20.39"/>
</g>
<!-- Control_Rover&#45;&#45;Comms -->
<g id="edge2" class="edge">
<title>Control_Rover--Comms</title>
<path fill="none" stroke="black" d="M302.77,-32.33C312.91,-34.67 323.37,-37.09 332.86,-39.28"/>
</g>
<!-- Store_Energy&#45;&#45;Force -->
<g id="edge7" class="edge">
<title>Store_Energy--Force</title>
<path fill="none" stroke="black" d="M163.02,-36.09C188.47,-61.64 234.54,-107.89 258.75,-132.19"/>
</g>
<!-- Store_Energy&#45;&#45;EE -->
<g id="edge6" class="edge">
<title>Store_Energy--EE</title>
<path fill="none" stroke="black" d="M150.52,-36.33C155.8,-53.86 163.7,-80.13 168.94,-97.52"/>
</g>
<!-- Store_Energy&#45;&#45;Control -->
<g id="edge8" class="edge">
<title>Store_Energy--Control</title>
<path fill="none" stroke="black" d="M98.22,-19.02C91.06,-19.18 83.73,-19.34 76.78,-19.49"/>
</g>
<!-- Move_Rover&#45;&#45;Ground -->
<g id="edge9" class="edge">
<title>Move_Rover--Ground</title>
<path fill="none" stroke="black" d="M108.13,-216.11C96.45,-223.78 83.05,-232.57 72,-239.82"/>
</g>
<!-- Move_Rover&#45;&#45;Force -->
<g id="edge10" class="edge">
<title>Move_Rover--Force</title>
<path fill="none" stroke="black" d="M181.78,-181.39C203.37,-173.64 228.43,-164.64 247.06,-157.96"/>
</g>
<!-- Move_Rover&#45;&#45;EE -->
<g id="edge11" class="edge">
<title>Move_Rover--EE</title>
<path fill="none" stroke="black" d="M144.52,-179.53C151,-165.59 159.87,-146.53 166.24,-132.82"/>
</g>
<!-- Move_Rover&#45;&#45;Control -->
<g id="edge12" class="edge">
<title>Move_Rover--Control</title>
<path fill="none" stroke="black" d="M125.94,-179.48C107.03,-145.12 66.48,-71.44 47.94,-37.77"/>
</g>
<!-- View_Ground&#45;&#45;Ground -->
<g id="edge13" class="edge">
<title>View_Ground--Ground</title>
<path fill="none" stroke="black" d="M172.18,-257.98C145.73,-257.27 113.32,-256.4 88.43,-255.73"/>
</g>
<!-- View_Ground&#45;&#45;Force -->
<g id="edge16" class="edge">
<title>View_Ground--Force</title>
<path fill="none" stroke="black" d="M229.21,-240.91C239.4,-220.06 255.91,-186.29 265.95,-165.74"/>
</g>
<!-- View_Ground&#45;&#45;EE -->
<g id="edge14" class="edge">
<title>View_Ground--EE</title>
<path fill="none" stroke="black" d="M214.42,-241.05C205.54,-213.24 188.71,-160.51 179.95,-133.05"/>
</g>
<!-- View_Ground&#45;&#45;Video -->
<g id="edge15" class="edge">
<title>View_Ground--Video</title>
<path fill="none" stroke="black" d="M194.58,-241.08C158.61,-215.56 93.93,-169.69 61.24,-146.51"/>
</g>
<!-- Communicate_Externally&#45;&#45;Force -->
<g id="edge19" class="edge">
<title>Communicate_Externally--Force</title>
<path fill="none" stroke="black" d="M343.67,-210.71C328.01,-196.52 306.59,-177.1 291.77,-163.67"/>
</g>
<!-- Communicate_Externally&#45;&#45;EE -->
<g id="edge18" class="edge">
<title>Communicate_Externally--EE</title>
<path fill="none" stroke="black" d="M333.9,-211.08C294.95,-187.73 228.06,-147.64 194.61,-127.59"/>
</g>
<!-- Communicate_Externally&#45;&#45;Comms -->
<g id="edge17" class="edge">
<title>Communicate_Externally--Comms</title>
<path fill="none" stroke="black" d="M364.38,-211.01C365.21,-176.2 367.02,-100.23 367.85,-65.47"/>
</g>
<!-- Control_Rover -->
<g id="node1" class="node">
<title>Control_Rover</title>
<polygon fill="lightgray" stroke="black" points="302.7,-38.64 201.7,-38.64 201.7,-2.64 302.7,-2.64 302.7,-38.64"/>
<text text-anchor="middle" x="252.2" y="-16.94" font-family="Times New Roman,serif" font-size="14.00">Control_Rover</text>
</g>
<!-- Store_Energy -->
<g id="node2" class="node">
<title>Store_Energy</title>
<polygon fill="lightgray" stroke="black" points="191.51,-36 98.51,-36 98.51,0 191.51,0 191.51,-36"/>
<text text-anchor="middle" x="145.01" y="-14.3" font-family="Times New Roman,serif" font-size="14.00">Store_Energy</text>
</g>
<!-- Move_Rover -->
<g id="node3" class="node">
<title>Move_Rover</title>
<polygon fill="lightgray" stroke="black" points="181.52,-215.81 90.52,-215.81 90.52,-179.81 181.52,-179.81 181.52,-215.81"/>
<text text-anchor="middle" x="136.02" y="-194.11" font-family="Times New Roman,serif" font-size="14.00">Move_Rover</text>
</g>
<!-- View_Ground -->
<g id="node4" class="node">
<title>View_Ground</title>
<polygon fill="lightgray" stroke="black" points="268.23,-277.27 172.23,-277.27 172.23,-241.27 268.23,-241.27 268.23,-277.27"/>
<text text-anchor="middle" x="220.23" y="-255.57" font-family="Times New Roman,serif" font-size="14.00">View_Ground</text>
</g>
<!-- Communicate_Externally -->
<g id="node5" class="node">
<title>Communicate_Externally</title>
<polygon fill="lightgray" stroke="black" points="441.95,-247.09 285.95,-247.09 285.95,-211.09 441.95,-211.09 441.95,-247.09"/>
<text text-anchor="middle" x="363.95" y="-225.39" font-family="Times New Roman,serif" font-size="14.00">Communicate_Externally</text>
</g>
<!-- Ground -->
<g id="node6" class="node">
<title>Ground</title>
<ellipse fill="lightgray" stroke="black" cx="49.36" cy="-254.68" rx="38.99" ry="18"/>
<text text-anchor="middle" x="49.36" y="-250.98" font-family="Times New Roman,serif" font-size="14.00">Ground</text>
</g>
<!-- Force -->
<g id="node7" class="node">
<title>Force</title>
<ellipse fill="lightgray" stroke="black" cx="274.58" cy="-148.08" rx="32.49" ry="18"/>
<text text-anchor="middle" x="274.58" y="-144.38" font-family="Times New Roman,serif" font-size="14.00">Force</text>
</g>
<!-- EE -->
<g id="node8" class="node">
<title>EE</title>
<ellipse fill="lightgray" stroke="black" cx="174.33" cy="-115.44" rx="27" ry="18"/>
<text text-anchor="middle" x="174.33" y="-111.74" font-family="Times New Roman,serif" font-size="14.00">EE</text>
</g>
<!-- Video -->
<g id="node9" class="node">
<title>Video</title>
<ellipse fill="lightgray" stroke="black" cx="41.18" cy="-132.28" rx="32.49" ry="18"/>
<text text-anchor="middle" x="41.18" y="-128.58" font-family="Times New Roman,serif" font-size="14.00">Video</text>
</g>
<!-- Control -->
<g id="node10" class="node">
<title>Control</title>
<ellipse fill="lightgray" stroke="black" cx="38.35" cy="-20.33" rx="38.19" ry="18"/>
<text text-anchor="middle" x="38.35" y="-16.63" font-family="Times New Roman,serif" font-size="14.00">Control</text>
</g>
<!-- Comms -->
<g id="node11" class="node">
<title>Comms</title>
<ellipse fill="lightgray" stroke="black" cx="368.27" cy="-47.46" rx="39.79" ry="18"/>
<text text-anchor="middle" x="368.27" y="-43.76" font-family="Times New Roman,serif" font-size="14.00">Comms</text>
</g>
</g>
</svg>