<svg width="196" height="196" xmlns="http://www.w3.org/2000/svg" xmlns:xlink="http://www.w3.org/1999/xlink" xml:space="preserve" overflow="hidden"><g transform="translate(-641 -74)"><path d="M712.438 223.164C712.438 234.44 703.297 243.581 692.021 243.581 680.745 243.581 671.605 234.44 671.605 223.164 671.605 211.888 680.745 202.747 692.021 202.747 703.297 202.747 712.438 211.888 712.438 223.164Z" fill="#7F7F7F"/><path d="M808.396 123.122C808.396 134.398 799.255 143.539 787.98 143.539 776.704 143.539 767.563 134.398 767.563 123.122 767.563 111.847 776.704 102.706 787.98 102.706 799.255 102.706 808.396 111.847 808.396 123.122Z" fill="#7F7F7F"/><path d="M669.583 123.102 692.021 101.399 714.459 123.102 692.021 145.54 669.583 123.102Z" fill="#7F7F7F"/><path d="M767.563 202.625 808.396 202.625 808.396 243.458 767.563 243.458Z" fill="#7F7F7F"/><path d="M720.87 227.268 751.25 227.268 747.167 231.351 747.167 231.351C745.842 232.829 745.967 235.101 747.445 236.425 748.806 237.645 750.865 237.649 752.23 236.435L762.949 225.716C763.616 225.043 763.991 224.133 763.99 223.185 763.982 222.238 763.609 221.331 762.949 220.653L752.23 209.934C750.832 208.536 748.565 208.536 747.167 209.934 745.769 211.332 745.769 213.599 747.167 214.997L751.25 219.081 720.87 219.081Z" fill="#7F7F7F"/><path d="M719.482 125.552 730.2 136.271C731.61 137.658 733.877 137.64 735.264 136.23 736.651 134.82 736.633 132.554 735.223 131.167L731.14 127.083 759.417 127.083 759.417 118.917 731.16 118.917 735.243 114.833C736.641 113.441 736.646 111.178 735.254 109.78 733.861 108.382 731.599 108.377 730.2 109.77L719.482 120.489C718.091 121.89 718.091 124.151 719.482 125.552Z" fill="#7F7F7F"/><path d="M678.689 181.943C677.285 183.346 677.284 185.621 678.687 187.025 678.688 187.025 678.689 187.026 678.689 187.027L689.408 197.745C690.809 199.136 693.07 199.136 694.471 197.745L705.17 187.027C706.394 185.479 706.131 183.232 704.584 182.008 703.306 180.997 701.506 180.979 700.208 181.963L696.125 186.047 696.125 153.625 687.958 153.625 687.958 186.006 683.875 181.923C682.474 180.532 680.213 180.532 678.812 181.923Z" fill="#7F7F7F"/></g></svg>