<svg xmlns="http://www.w3.org/2000/svg" xmlns:xlink="http://www.w3.org/1999/xlink" width="896pt" height="444pt" viewBox="0.00 0.00 896.44 444.00">
<g id="graph0" class="graph" transform="scale(1 1) rotate(0) translate(4 440)">
<polygon fill="white" stroke="transparent" points="-4,4 -4,-440 892.44,-440 892.44,4 -4,4"/>
<!-- Rover -->
<g id="node1" class="node">
<title>Rover</title>
<polygon fill="lightgrey" stroke="grey" stroke-width="0" points="442.6,-436 377.61,-401.5 507.59,-401.5 442.6,-436"/>
<text text-anchor="middle" x="442.6" y="-409.3" font-family="Times New Roman,serif" font-size="14.00">Rover</text>
</g>
<!-- MoveRover -->
<g id="node2" class="node">
<title>MoveRover</title>
<polygon fill="lightgrey" stroke="grey" stroke-width="2" points="588.6,-231 506.6,-231 506.6,-195 588.6,-195 588.6,-231"/>
<text text-anchor="middle" x="547.6" y="-209.3" font-family="Times New Roman,serif" font-size="14.00">MoveRover</text>
</g>
<!-- Rover&#45;&gt;MoveRover -->
<g id="edge1" class="edge">
<title>Rover-&gt;MoveRover</title>
<path fill="none" stroke="black" d="M448.3,-401.29C457.6,-383.85 476.57,-348.21 492.6,-318 506.62,-291.56 522.62,-261.3 533.73,-240.27"/>
<polygon fill="black" stroke="black" points="538.46,-231.3 537.77,-242.25 536.13,-235.73 533.79,-240.15 533.79,-240.15 533.79,-240.15 536.13,-235.73 529.81,-238.05 538.46,-231.3 538.46,-231.3"/>
<text text-anchor="start" x="499.6" y="-306.8" font-family="Times New Roman,serif" font-size="14.00">contains</text>
</g>
<!-- Communicate -->
<g id="node3" class="node">
<title>Communicate</title>
<polygon fill="lightgrey" stroke="grey" stroke-width="2" points="144.6,-231 50.6,-231 50.6,-195 144.6,-195 144.6,-231"/>
<text text-anchor="middle" x="97.6" y="-209.3" font-family="Times New Roman,serif" font-size="14.00">Communicate</text>
</g>
<!-- Rover&#45;&gt;Communicate -->
<g id="edge2" class="edge">
<title>Rover-&gt;Communicate</title>
<path fill="none" stroke="black" d="M424.05,-401.35C369.76,-370.2 210.35,-278.71 136.26,-236.19"/>
<polygon fill="black" stroke="black" points="127.24,-231.01 138.15,-232.09 131.58,-233.5 135.91,-235.99 135.91,-235.99 135.91,-235.99 131.58,-233.5 133.67,-239.89 127.24,-231.01 127.24,-231.01"/>
<text text-anchor="start" x="270.6" y="-306.8" font-family="Times New Roman,serif" font-size="14.00">contains</text>
</g>
<!-- ViewGround -->
<g id="node4" class="node">
<title>ViewGround</title>
<polygon fill="lightgrey" stroke="grey" stroke-width="2" points="692.6,-231 606.6,-231 606.6,-195 692.6,-195 692.6,-231"/>
<text text-anchor="middle" x="649.6" y="-209.3" font-family="Times New Roman,serif" font-size="14.00">ViewGround</text>
</g>
<!-- Rover&#45;&gt;ViewGround -->
<g id="edge3" class="edge">
<title>Rover-&gt;ViewGround</title>
<path fill="none" stroke="black" d="M455.42,-401.34C475.82,-384.25 516.71,-349.44 549.6,-318 577.01,-291.79 606.98,-260.21 626.89,-238.77"/>
<polygon fill="black" stroke="black" points="633.74,-231.36 630.25,-241.76 630.35,-235.03 626.95,-238.7 626.95,-238.7 626.95,-238.7 630.35,-235.03 623.65,-235.65 633.74,-231.36 633.74,-231.36"/>
<text text-anchor="start" x="563.6" y="-306.8" font-family="Times New Roman,serif" font-size="14.00">contains</text>
</g>
<!-- StoreEnergy -->
<g id="node5" class="node">
<title>StoreEnergy</title>
<polygon fill="lightgrey" stroke="grey" stroke-width="2" points="378.6,-231 294.6,-231 294.6,-195 378.6,-195 378.6,-231"/>
<text text-anchor="middle" x="336.6" y="-209.3" font-family="Times New Roman,serif" font-size="14.00">StoreEnergy</text>
</g>
<!-- Rover&#45;&gt;StoreEnergy -->
<g id="edge4" class="edge">
<title>Rover-&gt;StoreEnergy</title>
<path fill="none" stroke="black" d="M436.9,-401.35C420.71,-371.12 374.12,-284.09 350.57,-240.11"/>
<polygon fill="black" stroke="black" points="345.78,-231.16 354.47,-237.85 348.14,-235.57 350.5,-239.98 350.5,-239.98 350.5,-239.98 348.14,-235.57 346.54,-242.1 345.78,-231.16 345.78,-231.16"/>
<text text-anchor="start" x="389.6" y="-306.8" font-family="Times New Roman,serif" font-size="14.00">contains</text>
</g>
<!-- ControlRover -->
<g id="node6" class="node">
<title>ControlRover</title>
<polygon fill="lightgrey" stroke="grey" stroke-width="2" points="488.1,-231 397.1,-231 397.1,-195 488.1,-195 488.1,-231"/>
<text text-anchor="middle" x="442.6" y="-209.3" font-family="Times New Roman,serif" font-size="14.00">ControlRover</text>
</g>
<!-- Rover&#45;&gt;ControlRover -->
<g id="edge5" class="edge">
<title>Rover-&gt;ControlRover</title>
<path fill="none" stroke="black" d="M442.6,-401.35C442.6,-371.38 442.6,-285.55 442.6,-241.22"/>
<polygon fill="black" stroke="black" points="442.6,-231.16 447.1,-241.16 442.6,-236.16 442.6,-241.16 442.6,-241.16 442.6,-241.16 442.6,-236.16 438.1,-241.16 442.6,-231.16 442.6,-231.16"/>
<text text-anchor="start" x="442.6" y="-306.8" font-family="Times New Roman,serif" font-size="14.00">contains</text>
</g>
<!-- EE -->
<g id="node8" class="node">
<title>EE</title>
<ellipse fill="lightgrey" stroke="grey" stroke-width="0" cx="200.6" cy="-18" rx="27" ry="18"/>
<text text-anchor="middle" x="200.6" y="-14.3" font-family="Times New Roman,serif" font-size="14.00">EE</text>
</g>
<!-- MoveRover&#45;&gt;EE -->
<g id="edge9" class="edge">
<title>MoveRover-&gt;EE</title>
<path fill="none" stroke="black" d="M506.46,-197.8C503.47,-196.83 500.49,-195.89 497.6,-195 382.58,-159.62 324.37,-205.32 236.6,-123 215.21,-102.94 206.52,-69.55 203,-46.02"/>
<polygon fill="black" stroke="black" points="201.72,-35.99 207.45,-45.34 202.35,-40.95 202.99,-45.91 202.99,-45.91 202.99,-45.91 202.35,-40.95 198.52,-46.48 201.72,-35.99 201.72,-35.99"/>
<text text-anchor="start" x="236.6" y="-111.8" font-family="Times New Roman,serif" font-size="14.00">contains</text>
</g>
<!-- Ground -->
<g id="node9" class="node">
<title>Ground</title>
<ellipse fill="lightgrey" stroke="grey" stroke-width="0" cx="743.6" cy="-18" rx="37.89" ry="18"/>
<text text-anchor="middle" x="743.6" y="-14.3" font-family="Times New Roman,serif" font-size="14.00">Ground</text>
</g>
<!-- MoveRover&#45;&gt;Ground -->
<g id="edge6" class="edge">
<title>MoveRover-&gt;Ground</title>
<path fill="none" stroke="black" d="M582.37,-194.88C611.69,-179.19 653.42,-153.75 682.6,-123 704.44,-99.99 721.8,-67.77 732.33,-45.31"/>
<polygon fill="black" stroke="black" points="736.55,-36.04 736.5,-47.01 734.48,-40.59 732.4,-45.14 732.4,-45.14 732.4,-45.14 734.48,-40.59 728.31,-43.28 736.55,-36.04 736.55,-36.04"/>
<text text-anchor="start" x="694.6" y="-111.8" font-family="Times New Roman,serif" font-size="14.00">contains</text>
</g>
<!-- Control -->
<g id="node10" class="node">
<title>Control</title>
<ellipse fill="lightgrey" stroke="grey" stroke-width="0" cx="442.6" cy="-18" rx="37.89" ry="18"/>
<text text-anchor="middle" x="442.6" y="-14.3" font-family="Times New Roman,serif" font-size="14.00">Control</text>
</g>
<!-- MoveRover&#45;&gt;Control -->
<g id="edge7" class="edge">
<title>MoveRover-&gt;Control</title>
<path fill="none" stroke="black" d="M538.28,-194.87C519.74,-160.79 478.15,-84.35 456.42,-44.4"/>
<polygon fill="black" stroke="black" points="451.6,-35.54 460.33,-42.17 453.99,-39.93 456.37,-44.32 456.37,-44.32 456.37,-44.32 453.99,-39.93 452.42,-46.47 451.6,-35.54 451.6,-35.54"/>
<text text-anchor="start" x="497.6" y="-111.8" font-family="Times New Roman,serif" font-size="14.00">contains</text>
</g>
<!-- Force -->
<g id="node12" class="node">
<title>Force</title>
<ellipse fill="lightgrey" stroke="grey" stroke-width="0" cx="614.6" cy="-18" rx="30.59" ry="18"/>
<text text-anchor="middle" x="614.6" y="-14.3" font-family="Times New Roman,serif" font-size="14.00">Force</text>
</g>
<!-- MoveRover&#45;&gt;Force -->
<g id="edge8" class="edge">
<title>MoveRover-&gt;Force</title>
<path fill="none" stroke="black" d="M552.67,-194.97C558.91,-174.29 569.98,-138.4 580.6,-108 588.03,-86.72 597.18,-62.88 604.12,-45.23"/>
<polygon fill="black" stroke="black" points="607.92,-35.63 608.43,-46.58 606.08,-40.28 604.24,-44.93 604.24,-44.93 604.24,-44.93 606.08,-40.28 600.06,-43.27 607.92,-35.63 607.92,-35.63"/>
<text text-anchor="start" x="580.6" y="-111.8" font-family="Times New Roman,serif" font-size="14.00">contains</text>
</g>
<!-- Flow -->
<g id="node7" class="node">
<title>Flow</title>
<ellipse fill="lightgrey" stroke="grey" stroke-width="0" cx="28.6" cy="-18" rx="28.7" ry="18"/>
<text text-anchor="middle" x="28.6" y="-14.3" font-family="Times New Roman,serif" font-size="14.00">Flow</text>
</g>
<!-- Communicate&#45;&gt;Flow -->
<g id="edge10" class="edge">
<title>Communicate-&gt;Flow</title>
<path fill="none" stroke="black" d="M78.77,-194.68C62.26,-178.12 39.39,-151.5 29.6,-123 21.01,-98.02 21.91,-67.63 24.26,-46.17"/>
<polygon fill="black" stroke="black" points="25.54,-36.13 28.74,-46.61 24.91,-41.09 24.28,-46.05 24.28,-46.05 24.28,-46.05 24.91,-41.09 19.81,-45.48 25.54,-36.13 25.54,-36.13"/>
<text text-anchor="start" x="29.6" y="-111.8" font-family="Times New Roman,serif" font-size="14.00">contains</text>
</g>
<!-- Communicate&#45;&gt;EE -->
<g id="edge11" class="edge">
<title>Communicate-&gt;EE</title>
<path fill="none" stroke="black" d="M93.65,-194.87C89.62,-173.46 85.61,-136.21 98.6,-108 113.5,-75.63 146.53,-50.38 170.99,-35.18"/>
<polygon fill="black" stroke="black" points="179.89,-29.85 173.62,-38.85 175.6,-32.42 171.31,-34.99 171.31,-34.99 171.31,-34.99 175.6,-32.42 169,-31.13 179.89,-29.85 179.89,-29.85"/>
<text text-anchor="start" x="98.6" y="-111.8" font-family="Times New Roman,serif" font-size="14.00">contains</text>
</g>
<!-- ViewGround&#45;&gt;EE -->
<g id="edge15" class="edge">
<title>ViewGround-&gt;EE</title>
<path fill="none" stroke="black" d="M606.52,-197.74C603.5,-196.8 600.51,-195.88 597.6,-195 481.95,-160.23 443.68,-176.86 335.6,-123 291.63,-101.09 247.91,-63.86 222.61,-40.39"/>
<polygon fill="black" stroke="black" points="215.06,-33.29 225.43,-36.87 218.71,-36.72 222.35,-40.14 222.35,-40.14 222.35,-40.14 218.71,-36.72 219.26,-43.42 215.06,-33.29 215.06,-33.29"/>
<text text-anchor="start" x="335.6" y="-111.8" font-family="Times New Roman,serif" font-size="14.00">contains</text>
</g>
<!-- ViewGround&#45;&gt;Ground -->
<g id="edge12" class="edge">
<title>ViewGround-&gt;Ground</title>
<path fill="none" stroke="black" d="M686.93,-194.93C714.27,-180.18 749.32,-156.01 765.6,-123 777.9,-98.06 768.09,-66.44 757.95,-44.65"/>
<polygon fill="black" stroke="black" points="753.49,-35.68 761.97,-42.63 755.71,-40.16 757.94,-44.63 757.94,-44.63 757.94,-44.63 755.71,-40.16 753.91,-46.64 753.49,-35.68 753.49,-35.68"/>
<text text-anchor="start" x="769.6" y="-111.8" font-family="Times New Roman,serif" font-size="14.00">contains</text>
</g>
<!-- Video -->
<g id="node11" class="node">
<title>Video</title>
<ellipse fill="lightgrey" stroke="grey" stroke-width="0" cx="856.6" cy="-18" rx="31.7" ry="18"/>
<text text-anchor="middle" x="856.6" y="-14.3" font-family="Times New Roman,serif" font-size="14.00">Video</text>
</g>
<!-- ViewGround&#45;&gt;Video -->
<g id="edge13" class="edge">
<title>ViewGround-&gt;Video</title>
<path fill="none" stroke="black" d="M692.66,-199.45C730.92,-186.23 785.85,-161.86 819.6,-123 838.58,-101.14 848.05,-68.86 852.61,-46.08"/>
<polygon fill="black" stroke="black" points="854.43,-36.04 857.08,-46.68 853.54,-40.96 852.65,-45.88 852.65,-45.88 852.65,-45.88 853.54,-40.96 848.22,-45.08 854.43,-36.04 854.43,-36.04"/>
<text text-anchor="start" x="829.6" y="-111.8" font-family="Times New Roman,serif" font-size="14.00">contains</text>
</g>
<!-- ViewGround&#45;&gt;Force -->
<g id="edge14" class="edge">
<title>ViewGround-&gt;Force</title>
<path fill="none" stroke="black" d="M646.49,-194.87C640.39,-161.25 626.82,-86.39 619.5,-46.03"/>
<polygon fill="black" stroke="black" points="617.7,-36.09 623.91,-45.13 618.59,-41.01 619.48,-45.93 619.48,-45.93 619.48,-45.93 618.59,-41.01 615.05,-46.73 617.7,-36.09 617.7,-36.09"/>
<text text-anchor="start" x="632.6" y="-111.8" font-family="Times New Roman,serif" font-size="14.00">contains</text>
</g>
<!-- StoreEnergy&#45;&gt;EE -->
<g id="edge17" class="edge">
<title>StoreEnergy-&gt;EE</title>
<path fill="none" stroke="black" d="M294.31,-202.9C253.81,-191.69 194.93,-168.28 167.6,-123 152.37,-97.77 167.84,-64.8 182.31,-42.81"/>
<polygon fill="black" stroke="black" points="188.16,-34.4 186.15,-45.18 185.31,-38.5 182.45,-42.61 182.45,-42.61 182.45,-42.61 185.31,-38.5 178.76,-40.04 188.16,-34.4 188.16,-34.4"/>
<text text-anchor="start" x="167.6" y="-111.8" font-family="Times New Roman,serif" font-size="14.00">contains</text>
</g>
<!-- StoreEnergy&#45;&gt;Control -->
<g id="edge16" class="edge">
<title>StoreEnergy-&gt;Control</title>
<path fill="none" stroke="black" d="M345.82,-194.65C356.84,-173.96 375.89,-138.37 392.6,-108 404.35,-86.64 417.9,-62.55 427.93,-44.82"/>
<polygon fill="black" stroke="black" points="433.11,-35.68 432.09,-46.6 430.64,-40.03 428.18,-44.38 428.18,-44.38 428.18,-44.38 430.64,-40.03 424.26,-42.16 433.11,-35.68 433.11,-35.68"/>
<text text-anchor="start" x="392.6" y="-111.8" font-family="Times New Roman,serif" font-size="14.00">contains</text>
</g>
<!-- ControlRover&#45;&gt;Control -->
<g id="edge18" class="edge">
<title>ControlRover-&gt;Control</title>
<path fill="none" stroke="black" d="M442.6,-194.87C442.6,-161.32 442.6,-86.71 442.6,-46.29"/>
<polygon fill="black" stroke="black" points="442.6,-36.09 447.1,-46.09 442.6,-41.09 442.6,-46.09 442.6,-46.09 442.6,-46.09 442.6,-41.09 438.1,-46.09 442.6,-36.09 442.6,-36.09"/>
<text text-anchor="start" x="442.6" y="-111.8" font-family="Times New Roman,serif" font-size="14.00">contains</text>
</g>
</g>
</svg>