<svg xmlns="http://www.w3.org/2000/svg" xmlns:xlink="http://www.w3.org/1999/xlink" width="451pt" height="237pt" viewBox="0.00 0.00 450.91 237.06">
<g id="graph0" class="graph" transform="scale(1 1) rotate(0) translate(4 233.06)">
<polygon fill="white" stroke="transparent" points="-4,4 -4,-233.06 446.91,-233.06 446.91,4 -4,4"/>
<!-- control_rover -->
<g id="node1" class="node">
<title>control_rover</title>
<polygon fill="lightgrey" stroke="grey" stroke-width="2" points="233.59,-105.46 143.59,-105.46 143.59,-67.46 233.59,-67.46 233.59,-105.46"/>
<text text-anchor="middle" x="188.59" y="-90.26" font-family="Times New Roman,serif" font-size="14.00">control_rover</text>
<text text-anchor="middle" x="188.59" y="-75.26" font-family="Times New Roman,serif" font-size="14.00">[]</text>
</g>
<!-- force -->
<g id="node7" class="node">
<title>force</title>
<ellipse fill="lightgrey" stroke="grey" stroke-width="0" cx="190.75" cy="-154.45" rx="28.7" ry="18"/>
<text text-anchor="middle" x="190.75" y="-150.75" font-family="Times New Roman,serif" font-size="14.00">force</text>
</g>
<!-- control_rover&#45;&gt;force -->
<g id="edge5" class="edge">
<title>control_rover-&gt;force</title>
<path fill="none" stroke="black" d="M189.21,-105.76C189.4,-112.05 189.63,-119.16 189.85,-125.98"/>
<polygon fill="black" stroke="black" points="190.17,-136.27 185.36,-126.42 190.01,-131.27 189.85,-126.28 189.85,-126.28 189.85,-126.28 190.01,-131.27 194.35,-126.13 190.17,-136.27 190.17,-136.27"/>
<text text-anchor="start" x="189.53" y="-119.67" font-family="Times New Roman,serif" font-size="14.00">contains</text>
</g>
<!-- ee -->
<g id="node8" class="node">
<title>ee</title>
<ellipse fill="lightgrey" stroke="grey" stroke-width="0" cx="50.96" cy="-36.76" rx="27" ry="18"/>
<text text-anchor="middle" x="50.96" y="-33.06" font-family="Times New Roman,serif" font-size="14.00">ee</text>
</g>
<!-- control_rover&#45;&gt;ee -->
<g id="edge3" class="edge">
<title>control_rover-&gt;ee</title>
<path fill="none" stroke="black" d="M143.53,-70.19C124.39,-63.28 102.46,-55.36 84.75,-48.96"/>
<polygon fill="black" stroke="black" points="74.86,-45.39 85.8,-44.56 79.57,-47.09 84.27,-48.79 84.27,-48.79 84.27,-48.79 79.57,-47.09 82.74,-53.02 74.86,-45.39 74.86,-45.39"/>
<text text-anchor="start" x="68.14" y="-63.38" font-family="Times New Roman,serif" font-size="14.00">contains</text>
</g>
<!-- video -->
<g id="node9" class="node">
<title>video</title>
<ellipse fill="lightgrey" stroke="grey" stroke-width="0" cx="144.69" cy="-18" rx="30.59" ry="18"/>
<text text-anchor="middle" x="144.69" y="-14.3" font-family="Times New Roman,serif" font-size="14.00">video</text>
</g>
<!-- control_rover&#45;&gt;video -->
<g id="edge1" class="edge">
<title>control_rover-&gt;video</title>
<path fill="none" stroke="black" d="M176.37,-67.39C171.65,-60.03 166.18,-51.5 161.12,-43.62"/>
<polygon fill="black" stroke="black" points="155.66,-35.1 164.84,-41.09 158.36,-39.31 161.06,-43.52 161.06,-43.52 161.06,-43.52 158.36,-39.31 157.27,-45.95 155.66,-35.1 155.66,-35.1"/>
<text text-anchor="start" x="122.74" y="-44.31" font-family="Times New Roman,serif" font-size="14.00">contains</text>
</g>
<!-- control -->
<g id="node10" class="node">
<title>control</title>
<ellipse fill="lightgrey" stroke="grey" stroke-width="0" cx="241.83" cy="-19.84" rx="36" ry="18"/>
<text text-anchor="middle" x="241.83" y="-16.14" font-family="Times New Roman,serif" font-size="14.00">control</text>
</g>
<!-- control_rover&#45;&gt;control -->
<g id="edge4" class="edge">
<title>control_rover-&gt;control</title>
<path fill="none" stroke="black" d="M203.99,-67.19C209.68,-60.08 216.19,-51.92 222.2,-44.41"/>
<polygon fill="black" stroke="black" points="228.46,-36.58 225.73,-47.2 225.33,-40.49 222.21,-44.39 222.21,-44.39 222.21,-44.39 225.33,-40.49 218.7,-41.58 228.46,-36.58 228.46,-36.58"/>
<text text-anchor="start" x="213.1" y="-44.6" font-family="Times New Roman,serif" font-size="14.00">contains</text>
</g>
<!-- comms -->
<g id="node11" class="node">
<title>comms</title>
<ellipse fill="lightgrey" stroke="grey" stroke-width="0" cx="366.9" cy="-23.59" rx="37.09" ry="18"/>
<text text-anchor="middle" x="366.9" y="-19.89" font-family="Times New Roman,serif" font-size="14.00">comms</text>
</g>
<!-- control_rover&#45;&gt;comms -->
<g id="edge2" class="edge">
<title>control_rover-&gt;comms</title>
<path fill="none" stroke="black" d="M234.05,-70.43C262.72,-60.32 299.4,-47.39 326.95,-37.67"/>
<polygon fill="black" stroke="black" points="336.66,-34.25 328.72,-41.82 331.94,-35.91 327.23,-37.58 327.23,-37.58 327.23,-37.58 331.94,-35.91 325.73,-33.33 336.66,-34.25 336.66,-34.25"/>
<text text-anchor="start" x="280.5" y="-57.85" font-family="Times New Roman,serif" font-size="14.00">contains</text>
</g>
<!-- view_ground -->
<g id="node2" class="node">
<title>view_ground</title>
<polygon fill="lightgrey" stroke="grey" stroke-width="2" points="364.01,-135.68 276.01,-135.68 276.01,-97.68 364.01,-97.68 364.01,-135.68"/>
<text text-anchor="middle" x="320.01" y="-120.48" font-family="Times New Roman,serif" font-size="14.00">view_ground</text>
<text text-anchor="middle" x="320.01" y="-105.48" font-family="Times New Roman,serif" font-size="14.00">[]</text>
</g>
<!-- ground -->
<g id="node6" class="node">
<title>ground</title>
<ellipse fill="orange" stroke="grey" stroke-width="0" cx="407.17" cy="-163.04" rx="36" ry="18"/>
<text text-anchor="middle" x="407.17" y="-159.34" font-family="Times New Roman,serif" font-size="14.00">ground</text>
</g>
<!-- view_ground&#45;&gt;ground -->
<g id="edge13" class="edge">
<title>view_ground-&gt;ground</title>
<path fill="none" stroke="black" d="M355.97,-135.8C361.67,-138.84 367.56,-141.97 373.22,-144.98"/>
<polygon fill="black" stroke="black" points="382.46,-149.9 371.51,-149.17 378.04,-147.55 373.63,-145.2 373.63,-145.2 373.63,-145.2 378.04,-147.55 375.74,-141.23 382.46,-149.9 382.46,-149.9"/>
<text text-anchor="start" x="318.59" y="-144.19" font-family="Times New Roman,serif" font-size="14.00">contains</text>
</g>
<!-- view_ground&#45;&gt;force -->
<g id="edge16" class="edge">
<title>view_ground-&gt;force</title>
<path fill="none" stroke="black" d="M275.89,-129.57C259.81,-134.27 241.84,-139.52 226.57,-143.98"/>
<polygon fill="black" stroke="black" points="216.97,-146.79 225.31,-139.66 221.77,-145.39 226.57,-143.98 226.57,-143.98 226.57,-143.98 221.77,-145.39 227.83,-148.3 216.97,-146.79 216.97,-146.79"/>
<text text-anchor="start" x="251.23" y="-140.58" font-family="Times New Roman,serif" font-size="14.00">contains</text>
</g>
<!-- view_ground&#45;&gt;ee -->
<g id="edge14" class="edge">
<title>view_ground-&gt;ee</title>
<path fill="none" stroke="black" d="M275.89,-103.57C222.58,-87.74 134.03,-61.43 85.45,-47.01"/>
<polygon fill="black" stroke="black" points="75.72,-44.12 86.59,-42.65 80.52,-45.54 85.31,-46.97 85.31,-46.97 85.31,-46.97 80.52,-45.54 84.03,-51.28 75.72,-44.12 75.72,-44.12"/>
<text text-anchor="start" x="134.67" y="-64.09" font-family="Times New Roman,serif" font-size="14.00">contains</text>
</g>
<!-- view_ground&#45;&gt;video -->
<g id="edge15" class="edge">
<title>view_ground-&gt;video</title>
<path fill="none" stroke="black" d="M286.21,-97.65C254.38,-79.73 207.08,-53.11 176.06,-35.66"/>
<polygon fill="black" stroke="black" points="167,-30.55 177.92,-31.54 171.36,-33.01 175.71,-35.46 175.71,-35.46 175.71,-35.46 171.36,-33.01 173.51,-39.38 167,-30.55 167,-30.55"/>
<text text-anchor="start" x="231.14" y="-70.45" font-family="Times New Roman,serif" font-size="14.00">contains</text>
</g>
<!-- communicate -->
<g id="node3" class="node">
<title>communicate</title>
<polygon fill="lightgrey" stroke="grey" stroke-width="2" points="322.19,-227.03 231.19,-227.03 231.19,-189.03 322.19,-189.03 322.19,-227.03"/>
<text text-anchor="middle" x="276.69" y="-211.83" font-family="Times New Roman,serif" font-size="14.00">communicate</text>
<text text-anchor="middle" x="276.69" y="-196.83" font-family="Times New Roman,serif" font-size="14.00">[]</text>
</g>
<!-- communicate&#45;&gt;force -->
<g id="edge19" class="edge">
<title>communicate-&gt;force</title>
<path fill="none" stroke="black" d="M246.15,-188.99C237.55,-183.63 228.23,-177.82 219.73,-172.52"/>
<polygon fill="black" stroke="black" points="211.24,-167.23 222.1,-168.7 215.48,-169.87 219.72,-172.52 219.72,-172.52 219.72,-172.52 215.48,-169.87 217.34,-176.34 211.24,-167.23 211.24,-167.23"/>
<text text-anchor="start" x="232.94" y="-169.56" font-family="Times New Roman,serif" font-size="14.00">contains</text>
</g>
<!-- communicate&#45;&gt;ee -->
<g id="edge18" class="edge">
<title>communicate-&gt;ee</title>
<path fill="none" stroke="black" d="M251.23,-188.72C207.99,-155.91 120.66,-89.65 77.01,-56.53"/>
<polygon fill="black" stroke="black" points="68.89,-50.37 79.58,-52.83 72.88,-53.39 76.86,-56.42 76.86,-56.42 76.86,-56.42 72.88,-53.39 74.14,-60 68.89,-50.37 68.89,-50.37"/>
<text text-anchor="start" x="118.12" y="-111.42" font-family="Times New Roman,serif" font-size="14.00">contains</text>
</g>
<!-- communicate&#45;&gt;comms -->
<g id="edge17" class="edge">
<title>communicate-&gt;comms</title>
<path fill="none" stroke="black" d="M286,-188.99C302.12,-156.04 335.25,-88.3 353.72,-50.53"/>
<polygon fill="black" stroke="black" points="358.3,-41.17 357.95,-52.13 356.1,-45.66 353.9,-50.15 353.9,-50.15 353.9,-50.15 356.1,-45.66 349.86,-48.18 358.3,-41.17 358.3,-41.17"/>
<text text-anchor="start" x="273.86" y="-123.56" font-family="Times New Roman,serif" font-size="14.00">contains</text>
</g>
<!-- store_energy -->
<g id="node4" class="node">
<title>store_energy</title>
<polygon fill="orange" stroke="red" stroke-width="2" points="161.04,-229.06 75.04,-229.06 75.04,-191.06 161.04,-191.06 161.04,-229.06"/>
<text text-anchor="middle" x="118.04" y="-213.86" font-family="Times New Roman,serif" font-size="14.00">store_energy</text>
<text text-anchor="middle" x="118.04" y="-198.86" font-family="Times New Roman,serif" font-size="14.00">['no_charge']</text>
</g>
<!-- store_energy&#45;&gt;force -->
<g id="edge7" class="edge">
<title>store_energy-&gt;force</title>
<path fill="none" stroke="black" d="M143.06,-190.92C149.88,-185.71 157.28,-180.05 164.18,-174.77"/>
<polygon fill="black" stroke="black" points="172.57,-168.36 167.36,-178.01 168.59,-171.39 164.62,-174.43 164.62,-174.43 164.62,-174.43 168.59,-171.39 161.89,-170.86 172.57,-168.36 172.57,-168.36"/>
<text text-anchor="start" x="107.62" y="-171.65" font-family="Times New Roman,serif" font-size="14.00">contains</text>
</g>
<!-- store_energy&#45;&gt;ee -->
<g id="edge6" class="edge">
<title>store_energy-&gt;ee</title>
<path fill="none" stroke="black" d="M110.6,-190.85C98.65,-159.97 75.12,-99.19 61.46,-63.89"/>
<polygon fill="black" stroke="black" points="57.72,-54.24 65.53,-61.94 59.53,-58.9 61.33,-63.56 61.33,-63.56 61.33,-63.56 59.53,-58.9 57.13,-65.19 57.72,-54.24 57.72,-54.24"/>
<text text-anchor="start" x="40.03" y="-116.17" font-family="Times New Roman,serif" font-size="14.00">contains</text>
</g>
<!-- store_energy&#45;&gt;control -->
<g id="edge8" class="edge">
<title>store_energy-&gt;control</title>
<path fill="none" stroke="black" d="M130.59,-190.78C153.01,-156.32 199.94,-84.21 225.09,-45.57"/>
<polygon fill="black" stroke="black" points="230.69,-36.97 229.01,-47.8 227.96,-41.16 225.23,-45.35 225.23,-45.35 225.23,-45.35 227.96,-41.16 221.46,-42.89 230.69,-36.97 230.69,-36.97"/>
<text text-anchor="start" x="131.84" y="-121.97" font-family="Times New Roman,serif" font-size="14.00">contains</text>
</g>
<!-- move_rover -->
<g id="node5" class="node">
<title>move_rover</title>
<polygon fill="lightgrey" stroke="red" stroke-width="2" points="83.26,-174.71 0.26,-174.71 0.26,-136.71 83.26,-136.71 83.26,-174.71"/>
<text text-anchor="middle" x="41.76" y="-159.51" font-family="Times New Roman,serif" font-size="14.00">move_rover</text>
<text text-anchor="middle" x="41.76" y="-144.51" font-family="Times New Roman,serif" font-size="14.00">['short']</text>
</g>
<!-- move_rover&#45;&gt;ground -->
<g id="edge9" class="edge">
<title>move_rover-&gt;ground</title>
<path fill="none" stroke="black" d="M83.32,-156.54C152.23,-157.93 289.63,-160.68 361.28,-162.12"/>
<polygon fill="black" stroke="black" points="371.36,-162.32 361.28,-166.62 366.36,-162.22 361.37,-162.12 361.37,-162.12 361.37,-162.12 366.36,-162.22 361.46,-157.62 371.36,-162.32 371.36,-162.32"/>
<text text-anchor="start" x="222.3" y="-148.13" font-family="Times New Roman,serif" font-size="14.00">contains</text>
</g>
<!-- move_rover&#45;&gt;force -->
<g id="edge10" class="edge">
<title>move_rover-&gt;force</title>
<path fill="none" stroke="black" d="M83.26,-155.36C104.62,-155.18 130.52,-154.96 151.54,-154.78"/>
<polygon fill="black" stroke="black" points="161.73,-154.7 151.77,-159.28 156.73,-154.74 151.73,-154.78 151.73,-154.78 151.73,-154.78 156.73,-154.74 151.69,-150.28 161.73,-154.7 161.73,-154.7"/>
<text text-anchor="start" x="105.9" y="-143.87" font-family="Times New Roman,serif" font-size="14.00">contains</text>
</g>
<!-- move_rover&#45;&gt;ee -->
<g id="edge11" class="edge">
<title>move_rover-&gt;ee</title>
<path fill="none" stroke="black" d="M43.24,-136.6C44.73,-117.3 47.05,-87.26 48.76,-65.17"/>
<polygon fill="black" stroke="black" points="49.54,-55.04 53.26,-65.36 49.16,-60.03 48.77,-65.02 48.77,-65.02 48.77,-65.02 49.16,-60.03 44.29,-64.67 49.54,-55.04 49.54,-55.04"/>
<text text-anchor="start" x="0" y="-89.68" font-family="Times New Roman,serif" font-size="14.00">contains</text>
</g>
<!-- move_rover&#45;&gt;control -->
<g id="edge12" class="edge">
<title>move_rover-&gt;control</title>
<path fill="none" stroke="black" d="M70,-136.53C107.5,-111.07 173.43,-66.29 211.81,-40.23"/>
<polygon fill="black" stroke="black" points="220.47,-34.35 214.73,-43.69 216.34,-37.16 212.2,-39.96 212.2,-39.96 212.2,-39.96 216.34,-37.16 209.67,-36.24 220.47,-34.35 220.47,-34.35"/>
<text text-anchor="start" x="94.9" y="-92.18" font-family="Times New Roman,serif" font-size="14.00">contains</text>
</g>
</g>
</svg>