<?xml version="1.0" encoding="UTF-8" standalone="no"?>
<!DOCTYPE svg PUBLIC "-//W3C//DTD SVG 1.1//EN"
 "http://www.w3.org/Graphics/SVG/1.1/DTD/svg11.dtd">
<!-- Generated by graphviz version 2.47.3 (20210619.1520)
 -->
<!-- Pages: 1 -->
<svg width="392pt" height="249pt"
 viewBox="0.00 0.00 391.72 248.78" xmlns="http://www.w3.org/2000/svg" xmlns:xlink="http://www.w3.org/1999/xlink">
<g id="graph0" class="graph" transform="scale(1 1) rotate(0) translate(4 244.78)">
<polygon fill="white" stroke="transparent" points="-4,4 -4,-244.78 387.72,-244.78 387.72,4 -4,4"/>
<!-- ImportEE&#45;&#45;EE_1 -->
<g id="edge1" class="edge">
<title>ImportEE&#45;&#45;EE_1</title>
<path fill="none" stroke="black" d="M300.15,-209.02C288.04,-209.91 274.77,-210.87 263.24,-211.71"/>
</g>
<!-- ImportWater&#45;&#45;Wat_1 -->
<g id="edge2" class="edge">
<title>ImportWater&#45;&#45;Wat_1</title>
<path fill="none" stroke="black" d="M89.24,-20.14C94.89,-20.11 100.61,-20.08 106.09,-20.04"/>
</g>
<!-- ImportSignal&#45;&#45;Sig_1 -->
<g id="edge3" class="edge">
<title>ImportSignal&#45;&#45;Sig_1</title>
<path fill="none" stroke="black" d="M85.66,-200.12C92.47,-196.42 99.49,-192.61 105.85,-189.16"/>
</g>
<!-- MoveWater&#45;&#45;EE_1 -->
<g id="edge4" class="edge">
<title>MoveWater&#45;&#45;EE_1</title>
<path fill="none" stroke="black" d="M209.75,-143.66C215.51,-161.21 222.26,-181.77 226.97,-196.11"/>
</g>
<!-- MoveWater&#45;&#45;Sig_1 -->
<g id="edge5" class="edge">
<title>MoveWater&#45;&#45;Sig_1</title>
<path fill="none" stroke="black" d="M162.93,-143.56C156.81,-149.54 150.72,-155.47 145.43,-160.63"/>
</g>
<!-- MoveWater&#45;&#45;Wat_1 -->
<g id="edge6" class="edge">
<title>MoveWater&#45;&#45;Wat_1</title>
<path fill="none" stroke="black" d="M176.16,-74.28C168.04,-61.56 159.19,-47.72 152.45,-37.17"/>
</g>
<!-- MoveWater&#45;&#45;Wat_2 -->
<g id="edge7" class="edge">
<title>MoveWater&#45;&#45;Wat_2</title>
<path fill="none" stroke="black" d="M218.7,-74.39C224.94,-63.76 231.55,-52.52 236.8,-43.58"/>
</g>
<!-- ExportWater&#45;&#45;Wat_2 -->
<g id="edge8" class="edge">
<title>ExportWater&#45;&#45;Wat_2</title>
<path fill="none" stroke="black" d="M294.45,-22.01C290.13,-22.39 285.8,-22.78 281.61,-23.16"/>
</g>
<!-- ImportEE -->
<g id="node1" class="node">
<title>ImportEE</title>
<polygon fill="red" stroke="black" points="375.22,-240.78 300.22,-240.78 300.22,-171.78 375.22,-171.78 375.22,-240.78"/>
<text text-anchor="middle" x="337.72" y="-225.58" font-family="Times New Roman,serif" font-size="14.00">ImportEE </text>
<text text-anchor="middle" x="337.72" y="-210.58" font-family="Times New Roman,serif" font-size="14.00"> </text>
<text text-anchor="middle" x="337.72" y="-179.58" font-family="Times New Roman,serif" font-size="14.00"> {&#39;no_v&#39;}</text>
</g>
<!-- ImportWater -->
<g id="node2" class="node">
<title>ImportWater</title>
<polygon fill="lightgray" stroke="black" points="89,-38.41 0,-38.41 0,-2.41 89,-2.41 89,-38.41"/>
<text text-anchor="middle" x="44.5" y="-16.71" font-family="Times New Roman,serif" font-size="14.00">ImportWater</text>
</g>
<!-- ImportSignal -->
<g id="node3" class="node">
<title>ImportSignal</title>
<polygon fill="lightgray" stroke="black" points="96.6,-236.33 7.6,-236.33 7.6,-200.33 96.6,-200.33 96.6,-236.33"/>
<text text-anchor="middle" x="52.1" y="-214.63" font-family="Times New Roman,serif" font-size="14.00">ImportSignal</text>
</g>
<!-- MoveWater -->
<g id="node4" class="node">
<title>MoveWater</title>
<polygon fill="red" stroke="black" points="241.37,-143.51 155.37,-143.51 155.37,-74.51 241.37,-74.51 241.37,-143.51"/>
<text text-anchor="middle" x="198.37" y="-128.31" font-family="Times New Roman,serif" font-size="14.00">MoveWater </text>
<text text-anchor="middle" x="198.37" y="-113.31" font-family="Times New Roman,serif" font-size="14.00"> </text>
<text text-anchor="middle" x="198.37" y="-82.31" font-family="Times New Roman,serif" font-size="14.00"> {&#39;short&#39;}</text>
</g>
<!-- ExportWater -->
<g id="node5" class="node">
<title>ExportWater</title>
<polygon fill="lightgray" stroke="black" points="383.72,-36 294.72,-36 294.72,0 383.72,0 383.72,-36"/>
<text text-anchor="middle" x="339.22" y="-14.3" font-family="Times New Roman,serif" font-size="14.00">ExportWater</text>
</g>
<!-- EE_1 -->
<g id="node6" class="node">
<title>EE_1</title>
<ellipse fill="orange" stroke="black" cx="232.82" cy="-213.93" rx="30.59" ry="18"/>
<text text-anchor="middle" x="232.82" y="-210.23" font-family="Times New Roman,serif" font-size="14.00">EE_1</text>
</g>
<!-- Sig_1 -->
<g id="node7" class="node">
<title>Sig_1</title>
<ellipse fill="lightgray" stroke="black" cx="129.12" cy="-176.54" rx="31.7" ry="18"/>
<text text-anchor="middle" x="129.12" y="-172.84" font-family="Times New Roman,serif" font-size="14.00">Sig_1</text>
</g>
<!-- Wat_1 -->
<g id="node8" class="node">
<title>Wat_1</title>
<ellipse fill="lightgray" stroke="black" cx="141.36" cy="-19.83" rx="35.19" ry="18"/>
<text text-anchor="middle" x="141.36" y="-16.13" font-family="Times New Roman,serif" font-size="14.00">Wat_1</text>
</g>
<!-- Wat_2 -->
<g id="node9" class="node">
<title>Wat_2</title>
<ellipse fill="lightgray" stroke="black" cx="246.98" cy="-26.25" rx="35.19" ry="18"/>
<text text-anchor="middle" x="246.98" y="-22.55" font-family="Times New Roman,serif" font-size="14.00">Wat_2</text>
</g>
</g>
</svg>
