<svg xmlns="http://www.w3.org/2000/svg" xmlns:xlink="http://www.w3.org/1999/xlink" width="597pt" height="444pt" viewBox="0.00 0.00 596.85 444.00">
<g id="graph0" class="graph" transform="scale(1 1) rotate(0) translate(4 440)">
<polygon fill="white" stroke="transparent" points="-4,4 -4,-440 592.85,-440 592.85,4 -4,4"/>
<!-- Rover -->
<g id="node1" class="node">
<title>Rover</title>
<polygon fill="lightgrey" stroke="grey" stroke-width="0" points="288.3,-436 223.31,-401.5 353.29,-401.5 288.3,-436"/>
<text text-anchor="middle" x="288.3" y="-409.3" font-family="Times New Roman,serif" font-size="14.00">Rover</text>
</g>
<!-- StoreEnergy -->
<g id="node2" class="node">
<title>StoreEnergy</title>
<polygon fill="lightgrey" stroke="grey" stroke-width="2" points="168.3,-231 84.3,-231 84.3,-195 168.3,-195 168.3,-231"/>
<text text-anchor="middle" x="126.3" y="-209.3" font-family="Times New Roman,serif" font-size="14.00">StoreEnergy</text>
</g>
<!-- Rover&#45;&gt;StoreEnergy -->
<g id="edge1" class="edge">
<title>Rover-&gt;StoreEnergy</title>
<path fill="none" stroke="black" d="M278.73,-401.47C263.21,-384.28 231.69,-348.99 206.3,-318 184.72,-291.67 161.08,-260.65 145.13,-239.38"/>
<polygon fill="black" stroke="black" points="139.01,-231.18 148.6,-236.5 142,-235.19 144.99,-239.19 144.99,-239.19 144.99,-239.19 142,-235.19 141.39,-241.89 139.01,-231.18 139.01,-231.18"/>
<text text-anchor="start" x="206.3" y="-306.8" font-family="Times New Roman,serif" font-size="14.00">contains</text>
</g>
<!-- MoveRover -->
<g id="node3" class="node">
<title>MoveRover</title>
<polygon fill="lightgrey" stroke="grey" stroke-width="2" points="268.3,-231 186.3,-231 186.3,-195 268.3,-195 268.3,-231"/>
<text text-anchor="middle" x="227.3" y="-209.3" font-family="Times New Roman,serif" font-size="14.00">MoveRover</text>
</g>
<!-- Rover&#45;&gt;MoveRover -->
<g id="edge2" class="edge">
<title>Rover-&gt;MoveRover</title>
<path fill="none" stroke="black" d="M285.02,-401.35C275.76,-371.31 249.23,-285.18 235.6,-240.94"/>
<polygon fill="black" stroke="black" points="232.58,-231.16 239.83,-239.39 234.06,-235.94 235.53,-240.72 235.53,-240.72 235.53,-240.72 234.06,-235.94 231.23,-242.04 232.58,-231.16 232.58,-231.16"/>
<text text-anchor="start" x="258.3" y="-306.8" font-family="Times New Roman,serif" font-size="14.00">contains</text>
</g>
<!-- ControlRover -->
<g id="node4" class="node">
<title>ControlRover</title>
<polygon fill="lightgrey" stroke="grey" stroke-width="2" points="377.8,-231 286.8,-231 286.8,-195 377.8,-195 377.8,-231"/>
<text text-anchor="middle" x="332.3" y="-209.3" font-family="Times New Roman,serif" font-size="14.00">ControlRover</text>
</g>
<!-- Rover&#45;&gt;ControlRover -->
<g id="edge3" class="edge">
<title>Rover-&gt;ControlRover</title>
<path fill="none" stroke="black" d="M290.66,-401.35C297.34,-371.31 316.48,-285.18 326.31,-240.94"/>
<polygon fill="black" stroke="black" points="328.48,-231.16 330.71,-241.9 327.4,-236.04 326.32,-240.92 326.32,-240.92 326.32,-240.92 327.4,-236.04 321.92,-239.95 328.48,-231.16 328.48,-231.16"/>
<text text-anchor="start" x="311.3" y="-306.8" font-family="Times New Roman,serif" font-size="14.00">contains</text>
</g>
<!-- FxnBlock -->
<g id="node5" class="node">
<title>FxnBlock</title>
<polygon fill="lightgrey" stroke="grey" stroke-width="2" points="466.3,-231 396.3,-231 396.3,-195 466.3,-195 466.3,-231"/>
<text text-anchor="middle" x="431.3" y="-209.3" font-family="Times New Roman,serif" font-size="14.00">FxnBlock</text>
</g>
<!-- Rover&#45;&gt;FxnBlock -->
<g id="edge4" class="edge">
<title>Rover-&gt;FxnBlock</title>
<path fill="none" stroke="black" d="M296.86,-401.47C310.75,-384.27 338.89,-348.97 361.3,-318 380.28,-291.77 400.83,-260.91 414.73,-239.66"/>
<polygon fill="black" stroke="black" points="420.25,-231.18 418.56,-242.01 417.52,-235.37 414.79,-239.56 414.79,-239.56 414.79,-239.56 417.52,-235.37 411.02,-237.1 420.25,-231.18 420.25,-231.18"/>
<text text-anchor="start" x="370.3" y="-306.8" font-family="Times New Roman,serif" font-size="14.00">contains</text>
</g>
<!-- EE -->
<g id="node10" class="node">
<title>EE</title>
<ellipse fill="lightgrey" stroke="grey" stroke-width="0" cx="39.3" cy="-18" rx="27" ry="18"/>
<text text-anchor="middle" x="39.3" y="-14.3" font-family="Times New Roman,serif" font-size="14.00">EE</text>
</g>
<!-- StoreEnergy&#45;&gt;EE -->
<g id="edge5" class="edge">
<title>StoreEnergy-&gt;EE</title>
<path fill="none" stroke="black" d="M86.52,-194.89C58.16,-180.31 22.19,-156.39 5.3,-123 -7.97,-96.78 7.21,-64.27 21.31,-42.65"/>
<polygon fill="black" stroke="black" points="26.99,-34.38 25.04,-45.17 24.16,-38.5 21.33,-42.62 21.33,-42.62 21.33,-42.62 24.16,-38.5 17.62,-40.07 26.99,-34.38 26.99,-34.38"/>
<text text-anchor="start" x="5.3" y="-111.8" font-family="Times New Roman,serif" font-size="14.00">contains</text>
</g>
<!-- Control -->
<g id="node11" class="node">
<title>Control</title>
<ellipse fill="lightgrey" stroke="grey" stroke-width="0" cx="304.3" cy="-18" rx="37.89" ry="18"/>
<text text-anchor="middle" x="304.3" y="-14.3" font-family="Times New Roman,serif" font-size="14.00">Control</text>
</g>
<!-- StoreEnergy&#45;&gt;Control -->
<g id="edge6" class="edge">
<title>StoreEnergy-&gt;Control</title>
<path fill="none" stroke="black" d="M128.44,-194.83C131.95,-172.7 140.73,-134 161.3,-108 188.84,-73.19 234,-48.37 266.2,-33.93"/>
<polygon fill="black" stroke="black" points="275.74,-29.78 268.36,-37.9 271.15,-31.78 266.57,-33.77 266.57,-33.77 266.57,-33.77 271.15,-31.78 264.78,-29.64 275.74,-29.78 275.74,-29.78"/>
<text text-anchor="start" x="161.3" y="-111.8" font-family="Times New Roman,serif" font-size="14.00">contains</text>
</g>
<!-- Ground -->
<g id="node9" class="node">
<title>Ground</title>
<ellipse fill="lightgrey" stroke="grey" stroke-width="0" cx="211.3" cy="-18" rx="37.89" ry="18"/>
<text text-anchor="middle" x="211.3" y="-14.3" font-family="Times New Roman,serif" font-size="14.00">Ground</text>
</g>
<!-- MoveRover&#45;&gt;Ground -->
<g id="edge8" class="edge">
<title>MoveRover-&gt;Ground</title>
<path fill="none" stroke="black" d="M223.55,-194.71C219.88,-176.85 214.52,-148.13 212.3,-123 210.01,-97.12 209.98,-67.47 210.39,-46.47"/>
<polygon fill="black" stroke="black" points="210.63,-36.34 214.89,-46.44 210.51,-41.34 210.39,-46.34 210.39,-46.34 210.39,-46.34 210.51,-41.34 205.89,-46.23 210.63,-36.34 210.63,-36.34"/>
<text text-anchor="start" x="212.3" y="-111.8" font-family="Times New Roman,serif" font-size="14.00">contains</text>
</g>
<!-- MoveRover&#45;&gt;EE -->
<g id="edge7" class="edge">
<title>MoveRover-&gt;EE</title>
<path fill="none" stroke="black" d="M196.34,-194.88C169.26,-178.83 130.03,-152.87 102.3,-123 80.4,-99.42 62.24,-67.04 51.14,-44.71"/>
<polygon fill="black" stroke="black" points="46.68,-35.52 55.09,-42.55 48.86,-40.02 51.04,-44.51 51.04,-44.51 51.04,-44.51 48.86,-40.02 46.99,-46.48 46.68,-35.52 46.68,-35.52"/>
<text text-anchor="start" x="102.3" y="-111.8" font-family="Times New Roman,serif" font-size="14.00">contains</text>
</g>
<!-- MoveRover&#45;&gt;Control -->
<g id="edge9" class="edge">
<title>MoveRover-&gt;Control</title>
<path fill="none" stroke="black" d="M234.13,-194.87C247.64,-161.02 277.82,-85.37 293.84,-45.21"/>
<polygon fill="black" stroke="black" points="297.59,-35.81 298.06,-46.77 295.74,-40.46 293.88,-45.1 293.88,-45.1 293.88,-45.1 295.74,-40.46 289.7,-43.43 297.59,-35.81 297.59,-35.81"/>
<text text-anchor="start" x="268.3" y="-111.8" font-family="Times New Roman,serif" font-size="14.00">contains</text>
</g>
<!-- ControlRover&#45;&gt;Control -->
<g id="edge10" class="edge">
<title>ControlRover-&gt;Control</title>
<path fill="none" stroke="black" d="M332.54,-194.96C332.6,-174.28 331.9,-138.38 327.3,-108 324.09,-86.83 317.93,-63.41 312.79,-45.91"/>
<polygon fill="black" stroke="black" points="309.76,-35.85 316.95,-44.12 311.2,-40.63 312.64,-45.42 312.64,-45.42 312.64,-45.42 311.2,-40.63 308.33,-46.72 309.76,-35.85 309.76,-35.85"/>
<text text-anchor="start" x="328.3" y="-111.8" font-family="Times New Roman,serif" font-size="14.00">contains</text>
</g>
<!-- Video -->
<g id="node6" class="node">
<title>Video</title>
<ellipse fill="lightgrey" stroke="grey" stroke-width="0" cx="403.3" cy="-413" rx="31.7" ry="18"/>
<text text-anchor="middle" x="403.3" y="-409.3" font-family="Times New Roman,serif" font-size="14.00">Video</text>
</g>
<!-- Flow -->
<g id="node7" class="node">
<title>Flow</title>
<ellipse fill="lightgrey" stroke="grey" stroke-width="0" cx="481.3" cy="-413" rx="28.7" ry="18"/>
<text text-anchor="middle" x="481.3" y="-409.3" font-family="Times New Roman,serif" font-size="14.00">Flow</text>
</g>
<!-- Force -->
<g id="node8" class="node">
<title>Force</title>
<ellipse fill="lightgrey" stroke="grey" stroke-width="0" cx="558.3" cy="-413" rx="30.59" ry="18"/>
<text text-anchor="middle" x="558.3" y="-409.3" font-family="Times New Roman,serif" font-size="14.00">Force</text>
</g>
</g>
</svg>