<svg xmlns="http://www.w3.org/2000/svg" xmlns:xlink="http://www.w3.org/1999/xlink" width="539pt" height="444pt" viewBox="0.00 0.00 539.50 444.00">
<g id="graph0" class="graph" transform="scale(1 1) rotate(0) translate(4 440)">
<polygon fill="white" stroke="transparent" points="-4,4 -4,-440 535.5,-440 535.5,4 -4,4"/>
<!-- Rover -->
<g id="node1" class="node">
<title>Rover</title>
<polygon fill="lightgrey" stroke="grey" stroke-width="0" points="222,-436 155.91,-401.5 288.09,-401.5 222,-436"/>
<text text-anchor="middle" x="222" y="-409.3" font-family="Times New Roman,serif" font-size="14.00">Rover</text>
</g>
<!-- ControlRover -->
<g id="node2" class="node">
<title>ControlRover</title>
<polygon fill="lightgrey" stroke="grey" stroke-width="2" points="94,-231 0,-231 0,-195 94,-195 94,-231"/>
<text text-anchor="middle" x="47" y="-209.3" font-family="Times New Roman,serif" font-size="14.00">ControlRover</text>
</g>
<!-- Rover&#45;&gt;ControlRover -->
<g id="edge1" class="edge">
<title>Rover-&gt;ControlRover</title>
<path fill="none" stroke="black" d="M212.39,-401.32C196.74,-383.91 164.82,-348.33 138,-318 114.18,-291.07 87.07,-260.03 68.68,-238.92"/>
<polygon fill="black" stroke="black" points="62.08,-231.35 72.04,-235.93 65.36,-235.12 68.65,-238.89 68.65,-238.89 68.65,-238.89 65.36,-235.12 65.25,-241.84 62.08,-231.35 62.08,-231.35"/>
<text text-anchor="start" x="138" y="-306.8" font-family="Times New Roman,serif" font-size="14.00">contains</text>
</g>
<!-- StoreEnergy -->
<g id="node3" class="node">
<title>StoreEnergy</title>
<polygon fill="lightgrey" stroke="grey" stroke-width="2" points="206,-231 120,-231 120,-195 206,-195 206,-231"/>
<text text-anchor="middle" x="163" y="-209.3" font-family="Times New Roman,serif" font-size="14.00">StoreEnergy</text>
</g>
<!-- Rover&#45;&gt;StoreEnergy -->
<g id="edge2" class="edge">
<title>Rover-&gt;StoreEnergy</title>
<path fill="none" stroke="black" d="M218.63,-401.31C213.16,-383.88 202.04,-348.28 193,-318 185.23,-291.97 176.67,-262.17 170.69,-241.16"/>
<polygon fill="black" stroke="black" points="167.89,-231.33 174.95,-239.72 169.26,-236.14 170.63,-240.95 170.63,-240.95 170.63,-240.95 169.26,-236.14 166.3,-242.18 167.89,-231.33 167.89,-231.33"/>
<text text-anchor="start" x="193" y="-306.8" font-family="Times New Roman,serif" font-size="14.00">contains</text>
</g>
<!-- MoveRover -->
<g id="node4" class="node">
<title>MoveRover</title>
<polygon fill="lightgrey" stroke="grey" stroke-width="2" points="307.5,-231 224.5,-231 224.5,-195 307.5,-195 307.5,-231"/>
<text text-anchor="middle" x="266" y="-209.3" font-family="Times New Roman,serif" font-size="14.00">MoveRover</text>
</g>
<!-- Rover&#45;&gt;MoveRover -->
<g id="edge3" class="edge">
<title>Rover-&gt;MoveRover</title>
<path fill="none" stroke="black" d="M224.37,-401.35C231.04,-371.31 250.18,-285.18 260.01,-240.94"/>
<polygon fill="black" stroke="black" points="262.19,-231.16 264.41,-241.9 261.1,-236.04 260.02,-240.92 260.02,-240.92 260.02,-240.92 261.1,-236.04 255.62,-239.95 262.19,-231.16 262.19,-231.16"/>
<text text-anchor="start" x="245" y="-306.8" font-family="Times New Roman,serif" font-size="14.00">contains</text>
</g>
<!-- FxnBlock -->
<g id="node5" class="node">
<title>FxnBlock</title>
<polygon fill="lightgrey" stroke="grey" stroke-width="2" points="396.5,-231 325.5,-231 325.5,-195 396.5,-195 396.5,-231"/>
<text text-anchor="middle" x="361" y="-209.3" font-family="Times New Roman,serif" font-size="14.00">FxnBlock</text>
</g>
<!-- Rover&#45;&gt;FxnBlock -->
<g id="edge4" class="edge">
<title>Rover-&gt;FxnBlock</title>
<path fill="none" stroke="black" d="M231.05,-401.29C245.41,-384.15 274.02,-349.26 296,-318 314.13,-292.21 333.04,-261.45 345.75,-240.11"/>
<polygon fill="black" stroke="black" points="350.97,-231.3 349.75,-242.2 348.42,-235.6 345.88,-239.9 345.88,-239.9 345.88,-239.9 348.42,-235.6 342,-237.61 350.97,-231.3 350.97,-231.3"/>
<text text-anchor="start" x="305" y="-306.8" font-family="Times New Roman,serif" font-size="14.00">contains</text>
</g>
<!-- Control -->
<g id="node6" class="node">
<title>Control</title>
<ellipse fill="lightgrey" stroke="grey" stroke-width="0" cx="101" cy="-18" rx="38.19" ry="18"/>
<text text-anchor="middle" x="101" y="-14.3" font-family="Times New Roman,serif" font-size="14.00">Control</text>
</g>
<!-- ControlRover&#45;&gt;Control -->
<g id="edge5" class="edge">
<title>ControlRover-&gt;Control</title>
<path fill="none" stroke="black" d="M39.8,-194.98C31.99,-174 21.9,-137.51 32,-108 40.84,-82.17 60.56,-58.05 76.66,-41.45"/>
<polygon fill="black" stroke="black" points="83.76,-34.37 79.86,-44.62 80.22,-37.9 76.68,-41.43 76.68,-41.43 76.68,-41.43 80.22,-37.9 73.5,-38.25 83.76,-34.37 83.76,-34.37"/>
<text text-anchor="start" x="32" y="-111.8" font-family="Times New Roman,serif" font-size="14.00">contains</text>
</g>
<!-- StoreEnergy&#45;&gt;Control -->
<g id="edge6" class="edge">
<title>StoreEnergy-&gt;Control</title>
<path fill="none" stroke="black" d="M146.65,-194.95C131.78,-178.17 110.84,-151.05 102,-123 94.06,-97.81 94.87,-67.45 97.02,-46.05"/>
<polygon fill="black" stroke="black" points="98.19,-36.04 101.5,-46.5 97.61,-41.01 97.03,-45.98 97.03,-45.98 97.03,-45.98 97.61,-41.01 92.56,-45.45 98.19,-36.04 98.19,-36.04"/>
<text text-anchor="start" x="102" y="-111.8" font-family="Times New Roman,serif" font-size="14.00">contains</text>
</g>
<!-- EE -->
<g id="node8" class="node">
<title>EE</title>
<ellipse fill="lightgrey" stroke="grey" stroke-width="0" cx="241" cy="-18" rx="27" ry="18"/>
<text text-anchor="middle" x="241" y="-14.3" font-family="Times New Roman,serif" font-size="14.00">EE</text>
</g>
<!-- StoreEnergy&#45;&gt;EE -->
<g id="edge7" class="edge">
<title>StoreEnergy-&gt;EE</title>
<path fill="none" stroke="black" d="M161.58,-194.76C160.49,-173.57 160.71,-136.86 172,-108 182.16,-82.03 202.42,-57.36 218.38,-40.62"/>
<polygon fill="black" stroke="black" points="225.8,-33.06 222,-43.35 222.29,-36.63 218.79,-40.19 218.79,-40.19 218.79,-40.19 222.29,-36.63 215.58,-37.04 225.8,-33.06 225.8,-33.06"/>
<text text-anchor="start" x="172" y="-111.8" font-family="Times New Roman,serif" font-size="14.00">contains</text>
</g>
<!-- MoveRover&#45;&gt;Control -->
<g id="edge8" class="edge">
<title>MoveRover-&gt;Control</title>
<path fill="none" stroke="black" d="M261.13,-194.73C254.35,-172.85 240.41,-134.77 219,-108 195.35,-78.42 159.74,-53.36 133.83,-37.45"/>
<polygon fill="black" stroke="black" points="125.11,-32.21 136,-33.5 129.39,-34.78 133.68,-37.36 133.68,-37.36 133.68,-37.36 129.39,-34.78 131.36,-41.21 125.11,-32.21 125.11,-32.21"/>
<text text-anchor="start" x="228" y="-111.8" font-family="Times New Roman,serif" font-size="14.00">contains</text>
</g>
<!-- MoveRover&#45;&gt;EE -->
<g id="edge10" class="edge">
<title>MoveRover-&gt;EE</title>
<path fill="none" stroke="black" d="M274.65,-194.99C284.03,-174.34 296.7,-138.48 289,-108 283,-84.23 269.26,-59.91 258.01,-42.71"/>
<polygon fill="black" stroke="black" points="252.41,-34.41 261.73,-40.18 255.21,-38.55 258,-42.7 258,-42.7 258,-42.7 255.21,-38.55 254.27,-45.21 252.41,-34.41 252.41,-34.41"/>
<text text-anchor="start" x="291" y="-111.8" font-family="Times New Roman,serif" font-size="14.00">contains</text>
</g>
<!-- Ground -->
<g id="node11" class="node">
<title>Ground</title>
<ellipse fill="lightgrey" stroke="grey" stroke-width="0" cx="381" cy="-18" rx="38.99" ry="18"/>
<text text-anchor="middle" x="381" y="-14.3" font-family="Times New Roman,serif" font-size="14.00">Ground</text>
</g>
<!-- MoveRover&#45;&gt;Ground -->
<g id="edge9" class="edge">
<title>MoveRover-&gt;Ground</title>
<path fill="none" stroke="black" d="M284.04,-194.69C300.88,-177.73 325.8,-150.48 342,-123 356.48,-98.45 367.24,-67.58 373.75,-45.87"/>
<polygon fill="black" stroke="black" points="376.6,-36.02 378.14,-46.87 375.21,-40.82 373.82,-45.62 373.82,-45.62 373.82,-45.62 375.21,-40.82 369.5,-44.37 376.6,-36.02 376.6,-36.02"/>
<text text-anchor="start" x="349" y="-111.8" font-family="Times New Roman,serif" font-size="14.00">contains</text>
</g>
<!-- Force -->
<g id="node7" class="node">
<title>Force</title>
<ellipse fill="lightgrey" stroke="grey" stroke-width="0" cx="339" cy="-413" rx="32.49" ry="18"/>
<text text-anchor="middle" x="339" y="-409.3" font-family="Times New Roman,serif" font-size="14.00">Force</text>
</g>
<!-- Flow -->
<g id="node9" class="node">
<title>Flow</title>
<ellipse fill="lightgrey" stroke="grey" stroke-width="0" cx="419" cy="-413" rx="29.5" ry="18"/>
<text text-anchor="middle" x="419" y="-409.3" font-family="Times New Roman,serif" font-size="14.00">Flow</text>
</g>
<!-- Video -->
<g id="node10" class="node">
<title>Video</title>
<ellipse fill="lightgrey" stroke="grey" stroke-width="0" cx="499" cy="-413" rx="32.49" ry="18"/>
<text text-anchor="middle" x="499" y="-409.3" font-family="Times New Roman,serif" font-size="14.00">Video</text>
</g>
</g>
</svg>