<svg xmlns="http://www.w3.org/2000/svg" xmlns:xlink="http://www.w3.org/1999/xlink" width="525pt" height="444pt" viewBox="0.00 0.00 524.70 444.00">
<g id="graph0" class="graph" transform="scale(1 1) rotate(0) translate(4 440)">
<polygon fill="white" stroke="transparent" points="-4,4 -4,-440 520.7,-440 520.7,4 -4,4"/>
<!-- Rover -->
<g id="node1" class="node">
<title>Rover</title>
<polygon fill="lightgrey" stroke="grey" stroke-width="0" points="177,-436 112.01,-401.5 241.99,-401.5 177,-436"/>
<text text-anchor="middle" x="177" y="-409.3" font-family="Times New Roman,serif" font-size="14.00">Rover</text>
</g>
<!-- FxnBlock -->
<g id="node2" class="node">
<title>FxnBlock</title>
<polygon fill="lightgrey" stroke="grey" stroke-width="2" points="70,-231 0,-231 0,-195 70,-195 70,-231"/>
<text text-anchor="middle" x="35" y="-209.3" font-family="Times New Roman,serif" font-size="14.00">FxnBlock</text>
</g>
<!-- Rover&#45;&gt;FxnBlock -->
<g id="edge1" class="edge">
<title>Rover-&gt;FxnBlock</title>
<path fill="none" stroke="black" d="M168.58,-401.45C154.91,-384.22 127.19,-348.88 105,-318 86.11,-291.71 65.54,-260.86 51.62,-239.62"/>
<polygon fill="black" stroke="black" points="46.08,-231.15 55.32,-237.06 48.82,-235.34 51.55,-239.52 51.55,-239.52 51.55,-239.52 48.82,-235.34 47.79,-241.98 46.08,-231.15 46.08,-231.15"/>
<text text-anchor="start" x="105" y="-306.8" font-family="Times New Roman,serif" font-size="14.00">contains</text>
</g>
<!-- ControlRover -->
<g id="node3" class="node">
<title>ControlRover</title>
<polygon fill="lightgrey" stroke="grey" stroke-width="2" points="179.5,-231 88.5,-231 88.5,-195 179.5,-195 179.5,-231"/>
<text text-anchor="middle" x="134" y="-209.3" font-family="Times New Roman,serif" font-size="14.00">ControlRover</text>
</g>
<!-- Rover&#45;&gt;ControlRover -->
<g id="edge2" class="edge">
<title>Rover-&gt;ControlRover</title>
<path fill="none" stroke="black" d="M174.69,-401.35C168.16,-371.31 149.46,-285.18 139.85,-240.94"/>
<polygon fill="black" stroke="black" points="137.73,-231.16 144.25,-239.98 138.79,-236.05 139.85,-240.93 139.85,-240.93 139.85,-240.93 138.79,-236.05 135.45,-241.89 137.73,-231.16 137.73,-231.16"/>
<text text-anchor="start" x="156" y="-306.8" font-family="Times New Roman,serif" font-size="14.00">contains</text>
</g>
<!-- MoveRover -->
<g id="node4" class="node">
<title>MoveRover</title>
<polygon fill="lightgrey" stroke="grey" stroke-width="2" points="416,-231 334,-231 334,-195 416,-195 416,-231"/>
<text text-anchor="middle" x="375" y="-209.3" font-family="Times New Roman,serif" font-size="14.00">MoveRover</text>
</g>
<!-- Rover&#45;&gt;MoveRover -->
<g id="edge3" class="edge">
<title>Rover-&gt;MoveRover</title>
<path fill="none" stroke="black" d="M187.65,-401.35C218.26,-370.74 307.11,-281.89 350.53,-238.47"/>
<polygon fill="black" stroke="black" points="357.84,-231.16 353.95,-241.41 354.3,-234.7 350.77,-238.23 350.77,-238.23 350.77,-238.23 354.3,-234.7 347.59,-235.05 357.84,-231.16 357.84,-231.16"/>
<text text-anchor="start" x="281" y="-306.8" font-family="Times New Roman,serif" font-size="14.00">contains</text>
</g>
<!-- StoreEnergy -->
<g id="node5" class="node">
<title>StoreEnergy</title>
<polygon fill="lightgrey" stroke="grey" stroke-width="2" points="282,-231 198,-231 198,-195 282,-195 282,-231"/>
<text text-anchor="middle" x="240" y="-209.3" font-family="Times New Roman,serif" font-size="14.00">StoreEnergy</text>
</g>
<!-- Rover&#45;&gt;StoreEnergy -->
<g id="edge4" class="edge">
<title>Rover-&gt;StoreEnergy</title>
<path fill="none" stroke="black" d="M180.39,-401.35C189.95,-371.31 217.35,-285.18 231.43,-240.94"/>
<polygon fill="black" stroke="black" points="234.54,-231.16 235.8,-242.05 233.02,-235.92 231.51,-240.69 231.51,-240.69 231.51,-240.69 233.02,-235.92 227.22,-239.33 234.54,-231.16 234.54,-231.16"/>
<text text-anchor="start" x="211" y="-306.8" font-family="Times New Roman,serif" font-size="14.00">contains</text>
</g>
<!-- Control -->
<g id="node11" class="node">
<title>Control</title>
<ellipse fill="lightgrey" stroke="grey" stroke-width="0" cx="203" cy="-18" rx="37.89" ry="18"/>
<text text-anchor="middle" x="203" y="-14.3" font-family="Times New Roman,serif" font-size="14.00">Control</text>
</g>
<!-- ControlRover&#45;&gt;Control -->
<g id="edge5" class="edge">
<title>ControlRover-&gt;Control</title>
<path fill="none" stroke="black" d="M135.12,-194.97C136.91,-173.98 141.38,-137.48 152,-108 160.33,-84.89 174.49,-60.84 185.78,-43.58"/>
<polygon fill="black" stroke="black" points="191.38,-35.21 189.56,-46.02 188.6,-39.36 185.82,-43.52 185.82,-43.52 185.82,-43.52 188.6,-39.36 182.08,-41.02 191.38,-35.21 191.38,-35.21"/>
<text text-anchor="start" x="152" y="-111.8" font-family="Times New Roman,serif" font-size="14.00">contains</text>
</g>
<!-- Ground -->
<g id="node6" class="node">
<title>Ground</title>
<ellipse fill="lightgrey" stroke="grey" stroke-width="0" cx="479" cy="-18" rx="37.89" ry="18"/>
<text text-anchor="middle" x="479" y="-14.3" font-family="Times New Roman,serif" font-size="14.00">Ground</text>
</g>
<!-- MoveRover&#45;&gt;Ground -->
<g id="edge8" class="edge">
<title>MoveRover-&gt;Ground</title>
<path fill="none" stroke="black" d="M389.7,-194.88C403.98,-177.62 425.55,-149.77 440,-123 453.46,-98.06 464.31,-67.48 471.12,-45.96"/>
<polygon fill="black" stroke="black" points="474.14,-36.18 475.49,-47.07 472.66,-40.96 471.19,-45.74 471.19,-45.74 471.19,-45.74 472.66,-40.96 466.89,-44.42 474.14,-36.18 474.14,-36.18"/>
<text text-anchor="start" x="446" y="-111.8" font-family="Times New Roman,serif" font-size="14.00">contains</text>
</g>
<!-- EE -->
<g id="node9" class="node">
<title>EE</title>
<ellipse fill="lightgrey" stroke="grey" stroke-width="0" cx="341" cy="-18" rx="27" ry="18"/>
<text text-anchor="middle" x="341" y="-14.3" font-family="Times New Roman,serif" font-size="14.00">EE</text>
</g>
<!-- MoveRover&#45;&gt;EE -->
<g id="edge6" class="edge">
<title>MoveRover-&gt;EE</title>
<path fill="none" stroke="black" d="M380.93,-194.84C387.27,-174.03 395.44,-138.03 388,-108 382.18,-84.53 368.92,-60.43 357.97,-43.24"/>
<polygon fill="black" stroke="black" points="352.18,-34.44 361.43,-40.32 354.93,-38.62 357.68,-42.8 357.68,-42.8 357.68,-42.8 354.93,-38.62 353.92,-45.27 352.18,-34.44 352.18,-34.44"/>
<text text-anchor="start" x="390" y="-111.8" font-family="Times New Roman,serif" font-size="14.00">contains</text>
</g>
<!-- MoveRover&#45;&gt;Control -->
<g id="edge7" class="edge">
<title>MoveRover-&gt;Control</title>
<path fill="none" stroke="black" d="M368.41,-194.81C359.48,-173.01 341.99,-135.02 319,-108 294.57,-79.3 259.45,-53.95 234.27,-37.72"/>
<polygon fill="black" stroke="black" points="225.8,-32.37 236.66,-33.91 230.03,-35.04 234.26,-37.71 234.26,-37.71 234.26,-37.71 230.03,-35.04 231.85,-41.52 225.8,-32.37 225.8,-32.37"/>
<text text-anchor="start" x="328" y="-111.8" font-family="Times New Roman,serif" font-size="14.00">contains</text>
</g>
<!-- StoreEnergy&#45;&gt;EE -->
<g id="edge9" class="edge">
<title>StoreEnergy-&gt;EE</title>
<path fill="none" stroke="black" d="M243.55,-194.72C248.35,-173.48 258.05,-136.73 273,-108 285.81,-83.39 305.46,-58.57 320.34,-41.42"/>
<polygon fill="black" stroke="black" points="327.22,-33.65 323.96,-44.12 323.91,-37.39 320.59,-41.14 320.59,-41.14 320.59,-41.14 323.91,-37.39 317.22,-38.16 327.22,-33.65 327.22,-33.65"/>
<text text-anchor="start" x="273" y="-111.8" font-family="Times New Roman,serif" font-size="14.00">contains</text>
</g>
<!-- StoreEnergy&#45;&gt;Control -->
<g id="edge10" class="edge">
<title>StoreEnergy-&gt;Control</title>
<path fill="none" stroke="black" d="M230.81,-194.87C221.98,-177.38 209.22,-149.15 204,-123 198.88,-97.37 199.23,-67.47 200.5,-46.32"/>
<polygon fill="black" stroke="black" points="201.23,-36.13 205.01,-46.43 200.87,-41.12 200.52,-46.11 200.52,-46.11 200.52,-46.11 200.87,-41.12 196.03,-45.79 201.23,-36.13 201.23,-36.13"/>
<text text-anchor="start" x="204" y="-111.8" font-family="Times New Roman,serif" font-size="14.00">contains</text>
</g>
<!-- Video -->
<g id="node7" class="node">
<title>Video</title>
<ellipse fill="lightgrey" stroke="grey" stroke-width="0" cx="292" cy="-413" rx="31.7" ry="18"/>
<text text-anchor="middle" x="292" y="-409.3" font-family="Times New Roman,serif" font-size="14.00">Video</text>
</g>
<!-- Flow -->
<g id="node8" class="node">
<title>Flow</title>
<ellipse fill="lightgrey" stroke="grey" stroke-width="0" cx="370" cy="-413" rx="28.7" ry="18"/>
<text text-anchor="middle" x="370" y="-409.3" font-family="Times New Roman,serif" font-size="14.00">Flow</text>
</g>
<!-- Force -->
<g id="node10" class="node">
<title>Force</title>
<ellipse fill="lightgrey" stroke="grey" stroke-width="0" cx="447" cy="-413" rx="30.59" ry="18"/>
<text text-anchor="middle" x="447" y="-409.3" font-family="Times New Roman,serif" font-size="14.00">Force</text>
</g>
</g>
</svg>