<svg xmlns="http://www.w3.org/2000/svg" xmlns:xlink="http://www.w3.org/1999/xlink" width="454pt" height="237pt" viewBox="0.00 0.00 453.56 236.96">
<g id="graph0" class="graph" transform="scale(1 1) rotate(0) translate(4 232.96)">
<polygon fill="white" stroke="transparent" points="-4,4 -4,-232.96 449.56,-232.96 449.56,4 -4,4"/>
<!-- control_rover -->
<g id="node1" class="node">
<title>control_rover</title>
<polygon fill="lightgrey" stroke="grey" stroke-width="2" points="236.41,-105.42 143.41,-105.42 143.41,-67.42 236.41,-67.42 236.41,-105.42"/>
<text text-anchor="middle" x="189.91" y="-90.22" font-family="Times New Roman,serif" font-size="14.00">control_rover</text>
<text text-anchor="middle" x="189.91" y="-75.22" font-family="Times New Roman,serif" font-size="14.00">[]</text>
</g>
<!-- force -->
<g id="node7" class="node">
<title>force</title>
<ellipse fill="lightgrey" stroke="grey" stroke-width="0" cx="192.12" cy="-154.42" rx="29.8" ry="18"/>
<text text-anchor="middle" x="192.12" y="-150.72" font-family="Times New Roman,serif" font-size="14.00">force</text>
</g>
<!-- control_rover&#45;&gt;force -->
<g id="edge5" class="edge">
<title>control_rover-&gt;force</title>
<path fill="none" stroke="black" d="M190.54,-105.73C190.74,-112.01 190.97,-119.13 191.19,-125.94"/>
<polygon fill="black" stroke="black" points="191.53,-136.23 186.7,-126.39 191.36,-131.24 191.2,-126.24 191.2,-126.24 191.2,-126.24 191.36,-131.24 195.7,-126.09 191.53,-136.23 191.53,-136.23"/>
<text text-anchor="start" x="190.86" y="-119.63" font-family="Times New Roman,serif" font-size="14.00">contains</text>
</g>
<!-- ee -->
<g id="node8" class="node">
<title>ee</title>
<ellipse fill="lightgrey" stroke="grey" stroke-width="0" cx="51.98" cy="-36.7" rx="27" ry="18"/>
<text text-anchor="middle" x="51.98" y="-33" font-family="Times New Roman,serif" font-size="14.00">ee</text>
</g>
<!-- control_rover&#45;&gt;ee -->
<g id="edge3" class="edge">
<title>control_rover-&gt;ee</title>
<path fill="none" stroke="black" d="M143.21,-69.59C124.27,-62.76 102.81,-55.02 85.46,-48.77"/>
<polygon fill="black" stroke="black" points="75.78,-45.28 86.71,-44.44 80.48,-46.97 85.18,-48.67 85.18,-48.67 85.18,-48.67 80.48,-46.97 83.66,-52.9 75.78,-45.28 75.78,-45.28"/>
<text text-anchor="start" x="67.34" y="-62.98" font-family="Times New Roman,serif" font-size="14.00">contains</text>
</g>
<!-- video -->
<g id="node9" class="node">
<title>video</title>
<ellipse fill="lightgrey" stroke="grey" stroke-width="0" cx="145.98" cy="-18" rx="30.59" ry="18"/>
<text text-anchor="middle" x="145.98" y="-14.3" font-family="Times New Roman,serif" font-size="14.00">video</text>
</g>
<!-- control_rover&#45;&gt;video -->
<g id="edge1" class="edge">
<title>control_rover-&gt;video</title>
<path fill="none" stroke="black" d="M177.67,-67.36C172.95,-60.01 167.48,-51.48 162.42,-43.61"/>
<polygon fill="black" stroke="black" points="156.95,-35.09 166.14,-41.07 159.65,-39.3 162.35,-43.5 162.35,-43.5 162.35,-43.5 159.65,-39.3 158.57,-45.94 156.95,-35.09 156.95,-35.09"/>
<text text-anchor="start" x="123.05" y="-44.29" font-family="Times New Roman,serif" font-size="14.00">contains</text>
</g>
<!-- control -->
<g id="node10" class="node">
<title>control</title>
<ellipse fill="lightgrey" stroke="grey" stroke-width="0" cx="243.21" cy="-19.81" rx="36.29" ry="18"/>
<text text-anchor="middle" x="243.21" y="-16.11" font-family="Times New Roman,serif" font-size="14.00">control</text>
</g>
<!-- control_rover&#45;&gt;control -->
<g id="edge4" class="edge">
<title>control_rover-&gt;control</title>
<path fill="none" stroke="black" d="M205.33,-67.16C210.81,-60.31 217.06,-52.49 222.89,-45.2"/>
<polygon fill="black" stroke="black" points="229.46,-36.99 226.73,-47.61 226.34,-40.9 223.22,-44.8 223.22,-44.8 223.22,-44.8 226.34,-40.9 219.7,-41.99 229.46,-36.99 229.46,-36.99"/>
<text text-anchor="start" x="214.11" y="-44.98" font-family="Times New Roman,serif" font-size="14.00">contains</text>
</g>
<!-- comms -->
<g id="node11" class="node">
<title>comms</title>
<ellipse fill="lightgrey" stroke="grey" stroke-width="0" cx="368.43" cy="-23.47" rx="37.89" ry="18"/>
<text text-anchor="middle" x="368.43" y="-19.77" font-family="Times New Roman,serif" font-size="14.00">comms</text>
</g>
<!-- control_rover&#45;&gt;comms -->
<g id="edge2" class="edge">
<title>control_rover-&gt;comms</title>
<path fill="none" stroke="black" d="M236.81,-69.88C265.34,-59.82 301.37,-47.12 328.52,-37.54"/>
<polygon fill="black" stroke="black" points="338.09,-34.17 330.15,-41.74 333.37,-35.83 328.66,-37.49 328.66,-37.49 328.66,-37.49 333.37,-35.83 327.16,-33.25 338.09,-34.17 338.09,-34.17"/>
<text text-anchor="start" x="282.67" y="-57.51" font-family="Times New Roman,serif" font-size="14.00">contains</text>
</g>
<!-- view_ground -->
<g id="node2" class="node">
<title>view_ground</title>
<polygon fill="lightgrey" stroke="grey" stroke-width="2" points="365.92,-135.88 276.92,-135.88 276.92,-97.88 365.92,-97.88 365.92,-135.88"/>
<text text-anchor="middle" x="321.42" y="-120.68" font-family="Times New Roman,serif" font-size="14.00">view_ground</text>
<text text-anchor="middle" x="321.42" y="-105.68" font-family="Times New Roman,serif" font-size="14.00">[]</text>
</g>
<!-- ground -->
<g id="node6" class="node">
<title>ground</title>
<ellipse fill="orange" stroke="grey" stroke-width="0" cx="409.16" cy="-162.53" rx="36.29" ry="18"/>
<text text-anchor="middle" x="409.16" y="-158.83" font-family="Times New Roman,serif" font-size="14.00">ground</text>
</g>
<!-- view_ground&#45;&gt;ground -->
<g id="edge13" class="edge">
<title>view_ground-&gt;ground</title>
<path fill="none" stroke="black" d="M358.12,-135.98C363.72,-138.89 369.47,-141.88 375.01,-144.76"/>
<polygon fill="black" stroke="black" points="384.06,-149.47 373.11,-148.85 379.62,-147.16 375.19,-144.86 375.19,-144.86 375.19,-144.86 379.62,-147.16 377.27,-140.86 384.06,-149.47 384.06,-149.47"/>
<text text-anchor="start" x="319.57" y="-144.17" font-family="Times New Roman,serif" font-size="14.00">contains</text>
</g>
<!-- view_ground&#45;&gt;force -->
<g id="edge16" class="edge">
<title>view_ground-&gt;force</title>
<path fill="none" stroke="black" d="M276.56,-129.9C261.03,-134.41 243.82,-139.41 229.01,-143.71"/>
<polygon fill="black" stroke="black" points="219.18,-146.56 227.53,-139.45 223.99,-145.16 228.79,-143.77 228.79,-143.77 228.79,-143.77 223.99,-145.16 230.04,-148.09 219.18,-146.56 219.18,-146.56"/>
<text text-anchor="start" x="252.78" y="-140.61" font-family="Times New Roman,serif" font-size="14.00">contains</text>
</g>
<!-- view_ground&#45;&gt;ee -->
<g id="edge14" class="edge">
<title>view_ground-&gt;ee</title>
<path fill="none" stroke="black" d="M276.62,-103.55C223.12,-87.63 134.78,-61.34 86.36,-46.93"/>
<polygon fill="black" stroke="black" points="76.66,-44.04 87.53,-42.58 81.45,-45.47 86.24,-46.9 86.24,-46.9 86.24,-46.9 81.45,-45.47 84.96,-51.21 76.66,-44.04 76.66,-44.04"/>
<text text-anchor="start" x="134.49" y="-64.04" font-family="Times New Roman,serif" font-size="14.00">contains</text>
</g>
<!-- view_ground&#45;&gt;video -->
<g id="edge15" class="edge">
<title>view_ground-&gt;video</title>
<path fill="none" stroke="black" d="M287.59,-97.82C255.74,-79.86 208.4,-53.18 177.37,-35.69"/>
<polygon fill="black" stroke="black" points="168.3,-30.58 179.22,-31.57 172.65,-33.03 177.01,-35.49 177.01,-35.49 177.01,-35.49 172.65,-33.03 174.8,-39.41 168.3,-30.58 168.3,-30.58"/>
<text text-anchor="start" x="232.48" y="-70.55" font-family="Times New Roman,serif" font-size="14.00">contains</text>
</g>
<!-- communicate -->
<g id="node3" class="node">
<title>communicate</title>
<polygon fill="lightgrey" stroke="grey" stroke-width="2" points="323.77,-227.05 232.77,-227.05 232.77,-189.05 323.77,-189.05 323.77,-227.05"/>
<text text-anchor="middle" x="278.27" y="-211.85" font-family="Times New Roman,serif" font-size="14.00">communicate</text>
<text text-anchor="middle" x="278.27" y="-196.85" font-family="Times New Roman,serif" font-size="14.00">[]</text>
</g>
<!-- communicate&#45;&gt;force -->
<g id="edge19" class="edge">
<title>communicate-&gt;force</title>
<path fill="none" stroke="black" d="M247.66,-188.99C239.2,-183.72 230.05,-178.03 221.66,-172.8"/>
<polygon fill="black" stroke="black" points="212.92,-167.37 223.79,-168.83 217.17,-170.01 221.41,-172.65 221.41,-172.65 221.41,-172.65 217.17,-170.01 219.03,-176.47 212.92,-167.37 212.92,-167.37"/>
<text text-anchor="start" x="234.66" y="-169.7" font-family="Times New Roman,serif" font-size="14.00">contains</text>
</g>
<!-- communicate&#45;&gt;ee -->
<g id="edge18" class="edge">
<title>communicate-&gt;ee</title>
<path fill="none" stroke="black" d="M252.75,-188.72C209.41,-155.9 121.85,-89.61 78.1,-56.48"/>
<polygon fill="black" stroke="black" points="69.96,-50.31 80.65,-52.76 73.94,-53.33 77.93,-56.35 77.93,-56.35 77.93,-56.35 73.94,-53.33 75.21,-59.94 69.96,-50.31 69.96,-50.31"/>
<text text-anchor="start" x="118.43" y="-111.4" font-family="Times New Roman,serif" font-size="14.00">contains</text>
</g>
<!-- communicate&#45;&gt;comms -->
<g id="edge17" class="edge">
<title>communicate-&gt;comms</title>
<path fill="none" stroke="black" d="M287.58,-188.99C303.69,-156.01 336.8,-88.23 355.26,-50.43"/>
<polygon fill="black" stroke="black" points="359.83,-41.07 359.49,-52.03 357.64,-45.56 355.44,-50.05 355.44,-50.05 355.44,-50.05 357.64,-45.56 351.4,-48.08 359.83,-41.07 359.83,-41.07"/>
<text text-anchor="start" x="274.42" y="-123.51" font-family="Times New Roman,serif" font-size="14.00">contains</text>
</g>
<!-- store_energy -->
<g id="node4" class="node">
<title>store_energy</title>
<polygon fill="orange" stroke="red" stroke-width="2" points="164.41,-228.96 74.41,-228.96 74.41,-190.96 164.41,-190.96 164.41,-228.96"/>
<text text-anchor="middle" x="119.41" y="-213.76" font-family="Times New Roman,serif" font-size="14.00">store_energy</text>
<text text-anchor="middle" x="119.41" y="-198.76" font-family="Times New Roman,serif" font-size="14.00">['no_charge']</text>
</g>
<!-- store_energy&#45;&gt;force -->
<g id="edge7" class="edge">
<title>store_energy-&gt;force</title>
<path fill="none" stroke="black" d="M144.43,-190.84C151.14,-185.72 158.41,-180.17 165.2,-174.98"/>
<polygon fill="black" stroke="black" points="173.48,-168.65 168.27,-178.3 169.51,-171.69 165.54,-174.72 165.54,-174.72 165.54,-174.72 169.51,-171.69 162.8,-171.15 173.48,-168.65 173.48,-168.65"/>
<text text-anchor="start" x="107.82" y="-171.71" font-family="Times New Roman,serif" font-size="14.00">contains</text>
</g>
<!-- store_energy&#45;&gt;ee -->
<g id="edge6" class="edge">
<title>store_energy-&gt;ee</title>
<path fill="none" stroke="black" d="M111.94,-190.75C99.92,-159.88 76.27,-99.11 62.53,-63.82"/>
<polygon fill="black" stroke="black" points="58.78,-54.17 66.6,-61.86 60.59,-58.83 62.4,-63.49 62.4,-63.49 62.4,-63.49 60.59,-58.83 58.21,-65.12 58.78,-54.17 58.78,-54.17"/>
<text text-anchor="start" x="40.24" y="-116.09" font-family="Times New Roman,serif" font-size="14.00">contains</text>
</g>
<!-- store_energy&#45;&gt;control -->
<g id="edge8" class="edge">
<title>store_energy-&gt;control</title>
<path fill="none" stroke="black" d="M131.97,-190.68C154.33,-156.33 201.09,-84.51 226.27,-45.83"/>
<polygon fill="black" stroke="black" points="231.89,-37.2 230.21,-48.03 229.16,-41.39 226.43,-45.58 226.43,-45.58 226.43,-45.58 229.16,-41.39 222.66,-43.12 231.89,-37.2 231.89,-37.2"/>
<text text-anchor="start" x="132.12" y="-122.05" font-family="Times New Roman,serif" font-size="14.00">contains</text>
</g>
<!-- move_rover -->
<g id="node5" class="node">
<title>move_rover</title>
<polygon fill="lightgrey" stroke="red" stroke-width="2" points="84.74,-174.77 0.74,-174.77 0.74,-136.77 84.74,-136.77 84.74,-174.77"/>
<text text-anchor="middle" x="42.74" y="-159.57" font-family="Times New Roman,serif" font-size="14.00">move_rover</text>
<text text-anchor="middle" x="42.74" y="-144.57" font-family="Times New Roman,serif" font-size="14.00">['short']</text>
</g>
<!-- move_rover&#45;&gt;ground -->
<g id="edge9" class="edge">
<title>move_rover-&gt;ground</title>
<path fill="none" stroke="black" d="M84.78,-156.54C153.76,-157.82 290.49,-160.34 362.42,-161.67"/>
<polygon fill="black" stroke="black" points="372.55,-161.86 362.47,-166.17 367.55,-161.76 362.55,-161.67 362.55,-161.67 362.55,-161.67 367.55,-161.76 362.63,-157.17 372.55,-161.86 372.55,-161.86"/>
<text text-anchor="start" x="223.6" y="-147.91" font-family="Times New Roman,serif" font-size="14.00">contains</text>
</g>
<!-- move_rover&#45;&gt;force -->
<g id="edge10" class="edge">
<title>move_rover-&gt;force</title>
<path fill="none" stroke="black" d="M84.75,-155.39C105.72,-155.2 130.96,-154.97 151.7,-154.78"/>
<polygon fill="black" stroke="black" points="161.79,-154.69 151.83,-159.28 156.79,-154.74 151.79,-154.78 151.79,-154.78 151.79,-154.78 156.79,-154.74 151.75,-150.28 161.79,-154.69 161.79,-154.69"/>
<text text-anchor="start" x="106.48" y="-143.88" font-family="Times New Roman,serif" font-size="14.00">contains</text>
</g>
<!-- move_rover&#45;&gt;ee -->
<g id="edge11" class="edge">
<title>move_rover-&gt;ee</title>
<path fill="none" stroke="black" d="M44.23,-136.64C45.73,-117.32 48.06,-87.25 49.77,-65.13"/>
<polygon fill="black" stroke="black" points="50.56,-55 54.27,-65.32 50.17,-59.98 49.78,-64.97 49.78,-64.97 49.78,-64.97 50.17,-59.98 45.3,-64.62 50.56,-55 50.56,-55"/>
<text text-anchor="start" x="0" y="-89.69" font-family="Times New Roman,serif" font-size="14.00">contains</text>
</g>
<!-- move_rover&#45;&gt;control -->
<g id="edge12" class="edge">
<title>move_rover-&gt;control</title>
<path fill="none" stroke="black" d="M71.04,-136.58C108.51,-111.16 174.32,-66.53 212.82,-40.42"/>
<polygon fill="black" stroke="black" points="221.52,-34.52 215.77,-43.86 217.38,-37.33 213.24,-40.13 213.24,-40.13 213.24,-40.13 217.38,-37.33 210.72,-36.41 221.52,-34.52 221.52,-34.52"/>
<text text-anchor="start" x="94.93" y="-92.3" font-family="Times New Roman,serif" font-size="14.00">contains</text>
</g>
</g>
</svg>