<svg xmlns="http://www.w3.org/2000/svg" xmlns:xlink="http://www.w3.org/1999/xlink" width="495pt" height="426pt" viewBox="0.00 0.00 495.02 425.85">
<g id="graph0" class="graph" transform="scale(1 1) rotate(0) translate(4 421.85)">
<polygon fill="white" stroke="transparent" points="-4,4 -4,-421.85 491.02,-421.85 491.02,4 -4,4"/>
<!-- control_rover -->
<g id="node1" class="node">
<title>control_rover</title>
<polygon fill="lightgrey" stroke="grey" stroke-width="2" points="487.02,-77.74 397.02,-77.74 397.02,-39.74 487.02,-39.74 487.02,-77.74"/>
<text text-anchor="middle" x="442.02" y="-62.54" font-family="Times New Roman,serif" font-size="14.00">control_rover</text>
<text text-anchor="middle" x="442.02" y="-47.54" font-family="Times New Roman,serif" font-size="14.00">[]</text>
</g>
<!-- control -->
<g id="node10" class="node">
<title>control</title>
<ellipse fill="lightgrey" stroke="grey" stroke-width="0" cx="349.06" cy="-160.49" rx="36" ry="18"/>
<text text-anchor="middle" x="349.06" y="-156.79" font-family="Times New Roman,serif" font-size="14.00">control</text>
</g>
<!-- control_rover&#45;&gt;control -->
<g id="edge1" class="edge">
<title>control_rover-&gt;control</title>
<path fill="none" stroke="black" d="M424.53,-77.88C409.39,-94.45 387.41,-118.51 371.07,-136.39"/>
<polygon fill="black" stroke="black" points="364.01,-144.12 367.43,-133.71 367.38,-140.43 370.75,-136.74 370.75,-136.74 370.75,-136.74 367.38,-140.43 374.07,-139.78 364.01,-144.12 364.01,-144.12"/>
<text text-anchor="start" x="351.8" y="-110.93" font-family="Times New Roman,serif" font-size="14.00">contains</text>
</g>
<!-- view_ground -->
<g id="node2" class="node">
<title>view_ground</title>
<polygon fill="lightgrey" stroke="grey" stroke-width="2" points="306.99,-314.96 218.99,-314.96 218.99,-276.96 306.99,-276.96 306.99,-314.96"/>
<text text-anchor="middle" x="262.99" y="-299.76" font-family="Times New Roman,serif" font-size="14.00">view_ground</text>
<text text-anchor="middle" x="262.99" y="-284.76" font-family="Times New Roman,serif" font-size="14.00">[]</text>
</g>
<!-- ground -->
<g id="node6" class="node">
<title>ground</title>
<ellipse fill="orange" stroke="grey" stroke-width="0" cx="440.32" cy="-319.52" rx="36" ry="18"/>
<text text-anchor="middle" x="440.32" y="-315.82" font-family="Times New Roman,serif" font-size="14.00">ground</text>
</g>
<!-- view_ground&#45;&gt;ground -->
<g id="edge8" class="edge">
<title>view_ground-&gt;ground</title>
<path fill="none" stroke="black" d="M307.28,-301.85C334.21,-305.42 368.49,-309.98 395.51,-313.56"/>
<polygon fill="black" stroke="black" points="405.48,-314.89 394.97,-318.03 400.52,-314.23 395.57,-313.57 395.57,-313.57 395.57,-313.57 400.52,-314.23 396.16,-309.11 405.48,-314.89 405.48,-314.89"/>
<text text-anchor="start" x="351.4" y="-311.5" font-family="Times New Roman,serif" font-size="14.00">contains</text>
</g>
<!-- force -->
<g id="node7" class="node">
<title>force</title>
<ellipse fill="lightgrey" stroke="grey" stroke-width="0" cx="245.31" cy="-399.85" rx="28.7" ry="18"/>
<text text-anchor="middle" x="245.31" y="-396.15" font-family="Times New Roman,serif" font-size="14.00">force</text>
</g>
<!-- view_ground&#45;&gt;force -->
<g id="edge11" class="edge">
<title>view_ground-&gt;force</title>
<path fill="none" stroke="black" d="M259.75,-315.02C257.05,-330.88 253.16,-353.7 250.11,-371.68"/>
<polygon fill="black" stroke="black" points="248.42,-381.62 245.66,-371 249.25,-376.69 250.09,-371.76 250.09,-371.76 250.09,-371.76 249.25,-376.69 254.53,-372.51 248.42,-381.62 248.42,-381.62"/>
<text text-anchor="start" x="208.93" y="-347.15" font-family="Times New Roman,serif" font-size="14.00">contains</text>
</g>
<!-- ee -->
<g id="node8" class="node">
<title>ee</title>
<ellipse fill="lightgrey" stroke="grey" stroke-width="0" cx="146.66" cy="-223.77" rx="27" ry="18"/>
<text text-anchor="middle" x="146.66" y="-220.07" font-family="Times New Roman,serif" font-size="14.00">ee</text>
</g>
<!-- view_ground&#45;&gt;ee -->
<g id="edge9" class="edge">
<title>view_ground-&gt;ee</title>
<path fill="none" stroke="black" d="M232.12,-276.81C214.47,-265.85 192.47,-252.2 175.22,-241.5"/>
<polygon fill="black" stroke="black" points="166.68,-236.19 177.55,-237.64 170.93,-238.83 175.17,-241.47 175.17,-241.47 175.17,-241.47 170.93,-238.83 172.8,-245.29 166.68,-236.19 166.68,-236.19"/>
<text text-anchor="start" x="157.67" y="-262.95" font-family="Times New Roman,serif" font-size="14.00">contains</text>
</g>
<!-- video -->
<g id="node9" class="node">
<title>video</title>
<ellipse fill="lightgrey" stroke="grey" stroke-width="0" cx="48.14" cy="-326.08" rx="30.59" ry="18"/>
<text text-anchor="middle" x="48.14" y="-322.38" font-family="Times New Roman,serif" font-size="14.00">video</text>
</g>
<!-- view_ground&#45;&gt;video -->
<g id="edge10" class="edge">
<title>view_ground-&gt;video</title>
<path fill="none" stroke="black" d="M218.73,-302.17C180.33,-307.55 125.23,-315.27 88.13,-320.47"/>
<polygon fill="black" stroke="black" points="78.18,-321.87 87.46,-316.02 83.13,-321.17 88.08,-320.48 88.08,-320.48 88.08,-320.48 83.13,-321.17 88.7,-324.93 78.18,-321.87 78.18,-321.87"/>
<text text-anchor="start" x="107.43" y="-315.12" font-family="Times New Roman,serif" font-size="14.00">contains</text>
</g>
<!-- communicate -->
<g id="node3" class="node">
<title>communicate</title>
<polygon fill="lightgrey" stroke="grey" stroke-width="2" points="174.4,-122.56 83.4,-122.56 83.4,-84.56 174.4,-84.56 174.4,-122.56"/>
<text text-anchor="middle" x="128.9" y="-107.36" font-family="Times New Roman,serif" font-size="14.00">communicate</text>
<text text-anchor="middle" x="128.9" y="-92.36" font-family="Times New Roman,serif" font-size="14.00">[]</text>
</g>
<!-- communicate&#45;&gt;ee -->
<g id="edge13" class="edge">
<title>communicate-&gt;ee</title>
<path fill="none" stroke="black" d="M131.71,-122.61C134.62,-142.27 139.18,-173.16 142.5,-195.63"/>
<polygon fill="black" stroke="black" points="143.98,-205.6 138.06,-196.37 143.25,-200.65 142.51,-195.71 142.51,-195.71 142.51,-195.71 143.25,-200.65 146.97,-195.05 143.98,-205.6 143.98,-205.6"/>
<text text-anchor="start" x="91.11" y="-162.92" font-family="Times New Roman,serif" font-size="14.00">contains</text>
</g>
<!-- comms -->
<g id="node11" class="node">
<title>comms</title>
<ellipse fill="lightgrey" stroke="grey" stroke-width="0" cx="37.05" cy="-51.86" rx="37.09" ry="18"/>
<text text-anchor="middle" x="37.05" y="-48.16" font-family="Times New Roman,serif" font-size="14.00">comms</text>
</g>
<!-- communicate&#45;&gt;comms -->
<g id="edge12" class="edge">
<title>communicate-&gt;comms</title>
<path fill="none" stroke="black" d="M94.96,-84.45C86.86,-79.9 78.23,-75.04 70.18,-70.51"/>
<polygon fill="black" stroke="black" points="61.38,-65.56 72.3,-66.54 65.74,-68.01 70.1,-70.46 70.1,-70.46 70.1,-70.46 65.74,-68.01 67.89,-74.38 61.38,-65.56 61.38,-65.56"/>
<text text-anchor="start" x="36.57" y="-81.28" font-family="Times New Roman,serif" font-size="14.00">contains</text>
</g>
<!-- store_energy -->
<g id="node4" class="node">
<title>store_energy</title>
<polygon fill="orange" stroke="red" stroke-width="2" points="288.65,-188.25 202.65,-188.25 202.65,-150.25 288.65,-150.25 288.65,-188.25"/>
<text text-anchor="middle" x="245.65" y="-173.05" font-family="Times New Roman,serif" font-size="14.00">store_energy</text>
<text text-anchor="middle" x="245.65" y="-158.05" font-family="Times New Roman,serif" font-size="14.00">['no_charge']</text>
</g>
<!-- store_energy&#45;&gt;ee -->
<g id="edge2" class="edge">
<title>store_energy-&gt;ee</title>
<path fill="none" stroke="black" d="M211.03,-188.32C199.81,-194.5 187.48,-201.29 176.64,-207.26"/>
<polygon fill="black" stroke="black" points="167.56,-212.26 174.14,-203.5 171.94,-209.85 176.31,-207.44 176.31,-207.44 176.31,-207.44 171.94,-209.85 178.49,-211.38 167.56,-212.26 167.56,-212.26"/>
<text text-anchor="start" x="147.83" y="-186.59" font-family="Times New Roman,serif" font-size="14.00">contains</text>
</g>
<!-- store_energy&#45;&gt;control -->
<g id="edge3" class="edge">
<title>store_energy-&gt;control</title>
<path fill="none" stroke="black" d="M288.9,-165.59C293.64,-165.18 298.47,-164.78 303.23,-164.37"/>
<polygon fill="black" stroke="black" points="313.49,-163.5 303.91,-168.83 308.51,-163.92 303.53,-164.35 303.53,-164.35 303.53,-164.35 308.51,-163.92 303.15,-159.86 313.49,-163.5 313.49,-163.5"/>
<text text-anchor="start" x="273.07" y="-153.78" font-family="Times New Roman,serif" font-size="14.00">contains</text>
</g>
<!-- move_rover -->
<g id="node5" class="node">
<title>move_rover</title>
<polygon fill="lightgrey" stroke="red" stroke-width="2" points="292.67,-38 209.67,-38 209.67,0 292.67,0 292.67,-38"/>
<text text-anchor="middle" x="251.17" y="-22.8" font-family="Times New Roman,serif" font-size="14.00">move_rover</text>
<text text-anchor="middle" x="251.17" y="-7.8" font-family="Times New Roman,serif" font-size="14.00">['short']</text>
</g>
<!-- move_rover&#45;&gt;ground -->
<g id="edge4" class="edge">
<title>move_rover-&gt;ground</title>
<path fill="none" stroke="black" d="M263.29,-38.26C296.11,-90.39 386.72,-234.36 423.99,-293.57"/>
<polygon fill="black" stroke="black" points="429.5,-302.31 420.36,-296.25 426.83,-298.08 424.17,-293.85 424.17,-293.85 424.17,-293.85 426.83,-298.08 427.98,-291.45 429.5,-302.31 429.5,-302.31"/>
<text text-anchor="start" x="297.64" y="-169.71" font-family="Times New Roman,serif" font-size="14.00">contains</text>
</g>
<!-- move_rover&#45;&gt;force -->
<g id="edge7" class="edge">
<title>move_rover-&gt;force</title>
<path fill="none" stroke="black" d="M250.88,-38.15C249.92,-100.42 246.89,-297.41 245.75,-371.4"/>
<polygon fill="black" stroke="black" points="245.59,-381.79 241.24,-371.72 245.67,-376.79 245.74,-371.79 245.74,-371.79 245.74,-371.79 245.67,-376.79 250.24,-371.86 245.59,-381.79 245.59,-381.79"/>
<text text-anchor="start" x="202.31" y="-208.57" font-family="Times New Roman,serif" font-size="14.00">contains</text>
</g>
<!-- move_rover&#45;&gt;ee -->
<g id="edge5" class="edge">
<title>move_rover-&gt;ee</title>
<path fill="none" stroke="black" d="M241.34,-38.26C222.53,-75.12 181.43,-155.65 160.1,-197.44"/>
<polygon fill="black" stroke="black" points="155.5,-206.46 156.04,-195.51 157.77,-202 160.05,-197.55 160.05,-197.55 160.05,-197.55 157.77,-202 164.05,-199.6 155.5,-206.46 155.5,-206.46"/>
<text text-anchor="start" x="200.72" y="-121.65" font-family="Times New Roman,serif" font-size="14.00">contains</text>
</g>
<!-- move_rover&#45;&gt;control -->
<g id="edge6" class="edge">
<title>move_rover-&gt;control</title>
<path fill="none" stroke="black" d="M264.38,-38.08C281.7,-63.13 312.17,-107.18 331.45,-135.04"/>
<polygon fill="black" stroke="black" points="337.29,-143.48 327.9,-137.81 334.44,-139.36 331.6,-135.25 331.6,-135.25 331.6,-135.25 334.44,-139.36 335.3,-132.69 337.29,-143.48 337.29,-143.48"/>
<text text-anchor="start" x="251.91" y="-90.36" font-family="Times New Roman,serif" font-size="14.00">contains</text>
</g>
</g>
</svg>