<svg xmlns="http://www.w3.org/2000/svg" xmlns:xlink="http://www.w3.org/1999/xlink" width="503pt" height="444pt" viewBox="0.00 0.00 502.54 444.00">
<g id="graph0" class="graph" transform="scale(1 1) rotate(0) translate(4 440)">
<polygon fill="white" stroke="transparent" points="-4,4 -4,-440 498.54,-440 498.54,4 -4,4"/>
<!-- Rover -->
<g id="node1" class="node">
<title>Rover</title>
<polygon fill="lightgrey" stroke="grey" stroke-width="0" points="193.7,-436 128.71,-401.5 258.69,-401.5 193.7,-436"/>
<text text-anchor="middle" x="193.7" y="-409.3" font-family="Times New Roman,serif" font-size="14.00">Rover</text>
</g>
<!-- FxnBlock -->
<g id="node2" class="node">
<title>FxnBlock</title>
<polygon fill="lightgrey" stroke="grey" stroke-width="2" points="92.7,-231 22.7,-231 22.7,-195 92.7,-195 92.7,-231"/>
<text text-anchor="middle" x="57.7" y="-209.3" font-family="Times New Roman,serif" font-size="14.00">FxnBlock</text>
</g>
<!-- Rover&#45;&gt;FxnBlock -->
<g id="edge1" class="edge">
<title>Rover-&gt;FxnBlock</title>
<path fill="none" stroke="black" d="M184.73,-401.31C170.53,-384.18 142.24,-349.33 120.7,-318 102.98,-292.24 84.68,-261.48 72.4,-240.13"/>
<polygon fill="black" stroke="black" points="67.36,-231.31 76.23,-237.77 69.84,-235.66 72.32,-240 72.32,-240 72.32,-240 69.84,-235.66 68.42,-242.23 67.36,-231.31 67.36,-231.31"/>
<text text-anchor="start" x="120.7" y="-306.8" font-family="Times New Roman,serif" font-size="14.00">contains</text>
</g>
<!-- StoreEnergy -->
<g id="node3" class="node">
<title>StoreEnergy</title>
<polygon fill="lightgrey" stroke="grey" stroke-width="2" points="294.7,-231 210.7,-231 210.7,-195 294.7,-195 294.7,-231"/>
<text text-anchor="middle" x="252.7" y="-209.3" font-family="Times New Roman,serif" font-size="14.00">StoreEnergy</text>
</g>
<!-- Rover&#45;&gt;StoreEnergy -->
<g id="edge2" class="edge">
<title>Rover-&gt;StoreEnergy</title>
<path fill="none" stroke="black" d="M197.07,-401.31C202.54,-383.88 213.66,-348.28 222.7,-318 230.47,-291.97 239.03,-262.17 245.01,-241.16"/>
<polygon fill="black" stroke="black" points="247.8,-231.33 249.4,-242.18 246.44,-236.14 245.07,-240.95 245.07,-240.95 245.07,-240.95 246.44,-236.14 240.74,-239.72 247.8,-231.33 247.8,-231.33"/>
<text text-anchor="start" x="226.7" y="-306.8" font-family="Times New Roman,serif" font-size="14.00">contains</text>
</g>
<!-- ControlRover -->
<g id="node4" class="node">
<title>ControlRover</title>
<polygon fill="lightgrey" stroke="grey" stroke-width="2" points="420.2,-231 329.2,-231 329.2,-195 420.2,-195 420.2,-231"/>
<text text-anchor="middle" x="374.7" y="-209.3" font-family="Times New Roman,serif" font-size="14.00">ControlRover</text>
</g>
<!-- Rover&#45;&gt;ControlRover -->
<g id="edge3" class="edge">
<title>Rover-&gt;ControlRover</title>
<path fill="none" stroke="black" d="M203.43,-401.35C231.36,-370.8 312.3,-282.26 352.08,-238.74"/>
<polygon fill="black" stroke="black" points="359.01,-231.16 355.58,-241.58 355.64,-234.85 352.26,-238.54 352.26,-238.54 352.26,-238.54 355.64,-234.85 348.94,-235.5 359.01,-231.16 359.01,-231.16"/>
<text text-anchor="start" x="288.7" y="-306.8" font-family="Times New Roman,serif" font-size="14.00">contains</text>
</g>
<!-- MoveRover -->
<g id="node5" class="node">
<title>MoveRover</title>
<polygon fill="lightgrey" stroke="grey" stroke-width="2" points="192.7,-231 110.7,-231 110.7,-195 192.7,-195 192.7,-231"/>
<text text-anchor="middle" x="151.7" y="-209.3" font-family="Times New Roman,serif" font-size="14.00">MoveRover</text>
</g>
<!-- Rover&#45;&gt;MoveRover -->
<g id="edge4" class="edge">
<title>Rover-&gt;MoveRover</title>
<path fill="none" stroke="black" d="M191.44,-401.35C185.08,-371.38 166.87,-285.55 157.47,-241.22"/>
<polygon fill="black" stroke="black" points="155.34,-231.16 161.81,-240.01 156.37,-236.05 157.41,-240.94 157.41,-240.94 157.41,-240.94 156.37,-236.05 153.01,-241.88 155.34,-231.16 155.34,-231.16"/>
<text text-anchor="start" x="172.7" y="-306.8" font-family="Times New Roman,serif" font-size="14.00">contains</text>
</g>
<!-- EE -->
<g id="node7" class="node">
<title>EE</title>
<ellipse fill="lightgrey" stroke="grey" stroke-width="0" cx="175.7" cy="-18" rx="27" ry="18"/>
<text text-anchor="middle" x="175.7" y="-14.3" font-family="Times New Roman,serif" font-size="14.00">EE</text>
</g>
<!-- StoreEnergy&#45;&gt;EE -->
<g id="edge6" class="edge">
<title>StoreEnergy-&gt;EE</title>
<path fill="none" stroke="black" d="M248.86,-194.71C243.95,-173.77 234.65,-137.63 222.7,-108 213.65,-85.58 200.65,-61.39 190.62,-43.9"/>
<polygon fill="black" stroke="black" points="185.39,-34.92 194.31,-41.3 187.91,-39.25 190.42,-43.57 190.42,-43.57 190.42,-43.57 187.91,-39.25 186.54,-45.83 185.39,-34.92 185.39,-34.92"/>
<text text-anchor="start" x="227.7" y="-111.8" font-family="Times New Roman,serif" font-size="14.00">contains</text>
</g>
<!-- Control -->
<g id="node8" class="node">
<title>Control</title>
<ellipse fill="lightgrey" stroke="grey" stroke-width="0" cx="313.7" cy="-18" rx="37.89" ry="18"/>
<text text-anchor="middle" x="313.7" y="-14.3" font-family="Times New Roman,serif" font-size="14.00">Control</text>
</g>
<!-- StoreEnergy&#45;&gt;Control -->
<g id="edge5" class="edge">
<title>StoreEnergy-&gt;Control</title>
<path fill="none" stroke="black" d="M261.55,-194.68C270.27,-177.04 283.44,-148.7 291.7,-123 299.9,-97.45 305.89,-67.36 309.52,-46.14"/>
<polygon fill="black" stroke="black" points="311.16,-36.21 313.97,-46.81 310.35,-41.14 309.53,-46.08 309.53,-46.08 309.53,-46.08 310.35,-41.14 305.09,-45.34 311.16,-36.21 311.16,-36.21"/>
<text text-anchor="start" x="295.7" y="-111.8" font-family="Times New Roman,serif" font-size="14.00">contains</text>
</g>
<!-- ControlRover&#45;&gt;Control -->
<g id="edge7" class="edge">
<title>ControlRover-&gt;Control</title>
<path fill="none" stroke="black" d="M370.35,-194.95C364.99,-174.26 355.37,-138.36 345.7,-108 338.94,-86.81 330.38,-63.14 323.81,-45.53"/>
<polygon fill="black" stroke="black" points="320.2,-35.94 327.94,-43.71 321.96,-40.62 323.72,-45.3 323.72,-45.3 323.72,-45.3 321.96,-40.62 319.51,-46.88 320.2,-35.94 320.2,-35.94"/>
<text text-anchor="start" x="349.7" y="-111.8" font-family="Times New Roman,serif" font-size="14.00">contains</text>
</g>
<!-- MoveRover&#45;&gt;EE -->
<g id="edge10" class="edge">
<title>MoveRover-&gt;EE</title>
<path fill="none" stroke="black" d="M135.93,-194.64C119.39,-174.24 97.14,-139.2 107.7,-108 116.59,-81.72 136.68,-57.09 152.74,-40.44"/>
<polygon fill="black" stroke="black" points="160.23,-32.93 156.35,-43.19 156.7,-36.47 153.17,-40.01 153.17,-40.01 153.17,-40.01 156.7,-36.47 149.98,-36.83 160.23,-32.93 160.23,-32.93"/>
<text text-anchor="start" x="107.7" y="-111.8" font-family="Times New Roman,serif" font-size="14.00">contains</text>
</g>
<!-- MoveRover&#45;&gt;Control -->
<g id="edge8" class="edge">
<title>MoveRover-&gt;Control</title>
<path fill="none" stroke="black" d="M151.18,-194.95C151.34,-172.95 154.51,-134.39 172.7,-108 197.56,-71.93 242.31,-47.4 274.74,-33.38"/>
<polygon fill="black" stroke="black" points="284.37,-29.36 276.87,-37.36 279.75,-31.28 275.14,-33.21 275.14,-33.21 275.14,-33.21 279.75,-31.28 273.41,-29.05 284.37,-29.36 284.37,-29.36"/>
<text text-anchor="start" x="172.7" y="-111.8" font-family="Times New Roman,serif" font-size="14.00">contains</text>
</g>
<!-- Ground -->
<g id="node11" class="node">
<title>Ground</title>
<ellipse fill="lightgrey" stroke="grey" stroke-width="0" cx="37.7" cy="-18" rx="37.89" ry="18"/>
<text text-anchor="middle" x="37.7" y="-14.3" font-family="Times New Roman,serif" font-size="14.00">Ground</text>
</g>
<!-- MoveRover&#45;&gt;Ground -->
<g id="edge9" class="edge">
<title>MoveRover-&gt;Ground</title>
<path fill="none" stroke="black" d="M124.41,-194.69C101.9,-178.87 71.1,-153.36 54.7,-123 41.9,-99.31 38.2,-68.5 37.36,-46.57"/>
<polygon fill="black" stroke="black" points="37.16,-36.3 41.86,-46.21 37.26,-41.3 37.36,-46.3 37.36,-46.3 37.36,-46.3 37.26,-41.3 32.86,-46.39 37.16,-36.3 37.16,-36.3"/>
<text text-anchor="start" x="54.7" y="-111.8" font-family="Times New Roman,serif" font-size="14.00">contains</text>
</g>
<!-- Force -->
<g id="node6" class="node">
<title>Force</title>
<ellipse fill="lightgrey" stroke="grey" stroke-width="0" cx="307.7" cy="-413" rx="30.59" ry="18"/>
<text text-anchor="middle" x="307.7" y="-409.3" font-family="Times New Roman,serif" font-size="14.00">Force</text>
</g>
<!-- Flow -->
<g id="node9" class="node">
<title>Flow</title>
<ellipse fill="lightgrey" stroke="grey" stroke-width="0" cx="384.7" cy="-413" rx="28.7" ry="18"/>
<text text-anchor="middle" x="384.7" y="-409.3" font-family="Times New Roman,serif" font-size="14.00">Flow</text>
</g>
<!-- Video -->
<g id="node10" class="node">
<title>Video</title>
<ellipse fill="lightgrey" stroke="grey" stroke-width="0" cx="462.7" cy="-413" rx="31.7" ry="18"/>
<text text-anchor="middle" x="462.7" y="-409.3" font-family="Times New Roman,serif" font-size="14.00">Video</text>
</g>
</g>
</svg>