<svg xmlns="http://www.w3.org/2000/svg" xmlns:xlink="http://www.w3.org/1999/xlink" width="899pt" height="444pt" viewBox="0.00 0.00 899.35 444.00">
<g id="graph0" class="graph" transform="scale(1 1) rotate(0) translate(4 440)">
<polygon fill="white" stroke="transparent" points="-4,4 -4,-440 895.35,-440 895.35,4 -4,4"/>
<!-- Rover -->
<g id="node1" class="node">
<title>Rover</title>
<polygon fill="lightgrey" stroke="grey" stroke-width="0" points="580.85,-436 515.86,-401.5 645.84,-401.5 580.85,-436"/>
<text text-anchor="middle" x="580.85" y="-409.3" font-family="Times New Roman,serif" font-size="14.00">Rover</text>
</g>
<!-- ViewGround -->
<g id="node2" class="node">
<title>ViewGround</title>
<polygon fill="lightgrey" stroke="grey" stroke-width="2" points="212.85,-231 126.85,-231 126.85,-195 212.85,-195 212.85,-231"/>
<text text-anchor="middle" x="169.85" y="-209.3" font-family="Times New Roman,serif" font-size="14.00">ViewGround</text>
</g>
<!-- Rover&#45;&gt;ViewGround -->
<g id="edge1" class="edge">
<title>Rover-&gt;ViewGround</title>
<path fill="none" stroke="black" d="M559.04,-401.49C494.27,-370.29 302.11,-277.72 214.4,-235.46"/>
<polygon fill="black" stroke="black" points="205.24,-231.05 216.2,-231.33 209.74,-233.22 214.24,-235.39 214.24,-235.39 214.24,-235.39 209.74,-233.22 212.29,-239.44 205.24,-231.05 205.24,-231.05"/>
<text text-anchor="start" x="375.85" y="-306.8" font-family="Times New Roman,serif" font-size="14.00">contains</text>
</g>
<!-- Communicate -->
<g id="node3" class="node">
<title>Communicate</title>
<polygon fill="lightgrey" stroke="grey" stroke-width="2" points="768.85,-231 674.85,-231 674.85,-195 768.85,-195 768.85,-231"/>
<text text-anchor="middle" x="721.85" y="-209.3" font-family="Times New Roman,serif" font-size="14.00">Communicate</text>
</g>
<!-- Rover&#45;&gt;Communicate -->
<g id="edge2" class="edge">
<title>Rover-&gt;Communicate</title>
<path fill="none" stroke="black" d="M588.43,-401.35C610.05,-370.99 672.45,-283.36 703.65,-239.56"/>
<polygon fill="black" stroke="black" points="709.63,-231.16 707.49,-241.92 706.73,-235.23 703.83,-239.31 703.83,-239.31 703.83,-239.31 706.73,-235.23 700.16,-236.7 709.63,-231.16 709.63,-231.16"/>
<text text-anchor="start" x="654.85" y="-306.8" font-family="Times New Roman,serif" font-size="14.00">contains</text>
</g>
<!-- MoveRover -->
<g id="node4" class="node">
<title>MoveRover</title>
<polygon fill="lightgrey" stroke="grey" stroke-width="2" points="486.85,-231 404.85,-231 404.85,-195 486.85,-195 486.85,-231"/>
<text text-anchor="middle" x="445.85" y="-209.3" font-family="Times New Roman,serif" font-size="14.00">MoveRover</text>
</g>
<!-- Rover&#45;&gt;MoveRover -->
<g id="edge3" class="edge">
<title>Rover-&gt;MoveRover</title>
<path fill="none" stroke="black" d="M573.59,-401.35C552.89,-370.99 493.14,-283.36 463.27,-239.56"/>
<polygon fill="black" stroke="black" points="457.55,-231.16 466.9,-236.89 460.36,-235.29 463.18,-239.42 463.18,-239.42 463.18,-239.42 460.36,-235.29 459.46,-241.96 457.55,-231.16 457.55,-231.16"/>
<text text-anchor="start" x="512.85" y="-306.8" font-family="Times New Roman,serif" font-size="14.00">contains</text>
</g>
<!-- ControlRover -->
<g id="node5" class="node">
<title>ControlRover</title>
<polygon fill="lightgrey" stroke="grey" stroke-width="2" points="891.35,-231 800.35,-231 800.35,-195 891.35,-195 891.35,-231"/>
<text text-anchor="middle" x="845.85" y="-209.3" font-family="Times New Roman,serif" font-size="14.00">ControlRover</text>
</g>
<!-- Rover&#45;&gt;ControlRover -->
<g id="edge4" class="edge">
<title>Rover-&gt;ControlRover</title>
<path fill="none" stroke="black" d="M595.09,-401.35C636.41,-370.49 756.96,-280.42 814.53,-237.4"/>
<polygon fill="black" stroke="black" points="822.88,-231.16 817.56,-240.75 818.87,-234.15 814.87,-237.15 814.87,-237.15 814.87,-237.15 818.87,-234.15 812.18,-233.54 822.88,-231.16 822.88,-231.16"/>
<text text-anchor="start" x="720.85" y="-306.8" font-family="Times New Roman,serif" font-size="14.00">contains</text>
</g>
<!-- StoreEnergy -->
<g id="node6" class="node">
<title>StoreEnergy</title>
<polygon fill="lightgrey" stroke="grey" stroke-width="2" points="622.85,-231 538.85,-231 538.85,-195 622.85,-195 622.85,-231"/>
<text text-anchor="middle" x="580.85" y="-209.3" font-family="Times New Roman,serif" font-size="14.00">StoreEnergy</text>
</g>
<!-- Rover&#45;&gt;StoreEnergy -->
<g id="edge5" class="edge">
<title>Rover-&gt;StoreEnergy</title>
<path fill="none" stroke="black" d="M580.85,-401.35C580.85,-371.38 580.85,-285.55 580.85,-241.22"/>
<polygon fill="black" stroke="black" points="580.85,-231.16 585.35,-241.16 580.85,-236.16 580.85,-241.16 580.85,-241.16 580.85,-241.16 580.85,-236.16 576.35,-241.16 580.85,-231.16 580.85,-231.16"/>
<text text-anchor="start" x="580.85" y="-306.8" font-family="Times New Roman,serif" font-size="14.00">contains</text>
</g>
<!-- Video -->
<g id="node7" class="node">
<title>Video</title>
<ellipse fill="lightgrey" stroke="grey" stroke-width="0" cx="31.85" cy="-18" rx="31.7" ry="18"/>
<text text-anchor="middle" x="31.85" y="-14.3" font-family="Times New Roman,serif" font-size="14.00">Video</text>
</g>
<!-- ViewGround&#45;&gt;Video -->
<g id="edge9" class="edge">
<title>ViewGround-&gt;Video</title>
<path fill="none" stroke="black" d="M133.98,-194.99C106.44,-179.99 69.84,-155.47 49.85,-123 35.56,-99.8 31.8,-68.47 31.15,-46.28"/>
<polygon fill="black" stroke="black" points="31.05,-36.2 35.65,-46.15 31.1,-41.2 31.15,-46.2 31.15,-46.2 31.15,-46.2 31.1,-41.2 26.65,-46.24 31.05,-36.2 31.05,-36.2"/>
<text text-anchor="start" x="49.85" y="-111.8" font-family="Times New Roman,serif" font-size="14.00">contains</text>
</g>
<!-- EE -->
<g id="node9" class="node">
<title>EE</title>
<ellipse fill="lightgrey" stroke="grey" stroke-width="0" cx="461.85" cy="-18" rx="27" ry="18"/>
<text text-anchor="middle" x="461.85" y="-14.3" font-family="Times New Roman,serif" font-size="14.00">EE</text>
</g>
<!-- ViewGround&#45;&gt;EE -->
<g id="edge7" class="edge">
<title>ViewGround-&gt;EE</title>
<path fill="none" stroke="black" d="M195.76,-194.87C250.76,-158.52 378.72,-73.94 434.75,-36.91"/>
<polygon fill="black" stroke="black" points="443.42,-31.18 437.55,-40.45 439.24,-33.94 435.07,-36.7 435.07,-36.7 435.07,-36.7 439.24,-33.94 432.59,-32.94 443.42,-31.18 443.42,-31.18"/>
<text text-anchor="start" x="324.85" y="-111.8" font-family="Times New Roman,serif" font-size="14.00">contains</text>
</g>
<!-- Ground -->
<g id="node10" class="node">
<title>Ground</title>
<ellipse fill="lightgrey" stroke="grey" stroke-width="0" cx="359.85" cy="-18" rx="37.89" ry="18"/>
<text text-anchor="middle" x="359.85" y="-14.3" font-family="Times New Roman,serif" font-size="14.00">Ground</text>
</g>
<!-- ViewGround&#45;&gt;Ground -->
<g id="edge8" class="edge">
<title>ViewGround-&gt;Ground</title>
<path fill="none" stroke="black" d="M164.87,-194.97C159.52,-172.99 153.89,-134.45 170.85,-108 202.42,-58.75 269.24,-36.23 314.36,-26.31"/>
<polygon fill="black" stroke="black" points="324.19,-24.27 315.32,-30.71 319.3,-25.28 314.4,-26.3 314.4,-26.3 314.4,-26.3 319.3,-25.28 313.49,-21.89 324.19,-24.27 324.19,-24.27"/>
<text text-anchor="start" x="170.85" y="-111.8" font-family="Times New Roman,serif" font-size="14.00">contains</text>
</g>
<!-- Force -->
<g id="node11" class="node">
<title>Force</title>
<ellipse fill="lightgrey" stroke="grey" stroke-width="0" cx="175.85" cy="-18" rx="30.59" ry="18"/>
<text text-anchor="middle" x="175.85" y="-14.3" font-family="Times New Roman,serif" font-size="14.00">Force</text>
</g>
<!-- ViewGround&#45;&gt;Force -->
<g id="edge6" class="edge">
<title>ViewGround-&gt;Force</title>
<path fill="none" stroke="black" d="M146.03,-194.96C121.88,-175.41 89.68,-141.68 101.85,-108 111.62,-80.96 133.59,-56.34 151.06,-39.89"/>
<polygon fill="black" stroke="black" points="158.72,-32.92 154.35,-42.98 155.02,-36.29 151.32,-39.65 151.32,-39.65 151.32,-39.65 155.02,-36.29 148.29,-36.32 158.72,-32.92 158.72,-32.92"/>
<text text-anchor="start" x="101.85" y="-111.8" font-family="Times New Roman,serif" font-size="14.00">contains</text>
</g>
<!-- Communicate&#45;&gt;EE -->
<g id="edge10" class="edge">
<title>Communicate-&gt;EE</title>
<path fill="none" stroke="black" d="M720.12,-195C716.96,-172.34 708.24,-132.3 684.85,-108 633.81,-54.98 547.11,-32.76 498.21,-24.08"/>
<polygon fill="black" stroke="black" points="488.08,-22.38 498.69,-19.6 493.01,-23.21 497.94,-24.03 497.94,-24.03 497.94,-24.03 493.01,-23.21 497.2,-28.47 488.08,-22.38 488.08,-22.38"/>
<text text-anchor="start" x="694.85" y="-111.8" font-family="Times New Roman,serif" font-size="14.00">contains</text>
</g>
<!-- Flow -->
<g id="node12" class="node">
<title>Flow</title>
<ellipse fill="lightgrey" stroke="grey" stroke-width="0" cx="790.85" cy="-18" rx="28.7" ry="18"/>
<text text-anchor="middle" x="790.85" y="-14.3" font-family="Times New Roman,serif" font-size="14.00">Flow</text>
</g>
<!-- Communicate&#45;&gt;Flow -->
<g id="edge11" class="edge">
<title>Communicate-&gt;Flow</title>
<path fill="none" stroke="black" d="M732.71,-194.93C743.35,-177.48 759.33,-149.29 768.85,-123 778.03,-97.61 783.9,-67.28 787.25,-45.94"/>
<polygon fill="black" stroke="black" points="788.73,-35.97 791.71,-46.52 788,-40.91 787.26,-45.86 787.26,-45.86 787.26,-45.86 788,-40.91 782.81,-45.2 788.73,-35.97 788.73,-35.97"/>
<text text-anchor="start" x="772.85" y="-111.8" font-family="Times New Roman,serif" font-size="14.00">contains</text>
</g>
<!-- Control -->
<g id="node8" class="node">
<title>Control</title>
<ellipse fill="lightgrey" stroke="grey" stroke-width="0" cx="652.85" cy="-18" rx="37.89" ry="18"/>
<text text-anchor="middle" x="652.85" y="-14.3" font-family="Times New Roman,serif" font-size="14.00">Control</text>
</g>
<!-- MoveRover&#45;&gt;Control -->
<g id="edge12" class="edge">
<title>MoveRover-&gt;Control</title>
<path fill="none" stroke="black" d="M470.97,-194.92C495.26,-177.9 532.59,-150.43 561.85,-123 588.89,-97.65 616.43,-65.02 634.02,-43.13"/>
<polygon fill="black" stroke="black" points="640.48,-35.02 637.77,-45.65 637.37,-38.93 634.25,-42.84 634.25,-42.84 634.25,-42.84 637.37,-38.93 630.73,-40.04 640.48,-35.02 640.48,-35.02"/>
<text text-anchor="start" x="574.85" y="-111.8" font-family="Times New Roman,serif" font-size="14.00">contains</text>
</g>
<!-- MoveRover&#45;&gt;EE -->
<g id="edge13" class="edge">
<title>MoveRover-&gt;EE</title>
<path fill="none" stroke="black" d="M445.18,-194.66C444.58,-173.98 444.16,-138.4 446.85,-108 448.7,-87.06 452.73,-63.63 456.15,-46.06"/>
<polygon fill="black" stroke="black" points="458.17,-35.96 460.62,-46.65 457.19,-40.86 456.21,-45.76 456.21,-45.76 456.21,-45.76 457.19,-40.86 451.79,-44.88 458.17,-35.96 458.17,-35.96"/>
<text text-anchor="start" x="446.85" y="-111.8" font-family="Times New Roman,serif" font-size="14.00">contains</text>
</g>
<!-- MoveRover&#45;&gt;Ground -->
<g id="edge14" class="edge">
<title>MoveRover-&gt;Ground</title>
<path fill="none" stroke="black" d="M434.64,-194.8C423.53,-177.26 406.53,-148.99 394.85,-123 383.37,-97.47 373.53,-66.98 367.24,-45.64"/>
<polygon fill="black" stroke="black" points="364.44,-35.96 371.54,-44.31 365.83,-40.76 367.22,-45.56 367.22,-45.56 367.22,-45.56 365.83,-40.76 362.9,-46.81 364.44,-35.96 364.44,-35.96"/>
<text text-anchor="start" x="394.85" y="-111.8" font-family="Times New Roman,serif" font-size="14.00">contains</text>
</g>
<!-- MoveRover&#45;&gt;Force -->
<g id="edge15" class="edge">
<title>MoveRover-&gt;Force</title>
<path fill="none" stroke="black" d="M404.69,-202.21C359.98,-189.88 288.45,-165.07 239.85,-123 215.16,-101.63 197.02,-68.34 186.47,-45.2"/>
<polygon fill="black" stroke="black" points="182.43,-35.97 190.56,-43.32 184.43,-40.55 186.44,-45.12 186.44,-45.12 186.44,-45.12 184.43,-40.55 182.32,-46.93 182.43,-35.97 182.43,-35.97"/>
<text text-anchor="start" x="239.85" y="-111.8" font-family="Times New Roman,serif" font-size="14.00">contains</text>
</g>
<!-- ControlRover&#45;&gt;Control -->
<g id="edge16" class="edge">
<title>ControlRover-&gt;Control</title>
<path fill="none" stroke="black" d="M846.3,-194.69C846,-172.42 842.4,-133.55 822.85,-108 791.1,-66.5 734.44,-42.44 695.31,-30.04"/>
<polygon fill="black" stroke="black" points="685.52,-27.06 696.4,-25.66 690.3,-28.51 695.09,-29.97 695.09,-29.97 695.09,-29.97 690.3,-28.51 693.78,-34.27 685.52,-27.06 685.52,-27.06"/>
<text text-anchor="start" x="830.85" y="-111.8" font-family="Times New Roman,serif" font-size="14.00">contains</text>
</g>
<!-- StoreEnergy&#45;&gt;Control -->
<g id="edge17" class="edge">
<title>StoreEnergy-&gt;Control</title>
<path fill="none" stroke="black" d="M592.67,-194.71C604.03,-177.32 620.92,-149.37 630.85,-123 640.36,-97.74 646.19,-67.39 649.43,-46.01"/>
<polygon fill="black" stroke="black" points="650.86,-36.01 653.9,-46.55 650.15,-40.96 649.44,-45.91 649.44,-45.91 649.44,-45.91 650.15,-40.96 644.99,-45.28 650.86,-36.01 650.86,-36.01"/>
<text text-anchor="start" x="634.85" y="-111.8" font-family="Times New Roman,serif" font-size="14.00">contains</text>
</g>
<!-- StoreEnergy&#45;&gt;EE -->
<g id="edge18" class="edge">
<title>StoreEnergy-&gt;EE</title>
<path fill="none" stroke="black" d="M567.08,-194.82C553.33,-177.28 531.98,-149.02 515.85,-123 499.86,-97.21 484.17,-66.17 473.86,-44.75"/>
<polygon fill="black" stroke="black" points="469.52,-35.64 477.88,-42.73 471.67,-40.15 473.82,-44.66 473.82,-44.66 473.82,-44.66 471.67,-40.15 469.76,-46.6 469.52,-35.64 469.52,-35.64"/>
<text text-anchor="start" x="515.85" y="-111.8" font-family="Times New Roman,serif" font-size="14.00">contains</text>
</g>
</g>
</svg>