<svg xmlns="http://www.w3.org/2000/svg" xmlns:xlink="http://www.w3.org/1999/xlink" width="387pt" height="292pt" viewBox="0.00 0.00 386.50 292.07">
<g id="graph0" class="graph" transform="scale(1 1) rotate(0) translate(4 288.07)">
<polygon fill="white" stroke="transparent" points="-4,4 -4,-288.07 382.5,-288.07 382.5,4 -4,4"/>
<!-- control_rover -->
<g id="node1" class="node">
<title>control_rover</title>
<polygon fill="lightgrey" stroke="grey" stroke-width="2" points="280.75,-38.36 187.75,-38.36 187.75,-2.36 280.75,-2.36 280.75,-38.36"/>
<text text-anchor="middle" x="234.25" y="-16.66" font-family="Times New Roman,serif" font-size="14.00">control_rover</text>
</g>
<!-- force -->
<g id="node7" class="node">
<title>force</title>
<ellipse fill="lightgrey" stroke="grey" stroke-width="0" cx="257.29" cy="-150.22" rx="29.8" ry="18"/>
<text text-anchor="middle" x="257.29" y="-146.52" font-family="Times New Roman,serif" font-size="14.00">force</text>
</g>
<!-- control_rover&#45;&gt;force -->
<g id="edge5" class="edge">
<title>control_rover-&gt;force</title>
<path fill="none" stroke="black" d="M237.45,-38.41C241.3,-60.12 247.81,-96.8 252.32,-122.2"/>
<polygon fill="black" stroke="black" points="254.11,-132.31 247.93,-123.25 253.24,-127.39 252.37,-122.47 252.37,-122.47 252.37,-122.47 253.24,-127.39 256.8,-121.68 254.11,-132.31 254.11,-132.31"/>
<text text-anchor="start" x="197.88" y="-84.1" font-family="Times New Roman,serif" font-size="14.00">contains</text>
</g>
<!-- ee -->
<g id="node8" class="node">
<title>ee</title>
<ellipse fill="lightgrey" stroke="grey" stroke-width="0" cx="160.27" cy="-112.39" rx="27" ry="18"/>
<text text-anchor="middle" x="160.27" y="-108.69" font-family="Times New Roman,serif" font-size="14.00">ee</text>
</g>
<!-- control_rover&#45;&gt;ee -->
<g id="edge3" class="edge">
<title>control_rover-&gt;ee</title>
<path fill="none" stroke="black" d="M219.63,-38.54C208.19,-52.77 192.17,-72.69 179.66,-88.26"/>
<polygon fill="black" stroke="black" points="173.12,-96.39 175.88,-85.78 176.25,-92.5 179.39,-88.6 179.39,-88.6 179.39,-88.6 176.25,-92.5 182.89,-91.42 173.12,-96.39 173.12,-96.39"/>
<text text-anchor="start" x="152.65" y="-67.2" font-family="Times New Roman,serif" font-size="14.00">contains</text>
</g>
<!-- video -->
<g id="node9" class="node">
<title>video</title>
<ellipse fill="lightgrey" stroke="grey" stroke-width="0" cx="38.22" cy="-134.68" rx="30.59" ry="18"/>
<text text-anchor="middle" x="38.22" y="-130.98" font-family="Times New Roman,serif" font-size="14.00">video</text>
</g>
<!-- control_rover&#45;&gt;video -->
<g id="edge1" class="edge">
<title>control_rover-&gt;video</title>
<path fill="none" stroke="black" d="M203.18,-38.47C166.36,-59.95 105.38,-95.51 68.78,-116.86"/>
<polygon fill="black" stroke="black" points="60.03,-121.96 66.4,-113.04 64.35,-119.44 68.67,-116.92 68.67,-116.92 68.67,-116.92 64.35,-119.44 70.93,-120.81 60.03,-121.96 60.03,-121.96"/>
<text text-anchor="start" x="88.98" y="-81.46" font-family="Times New Roman,serif" font-size="14.00">contains</text>
</g>
<!-- control -->
<g id="node10" class="node">
<title>control</title>
<ellipse fill="lightgrey" stroke="grey" stroke-width="0" cx="36.4" cy="-21.59" rx="36.29" ry="18"/>
<text text-anchor="middle" x="36.4" y="-17.89" font-family="Times New Roman,serif" font-size="14.00">control</text>
</g>
<!-- control_rover&#45;&gt;control -->
<g id="edge4" class="edge">
<title>control_rover-&gt;control</title>
<path fill="none" stroke="black" d="M187.61,-20.65C156.1,-20.84 114.65,-21.1 83.12,-21.3"/>
<polygon fill="black" stroke="black" points="72.84,-21.36 82.81,-16.8 77.84,-21.33 82.84,-21.3 82.84,-21.3 82.84,-21.3 77.84,-21.33 82.87,-25.8 72.84,-21.36 72.84,-21.36"/>
<text text-anchor="start" x="135.37" y="-24.77" font-family="Times New Roman,serif" font-size="14.00">contains</text>
</g>
<!-- comms -->
<g id="node11" class="node">
<title>comms</title>
<ellipse fill="lightgrey" stroke="grey" stroke-width="0" cx="333.5" cy="-48.57" rx="37.89" ry="18"/>
<text text-anchor="middle" x="333.5" y="-44.87" font-family="Times New Roman,serif" font-size="14.00">comms</text>
</g>
<!-- control_rover&#45;&gt;comms -->
<g id="edge2" class="edge">
<title>control_rover-&gt;comms</title>
<path fill="none" stroke="black" d="M280.97,-33.64C284.33,-34.6 287.72,-35.56 291.06,-36.51"/>
<polygon fill="black" stroke="black" points="300.89,-39.3 290.04,-40.9 296.08,-37.94 291.28,-36.57 291.28,-36.57 291.28,-36.57 296.08,-37.94 292.51,-32.24 300.89,-39.3 300.89,-39.3"/>
<text text-anchor="start" x="239.01" y="-38.87" font-family="Times New Roman,serif" font-size="14.00">contains</text>
</g>
<!-- store_energy -->
<g id="node2" class="node">
<title>store_energy</title>
<polygon fill="lightgrey" stroke="grey" stroke-width="2" points="178.7,-36 89.7,-36 89.7,0 178.7,0 178.7,-36"/>
<text text-anchor="middle" x="134.2" y="-14.3" font-family="Times New Roman,serif" font-size="14.00">store_energy</text>
</g>
<!-- store_energy&#45;&gt;force -->
<g id="edge7" class="edge">
<title>store_energy-&gt;force</title>
<path fill="none" stroke="black" d="M151.06,-36.11C173.02,-59.69 211.44,-100.97 235.56,-126.88"/>
<polygon fill="black" stroke="black" points="242.56,-134.39 232.45,-130.14 239.15,-130.73 235.74,-127.07 235.74,-127.07 235.74,-127.07 239.15,-130.73 239.04,-124.01 242.56,-134.39 242.56,-134.39"/>
<text text-anchor="start" x="146.31" y="-85.29" font-family="Times New Roman,serif" font-size="14.00">contains</text>
</g>
<!-- store_energy&#45;&gt;ee -->
<g id="edge6" class="edge">
<title>store_energy-&gt;ee</title>
<path fill="none" stroke="black" d="M139.23,-36.2C143.04,-50 148.34,-69.19 152.67,-84.87"/>
<polygon fill="black" stroke="black" points="155.34,-94.56 148.34,-86.12 154.01,-89.74 152.68,-84.92 152.68,-84.92 152.68,-84.92 154.01,-89.74 157.02,-83.73 155.34,-94.56 155.34,-94.56"/>
<text text-anchor="start" x="98.95" y="-64.33" font-family="Times New Roman,serif" font-size="14.00">contains</text>
</g>
<!-- store_energy&#45;&gt;control -->
<g id="edge8" class="edge">
<title>store_energy-&gt;control</title>
<path fill="none" stroke="black" d="M89.59,-19.64C87.39,-19.72 85.17,-19.8 82.96,-19.88"/>
<polygon fill="black" stroke="black" points="72.74,-20.26 82.56,-15.39 77.73,-20.07 82.73,-19.89 82.73,-19.89 82.73,-19.89 77.73,-20.07 82.9,-24.39 72.74,-20.26 72.74,-20.26"/>
<text text-anchor="start" x="51.03" y="-8.56" font-family="Times New Roman,serif" font-size="14.00">contains</text>
</g>
<!-- move_rover -->
<g id="node3" class="node">
<title>move_rover</title>
<polygon fill="lightgrey" stroke="grey" stroke-width="2" points="170.86,-215.51 86.86,-215.51 86.86,-179.51 170.86,-179.51 170.86,-215.51"/>
<text text-anchor="middle" x="128.86" y="-193.81" font-family="Times New Roman,serif" font-size="14.00">move_rover</text>
</g>
<!-- ground -->
<g id="node6" class="node">
<title>ground</title>
<ellipse fill="lightgrey" stroke="grey" stroke-width="0" cx="47.68" cy="-259.69" rx="36.29" ry="18"/>
<text text-anchor="middle" x="47.68" y="-255.99" font-family="Times New Roman,serif" font-size="14.00">ground</text>
</g>
<!-- move_rover&#45;&gt;ground -->
<g id="edge9" class="edge">
<title>move_rover-&gt;ground</title>
<path fill="none" stroke="black" d="M104.94,-215.83C95.75,-222.87 85.18,-230.96 75.65,-238.27"/>
<polygon fill="black" stroke="black" points="67.6,-244.43 72.8,-234.78 71.56,-241.39 75.53,-238.35 75.53,-238.35 75.53,-238.35 71.56,-241.39 78.27,-241.93 67.6,-244.43 67.6,-244.43"/>
<text text-anchor="start" x="90.29" y="-230.85" font-family="Times New Roman,serif" font-size="14.00">contains</text>
</g>
<!-- move_rover&#45;&gt;force -->
<g id="edge10" class="edge">
<title>move_rover-&gt;force</title>
<path fill="none" stroke="black" d="M170.91,-182.02C187.51,-175.91 206.36,-168.97 222.21,-163.13"/>
<polygon fill="black" stroke="black" points="231.64,-159.66 223.81,-167.34 226.95,-161.39 222.26,-163.12 222.26,-163.12 222.26,-163.12 226.95,-161.39 220.7,-158.89 231.64,-159.66 231.64,-159.66"/>
<text text-anchor="start" x="149.56" y="-161.38" font-family="Times New Roman,serif" font-size="14.00">contains</text>
</g>
<!-- move_rover&#45;&gt;ee -->
<g id="edge11" class="edge">
<title>move_rover-&gt;ee</title>
<path fill="none" stroke="black" d="M135.52,-179.45C139.8,-167.87 145.43,-152.6 150.24,-139.56"/>
<polygon fill="black" stroke="black" points="153.72,-130.12 154.48,-141.06 151.99,-134.81 150.26,-139.5 150.26,-139.5 150.26,-139.5 151.99,-134.81 146.04,-137.94 153.72,-130.12 153.72,-130.12"/>
<text text-anchor="start" x="95.88" y="-163.31" font-family="Times New Roman,serif" font-size="14.00">contains</text>
</g>
<!-- move_rover&#45;&gt;control -->
<g id="edge12" class="edge">
<title>move_rover-&gt;control</title>
<path fill="none" stroke="black" d="M119.31,-179.34C102.92,-148.16 69.36,-84.3 50.34,-48.12"/>
<polygon fill="black" stroke="black" points="45.62,-39.13 54.25,-45.89 47.94,-43.56 50.27,-47.98 50.27,-47.98 50.27,-47.98 47.94,-43.56 46.29,-50.08 45.62,-39.13 45.62,-39.13"/>
<text text-anchor="start" x="37.83" y="-102.53" font-family="Times New Roman,serif" font-size="14.00">contains</text>
</g>
<!-- view_ground -->
<g id="node4" class="node">
<title>view_ground</title>
<polygon fill="lightgrey" stroke="grey" stroke-width="2" points="248.09,-284.07 159.09,-284.07 159.09,-248.07 248.09,-248.07 248.09,-284.07"/>
<text text-anchor="middle" x="203.59" y="-262.37" font-family="Times New Roman,serif" font-size="14.00">view_ground</text>
</g>
<!-- view_ground&#45;&gt;ground -->
<g id="edge13" class="edge">
<title>view_ground-&gt;ground</title>
<path fill="none" stroke="black" d="M158.91,-264.24C138.59,-263.41 114.55,-262.43 94.03,-261.59"/>
<polygon fill="black" stroke="black" points="83.97,-261.18 94.14,-257.09 88.96,-261.38 93.96,-261.58 93.96,-261.58 93.96,-261.58 88.96,-261.38 93.78,-266.08 83.97,-261.18 83.97,-261.18"/>
<text text-anchor="start" x="102.97" y="-251.71" font-family="Times New Roman,serif" font-size="14.00">contains</text>
</g>
<!-- view_ground&#45;&gt;force -->
<g id="edge16" class="edge">
<title>view_ground-&gt;force</title>
<path fill="none" stroke="black" d="M211.98,-247.97C220.78,-228.98 234.71,-198.94 244.8,-177.16"/>
<polygon fill="black" stroke="black" points="249.13,-167.81 249.01,-178.78 247.03,-172.35 244.93,-176.88 244.93,-176.88 244.93,-176.88 247.03,-172.35 240.85,-174.99 249.13,-167.81 249.13,-167.81"/>
<text text-anchor="start" x="181.39" y="-216.37" font-family="Times New Roman,serif" font-size="14.00">contains</text>
</g>
<!-- view_ground&#45;&gt;ee -->
<g id="edge14" class="edge">
<title>view_ground-&gt;ee</title>
<path fill="none" stroke="black" d="M198.45,-247.84C190.92,-221.12 176.83,-171.13 168.03,-139.92"/>
<polygon fill="black" stroke="black" points="165.27,-130.12 172.31,-138.53 166.62,-134.93 167.98,-139.75 167.98,-139.75 167.98,-139.75 166.62,-134.93 163.65,-140.97 165.27,-130.12 165.27,-130.12"/>
<text text-anchor="start" x="183.24" y="-197.68" font-family="Times New Roman,serif" font-size="14.00">contains</text>
</g>
<!-- view_ground&#45;&gt;video -->
<g id="edge15" class="edge">
<title>view_ground-&gt;video</title>
<path fill="none" stroke="black" d="M180.6,-247.8C150.13,-223.59 96.5,-180.99 64.47,-155.54"/>
<polygon fill="black" stroke="black" points="56.44,-149.16 67.07,-151.85 60.35,-152.27 64.27,-155.38 64.27,-155.38 64.27,-155.38 60.35,-152.27 61.47,-158.9 56.44,-149.16 56.44,-149.16"/>
<text text-anchor="start" x="75.53" y="-205.47" font-family="Times New Roman,serif" font-size="14.00">contains</text>
</g>
<!-- communicate -->
<g id="node5" class="node">
<title>communicate</title>
<polygon fill="lightgrey" stroke="grey" stroke-width="2" points="375.21,-252.56 284.21,-252.56 284.21,-216.56 375.21,-216.56 375.21,-252.56"/>
<text text-anchor="middle" x="329.71" y="-230.86" font-family="Times New Roman,serif" font-size="14.00">communicate</text>
</g>
<!-- communicate&#45;&gt;force -->
<g id="edge19" class="edge">
<title>communicate-&gt;force</title>
<path fill="none" stroke="black" d="M314,-216.25C303.39,-203.9 289.28,-187.46 277.78,-174.08"/>
<polygon fill="black" stroke="black" points="271.02,-166.21 280.95,-170.86 274.28,-170 277.54,-173.79 277.54,-173.79 277.54,-173.79 274.28,-170 274.12,-176.73 271.02,-166.21 271.02,-166.21"/>
<text text-anchor="start" x="248.89" y="-198.97" font-family="Times New Roman,serif" font-size="14.00">contains</text>
</g>
<!-- communicate&#45;&gt;ee -->
<g id="edge18" class="edge">
<title>communicate-&gt;ee</title>
<path fill="none" stroke="black" d="M304.71,-216.53C273.27,-193.86 219.52,-155.11 187.2,-131.8"/>
<polygon fill="black" stroke="black" points="179.08,-125.95 189.82,-128.15 183.13,-128.87 187.19,-131.8 187.19,-131.8 187.19,-131.8 183.13,-128.87 184.56,-135.45 179.08,-125.95 179.08,-125.95"/>
<text text-anchor="start" x="198.95" y="-177.97" font-family="Times New Roman,serif" font-size="14.00">contains</text>
</g>
<!-- communicate&#45;&gt;comms -->
<g id="edge17" class="edge">
<title>communicate-&gt;comms</title>
<path fill="none" stroke="black" d="M330.08,-216.38C330.75,-183.88 332.13,-115.59 332.92,-76.89"/>
<polygon fill="black" stroke="black" points="333.13,-66.82 337.42,-76.91 333.03,-71.82 332.92,-76.81 332.92,-76.81 332.92,-76.81 333.03,-71.82 328.42,-76.72 333.13,-66.82 333.13,-66.82"/>
<text text-anchor="start" x="331.5" y="-150.44" font-family="Times New Roman,serif" font-size="14.00">contains</text>
</g>
</g>
</svg>