<svg xmlns="http://www.w3.org/2000/svg" xmlns:xlink="http://www.w3.org/1999/xlink" width="403pt" height="311pt" viewBox="0.00 0.00 403.17 311.36">
<g id="graph0" class="graph" transform="scale(1 1) rotate(0) translate(4 307.36)">
<polygon fill="white" stroke="transparent" points="-4,4 -4,-307.36 399.17,-307.36 399.17,4 -4,4"/>
<!-- control_rover -->
<g id="node1" class="node">
<title>control_rover</title>
<polygon fill="lightgrey" stroke="grey" stroke-width="2" points="292.26,-37.76 202.26,-37.76 202.26,-1.76 292.26,-1.76 292.26,-37.76"/>
<text text-anchor="middle" x="247.26" y="-16.06" font-family="Times New Roman,serif" font-size="14.00">control_rover</text>
</g>
<!-- force -->
<g id="node7" class="node">
<title>force</title>
<ellipse fill="lightgrey" stroke="grey" stroke-width="0" cx="270.65" cy="-158.94" rx="28.7" ry="18"/>
<text text-anchor="middle" x="270.65" y="-155.24" font-family="Times New Roman,serif" font-size="14.00">force</text>
</g>
<!-- control_rover&#45;&gt;force -->
<g id="edge5" class="edge">
<title>control_rover-&gt;force</title>
<path fill="none" stroke="black" d="M250.32,-37.96C254.29,-61.61 261.27,-103.16 265.93,-130.87"/>
<polygon fill="black" stroke="black" points="267.59,-140.74 261.49,-131.63 266.76,-135.81 265.93,-130.88 265.93,-130.88 265.93,-130.88 266.76,-135.81 270.37,-130.13 267.59,-140.74 267.59,-140.74"/>
<text text-anchor="start" x="212.12" y="-88.21" font-family="Times New Roman,serif" font-size="14.00">contains</text>
</g>
<!-- ee -->
<g id="node8" class="node">
<title>ee</title>
<ellipse fill="lightgrey" stroke="grey" stroke-width="0" cx="169.9" cy="-121.52" rx="27" ry="18"/>
<text text-anchor="middle" x="169.9" y="-117.82" font-family="Times New Roman,serif" font-size="14.00">ee</text>
</g>
<!-- control_rover&#45;&gt;ee -->
<g id="edge3" class="edge">
<title>control_rover-&gt;ee</title>
<path fill="none" stroke="black" d="M233.43,-37.95C220.95,-54.36 202.5,-78.64 188.69,-96.8"/>
<polygon fill="black" stroke="black" points="182.33,-105.17 184.8,-94.48 185.36,-101.19 188.38,-97.21 188.38,-97.21 188.38,-97.21 185.36,-101.19 191.97,-99.93 182.33,-105.17 182.33,-105.17"/>
<text text-anchor="start" x="165.06" y="-71.18" font-family="Times New Roman,serif" font-size="14.00">contains</text>
</g>
<!-- video -->
<g id="node9" class="node">
<title>video</title>
<ellipse fill="lightgrey" stroke="grey" stroke-width="0" cx="38.2" cy="-146.26" rx="30.59" ry="18"/>
<text text-anchor="middle" x="38.2" y="-142.56" font-family="Times New Roman,serif" font-size="14.00">video</text>
</g>
<!-- control_rover&#45;&gt;video -->
<g id="edge1" class="edge">
<title>control_rover-&gt;video</title>
<path fill="none" stroke="black" d="M217.31,-37.88C177.61,-61.91 107.97,-104.05 68.23,-128.09"/>
<polygon fill="black" stroke="black" points="59.52,-133.36 65.75,-124.34 63.8,-130.78 68.08,-128.19 68.08,-128.19 68.08,-128.19 63.8,-130.78 70.4,-132.04 59.52,-133.36 59.52,-133.36"/>
<text text-anchor="start" x="96.77" y="-86.79" font-family="Times New Roman,serif" font-size="14.00">contains</text>
</g>
<!-- control -->
<g id="node10" class="node">
<title>control</title>
<ellipse fill="lightgrey" stroke="grey" stroke-width="0" cx="35.75" cy="-23.31" rx="36" ry="18"/>
<text text-anchor="middle" x="35.75" y="-19.61" font-family="Times New Roman,serif" font-size="14.00">control</text>
</g>
<!-- control_rover&#45;&gt;control -->
<g id="edge4" class="edge">
<title>control_rover-&gt;control</title>
<path fill="none" stroke="black" d="M202.14,-20.52C166.7,-21.11 117.52,-21.94 81.83,-22.53"/>
<polygon fill="black" stroke="black" points="71.68,-22.71 81.6,-18.04 76.68,-22.62 81.68,-22.54 81.68,-22.54 81.68,-22.54 76.68,-22.62 81.75,-27.04 71.68,-22.71 71.68,-22.71"/>
<text text-anchor="start" x="95.99" y="-25.33" font-family="Times New Roman,serif" font-size="14.00">contains</text>
</g>
<!-- comms -->
<g id="node11" class="node">
<title>comms</title>
<ellipse fill="lightgrey" stroke="grey" stroke-width="0" cx="355.36" cy="-51.88" rx="37.09" ry="18"/>
<text text-anchor="middle" x="355.36" y="-48.18" font-family="Times New Roman,serif" font-size="14.00">comms</text>
</g>
<!-- control_rover&#45;&gt;comms -->
<g id="edge2" class="edge">
<title>control_rover-&gt;comms</title>
<path fill="none" stroke="black" d="M292.48,-33.2C299.47,-35.27 306.67,-37.41 313.59,-39.47"/>
<polygon fill="black" stroke="black" points="323.47,-42.4 312.6,-43.87 318.67,-40.98 313.88,-39.55 313.88,-39.55 313.88,-39.55 318.67,-40.98 315.16,-35.24 323.47,-42.4 323.47,-42.4"/>
<text text-anchor="start" x="257.03" y="-40.13" font-family="Times New Roman,serif" font-size="14.00">contains</text>
</g>
<!-- store_energy -->
<g id="node2" class="node">
<title>store_energy</title>
<polygon fill="lightgrey" stroke="grey" stroke-width="2" points="186.93,-36 100.93,-36 100.93,0 186.93,0 186.93,-36"/>
<text text-anchor="middle" x="143.93" y="-14.3" font-family="Times New Roman,serif" font-size="14.00">store_energy</text>
</g>
<!-- store_energy&#45;&gt;force -->
<g id="edge7" class="edge">
<title>store_energy-&gt;force</title>
<path fill="none" stroke="black" d="M160.24,-36.14C182.99,-61.44 224.29,-107.38 249.42,-135.33"/>
<polygon fill="black" stroke="black" points="256.36,-143.05 246.32,-138.62 253.01,-139.33 249.67,-135.61 249.67,-135.61 249.67,-135.61 253.01,-139.33 253.02,-132.6 256.36,-143.05 256.36,-143.05"/>
<text text-anchor="start" x="158.83" y="-89.53" font-family="Times New Roman,serif" font-size="14.00">contains</text>
</g>
<!-- store_energy&#45;&gt;ee -->
<g id="edge6" class="edge">
<title>store_energy-&gt;ee</title>
<path fill="none" stroke="black" d="M148.46,-36.03C152.46,-51.99 158.36,-75.52 162.96,-93.86"/>
<polygon fill="black" stroke="black" points="165.43,-103.7 158.63,-95.09 164.21,-98.85 163,-94 163,-94 163,-94 164.21,-98.85 167.36,-92.9 165.43,-103.7 165.43,-103.7"/>
<text text-anchor="start" x="109.71" y="-68.75" font-family="Times New Roman,serif" font-size="14.00">contains</text>
</g>
<!-- store_energy&#45;&gt;control -->
<g id="edge8" class="edge">
<title>store_energy-&gt;control</title>
<path fill="none" stroke="black" d="M100.86,-20.11C94.6,-20.42 88.13,-20.74 81.8,-21.05"/>
<polygon fill="black" stroke="black" points="71.37,-21.56 81.13,-16.58 76.36,-21.32 81.35,-21.07 81.35,-21.07 81.35,-21.07 76.36,-21.32 81.58,-25.56 71.37,-21.56 71.37,-21.56"/>
<text text-anchor="start" x="56.83" y="-9.38" font-family="Times New Roman,serif" font-size="14.00">contains</text>
</g>
<!-- move_rover -->
<g id="node3" class="node">
<title>move_rover</title>
<polygon fill="lightgrey" stroke="grey" stroke-width="2" points="181.49,-227.32 98.49,-227.32 98.49,-191.32 181.49,-191.32 181.49,-227.32"/>
<text text-anchor="middle" x="139.99" y="-205.62" font-family="Times New Roman,serif" font-size="14.00">move_rover</text>
</g>
<!-- ground -->
<g id="node6" class="node">
<title>ground</title>
<ellipse fill="lightgrey" stroke="grey" stroke-width="0" cx="48.39" cy="-278.52" rx="36" ry="18"/>
<text text-anchor="middle" x="48.39" y="-274.82" font-family="Times New Roman,serif" font-size="14.00">ground</text>
</g>
<!-- move_rover&#45;&gt;ground -->
<g id="edge9" class="edge">
<title>move_rover-&gt;ground</title>
<path fill="none" stroke="black" d="M115.92,-227.5C103.86,-236.61 89.18,-247.7 76.6,-257.21"/>
<polygon fill="black" stroke="black" points="68.28,-263.49 73.54,-253.88 72.27,-260.48 76.25,-257.47 76.25,-257.47 76.25,-257.47 72.27,-260.48 78.97,-261.06 68.28,-263.49 68.28,-263.49"/>
<text text-anchor="start" x="50.26" y="-246.15" font-family="Times New Roman,serif" font-size="14.00">contains</text>
</g>
<!-- move_rover&#45;&gt;force -->
<g id="edge10" class="edge">
<title>move_rover-&gt;force</title>
<path fill="none" stroke="black" d="M181.69,-193.24C199.42,-186.4 219.83,-178.53 236.63,-172.06"/>
<polygon fill="black" stroke="black" points="246.05,-168.42 238.34,-176.22 241.39,-170.22 236.72,-172.02 236.72,-172.02 236.72,-172.02 241.39,-170.22 235.1,-167.82 246.05,-168.42 246.05,-168.42"/>
<text text-anchor="start" x="163.16" y="-171.45" font-family="Times New Roman,serif" font-size="14.00">contains</text>
</g>
<!-- move_rover&#45;&gt;ee -->
<g id="edge11" class="edge">
<title>move_rover-&gt;ee</title>
<path fill="none" stroke="black" d="M146.19,-191.13C150.37,-178.84 155.97,-162.4 160.68,-148.59"/>
<polygon fill="black" stroke="black" points="163.91,-139.09 164.95,-150.01 162.3,-143.82 160.69,-148.56 160.69,-148.56 160.69,-148.56 162.3,-143.82 156.43,-147.11 163.91,-139.09 163.91,-139.09"/>
<text text-anchor="start" x="107.43" y="-173.66" font-family="Times New Roman,serif" font-size="14.00">contains</text>
</g>
<!-- move_rover&#45;&gt;control -->
<g id="edge12" class="edge">
<title>move_rover-&gt;control</title>
<path fill="none" stroke="black" d="M129.8,-191.14C111.29,-158.11 72.05,-88.1 50.57,-49.76"/>
<polygon fill="black" stroke="black" points="45.52,-40.74 54.33,-47.26 47.96,-45.1 50.4,-49.46 50.4,-49.46 50.4,-49.46 47.96,-45.1 46.48,-51.66 45.52,-40.74 45.52,-40.74"/>
<text text-anchor="start" x="44.19" y="-109.25" font-family="Times New Roman,serif" font-size="14.00">contains</text>
</g>
<!-- view_ground -->
<g id="node4" class="node">
<title>view_ground</title>
<polygon fill="lightgrey" stroke="grey" stroke-width="2" points="257.74,-303.36 169.74,-303.36 169.74,-267.36 257.74,-267.36 257.74,-303.36"/>
<text text-anchor="middle" x="213.74" y="-281.66" font-family="Times New Roman,serif" font-size="14.00">view_ground</text>
</g>
<!-- view_ground&#45;&gt;ground -->
<g id="edge13" class="edge">
<title>view_ground-&gt;ground</title>
<path fill="none" stroke="black" d="M169.43,-283.53C146.18,-282.57 117.73,-281.39 94.25,-280.42"/>
<polygon fill="black" stroke="black" points="84.19,-280 94.37,-275.92 89.19,-280.21 94.18,-280.42 94.18,-280.42 94.18,-280.42 89.19,-280.21 94,-284.91 84.19,-280 84.19,-280"/>
<text text-anchor="start" x="85.84" y="-285.77" font-family="Times New Roman,serif" font-size="14.00">contains</text>
</g>
<!-- view_ground&#45;&gt;force -->
<g id="edge16" class="edge">
<title>view_ground-&gt;force</title>
<path fill="none" stroke="black" d="M221.89,-267.25C231.5,-245.91 247.54,-210.27 258.59,-185.74"/>
<polygon fill="black" stroke="black" points="262.69,-176.61 262.69,-187.58 260.64,-181.17 258.59,-185.73 258.59,-185.73 258.59,-185.73 260.64,-181.17 254.48,-183.88 262.69,-176.61 262.69,-176.61"/>
<text text-anchor="start" x="194.24" y="-230.29" font-family="Times New Roman,serif" font-size="14.00">contains</text>
</g>
<!-- view_ground&#45;&gt;ee -->
<g id="edge14" class="edge">
<title>view_ground-&gt;ee</title>
<path fill="none" stroke="black" d="M208.88,-267.2C201.24,-238.63 186.35,-182.99 177.35,-149.35"/>
<polygon fill="black" stroke="black" points="174.65,-139.27 181.58,-147.76 175.94,-144.1 177.23,-148.93 177.23,-148.93 177.23,-148.93 175.94,-144.1 172.89,-150.09 174.65,-139.27 174.65,-139.27"/>
<text text-anchor="start" x="193.11" y="-212.08" font-family="Times New Roman,serif" font-size="14.00">contains</text>
</g>
<!-- view_ground&#45;&gt;video -->
<g id="edge15" class="edge">
<title>view_ground-&gt;video</title>
<path fill="none" stroke="black" d="M190.79,-267.17C158.32,-241.45 99.11,-194.53 64.78,-167.32"/>
<polygon fill="black" stroke="black" points="56.61,-160.85 67.25,-163.53 60.53,-163.96 64.45,-167.06 64.45,-167.06 64.45,-167.06 60.53,-163.96 61.66,-170.59 56.61,-160.85 56.61,-160.85"/>
<text text-anchor="start" x="81.78" y="-221.05" font-family="Times New Roman,serif" font-size="14.00">contains</text>
</g>
<!-- communicate -->
<g id="node5" class="node">
<title>communicate</title>
<polygon fill="lightgrey" stroke="grey" stroke-width="2" points="395.17,-271.15 304.17,-271.15 304.17,-235.15 395.17,-235.15 395.17,-271.15"/>
<text text-anchor="middle" x="349.67" y="-249.45" font-family="Times New Roman,serif" font-size="14.00">communicate</text>
</g>
<!-- communicate&#45;&gt;force -->
<g id="edge19" class="edge">
<title>communicate-&gt;force</title>
<path fill="none" stroke="black" d="M334.43,-234.98C322.06,-220.23 304.5,-199.3 290.93,-183.13"/>
<polygon fill="black" stroke="black" points="284.25,-175.16 294.13,-179.93 287.47,-178.99 290.68,-182.82 290.68,-182.82 290.68,-182.82 287.47,-178.99 287.23,-185.72 284.25,-175.16 284.25,-175.16"/>
<text text-anchor="start" x="266.68" y="-212.85" font-family="Times New Roman,serif" font-size="14.00">contains</text>
</g>
<!-- communicate&#45;&gt;ee -->
<g id="edge18" class="edge">
<title>communicate-&gt;ee</title>
<path fill="none" stroke="black" d="M325.05,-235.12C291.36,-210.46 231.14,-166.36 196.47,-140.97"/>
<polygon fill="black" stroke="black" points="188.23,-134.95 198.96,-137.22 192.27,-137.9 196.3,-140.85 196.3,-140.85 196.3,-140.85 192.27,-137.9 193.64,-144.48 188.23,-134.95 188.23,-134.95"/>
<text text-anchor="start" x="214.76" y="-191.85" font-family="Times New Roman,serif" font-size="14.00">contains</text>
</g>
<!-- communicate&#45;&gt;comms -->
<g id="edge17" class="edge">
<title>communicate-&gt;comms</title>
<path fill="none" stroke="black" d="M350.18,-234.93C351.18,-199.68 353.38,-121.92 354.57,-79.99"/>
<polygon fill="black" stroke="black" points="354.85,-69.91 359.07,-80.03 354.71,-74.91 354.57,-79.91 354.57,-79.91 354.57,-79.91 354.71,-74.91 350.07,-79.78 354.85,-69.91 354.85,-69.91"/>
<text text-anchor="start" x="306.37" y="-161.26" font-family="Times New Roman,serif" font-size="14.00">contains</text>
</g>
</g>
</svg>