<svg width="3755" height="840" xmlns="http://www.w3.org/2000/svg" xmlns:xlink="http://www.w3.org/1999/xlink" xml:space="preserve" overflow="hidden"><g transform="translate(-107 -1153)"><rect x="233" y="1801" width="572" height="125" fill="#F8CBAD"/><rect x="222" y="1698" width="842" height="125" fill="#FA7676"/><rect x="233" y="1480" width="1480" height="240" fill="#F1D9F1"/><rect x="158" y="1450" width="1997" height="465" stroke="#4472C4" stroke-width="10.3125" stroke-miterlimit="8" fill="none"/><text font-family="Calibri,Calibri_MSFontService,sans-serif" font-weight="400" font-size="73" transform="matrix(1 0 0 1 191.099 1536)">class </text><text font-family="Calibri,Calibri_MSFontService,sans-serif" font-weight="400" font-size="73" transform="matrix(1 0 0 1 347.506 1536)">Mode</text><text font-family="Calibri,Calibri_MSFontService,sans-serif" font-weight="400" font-size="73" transform="matrix(1 0 0 1 523.964 1536)">Name</text><text font-family="Calibri,Calibri_MSFontService,sans-serif" font-weight="400" font-size="73" transform="matrix(1 0 0 1 701.568 1536)">(</text><text font-family="Calibri,Calibri_MSFontService,sans-serif" font-weight="400" font-size="73" transform="matrix(1 0 0 1 723.912 1536)">Mode</text><text font-family="Calibri,Calibri_MSFontService,sans-serif" font-weight="400" font-size="73" transform="matrix(1 0 0 1 900.37 1536)">):</text><text font-family="Calibri,Calibri_MSFontService,sans-serif" font-weight="400" font-size="73" transform="matrix(1 0 0 1 257.558 1624)">fm_args</text><text font-family="Calibri,Calibri_MSFontService,sans-serif" font-weight="400" font-size="73" transform="matrix(1 0 0 1 514.362 1624)">= {‘fault_1’: (0.001, 200.0),</text><text font-family="Calibri,Calibri_MSFontService,sans-serif" font-weight="400" font-size="73" transform="matrix(1 0 0 1 587.558 1712)">‘fault_2’:</text><text font-family="Calibri,Calibri_MSFontService,sans-serif" font-weight="400" font-size="73" transform="matrix(1 0 0 1 869.708 1712)">0.00001,</text><text font-family="Calibri,Calibri_MSFontService,sans-serif" font-weight="400" font-size="73" transform="matrix(1 0 0 1 1146.43 1712)">100.0,</text><text font-family="Calibri,Calibri_MSFontService,sans-serif" font-weight="400" font-size="73" transform="matrix(1 0 0 1 1348.67 1712)">{‘on’: 1.0}}</text><text font-family="Calibri,Calibri_MSFontService,sans-serif" font-weight="400" font-size="73" transform="matrix(1 0 0 1 257.558 1800)">opermodes</text><text font-family="Calibri,Calibri_MSFontService,sans-serif" font-weight="400" font-size="73" transform="matrix(1 0 0 1 615.058 1800)">=</text><text font-family="Calibri,Calibri_MSFontService,sans-serif" font-weight="400" font-size="73" transform="matrix(1 0 0 1 668.339 1800)">[“off”, “on”]</text><text font-family="Calibri,Calibri_MSFontService,sans-serif" font-weight="400" font-size="73" transform="matrix(1 0 0 1 257.558 1888)">mode:</text><text font-family="Calibri,Calibri_MSFontService,sans-serif" font-weight="400" font-size="73" transform="matrix(1 0 0 1 466.099 1888)">str = “off”</text><text font-family="Calibri,Calibri_MSFontService,sans-serif" font-weight="700" font-size="83" transform="matrix(1 0 0 1 157.426 1255)">Mode classes are used to represent modes (faults and </text><text font-family="Calibri,Calibri_MSFontService,sans-serif" font-weight="700" font-size="83" transform="matrix(1 0 0 1 157.426 1354)">operational modes) that could occur in the system</text><rect x="2094" y="1476" width="1768" height="240" fill="#F1D9F1"/><text font-family="Calibri,Calibri_MSFontService,sans-serif" font-weight="400" font-size="64" transform="matrix(1 0 0 1 2187.5 1579)">Dictionary of fault names and their optional properties (rate, </text><text font-family="Calibri,Calibri_MSFontService,sans-serif" font-weight="400" font-size="64" transform="matrix(1 0 0 1 2303.32 1656)">repair cost, phases they could occur and their rates)</text><path d="M0.0697064-6.87465 345.893-3.36812 345.754 10.3812-0.0697064 6.87465ZM339.158-17.1871 380.197 3.85505 338.74 24.0608Z" fill="#E890E8" transform="matrix(-1 0 0 1 2093.2 1596)"/><rect x="2094" y="1724" width="1415" height="125" fill="#FA7676"/><text font-family="Calibri,Calibri_MSFontService,sans-serif" font-weight="400" font-size="64" transform="matrix(1 0 0 1 2185.56 1808)">List of potential operational modes (if multiple)</text><path d="M2093.46 1793.7 1098.27 1778.4 1098.48 1764.65 2093.68 1779.95ZM1104.93 1792.26 1064 1771 1105.56 1751.01Z" fill="#F91900"/><rect x="2094" y="1853" width="1287" height="126" fill="#F8CBAD"/><text font-family="Calibri,Calibri_MSFontService,sans-serif" font-weight="400" font-size="64" transform="matrix(1 0 0 1 2134.01 1937)">Default mode (if multiple modes/not nominal)</text><path d="M2093.64 1922.67 839.145 1883.93 839.569 1870.19 2094.07 1908.93ZM845.594 1897.89 805 1876 846.867 1856.66Z" fill="#ED7D31"/></g></svg>