<svg width="188" height="188" xmlns="http://www.w3.org/2000/svg" xmlns:xlink="http://www.w3.org/1999/xlink" xml:space="preserve" overflow="hidden"><g transform="translate(-356 -74)"><path d="M527.942 90.45C525.2 87.7083 507.575 90.8417 492.888 94.7583 498.175 97.8917 503.658 102.2 508.946 107.488 514.429 112.971 518.737 118.454 521.871 123.938 525.787 108.858 530.879 93.1917 527.942 90.45Z" fill="#F91900"/><path d="M418.862 146.263 412.204 143.717C409.462 142.737 406.525 143.325 404.371 145.283L373.233 176.421C368.142 181.513 372.842 190.325 379.892 188.758L405.938 182.883C408.092 173.092 411.617 159.971 418.862 146.263Z" fill="#F91900"/><path d="M470.758 197.375C457.638 204.229 445.104 207.95 434.921 209.908L428.85 237.717C427.283 244.767 435.9 249.662 441.188 244.375L472.325 213.238C474.283 211.279 475.067 208.146 473.892 205.404L470.758 197.375Z" fill="#F91900"/><path d="M482.312 98.2833C470.758 102.983 457.638 111.012 444.908 123.742 421.604 147.046 414.75 175.246 412.792 191.304L424.933 203.446C440.992 201.488 469.388 194.829 492.692 171.525 505.421 158.796 513.45 145.871 518.15 134.317 515.604 127.854 510.513 120.217 503.267 112.775 496.217 105.921 488.775 100.829 482.312 98.2833ZM492.3 140.583C487.796 145.087 480.354 145.087 475.654 140.583 471.15 136.079 471.15 128.637 475.654 123.938 480.158 119.433 487.6 119.433 492.3 123.938 496.804 128.637 496.804 136.079 492.3 140.583Z" fill="#F91900"/><path d="M412.596 203.642C409.462 200.508 409.854 195.221 403.392 201.683 396.929 208.146 387.333 222.833 390.271 225.967 393.404 229.1 408.092 219.308 414.554 212.846 421.017 206.188 415.729 206.579 412.596 203.642Z" fill="#F91900"/></g></svg>