<svg xmlns="http://www.w3.org/2000/svg" xmlns:xlink="http://www.w3.org/1999/xlink" width="441pt" height="280pt" viewBox="0.00 0.00 441.21 280.37">
<g id="graph0" class="graph" transform="scale(1 1) rotate(0) translate(4 276.37)">
<polygon fill="white" stroke="transparent" points="-4,4 -4,-276.37 437.21,-276.37 437.21,4 -4,4"/>
<!-- atc -->
<g id="node1" class="node">
<title>atc</title>
<polygon fill="lightgrey" stroke="red" stroke-width="2" points="161,-150.83 0,-150.83 0,-112.83 161,-112.83 161,-150.83"/>
<text text-anchor="middle" x="80.5" y="-135.63" font-family="Times New Roman,serif" font-size="14.00">atc</text>
<text text-anchor="middle" x="80.5" y="-120.63" font-family="Times New Roman,serif" font-size="14.00">['wrong_land_command']</text>
</g>
<!-- ground -->
<g id="node10" class="node">
<title>ground</title>
<polygon fill="orange" stroke="grey" stroke-width="0" points="233.83,-168.96 212.8,-186.96 170.75,-186.96 149.72,-168.96 170.75,-150.96 212.8,-150.96 233.83,-168.96"/>
<text text-anchor="middle" x="191.77" y="-165.26" font-family="Times New Roman,serif" font-size="14.00">ground</text>
</g>
<!-- atc&#45;&gt;ground -->
<g id="edge1" class="edge">
<title>atc-&gt;ground</title>
<path fill="none" stroke="black" d="M137.77,-150.94C142.45,-152.5 147.11,-154.06 151.63,-155.56"/>
<polygon fill="black" stroke="black" points="161.23,-158.77 150.32,-159.87 156.48,-157.18 151.74,-155.6 151.74,-155.6 151.74,-155.6 156.48,-157.18 153.16,-151.33 161.23,-158.77 161.23,-158.77"/>
</g>
<!-- location -->
<g id="node11" class="node">
<title>location</title>
<polygon fill="lightgrey" stroke="grey" stroke-width="0" points="348.14,-138.15 325.35,-156.15 279.79,-156.15 257.01,-138.15 279.79,-120.15 325.35,-120.15 348.14,-138.15"/>
<text text-anchor="middle" x="302.57" y="-134.45" font-family="Times New Roman,serif" font-size="14.00">location</text>
</g>
<!-- atc&#45;&gt;location -->
<g id="edge2" class="edge">
<title>atc-&gt;location</title>
<path fill="none" stroke="black" d="M161.3,-134.13C190.21,-134.95 222.07,-135.86 248.21,-136.6"/>
<polygon fill="black" stroke="black" points="258.29,-136.89 248.17,-141.1 253.29,-136.74 248.3,-136.6 248.3,-136.6 248.3,-136.6 253.29,-136.74 248.42,-132.1 258.29,-136.89 258.29,-136.89"/>
</g>
<!-- requests -->
<g id="node12" class="node">
<title>requests</title>
<polygon fill="lightgrey" stroke="grey" stroke-width="0" points="253.3,-84.74 253.3,-99.65 227.44,-110.2 190.88,-110.2 165.02,-99.65 165.02,-84.74 190.88,-74.2 227.44,-74.2 253.3,-84.74"/>
<text text-anchor="middle" x="209.16" y="-88.5" font-family="Times New Roman,serif" font-size="14.00">requests</text>
</g>
<!-- atc&#45;&gt;requests -->
<g id="edge3" class="edge">
<title>atc-&gt;requests</title>
<path fill="none" stroke="black" d="M142.19,-112.83C149.38,-110.61 156.62,-108.38 163.54,-106.25"/>
<polygon fill="black" stroke="black" points="173.41,-103.21 165.18,-110.45 168.63,-104.68 163.86,-106.15 163.86,-106.15 163.86,-106.15 168.63,-104.68 162.53,-101.85 173.41,-103.21 173.41,-103.21"/>
</g>
<!-- ma1 -->
<g id="node2" class="node">
<title>ma1</title>
<polygon fill="lightgrey" stroke="grey" stroke-width="2" points="114.73,-262.82 60.73,-262.82 60.73,-224.82 114.73,-224.82 114.73,-262.82"/>
<text text-anchor="middle" x="87.73" y="-247.62" font-family="Times New Roman,serif" font-size="14.00">ma1</text>
<text text-anchor="middle" x="87.73" y="-232.62" font-family="Times New Roman,serif" font-size="14.00">[]</text>
</g>
<!-- ma1&#45;&gt;ground -->
<g id="edge4" class="edge">
<title>ma1-&gt;ground</title>
<path fill="none" stroke="black" d="M114.25,-224.73C128.34,-214.59 145.75,-202.07 160.5,-191.46"/>
<polygon fill="black" stroke="black" points="168.83,-185.46 163.34,-194.96 164.77,-188.38 160.71,-191.3 160.71,-191.3 160.71,-191.3 164.77,-188.38 158.09,-187.65 168.83,-185.46 168.83,-185.46"/>
</g>
<!-- ma1&#45;&gt;location -->
<g id="edge5" class="edge">
<title>ma1-&gt;location</title>
<path fill="none" stroke="black" d="M114.94,-230.43C153.02,-211.7 222.34,-177.61 265.23,-156.51"/>
<polygon fill="black" stroke="black" points="274.22,-152.09 267.23,-160.54 269.73,-154.3 265.25,-156.5 265.25,-156.5 265.25,-156.5 269.73,-154.3 263.26,-152.47 274.22,-152.09 274.22,-152.09"/>
</g>
<!-- ma1&#45;&gt;requests -->
<g id="edge6" class="edge">
<title>ma1-&gt;requests</title>
<path fill="none" stroke="black" d="M103.11,-224.61C124.69,-197.66 164.03,-148.54 188.26,-118.29"/>
<polygon fill="black" stroke="black" points="194.66,-110.3 191.92,-120.92 191.53,-114.2 188.41,-118.1 188.41,-118.1 188.41,-118.1 191.53,-114.2 184.9,-115.29 194.66,-110.3 194.66,-110.3"/>
</g>
<!-- ma2 -->
<g id="node3" class="node">
<title>ma2</title>
<polygon fill="lightgrey" stroke="grey" stroke-width="2" points="404.78,-42.08 350.78,-42.08 350.78,-4.08 404.78,-4.08 404.78,-42.08"/>
<text text-anchor="middle" x="377.78" y="-26.88" font-family="Times New Roman,serif" font-size="14.00">ma2</text>
<text text-anchor="middle" x="377.78" y="-11.88" font-family="Times New Roman,serif" font-size="14.00">[]</text>
</g>
<!-- ma2&#45;&gt;ground -->
<g id="edge7" class="edge">
<title>ma2-&gt;ground</title>
<path fill="none" stroke="black" d="M353.47,-42.15C319.73,-68.6 258.77,-116.42 222.1,-145.17"/>
<polygon fill="black" stroke="black" points="213.78,-151.7 218.87,-141.99 217.71,-148.62 221.65,-145.53 221.65,-145.53 221.65,-145.53 217.71,-148.62 224.42,-149.07 213.78,-151.7 213.78,-151.7"/>
</g>
<!-- ma2&#45;&gt;location -->
<g id="edge8" class="edge">
<title>ma2-&gt;location</title>
<path fill="none" stroke="black" d="M365.36,-42.08C353.02,-60.96 333.99,-90.08 320.11,-111.31"/>
<polygon fill="black" stroke="black" points="314.51,-119.88 316.22,-109.04 317.25,-115.69 319.99,-111.51 319.99,-111.51 319.99,-111.51 317.25,-115.69 323.75,-113.97 314.51,-119.88 314.51,-119.88"/>
</g>
<!-- ma2&#45;&gt;requests -->
<g id="edge9" class="edge">
<title>ma2-&gt;requests</title>
<path fill="none" stroke="black" d="M350.69,-34.18C323.44,-45.35 281.09,-62.71 249.81,-75.53"/>
<polygon fill="black" stroke="black" points="240.49,-79.36 248.03,-71.4 245.11,-77.46 249.74,-75.56 249.74,-75.56 249.74,-75.56 245.11,-77.46 251.45,-79.73 240.49,-79.36 240.49,-79.36"/>
</g>
<!-- ua1 -->
<g id="node4" class="node">
<title>ua1</title>
<polygon fill="lightgrey" stroke="grey" stroke-width="2" points="337.11,-266.13 283.11,-266.13 283.11,-228.13 337.11,-228.13 337.11,-266.13"/>
<text text-anchor="middle" x="310.11" y="-250.93" font-family="Times New Roman,serif" font-size="14.00">ua1</text>
<text text-anchor="middle" x="310.11" y="-235.93" font-family="Times New Roman,serif" font-size="14.00">[]</text>
</g>
<!-- ua1&#45;&gt;ground -->
<g id="edge13" class="edge">
<title>ua1-&gt;ground</title>
<path fill="none" stroke="black" d="M282.96,-229.2C265.41,-217.6 242.47,-202.45 223.99,-190.24"/>
<polygon fill="black" stroke="black" points="215.59,-184.69 226.41,-186.45 219.76,-187.45 223.93,-190.2 223.93,-190.2 223.93,-190.2 219.76,-187.45 221.45,-193.96 215.59,-184.69 215.59,-184.69"/>
</g>
<!-- ua1&#45;&gt;location -->
<g id="edge14" class="edge">
<title>ua1-&gt;location</title>
<path fill="none" stroke="black" d="M308.78,-227.9C307.6,-210.88 305.87,-185.83 304.54,-166.51"/>
<polygon fill="black" stroke="black" points="303.84,-156.46 309.02,-166.13 304.19,-161.45 304.53,-166.44 304.53,-166.44 304.53,-166.44 304.19,-161.45 300.04,-166.75 303.84,-156.46 303.84,-156.46"/>
</g>
<!-- ua1&#45;&gt;requests -->
<g id="edge15" class="edge">
<title>ua1-&gt;requests</title>
<path fill="none" stroke="black" d="M297.53,-227.82C279.63,-200.35 246.76,-149.91 226.55,-118.88"/>
<polygon fill="black" stroke="black" points="220.96,-110.3 230.19,-116.22 223.69,-114.49 226.42,-118.68 226.42,-118.68 226.42,-118.68 223.69,-114.49 222.65,-121.14 220.96,-110.3 220.96,-110.3"/>
</g>
<!-- ua3 -->
<g id="node5" class="node">
<title>ua3</title>
<polygon fill="lightgrey" stroke="grey" stroke-width="2" points="433.21,-252.95 379.21,-252.95 379.21,-214.95 433.21,-214.95 433.21,-252.95"/>
<text text-anchor="middle" x="406.21" y="-237.75" font-family="Times New Roman,serif" font-size="14.00">ua3</text>
<text text-anchor="middle" x="406.21" y="-222.75" font-family="Times New Roman,serif" font-size="14.00">[]</text>
</g>
<!-- ua3&#45;&gt;ground -->
<g id="edge19" class="edge">
<title>ua3-&gt;ground</title>
<path fill="none" stroke="black" d="M379.06,-225.72C342.04,-214.5 275.46,-194.32 232.47,-181.29"/>
<polygon fill="black" stroke="black" points="222.87,-178.38 233.75,-176.98 227.66,-179.83 232.44,-181.28 232.44,-181.28 232.44,-181.28 227.66,-179.83 231.14,-185.59 222.87,-178.38 222.87,-178.38"/>
</g>
<!-- ua3&#45;&gt;location -->
<g id="edge20" class="edge">
<title>ua3-&gt;location</title>
<path fill="none" stroke="black" d="M385.24,-214.57C369.24,-199.77 347.06,-179.27 329.71,-163.23"/>
<polygon fill="black" stroke="black" points="322.11,-156.21 332.51,-159.69 325.79,-159.6 329.46,-163 329.46,-163 329.46,-163 325.79,-159.6 326.4,-166.3 322.11,-156.21 322.11,-156.21"/>
</g>
<!-- ua3&#45;&gt;requests -->
<g id="edge21" class="edge">
<title>ua3-&gt;requests</title>
<path fill="none" stroke="black" d="M379.64,-214.84C343.4,-188.77 278.62,-142.17 240.2,-114.53"/>
<polygon fill="black" stroke="black" points="231.96,-108.6 242.7,-110.78 236.02,-111.52 240.08,-114.44 240.08,-114.44 240.08,-114.44 236.02,-111.52 237.45,-118.09 231.96,-108.6 231.96,-108.6"/>
</g>
<!-- h1 -->
<g id="node6" class="node">
<title>h1</title>
<polygon fill="lightgrey" stroke="grey" stroke-width="2" points="239.92,-272.37 185.92,-272.37 185.92,-234.37 239.92,-234.37 239.92,-272.37"/>
<text text-anchor="middle" x="212.92" y="-257.17" font-family="Times New Roman,serif" font-size="14.00">h1</text>
<text text-anchor="middle" x="212.92" y="-242.17" font-family="Times New Roman,serif" font-size="14.00">[]</text>
</g>
<!-- h1&#45;&gt;ground -->
<g id="edge22" class="edge">
<title>h1-&gt;ground</title>
<path fill="none" stroke="black" d="M208.12,-234.21C205.36,-223.19 201.84,-209.15 198.78,-196.91"/>
<polygon fill="black" stroke="black" points="196.34,-187.17 203.13,-195.77 197.55,-192.02 198.77,-196.87 198.77,-196.87 198.77,-196.87 197.55,-192.02 194.4,-197.96 196.34,-187.17 196.34,-187.17"/>
</g>
<!-- h1&#45;&gt;location -->
<g id="edge23" class="edge">
<title>h1-&gt;location</title>
<path fill="none" stroke="black" d="M227.73,-234.34C242.57,-215.27 265.53,-185.75 282.11,-164.45"/>
<polygon fill="black" stroke="black" points="288.34,-156.44 285.75,-167.09 285.27,-160.38 282.2,-164.33 282.2,-164.33 282.2,-164.33 285.27,-160.38 278.65,-161.57 288.34,-156.44 288.34,-156.44"/>
</g>
<!-- h1&#45;&gt;requests -->
<g id="edge24" class="edge">
<title>h1-&gt;requests</title>
<path fill="none" stroke="black" d="M212.48,-234.25C211.82,-206.08 210.59,-153.24 209.82,-120.55"/>
<polygon fill="black" stroke="black" points="209.58,-110.3 214.31,-120.19 209.7,-115.3 209.82,-120.3 209.82,-120.3 209.82,-120.3 209.7,-115.3 205.32,-120.4 209.58,-110.3 209.58,-110.3"/>
</g>
<!-- h2 -->
<g id="node7" class="node">
<title>h2</title>
<polygon fill="lightgrey" stroke="grey" stroke-width="2" points="433.13,-135.82 379.13,-135.82 379.13,-97.82 433.13,-97.82 433.13,-135.82"/>
<text text-anchor="middle" x="406.13" y="-120.62" font-family="Times New Roman,serif" font-size="14.00">h2</text>
<text text-anchor="middle" x="406.13" y="-105.62" font-family="Times New Roman,serif" font-size="14.00">[]</text>
</g>
<!-- h2&#45;&gt;ground -->
<g id="edge25" class="edge">
<title>h2-&gt;ground</title>
<path fill="none" stroke="black" d="M378.98,-123.42C342.58,-132.28 277.57,-148.09 234.56,-158.55"/>
<polygon fill="black" stroke="black" points="224.66,-160.96 233.31,-154.22 229.52,-159.78 234.38,-158.6 234.38,-158.6 234.38,-158.6 229.52,-159.78 235.44,-162.97 224.66,-160.96 224.66,-160.96"/>
</g>
<!-- h2&#45;&gt;location -->
<g id="edge26" class="edge">
<title>h2-&gt;location</title>
<path fill="none" stroke="black" d="M378.92,-122.42C369.75,-124.31 359.25,-126.47 349.02,-128.58"/>
<polygon fill="black" stroke="black" points="338.95,-130.65 347.83,-124.23 343.84,-129.65 348.74,-128.64 348.74,-128.64 348.74,-128.64 343.84,-129.65 349.65,-133.04 338.95,-130.65 338.95,-130.65"/>
</g>
<!-- h2&#45;&gt;requests -->
<g id="edge27" class="edge">
<title>h2-&gt;requests</title>
<path fill="none" stroke="black" d="M378.74,-113.39C349.08,-109.69 300.99,-103.67 263.58,-99"/>
<polygon fill="black" stroke="black" points="253.34,-97.72 263.82,-94.49 258.3,-98.34 263.26,-98.96 263.26,-98.96 263.26,-98.96 258.3,-98.34 262.7,-103.42 253.34,-97.72 253.34,-97.72"/>
</g>
<!-- ma3 -->
<g id="node8" class="node">
<title>ma3</title>
<polygon fill="orange" stroke="red" stroke-width="2" points="277.41,-38 215.41,-38 215.41,0 277.41,0 277.41,-38"/>
<text text-anchor="middle" x="246.41" y="-22.8" font-family="Times New Roman,serif" font-size="14.00">ma3</text>
<text text-anchor="middle" x="246.41" y="-7.8" font-family="Times New Roman,serif" font-size="14.00">['crash']</text>
</g>
<!-- ma3&#45;&gt;ground -->
<g id="edge10" class="edge">
<title>ma3-&gt;ground</title>
<path fill="none" stroke="black" d="M239.38,-38.3C229.85,-64.45 212.78,-111.31 201.88,-141.23"/>
<polygon fill="black" stroke="black" points="198.44,-150.67 197.63,-139.74 200.15,-145.98 201.86,-141.28 201.86,-141.28 201.86,-141.28 200.15,-145.98 206.09,-142.82 198.44,-150.67 198.44,-150.67"/>
</g>
<!-- ma3&#45;&gt;location -->
<g id="edge11" class="edge">
<title>ma3-&gt;location</title>
<path fill="none" stroke="black" d="M255.43,-38.14C264.67,-57.74 279.12,-88.39 289.59,-110.59"/>
<polygon fill="black" stroke="black" points="293.94,-119.83 285.61,-112.71 291.81,-115.31 289.68,-110.79 289.68,-110.79 289.68,-110.79 291.81,-115.31 293.75,-108.87 293.94,-119.83 293.94,-119.83"/>
</g>
<!-- ma3&#45;&gt;requests -->
<g id="edge12" class="edge">
<title>ma3-&gt;requests</title>
<path fill="none" stroke="black" d="M236.62,-38.23C232.51,-46.32 227.64,-55.88 223.16,-64.69"/>
<polygon fill="black" stroke="black" points="218.5,-73.85 219.02,-62.9 220.76,-69.39 223.03,-64.94 223.03,-64.94 223.03,-64.94 220.76,-69.39 227.04,-66.98 218.5,-73.85 218.5,-73.85"/>
</g>
<!-- ua2 -->
<g id="node9" class="node">
<title>ua2</title>
<polygon fill="orange" stroke="red" stroke-width="2" points="162.2,-45.91 33.2,-45.91 33.2,-7.91 162.2,-7.91 162.2,-45.91"/>
<text text-anchor="middle" x="97.7" y="-30.71" font-family="Times New Roman,serif" font-size="14.00">ua2</text>
<text text-anchor="middle" x="97.7" y="-15.71" font-family="Times New Roman,serif" font-size="14.00">['lost_sight', 'crash']</text>
</g>
<!-- ua2&#45;&gt;ground -->
<g id="edge16" class="edge">
<title>ua2-&gt;ground</title>
<path fill="none" stroke="black" d="M110.39,-46.07C126.77,-70.8 155.38,-114 173.94,-142.03"/>
<polygon fill="black" stroke="black" points="179.59,-150.55 170.31,-144.7 176.83,-146.39 174.06,-142.22 174.06,-142.22 174.06,-142.22 176.83,-146.39 177.82,-139.73 179.59,-150.55 179.59,-150.55"/>
</g>
<!-- ua2&#45;&gt;location -->
<g id="edge17" class="edge">
<title>ua2-&gt;location</title>
<path fill="none" stroke="black" d="M132.92,-46.03C170.15,-66.25 228.59,-97.98 266.24,-118.42"/>
<polygon fill="black" stroke="black" points="275.34,-123.36 264.4,-122.54 270.94,-120.97 266.55,-118.59 266.55,-118.59 266.55,-118.59 270.94,-120.97 268.7,-114.63 275.34,-123.36 275.34,-123.36"/>
</g>
<!-- ua2&#45;&gt;requests -->
<g id="edge18" class="edge">
<title>ua2-&gt;requests</title>
<path fill="none" stroke="black" d="M130.24,-45.97C144.16,-54.12 160.42,-63.65 174.55,-71.93"/>
<polygon fill="black" stroke="black" points="183.49,-77.16 172.59,-75.99 179.17,-74.63 174.86,-72.1 174.86,-72.1 174.86,-72.1 179.17,-74.63 177.13,-68.22 183.49,-77.16 183.49,-77.16"/>
</g>
</g>
</svg>