<svg xmlns="http://www.w3.org/2000/svg" xmlns:xlink="http://www.w3.org/1999/xlink" width="2213pt" height="701pt" viewBox="0.00 0.00 2213.38 701.25">
<g id="graph0" class="graph" transform="scale(1 1) rotate(0) translate(4 697.25)">
<polygon fill="white" stroke="none" points="-4,4 -4,-697.25 2209.38,-697.25 2209.38,4 -4,4"/>
<!-- rover -->
<g id="node1" class="node">
<title>rover</title>
<polygon fill="lightgrey" stroke="grey" stroke-width="0" points="1023.25,-693.25 908.15,-657.62 1138.35,-657.62 1023.25,-693.25"/>
<text text-anchor="middle" x="1023.25" y="-664.08" font-family="Times New Roman,serif" font-size="14.00">rover: Rover</text>
</g>
<!-- rover.t -->
<g id="node2" class="node">
<title>rover.t</title>
<polygon fill="lightgrey" stroke="grey" points="124.75,-539.5 81.75,-539.5 81.75,-543.5 69.75,-543.5 69.75,-503.5 124.75,-503.5 124.75,-539.5"/>
<polyline fill="none" stroke="grey" points="69.75,-539.5 81.75,-539.5"/>
<text text-anchor="middle" x="97.25" y="-516.08" font-family="Times New Roman,serif" font-size="14.00">t: Time</text>
</g>
<!-- rover&#45;&gt;rover.t -->
<g id="edge1" class="edge">
<title>rover-&gt;rover.t</title>
<path fill="none" stroke="black" d="M927.82,-667.52C726.19,-664.92 269.94,-655.95 205.25,-627.75 162.05,-608.92 126.21,-564.53 108.73,-539.84"/>
<polygon fill="black" stroke="black" points="927.83,-667.52 933.88,-663.6 939.83,-667.68 933.78,-671.6 927.83,-667.52"/>
<text text-anchor="middle" x="247.25" y="-614.45" font-family="Times New Roman,serif" font-size="14.00">&lt;containment&gt;</text>
<text text-anchor="middle" x="247.25" y="-598.7" font-family="Times New Roman,serif" font-size="14.00">t</text>
</g>
<!-- rover.sp -->
<g id="node3" class="node">
<title>rover.sp</title>
<polygon fill="lightgrey" stroke="grey" points="272.88,-539.5 191.62,-539.5 191.62,-543.5 179.62,-543.5 179.62,-503.5 272.88,-503.5 272.88,-539.5"/>
<polyline fill="none" stroke="grey" points="179.62,-539.5 191.62,-539.5"/>
<text text-anchor="middle" x="226.25" y="-516.08" font-family="Times New Roman,serif" font-size="14.00">sp: SimParam</text>
</g>
<!-- rover&#45;&gt;rover.sp -->
<g id="edge2" class="edge">
<title>rover-&gt;rover.sp</title>
<path fill="none" stroke="black" d="M924.57,-666.34C747.8,-661.92 390.62,-650.32 338.25,-627.75 294.14,-608.74 256.69,-564.43 238.34,-539.8"/>
<polygon fill="black" stroke="black" points="924.6,-666.34 930.69,-662.49 936.59,-666.63 930.5,-670.49 924.6,-666.34"/>
<text text-anchor="middle" x="380.25" y="-614.45" font-family="Times New Roman,serif" font-size="14.00">&lt;containment&gt;</text>
<text text-anchor="middle" x="380.25" y="-598.7" font-family="Times New Roman,serif" font-size="14.00">sp</text>
</g>
<!-- rover.m -->
<g id="node4" class="node">
<title>rover.m</title>
<polygon fill="lightgrey" stroke="grey" points="374.38,-539.5 320.12,-539.5 320.12,-543.5 308.12,-543.5 308.12,-503.5 374.38,-503.5 374.38,-539.5"/>
<polyline fill="none" stroke="grey" points="308.12,-539.5 320.12,-539.5"/>
<text text-anchor="middle" x="341.25" y="-516.08" font-family="Times New Roman,serif" font-size="14.00">m: Mode</text>
</g>
<!-- rover&#45;&gt;rover.m -->
<g id="edge3" class="edge">
<title>rover-&gt;rover.m</title>
<path fill="none" stroke="black" d="M928.88,-667.81C795.65,-665.75 559.78,-657.82 480.25,-627.75 429.29,-608.48 381.27,-564.27 357.25,-539.73"/>
<polygon fill="black" stroke="black" points="928.94,-667.81 935,-663.9 940.94,-667.98 934.88,-671.9 928.94,-667.81"/>
<text text-anchor="middle" x="522.25" y="-614.45" font-family="Times New Roman,serif" font-size="14.00">&lt;containment&gt;</text>
<text text-anchor="middle" x="522.25" y="-598.7" font-family="Times New Roman,serif" font-size="14.00">m</text>
</g>
<!-- __main__.Rover -->
<g id="node20" class="node">
<title>__main__.Rover</title>
<polygon fill="lightgrey" stroke="grey" points="554,-578.25 440.5,-578.25 440.5,-464.75 554,-464.75 554,-578.25"/>
<polyline fill="none" stroke="grey" points="452.5,-578.25 440.5,-566.25"/>
<polyline fill="none" stroke="grey" points="440.5,-476.75 452.5,-464.75"/>
<polyline fill="none" stroke="grey" points="542,-464.75 554,-476.75"/>
<polyline fill="none" stroke="grey" points="554,-566.25 542,-578.25"/>
<text text-anchor="middle" x="497.25" y="-516.08" font-family="Times New Roman,serif" font-size="14.00">Rover: BaseType</text>
</g>
<!-- rover&#45;&gt;__main__.Rover -->
<g id="edge15" class="edge">
<title>rover-&gt;__main__.Rover</title>
<path fill="none" stroke="black" d="M935.77,-666.05C833.47,-662.1 671.04,-652.12 615.5,-627.75 593.24,-617.98 572.24,-602.4 554.3,-586.19"/>
<polygon fill="none" stroke="black" points="556.98,-583.97 547.27,-579.71 552.2,-589.09 556.98,-583.97"/>
<text text-anchor="middle" x="654.12" y="-614.45" font-family="Times New Roman,serif" font-size="14.00">&lt;inheritance&gt;</text>
<text text-anchor="middle" x="654.12" y="-598.7" font-family="Times New Roman,serif" font-size="14.00">base</text>
</g>
<!-- rover.flows.ground -->
<g id="node22" class="node">
<title>rover.flows.ground</title>
<ellipse fill="lightgrey" stroke="grey" stroke-width="0" cx="659.25" cy="-521.5" rx="70.52" ry="18"/>
<text text-anchor="middle" x="659.25" y="-516.08" font-family="Times New Roman,serif" font-size="14.00">ground: Ground</text>
</g>
<!-- rover&#45;&gt;rover.flows.ground -->
<g id="edge4" class="edge">
<title>rover-&gt;rover.flows.ground</title>
<path fill="none" stroke="black" d="M916.77,-663.26C844.72,-657.98 757.25,-647.63 726.25,-627.75 693.43,-606.71 673.64,-563.22 664.78,-539.26"/>
<polygon fill="black" stroke="black" points="916.69,-663.26 922.96,-659.69 928.66,-664.1 922.39,-667.67 916.69,-663.26"/>
<text text-anchor="middle" x="768.25" y="-614.45" font-family="Times New Roman,serif" font-size="14.00">&lt;containment&gt;</text>
<text text-anchor="middle" x="768.25" y="-598.7" font-family="Times New Roman,serif" font-size="14.00">ground</text>
</g>
<!-- rover.flows.force -->
<g id="node23" class="node">
<title>rover.flows.force</title>
<ellipse fill="lightgrey" stroke="grey" stroke-width="0" cx="804.25" cy="-521.5" rx="56.55" ry="18"/>
<text text-anchor="middle" x="804.25" y="-516.08" font-family="Times New Roman,serif" font-size="14.00">force: Force</text>
</g>
<!-- rover&#45;&gt;rover.flows.force -->
<g id="edge5" class="edge">
<title>rover-&gt;rover.flows.force</title>
<path fill="none" stroke="black" d="M915.63,-655.48C879.52,-649.06 845.13,-640.01 832.25,-627.75 807.87,-604.55 803.85,-562.73 803.67,-539.4"/>
<polygon fill="black" stroke="black" points="915.72,-655.49 922.3,-652.55 927.55,-657.49 920.97,-660.43 915.72,-655.49"/>
<text text-anchor="middle" x="874.25" y="-614.45" font-family="Times New Roman,serif" font-size="14.00">&lt;containment&gt;</text>
<text text-anchor="middle" x="874.25" y="-598.7" font-family="Times New Roman,serif" font-size="14.00">force</text>
</g>
<!-- rover.flows.ee -->
<g id="node24" class="node">
<title>rover.flows.ee</title>
<ellipse fill="lightgrey" stroke="grey" stroke-width="0" cx="913.25" cy="-521.5" rx="34.1" ry="18"/>
<text text-anchor="middle" x="913.25" y="-516.08" font-family="Times New Roman,serif" font-size="14.00">ee: EE</text>
</g>
<!-- rover&#45;&gt;rover.flows.ee -->
<g id="edge6" class="edge">
<title>rover-&gt;rover.flows.ee</title>
<path fill="none" stroke="black" d="M968.39,-652.56C955.91,-646.59 943.82,-638.54 935.25,-627.75 914.81,-602.03 912.07,-561.93 912.36,-539.38"/>
<polygon fill="black" stroke="black" points="968.5,-652.61 975.58,-651.28 979.54,-657.31 972.45,-658.64 968.5,-652.61"/>
<text text-anchor="middle" x="977.25" y="-614.45" font-family="Times New Roman,serif" font-size="14.00">&lt;containment&gt;</text>
<text text-anchor="middle" x="977.25" y="-598.7" font-family="Times New Roman,serif" font-size="14.00">ee</text>
</g>
<!-- rover.flows.video -->
<g id="node25" class="node">
<title>rover.flows.video</title>
<ellipse fill="lightgrey" stroke="grey" stroke-width="0" cx="1023.25" cy="-521.5" rx="58.05" ry="18"/>
<text text-anchor="middle" x="1023.25" y="-516.08" font-family="Times New Roman,serif" font-size="14.00">video: Video</text>
</g>
<!-- rover&#45;&gt;rover.flows.video -->
<g id="edge7" class="edge">
<title>rover-&gt;rover.flows.video</title>
<path fill="none" stroke="black" d="M1023.25,-644.99C1023.25,-615.46 1023.25,-565.49 1023.25,-539.44"/>
<polygon fill="black" stroke="black" points="1023.25,-645.1 1027.25,-651.1 1023.25,-657.1 1019.25,-651.1 1023.25,-645.1"/>
<text text-anchor="middle" x="1065.25" y="-614.45" font-family="Times New Roman,serif" font-size="14.00">&lt;containment&gt;</text>
<text text-anchor="middle" x="1065.25" y="-598.7" font-family="Times New Roman,serif" font-size="14.00">video</text>
</g>
<!-- rover.flows.control -->
<g id="node26" class="node">
<title>rover.flows.control</title>
<ellipse fill="lightgrey" stroke="grey" stroke-width="0" cx="1169.25" cy="-521.5" rx="70.03" ry="18"/>
<text text-anchor="middle" x="1169.25" y="-516.08" font-family="Times New Roman,serif" font-size="14.00">control: Control</text>
</g>
<!-- rover&#45;&gt;rover.flows.control -->
<g id="edge8" class="edge">
<title>rover-&gt;rover.flows.control</title>
<path fill="none" stroke="black" d="M1071.36,-652.77C1085.36,-646.55 1099.92,-638.32 1111.25,-627.75 1138.26,-602.57 1155.65,-561.89 1163.81,-539.19"/>
<polygon fill="black" stroke="black" points="1071.23,-652.82 1067.2,-658.8 1060.13,-657.38 1064.16,-651.4 1071.23,-652.82"/>
<text text-anchor="middle" x="1178.25" y="-614.45" font-family="Times New Roman,serif" font-size="14.00">&lt;containment&gt;</text>
<text text-anchor="middle" x="1178.25" y="-598.7" font-family="Times New Roman,serif" font-size="14.00">control</text>
</g>
<!-- rover.flows.comms -->
<g id="node27" class="node">
<title>rover.flows.comms</title>
<ellipse fill="lightgrey" stroke="grey" stroke-width="0" cx="1291.25" cy="-428.75" rx="61.54" ry="18"/>
<text text-anchor="middle" x="1291.25" y="-423.32" font-family="Times New Roman,serif" font-size="14.00">comms: Flow</text>
</g>
<!-- rover&#45;&gt;rover.flows.comms -->
<g id="edge9" class="edge">
<title>rover-&gt;rover.flows.comms</title>
<path fill="none" stroke="black" d="M1129.36,-655.62C1169.26,-649.02 1208.73,-639.79 1224.25,-627.75 1253.86,-604.79 1279.29,-490.04 1288.02,-446.52"/>
<polygon fill="black" stroke="black" points="1129.45,-655.61 1124.15,-660.5 1117.59,-657.49 1122.89,-652.6 1129.45,-655.61"/>
<text text-anchor="middle" x="1286.25" y="-614.45" font-family="Times New Roman,serif" font-size="14.00">&lt;containment&gt;</text>
<text text-anchor="middle" x="1286.25" y="-598.7" font-family="Times New Roman,serif" font-size="14.00">comms</text>
</g>
<!-- rover.fxns.control_rover -->
<g id="node28" class="node">
<title>rover.fxns.control_rover</title>
<polygon fill="lightgrey" stroke="grey" stroke-width="2" points="1471.5,-539.5 1295,-539.5 1295,-503.5 1471.5,-503.5 1471.5,-539.5"/>
<text text-anchor="middle" x="1383.25" y="-516.08" font-family="Times New Roman,serif" font-size="14.00">control_rover: ControlRover</text>
</g>
<!-- rover&#45;&gt;rover.fxns.control_rover -->
<g id="edge10" class="edge">
<title>rover-&gt;rover.fxns.control_rover</title>
<path fill="none" stroke="black" d="M1115.38,-668.43C1201.03,-666.43 1320.47,-658.04 1355.25,-627.75 1380.49,-605.77 1384.21,-563.87 1384.11,-540.1"/>
<polygon fill="black" stroke="black" points="1115.37,-668.43 1109.45,-672.56 1103.37,-668.68 1109.29,-664.56 1115.37,-668.43"/>
<text text-anchor="middle" x="1418.25" y="-614.45" font-family="Times New Roman,serif" font-size="14.00">&lt;containment&gt;</text>
<text text-anchor="middle" x="1418.25" y="-598.7" font-family="Times New Roman,serif" font-size="14.00">control_rover</text>
</g>
<!-- rover.fxns.store_energy -->
<g id="node29" class="node">
<title>rover.fxns.store_energy</title>
<polygon fill="lightgrey" stroke="grey" stroke-width="2" points="1653.12,-539.5 1489.38,-539.5 1489.38,-503.5 1653.12,-503.5 1653.12,-539.5"/>
<text text-anchor="middle" x="1571.25" y="-516.08" font-family="Times New Roman,serif" font-size="14.00">store_energy: StoreEnergy</text>
</g>
<!-- rover&#45;&gt;rover.fxns.store_energy -->
<g id="edge11" class="edge">
<title>rover-&gt;rover.fxns.store_energy</title>
<path fill="none" stroke="black" d="M1119.48,-667.1C1230.41,-664.19 1405.05,-655.23 1464.25,-627.75 1506.32,-608.22 1541.62,-564.96 1559.22,-540.42"/>
<polygon fill="black" stroke="black" points="1119.52,-667.1 1113.62,-671.25 1107.52,-667.4 1113.42,-663.25 1119.52,-667.1"/>
<text text-anchor="middle" x="1550.25" y="-614.45" font-family="Times New Roman,serif" font-size="14.00">&lt;containment&gt;</text>
<text text-anchor="middle" x="1550.25" y="-598.7" font-family="Times New Roman,serif" font-size="14.00">store_energy</text>
</g>
<!-- rover.fxns.move_rover -->
<g id="node30" class="node">
<title>rover.fxns.move_rover</title>
<polygon fill="lightgrey" stroke="grey" stroke-width="2" points="1827.75,-539.5 1670.75,-539.5 1670.75,-503.5 1827.75,-503.5 1827.75,-539.5"/>
<text text-anchor="middle" x="1749.25" y="-516.08" font-family="Times New Roman,serif" font-size="14.00">move_rover: MoveRover</text>
</g>
<!-- rover&#45;&gt;rover.fxns.move_rover -->
<g id="edge12" class="edge">
<title>rover-&gt;rover.fxns.move_rover</title>
<path fill="none" stroke="black" d="M1117.58,-667.77C1256.93,-665.69 1510.56,-657.75 1596.25,-627.75 1650.72,-608.68 1703.82,-564.82 1730.83,-540.16"/>
<polygon fill="black" stroke="black" points="1117.77,-667.77 1111.83,-671.85 1105.77,-667.94 1111.72,-663.86 1117.77,-667.77"/>
<text text-anchor="middle" x="1697.25" y="-614.45" font-family="Times New Roman,serif" font-size="14.00">&lt;containment&gt;</text>
<text text-anchor="middle" x="1697.25" y="-598.7" font-family="Times New Roman,serif" font-size="14.00">move_rover</text>
</g>
<!-- rover.fxns.view_ground -->
<g id="node31" class="node">
<title>rover.fxns.view_ground</title>
<polygon fill="lightgrey" stroke="grey" stroke-width="2" points="2013,-539.5 1845.5,-539.5 1845.5,-503.5 2013,-503.5 2013,-539.5"/>
<text text-anchor="middle" x="1929.25" y="-516.08" font-family="Times New Roman,serif" font-size="14.00">view_ground: ViewGround</text>
</g>
<!-- rover&#45;&gt;rover.fxns.view_ground -->
<g id="edge13" class="edge">
<title>rover-&gt;rover.fxns.view_ground</title>
<path fill="none" stroke="black" d="M1116.85,-668.18C1284.25,-666.79 1628.15,-659.96 1743.25,-627.75 1807.21,-609.85 1872.66,-565.53 1906.25,-540.48"/>
<polygon fill="black" stroke="black" points="1116.79,-668.18 1110.82,-672.23 1104.79,-668.28 1110.76,-664.23 1116.79,-668.18"/>
<text text-anchor="middle" x="1861.25" y="-614.45" font-family="Times New Roman,serif" font-size="14.00">&lt;containment&gt;</text>
<text text-anchor="middle" x="1861.25" y="-598.7" font-family="Times New Roman,serif" font-size="14.00">view_ground</text>
</g>
<!-- rover.fxns.communicate -->
<g id="node32" class="node">
<title>rover.fxns.communicate</title>
<polygon fill="lightgrey" stroke="grey" stroke-width="2" points="2205.38,-539.5 2031.12,-539.5 2031.12,-503.5 2205.38,-503.5 2205.38,-539.5"/>
<text text-anchor="middle" x="2118.25" y="-516.08" font-family="Times New Roman,serif" font-size="14.00">communicate: Communicate</text>
</g>
<!-- rover&#45;&gt;rover.fxns.communicate -->
<g id="edge14" class="edge">
<title>rover-&gt;rover.fxns.communicate</title>
<path fill="none" stroke="black" d="M1115.84,-668.43C1311.04,-667.59 1758.99,-661.88 1907.25,-627.75 1979.06,-611.22 2054.2,-565.9 2092.49,-540.45"/>
<polygon fill="black" stroke="black" points="1115.98,-668.43 1109.99,-672.45 1103.98,-668.47 1109.96,-664.45 1115.98,-668.43"/>
<text text-anchor="middle" x="2033.25" y="-614.45" font-family="Times New Roman,serif" font-size="14.00">&lt;containment&gt;</text>
<text text-anchor="middle" x="2033.25" y="-598.7" font-family="Times New Roman,serif" font-size="14.00">communicate</text>
</g>
<!-- fmdtools.define.container.time.Time -->
<g id="node5" class="node">
<title>fmdtools.define.container.time.Time</title>
<polygon fill="lightgrey" stroke="grey" points="98.5,-343.62 0,-343.62 0,-245.12 98.5,-245.12 98.5,-343.62"/>
<polyline fill="none" stroke="grey" points="12,-343.62 0,-331.62"/>
<polyline fill="none" stroke="grey" points="0,-257.12 12,-245.12"/>
<polyline fill="none" stroke="grey" points="86.5,-245.12 98.5,-257.12"/>
<polyline fill="none" stroke="grey" points="98.5,-331.62 86.5,-343.62"/>
<text text-anchor="middle" x="49.25" y="-288.95" font-family="Times New Roman,serif" font-size="14.00">Time: datatype</text>
</g>
<!-- rover.t&#45;&gt;fmdtools.define.container.time.Time -->
<g id="edge16" class="edge">
<title>rover.t-&gt;fmdtools.define.container.time.Time</title>
<path fill="none" stroke="black" d="M93.56,-503.21C86.88,-471.84 72.46,-404.22 61.88,-354.59"/>
<polygon fill="none" stroke="black" points="65.12,-354.03 59.61,-344.98 58.28,-355.49 65.12,-354.03"/>
<text text-anchor="middle" x="119.12" y="-431.2" font-family="Times New Roman,serif" font-size="14.00">&lt;inheritance&gt;</text>
<text text-anchor="middle" x="119.12" y="-415.45" font-family="Times New Roman,serif" font-size="14.00">base</text>
</g>
<!-- fmdtools.define.block.base.SimParam -->
<g id="node6" class="node">
<title>fmdtools.define.block.base.SimParam</title>
<polygon fill="lightgrey" stroke="grey" points="243.75,-357.88 116.75,-357.88 116.75,-230.88 243.75,-230.88 243.75,-357.88"/>
<polyline fill="none" stroke="grey" points="128.75,-357.88 116.75,-345.88"/>
<polyline fill="none" stroke="grey" points="116.75,-242.88 128.75,-230.88"/>
<polyline fill="none" stroke="grey" points="231.75,-230.88 243.75,-242.88"/>
<polyline fill="none" stroke="grey" points="243.75,-345.88 231.75,-357.88"/>
<text text-anchor="middle" x="180.25" y="-288.95" font-family="Times New Roman,serif" font-size="14.00">SimParam: datatype</text>
</g>
<!-- rover.sp&#45;&gt;fmdtools.define.block.base.SimParam -->
<g id="edge17" class="edge">
<title>rover.sp-&gt;fmdtools.define.block.base.SimParam</title>
<path fill="none" stroke="black" d="M222.72,-503.21C216.91,-474.78 205.01,-416.57 195.29,-368.97"/>
<polygon fill="none" stroke="black" points="198.55,-368.46 193.12,-359.36 191.69,-369.86 198.55,-368.46"/>
<text text-anchor="middle" x="248.12" y="-431.2" font-family="Times New Roman,serif" font-size="14.00">&lt;inheritance&gt;</text>
<text text-anchor="middle" x="248.12" y="-415.45" font-family="Times New Roman,serif" font-size="14.00">base</text>
</g>
<!-- fmdtools.define.container.mode.Mode -->
<g id="node7" class="node">
<title>fmdtools.define.container.mode.Mode</title>
<polygon fill="lightgrey" stroke="grey" points="364.75,-345.88 261.75,-345.88 261.75,-242.88 364.75,-242.88 364.75,-345.88"/>
<polyline fill="none" stroke="grey" points="273.75,-345.88 261.75,-333.88"/>
<polyline fill="none" stroke="grey" points="261.75,-254.88 273.75,-242.88"/>
<polyline fill="none" stroke="grey" points="352.75,-242.88 364.75,-254.88"/>
<polyline fill="none" stroke="grey" points="364.75,-333.88 352.75,-345.88"/>
<text text-anchor="middle" x="313.25" y="-288.95" font-family="Times New Roman,serif" font-size="14.00">Mode: datatype</text>
</g>
<!-- rover.m&#45;&gt;fmdtools.define.container.mode.Mode -->
<g id="edge18" class="edge">
<title>rover.m-&gt;fmdtools.define.container.mode.Mode</title>
<path fill="none" stroke="black" d="M339.1,-503.21C335.27,-472.39 327.08,-406.56 320.94,-357.19"/>
<polygon fill="none" stroke="black" points="324.29,-356.79 319.58,-347.3 317.34,-357.65 324.29,-356.79"/>
<text text-anchor="middle" x="370.12" y="-431.2" font-family="Times New Roman,serif" font-size="14.00">&lt;inheritance&gt;</text>
<text text-anchor="middle" x="370.12" y="-415.45" font-family="Times New Roman,serif" font-size="14.00">base</text>
</g>
<!-- __main__.Ground -->
<g id="node8" class="node">
<title>__main__.Ground</title>
<polygon fill="lightgrey" stroke="grey" points="720.5,-355.62 598,-355.62 598,-233.12 720.5,-233.12 720.5,-355.62"/>
<polyline fill="none" stroke="grey" points="610,-355.62 598,-343.62"/>
<polyline fill="none" stroke="grey" points="598,-245.12 610,-233.12"/>
<polyline fill="none" stroke="grey" points="708.5,-233.12 720.5,-245.12"/>
<polyline fill="none" stroke="grey" points="720.5,-343.62 708.5,-355.62"/>
<text text-anchor="middle" x="659.25" y="-288.95" font-family="Times New Roman,serif" font-size="14.00">Ground: BaseType</text>
</g>
<!-- fmdtools.define.flow.base.Flow -->
<g id="node9" class="node">
<title>fmdtools.define.flow.base.Flow</title>
<polygon fill="lightgrey" stroke="grey" points="1033,-118 925.5,-118 925.5,-10.5 1033,-10.5 1033,-118"/>
<polyline fill="none" stroke="grey" points="937.5,-118 925.5,-106"/>
<polyline fill="none" stroke="grey" points="925.5,-22.5 937.5,-10.5"/>
<polyline fill="none" stroke="grey" points="1021,-10.5 1033,-22.5"/>
<polyline fill="none" stroke="grey" points="1033,-106 1021,-118"/>
<text text-anchor="middle" x="979.25" y="-58.83" font-family="Times New Roman,serif" font-size="14.00">Flow: BaseType</text>
</g>
<!-- __main__.Ground&#45;&gt;fmdtools.define.flow.base.Flow -->
<g id="edge20" class="edge">
<title>__main__.Ground-&gt;fmdtools.define.flow.base.Flow</title>
<path fill="none" stroke="black" d="M681.08,-232.81C694.47,-203.19 714.34,-169.14 741.5,-146.5 791.08,-105.18 862.78,-84.48 914.46,-74.37"/>
<polygon fill="none" stroke="black" points="914.98,-77.64 924.17,-72.37 913.7,-70.76 914.98,-77.64"/>
<text text-anchor="middle" x="780.12" y="-164.7" font-family="Times New Roman,serif" font-size="14.00">&lt;inheritance&gt;</text>
<text text-anchor="middle" x="780.12" y="-148.95" font-family="Times New Roman,serif" font-size="14.00">base</text>
</g>
<!-- __main__.Force -->
<g id="node10" class="node">
<title>__main__.Force</title>
<polygon fill="lightgrey" stroke="grey" points="850.25,-350.38 738.25,-350.38 738.25,-238.38 850.25,-238.38 850.25,-350.38"/>
<polyline fill="none" stroke="grey" points="750.25,-350.38 738.25,-338.38"/>
<polyline fill="none" stroke="grey" points="738.25,-250.38 750.25,-238.38"/>
<polyline fill="none" stroke="grey" points="838.25,-238.38 850.25,-250.38"/>
<polyline fill="none" stroke="grey" points="850.25,-338.38 838.25,-350.38"/>
<text text-anchor="middle" x="794.25" y="-288.95" font-family="Times New Roman,serif" font-size="14.00">Force: BaseType</text>
</g>
<!-- __main__.Force&#45;&gt;fmdtools.define.flow.base.Flow -->
<g id="edge22" class="edge">
<title>__main__.Force-&gt;fmdtools.define.flow.base.Flow</title>
<path fill="none" stroke="black" d="M800.39,-238.2C806.03,-208.49 816.83,-172.68 837.5,-146.5 857.54,-121.12 887.84,-102.23 915.29,-89.09"/>
<polygon fill="none" stroke="black" points="916.63,-91.86 924.25,-84.5 913.7,-85.51 916.63,-91.86"/>
<text text-anchor="middle" x="876.12" y="-164.7" font-family="Times New Roman,serif" font-size="14.00">&lt;inheritance&gt;</text>
<text text-anchor="middle" x="876.12" y="-148.95" font-family="Times New Roman,serif" font-size="14.00">base</text>
</g>
<!-- __main__.EE -->
<g id="node11" class="node">
<title>__main__.EE</title>
<polygon fill="lightgrey" stroke="grey" points="964,-342.12 868.5,-342.12 868.5,-246.62 964,-246.62 964,-342.12"/>
<polyline fill="none" stroke="grey" points="880.5,-342.12 868.5,-330.12"/>
<polyline fill="none" stroke="grey" points="868.5,-258.62 880.5,-246.62"/>
<polyline fill="none" stroke="grey" points="952,-246.62 964,-258.62"/>
<polyline fill="none" stroke="grey" points="964,-330.12 952,-342.12"/>
<text text-anchor="middle" x="916.25" y="-288.95" font-family="Times New Roman,serif" font-size="14.00">EE: BaseType</text>
</g>
<!-- __main__.EE&#45;&gt;fmdtools.define.flow.base.Flow -->
<g id="edge24" class="edge">
<title>__main__.EE-&gt;fmdtools.define.flow.base.Flow</title>
<path fill="none" stroke="black" d="M912.62,-246.2C911.88,-216.79 913.71,-178.57 924.5,-146.5 926.64,-140.15 929.41,-133.83 932.57,-127.69"/>
<polygon fill="none" stroke="black" points="936.05,-129.64 937.84,-119.19 929.93,-126.24 936.05,-129.64"/>
<text text-anchor="middle" x="963.12" y="-164.7" font-family="Times New Roman,serif" font-size="14.00">&lt;inheritance&gt;</text>
<text text-anchor="middle" x="963.12" y="-148.95" font-family="Times New Roman,serif" font-size="14.00">base</text>
</g>
<!-- __main__.Video -->
<g id="node12" class="node">
<title>__main__.Video</title>
<polygon fill="lightgrey" stroke="grey" points="1094.62,-350.75 981.88,-350.75 981.88,-238 1094.62,-238 1094.62,-350.75"/>
<polyline fill="none" stroke="grey" points="993.88,-350.75 981.88,-338.75"/>
<polyline fill="none" stroke="grey" points="981.88,-250 993.88,-238"/>
<polyline fill="none" stroke="grey" points="1082.62,-238 1094.62,-250"/>
<polyline fill="none" stroke="grey" points="1094.62,-338.75 1082.62,-350.75"/>
<text text-anchor="middle" x="1038.25" y="-288.95" font-family="Times New Roman,serif" font-size="14.00">Video: BaseType</text>
</g>
<!-- __main__.Video&#45;&gt;fmdtools.define.flow.base.Flow -->
<g id="edge26" class="edge">
<title>__main__.Video-&gt;fmdtools.define.flow.base.Flow</title>
<path fill="none" stroke="black" d="M1026.34,-237.7C1020.2,-210.14 1012.31,-176.45 1004.25,-146.5 1002.68,-140.66 1000.97,-134.6 999.2,-128.55"/>
<polygon fill="none" stroke="black" points="1002.4,-128.01 996.2,-119.41 995.68,-130 1002.4,-128.01"/>
<text text-anchor="middle" x="1050.12" y="-164.7" font-family="Times New Roman,serif" font-size="14.00">&lt;inheritance&gt;</text>
<text text-anchor="middle" x="1050.12" y="-148.95" font-family="Times New Roman,serif" font-size="14.00">base</text>
</g>
<!-- __main__.Control -->
<g id="node13" class="node">
<title>__main__.Control</title>
<polygon fill="lightgrey" stroke="grey" points="1234.12,-355.25 1112.38,-355.25 1112.38,-233.5 1234.12,-233.5 1234.12,-355.25"/>
<polyline fill="none" stroke="grey" points="1124.38,-355.25 1112.38,-343.25"/>
<polyline fill="none" stroke="grey" points="1112.38,-245.5 1124.38,-233.5"/>
<polyline fill="none" stroke="grey" points="1222.12,-233.5 1234.12,-245.5"/>
<polyline fill="none" stroke="grey" points="1234.12,-343.25 1222.12,-355.25"/>
<text text-anchor="middle" x="1173.25" y="-288.95" font-family="Times New Roman,serif" font-size="14.00">Control: BaseType</text>
</g>
<!-- __main__.Control&#45;&gt;fmdtools.define.flow.base.Flow -->
<g id="edge28" class="edge">
<title>__main__.Control-&gt;fmdtools.define.flow.base.Flow</title>
<path fill="none" stroke="black" d="M1147.54,-233.03C1133.72,-204.85 1114.86,-171.99 1092.25,-146.5 1077.78,-130.19 1059.47,-115.28 1041.83,-102.82"/>
<polygon fill="none" stroke="black" points="1044.46,-99.69 1034.24,-96.9 1040.49,-105.46 1044.46,-99.69"/>
<text text-anchor="middle" x="1153.12" y="-164.7" font-family="Times New Roman,serif" font-size="14.00">&lt;inheritance&gt;</text>
<text text-anchor="middle" x="1153.12" y="-148.95" font-family="Times New Roman,serif" font-size="14.00">base</text>
</g>
<!-- __main__.ControlRover -->
<g id="node14" class="node">
<title>__main__.ControlRover</title>
<polygon fill="lightgrey" stroke="grey" points="1520.38,-372.5 1364.12,-372.5 1364.12,-216.25 1520.38,-216.25 1520.38,-372.5"/>
<polyline fill="none" stroke="grey" points="1376.12,-372.5 1364.12,-360.5"/>
<polyline fill="none" stroke="grey" points="1364.12,-228.25 1376.12,-216.25"/>
<polyline fill="none" stroke="grey" points="1508.38,-216.25 1520.38,-228.25"/>
<polyline fill="none" stroke="grey" points="1520.38,-360.5 1508.38,-372.5"/>
<text text-anchor="middle" x="1442.25" y="-288.95" font-family="Times New Roman,serif" font-size="14.00">ControlRover: BaseType</text>
</g>
<!-- fmdtools.define.block.function.Function -->
<g id="node15" class="node">
<title>fmdtools.define.block.function.Function</title>
<polygon fill="lightgrey" stroke="grey" points="1841.5,-128.5 1713,-128.5 1713,0 1841.5,0 1841.5,-128.5"/>
<polyline fill="none" stroke="grey" points="1725,-128.5 1713,-116.5"/>
<polyline fill="none" stroke="grey" points="1713,-12 1725,0"/>
<polyline fill="none" stroke="grey" points="1829.5,0 1841.5,-12"/>
<polyline fill="none" stroke="grey" points="1841.5,-116.5 1829.5,-128.5"/>
<text text-anchor="middle" x="1777.25" y="-58.83" font-family="Times New Roman,serif" font-size="14.00">Function: BaseType</text>
</g>
<!-- __main__.ControlRover&#45;&gt;fmdtools.define.block.function.Function -->
<g id="edge31" class="edge">
<title>__main__.ControlRover-&gt;fmdtools.define.block.function.Function</title>
<path fill="none" stroke="black" d="M1508.72,-215.93C1515.47,-209 1522.37,-202.25 1529.25,-196 1579.99,-149.85 1650.02,-114.89 1702.72,-92.78"/>
<polygon fill="none" stroke="black" points="1703.78,-95.72 1711.68,-88.67 1701.1,-89.25 1703.78,-95.72"/>
<text text-anchor="middle" x="1629.12" y="-164.7" font-family="Times New Roman,serif" font-size="14.00">&lt;inheritance&gt;</text>
<text text-anchor="middle" x="1629.12" y="-148.95" font-family="Times New Roman,serif" font-size="14.00">base</text>
</g>
<!-- __main__.StoreEnergy -->
<g id="node16" class="node">
<title>__main__.StoreEnergy</title>
<polygon fill="lightgrey" stroke="grey" points="1686.25,-368.38 1538.25,-368.38 1538.25,-220.38 1686.25,-220.38 1686.25,-368.38"/>
<polyline fill="none" stroke="grey" points="1550.25,-368.38 1538.25,-356.38"/>
<polyline fill="none" stroke="grey" points="1538.25,-232.38 1550.25,-220.38"/>
<polyline fill="none" stroke="grey" points="1674.25,-220.38 1686.25,-232.38"/>
<polyline fill="none" stroke="grey" points="1686.25,-356.38 1674.25,-368.38"/>
<text text-anchor="middle" x="1612.25" y="-288.95" font-family="Times New Roman,serif" font-size="14.00">StoreEnergy: BaseType</text>
</g>
<!-- __main__.StoreEnergy&#45;&gt;fmdtools.define.block.function.Function -->
<g id="edge33" class="edge">
<title>__main__.StoreEnergy-&gt;fmdtools.define.block.function.Function</title>
<path fill="none" stroke="black" d="M1650,-220.11C1663.73,-195.85 1680.17,-169.25 1697.5,-146.5 1700.05,-143.15 1702.74,-139.79 1705.51,-136.45"/>
<polygon fill="none" stroke="black" points="1708.72,-139.08 1712.56,-129.2 1703.4,-134.53 1708.72,-139.08"/>
<text text-anchor="middle" x="1736.12" y="-164.7" font-family="Times New Roman,serif" font-size="14.00">&lt;inheritance&gt;</text>
<text text-anchor="middle" x="1736.12" y="-148.95" font-family="Times New Roman,serif" font-size="14.00">base</text>
</g>
<!-- __main__.MoveRover -->
<g id="node17" class="node">
<title>__main__.MoveRover</title>
<polygon fill="lightgrey" stroke="grey" points="1850.12,-367.25 1704.38,-367.25 1704.38,-221.5 1850.12,-221.5 1850.12,-367.25"/>
<polyline fill="none" stroke="grey" points="1716.38,-367.25 1704.38,-355.25"/>
<polyline fill="none" stroke="grey" points="1704.38,-233.5 1716.38,-221.5"/>
<polyline fill="none" stroke="grey" points="1838.12,-221.5 1850.12,-233.5"/>
<polyline fill="none" stroke="grey" points="1850.12,-355.25 1838.12,-367.25"/>
<text text-anchor="middle" x="1777.25" y="-288.95" font-family="Times New Roman,serif" font-size="14.00">MoveRover: BaseType</text>
</g>
<!-- __main__.MoveRover&#45;&gt;fmdtools.define.block.function.Function -->
<g id="edge35" class="edge">
<title>__main__.MoveRover-&gt;fmdtools.define.block.function.Function</title>
<path fill="none" stroke="black" d="M1777.25,-221.19C1777.25,-195.27 1777.25,-165.99 1777.25,-139.86"/>
<polygon fill="none" stroke="black" points="1780.75,-139.87 1777.25,-129.87 1773.75,-139.87 1780.75,-139.87"/>
<text text-anchor="middle" x="1815.12" y="-164.7" font-family="Times New Roman,serif" font-size="14.00">&lt;inheritance&gt;</text>
<text text-anchor="middle" x="1815.12" y="-148.95" font-family="Times New Roman,serif" font-size="14.00">base</text>
</g>
<!-- __main__.ViewGround -->
<g id="node18" class="node">
<title>__main__.ViewGround</title>
<polygon fill="lightgrey" stroke="grey" points="2018.75,-369.88 1867.75,-369.88 1867.75,-218.88 2018.75,-218.88 2018.75,-369.88"/>
<polyline fill="none" stroke="grey" points="1879.75,-369.88 1867.75,-357.88"/>
<polyline fill="none" stroke="grey" points="1867.75,-230.88 1879.75,-218.88"/>
<polyline fill="none" stroke="grey" points="2006.75,-218.88 2018.75,-230.88"/>
<polyline fill="none" stroke="grey" points="2018.75,-357.88 2006.75,-369.88"/>
<text text-anchor="middle" x="1943.25" y="-288.95" font-family="Times New Roman,serif" font-size="14.00">ViewGround: BaseType</text>
</g>
<!-- __main__.ViewGround&#45;&gt;fmdtools.define.block.function.Function -->
<g id="edge37" class="edge">
<title>__main__.ViewGround-&gt;fmdtools.define.block.function.Function</title>
<path fill="none" stroke="black" d="M1904.24,-218.61C1890.56,-194.76 1874.32,-168.78 1857.25,-146.5 1854.54,-142.96 1851.69,-139.42 1848.74,-135.9"/>
<polygon fill="none" stroke="black" points="1850.9,-134.04 1841.72,-128.74 1845.59,-138.6 1850.9,-134.04"/>
<text text-anchor="middle" x="1917.12" y="-164.7" font-family="Times New Roman,serif" font-size="14.00">&lt;inheritance&gt;</text>
<text text-anchor="middle" x="1917.12" y="-148.95" font-family="Times New Roman,serif" font-size="14.00">base</text>
</g>
<!-- __main__.Communicate -->
<g id="node19" class="node">
<title>__main__.Communicate</title>
<polygon fill="lightgrey" stroke="grey" points="2194.38,-372.5 2038.12,-372.5 2038.12,-216.25 2194.38,-216.25 2194.38,-372.5"/>
<polyline fill="none" stroke="grey" points="2050.12,-372.5 2038.12,-360.5"/>
<polyline fill="none" stroke="grey" points="2038.12,-228.25 2050.12,-216.25"/>
<polyline fill="none" stroke="grey" points="2182.38,-216.25 2194.38,-228.25"/>
<polyline fill="none" stroke="grey" points="2194.38,-360.5 2182.38,-372.5"/>
<text text-anchor="middle" x="2116.25" y="-288.95" font-family="Times New Roman,serif" font-size="14.00">Communicate: BaseType</text>
</g>
<!-- __main__.Communicate&#45;&gt;fmdtools.define.block.function.Function -->
<g id="edge39" class="edge">
<title>__main__.Communicate-&gt;fmdtools.define.block.function.Function</title>
<path fill="none" stroke="black" d="M2049.04,-215.86C2042.21,-208.95 2035.22,-202.22 2028.25,-196 1976.44,-149.72 1905.3,-114.68 1851.98,-92.58"/>
<polygon fill="none" stroke="black" points="1853.48,-89 1842.9,-88.46 1850.84,-95.48 1853.48,-89"/>
<text text-anchor="middle" x="2042.12" y="-164.7" font-family="Times New Roman,serif" font-size="14.00">&lt;inheritance&gt;</text>
<text text-anchor="middle" x="2042.12" y="-148.95" font-family="Times New Roman,serif" font-size="14.00">base</text>
</g>
<!-- fmdtools.define.architecture.function.FunctionArchitecture -->
<g id="node21" class="node">
<title>fmdtools.define.architecture.function.FunctionArchitecture</title>
<polygon fill="lightgrey" stroke="grey" points="579.62,-392.75 382.88,-392.75 382.88,-196 579.62,-196 579.62,-392.75"/>
<polyline fill="none" stroke="grey" points="394.88,-392.75 382.88,-380.75"/>
<polyline fill="none" stroke="grey" points="382.88,-208 394.88,-196"/>
<polyline fill="none" stroke="grey" points="567.62,-196 579.62,-208"/>
<polyline fill="none" stroke="grey" points="579.62,-380.75 567.62,-392.75"/>
<text text-anchor="middle" x="481.25" y="-288.95" font-family="Times New Roman,serif" font-size="14.00">FunctionArchitecture: BaseType</text>
</g>
<!-- __main__.Rover&#45;&gt;fmdtools.define.architecture.function.FunctionArchitecture -->
<g id="edge40" class="edge">
<title>__main__.Rover-&gt;fmdtools.define.architecture.function.FunctionArchitecture</title>
<path fill="none" stroke="black" d="M493.25,-464.27C491.95,-445.86 490.44,-424.74 488.96,-403.81"/>
<polygon fill="none" stroke="black" points="492.38,-403.63 488.18,-393.9 485.4,-404.13 492.38,-403.63"/>
<text text-anchor="middle" x="530.12" y="-431.2" font-family="Times New Roman,serif" font-size="14.00">&lt;inheritance&gt;</text>
<text text-anchor="middle" x="530.12" y="-415.45" font-family="Times New Roman,serif" font-size="14.00">base</text>
</g>
<!-- rover.flows.ground&#45;&gt;__main__.Ground -->
<g id="edge19" class="edge">
<title>rover.flows.ground-&gt;__main__.Ground</title>
<path fill="none" stroke="black" d="M659.25,-503.58C659.25,-474.77 659.25,-414.64 659.25,-366.37"/>
<polygon fill="none" stroke="black" points="662.75,-366.64 659.25,-356.64 655.75,-366.64 662.75,-366.64"/>
<text text-anchor="middle" x="697.12" y="-431.2" font-family="Times New Roman,serif" font-size="14.00">&lt;inheritance&gt;</text>
<text text-anchor="middle" x="697.12" y="-415.45" font-family="Times New Roman,serif" font-size="14.00">base</text>
</g>
<!-- rover.flows.force&#45;&gt;__main__.Force -->
<g id="edge21" class="edge">
<title>rover.flows.force-&gt;__main__.Force</title>
<path fill="none" stroke="black" d="M803.5,-503.58C802.18,-473.82 799.37,-410.64 797.19,-361.63"/>
<polygon fill="none" stroke="black" points="800.65,-361.61 796.71,-351.78 793.66,-361.92 800.65,-361.61"/>
<text text-anchor="middle" x="839.12" y="-431.2" font-family="Times New Roman,serif" font-size="14.00">&lt;inheritance&gt;</text>
<text text-anchor="middle" x="839.12" y="-415.45" font-family="Times New Roman,serif" font-size="14.00">base</text>
</g>
<!-- rover.flows.ee&#45;&gt;__main__.EE -->
<g id="edge23" class="edge">
<title>rover.flows.ee-&gt;__main__.EE</title>
<path fill="none" stroke="black" d="M913.48,-503.58C913.89,-472.11 914.81,-403.26 915.48,-353.33"/>
<polygon fill="none" stroke="black" points="918.99,-353.39 915.62,-343.35 911.99,-353.3 918.99,-353.39"/>
<text text-anchor="middle" x="953.12" y="-431.2" font-family="Times New Roman,serif" font-size="14.00">&lt;inheritance&gt;</text>
<text text-anchor="middle" x="953.12" y="-415.45" font-family="Times New Roman,serif" font-size="14.00">base</text>
</g>
<!-- rover.flows.video&#45;&gt;__main__.Video -->
<g id="edge25" class="edge">
<title>rover.flows.video-&gt;__main__.Video</title>
<path fill="none" stroke="black" d="M1024.38,-503.58C1026.36,-473.82 1030.57,-410.64 1033.84,-361.63"/>
<polygon fill="none" stroke="black" points="1037.39,-361.99 1034.56,-351.78 1030.4,-361.52 1037.39,-361.99"/>
<text text-anchor="middle" x="1069.12" y="-431.2" font-family="Times New Roman,serif" font-size="14.00">&lt;inheritance&gt;</text>
<text text-anchor="middle" x="1069.12" y="-415.45" font-family="Times New Roman,serif" font-size="14.00">base</text>
</g>
<!-- rover.flows.control&#45;&gt;__main__.Control -->
<g id="edge27" class="edge">
<title>rover.flows.control-&gt;__main__.Control</title>
<path fill="none" stroke="black" d="M1161.83,-503.61C1155.81,-488.92 1147.79,-466.88 1144.5,-446.75 1140.2,-420.42 1143.61,-391.62 1149.39,-366.28"/>
<polygon fill="none" stroke="black" points="1153.01,-367.2 1151.99,-356.65 1146.21,-365.53 1153.01,-367.2"/>
<text text-anchor="middle" x="1183.12" y="-431.2" font-family="Times New Roman,serif" font-size="14.00">&lt;inheritance&gt;</text>
<text text-anchor="middle" x="1183.12" y="-415.45" font-family="Times New Roman,serif" font-size="14.00">base</text>
</g>
<!-- rover.flows.comms&#45;&gt;fmdtools.define.flow.base.Flow -->
<g id="edge29" class="edge">
<title>rover.flows.comms-&gt;fmdtools.define.flow.base.Flow</title>
<path fill="none" stroke="black" d="M1285.14,-411.16C1283.16,-405.39 1281.07,-398.83 1279.5,-392.75 1257.24,-306.67 1284,-275.03 1243.25,-196 1205.17,-122.15 1109.1,-89.38 1043.98,-75.28"/>
<polygon fill="none" stroke="black" points="1044.91,-71.7 1034.41,-73.1 1043.5,-78.55 1044.91,-71.7"/>
<text text-anchor="middle" x="1318.12" y="-296.82" font-family="Times New Roman,serif" font-size="14.00">&lt;inheritance&gt;</text>
<text text-anchor="middle" x="1318.12" y="-281.07" font-family="Times New Roman,serif" font-size="14.00">base</text>
</g>
<!-- rover.fxns.control_rover&#45;&gt;__main__.ControlRover -->
<g id="edge30" class="edge">
<title>rover.fxns.control_rover-&gt;__main__.ControlRover</title>
<path fill="none" stroke="black" d="M1387.88,-502.83C1394.62,-477.12 1407.59,-427.61 1419.18,-383.4"/>
<polygon fill="none" stroke="black" points="1422.79,-384.45 1421.94,-373.89 1416.01,-382.68 1422.79,-384.45"/>
<text text-anchor="middle" x="1449.12" y="-431.2" font-family="Times New Roman,serif" font-size="14.00">&lt;inheritance&gt;</text>
<text text-anchor="middle" x="1449.12" y="-415.45" font-family="Times New Roman,serif" font-size="14.00">base</text>
</g>
<!-- rover.fxns.store_energy&#45;&gt;__main__.StoreEnergy -->
<g id="edge32" class="edge">
<title>rover.fxns.store_energy-&gt;__main__.StoreEnergy</title>
<path fill="none" stroke="black" d="M1574.47,-502.83C1579.29,-476.35 1588.71,-424.63 1596.94,-379.46"/>
<polygon fill="none" stroke="black" points="1600.54,-380.2 1598.89,-369.74 1593.65,-378.95 1600.54,-380.2"/>
<text text-anchor="middle" x="1629.12" y="-431.2" font-family="Times New Roman,serif" font-size="14.00">&lt;inheritance&gt;</text>
<text text-anchor="middle" x="1629.12" y="-415.45" font-family="Times New Roman,serif" font-size="14.00">base</text>
</g>
<!-- rover.fxns.move_rover&#45;&gt;__main__.MoveRover -->
<g id="edge34" class="edge">
<title>rover.fxns.move_rover-&gt;__main__.MoveRover</title>
<path fill="none" stroke="black" d="M1751.45,-502.83C1754.77,-476.16 1761.27,-423.88 1766.91,-378.48"/>
<polygon fill="none" stroke="black" points="1770.49,-379.06 1768.25,-368.71 1763.55,-378.2 1770.49,-379.06"/>
<text text-anchor="middle" x="1801.12" y="-431.2" font-family="Times New Roman,serif" font-size="14.00">&lt;inheritance&gt;</text>
<text text-anchor="middle" x="1801.12" y="-415.45" font-family="Times New Roman,serif" font-size="14.00">base</text>
</g>
<!-- rover.fxns.view_ground&#45;&gt;__main__.ViewGround -->
<g id="edge36" class="edge">
<title>rover.fxns.view_ground-&gt;__main__.ViewGround</title>
<path fill="none" stroke="black" d="M1930.35,-502.83C1931.97,-476.69 1935.13,-425.97 1937.91,-381.22"/>
<polygon fill="none" stroke="black" points="1941.46,-381.49 1938.59,-371.29 1934.48,-381.05 1941.46,-381.49"/>
<text text-anchor="middle" x="1974.12" y="-431.2" font-family="Times New Roman,serif" font-size="14.00">&lt;inheritance&gt;</text>
<text text-anchor="middle" x="1974.12" y="-415.45" font-family="Times New Roman,serif" font-size="14.00">base</text>
</g>
<!-- rover.fxns.communicate&#45;&gt;__main__.Communicate -->
<g id="edge38" class="edge">
<title>rover.fxns.communicate-&gt;__main__.Communicate</title>
<path fill="none" stroke="black" d="M2118.09,-502.83C2117.87,-477.17 2117.43,-427.82 2117.03,-383.68"/>
<polygon fill="none" stroke="black" points="2120.53,-383.86 2116.94,-373.89 2113.53,-383.92 2120.53,-383.86"/>
<text text-anchor="middle" x="2155.12" y="-431.2" font-family="Times New Roman,serif" font-size="14.00">&lt;inheritance&gt;</text>
<text text-anchor="middle" x="2155.12" y="-415.45" font-family="Times New Roman,serif" font-size="14.00">base</text>
</g>
</g>
</svg>