<svg xmlns="http://www.w3.org/2000/svg" xmlns:xlink="http://www.w3.org/1999/xlink" width="2332pt" height="544pt" viewBox="0.00 0.00 2332.35 543.50">
<g id="graph0" class="graph" transform="scale(1 1) rotate(0) translate(4 539.5)">
<polygon fill="white" stroke="none" points="-4,4 -4,-539.5 2328.35,-539.5 2328.35,4 -4,4"/>
<!-- rover -->
<g id="node1" class="node">
<title>rover</title>
<polygon fill="lightgrey" stroke="grey" stroke-width="0" points="115.1,-535.5 0,-499.88 230.2,-499.88 115.1,-535.5"/>
<text text-anchor="middle" x="115.1" y="-506.32" font-family="Times New Roman,serif" font-size="14.00">rover: Rover</text>
</g>
<!-- __main__.Rover -->
<g id="node20" class="node">
<title>__main__.Rover</title>
<polygon fill="lightgrey" stroke="grey" points="171.85,-399.12 58.35,-399.12 58.35,-285.62 171.85,-285.62 171.85,-399.12"/>
<polyline fill="none" stroke="grey" points="70.35,-399.12 58.35,-387.12"/>
<polyline fill="none" stroke="grey" points="58.35,-297.62 70.35,-285.62"/>
<polyline fill="none" stroke="grey" points="159.85,-285.62 171.85,-297.62"/>
<polyline fill="none" stroke="grey" points="171.85,-387.12 159.85,-399.12"/>
<text text-anchor="middle" x="115.1" y="-336.95" font-family="Times New Roman,serif" font-size="14.00">Rover: BaseType</text>
</g>
<!-- rover&#45;&gt;__main__.Rover -->
<g id="edge1" class="edge">
<title>rover-&gt;__main__.Rover</title>
<path fill="none" stroke="black" d="M115.1,-500.03C115.1,-481.99 115.1,-444.23 115.1,-410.3"/>
<polygon fill="none" stroke="black" points="118.6,-410.45 115.1,-400.45 111.6,-410.45 118.6,-410.45"/>
<text text-anchor="middle" x="152.98" y="-456.7" font-family="Times New Roman,serif" font-size="14.00">&lt;inheritance&gt;</text>
<text text-anchor="middle" x="152.98" y="-440.95" font-family="Times New Roman,serif" font-size="14.00">base</text>
</g>
<!-- rover.t -->
<g id="node2" class="node">
<title>rover.t</title>
<polygon fill="lightgrey" stroke="grey" points="303.6,-529.75 260.6,-529.75 260.6,-533.75 248.6,-533.75 248.6,-493.75 303.6,-493.75 303.6,-529.75"/>
<polyline fill="none" stroke="grey" points="248.6,-529.75 260.6,-529.75"/>
<text text-anchor="middle" x="276.1" y="-506.32" font-family="Times New Roman,serif" font-size="14.00">t: Time</text>
</g>
<!-- fmdtools.define.container.time.Time -->
<g id="node5" class="node">
<title>fmdtools.define.container.time.Time</title>
<polygon fill="lightgrey" stroke="grey" points="325.35,-391.62 226.85,-391.62 226.85,-293.12 325.35,-293.12 325.35,-391.62"/>
<polyline fill="none" stroke="grey" points="238.85,-391.62 226.85,-379.62"/>
<polyline fill="none" stroke="grey" points="226.85,-305.12 238.85,-293.12"/>
<polyline fill="none" stroke="grey" points="313.35,-293.12 325.35,-305.12"/>
<polyline fill="none" stroke="grey" points="325.35,-379.62 313.35,-391.62"/>
<text text-anchor="middle" x="276.1" y="-336.95" font-family="Times New Roman,serif" font-size="14.00">Time: datatype</text>
</g>
<!-- rover.t&#45;&gt;fmdtools.define.container.time.Time -->
<g id="edge2" class="edge">
<title>rover.t-&gt;fmdtools.define.container.time.Time</title>
<path fill="none" stroke="black" d="M276.1,-493.47C276.1,-472.16 276.1,-434.81 276.1,-402.7"/>
<polygon fill="none" stroke="black" points="279.6,-403.05 276.1,-393.05 272.6,-403.05 279.6,-403.05"/>
<text text-anchor="middle" x="313.98" y="-456.7" font-family="Times New Roman,serif" font-size="14.00">&lt;inheritance&gt;</text>
<text text-anchor="middle" x="313.98" y="-440.95" font-family="Times New Roman,serif" font-size="14.00">base</text>
</g>
<!-- rover.sp -->
<g id="node3" class="node">
<title>rover.sp</title>
<polygon fill="lightgrey" stroke="grey" points="453.73,-529.75 372.48,-529.75 372.48,-533.75 360.48,-533.75 360.48,-493.75 453.73,-493.75 453.73,-529.75"/>
<polyline fill="none" stroke="grey" points="360.48,-529.75 372.48,-529.75"/>
<text text-anchor="middle" x="407.1" y="-506.32" font-family="Times New Roman,serif" font-size="14.00">sp: SimParam</text>
</g>
<!-- fmdtools.define.block.base.SimParam -->
<g id="node6" class="node">
<title>fmdtools.define.block.base.SimParam</title>
<polygon fill="lightgrey" stroke="grey" points="470.6,-405.88 343.6,-405.88 343.6,-278.88 470.6,-278.88 470.6,-405.88"/>
<polyline fill="none" stroke="grey" points="355.6,-405.88 343.6,-393.88"/>
<polyline fill="none" stroke="grey" points="343.6,-290.88 355.6,-278.88"/>
<polyline fill="none" stroke="grey" points="458.6,-278.88 470.6,-290.88"/>
<polyline fill="none" stroke="grey" points="470.6,-393.88 458.6,-405.88"/>
<text text-anchor="middle" x="407.1" y="-336.95" font-family="Times New Roman,serif" font-size="14.00">SimParam: datatype</text>
</g>
<!-- rover.sp&#45;&gt;fmdtools.define.block.base.SimParam -->
<g id="edge3" class="edge">
<title>rover.sp-&gt;fmdtools.define.block.base.SimParam</title>
<path fill="none" stroke="black" d="M407.1,-493.47C407.1,-475.25 407.1,-445.31 407.1,-416.95"/>
<polygon fill="none" stroke="black" points="410.6,-417.18 407.1,-407.18 403.6,-417.18 410.6,-417.18"/>
<text text-anchor="middle" x="444.98" y="-456.7" font-family="Times New Roman,serif" font-size="14.00">&lt;inheritance&gt;</text>
<text text-anchor="middle" x="444.98" y="-440.95" font-family="Times New Roman,serif" font-size="14.00">base</text>
</g>
<!-- rover.m -->
<g id="node4" class="node">
<title>rover.m</title>
<polygon fill="lightgrey" stroke="grey" points="573.23,-529.75 518.98,-529.75 518.98,-533.75 506.98,-533.75 506.98,-493.75 573.23,-493.75 573.23,-529.75"/>
<polyline fill="none" stroke="grey" points="506.98,-529.75 518.98,-529.75"/>
<text text-anchor="middle" x="540.1" y="-506.32" font-family="Times New Roman,serif" font-size="14.00">m: Mode</text>
</g>
<!-- fmdtools.define.container.mode.Mode -->
<g id="node7" class="node">
<title>fmdtools.define.container.mode.Mode</title>
<polygon fill="lightgrey" stroke="grey" points="591.6,-393.88 488.6,-393.88 488.6,-290.88 591.6,-290.88 591.6,-393.88"/>
<polyline fill="none" stroke="grey" points="500.6,-393.88 488.6,-381.88"/>
<polyline fill="none" stroke="grey" points="488.6,-302.88 500.6,-290.88"/>
<polyline fill="none" stroke="grey" points="579.6,-290.88 591.6,-302.88"/>
<polyline fill="none" stroke="grey" points="591.6,-381.88 579.6,-393.88"/>
<text text-anchor="middle" x="540.1" y="-336.95" font-family="Times New Roman,serif" font-size="14.00">Mode: datatype</text>
</g>
<!-- rover.m&#45;&gt;fmdtools.define.container.mode.Mode -->
<g id="edge4" class="edge">
<title>rover.m-&gt;fmdtools.define.container.mode.Mode</title>
<path fill="none" stroke="black" d="M540.1,-493.47C540.1,-472.7 540.1,-436.7 540.1,-405.16"/>
<polygon fill="none" stroke="black" points="543.6,-405.22 540.1,-395.22 536.6,-405.22 543.6,-405.22"/>
<text text-anchor="middle" x="577.98" y="-456.7" font-family="Times New Roman,serif" font-size="14.00">&lt;inheritance&gt;</text>
<text text-anchor="middle" x="577.98" y="-440.95" font-family="Times New Roman,serif" font-size="14.00">base</text>
</g>
<!-- __main__.Ground -->
<g id="node8" class="node">
<title>__main__.Ground</title>
<polygon fill="lightgrey" stroke="grey" points="1387.35,-403.62 1264.85,-403.62 1264.85,-281.12 1387.35,-281.12 1387.35,-403.62"/>
<polyline fill="none" stroke="grey" points="1276.85,-403.62 1264.85,-391.62"/>
<polyline fill="none" stroke="grey" points="1264.85,-293.12 1276.85,-281.12"/>
<polyline fill="none" stroke="grey" points="1375.35,-281.12 1387.35,-293.12"/>
<polyline fill="none" stroke="grey" points="1387.35,-391.62 1375.35,-403.62"/>
<text text-anchor="middle" x="1326.1" y="-336.95" font-family="Times New Roman,serif" font-size="14.00">Ground: BaseType</text>
</g>
<!-- fmdtools.define.flow.base.Flow -->
<g id="node9" class="node">
<title>fmdtools.define.flow.base.Flow</title>
<polygon fill="lightgrey" stroke="grey" points="1034.85,-152.12 927.35,-152.12 927.35,-44.62 1034.85,-44.62 1034.85,-152.12"/>
<polyline fill="none" stroke="grey" points="939.35,-152.12 927.35,-140.12"/>
<polyline fill="none" stroke="grey" points="927.35,-56.62 939.35,-44.62"/>
<polyline fill="none" stroke="grey" points="1022.85,-44.62 1034.85,-56.62"/>
<polyline fill="none" stroke="grey" points="1034.85,-140.12 1022.85,-152.12"/>
<text text-anchor="middle" x="981.1" y="-92.95" font-family="Times New Roman,serif" font-size="14.00">Flow: BaseType</text>
</g>
<!-- __main__.Ground&#45;&gt;fmdtools.define.flow.base.Flow -->
<g id="edge6" class="edge">
<title>__main__.Ground-&gt;fmdtools.define.flow.base.Flow</title>
<path fill="none" stroke="black" d="M1271.93,-280.72C1266.64,-275.1 1261.31,-269.53 1256.1,-264.25 1233.47,-241.3 1229.42,-233.35 1203.1,-214.75 1153.04,-179.36 1090.7,-147.93 1044.83,-126.84"/>
<polygon fill="none" stroke="black" points="1046.57,-123.33 1036.01,-122.37 1043.66,-129.7 1046.57,-123.33"/>
<text text-anchor="middle" x="1276.98" y="-232.95" font-family="Times New Roman,serif" font-size="14.00">&lt;inheritance&gt;</text>
<text text-anchor="middle" x="1276.98" y="-217.2" font-family="Times New Roman,serif" font-size="14.00">base</text>
</g>
<!-- __main__.Force -->
<g id="node10" class="node">
<title>__main__.Force</title>
<polygon fill="lightgrey" stroke="grey" points="722.1,-398.38 610.1,-398.38 610.1,-286.38 722.1,-286.38 722.1,-398.38"/>
<polyline fill="none" stroke="grey" points="622.1,-398.38 610.1,-386.38"/>
<polyline fill="none" stroke="grey" points="610.1,-298.38 622.1,-286.38"/>
<polyline fill="none" stroke="grey" points="710.1,-286.38 722.1,-298.38"/>
<polyline fill="none" stroke="grey" points="722.1,-386.38 710.1,-398.38"/>
<text text-anchor="middle" x="666.1" y="-336.95" font-family="Times New Roman,serif" font-size="14.00">Force: BaseType</text>
</g>
<!-- __main__.Force&#45;&gt;fmdtools.define.flow.base.Flow -->
<g id="edge8" class="edge">
<title>__main__.Force-&gt;fmdtools.define.flow.base.Flow</title>
<path fill="none" stroke="black" d="M693.35,-286.06C707.28,-261.91 726.03,-234.62 748.35,-214.75 797.83,-170.7 867.15,-139.22 917.26,-120.38"/>
<polygon fill="none" stroke="black" points="918.15,-123.41 926.33,-116.67 915.73,-116.84 918.15,-123.41"/>
<text text-anchor="middle" x="786.98" y="-232.95" font-family="Times New Roman,serif" font-size="14.00">&lt;inheritance&gt;</text>
<text text-anchor="middle" x="786.98" y="-217.2" font-family="Times New Roman,serif" font-size="14.00">base</text>
</g>
<!-- __main__.EE -->
<g id="node11" class="node">
<title>__main__.EE</title>
<polygon fill="lightgrey" stroke="grey" points="835.85,-390.12 740.35,-390.12 740.35,-294.62 835.85,-294.62 835.85,-390.12"/>
<polyline fill="none" stroke="grey" points="752.35,-390.12 740.35,-378.12"/>
<polyline fill="none" stroke="grey" points="740.35,-306.62 752.35,-294.62"/>
<polyline fill="none" stroke="grey" points="823.85,-294.62 835.85,-306.62"/>
<polyline fill="none" stroke="grey" points="835.85,-378.12 823.85,-390.12"/>
<text text-anchor="middle" x="788.1" y="-336.95" font-family="Times New Roman,serif" font-size="14.00">EE: BaseType</text>
</g>
<!-- __main__.EE&#45;&gt;fmdtools.define.flow.base.Flow -->
<g id="edge10" class="edge">
<title>__main__.EE-&gt;fmdtools.define.flow.base.Flow</title>
<path fill="none" stroke="black" d="M804.17,-294.19C814.03,-269.15 828.27,-238.69 846.35,-214.75 866.44,-188.15 893.63,-163.42 918.33,-143.73"/>
<polygon fill="none" stroke="black" points="920.23,-145.9 925.94,-136.98 915.91,-140.39 920.23,-145.9"/>
<text text-anchor="middle" x="884.98" y="-232.95" font-family="Times New Roman,serif" font-size="14.00">&lt;inheritance&gt;</text>
<text text-anchor="middle" x="884.98" y="-217.2" font-family="Times New Roman,serif" font-size="14.00">base</text>
</g>
<!-- __main__.Video -->
<g id="node12" class="node">
<title>__main__.Video</title>
<polygon fill="lightgrey" stroke="grey" points="966.48,-398.75 853.73,-398.75 853.73,-286 966.48,-286 966.48,-398.75"/>
<polyline fill="none" stroke="grey" points="865.73,-398.75 853.73,-386.75"/>
<polyline fill="none" stroke="grey" points="853.73,-298 865.73,-286"/>
<polyline fill="none" stroke="grey" points="954.48,-286 966.48,-298"/>
<polyline fill="none" stroke="grey" points="966.48,-386.75 954.48,-398.75"/>
<text text-anchor="middle" x="910.1" y="-336.95" font-family="Times New Roman,serif" font-size="14.00">Video: BaseType</text>
</g>
<!-- __main__.Video&#45;&gt;fmdtools.define.flow.base.Flow -->
<g id="edge12" class="edge">
<title>__main__.Video-&gt;fmdtools.define.flow.base.Flow</title>
<path fill="none" stroke="black" d="M917.73,-285.62C921.46,-263.33 926.61,-237.58 933.35,-214.75 938.48,-197.37 945.35,-179.04 952.28,-162.23"/>
<polygon fill="none" stroke="black" points="955.71,-164.1 956.35,-153.53 949.26,-161.39 955.71,-164.1"/>
<text text-anchor="middle" x="971.98" y="-232.95" font-family="Times New Roman,serif" font-size="14.00">&lt;inheritance&gt;</text>
<text text-anchor="middle" x="971.98" y="-217.2" font-family="Times New Roman,serif" font-size="14.00">base</text>
</g>
<!-- __main__.Control -->
<g id="node13" class="node">
<title>__main__.Control</title>
<polygon fill="lightgrey" stroke="grey" points="1105.98,-403.25 984.23,-403.25 984.23,-281.5 1105.98,-281.5 1105.98,-403.25"/>
<polyline fill="none" stroke="grey" points="996.23,-403.25 984.23,-391.25"/>
<polyline fill="none" stroke="grey" points="984.23,-293.5 996.23,-281.5"/>
<polyline fill="none" stroke="grey" points="1093.98,-281.5 1105.98,-293.5"/>
<polyline fill="none" stroke="grey" points="1105.98,-391.25 1093.98,-403.25"/>
<text text-anchor="middle" x="1045.1" y="-336.95" font-family="Times New Roman,serif" font-size="14.00">Control: BaseType</text>
</g>
<!-- __main__.Control&#45;&gt;fmdtools.define.flow.base.Flow -->
<g id="edge14" class="edge">
<title>__main__.Control-&gt;fmdtools.define.flow.base.Flow</title>
<path fill="none" stroke="black" d="M1029.2,-281.24C1019.7,-245.32 1007.64,-199.7 997.97,-163.15"/>
<polygon fill="none" stroke="black" points="1001.12,-162.38 995.18,-153.61 994.35,-164.17 1001.12,-162.38"/>
<text text-anchor="middle" x="1056.98" y="-232.95" font-family="Times New Roman,serif" font-size="14.00">&lt;inheritance&gt;</text>
<text text-anchor="middle" x="1056.98" y="-217.2" font-family="Times New Roman,serif" font-size="14.00">base</text>
</g>
<!-- __main__.ControlRover -->
<g id="node14" class="node">
<title>__main__.ControlRover</title>
<polygon fill="lightgrey" stroke="grey" points="2301.23,-420.5 2144.98,-420.5 2144.98,-264.25 2301.23,-264.25 2301.23,-420.5"/>
<polyline fill="none" stroke="grey" points="2156.98,-420.5 2144.98,-408.5"/>
<polyline fill="none" stroke="grey" points="2144.98,-276.25 2156.98,-264.25"/>
<polyline fill="none" stroke="grey" points="2289.23,-264.25 2301.23,-276.25"/>
<polyline fill="none" stroke="grey" points="2301.23,-408.5 2289.23,-420.5"/>
<text text-anchor="middle" x="2223.1" y="-336.95" font-family="Times New Roman,serif" font-size="14.00">ControlRover: BaseType</text>
</g>
<!-- fmdtools.define.block.function.Function -->
<g id="node15" class="node">
<title>fmdtools.define.block.function.Function</title>
<polygon fill="lightgrey" stroke="grey" points="1918.35,-162.62 1789.85,-162.62 1789.85,-34.12 1918.35,-34.12 1918.35,-162.62"/>
<polyline fill="none" stroke="grey" points="1801.85,-162.62 1789.85,-150.62"/>
<polyline fill="none" stroke="grey" points="1789.85,-46.12 1801.85,-34.12"/>
<polyline fill="none" stroke="grey" points="1906.35,-34.12 1918.35,-46.12"/>
<polyline fill="none" stroke="grey" points="1918.35,-150.62 1906.35,-162.62"/>
<text text-anchor="middle" x="1854.1" y="-92.95" font-family="Times New Roman,serif" font-size="14.00">Function: BaseType</text>
</g>
<!-- __main__.ControlRover&#45;&gt;fmdtools.define.block.function.Function -->
<g id="edge17" class="edge">
<title>__main__.ControlRover-&gt;fmdtools.define.block.function.Function</title>
<path fill="none" stroke="black" d="M2144.54,-280.18C2137.03,-274.7 2129.47,-269.31 2122.1,-264.25 2058.04,-220.25 1982.41,-174.23 1927.86,-142.03"/>
<polygon fill="none" stroke="black" points="1930,-138.64 1919.61,-136.58 1926.45,-144.67 1930,-138.64"/>
<text text-anchor="middle" x="2131.98" y="-232.95" font-family="Times New Roman,serif" font-size="14.00">&lt;inheritance&gt;</text>
<text text-anchor="middle" x="2131.98" y="-217.2" font-family="Times New Roman,serif" font-size="14.00">base</text>
</g>
<!-- __main__.StoreEnergy -->
<g id="node16" class="node">
<title>__main__.StoreEnergy</title>
<polygon fill="lightgrey" stroke="grey" points="1577.1,-416.38 1429.1,-416.38 1429.1,-268.38 1577.1,-268.38 1577.1,-416.38"/>
<polyline fill="none" stroke="grey" points="1441.1,-416.38 1429.1,-404.38"/>
<polyline fill="none" stroke="grey" points="1429.1,-280.38 1441.1,-268.38"/>
<polyline fill="none" stroke="grey" points="1565.1,-268.38 1577.1,-280.38"/>
<polyline fill="none" stroke="grey" points="1577.1,-404.38 1565.1,-416.38"/>
<text text-anchor="middle" x="1503.1" y="-336.95" font-family="Times New Roman,serif" font-size="14.00">StoreEnergy: BaseType</text>
</g>
<!-- __main__.StoreEnergy&#45;&gt;fmdtools.define.block.function.Function -->
<g id="edge19" class="edge">
<title>__main__.StoreEnergy-&gt;fmdtools.define.block.function.Function</title>
<path fill="none" stroke="black" d="M1577.54,-280.51C1584.76,-274.93 1592.03,-269.43 1599.1,-264.25 1658.37,-220.82 1728.69,-175.8 1780.46,-143.81"/>
<polygon fill="none" stroke="black" points="1781.9,-146.41 1788.58,-138.19 1778.23,-140.45 1781.9,-146.41"/>
<text text-anchor="middle" x="1705.98" y="-232.95" font-family="Times New Roman,serif" font-size="14.00">&lt;inheritance&gt;</text>
<text text-anchor="middle" x="1705.98" y="-217.2" font-family="Times New Roman,serif" font-size="14.00">base</text>
</g>
<!-- __main__.MoveRover -->
<g id="node17" class="node">
<title>__main__.MoveRover</title>
<polygon fill="lightgrey" stroke="grey" points="1753.98,-415.25 1608.23,-415.25 1608.23,-269.5 1753.98,-269.5 1753.98,-415.25"/>
<polyline fill="none" stroke="grey" points="1620.23,-415.25 1608.23,-403.25"/>
<polyline fill="none" stroke="grey" points="1608.23,-281.5 1620.23,-269.5"/>
<polyline fill="none" stroke="grey" points="1741.98,-269.5 1753.98,-281.5"/>
<polyline fill="none" stroke="grey" points="1753.98,-403.25 1741.98,-415.25"/>
<text text-anchor="middle" x="1681.1" y="-336.95" font-family="Times New Roman,serif" font-size="14.00">MoveRover: BaseType</text>
</g>
<!-- __main__.MoveRover&#45;&gt;fmdtools.define.block.function.Function -->
<g id="edge21" class="edge">
<title>__main__.MoveRover-&gt;fmdtools.define.block.function.Function</title>
<path fill="none" stroke="black" d="M1732.77,-269.09C1754.7,-238.42 1780.22,-202.73 1802.18,-172.01"/>
<polygon fill="none" stroke="black" points="1805.6,-174.24 1808.57,-164.07 1799.9,-170.17 1805.6,-174.24"/>
<text text-anchor="middle" x="1805.98" y="-232.95" font-family="Times New Roman,serif" font-size="14.00">&lt;inheritance&gt;</text>
<text text-anchor="middle" x="1805.98" y="-217.2" font-family="Times New Roman,serif" font-size="14.00">base</text>
</g>
<!-- __main__.ViewGround -->
<g id="node18" class="node">
<title>__main__.ViewGround</title>
<polygon fill="lightgrey" stroke="grey" points="1929.6,-417.88 1778.6,-417.88 1778.6,-266.88 1929.6,-266.88 1929.6,-417.88"/>
<polyline fill="none" stroke="grey" points="1790.6,-417.88 1778.6,-405.88"/>
<polyline fill="none" stroke="grey" points="1778.6,-278.88 1790.6,-266.88"/>
<polyline fill="none" stroke="grey" points="1917.6,-266.88 1929.6,-278.88"/>
<polyline fill="none" stroke="grey" points="1929.6,-405.88 1917.6,-417.88"/>
<text text-anchor="middle" x="1854.1" y="-336.95" font-family="Times New Roman,serif" font-size="14.00">ViewGround: BaseType</text>
</g>
<!-- __main__.ViewGround&#45;&gt;fmdtools.define.block.function.Function -->
<g id="edge23" class="edge">
<title>__main__.ViewGround-&gt;fmdtools.define.block.function.Function</title>
<path fill="none" stroke="black" d="M1854.1,-266.46C1854.1,-236.91 1854.1,-203.06 1854.1,-173.58"/>
<polygon fill="none" stroke="black" points="1857.6,-173.93 1854.1,-163.93 1850.6,-173.93 1857.6,-173.93"/>
<text text-anchor="middle" x="1891.98" y="-232.95" font-family="Times New Roman,serif" font-size="14.00">&lt;inheritance&gt;</text>
<text text-anchor="middle" x="1891.98" y="-217.2" font-family="Times New Roman,serif" font-size="14.00">base</text>
</g>
<!-- __main__.Communicate -->
<g id="node19" class="node">
<title>__main__.Communicate</title>
<polygon fill="lightgrey" stroke="grey" points="2113.23,-420.5 1956.98,-420.5 1956.98,-264.25 2113.23,-264.25 2113.23,-420.5"/>
<polyline fill="none" stroke="grey" points="1968.98,-420.5 1956.98,-408.5"/>
<polyline fill="none" stroke="grey" points="1956.98,-276.25 1968.98,-264.25"/>
<polyline fill="none" stroke="grey" points="2101.23,-264.25 2113.23,-276.25"/>
<polyline fill="none" stroke="grey" points="2113.23,-408.5 2101.23,-420.5"/>
<text text-anchor="middle" x="2035.1" y="-336.95" font-family="Times New Roman,serif" font-size="14.00">Communicate: BaseType</text>
</g>
<!-- __main__.Communicate&#45;&gt;fmdtools.define.block.function.Function -->
<g id="edge25" class="edge">
<title>__main__.Communicate-&gt;fmdtools.define.block.function.Function</title>
<path fill="none" stroke="black" d="M1977.09,-263.81C1954.87,-234.11 1929.65,-200.39 1907.86,-171.25"/>
<polygon fill="none" stroke="black" points="1910.3,-169.67 1901.51,-163.76 1904.7,-173.87 1910.3,-169.67"/>
<text text-anchor="middle" x="1998.98" y="-232.95" font-family="Times New Roman,serif" font-size="14.00">&lt;inheritance&gt;</text>
<text text-anchor="middle" x="1998.98" y="-217.2" font-family="Times New Roman,serif" font-size="14.00">base</text>
</g>
<!-- fmdtools.define.architecture.function.FunctionArchitecture -->
<g id="node21" class="node">
<title>fmdtools.define.architecture.function.FunctionArchitecture</title>
<polygon fill="lightgrey" stroke="grey" points="213.48,-196.75 16.73,-196.75 16.73,0 213.48,0 213.48,-196.75"/>
<polyline fill="none" stroke="grey" points="28.73,-196.75 16.73,-184.75"/>
<polyline fill="none" stroke="grey" points="16.73,-12 28.73,0"/>
<polyline fill="none" stroke="grey" points="201.48,0 213.48,-12"/>
<polyline fill="none" stroke="grey" points="213.48,-184.75 201.48,-196.75"/>
<text text-anchor="middle" x="115.1" y="-92.95" font-family="Times New Roman,serif" font-size="14.00">FunctionArchitecture: BaseType</text>
</g>
<!-- __main__.Rover&#45;&gt;fmdtools.define.architecture.function.FunctionArchitecture -->
<g id="edge26" class="edge">
<title>__main__.Rover-&gt;fmdtools.define.architecture.function.FunctionArchitecture</title>
<path fill="none" stroke="black" d="M115.1,-285.25C115.1,-262.18 115.1,-234.64 115.1,-207.92"/>
<polygon fill="none" stroke="black" points="118.6,-207.93 115.1,-197.93 111.6,-207.93 118.6,-207.93"/>
<text text-anchor="middle" x="152.98" y="-232.95" font-family="Times New Roman,serif" font-size="14.00">&lt;inheritance&gt;</text>
<text text-anchor="middle" x="152.98" y="-217.2" font-family="Times New Roman,serif" font-size="14.00">base</text>
</g>
<!-- rover.flows.ground -->
<g id="node22" class="node">
<title>rover.flows.ground</title>
<ellipse fill="lightgrey" stroke="grey" stroke-width="0" cx="1326.1" cy="-511.75" rx="70.52" ry="18"/>
<text text-anchor="middle" x="1326.1" y="-506.32" font-family="Times New Roman,serif" font-size="14.00">ground: Ground</text>
</g>
<!-- rover.flows.ground&#45;&gt;__main__.Ground -->
<g id="edge5" class="edge">
<title>rover.flows.ground-&gt;__main__.Ground</title>
<path fill="none" stroke="black" d="M1326.1,-493.78C1326.1,-475.05 1326.1,-443.68 1326.1,-414.42"/>
<polygon fill="none" stroke="black" points="1329.6,-414.76 1326.1,-404.76 1322.6,-414.76 1329.6,-414.76"/>
<text text-anchor="middle" x="1363.98" y="-456.7" font-family="Times New Roman,serif" font-size="14.00">&lt;inheritance&gt;</text>
<text text-anchor="middle" x="1363.98" y="-440.95" font-family="Times New Roman,serif" font-size="14.00">base</text>
</g>
<!-- rover.flows.force -->
<g id="node23" class="node">
<title>rover.flows.force</title>
<ellipse fill="lightgrey" stroke="grey" stroke-width="0" cx="666.1" cy="-511.75" rx="56.55" ry="18"/>
<text text-anchor="middle" x="666.1" y="-506.32" font-family="Times New Roman,serif" font-size="14.00">force: Force</text>
</g>
<!-- rover.flows.force&#45;&gt;__main__.Force -->
<g id="edge7" class="edge">
<title>rover.flows.force-&gt;__main__.Force</title>
<path fill="none" stroke="black" d="M666.1,-493.78C666.1,-474 666.1,-440.13 666.1,-409.52"/>
<polygon fill="none" stroke="black" points="669.6,-409.86 666.1,-399.86 662.6,-409.86 669.6,-409.86"/>
<text text-anchor="middle" x="703.98" y="-456.7" font-family="Times New Roman,serif" font-size="14.00">&lt;inheritance&gt;</text>
<text text-anchor="middle" x="703.98" y="-440.95" font-family="Times New Roman,serif" font-size="14.00">base</text>
</g>
<!-- rover.flows.ee -->
<g id="node24" class="node">
<title>rover.flows.ee</title>
<ellipse fill="lightgrey" stroke="grey" stroke-width="0" cx="788.1" cy="-511.75" rx="34.1" ry="18"/>
<text text-anchor="middle" x="788.1" y="-506.32" font-family="Times New Roman,serif" font-size="14.00">ee: EE</text>
</g>
<!-- rover.flows.ee&#45;&gt;__main__.EE -->
<g id="edge9" class="edge">
<title>rover.flows.ee-&gt;__main__.EE</title>
<path fill="none" stroke="black" d="M788.1,-493.78C788.1,-472.2 788.1,-433.83 788.1,-401.24"/>
<polygon fill="none" stroke="black" points="791.6,-401.45 788.1,-391.45 784.6,-401.45 791.6,-401.45"/>
<text text-anchor="middle" x="825.98" y="-456.7" font-family="Times New Roman,serif" font-size="14.00">&lt;inheritance&gt;</text>
<text text-anchor="middle" x="825.98" y="-440.95" font-family="Times New Roman,serif" font-size="14.00">base</text>
</g>
<!-- rover.flows.video -->
<g id="node25" class="node">
<title>rover.flows.video</title>
<ellipse fill="lightgrey" stroke="grey" stroke-width="0" cx="904.1" cy="-511.75" rx="58.05" ry="18"/>
<text text-anchor="middle" x="904.1" y="-506.32" font-family="Times New Roman,serif" font-size="14.00">video: Video</text>
</g>
<!-- rover.flows.video&#45;&gt;__main__.Video -->
<g id="edge11" class="edge">
<title>rover.flows.video-&gt;__main__.Video</title>
<path fill="none" stroke="black" d="M904.71,-493.78C905.42,-474.08 906.62,-440.38 907.72,-409.87"/>
<polygon fill="none" stroke="black" points="911.24,-410.36 908.1,-400.24 904.24,-410.1 911.24,-410.36"/>
<text text-anchor="middle" x="944.98" y="-456.7" font-family="Times New Roman,serif" font-size="14.00">&lt;inheritance&gt;</text>
<text text-anchor="middle" x="944.98" y="-440.95" font-family="Times New Roman,serif" font-size="14.00">base</text>
</g>
<!-- rover.flows.control -->
<g id="node26" class="node">
<title>rover.flows.control</title>
<ellipse fill="lightgrey" stroke="grey" stroke-width="0" cx="1050.1" cy="-511.75" rx="70.03" ry="18"/>
<text text-anchor="middle" x="1050.1" y="-506.32" font-family="Times New Roman,serif" font-size="14.00">control: Control</text>
</g>
<!-- rover.flows.control&#45;&gt;__main__.Control -->
<g id="edge13" class="edge">
<title>rover.flows.control-&gt;__main__.Control</title>
<path fill="none" stroke="black" d="M1049.59,-493.78C1049.03,-474.98 1048.09,-443.43 1047.21,-414.07"/>
<polygon fill="none" stroke="black" points="1050.69,-414.27 1046.89,-404.38 1043.69,-414.48 1050.69,-414.27"/>
<text text-anchor="middle" x="1086.98" y="-456.7" font-family="Times New Roman,serif" font-size="14.00">&lt;inheritance&gt;</text>
<text text-anchor="middle" x="1086.98" y="-440.95" font-family="Times New Roman,serif" font-size="14.00">base</text>
</g>
<!-- rover.flows.comms -->
<g id="node27" class="node">
<title>rover.flows.comms</title>
<ellipse fill="lightgrey" stroke="grey" stroke-width="0" cx="1185.1" cy="-342.38" rx="61.54" ry="18"/>
<text text-anchor="middle" x="1185.1" y="-336.95" font-family="Times New Roman,serif" font-size="14.00">comms: Flow</text>
</g>
<!-- rover.flows.comms&#45;&gt;fmdtools.define.flow.base.Flow -->
<g id="edge15" class="edge">
<title>rover.flows.comms-&gt;fmdtools.define.flow.base.Flow</title>
<path fill="none" stroke="black" d="M1175.23,-324.64C1160.18,-299.67 1129.96,-251.64 1099.1,-214.75 1081.97,-194.28 1061.69,-173.42 1042.8,-155.18"/>
<polygon fill="none" stroke="black" points="1045.74,-153.18 1036.09,-148.8 1040.89,-158.24 1045.74,-153.18"/>
<text text-anchor="middle" x="1160.98" y="-232.95" font-family="Times New Roman,serif" font-size="14.00">&lt;inheritance&gt;</text>
<text text-anchor="middle" x="1160.98" y="-217.2" font-family="Times New Roman,serif" font-size="14.00">base</text>
</g>
<!-- rover.fxns.control_rover -->
<g id="node28" class="node">
<title>rover.fxns.control_rover</title>
<polygon fill="lightgrey" stroke="grey" stroke-width="2" points="2324.35,-529.75 2147.85,-529.75 2147.85,-493.75 2324.35,-493.75 2324.35,-529.75"/>
<text text-anchor="middle" x="2236.1" y="-506.32" font-family="Times New Roman,serif" font-size="14.00">control_rover: ControlRover</text>
</g>
<!-- rover.fxns.control_rover&#45;&gt;__main__.ControlRover -->
<g id="edge16" class="edge">
<title>rover.fxns.control_rover-&gt;__main__.ControlRover</title>
<path fill="none" stroke="black" d="M2234.71,-492.84C2233.53,-477.7 2231.76,-454.8 2229.94,-431.45"/>
<polygon fill="none" stroke="black" points="2233.37,-431.42 2229.11,-421.72 2226.39,-431.96 2233.37,-431.42"/>
<text text-anchor="middle" x="2270.98" y="-456.7" font-family="Times New Roman,serif" font-size="14.00">&lt;inheritance&gt;</text>
<text text-anchor="middle" x="2270.98" y="-440.95" font-family="Times New Roman,serif" font-size="14.00">base</text>
</g>
<!-- rover.fxns.store_energy -->
<g id="node29" class="node">
<title>rover.fxns.store_energy</title>
<polygon fill="lightgrey" stroke="grey" stroke-width="2" points="1577.98,-529.75 1414.23,-529.75 1414.23,-493.75 1577.98,-493.75 1577.98,-529.75"/>
<text text-anchor="middle" x="1496.1" y="-506.32" font-family="Times New Roman,serif" font-size="14.00">store_energy: StoreEnergy</text>
</g>
<!-- rover.fxns.store_energy&#45;&gt;__main__.StoreEnergy -->
<g id="edge18" class="edge">
<title>rover.fxns.store_energy-&gt;__main__.StoreEnergy</title>
<path fill="none" stroke="black" d="M1496.85,-492.84C1497.52,-476.9 1498.54,-452.35 1499.57,-427.73"/>
<polygon fill="none" stroke="black" points="1503.11,-427.96 1500.03,-417.83 1496.11,-427.67 1503.11,-427.96"/>
<text text-anchor="middle" x="1536.98" y="-456.7" font-family="Times New Roman,serif" font-size="14.00">&lt;inheritance&gt;</text>
<text text-anchor="middle" x="1536.98" y="-440.95" font-family="Times New Roman,serif" font-size="14.00">base</text>
</g>
<!-- rover.fxns.move_rover -->
<g id="node30" class="node">
<title>rover.fxns.move_rover</title>
<polygon fill="lightgrey" stroke="grey" stroke-width="2" points="1752.6,-529.75 1595.6,-529.75 1595.6,-493.75 1752.6,-493.75 1752.6,-529.75"/>
<text text-anchor="middle" x="1674.1" y="-506.32" font-family="Times New Roman,serif" font-size="14.00">move_rover: MoveRover</text>
</g>
<!-- rover.fxns.move_rover&#45;&gt;__main__.MoveRover -->
<g id="edge20" class="edge">
<title>rover.fxns.move_rover-&gt;__main__.MoveRover</title>
<path fill="none" stroke="black" d="M1674.85,-492.84C1675.53,-476.6 1676.58,-451.45 1677.63,-426.38"/>
<polygon fill="none" stroke="black" points="1681.16,-426.8 1678.08,-416.66 1674.16,-426.51 1681.16,-426.8"/>
<text text-anchor="middle" x="1714.98" y="-456.7" font-family="Times New Roman,serif" font-size="14.00">&lt;inheritance&gt;</text>
<text text-anchor="middle" x="1714.98" y="-440.95" font-family="Times New Roman,serif" font-size="14.00">base</text>
</g>
<!-- rover.fxns.view_ground -->
<g id="node31" class="node">
<title>rover.fxns.view_ground</title>
<polygon fill="lightgrey" stroke="grey" stroke-width="2" points="1937.85,-529.75 1770.35,-529.75 1770.35,-493.75 1937.85,-493.75 1937.85,-529.75"/>
<text text-anchor="middle" x="1854.1" y="-506.32" font-family="Times New Roman,serif" font-size="14.00">view_ground: ViewGround</text>
</g>
<!-- rover.fxns.view_ground&#45;&gt;__main__.ViewGround -->
<g id="edge22" class="edge">
<title>rover.fxns.view_ground-&gt;__main__.ViewGround</title>
<path fill="none" stroke="black" d="M1854.1,-492.84C1854.1,-477.12 1854.1,-453.03 1854.1,-428.75"/>
<polygon fill="none" stroke="black" points="1857.6,-428.99 1854.1,-418.99 1850.6,-428.99 1857.6,-428.99"/>
<text text-anchor="middle" x="1891.98" y="-456.7" font-family="Times New Roman,serif" font-size="14.00">&lt;inheritance&gt;</text>
<text text-anchor="middle" x="1891.98" y="-440.95" font-family="Times New Roman,serif" font-size="14.00">base</text>
</g>
<!-- rover.fxns.communicate -->
<g id="node32" class="node">
<title>rover.fxns.communicate</title>
<polygon fill="lightgrey" stroke="grey" stroke-width="2" points="2130.23,-529.75 1955.98,-529.75 1955.98,-493.75 2130.23,-493.75 2130.23,-529.75"/>
<text text-anchor="middle" x="2043.1" y="-506.32" font-family="Times New Roman,serif" font-size="14.00">communicate: Communicate</text>
</g>
<!-- rover.fxns.communicate&#45;&gt;__main__.Communicate -->
<g id="edge24" class="edge">
<title>rover.fxns.communicate-&gt;__main__.Communicate</title>
<path fill="none" stroke="black" d="M2042.25,-492.84C2041.52,-477.7 2040.43,-454.8 2039.31,-431.45"/>
<polygon fill="none" stroke="black" points="2042.77,-431.54 2038.8,-421.72 2035.78,-431.87 2042.77,-431.54"/>
<text text-anchor="middle" x="2078.98" y="-456.7" font-family="Times New Roman,serif" font-size="14.00">&lt;inheritance&gt;</text>
<text text-anchor="middle" x="2078.98" y="-440.95" font-family="Times New Roman,serif" font-size="14.00">base</text>
</g>
</g>
</svg>