<svg xmlns="http://www.w3.org/2000/svg" xmlns:xlink="http://www.w3.org/1999/xlink" width="2013pt" height="159pt" viewBox="0.00 0.00 2012.62 159.00">
<g id="graph0" class="graph" transform="scale(1 1) rotate(0) translate(4 155)">
<polygon fill="white" stroke="none" points="-4,4 -4,-155 2008.62,-155 2008.62,4 -4,4"/>
<!-- rover -->
<g id="node1" class="node">
<title>rover</title>
<polygon fill="lightgrey" stroke="grey" stroke-width="0" points="791.5,-151 676.4,-115.38 906.6,-115.38 791.5,-151"/>
<text text-anchor="middle" x="791.5" y="-121.83" font-family="Times New Roman,serif" font-size="14.00">rover: Rover</text>
</g>
<!-- rover.t -->
<g id="node2" class="node">
<title>rover.t</title>
<polygon fill="lightgrey" stroke="grey" points="55,-36 12,-36 12,-40 0,-40 0,0 55,0 55,-36"/>
<polyline fill="none" stroke="grey" points="0,-36 12,-36"/>
<text text-anchor="middle" x="27.5" y="-12.57" font-family="Times New Roman,serif" font-size="14.00">t: Time</text>
</g>
<!-- rover&#45;&gt;rover.t -->
<g id="edge1" class="edge">
<title>rover-&gt;rover.t</title>
<path fill="none" stroke="black" d="M699.27,-126.36C514.1,-125.82 110.33,-120.58 58.5,-85.5 42.04,-74.36 34.13,-52.1 30.46,-36.41"/>
<polygon fill="black" stroke="black" points="699.31,-126.36 705.32,-122.37 711.31,-126.39 705.3,-130.37 699.31,-126.36"/>
<text text-anchor="middle" x="100.5" y="-72.2" font-family="Times New Roman,serif" font-size="14.00">&lt;containment&gt;</text>
<text text-anchor="middle" x="100.5" y="-56.45" font-family="Times New Roman,serif" font-size="14.00">t</text>
</g>
<!-- rover.sp -->
<g id="node3" class="node">
<title>rover.sp</title>
<polygon fill="lightgrey" stroke="grey" points="181.12,-36 99.88,-36 99.88,-40 87.88,-40 87.88,0 181.12,0 181.12,-36"/>
<polyline fill="none" stroke="grey" points="87.88,-36 99.88,-36"/>
<text text-anchor="middle" x="134.5" y="-12.57" font-family="Times New Roman,serif" font-size="14.00">sp: SimParam</text>
</g>
<!-- rover&#45;&gt;rover.sp -->
<g id="edge2" class="edge">
<title>rover-&gt;rover.sp</title>
<path fill="none" stroke="black" d="M695.32,-125C531.91,-122.15 213.51,-113.07 170.5,-85.5 153.26,-74.45 143.66,-52.17 138.8,-36.45"/>
<polygon fill="black" stroke="black" points="695.35,-125.01 701.41,-121.11 707.35,-125.21 701.28,-129.11 695.35,-125.01"/>
<text text-anchor="middle" x="212.5" y="-72.2" font-family="Times New Roman,serif" font-size="14.00">&lt;containment&gt;</text>
<text text-anchor="middle" x="212.5" y="-56.45" font-family="Times New Roman,serif" font-size="14.00">sp</text>
</g>
<!-- rover.m -->
<g id="node4" class="node">
<title>rover.m</title>
<polygon fill="lightgrey" stroke="grey" points="265.62,-36 211.38,-36 211.38,-40 199.38,-40 199.38,0 265.62,0 265.62,-36"/>
<polyline fill="none" stroke="grey" points="199.38,-36 211.38,-36"/>
<text text-anchor="middle" x="232.5" y="-12.57" font-family="Times New Roman,serif" font-size="14.00">m: Mode</text>
</g>
<!-- rover&#45;&gt;rover.m -->
<g id="edge3" class="edge">
<title>rover-&gt;rover.m</title>
<path fill="none" stroke="black" d="M699.85,-126.36C576.79,-125.22 365.62,-118.32 296.5,-85.5 273.78,-74.71 254.85,-52.14 243.62,-36.3"/>
<polygon fill="black" stroke="black" points="699.67,-126.36 705.7,-122.41 711.67,-126.46 705.64,-130.41 699.67,-126.36"/>
<text text-anchor="middle" x="338.5" y="-72.2" font-family="Times New Roman,serif" font-size="14.00">&lt;containment&gt;</text>
<text text-anchor="middle" x="338.5" y="-56.45" font-family="Times New Roman,serif" font-size="14.00">m</text>
</g>
<!-- rover.flows.ground -->
<g id="node5" class="node">
<title>rover.flows.ground</title>
<ellipse fill="lightgrey" stroke="grey" stroke-width="0" cx="354.5" cy="-18" rx="70.52" ry="18"/>
<text text-anchor="middle" x="354.5" y="-12.57" font-family="Times New Roman,serif" font-size="14.00">ground: Ground</text>
</g>
<!-- rover&#45;&gt;rover.flows.ground -->
<g id="edge4" class="edge">
<title>rover-&gt;rover.flows.ground</title>
<path fill="none" stroke="black" d="M687.05,-121.94C595.63,-116.84 470.58,-106.27 425.5,-85.5 401.11,-74.26 379.63,-51.33 366.85,-35.57"/>
<polygon fill="black" stroke="black" points="687.12,-121.94 693.32,-118.27 699.1,-122.59 692.89,-126.26 687.12,-121.94"/>
<text text-anchor="middle" x="467.5" y="-72.2" font-family="Times New Roman,serif" font-size="14.00">&lt;containment&gt;</text>
<text text-anchor="middle" x="467.5" y="-56.45" font-family="Times New Roman,serif" font-size="14.00">ground</text>
</g>
<!-- rover.flows.force -->
<g id="node6" class="node">
<title>rover.flows.force</title>
<ellipse fill="lightgrey" stroke="grey" stroke-width="0" cx="499.5" cy="-18" rx="56.55" ry="18"/>
<text text-anchor="middle" x="499.5" y="-12.57" font-family="Times New Roman,serif" font-size="14.00">force: Force</text>
</g>
<!-- rover&#45;&gt;rover.flows.force -->
<g id="edge5" class="edge">
<title>rover-&gt;rover.flows.force</title>
<path fill="none" stroke="black" d="M673.99,-117.19C618.64,-110.98 559.9,-101 537.5,-85.5 520.33,-73.62 509.93,-51.3 504.45,-35.81"/>
<polygon fill="black" stroke="black" points="674.01,-117.19 680.41,-113.85 685.94,-118.47 679.55,-121.81 674.01,-117.19"/>
<text text-anchor="middle" x="579.5" y="-72.2" font-family="Times New Roman,serif" font-size="14.00">&lt;containment&gt;</text>
<text text-anchor="middle" x="579.5" y="-56.45" font-family="Times New Roman,serif" font-size="14.00">force</text>
</g>
<!-- rover.flows.ee -->
<g id="node7" class="node">
<title>rover.flows.ee</title>
<ellipse fill="lightgrey" stroke="grey" stroke-width="0" cx="608.5" cy="-18" rx="34.1" ry="18"/>
<text text-anchor="middle" x="608.5" y="-12.57" font-family="Times New Roman,serif" font-size="14.00">ee: EE</text>
</g>
<!-- rover&#45;&gt;rover.flows.ee -->
<g id="edge6" class="edge">
<title>rover-&gt;rover.flows.ee</title>
<path fill="none" stroke="black" d="M706.09,-111.82C686.89,-105.84 667.49,-97.41 651.5,-85.5 634.3,-72.69 622.09,-50.8 615.18,-35.65"/>
<polygon fill="black" stroke="black" points="706.23,-111.86 713.1,-109.66 717.77,-115.15 710.9,-117.35 706.23,-111.86"/>
<text text-anchor="middle" x="693.5" y="-72.2" font-family="Times New Roman,serif" font-size="14.00">&lt;containment&gt;</text>
<text text-anchor="middle" x="693.5" y="-56.45" font-family="Times New Roman,serif" font-size="14.00">ee</text>
</g>
<!-- rover.flows.video -->
<g id="node8" class="node">
<title>rover.flows.video</title>
<ellipse fill="lightgrey" stroke="grey" stroke-width="0" cx="718.5" cy="-18" rx="58.05" ry="18"/>
<text text-anchor="middle" x="718.5" y="-12.57" font-family="Times New Roman,serif" font-size="14.00">video: Video</text>
</g>
<!-- rover&#45;&gt;rover.flows.video -->
<g id="edge7" class="edge">
<title>rover-&gt;rover.flows.video</title>
<path fill="none" stroke="black" d="M773.96,-105.74C768.79,-99.39 763.25,-92.28 758.5,-85.5 746.98,-69.06 735.32,-49.23 727.59,-35.52"/>
<polygon fill="black" stroke="black" points="773.85,-105.59 780.76,-107.64 781.53,-114.81 774.62,-112.76 773.85,-105.59"/>
<text text-anchor="middle" x="800.5" y="-72.2" font-family="Times New Roman,serif" font-size="14.00">&lt;containment&gt;</text>
<text text-anchor="middle" x="800.5" y="-56.45" font-family="Times New Roman,serif" font-size="14.00">video</text>
</g>
<!-- rover.flows.control -->
<g id="node9" class="node">
<title>rover.flows.control</title>
<ellipse fill="lightgrey" stroke="grey" stroke-width="0" cx="864.5" cy="-18" rx="70.03" ry="18"/>
<text text-anchor="middle" x="864.5" y="-12.57" font-family="Times New Roman,serif" font-size="14.00">control: Control</text>
</g>
<!-- rover&#45;&gt;rover.flows.control -->
<g id="edge8" class="edge">
<title>rover-&gt;rover.flows.control</title>
<path fill="none" stroke="black" d="M820.2,-108C828.32,-101.69 836.56,-94.04 842.5,-85.5 852.99,-70.43 858.76,-50 861.73,-35.78"/>
<polygon fill="black" stroke="black" points="820.27,-107.95 817.73,-114.7 810.52,-114.95 813.06,-108.2 820.27,-107.95"/>
<text text-anchor="middle" x="899.5" y="-72.2" font-family="Times New Roman,serif" font-size="14.00">&lt;containment&gt;</text>
<text text-anchor="middle" x="899.5" y="-56.45" font-family="Times New Roman,serif" font-size="14.00">control</text>
</g>
<!-- rover.flows.comms -->
<g id="node10" class="node">
<title>rover.flows.comms</title>
<ellipse fill="lightgrey" stroke="grey" stroke-width="0" cx="1014.5" cy="-18" rx="61.54" ry="18"/>
<text text-anchor="middle" x="1014.5" y="-12.57" font-family="Times New Roman,serif" font-size="14.00">comms: Flow</text>
</g>
<!-- rover&#45;&gt;rover.flows.comms -->
<g id="edge9" class="edge">
<title>rover-&gt;rover.flows.comms</title>
<path fill="none" stroke="black" d="M874.88,-112.36C898.66,-106.26 923.95,-97.63 945.5,-85.5 968.26,-72.68 989.06,-50.58 1001.74,-35.39"/>
<polygon fill="black" stroke="black" points="874.78,-112.38 869.88,-117.67 863.11,-115.19 868.01,-109.9 874.78,-112.38"/>
<text text-anchor="middle" x="1026.5" y="-72.2" font-family="Times New Roman,serif" font-size="14.00">&lt;containment&gt;</text>
<text text-anchor="middle" x="1026.5" y="-56.45" font-family="Times New Roman,serif" font-size="14.00">comms</text>
</g>
<!-- rover.fxns.control_rover -->
<g id="node11" class="node">
<title>rover.fxns.control_rover</title>
<polygon fill="lightgrey" stroke="grey" stroke-width="2" points="1270.75,-36 1094.25,-36 1094.25,0 1270.75,0 1270.75,-36"/>
<text text-anchor="middle" x="1182.5" y="-12.57" font-family="Times New Roman,serif" font-size="14.00">control_rover: ControlRover</text>
</g>
<!-- rover&#45;&gt;rover.fxns.control_rover -->
<g id="edge10" class="edge">
<title>rover-&gt;rover.fxns.control_rover</title>
<path fill="none" stroke="black" d="M897.53,-120.9C951.2,-115.7 1016.65,-105.5 1072.5,-85.5 1104.85,-73.91 1138.09,-52.2 1159.44,-36.74"/>
<polygon fill="black" stroke="black" points="897.71,-120.88 892.1,-125.41 885.76,-121.97 891.37,-117.44 897.71,-120.88"/>
<text text-anchor="middle" x="1174.5" y="-72.2" font-family="Times New Roman,serif" font-size="14.00">&lt;containment&gt;</text>
<text text-anchor="middle" x="1174.5" y="-56.45" font-family="Times New Roman,serif" font-size="14.00">control_rover</text>
</g>
<!-- rover.fxns.store_energy -->
<g id="node12" class="node">
<title>rover.fxns.store_energy</title>
<polygon fill="lightgrey" stroke="grey" stroke-width="2" points="1452.38,-36 1288.62,-36 1288.62,0 1452.38,0 1452.38,-36"/>
<text text-anchor="middle" x="1370.5" y="-12.57" font-family="Times New Roman,serif" font-size="14.00">store_energy: StoreEnergy</text>
</g>
<!-- rover&#45;&gt;rover.fxns.store_energy -->
<g id="edge11" class="edge">
<title>rover-&gt;rover.fxns.store_energy</title>
<path fill="none" stroke="black" d="M883.99,-126.01C971.9,-123.79 1107.14,-115.17 1220.5,-85.5 1262.94,-74.39 1308.6,-52.58 1338.25,-36.97"/>
<polygon fill="black" stroke="black" points="884.01,-126.01 878.1,-130.14 872.01,-126.28 877.92,-122.14 884.01,-126.01"/>
<text text-anchor="middle" x="1346.5" y="-72.2" font-family="Times New Roman,serif" font-size="14.00">&lt;containment&gt;</text>
<text text-anchor="middle" x="1346.5" y="-56.45" font-family="Times New Roman,serif" font-size="14.00">store_energy</text>
</g>
<!-- rover.fxns.move_rover -->
<g id="node13" class="node">
<title>rover.fxns.move_rover</title>
<polygon fill="lightgrey" stroke="grey" stroke-width="2" points="1627,-36 1470,-36 1470,0 1627,0 1627,-36"/>
<text text-anchor="middle" x="1548.5" y="-12.57" font-family="Times New Roman,serif" font-size="14.00">move_rover: MoveRover</text>
</g>
<!-- rover&#45;&gt;rover.fxns.move_rover -->
<g id="edge12" class="edge">
<title>rover-&gt;rover.fxns.move_rover</title>
<path fill="none" stroke="black" d="M891.66,-123.51C1037.33,-118.84 1300.32,-107.6 1392.5,-85.5 1436.88,-74.86 1484.7,-52.73 1515.54,-36.92"/>
<polygon fill="black" stroke="black" points="891.69,-123.51 885.82,-127.7 879.7,-123.89 885.57,-119.7 891.69,-123.51"/>
<text text-anchor="middle" x="1521.5" y="-72.2" font-family="Times New Roman,serif" font-size="14.00">&lt;containment&gt;</text>
<text text-anchor="middle" x="1521.5" y="-56.45" font-family="Times New Roman,serif" font-size="14.00">move_rover</text>
</g>
<!-- rover.fxns.view_ground -->
<g id="node14" class="node">
<title>rover.fxns.view_ground</title>
<polygon fill="lightgrey" stroke="grey" stroke-width="2" points="1812.25,-36 1644.75,-36 1644.75,0 1812.25,0 1812.25,-36"/>
<text text-anchor="middle" x="1728.5" y="-12.57" font-family="Times New Roman,serif" font-size="14.00">view_ground: ViewGround</text>
</g>
<!-- rover&#45;&gt;rover.fxns.view_ground -->
<g id="edge13" class="edge">
<title>rover-&gt;rover.fxns.view_ground</title>
<path fill="none" stroke="black" d="M886.84,-125.26C1064.72,-122.76 1440.64,-114.15 1567.5,-85.5 1613.37,-75.14 1662.92,-52.83 1694.75,-36.91"/>
<polygon fill="black" stroke="black" points="886.76,-125.26 880.82,-129.35 874.76,-125.43 880.71,-121.35 886.76,-125.26"/>
<text text-anchor="middle" x="1699.5" y="-72.2" font-family="Times New Roman,serif" font-size="14.00">&lt;containment&gt;</text>
<text text-anchor="middle" x="1699.5" y="-56.45" font-family="Times New Roman,serif" font-size="14.00">view_ground</text>
</g>
<!-- rover.fxns.communicate -->
<g id="node15" class="node">
<title>rover.fxns.communicate</title>
<polygon fill="lightgrey" stroke="grey" stroke-width="2" points="2004.62,-36 1830.38,-36 1830.38,0 2004.62,0 2004.62,-36"/>
<text text-anchor="middle" x="1917.5" y="-12.57" font-family="Times New Roman,serif" font-size="14.00">communicate: Communicate</text>
</g>
<!-- rover&#45;&gt;rover.fxns.communicate -->
<g id="edge14" class="edge">
<title>rover-&gt;rover.fxns.communicate</title>
<path fill="none" stroke="black" d="M884.54,-126.12C1091.21,-125.21 1583.06,-119.41 1745.5,-85.5 1794.23,-75.33 1847.22,-52.98 1881.32,-37"/>
<polygon fill="black" stroke="black" points="884.55,-126.12 878.56,-130.14 872.55,-126.17 878.53,-122.14 884.55,-126.12"/>
<text text-anchor="middle" x="1882.5" y="-72.2" font-family="Times New Roman,serif" font-size="14.00">&lt;containment&gt;</text>
<text text-anchor="middle" x="1882.5" y="-56.45" font-family="Times New Roman,serif" font-size="14.00">communicate</text>
</g>
</g>
</svg>