<svg xmlns="http://www.w3.org/2000/svg" xmlns:xlink="http://www.w3.org/1999/xlink" width="2312pt" height="543pt" viewBox="0.00 0.00 2312.00 543.00">
<g id="graph0" class="graph" transform="scale(1 1) rotate(0) translate(4 538.75)">
<polygon fill="white" stroke="none" points="-4,4 -4,-538.75 2307.63,-538.75 2307.63,4 -4,4"/>
<!-- rover -->
<g id="node1" class="node">
<title>rover</title>
<polygon fill="lightgrey" stroke="grey" stroke-width="0" points="116.01,-534.75 0,-498 232.02,-498 116.01,-534.75"/>
<text xml:space="preserve" text-anchor="middle" x="116.01" y="-505.2" font-family="Times,serif" font-size="14.00">rover: Rover</text>
</g>
<!-- __main__.Rover -->
<g id="node20" class="node">
<title>__main__.Rover</title>
<polygon fill="lightgrey" stroke="grey" points="171.26,-394.62 60.76,-394.62 60.76,-284.12 171.26,-284.12 171.26,-394.62"/>
<polyline fill="none" stroke="grey" points="72.76,-394.62 60.76,-382.62"/>
<polyline fill="none" stroke="grey" points="60.76,-296.12 72.76,-284.12"/>
<polyline fill="none" stroke="grey" points="159.26,-284.12 171.26,-296.12"/>
<polyline fill="none" stroke="grey" points="171.26,-382.62 159.26,-394.62"/>
<text xml:space="preserve" text-anchor="middle" x="116.01" y="-334.32" font-family="Times,serif" font-size="14.00">Rover: BaseType</text>
</g>
<!-- rover&#45;&gt;__main__.Rover -->
<g id="edge1" class="edge">
<title>rover-&gt;__main__.Rover</title>
<path fill="none" stroke="black" d="M116.01,-498.17C116.01,-479.58 116.01,-440.75 116.01,-406.26"/>
<polygon fill="none" stroke="black" points="119.51,-406.28 116.01,-396.28 112.51,-406.28 119.51,-406.28"/>
<text xml:space="preserve" text-anchor="middle" x="154.26" y="-454.45" font-family="Times,serif" font-size="14.00">&lt;inheritance&gt;</text>
<text xml:space="preserve" text-anchor="middle" x="154.26" y="-437.95" font-family="Times,serif" font-size="14.00">base</text>
</g>
<!-- rover.t -->
<g id="node2" class="node">
<title>rover.t</title>
<polygon fill="lightgrey" stroke="grey" points="305.88,-528.25 262.13,-528.25 262.13,-532.25 250.13,-532.25 250.13,-492.25 305.88,-492.25 305.88,-528.25"/>
<polyline fill="none" stroke="grey" points="250.13,-528.25 262.13,-528.25"/>
<text xml:space="preserve" text-anchor="middle" x="278.01" y="-505.2" font-family="Times,serif" font-size="14.00">t: Time</text>
</g>
<!-- fmdtools.define.container.time.Time -->
<g id="node5" class="node">
<title>fmdtools.define.container.time.Time</title>
<polygon fill="lightgrey" stroke="grey" points="327.26,-388.62 228.76,-388.62 228.76,-290.12 327.26,-290.12 327.26,-388.62"/>
<polyline fill="none" stroke="grey" points="240.76,-388.62 228.76,-376.62"/>
<polyline fill="none" stroke="grey" points="228.76,-302.12 240.76,-290.12"/>
<polyline fill="none" stroke="grey" points="315.26,-290.12 327.26,-302.12"/>
<polyline fill="none" stroke="grey" points="327.26,-376.62 315.26,-388.62"/>
<text xml:space="preserve" text-anchor="middle" x="278.01" y="-334.32" font-family="Times,serif" font-size="14.00">Time: datatype</text>
</g>
<!-- rover.t&#45;&gt;fmdtools.define.container.time.Time -->
<g id="edge2" class="edge">
<title>rover.t-&gt;fmdtools.define.container.time.Time</title>
<path fill="none" stroke="black" d="M278.01,-491.81C278.01,-470.33 278.01,-432.69 278.01,-400.32"/>
<polygon fill="none" stroke="black" points="281.51,-400.63 278.01,-390.63 274.51,-400.63 281.51,-400.63"/>
<text xml:space="preserve" text-anchor="middle" x="316.26" y="-454.45" font-family="Times,serif" font-size="14.00">&lt;inheritance&gt;</text>
<text xml:space="preserve" text-anchor="middle" x="316.26" y="-437.95" font-family="Times,serif" font-size="14.00">base</text>
</g>
<!-- rover.sp -->
<g id="node3" class="node">
<title>rover.sp</title>
<polygon fill="lightgrey" stroke="grey" points="455.63,-528.25 374.38,-528.25 374.38,-532.25 362.38,-532.25 362.38,-492.25 455.63,-492.25 455.63,-528.25"/>
<polyline fill="none" stroke="grey" points="362.38,-528.25 374.38,-528.25"/>
<text xml:space="preserve" text-anchor="middle" x="409.01" y="-505.2" font-family="Times,serif" font-size="14.00">sp: SimParam</text>
</g>
<!-- fmdtools.define.block.base.SimParam -->
<g id="node6" class="node">
<title>fmdtools.define.block.base.SimParam</title>
<polygon fill="lightgrey" stroke="grey" points="472.51,-402.88 345.51,-402.88 345.51,-275.88 472.51,-275.88 472.51,-402.88"/>
<polyline fill="none" stroke="grey" points="357.51,-402.88 345.51,-390.88"/>
<polyline fill="none" stroke="grey" points="345.51,-287.88 357.51,-275.88"/>
<polyline fill="none" stroke="grey" points="460.51,-275.88 472.51,-287.88"/>
<polyline fill="none" stroke="grey" points="472.51,-390.88 460.51,-402.88"/>
<text xml:space="preserve" text-anchor="middle" x="409.01" y="-334.32" font-family="Times,serif" font-size="14.00">SimParam: datatype</text>
</g>
<!-- rover.sp&#45;&gt;fmdtools.define.block.base.SimParam -->
<g id="edge3" class="edge">
<title>rover.sp-&gt;fmdtools.define.block.base.SimParam</title>
<path fill="none" stroke="black" d="M409.01,-491.81C409.01,-473.44 409.01,-443.25 409.01,-414.64"/>
<polygon fill="none" stroke="black" points="412.51,-414.87 409.01,-404.87 405.51,-414.87 412.51,-414.87"/>
<text xml:space="preserve" text-anchor="middle" x="447.26" y="-454.45" font-family="Times,serif" font-size="14.00">&lt;inheritance&gt;</text>
<text xml:space="preserve" text-anchor="middle" x="447.26" y="-437.95" font-family="Times,serif" font-size="14.00">base</text>
</g>
<!-- rover.m -->
<g id="node4" class="node">
<title>rover.m</title>
<polygon fill="lightgrey" stroke="grey" points="574.51,-528.25 519.51,-528.25 519.51,-532.25 507.51,-532.25 507.51,-492.25 574.51,-492.25 574.51,-528.25"/>
<polyline fill="none" stroke="grey" points="507.51,-528.25 519.51,-528.25"/>
<text xml:space="preserve" text-anchor="middle" x="541.01" y="-505.2" font-family="Times,serif" font-size="14.00">m: Mode</text>
</g>
<!-- fmdtools.define.container.mode.Mode -->
<g id="node7" class="node">
<title>fmdtools.define.container.mode.Mode</title>
<polygon fill="lightgrey" stroke="grey" points="591.76,-390.12 490.26,-390.12 490.26,-288.62 591.76,-288.62 591.76,-390.12"/>
<polyline fill="none" stroke="grey" points="502.26,-390.12 490.26,-378.12"/>
<polyline fill="none" stroke="grey" points="490.26,-300.62 502.26,-288.62"/>
<polyline fill="none" stroke="grey" points="579.76,-288.62 591.76,-300.62"/>
<polyline fill="none" stroke="grey" points="591.76,-378.12 579.76,-390.12"/>
<text xml:space="preserve" text-anchor="middle" x="541.01" y="-334.32" font-family="Times,serif" font-size="14.00">Mode: datatype</text>
</g>
<!-- rover.m&#45;&gt;fmdtools.define.container.mode.Mode -->
<g id="edge4" class="edge">
<title>rover.m-&gt;fmdtools.define.container.mode.Mode</title>
<path fill="none" stroke="black" d="M541.01,-491.81C541.01,-470.63 541.01,-433.75 541.01,-401.68"/>
<polygon fill="none" stroke="black" points="544.51,-402.09 541.01,-392.09 537.51,-402.09 544.51,-402.09"/>
<text xml:space="preserve" text-anchor="middle" x="579.26" y="-454.45" font-family="Times,serif" font-size="14.00">&lt;inheritance&gt;</text>
<text xml:space="preserve" text-anchor="middle" x="579.26" y="-437.95" font-family="Times,serif" font-size="14.00">base</text>
</g>
<!-- __main__.Ground -->
<g id="node8" class="node">
<title>__main__.Ground</title>
<polygon fill="lightgrey" stroke="grey" points="1375.38,-398.75 1256.63,-398.75 1256.63,-280 1375.38,-280 1375.38,-398.75"/>
<polyline fill="none" stroke="grey" points="1268.63,-398.75 1256.63,-386.75"/>
<polyline fill="none" stroke="grey" points="1256.63,-292 1268.63,-280"/>
<polyline fill="none" stroke="grey" points="1363.38,-280 1375.38,-292"/>
<polyline fill="none" stroke="grey" points="1375.38,-386.75 1363.38,-398.75"/>
<text xml:space="preserve" text-anchor="middle" x="1316.01" y="-334.32" font-family="Times,serif" font-size="14.00">Ground: BaseType</text>
</g>
<!-- fmdtools.define.flow.base.Flow -->
<g id="node9" class="node">
<title>fmdtools.define.flow.base.Flow</title>
<polygon fill="lightgrey" stroke="grey" points="1024.63,-149.12 919.38,-149.12 919.38,-43.88 1024.63,-43.88 1024.63,-149.12"/>
<polyline fill="none" stroke="grey" points="931.38,-149.12 919.38,-137.12"/>
<polyline fill="none" stroke="grey" points="919.38,-55.88 931.38,-43.88"/>
<polyline fill="none" stroke="grey" points="1012.63,-43.88 1024.63,-55.88"/>
<polyline fill="none" stroke="grey" points="1024.63,-137.12 1012.63,-149.12"/>
<text xml:space="preserve" text-anchor="middle" x="972.01" y="-91.45" font-family="Times,serif" font-size="14.00">Flow: BaseType</text>
</g>
<!-- __main__.Ground&#45;&gt;fmdtools.define.flow.base.Flow -->
<g id="edge6" class="edge">
<title>__main__.Ground-&gt;fmdtools.define.flow.base.Flow</title>
<path fill="none" stroke="black" d="M1264.54,-279.52C1259.03,-273.54 1253.45,-267.6 1248.01,-262 1225.01,-238.32 1220.98,-230.04 1194.01,-211 1143.98,-175.68 1081.44,-144.73 1035.5,-124.11"/>
<polygon fill="none" stroke="black" points="1037.03,-120.96 1026.47,-120.1 1034.19,-127.36 1037.03,-120.96"/>
<text xml:space="preserve" text-anchor="middle" x="1268.63" y="-230.7" font-family="Times,serif" font-size="14.00">&lt;inheritance&gt;</text>
<text xml:space="preserve" text-anchor="middle" x="1268.63" y="-214.2" font-family="Times,serif" font-size="14.00">base</text>
</g>
<!-- __main__.Force -->
<g id="node10" class="node">
<title>__main__.Force</title>
<polygon fill="lightgrey" stroke="grey" points="718.13,-393.5 609.88,-393.5 609.88,-285.25 718.13,-285.25 718.13,-393.5"/>
<polyline fill="none" stroke="grey" points="621.88,-393.5 609.88,-381.5"/>
<polyline fill="none" stroke="grey" points="609.88,-297.25 621.88,-285.25"/>
<polyline fill="none" stroke="grey" points="706.13,-285.25 718.13,-297.25"/>
<polyline fill="none" stroke="grey" points="718.13,-381.5 706.13,-393.5"/>
<text xml:space="preserve" text-anchor="middle" x="664.01" y="-334.32" font-family="Times,serif" font-size="14.00">Force: BaseType</text>
</g>
<!-- __main__.Force&#45;&gt;fmdtools.define.flow.base.Flow -->
<g id="edge8" class="edge">
<title>__main__.Force-&gt;fmdtools.define.flow.base.Flow</title>
<path fill="none" stroke="black" d="M685.06,-284.77C696.93,-259.89 713.78,-231.38 735.51,-211 784.97,-164.61 856.91,-133.78 908.44,-116.11"/>
<polygon fill="none" stroke="black" points="909.31,-119.51 917.68,-113.02 907.09,-112.88 909.31,-119.51"/>
<text xml:space="preserve" text-anchor="middle" x="773.76" y="-230.7" font-family="Times,serif" font-size="14.00">&lt;inheritance&gt;</text>
<text xml:space="preserve" text-anchor="middle" x="773.76" y="-214.2" font-family="Times,serif" font-size="14.00">base</text>
</g>
<!-- __main__.EE -->
<g id="node11" class="node">
<title>__main__.EE</title>
<polygon fill="lightgrey" stroke="grey" points="830.01,-386.38 736.01,-386.38 736.01,-292.38 830.01,-292.38 830.01,-386.38"/>
<polyline fill="none" stroke="grey" points="748.01,-386.38 736.01,-374.38"/>
<polyline fill="none" stroke="grey" points="736.01,-304.38 748.01,-292.38"/>
<polyline fill="none" stroke="grey" points="818.01,-292.38 830.01,-304.38"/>
<polyline fill="none" stroke="grey" points="830.01,-374.38 818.01,-386.38"/>
<text xml:space="preserve" text-anchor="middle" x="783.01" y="-334.32" font-family="Times,serif" font-size="14.00">EE: BaseType</text>
</g>
<!-- __main__.EE&#45;&gt;fmdtools.define.flow.base.Flow -->
<g id="edge10" class="edge">
<title>__main__.EE-&gt;fmdtools.define.flow.base.Flow</title>
<path fill="none" stroke="black" d="M796.06,-291.98C804.66,-266.52 817.66,-235.28 835.51,-211 855.84,-183.35 884.32,-158.27 910,-138.77"/>
<polygon fill="none" stroke="black" points="911.81,-141.79 917.74,-133.01 907.63,-136.17 911.81,-141.79"/>
<text xml:space="preserve" text-anchor="middle" x="873.76" y="-230.7" font-family="Times,serif" font-size="14.00">&lt;inheritance&gt;</text>
<text xml:space="preserve" text-anchor="middle" x="873.76" y="-214.2" font-family="Times,serif" font-size="14.00">base</text>
</g>
<!-- __main__.Video -->
<g id="node12" class="node">
<title>__main__.Video</title>
<polygon fill="lightgrey" stroke="grey" points="958.26,-394.62 847.76,-394.62 847.76,-284.12 958.26,-284.12 958.26,-394.62"/>
<polyline fill="none" stroke="grey" points="859.76,-394.62 847.76,-382.62"/>
<polyline fill="none" stroke="grey" points="847.76,-296.12 859.76,-284.12"/>
<polyline fill="none" stroke="grey" points="946.26,-284.12 958.26,-296.12"/>
<polyline fill="none" stroke="grey" points="958.26,-382.62 946.26,-394.62"/>
<text xml:space="preserve" text-anchor="middle" x="903.01" y="-334.32" font-family="Times,serif" font-size="14.00">Video: BaseType</text>
</g>
<!-- __main__.Video&#45;&gt;fmdtools.define.flow.base.Flow -->
<g id="edge12" class="edge">
<title>__main__.Video-&gt;fmdtools.define.flow.base.Flow</title>
<path fill="none" stroke="black" d="M908.81,-283.81C912,-261.02 916.72,-234.45 923.51,-211 928.42,-194.03 935.2,-176.22 942.13,-159.87"/>
<polygon fill="none" stroke="black" points="945.32,-161.31 946.09,-150.75 938.9,-158.53 945.32,-161.31"/>
<text xml:space="preserve" text-anchor="middle" x="961.76" y="-230.7" font-family="Times,serif" font-size="14.00">&lt;inheritance&gt;</text>
<text xml:space="preserve" text-anchor="middle" x="961.76" y="-214.2" font-family="Times,serif" font-size="14.00">base</text>
</g>
<!-- __main__.Control -->
<g id="node13" class="node">
<title>__main__.Control</title>
<polygon fill="lightgrey" stroke="grey" points="1095.38,-398.75 976.63,-398.75 976.63,-280 1095.38,-280 1095.38,-398.75"/>
<polyline fill="none" stroke="grey" points="988.63,-398.75 976.63,-386.75"/>
<polyline fill="none" stroke="grey" points="976.63,-292 988.63,-280"/>
<polyline fill="none" stroke="grey" points="1083.38,-280 1095.38,-292"/>
<polyline fill="none" stroke="grey" points="1095.38,-386.75 1083.38,-398.75"/>
<text xml:space="preserve" text-anchor="middle" x="1036.01" y="-334.32" font-family="Times,serif" font-size="14.00">Control: BaseType</text>
</g>
<!-- __main__.Control&#45;&gt;fmdtools.define.flow.base.Flow -->
<g id="edge14" class="edge">
<title>__main__.Control-&gt;fmdtools.define.flow.base.Flow</title>
<path fill="none" stroke="black" d="M1020.44,-279.76C1010.85,-243.66 998.56,-197.41 988.76,-160.53"/>
<polygon fill="none" stroke="black" points="992.14,-159.63 986.19,-150.87 985.37,-161.43 992.14,-159.63"/>
<text xml:space="preserve" text-anchor="middle" x="1047.99" y="-230.7" font-family="Times,serif" font-size="14.00">&lt;inheritance&gt;</text>
<text xml:space="preserve" text-anchor="middle" x="1047.99" y="-214.2" font-family="Times,serif" font-size="14.00">base</text>
</g>
<!-- __main__.ControlRover -->
<g id="node14" class="node">
<title>__main__.ControlRover</title>
<polygon fill="lightgrey" stroke="grey" points="2279.88,-415.25 2128.13,-415.25 2128.13,-263.5 2279.88,-263.5 2279.88,-415.25"/>
<polyline fill="none" stroke="grey" points="2140.13,-415.25 2128.13,-403.25"/>
<polyline fill="none" stroke="grey" points="2128.13,-275.5 2140.13,-263.5"/>
<polyline fill="none" stroke="grey" points="2267.88,-263.5 2279.88,-275.5"/>
<polyline fill="none" stroke="grey" points="2279.88,-403.25 2267.88,-415.25"/>
<text xml:space="preserve" text-anchor="middle" x="2204.01" y="-334.32" font-family="Times,serif" font-size="14.00">ControlRover: BaseType</text>
</g>
<!-- fmdtools.define.block.function.Function -->
<g id="node15" class="node">
<title>fmdtools.define.block.function.Function</title>
<polygon fill="lightgrey" stroke="grey" points="1901.76,-159.25 1776.26,-159.25 1776.26,-33.75 1901.76,-33.75 1901.76,-159.25"/>
<polyline fill="none" stroke="grey" points="1788.26,-159.25 1776.26,-147.25"/>
<polyline fill="none" stroke="grey" points="1776.26,-45.75 1788.26,-33.75"/>
<polyline fill="none" stroke="grey" points="1889.76,-33.75 1901.76,-45.75"/>
<polyline fill="none" stroke="grey" points="1901.76,-147.25 1889.76,-159.25"/>
<text xml:space="preserve" text-anchor="middle" x="1839.01" y="-91.45" font-family="Times,serif" font-size="14.00">Function: BaseType</text>
</g>
<!-- __main__.ControlRover&#45;&gt;fmdtools.define.block.function.Function -->
<g id="edge17" class="edge">
<title>__main__.ControlRover-&gt;fmdtools.define.block.function.Function</title>
<path fill="none" stroke="black" d="M2127.76,-279.16C2119.8,-273.28 2111.78,-267.47 2104.01,-262 2040.93,-217.66 1966.04,-171.75 1911.99,-139.74"/>
<polygon fill="none" stroke="black" points="1913.85,-136.77 1903.46,-134.7 1910.29,-142.8 1913.85,-136.77"/>
<text xml:space="preserve" text-anchor="middle" x="2114.41" y="-230.7" font-family="Times,serif" font-size="14.00">&lt;inheritance&gt;</text>
<text xml:space="preserve" text-anchor="middle" x="2114.41" y="-214.2" font-family="Times,serif" font-size="14.00">base</text>
</g>
<!-- __main__.StoreEnergy -->
<g id="node16" class="node">
<title>__main__.StoreEnergy</title>
<polygon fill="lightgrey" stroke="grey" points="1565.51,-411.88 1420.51,-411.88 1420.51,-266.88 1565.51,-266.88 1565.51,-411.88"/>
<polyline fill="none" stroke="grey" points="1432.51,-411.88 1420.51,-399.88"/>
<polyline fill="none" stroke="grey" points="1420.51,-278.88 1432.51,-266.88"/>
<polyline fill="none" stroke="grey" points="1553.51,-266.88 1565.51,-278.88"/>
<polyline fill="none" stroke="grey" points="1565.51,-399.88 1553.51,-411.88"/>
<text xml:space="preserve" text-anchor="middle" x="1493.01" y="-334.32" font-family="Times,serif" font-size="14.00">StoreEnergy: BaseType</text>
</g>
<!-- __main__.StoreEnergy&#45;&gt;fmdtools.define.block.function.Function -->
<g id="edge19" class="edge">
<title>__main__.StoreEnergy-&gt;fmdtools.define.block.function.Function</title>
<path fill="none" stroke="black" d="M1565.76,-280.27C1573.59,-274.09 1581.46,-267.9 1589.01,-262 1618.36,-239.07 1624.86,-232.16 1655.51,-211 1691.3,-186.3 1732.36,-160.66 1766.56,-140.02"/>
<polygon fill="none" stroke="black" points="1767.95,-143.26 1774.71,-135.11 1764.34,-137.27 1767.95,-143.26"/>
<text xml:space="preserve" text-anchor="middle" x="1693.76" y="-230.7" font-family="Times,serif" font-size="14.00">&lt;inheritance&gt;</text>
<text xml:space="preserve" text-anchor="middle" x="1693.76" y="-214.2" font-family="Times,serif" font-size="14.00">base</text>
</g>
<!-- __main__.MoveRover -->
<g id="node17" class="node">
<title>__main__.MoveRover</title>
<polygon fill="lightgrey" stroke="grey" points="1740.38,-410.75 1597.63,-410.75 1597.63,-268 1740.38,-268 1740.38,-410.75"/>
<polyline fill="none" stroke="grey" points="1609.63,-410.75 1597.63,-398.75"/>
<polyline fill="none" stroke="grey" points="1597.63,-280 1609.63,-268"/>
<polyline fill="none" stroke="grey" points="1728.38,-268 1740.38,-280"/>
<polyline fill="none" stroke="grey" points="1740.38,-398.75 1728.38,-410.75"/>
<text xml:space="preserve" text-anchor="middle" x="1669.01" y="-334.32" font-family="Times,serif" font-size="14.00">MoveRover: BaseType</text>
</g>
<!-- __main__.MoveRover&#45;&gt;fmdtools.define.block.function.Function -->
<g id="edge21" class="edge">
<title>__main__.MoveRover-&gt;fmdtools.define.block.function.Function</title>
<path fill="none" stroke="black" d="M1718.66,-267.59C1731.62,-249.16 1745.57,-229.33 1758.51,-211 1768.17,-197.32 1778.5,-182.73 1788.43,-168.72"/>
<polygon fill="none" stroke="black" points="1791.08,-171.03 1794.01,-160.85 1785.37,-166.98 1791.08,-171.03"/>
<text xml:space="preserve" text-anchor="middle" x="1796.76" y="-230.7" font-family="Times,serif" font-size="14.00">&lt;inheritance&gt;</text>
<text xml:space="preserve" text-anchor="middle" x="1796.76" y="-214.2" font-family="Times,serif" font-size="14.00">base</text>
</g>
<!-- __main__.ViewGround -->
<g id="node18" class="node">
<title>__main__.ViewGround</title>
<polygon fill="lightgrey" stroke="grey" points="1913.01,-413.38 1765.01,-413.38 1765.01,-265.38 1913.01,-265.38 1913.01,-413.38"/>
<polyline fill="none" stroke="grey" points="1777.01,-413.38 1765.01,-401.38"/>
<polyline fill="none" stroke="grey" points="1765.01,-277.38 1777.01,-265.38"/>
<polyline fill="none" stroke="grey" points="1901.01,-265.38 1913.01,-277.38"/>
<polyline fill="none" stroke="grey" points="1913.01,-401.38 1901.01,-413.38"/>
<text xml:space="preserve" text-anchor="middle" x="1839.01" y="-334.32" font-family="Times,serif" font-size="14.00">ViewGround: BaseType</text>
</g>
<!-- __main__.ViewGround&#45;&gt;fmdtools.define.block.function.Function -->
<g id="edge23" class="edge">
<title>__main__.ViewGround-&gt;fmdtools.define.block.function.Function</title>
<path fill="none" stroke="black" d="M1839.01,-265.12C1839.01,-235.18 1839.01,-200.61 1839.01,-170.67"/>
<polygon fill="none" stroke="black" points="1842.51,-170.95 1839.01,-160.95 1835.51,-170.95 1842.51,-170.95"/>
<text xml:space="preserve" text-anchor="middle" x="1877.26" y="-230.7" font-family="Times,serif" font-size="14.00">&lt;inheritance&gt;</text>
<text xml:space="preserve" text-anchor="middle" x="1877.26" y="-214.2" font-family="Times,serif" font-size="14.00">base</text>
</g>
<!-- __main__.Communicate -->
<g id="node19" class="node">
<title>__main__.Communicate</title>
<polygon fill="lightgrey" stroke="grey" points="2095.38,-416.75 1940.63,-416.75 1940.63,-262 2095.38,-262 2095.38,-416.75"/>
<polyline fill="none" stroke="grey" points="1952.63,-416.75 1940.63,-404.75"/>
<polyline fill="none" stroke="grey" points="1940.63,-274 1952.63,-262"/>
<polyline fill="none" stroke="grey" points="2083.38,-262 2095.38,-274"/>
<polyline fill="none" stroke="grey" points="2095.38,-404.75 2083.38,-416.75"/>
<text xml:space="preserve" text-anchor="middle" x="2018.01" y="-334.32" font-family="Times,serif" font-size="14.00">Communicate: BaseType</text>
</g>
<!-- __main__.Communicate&#45;&gt;fmdtools.define.block.function.Function -->
<g id="edge25" class="edge">
<title>__main__.Communicate-&gt;fmdtools.define.block.function.Function</title>
<path fill="none" stroke="black" d="M1961.13,-261.83C1938.86,-231.87 1913.48,-197.71 1891.64,-168.32"/>
<polygon fill="none" stroke="black" points="1894.66,-166.52 1885.89,-160.58 1889.04,-170.69 1894.66,-166.52"/>
<text xml:space="preserve" text-anchor="middle" x="1982.79" y="-230.7" font-family="Times,serif" font-size="14.00">&lt;inheritance&gt;</text>
<text xml:space="preserve" text-anchor="middle" x="1982.79" y="-214.2" font-family="Times,serif" font-size="14.00">base</text>
</g>
<!-- fmdtools.define.architecture.function.FunctionArchitecture -->
<g id="node21" class="node">
<title>fmdtools.define.architecture.function.FunctionArchitecture</title>
<polygon fill="lightgrey" stroke="grey" points="212.51,-193 19.51,-193 19.51,0 212.51,0 212.51,-193"/>
<polyline fill="none" stroke="grey" points="31.51,-193 19.51,-181"/>
<polyline fill="none" stroke="grey" points="19.51,-12 31.51,0"/>
<polyline fill="none" stroke="grey" points="200.51,0 212.51,-12"/>
<polyline fill="none" stroke="grey" points="212.51,-181 200.51,-193"/>
<text xml:space="preserve" text-anchor="middle" x="116.01" y="-91.45" font-family="Times,serif" font-size="14.00">FunctionArchitecture: BaseType</text>
</g>
<!-- __main__.Rover&#45;&gt;fmdtools.define.architecture.function.FunctionArchitecture -->
<g id="edge26" class="edge">
<title>__main__.Rover-&gt;fmdtools.define.architecture.function.FunctionArchitecture</title>
<path fill="none" stroke="black" d="M116.01,-283.72C116.01,-260.17 116.01,-231.79 116.01,-204.36"/>
<polygon fill="none" stroke="black" points="119.51,-204.6 116.01,-194.6 112.51,-204.6 119.51,-204.6"/>
<text xml:space="preserve" text-anchor="middle" x="154.26" y="-230.7" font-family="Times,serif" font-size="14.00">&lt;inheritance&gt;</text>
<text xml:space="preserve" text-anchor="middle" x="154.26" y="-214.2" font-family="Times,serif" font-size="14.00">base</text>
</g>
<!-- rover.flows.ground -->
<g id="node22" class="node">
<title>rover.flows.ground</title>
<ellipse fill="lightgrey" stroke="grey" stroke-width="0" cx="1316.01" cy="-510.25" rx="70.29" ry="18"/>
<text xml:space="preserve" text-anchor="middle" x="1316.01" y="-505.2" font-family="Times,serif" font-size="14.00">ground: Ground</text>
</g>
<!-- rover.flows.ground&#45;&gt;__main__.Ground -->
<g id="edge5" class="edge">
<title>rover.flows.ground-&gt;__main__.Ground</title>
<path fill="none" stroke="black" d="M1316.01,-492.44C1316.01,-473.28 1316.01,-440.71 1316.01,-410.62"/>
<polygon fill="none" stroke="black" points="1319.51,-410.76 1316.01,-400.76 1312.51,-410.76 1319.51,-410.76"/>
<text xml:space="preserve" text-anchor="middle" x="1354.26" y="-454.45" font-family="Times,serif" font-size="14.00">&lt;inheritance&gt;</text>
<text xml:space="preserve" text-anchor="middle" x="1354.26" y="-437.95" font-family="Times,serif" font-size="14.00">base</text>
</g>
<!-- rover.flows.force -->
<g id="node23" class="node">
<title>rover.flows.force</title>
<ellipse fill="lightgrey" stroke="grey" stroke-width="0" cx="664.01" cy="-510.25" rx="55.96" ry="18"/>
<text xml:space="preserve" text-anchor="middle" x="664.01" y="-505.2" font-family="Times,serif" font-size="14.00">force: Force</text>
</g>
<!-- rover.flows.force&#45;&gt;__main__.Force -->
<g id="edge7" class="edge">
<title>rover.flows.force-&gt;__main__.Force</title>
<path fill="none" stroke="black" d="M664.01,-492.44C664.01,-472.16 664.01,-436.84 664.01,-405.35"/>
<polygon fill="none" stroke="black" points="667.51,-405.47 664.01,-395.47 660.51,-405.47 667.51,-405.47"/>
<text xml:space="preserve" text-anchor="middle" x="702.26" y="-454.45" font-family="Times,serif" font-size="14.00">&lt;inheritance&gt;</text>
<text xml:space="preserve" text-anchor="middle" x="702.26" y="-437.95" font-family="Times,serif" font-size="14.00">base</text>
</g>
<!-- rover.flows.ee -->
<g id="node24" class="node">
<title>rover.flows.ee</title>
<ellipse fill="lightgrey" stroke="grey" stroke-width="0" cx="783.01" cy="-510.25" rx="35.49" ry="18"/>
<text xml:space="preserve" text-anchor="middle" x="783.01" y="-505.2" font-family="Times,serif" font-size="14.00">ee: EE</text>
</g>
<!-- rover.flows.ee&#45;&gt;__main__.EE -->
<g id="edge9" class="edge">
<title>rover.flows.ee-&gt;__main__.EE</title>
<path fill="none" stroke="black" d="M783.01,-492.44C783.01,-470.57 783.01,-431.25 783.01,-398.06"/>
<polygon fill="none" stroke="black" points="786.51,-398.14 783.01,-388.14 779.51,-398.14 786.51,-398.14"/>
<text xml:space="preserve" text-anchor="middle" x="821.26" y="-454.45" font-family="Times,serif" font-size="14.00">&lt;inheritance&gt;</text>
<text xml:space="preserve" text-anchor="middle" x="821.26" y="-437.95" font-family="Times,serif" font-size="14.00">base</text>
</g>
<!-- rover.flows.video -->
<g id="node25" class="node">
<title>rover.flows.video</title>
<ellipse fill="lightgrey" stroke="grey" stroke-width="0" cx="899.01" cy="-510.25" rx="58.52" ry="18"/>
<text xml:space="preserve" text-anchor="middle" x="899.01" y="-505.2" font-family="Times,serif" font-size="14.00">video: Video</text>
</g>
<!-- rover.flows.video&#45;&gt;__main__.Video -->
<g id="edge11" class="edge">
<title>rover.flows.video-&gt;__main__.Video</title>
<path fill="none" stroke="black" d="M899.41,-492.44C899.88,-472.38 900.71,-437.62 901.45,-406.39"/>
<polygon fill="none" stroke="black" points="904.94,-406.67 901.68,-396.59 897.94,-406.51 904.94,-406.67"/>
<text xml:space="preserve" text-anchor="middle" x="939.02" y="-454.45" font-family="Times,serif" font-size="14.00">&lt;inheritance&gt;</text>
<text xml:space="preserve" text-anchor="middle" x="939.02" y="-437.95" font-family="Times,serif" font-size="14.00">base</text>
</g>
<!-- rover.flows.control -->
<g id="node26" class="node">
<title>rover.flows.control</title>
<ellipse fill="lightgrey" stroke="grey" stroke-width="0" cx="1046.01" cy="-510.25" rx="70.29" ry="18"/>
<text xml:space="preserve" text-anchor="middle" x="1046.01" y="-505.2" font-family="Times,serif" font-size="14.00">control: Control</text>
</g>
<!-- rover.flows.control&#45;&gt;__main__.Control -->
<g id="edge13" class="edge">
<title>rover.flows.control-&gt;__main__.Control</title>
<path fill="none" stroke="black" d="M1045.01,-492.44C1043.88,-473.28 1041.95,-440.71 1040.17,-410.62"/>
<polygon fill="none" stroke="black" points="1043.67,-410.53 1039.59,-400.75 1036.68,-410.94 1043.67,-410.53"/>
<text xml:space="preserve" text-anchor="middle" x="1081.58" y="-454.45" font-family="Times,serif" font-size="14.00">&lt;inheritance&gt;</text>
<text xml:space="preserve" text-anchor="middle" x="1081.58" y="-437.95" font-family="Times,serif" font-size="14.00">base</text>
</g>
<!-- rover.flows.comms -->
<g id="node27" class="node">
<title>rover.flows.comms</title>
<ellipse fill="lightgrey" stroke="grey" stroke-width="0" cx="1176.01" cy="-339.38" rx="62.61" ry="18"/>
<text xml:space="preserve" text-anchor="middle" x="1176.01" y="-334.32" font-family="Times,serif" font-size="14.00">comms: Flow</text>
</g>
<!-- rover.flows.comms&#45;&gt;fmdtools.define.flow.base.Flow -->
<g id="edge15" class="edge">
<title>rover.flows.comms-&gt;fmdtools.define.flow.base.Flow</title>
<path fill="none" stroke="black" d="M1166.44,-321.91C1151.55,-296.86 1121.27,-248.16 1090.01,-211 1072.8,-190.54 1052.3,-169.78 1033.25,-151.72"/>
<polygon fill="none" stroke="black" points="1035.7,-149.22 1026.01,-144.92 1030.91,-154.32 1035.7,-149.22"/>
<text xml:space="preserve" text-anchor="middle" x="1151.58" y="-230.7" font-family="Times,serif" font-size="14.00">&lt;inheritance&gt;</text>
<text xml:space="preserve" text-anchor="middle" x="1151.58" y="-214.2" font-family="Times,serif" font-size="14.00">base</text>
</g>
<!-- rover.fxns.control_rover -->
<g id="node28" class="node">
<title>rover.fxns.control_rover</title>
<polygon fill="lightgrey" stroke="grey" stroke-width="2" points="2303.63,-528.25 2132.38,-528.25 2132.38,-492.25 2303.63,-492.25 2303.63,-528.25"/>
<text xml:space="preserve" text-anchor="middle" x="2218.01" y="-505.2" font-family="Times,serif" font-size="14.00">control_rover: ControlRover</text>
</g>
<!-- rover.fxns.control_rover&#45;&gt;__main__.ControlRover -->
<g id="edge16" class="edge">
<title>rover.fxns.control_rover-&gt;__main__.ControlRover</title>
<path fill="none" stroke="black" d="M2216.54,-491.5C2215.23,-475.71 2213.21,-451.38 2211.18,-426.82"/>
<polygon fill="none" stroke="black" points="2214.68,-426.74 2210.37,-417.06 2207.71,-427.32 2214.68,-426.74"/>
<text xml:space="preserve" text-anchor="middle" x="2252.51" y="-454.45" font-family="Times,serif" font-size="14.00">&lt;inheritance&gt;</text>
<text xml:space="preserve" text-anchor="middle" x="2252.51" y="-437.95" font-family="Times,serif" font-size="14.00">base</text>
</g>
<!-- rover.fxns.store_energy -->
<g id="node29" class="node">
<title>rover.fxns.store_energy</title>
<polygon fill="lightgrey" stroke="grey" stroke-width="2" points="1565.38,-528.25 1404.63,-528.25 1404.63,-492.25 1565.38,-492.25 1565.38,-528.25"/>
<text xml:space="preserve" text-anchor="middle" x="1485.01" y="-505.2" font-family="Times,serif" font-size="14.00">store_energy: StoreEnergy</text>
</g>
<!-- rover.fxns.store_energy&#45;&gt;__main__.StoreEnergy -->
<g id="edge18" class="edge">
<title>rover.fxns.store_energy-&gt;__main__.StoreEnergy</title>
<path fill="none" stroke="black" d="M1485.85,-491.5C1486.63,-474.97 1487.86,-449.09 1489.08,-423.39"/>
<polygon fill="none" stroke="black" points="1492.57,-423.69 1489.54,-413.54 1485.57,-423.36 1492.57,-423.69"/>
<text xml:space="preserve" text-anchor="middle" x="1526.78" y="-454.45" font-family="Times,serif" font-size="14.00">&lt;inheritance&gt;</text>
<text xml:space="preserve" text-anchor="middle" x="1526.78" y="-437.95" font-family="Times,serif" font-size="14.00">base</text>
</g>
<!-- rover.fxns.move_rover -->
<g id="node30" class="node">
<title>rover.fxns.move_rover</title>
<polygon fill="lightgrey" stroke="grey" stroke-width="2" points="1738.38,-528.25 1583.63,-528.25 1583.63,-492.25 1738.38,-492.25 1738.38,-528.25"/>
<text xml:space="preserve" text-anchor="middle" x="1661.01" y="-505.2" font-family="Times,serif" font-size="14.00">move_rover: MoveRover</text>
</g>
<!-- rover.fxns.move_rover&#45;&gt;__main__.MoveRover -->
<g id="edge20" class="edge">
<title>rover.fxns.move_rover-&gt;__main__.MoveRover</title>
<path fill="none" stroke="black" d="M1661.85,-491.5C1662.64,-474.83 1663.88,-448.63 1665.11,-422.7"/>
<polygon fill="none" stroke="black" points="1668.6,-422.91 1665.58,-412.75 1661.61,-422.58 1668.6,-422.91"/>
<text xml:space="preserve" text-anchor="middle" x="1702.78" y="-454.45" font-family="Times,serif" font-size="14.00">&lt;inheritance&gt;</text>
<text xml:space="preserve" text-anchor="middle" x="1702.78" y="-437.95" font-family="Times,serif" font-size="14.00">base</text>
</g>
<!-- rover.fxns.view_ground -->
<g id="node31" class="node">
<title>rover.fxns.view_ground</title>
<polygon fill="lightgrey" stroke="grey" stroke-width="2" points="1921.26,-528.25 1756.76,-528.25 1756.76,-492.25 1921.26,-492.25 1921.26,-528.25"/>
<text xml:space="preserve" text-anchor="middle" x="1839.01" y="-505.2" font-family="Times,serif" font-size="14.00">view_ground: ViewGround</text>
</g>
<!-- rover.fxns.view_ground&#45;&gt;__main__.ViewGround -->
<g id="edge22" class="edge">
<title>rover.fxns.view_ground-&gt;__main__.ViewGround</title>
<path fill="none" stroke="black" d="M1839.01,-491.5C1839.01,-475.27 1839.01,-450.02 1839.01,-424.77"/>
<polygon fill="none" stroke="black" points="1842.51,-425.1 1839.01,-415.1 1835.51,-425.1 1842.51,-425.1"/>
<text xml:space="preserve" text-anchor="middle" x="1877.26" y="-454.45" font-family="Times,serif" font-size="14.00">&lt;inheritance&gt;</text>
<text xml:space="preserve" text-anchor="middle" x="1877.26" y="-437.95" font-family="Times,serif" font-size="14.00">base</text>
</g>
<!-- rover.fxns.communicate -->
<g id="node32" class="node">
<title>rover.fxns.communicate</title>
<polygon fill="lightgrey" stroke="grey" stroke-width="2" points="2114.51,-528.25 1939.51,-528.25 1939.51,-492.25 2114.51,-492.25 2114.51,-528.25"/>
<text xml:space="preserve" text-anchor="middle" x="2027.01" y="-505.2" font-family="Times,serif" font-size="14.00">communicate: Communicate</text>
</g>
<!-- rover.fxns.communicate&#45;&gt;__main__.Communicate -->
<g id="edge24" class="edge">
<title>rover.fxns.communicate-&gt;__main__.Communicate</title>
<path fill="none" stroke="black" d="M2026.06,-491.5C2025.24,-476.07 2023.99,-452.49 2022.71,-428.52"/>
<polygon fill="none" stroke="black" points="2026.21,-428.44 2022.18,-418.64 2019.22,-428.81 2026.21,-428.44"/>
<text xml:space="preserve" text-anchor="middle" x="2062.85" y="-454.45" font-family="Times,serif" font-size="14.00">&lt;inheritance&gt;</text>
<text xml:space="preserve" text-anchor="middle" x="2062.85" y="-437.95" font-family="Times,serif" font-size="14.00">base</text>
</g>
</g>
</svg>