<svg xmlns="http://www.w3.org/2000/svg" xmlns:xlink="http://www.w3.org/1999/xlink" width="1655pt" height="670pt" viewBox="0.00 0.00 1655.00 669.50">
<g id="graph0" class="graph" transform="scale(1 1) rotate(0) translate(4 665.5)">
<polygon fill="white" stroke="none" points="-4,4 -4,-665.5 1651,-665.5 1651,4 -4,4"/>
<!-- rover.fxns.move_rover -->
<g id="node1" class="node">
<title>rover.fxns.move_rover</title>
<polygon fill="lightgrey" stroke="grey" stroke-width="2" points="889.75,-661.5 732.75,-661.5 732.75,-625.5 889.75,-625.5 889.75,-661.5"/>
<text text-anchor="middle" x="811.25" y="-638.08" font-family="Times New Roman,serif" font-size="14.00">move_rover: MoveRover</text>
</g>
<!-- rover.fxns.move_rover.t -->
<g id="node2" class="node">
<title>rover.fxns.move_rover.t</title>
<polygon fill="lightgrey" stroke="grey" points="109.75,-503.12 66.75,-503.12 66.75,-507.12 54.75,-507.12 54.75,-467.12 109.75,-467.12 109.75,-503.12"/>
<polyline fill="none" stroke="grey" points="54.75,-503.12 66.75,-503.12"/>
<text text-anchor="middle" x="82.25" y="-479.7" font-family="Times New Roman,serif" font-size="14.00">t: Time</text>
</g>
<!-- rover.fxns.move_rover&#45;&gt;rover.fxns.move_rover.t -->
<g id="edge1" class="edge">
<title>rover.fxns.move_rover-&gt;rover.fxns.move_rover.t</title>
<path fill="none" stroke="black" d="M718.91,-642.63C575.71,-641.9 307.12,-636.53 216.25,-607.5 176.78,-594.89 167.88,-585.9 137.25,-558 119.36,-541.71 103.09,-519.01 92.97,-503.5"/>
<polygon fill="black" stroke="black" points="719.04,-642.63 725.06,-638.66 731.04,-642.68 725.03,-646.66 719.04,-642.63"/>
<text text-anchor="middle" x="258.25" y="-594.2" font-family="Times New Roman,serif" font-size="14.00">&lt;containment&gt;</text>
<text text-anchor="middle" x="258.25" y="-578.45" font-family="Times New Roman,serif" font-size="14.00">t</text>
</g>
<!-- rover.fxns.move_rover.sp -->
<g id="node3" class="node">
<title>rover.fxns.move_rover.sp</title>
<polygon fill="lightgrey" stroke="grey" points="239.88,-503.12 158.62,-503.12 158.62,-507.12 146.62,-507.12 146.62,-467.12 239.88,-467.12 239.88,-503.12"/>
<polyline fill="none" stroke="grey" points="146.62,-503.12 158.62,-503.12"/>
<text text-anchor="middle" x="193.25" y="-479.7" font-family="Times New Roman,serif" font-size="14.00">sp: SimParam</text>
</g>
<!-- rover.fxns.move_rover&#45;&gt;rover.fxns.move_rover.sp -->
<g id="edge2" class="edge">
<title>rover.fxns.move_rover-&gt;rover.fxns.move_rover.sp</title>
<path fill="none" stroke="black" d="M718.89,-640.99C607.69,-638.18 428.06,-630.17 365.25,-607.5 301.31,-584.42 239.49,-530.8 210.46,-503.21"/>
<polygon fill="black" stroke="black" points="718.86,-640.99 724.96,-637.14 730.86,-641.28 724.76,-645.13 718.86,-640.99"/>
<text text-anchor="middle" x="407.25" y="-594.2" font-family="Times New Roman,serif" font-size="14.00">&lt;containment&gt;</text>
<text text-anchor="middle" x="407.25" y="-578.45" font-family="Times New Roman,serif" font-size="14.00">sp</text>
</g>
<!-- rover.fxns.move_rover.s -->
<g id="node4" class="node">
<title>rover.fxns.move_rover.s</title>
<polygon fill="lightgrey" stroke="grey" points="434.88,-503.12 323.62,-503.12 323.62,-507.12 311.62,-507.12 311.62,-467.12 434.88,-467.12 434.88,-503.12"/>
<polyline fill="none" stroke="grey" points="311.62,-503.12 323.62,-503.12"/>
<text text-anchor="middle" x="373.25" y="-479.7" font-family="Times New Roman,serif" font-size="14.00">s: MoveRoverState</text>
</g>
<!-- rover.fxns.move_rover&#45;&gt;rover.fxns.move_rover.s -->
<g id="edge3" class="edge">
<title>rover.fxns.move_rover-&gt;rover.fxns.move_rover.s</title>
<path fill="none" stroke="black" d="M719.3,-638.55C642.18,-634.07 538.81,-624.98 501.25,-607.5 449.89,-583.59 405.91,-530.85 385.47,-503.44"/>
<polygon fill="black" stroke="black" points="719.04,-638.54 725.25,-634.88 731.02,-639.21 724.81,-642.87 719.04,-638.54"/>
<text text-anchor="middle" x="543.25" y="-594.2" font-family="Times New Roman,serif" font-size="14.00">&lt;containment&gt;</text>
<text text-anchor="middle" x="543.25" y="-578.45" font-family="Times New Roman,serif" font-size="14.00">s</text>
</g>
<!-- rover.fxns.move_rover.m -->
<g id="node5" class="node">
<title>rover.fxns.move_rover.m</title>
<polygon fill="lightgrey" stroke="grey" points="595.75,-503.12 474.75,-503.12 474.75,-507.12 462.75,-507.12 462.75,-467.12 595.75,-467.12 595.75,-503.12"/>
<polyline fill="none" stroke="grey" points="462.75,-503.12 474.75,-503.12"/>
<text text-anchor="middle" x="529.25" y="-479.7" font-family="Times New Roman,serif" font-size="14.00">m: MoveRoverMode</text>
</g>
<!-- rover.fxns.move_rover&#45;&gt;rover.fxns.move_rover.m -->
<g id="edge4" class="edge">
<title>rover.fxns.move_rover-&gt;rover.fxns.move_rover.m</title>
<path fill="none" stroke="black" d="M719.62,-638.54C687.63,-633.85 652.66,-624.76 624.25,-607.5 582.17,-581.94 551.5,-530.42 537.58,-503.46"/>
<polygon fill="black" stroke="black" points="719.38,-638.51 725.85,-635.32 731.28,-640.07 724.81,-643.25 719.38,-638.51"/>
<text text-anchor="middle" x="666.25" y="-594.2" font-family="Times New Roman,serif" font-size="14.00">&lt;containment&gt;</text>
<text text-anchor="middle" x="666.25" y="-578.45" font-family="Times New Roman,serif" font-size="14.00">m</text>
</g>
<!-- __main__.MoveRover -->
<g id="node17" class="node">
<title>__main__.MoveRover</title>
<polygon fill="lightgrey" stroke="grey" points="759.12,-558 613.38,-558 613.38,-412.25 759.12,-412.25 759.12,-558"/>
<polyline fill="none" stroke="grey" points="625.38,-558 613.38,-546"/>
<polyline fill="none" stroke="grey" points="613.38,-424.25 625.38,-412.25"/>
<polyline fill="none" stroke="grey" points="747.12,-412.25 759.12,-424.25"/>
<polyline fill="none" stroke="grey" points="759.12,-546 747.12,-558"/>
<text text-anchor="middle" x="686.25" y="-479.7" font-family="Times New Roman,serif" font-size="14.00">MoveRover: BaseType</text>
</g>
<!-- rover.fxns.move_rover&#45;&gt;__main__.MoveRover -->
<g id="edge11" class="edge">
<title>rover.fxns.move_rover-&gt;__main__.MoveRover</title>
<path fill="none" stroke="black" d="M754.77,-624.62C746.19,-620.06 738.04,-614.42 731.5,-607.5 720.96,-596.34 712.82,-582.51 706.56,-568.22"/>
<polygon fill="none" stroke="black" points="709.52,-567.22 702.51,-559.28 703.04,-569.86 709.52,-567.22"/>
<text text-anchor="middle" x="770.12" y="-594.2" font-family="Times New Roman,serif" font-size="14.00">&lt;inheritance&gt;</text>
<text text-anchor="middle" x="770.12" y="-578.45" font-family="Times New Roman,serif" font-size="14.00">base</text>
</g>
<!-- rover.flows.ee -->
<g id="node19" class="node">
<title>rover.flows.ee</title>
<ellipse fill="lightgrey" stroke="grey" stroke-width="0" cx="811.25" cy="-485.12" rx="34.1" ry="18"/>
<text text-anchor="middle" x="811.25" y="-479.7" font-family="Times New Roman,serif" font-size="14.00">ee: EE</text>
</g>
<!-- rover.fxns.move_rover&#45;&gt;rover.flows.ee -->
<g id="edge7" class="edge">
<title>rover.fxns.move_rover-&gt;rover.flows.ee</title>
<path fill="none" stroke="black" d="M811.25,-611.8C811.25,-579.2 811.25,-528.88 811.25,-502.91"/>
<polygon fill="none" stroke="black" points="811.25,-611.66 815.25,-617.66 811.25,-623.66 807.25,-617.66 811.25,-611.66"/>
<text text-anchor="middle" x="851.38" y="-594.2" font-family="Times New Roman,serif" font-size="14.00">&lt;aggregation&gt;</text>
<text text-anchor="middle" x="851.38" y="-578.45" font-family="Times New Roman,serif" font-size="14.00">ee</text>
</g>
<!-- rover.flows.control -->
<g id="node20" class="node">
<title>rover.flows.control</title>
<ellipse fill="lightgrey" stroke="grey" stroke-width="0" cx="933.25" cy="-485.12" rx="70.03" ry="18"/>
<text text-anchor="middle" x="933.25" y="-479.7" font-family="Times New Roman,serif" font-size="14.00">control: Control</text>
</g>
<!-- rover.fxns.move_rover&#45;&gt;rover.flows.control -->
<g id="edge8" class="edge">
<title>rover.fxns.move_rover-&gt;rover.flows.control</title>
<path fill="none" stroke="black" d="M883.13,-618.07C887.55,-614.95 891.66,-611.44 895.25,-607.5 922.49,-577.65 930.2,-528.45 932.39,-502.82"/>
<polygon fill="none" stroke="black" points="883.34,-617.94 880.31,-624.49 873.1,-624.21 876.13,-617.66 883.34,-617.94"/>
<text text-anchor="middle" x="954.38" y="-594.2" font-family="Times New Roman,serif" font-size="14.00">&lt;aggregation&gt;</text>
<text text-anchor="middle" x="954.38" y="-578.45" font-family="Times New Roman,serif" font-size="14.00">control</text>
</g>
<!-- rover.flows.ground -->
<g id="node21" class="node">
<title>rover.flows.ground</title>
<ellipse fill="lightgrey" stroke="grey" stroke-width="0" cx="1092.25" cy="-485.12" rx="70.52" ry="18"/>
<text text-anchor="middle" x="1092.25" y="-479.7" font-family="Times New Roman,serif" font-size="14.00">ground: Ground</text>
</g>
<!-- rover.fxns.move_rover&#45;&gt;rover.flows.ground -->
<g id="edge9" class="edge">
<title>rover.fxns.move_rover-&gt;rover.flows.ground</title>
<path fill="none" stroke="black" d="M902.93,-638.62C934.92,-633.94 969.88,-624.83 998.25,-607.5 1040.55,-581.66 1071.01,-529.29 1084.5,-502.59"/>
<polygon fill="none" stroke="black" points="903.16,-638.59 897.73,-643.33 891.26,-640.14 896.7,-635.4 903.16,-638.59"/>
<text text-anchor="middle" x="1074.38" y="-594.2" font-family="Times New Roman,serif" font-size="14.00">&lt;aggregation&gt;</text>
<text text-anchor="middle" x="1074.38" y="-578.45" font-family="Times New Roman,serif" font-size="14.00">ground</text>
</g>
<!-- rover.flows.force -->
<g id="node22" class="node">
<title>rover.flows.force</title>
<ellipse fill="lightgrey" stroke="grey" stroke-width="0" cx="1237.25" cy="-485.12" rx="56.55" ry="18"/>
<text text-anchor="middle" x="1237.25" y="-479.7" font-family="Times New Roman,serif" font-size="14.00">force: Force</text>
</g>
<!-- rover.fxns.move_rover&#45;&gt;rover.flows.force -->
<g id="edge10" class="edge">
<title>rover.fxns.move_rover-&gt;rover.flows.force</title>
<path fill="none" stroke="black" d="M903.42,-638.26C979.62,-633.6 1081.11,-624.43 1118.25,-607.5 1168.73,-584.49 1209.25,-529.82 1227.21,-502.4"/>
<polygon fill="none" stroke="black" points="903.35,-638.26 897.6,-642.61 891.37,-638.96 897.13,-634.62 903.35,-638.26"/>
<text text-anchor="middle" x="1204.38" y="-594.2" font-family="Times New Roman,serif" font-size="14.00">&lt;aggregation&gt;</text>
<text text-anchor="middle" x="1204.38" y="-578.45" font-family="Times New Roman,serif" font-size="14.00">force</text>
</g>
<!-- rover.fxns.move_rover.dynamic_behavior -->
<g id="node23" class="node">
<title>rover.fxns.move_rover.dynamic_behavior</title>
<polygon fill="lightgrey" stroke="grey" points="1479,-503.12 1311.5,-503.12 1311.5,-499.12 1307.5,-499.12 1307.5,-495.12 1311.5,-495.12 1311.5,-475.12 1307.5,-475.12 1307.5,-471.12 1311.5,-471.12 1311.5,-467.12 1479,-467.12 1479,-503.12"/>
<polyline fill="none" stroke="grey" points="1311.5,-499.12 1315.5,-499.12 1315.5,-495.12 1311.5,-495.12"/>
<polyline fill="none" stroke="grey" points="1311.5,-475.12 1315.5,-475.12 1315.5,-471.12 1311.5,-471.12"/>
<text text-anchor="middle" x="1395.25" y="-479.7" font-family="Times New Roman,serif" font-size="14.00">dynamic_behavior: method</text>
</g>
<!-- rover.fxns.move_rover&#45;&gt;rover.fxns.move_rover.dynamic_behavior -->
<g id="edge5" class="edge">
<title>rover.fxns.move_rover-&gt;rover.fxns.move_rover.dynamic_behavior</title>
<path fill="none" stroke="black" d="M903.29,-641.58C1012.63,-639.37 1187.84,-631.98 1248.25,-607.5 1305.3,-584.38 1357.05,-530.78 1381.08,-503.2"/>
<polygon fill="black" stroke="black" points="903.2,-641.58 897.27,-645.7 891.2,-641.81 897.12,-637.7 903.2,-641.58"/>
<text text-anchor="middle" x="1353.62" y="-594.2" font-family="Times New Roman,serif" font-size="14.00">&lt;containment&gt;</text>
<text text-anchor="middle" x="1353.62" y="-578.45" font-family="Times New Roman,serif" font-size="14.00">dynamic_behavior</text>
</g>
<!-- rover.fxns.move_rover.static_behavior -->
<g id="node24" class="node">
<title>rover.fxns.move_rover.static_behavior</title>
<polygon fill="lightgrey" stroke="grey" points="1647,-503.12 1497.5,-503.12 1497.5,-499.12 1493.5,-499.12 1493.5,-495.12 1497.5,-495.12 1497.5,-475.12 1493.5,-475.12 1493.5,-471.12 1497.5,-471.12 1497.5,-467.12 1647,-467.12 1647,-503.12"/>
<polyline fill="none" stroke="grey" points="1497.5,-499.12 1501.5,-499.12 1501.5,-495.12 1497.5,-495.12"/>
<polyline fill="none" stroke="grey" points="1497.5,-475.12 1501.5,-475.12 1501.5,-471.12 1497.5,-471.12"/>
<text text-anchor="middle" x="1572.25" y="-479.7" font-family="Times New Roman,serif" font-size="14.00">static_behavior: method</text>
</g>
<!-- rover.fxns.move_rover&#45;&gt;rover.fxns.move_rover.static_behavior -->
<g id="edge6" class="edge">
<title>rover.fxns.move_rover-&gt;rover.fxns.move_rover.static_behavior</title>
<path fill="none" stroke="black" d="M903.34,-642.67C1047.07,-641.99 1317.77,-636.71 1409.25,-607.5 1472.1,-587.43 1530.1,-531.92 1556.81,-503.45"/>
<polygon fill="black" stroke="black" points="903.58,-642.66 897.6,-646.69 891.58,-642.71 897.56,-638.69 903.58,-642.66"/>
<text text-anchor="middle" x="1510.62" y="-594.2" font-family="Times New Roman,serif" font-size="14.00">&lt;containment&gt;</text>
<text text-anchor="middle" x="1510.62" y="-578.45" font-family="Times New Roman,serif" font-size="14.00">static_behavior</text>
</g>
<!-- fmdtools.define.container.time.Time -->
<g id="node6" class="node">
<title>fmdtools.define.container.time.Time</title>
<polygon fill="lightgrey" stroke="grey" points="98.5,-309.12 0,-309.12 0,-210.62 98.5,-210.62 98.5,-309.12"/>
<polyline fill="none" stroke="grey" points="12,-309.12 0,-297.12"/>
<polyline fill="none" stroke="grey" points="0,-222.62 12,-210.62"/>
<polyline fill="none" stroke="grey" points="86.5,-210.62 98.5,-222.62"/>
<polyline fill="none" stroke="grey" points="98.5,-297.12 86.5,-309.12"/>
<text text-anchor="middle" x="49.25" y="-254.45" font-family="Times New Roman,serif" font-size="14.00">Time: datatype</text>
</g>
<!-- rover.fxns.move_rover.t&#45;&gt;fmdtools.define.container.time.Time -->
<g id="edge12" class="edge">
<title>rover.fxns.move_rover.t-&gt;fmdtools.define.container.time.Time</title>
<path fill="none" stroke="black" d="M79.72,-466.98C75.14,-436.03 65.31,-369.5 58.04,-320.36"/>
<polygon fill="none" stroke="black" points="61.37,-319.91 56.44,-310.53 54.44,-320.94 61.37,-319.91"/>
<text text-anchor="middle" x="107.12" y="-380.95" font-family="Times New Roman,serif" font-size="14.00">&lt;inheritance&gt;</text>
<text text-anchor="middle" x="107.12" y="-365.2" font-family="Times New Roman,serif" font-size="14.00">base</text>
</g>
<!-- fmdtools.define.block.base.SimParam -->
<g id="node7" class="node">
<title>fmdtools.define.block.base.SimParam</title>
<polygon fill="lightgrey" stroke="grey" points="243.75,-323.38 116.75,-323.38 116.75,-196.38 243.75,-196.38 243.75,-323.38"/>
<polyline fill="none" stroke="grey" points="128.75,-323.38 116.75,-311.38"/>
<polyline fill="none" stroke="grey" points="116.75,-208.38 128.75,-196.38"/>
<polyline fill="none" stroke="grey" points="231.75,-196.38 243.75,-208.38"/>
<polyline fill="none" stroke="grey" points="243.75,-311.38 231.75,-323.38"/>
<text text-anchor="middle" x="180.25" y="-254.45" font-family="Times New Roman,serif" font-size="14.00">SimParam: datatype</text>
</g>
<!-- rover.fxns.move_rover.sp&#45;&gt;fmdtools.define.block.base.SimParam -->
<g id="edge13" class="edge">
<title>rover.fxns.move_rover.sp-&gt;fmdtools.define.block.base.SimParam</title>
<path fill="none" stroke="black" d="M192.25,-466.98C190.62,-438.94 187.29,-381.69 184.54,-334.63"/>
<polygon fill="none" stroke="black" points="187.99,-334.61 183.92,-324.83 181,-335.02 187.99,-334.61"/>
<text text-anchor="middle" x="226.12" y="-380.95" font-family="Times New Roman,serif" font-size="14.00">&lt;inheritance&gt;</text>
<text text-anchor="middle" x="226.12" y="-365.2" font-family="Times New Roman,serif" font-size="14.00">base</text>
</g>
<!-- __main__.MoveRoverState -->
<g id="node8" class="node">
<title>__main__.MoveRoverState</title>
<polygon fill="lightgrey" stroke="grey" points="426.5,-342.12 262,-342.12 262,-177.62 426.5,-177.62 426.5,-342.12"/>
<polyline fill="none" stroke="grey" points="274,-342.12 262,-330.12"/>
<polyline fill="none" stroke="grey" points="262,-189.62 274,-177.62"/>
<polyline fill="none" stroke="grey" points="414.5,-177.62 426.5,-189.62"/>
<polyline fill="none" stroke="grey" points="426.5,-330.12 414.5,-342.12"/>
<text text-anchor="middle" x="344.25" y="-254.45" font-family="Times New Roman,serif" font-size="14.00">MoveRoverState: datatype</text>
</g>
<!-- rover.fxns.move_rover.s&#45;&gt;__main__.MoveRoverState -->
<g id="edge14" class="edge">
<title>rover.fxns.move_rover.s-&gt;__main__.MoveRoverState</title>
<path fill="none" stroke="black" d="M371.02,-466.98C367.85,-442.55 361.8,-395.96 356.25,-353.24"/>
<polygon fill="none" stroke="black" points="359.61,-352.95 354.85,-343.48 352.67,-353.85 359.61,-352.95"/>
<text text-anchor="middle" x="400.12" y="-380.95" font-family="Times New Roman,serif" font-size="14.00">&lt;inheritance&gt;</text>
<text text-anchor="middle" x="400.12" y="-365.2" font-family="Times New Roman,serif" font-size="14.00">base</text>
</g>
<!-- __main__.MoveRoverMode -->
<g id="node10" class="node">
<title>__main__.MoveRoverMode</title>
<polygon fill="lightgrey" stroke="grey" points="614.12,-344.75 444.38,-344.75 444.38,-175 614.12,-175 614.12,-344.75"/>
<polyline fill="none" stroke="grey" points="456.38,-344.75 444.38,-332.75"/>
<polyline fill="none" stroke="grey" points="444.38,-187 456.38,-175"/>
<polyline fill="none" stroke="grey" points="602.12,-175 614.12,-187"/>
<polyline fill="none" stroke="grey" points="614.12,-332.75 602.12,-344.75"/>
<text text-anchor="middle" x="529.25" y="-254.45" font-family="Times New Roman,serif" font-size="14.00">MoveRoverMode: datatype</text>
</g>
<!-- rover.fxns.move_rover.m&#45;&gt;__main__.MoveRoverMode -->
<g id="edge16" class="edge">
<title>rover.fxns.move_rover.m-&gt;__main__.MoveRoverMode</title>
<path fill="none" stroke="black" d="M529.25,-466.98C529.25,-443.07 529.25,-397.94 529.25,-355.98"/>
<polygon fill="none" stroke="black" points="532.75,-356.11 529.25,-346.11 525.75,-356.11 532.75,-356.11"/>
<text text-anchor="middle" x="567.12" y="-380.95" font-family="Times New Roman,serif" font-size="14.00">&lt;inheritance&gt;</text>
<text text-anchor="middle" x="567.12" y="-365.2" font-family="Times New Roman,serif" font-size="14.00">base</text>
</g>
<!-- fmdtools.define.container.state.State -->
<g id="node9" class="node">
<title>fmdtools.define.container.state.State</title>
<polygon fill="lightgrey" stroke="grey" points="393.12,-102.62 295.38,-102.62 295.38,-4.88 393.12,-4.88 393.12,-102.62"/>
<polyline fill="none" stroke="grey" points="307.38,-102.62 295.38,-90.62"/>
<polyline fill="none" stroke="grey" points="295.38,-16.88 307.38,-4.88"/>
<polyline fill="none" stroke="grey" points="381.12,-4.88 393.12,-16.88"/>
<polyline fill="none" stroke="grey" points="393.12,-90.62 381.12,-102.62"/>
<text text-anchor="middle" x="344.25" y="-48.33" font-family="Times New Roman,serif" font-size="14.00">State: datatype</text>
</g>
<!-- __main__.MoveRoverState&#45;&gt;fmdtools.define.container.state.State -->
<g id="edge15" class="edge">
<title>__main__.MoveRoverState-&gt;fmdtools.define.container.state.State</title>
<path fill="none" stroke="black" d="M344.25,-177.32C344.25,-156.05 344.25,-133.54 344.25,-113.7"/>
<polygon fill="none" stroke="black" points="347.75,-113.97 344.25,-103.97 340.75,-113.97 347.75,-113.97"/>
<text text-anchor="middle" x="382.12" y="-143.7" font-family="Times New Roman,serif" font-size="14.00">&lt;inheritance&gt;</text>
<text text-anchor="middle" x="382.12" y="-127.95" font-family="Times New Roman,serif" font-size="14.00">base</text>
</g>
<!-- fmdtools.define.container.mode.Mode -->
<g id="node11" class="node">
<title>fmdtools.define.container.mode.Mode</title>
<polygon fill="lightgrey" stroke="grey" points="580.75,-105.25 477.75,-105.25 477.75,-2.25 580.75,-2.25 580.75,-105.25"/>
<polyline fill="none" stroke="grey" points="489.75,-105.25 477.75,-93.25"/>
<polyline fill="none" stroke="grey" points="477.75,-14.25 489.75,-2.25"/>
<polyline fill="none" stroke="grey" points="568.75,-2.25 580.75,-14.25"/>
<polyline fill="none" stroke="grey" points="580.75,-93.25 568.75,-105.25"/>
<text text-anchor="middle" x="529.25" y="-48.33" font-family="Times New Roman,serif" font-size="14.00">Mode: datatype</text>
</g>
<!-- __main__.MoveRoverMode&#45;&gt;fmdtools.define.container.mode.Mode -->
<g id="edge17" class="edge">
<title>__main__.MoveRoverMode-&gt;fmdtools.define.container.mode.Mode</title>
<path fill="none" stroke="black" d="M529.25,-174.67C529.25,-155.21 529.25,-134.85 529.25,-116.55"/>
<polygon fill="none" stroke="black" points="532.75,-116.74 529.25,-106.74 525.75,-116.74 532.75,-116.74"/>
<text text-anchor="middle" x="567.12" y="-143.7" font-family="Times New Roman,serif" font-size="14.00">&lt;inheritance&gt;</text>
<text text-anchor="middle" x="567.12" y="-127.95" font-family="Times New Roman,serif" font-size="14.00">base</text>
</g>
<!-- __main__.EE -->
<g id="node12" class="node">
<title>__main__.EE</title>
<polygon fill="lightgrey" stroke="grey" points="874,-307.62 778.5,-307.62 778.5,-212.12 874,-212.12 874,-307.62"/>
<polyline fill="none" stroke="grey" points="790.5,-307.62 778.5,-295.62"/>
<polyline fill="none" stroke="grey" points="778.5,-224.12 790.5,-212.12"/>
<polyline fill="none" stroke="grey" points="862,-212.12 874,-224.12"/>
<polyline fill="none" stroke="grey" points="874,-295.62 862,-307.62"/>
<text text-anchor="middle" x="826.25" y="-254.45" font-family="Times New Roman,serif" font-size="14.00">EE: BaseType</text>
</g>
<!-- fmdtools.define.flow.base.Flow -->
<g id="node13" class="node">
<title>fmdtools.define.flow.base.Flow</title>
<polygon fill="lightgrey" stroke="grey" points="1076,-107.5 968.5,-107.5 968.5,0 1076,0 1076,-107.5"/>
<polyline fill="none" stroke="grey" points="980.5,-107.5 968.5,-95.5"/>
<polyline fill="none" stroke="grey" points="968.5,-12 980.5,0"/>
<polyline fill="none" stroke="grey" points="1064,0 1076,-12"/>
<polyline fill="none" stroke="grey" points="1076,-95.5 1064,-107.5"/>
<text text-anchor="middle" x="1022.25" y="-48.33" font-family="Times New Roman,serif" font-size="14.00">Flow: BaseType</text>
</g>
<!-- __main__.EE&#45;&gt;fmdtools.define.flow.base.Flow -->
<g id="edge19" class="edge">
<title>__main__.EE-&gt;fmdtools.define.flow.base.Flow</title>
<path fill="none" stroke="black" d="M842.77,-211.76C854.26,-184.12 871.79,-149.94 895.5,-125.5 913.23,-107.22 936.71,-92.35 958.64,-81.05"/>
<polygon fill="none" stroke="black" points="959.86,-83.85 967.25,-76.26 956.74,-77.58 959.86,-83.85"/>
<text text-anchor="middle" x="934.12" y="-143.7" font-family="Times New Roman,serif" font-size="14.00">&lt;inheritance&gt;</text>
<text text-anchor="middle" x="934.12" y="-127.95" font-family="Times New Roman,serif" font-size="14.00">base</text>
</g>
<!-- __main__.Control -->
<g id="node14" class="node">
<title>__main__.Control</title>
<polygon fill="lightgrey" stroke="grey" points="1014.12,-320.75 892.38,-320.75 892.38,-199 1014.12,-199 1014.12,-320.75"/>
<polyline fill="none" stroke="grey" points="904.38,-320.75 892.38,-308.75"/>
<polyline fill="none" stroke="grey" points="892.38,-211 904.38,-199"/>
<polyline fill="none" stroke="grey" points="1002.12,-199 1014.12,-211"/>
<polyline fill="none" stroke="grey" points="1014.12,-308.75 1002.12,-320.75"/>
<text text-anchor="middle" x="953.25" y="-254.45" font-family="Times New Roman,serif" font-size="14.00">Control: BaseType</text>
</g>
<!-- __main__.Control&#45;&gt;fmdtools.define.flow.base.Flow -->
<g id="edge21" class="edge">
<title>__main__.Control-&gt;fmdtools.define.flow.base.Flow</title>
<path fill="none" stroke="black" d="M963.86,-198.8C968.86,-175.51 975.7,-148.87 984.5,-125.5 985.47,-122.93 986.51,-120.35 987.6,-117.75"/>
<polygon fill="none" stroke="black" points="991.19,-119.32 992.09,-108.76 984.8,-116.45 991.19,-119.32"/>
<text text-anchor="middle" x="1023.12" y="-143.7" font-family="Times New Roman,serif" font-size="14.00">&lt;inheritance&gt;</text>
<text text-anchor="middle" x="1023.12" y="-127.95" font-family="Times New Roman,serif" font-size="14.00">base</text>
</g>
<!-- __main__.Ground -->
<g id="node15" class="node">
<title>__main__.Ground</title>
<polygon fill="lightgrey" stroke="grey" points="1154.5,-321.12 1032,-321.12 1032,-198.62 1154.5,-198.62 1154.5,-321.12"/>
<polyline fill="none" stroke="grey" points="1044,-321.12 1032,-309.12"/>
<polyline fill="none" stroke="grey" points="1032,-210.62 1044,-198.62"/>
<polyline fill="none" stroke="grey" points="1142.5,-198.62 1154.5,-210.62"/>
<polyline fill="none" stroke="grey" points="1154.5,-309.12 1142.5,-321.12"/>
<text text-anchor="middle" x="1093.25" y="-254.45" font-family="Times New Roman,serif" font-size="14.00">Ground: BaseType</text>
</g>
<!-- __main__.Ground&#45;&gt;fmdtools.define.flow.base.Flow -->
<g id="edge23" class="edge">
<title>__main__.Ground-&gt;fmdtools.define.flow.base.Flow</title>
<path fill="none" stroke="black" d="M1081.6,-198.13C1076.29,-175 1069.17,-148.65 1060.25,-125.5 1059.26,-122.94 1058.2,-120.35 1057.09,-117.76"/>
<polygon fill="none" stroke="black" points="1059.87,-116.43 1052.54,-108.78 1053.5,-119.33 1059.87,-116.43"/>
<text text-anchor="middle" x="1108.12" y="-143.7" font-family="Times New Roman,serif" font-size="14.00">&lt;inheritance&gt;</text>
<text text-anchor="middle" x="1108.12" y="-127.95" font-family="Times New Roman,serif" font-size="14.00">base</text>
</g>
<!-- __main__.Force -->
<g id="node16" class="node">
<title>__main__.Force</title>
<polygon fill="lightgrey" stroke="grey" points="1288.25,-315.88 1176.25,-315.88 1176.25,-203.88 1288.25,-203.88 1288.25,-315.88"/>
<polyline fill="none" stroke="grey" points="1188.25,-315.88 1176.25,-303.88"/>
<polyline fill="none" stroke="grey" points="1176.25,-215.88 1188.25,-203.88"/>
<polyline fill="none" stroke="grey" points="1276.25,-203.88 1288.25,-215.88"/>
<polyline fill="none" stroke="grey" points="1288.25,-303.88 1276.25,-315.88"/>
<text text-anchor="middle" x="1232.25" y="-254.45" font-family="Times New Roman,serif" font-size="14.00">Force: BaseType</text>
</g>
<!-- __main__.Force&#45;&gt;fmdtools.define.flow.base.Flow -->
<g id="edge25" class="edge">
<title>__main__.Force-&gt;fmdtools.define.flow.base.Flow</title>
<path fill="none" stroke="black" d="M1206.68,-203.7C1192.68,-177.72 1173.45,-147.65 1150.25,-125.5 1131.77,-107.86 1108.05,-93.16 1086.06,-81.81"/>
<polygon fill="none" stroke="black" points="1087.94,-78.33 1077.43,-76.99 1084.8,-84.6 1087.94,-78.33"/>
<text text-anchor="middle" x="1214.12" y="-143.7" font-family="Times New Roman,serif" font-size="14.00">&lt;inheritance&gt;</text>
<text text-anchor="middle" x="1214.12" y="-127.95" font-family="Times New Roman,serif" font-size="14.00">base</text>
</g>
<!-- fmdtools.define.block.function.Function -->
<g id="node18" class="node">
<title>fmdtools.define.block.function.Function</title>
<polygon fill="lightgrey" stroke="grey" points="760.5,-324.12 632,-324.12 632,-195.62 760.5,-195.62 760.5,-324.12"/>
<polyline fill="none" stroke="grey" points="644,-324.12 632,-312.12"/>
<polyline fill="none" stroke="grey" points="632,-207.62 644,-195.62"/>
<polyline fill="none" stroke="grey" points="748.5,-195.62 760.5,-207.62"/>
<polyline fill="none" stroke="grey" points="760.5,-312.12 748.5,-324.12"/>
<text text-anchor="middle" x="696.25" y="-254.45" font-family="Times New Roman,serif" font-size="14.00">Function: BaseType</text>
</g>
<!-- __main__.MoveRover&#45;&gt;fmdtools.define.block.function.Function -->
<g id="edge26" class="edge">
<title>__main__.MoveRover-&gt;fmdtools.define.block.function.Function</title>
<path fill="none" stroke="black" d="M689.48,-411.95C690.58,-387.43 691.81,-359.99 692.92,-335.29"/>
<polygon fill="none" stroke="black" points="696.45,-335.67 693.4,-325.52 689.45,-335.36 696.45,-335.67"/>
<text text-anchor="middle" x="730.12" y="-380.95" font-family="Times New Roman,serif" font-size="14.00">&lt;inheritance&gt;</text>
<text text-anchor="middle" x="730.12" y="-365.2" font-family="Times New Roman,serif" font-size="14.00">base</text>
</g>
<!-- rover.flows.ee&#45;&gt;__main__.EE -->
<g id="edge18" class="edge">
<title>rover.flows.ee-&gt;__main__.EE</title>
<path fill="none" stroke="black" d="M812.38,-467.34C814.47,-436.23 819.03,-368.27 822.36,-318.79"/>
<polygon fill="none" stroke="black" points="825.91,-319.12 823.09,-308.91 818.93,-318.65 825.91,-319.12"/>
<text text-anchor="middle" x="857.12" y="-380.95" font-family="Times New Roman,serif" font-size="14.00">&lt;inheritance&gt;</text>
<text text-anchor="middle" x="857.12" y="-365.2" font-family="Times New Roman,serif" font-size="14.00">base</text>
</g>
<!-- rover.flows.control&#45;&gt;__main__.Control -->
<g id="edge20" class="edge">
<title>rover.flows.control-&gt;__main__.Control</title>
<path fill="none" stroke="black" d="M934.75,-467.34C937.3,-438.93 942.6,-379.79 946.87,-332.06"/>
<polygon fill="none" stroke="black" points="950.45,-332.4 947.85,-322.13 943.47,-331.78 950.45,-332.4"/>
<text text-anchor="middle" x="982.12" y="-380.95" font-family="Times New Roman,serif" font-size="14.00">&lt;inheritance&gt;</text>
<text text-anchor="middle" x="982.12" y="-365.2" font-family="Times New Roman,serif" font-size="14.00">base</text>
</g>
<!-- rover.flows.ground&#45;&gt;__main__.Ground -->
<g id="edge22" class="edge">
<title>rover.flows.ground-&gt;__main__.Ground</title>
<path fill="none" stroke="black" d="M1092.33,-467.34C1092.45,-439.03 1092.72,-380.18 1092.93,-332.53"/>
<polygon fill="none" stroke="black" points="1096.43,-332.63 1092.98,-322.62 1089.43,-332.6 1096.43,-332.63"/>
<text text-anchor="middle" x="1131.12" y="-380.95" font-family="Times New Roman,serif" font-size="14.00">&lt;inheritance&gt;</text>
<text text-anchor="middle" x="1131.12" y="-365.2" font-family="Times New Roman,serif" font-size="14.00">base</text>
</g>
<!-- rover.flows.force&#45;&gt;__main__.Force -->
<g id="edge24" class="edge">
<title>rover.flows.force-&gt;__main__.Force</title>
<path fill="none" stroke="black" d="M1236.87,-467.34C1236.22,-437.93 1234.82,-375.58 1233.73,-327.05"/>
<polygon fill="none" stroke="black" points="1237.21,-327.21 1233.49,-317.29 1230.22,-327.37 1237.21,-327.21"/>
<text text-anchor="middle" x="1273.12" y="-380.95" font-family="Times New Roman,serif" font-size="14.00">&lt;inheritance&gt;</text>
<text text-anchor="middle" x="1273.12" y="-365.2" font-family="Times New Roman,serif" font-size="14.00">base</text>
</g>
</g>
</svg>