<svg xmlns="http://www.w3.org/2000/svg" xmlns:xlink="http://www.w3.org/1999/xlink" width="3607pt" height="517pt" viewBox="0.00 0.00 3607.38 517.00">
<g id="graph0" class="graph" transform="scale(1 1) rotate(0) translate(4 513)">
<polygon fill="white" stroke="none" points="-4,4 -4,-513 3603.38,-513 3603.38,4 -4,4"/>
<!-- rover.fxns.plan_path -->
<g id="node1" class="node">
<title>rover.fxns.plan_path</title>
<polygon fill="lightgrey" stroke="grey" stroke-width="2" points="1760.38,-509 1387.38,-509 1387.38,-469.5 1760.38,-469.5 1760.38,-509"/>
<text text-anchor="middle" x="1573.88" y="-491.7" font-family="Times New Roman,serif" font-size="14.00">plan_path: PlanPath</text>
<text text-anchor="middle" x="1573.88" y="-475.95" font-family="Times New Roman,serif" font-size="14.00">Plan the next drive move based on the current state of the rover.</text>
</g>
<!-- rover.fxns.plan_path.m -->
<g id="node2" class="node">
<title>rover.fxns.plan_path.m</title>
<polygon fill="lightgrey" stroke="grey" points="373.75,-339 12,-339 12,-343 0,-343 0,-63 373.75,-63 373.75,-339"/>
<polyline fill="none" stroke="grey" points="0,-339 12,-339"/>
<text text-anchor="middle" x="186.88" y="-321.7" font-family="Times New Roman,serif" font-size="14.00">m: PlanPathMode</text>
<text text-anchor="middle" x="186.88" y="-305.95" font-family="Times New Roman,serif" font-size="14.00">Possible modes for rover path planning.</text>
<text text-anchor="middle" x="186.88" y="-274.2" font-family="Times New Roman,serif" font-size="14.00">Modes</text>
<text text-anchor="middle" x="186.88" y="-258.45" font-family="Times New Roman,serif" font-size="14.00">-------</text>
<text text-anchor="middle" x="186.88" y="-242.7" font-family="Times New Roman,serif" font-size="14.00">no_con : Fault</text>
<text text-anchor="middle" x="186.88" y="-226.95" font-family="Times New Roman,serif" font-size="14.00">....Inability to send path planning commands</text>
<text text-anchor="middle" x="186.88" y="-211.2" font-family="Times New Roman,serif" font-size="14.00">crash : Fault</text>
<text text-anchor="middle" x="186.88" y="-195.45" font-family="Times New Roman,serif" font-size="14.00">....Rover crashed or maximum deviation from the path breached</text>
<text text-anchor="middle" x="186.88" y="-179.7" font-family="Times New Roman,serif" font-size="14.00">drive : Mode</text>
<text text-anchor="middle" x="186.88" y="-163.95" font-family="Times New Roman,serif" font-size="14.00">....Rover is in operation and sending position signals</text>
<text text-anchor="middle" x="186.88" y="-148.2" font-family="Times New Roman,serif" font-size="14.00">standby : Mode</text>
<text text-anchor="middle" x="186.88" y="-132.45" font-family="Times New Roman,serif" font-size="14.00">....Rover is in standby</text>
<text text-anchor="middle" x="186.88" y="-116.7" font-family="Times New Roman,serif" font-size="14.00">em_off : Mode</text>
<text text-anchor="middle" x="186.88" y="-100.95" font-family="Times New Roman,serif" font-size="14.00">....Rover is shut off due to an emergency</text>
<text text-anchor="middle" x="186.88" y="-85.2" font-family="Times New Roman,serif" font-size="14.00">finished : Mode</text>
<text text-anchor="middle" x="186.88" y="-69.45" font-family="Times New Roman,serif" font-size="14.00">....Rover has competed the mission</text>
</g>
<!-- rover.fxns.plan_path&#45;&gt;rover.fxns.plan_path.m -->
<g id="edge1" class="edge">
<title>rover.fxns.plan_path-&gt;rover.fxns.plan_path.m</title>
<path fill="none" stroke="black" d="M1373.72,-486.8C1193.62,-483.87 921.97,-475.42 686.88,-451.5 550.69,-437.64 504.39,-465.03 382.88,-402 352.23,-386.11 323.51,-363.65 298,-339.48"/>
<polygon fill="black" stroke="black" points="1373.62,-486.8 1379.69,-482.9 1385.62,-486.99 1379.56,-490.89 1373.62,-486.8"/>
<text text-anchor="middle" x="728.88" y="-438.2" font-family="Times New Roman,serif" font-size="14.00">&lt;containment&gt;</text>
<text text-anchor="middle" x="728.88" y="-422.45" font-family="Times New Roman,serif" font-size="14.00">m</text>
</g>
<!-- rover.fxns.plan_path.p -->
<g id="node3" class="node">
<title>rover.fxns.plan_path.p</title>
<polygon fill="lightgrey" stroke="grey" points="737.5,-402 404.25,-402 404.25,-406 392.25,-406 392.25,0 737.5,0 737.5,-402"/>
<polyline fill="none" stroke="grey" points="392.25,-402 404.25,-402"/>
<text text-anchor="middle" x="564.88" y="-384.7" font-family="Times New Roman,serif" font-size="14.00">p: ResCorrection</text>
<text text-anchor="middle" x="564.88" y="-368.95" font-family="Times New Roman,serif" font-size="14.00">Correction parameters given faulty states.</text>
<text text-anchor="middle" x="564.88" y="-337.2" font-family="Times New Roman,serif" font-size="14.00">Fields</text>
<text text-anchor="middle" x="564.88" y="-321.45" font-family="Times New Roman,serif" font-size="14.00">------</text>
<text text-anchor="middle" x="564.88" y="-305.7" font-family="Times New Roman,serif" font-size="14.00">ub_f: float</text>
<text text-anchor="middle" x="564.88" y="-289.95" font-family="Times New Roman,serif" font-size="14.00">....upper bound of friction</text>
<text text-anchor="middle" x="564.88" y="-274.2" font-family="Times New Roman,serif" font-size="14.00">lb_f: float</text>
<text text-anchor="middle" x="564.88" y="-258.45" font-family="Times New Roman,serif" font-size="14.00">....lower bound of friction</text>
<text text-anchor="middle" x="564.88" y="-242.7" font-family="Times New Roman,serif" font-size="14.00">ub_t: float</text>
<text text-anchor="middle" x="564.88" y="-226.95" font-family="Times New Roman,serif" font-size="14.00">....upper bound of transfer</text>
<text text-anchor="middle" x="564.88" y="-211.2" font-family="Times New Roman,serif" font-size="14.00">lb_t: float</text>
<text text-anchor="middle" x="564.88" y="-195.45" font-family="Times New Roman,serif" font-size="14.00">....lower bound of transfer</text>
<text text-anchor="middle" x="564.88" y="-179.7" font-family="Times New Roman,serif" font-size="14.00">ub_d: float</text>
<text text-anchor="middle" x="564.88" y="-163.95" font-family="Times New Roman,serif" font-size="14.00">....upper bound of drift</text>
<text text-anchor="middle" x="564.88" y="-148.2" font-family="Times New Roman,serif" font-size="14.00">lb_d: float</text>
<text text-anchor="middle" x="564.88" y="-132.45" font-family="Times New Roman,serif" font-size="14.00">....lower bound of drift</text>
<text text-anchor="middle" x="564.88" y="-116.7" font-family="Times New Roman,serif" font-size="14.00">cor_d: float</text>
<text text-anchor="middle" x="564.88" y="-100.95" font-family="Times New Roman,serif" font-size="14.00">....correction factor for drift </text>
<text text-anchor="middle" x="564.88" y="-85.2" font-family="Times New Roman,serif" font-size="14.00">....(if drift is present, takes values between -1 and 1)</text>
<text text-anchor="middle" x="564.88" y="-69.45" font-family="Times New Roman,serif" font-size="14.00">cor_t: float</text>
<text text-anchor="middle" x="564.88" y="-53.7" font-family="Times New Roman,serif" font-size="14.00">....correction factor for transfer </text>
<text text-anchor="middle" x="564.88" y="-37.95" font-family="Times New Roman,serif" font-size="14.00">....(if transfer is low or hgih: takes values between -1 and 1)</text>
<text text-anchor="middle" x="564.88" y="-22.2" font-family="Times New Roman,serif" font-size="14.00">cor_f: float</text>
<text text-anchor="middle" x="564.88" y="-6.45" font-family="Times New Roman,serif" font-size="14.00">....correction for friction (if out of bounds)</text>
</g>
<!-- rover.fxns.plan_path&#45;&gt;rover.fxns.plan_path.p -->
<g id="edge2" class="edge">
<title>rover.fxns.plan_path-&gt;rover.fxns.plan_path.p</title>
<path fill="none" stroke="black" d="M1373.79,-485.98C1197.25,-482.5 953.83,-473.71 859.88,-451.5 806.52,-438.89 791.41,-433.98 746.88,-402 743.82,-399.81 740.79,-397.56 737.76,-395.26"/>
<polygon fill="black" stroke="black" points="1373.75,-485.97 1379.82,-482.09 1385.74,-486.2 1379.67,-490.09 1373.75,-485.97"/>
<text text-anchor="middle" x="901.88" y="-438.2" font-family="Times New Roman,serif" font-size="14.00">&lt;containment&gt;</text>
<text text-anchor="middle" x="901.88" y="-422.45" font-family="Times New Roman,serif" font-size="14.00">p</text>
</g>
<!-- rover.fxns.plan_path.s -->
<g id="node4" class="node">
<title>rover.fxns.plan_path.s</title>
<polygon fill="lightgrey" stroke="grey" points="963.88,-323.25 767.88,-323.25 767.88,-327.25 755.88,-327.25 755.88,-78.75 963.88,-78.75 963.88,-323.25"/>
<polyline fill="none" stroke="grey" points="755.88,-323.25 767.88,-323.25"/>
<text text-anchor="middle" x="859.88" y="-305.95" font-family="Times New Roman,serif" font-size="14.00">s: PlanPathState</text>
<text text-anchor="middle" x="859.88" y="-290.2" font-family="Times New Roman,serif" font-size="14.00">States used in rover path planning.</text>
<text text-anchor="middle" x="859.88" y="-258.45" font-family="Times New Roman,serif" font-size="14.00">Fields</text>
<text text-anchor="middle" x="859.88" y="-242.7" font-family="Times New Roman,serif" font-size="14.00">------</text>
<text text-anchor="middle" x="859.88" y="-226.95" font-family="Times New Roman,serif" font-size="14.00">u_self: tuple</text>
<text text-anchor="middle" x="859.88" y="-211.2" font-family="Times New Roman,serif" font-size="14.00">....Position of the ownship.</text>
<text text-anchor="middle" x="859.88" y="-195.45" font-family="Times New Roman,serif" font-size="14.00">u_lin: tuple</text>
<text text-anchor="middle" x="859.88" y="-179.7" font-family="Times New Roman,serif" font-size="14.00">....Position of the line.</text>
<text text-anchor="middle" x="859.88" y="-163.95" font-family="Times New Roman,serif" font-size="14.00">u_lin_dev: tuple</text>
<text text-anchor="middle" x="859.88" y="-148.2" font-family="Times New Roman,serif" font-size="14.00">....Deviation of ownship from line.</text>
<text text-anchor="middle" x="859.88" y="-132.45" font-family="Times New Roman,serif" font-size="14.00">rdiff: float</text>
<text text-anchor="middle" x="859.88" y="-116.7" font-family="Times New Roman,serif" font-size="14.00">....Projected turning around.</text>
<text text-anchor="middle" x="859.88" y="-100.95" font-family="Times New Roman,serif" font-size="14.00">vel_adj: float</text>
<text text-anchor="middle" x="859.88" y="-85.2" font-family="Times New Roman,serif" font-size="14.00">....Velocity adjustment (for faults).</text>
</g>
<!-- rover.fxns.plan_path&#45;&gt;rover.fxns.plan_path.s -->
<g id="edge3" class="edge">
<title>rover.fxns.plan_path-&gt;rover.fxns.plan_path.s</title>
<path fill="none" stroke="black" d="M1373.63,-485.74C1214.46,-482.1 1013.28,-473.22 980.88,-451.5 936.69,-421.88 908.1,-371.34 889.88,-323.47"/>
<polygon fill="black" stroke="black" points="1373.57,-485.74 1379.66,-481.87 1385.57,-486 1379.48,-489.87 1373.57,-485.74"/>
<text text-anchor="middle" x="1022.88" y="-438.2" font-family="Times New Roman,serif" font-size="14.00">&lt;containment&gt;</text>
<text text-anchor="middle" x="1022.88" y="-422.45" font-family="Times New Roman,serif" font-size="14.00">s</text>
</g>
<!-- rover.fxns.plan_path.sp -->
<g id="node5" class="node">
<title>rover.fxns.plan_path.sp</title>
<polygon fill="lightgrey" stroke="grey" points="1075.5,-219 994.25,-219 994.25,-223 982.25,-223 982.25,-183 1075.5,-183 1075.5,-219"/>
<polyline fill="none" stroke="grey" points="982.25,-219 994.25,-219"/>
<text text-anchor="middle" x="1028.88" y="-195.57" font-family="Times New Roman,serif" font-size="14.00">sp: SimParam</text>
</g>
<!-- rover.fxns.plan_path&#45;&gt;rover.fxns.plan_path.sp -->
<g id="edge4" class="edge">
<title>rover.fxns.plan_path-&gt;rover.fxns.plan_path.sp</title>
<path fill="none" stroke="black" d="M1373.69,-483.59C1252.74,-478.92 1117.78,-469.67 1095.88,-451.5 1024.43,-392.22 1024.72,-265.68 1027.45,-219.41"/>
<polygon fill="black" stroke="black" points="1373.58,-483.58 1379.73,-479.81 1385.57,-484.03 1379.43,-487.8 1373.58,-483.58"/>
<text text-anchor="middle" x="1137.88" y="-438.2" font-family="Times New Roman,serif" font-size="14.00">&lt;containment&gt;</text>
<text text-anchor="middle" x="1137.88" y="-422.45" font-family="Times New Roman,serif" font-size="14.00">sp</text>
</g>
<!-- rover.fxns.plan_path.t -->
<g id="node6" class="node">
<title>rover.fxns.plan_path.t</title>
<polygon fill="lightgrey" stroke="grey" points="1148.38,-219 1105.38,-219 1105.38,-223 1093.38,-223 1093.38,-183 1148.38,-183 1148.38,-219"/>
<polyline fill="none" stroke="grey" points="1093.38,-219 1105.38,-219"/>
<text text-anchor="middle" x="1120.88" y="-195.57" font-family="Times New Roman,serif" font-size="14.00">t: Time</text>
</g>
<!-- rover.fxns.plan_path&#45;&gt;rover.fxns.plan_path.t -->
<g id="edge5" class="edge">
<title>rover.fxns.plan_path-&gt;rover.fxns.plan_path.t</title>
<path fill="none" stroke="black" d="M1373.89,-470.01C1281.7,-457.17 1186.23,-436.01 1156.88,-402 1111,-348.85 1114.69,-257.48 1118.61,-219.43"/>
<polygon fill="black" stroke="black" points="1373.8,-470 1380.28,-466.84 1385.69,-471.61 1379.2,-474.77 1373.8,-470"/>
<text text-anchor="middle" x="1305.88" y="-438.2" font-family="Times New Roman,serif" font-size="14.00">&lt;containment&gt;</text>
<text text-anchor="middle" x="1305.88" y="-422.45" font-family="Times New Roman,serif" font-size="14.00">t</text>
</g>
<!-- rover.flows.auto_control -->
<g id="node7" class="node">
<title>rover.flows.auto_control</title>
<ellipse fill="lightgrey" stroke="grey" stroke-width="0" cx="1262.88" cy="-201" rx="96.7" ry="27.93"/>
<text text-anchor="middle" x="1262.88" y="-203.45" font-family="Times New Roman,serif" font-size="14.00">auto_control: Control</text>
<text text-anchor="middle" x="1262.88" y="-187.7" font-family="Times New Roman,serif" font-size="14.00">Control flow.</text>
</g>
<!-- rover.fxns.plan_path&#45;&gt;rover.flows.auto_control -->
<g id="edge10" class="edge">
<title>rover.fxns.plan_path-&gt;rover.flows.auto_control</title>
<path fill="none" stroke="black" d="M1477.38,-464.47C1439.74,-451.22 1398.59,-431.29 1368.88,-402 1317.38,-351.24 1285.15,-270.13 1271.09,-228.52"/>
<polygon fill="none" stroke="black" points="1477.24,-464.42 1484.2,-462.55 1488.61,-468.26 1481.65,-470.13 1477.24,-464.42"/>
<text text-anchor="middle" x="1485" y="-438.2" font-family="Times New Roman,serif" font-size="14.00">&lt;aggregation&gt;</text>
<text text-anchor="middle" x="1485" y="-422.45" font-family="Times New Roman,serif" font-size="14.00">control</text>
</g>
<!-- rover.flows.fault_sig -->
<g id="node8" class="node">
<title>rover.flows.fault_sig</title>
<ellipse fill="lightgrey" stroke="grey" stroke-width="0" cx="1460.88" cy="-201" rx="82.91" ry="27.93"/>
<text text-anchor="middle" x="1460.88" y="-203.45" font-family="Times New Roman,serif" font-size="14.00">fault_sig: FaultSig</text>
<text text-anchor="middle" x="1460.88" y="-187.7" font-family="Times New Roman,serif" font-size="14.00">Rover fault signal.</text>
</g>
<!-- rover.fxns.plan_path&#45;&gt;rover.flows.fault_sig -->
<g id="edge11" class="edge">
<title>rover.fxns.plan_path-&gt;rover.flows.fault_sig</title>
<path fill="none" stroke="black" d="M1561.32,-456.44C1538.82,-399.45 1492.06,-281 1471.25,-228.29"/>
<polygon fill="none" stroke="black" points="1561.37,-456.57 1567.29,-460.69 1565.78,-467.74 1559.85,-463.62 1561.37,-456.57"/>
<text text-anchor="middle" x="1598" y="-438.2" font-family="Times New Roman,serif" font-size="14.00">&lt;aggregation&gt;</text>
<text text-anchor="middle" x="1598" y="-422.45" font-family="Times New Roman,serif" font-size="14.00">fault_sig</text>
</g>
<!-- rover.flows.pos_signal -->
<g id="node9" class="node">
<title>rover.flows.pos_signal</title>
<ellipse fill="lightgrey" stroke="grey" stroke-width="0" cx="1687.88" cy="-201" rx="126.4" ry="27.93"/>
<text text-anchor="middle" x="1687.88" y="-203.45" font-family="Times New Roman,serif" font-size="14.00">pos_signal: Pos</text>
<text text-anchor="middle" x="1687.88" y="-187.7" font-family="Times New Roman,serif" font-size="14.00">Rover position/velocity flow.</text>
</g>
<!-- rover.fxns.plan_path&#45;&gt;rover.flows.pos_signal -->
<g id="edge13" class="edge">
<title>rover.fxns.plan_path-&gt;rover.flows.pos_signal</title>
<path fill="none" stroke="black" d="M1633.45,-460.78C1636.58,-457.95 1639.43,-454.86 1641.88,-451.5 1691.49,-383.29 1692.62,-277.51 1690.03,-228.54"/>
<polygon fill="none" stroke="black" points="1633.63,-460.64 1631.32,-467.47 1624.12,-467.96 1626.44,-461.14 1633.63,-460.64"/>
<text text-anchor="middle" x="1700" y="-438.2" font-family="Times New Roman,serif" font-size="14.00">&lt;aggregation&gt;</text>
<text text-anchor="middle" x="1700" y="-422.45" font-family="Times New Roman,serif" font-size="14.00">pos_signal</text>
</g>
<!-- rover.flows.video -->
<g id="node10" class="node">
<title>rover.flows.video</title>
<ellipse fill="lightgrey" stroke="grey" stroke-width="0" cx="1893.88" cy="-201" rx="61.7" ry="27.93"/>
<text text-anchor="middle" x="1893.88" y="-203.45" font-family="Times New Roman,serif" font-size="14.00">video: Video</text>
<text text-anchor="middle" x="1893.88" y="-187.7" font-family="Times New Roman,serif" font-size="14.00">Video flow.</text>
</g>
<!-- rover.fxns.plan_path&#45;&gt;rover.flows.video -->
<g id="edge14" class="edge">
<title>rover.fxns.plan_path-&gt;rover.flows.video</title>
<path fill="none" stroke="black" d="M1727.18,-464.46C1763.56,-451.67 1798.76,-432.06 1822.88,-402 1865.07,-349.41 1883.22,-269.8 1890.14,-228.68"/>
<polygon fill="none" stroke="black" points="1727.06,-464.5 1722.62,-470.18 1715.67,-468.26 1720.11,-462.58 1727.06,-464.5"/>
<text text-anchor="middle" x="1844" y="-438.2" font-family="Times New Roman,serif" font-size="14.00">&lt;aggregation&gt;</text>
<text text-anchor="middle" x="1844" y="-422.45" font-family="Times New Roman,serif" font-size="14.00">video</text>
</g>
<!-- rover.flows.ground -->
<g id="node11" class="node">
<title>rover.flows.ground</title>
<polygon fill="lightgrey" stroke="grey" stroke-width="0" points="2286.2,-188.48 2286.2,-213.52 2194.63,-231.23 2065.12,-231.23 1973.55,-213.52 1973.55,-188.48 2065.12,-170.77 2194.63,-170.77 2286.2,-188.48"/>
<text text-anchor="middle" x="2129.88" y="-203.45" font-family="Times New Roman,serif" font-size="14.00">ground: Ground</text>
<text text-anchor="middle" x="2129.88" y="-187.7" font-family="Times New Roman,serif" font-size="14.00">Ground environment of the rover.</text>
</g>
<!-- rover.fxns.plan_path&#45;&gt;rover.flows.ground -->
<g id="edge12" class="edge">
<title>rover.fxns.plan_path-&gt;rover.flows.ground</title>
<path fill="none" stroke="black" d="M1774,-471.91C1821.73,-466.41 1865.34,-459.57 1887.88,-451.5 1998.66,-411.82 2081.08,-287.83 2114.07,-230.99"/>
<polygon fill="none" stroke="black" points="1773.94,-471.92 1768.43,-476.56 1762.02,-473.26 1767.53,-468.61 1773.94,-471.92"/>
<text text-anchor="middle" x="1987" y="-438.2" font-family="Times New Roman,serif" font-size="14.00">&lt;aggregation&gt;</text>
<text text-anchor="middle" x="1987" y="-422.45" font-family="Times New Roman,serif" font-size="14.00">ground</text>
</g>
<!-- rover.fxns.plan_path.correct_fault_vel -->
<g id="node12" class="node">
<title>rover.fxns.plan_path.correct_fault_vel</title>
<polygon fill="lightgrey" stroke="grey" points="2579.25,-220.75 2304.5,-220.75 2304.5,-216.75 2300.5,-216.75 2300.5,-212.75 2304.5,-212.75 2304.5,-189.25 2300.5,-189.25 2300.5,-185.25 2304.5,-185.25 2304.5,-181.25 2579.25,-181.25 2579.25,-220.75"/>
<polyline fill="none" stroke="grey" points="2304.5,-216.75 2308.5,-216.75 2308.5,-212.75 2304.5,-212.75"/>
<polyline fill="none" stroke="grey" points="2304.5,-189.25 2308.5,-189.25 2308.5,-185.25 2304.5,-185.25"/>
<text text-anchor="middle" x="2441.88" y="-203.45" font-family="Times New Roman,serif" font-size="14.00">correct_fault_vel: method</text>
<text text-anchor="middle" x="2441.88" y="-187.7" font-family="Times New Roman,serif" font-size="14.00">Slow down the rover when faults are detected.</text>
</g>
<!-- rover.fxns.plan_path&#45;&gt;rover.fxns.plan_path.correct_fault_vel -->
<g id="edge6" class="edge">
<title>rover.fxns.plan_path-&gt;rover.fxns.plan_path.correct_fault_vel</title>
<path fill="none" stroke="black" d="M1774.3,-483.25C1956.99,-475.33 2210.77,-454.86 2294.88,-402 2367.11,-356.59 2415.54,-261.78 2433.78,-221.15"/>
<polygon fill="black" stroke="black" points="1774.17,-483.25 1768.34,-487.5 1762.18,-483.76 1768,-479.51 1774.17,-483.25"/>
<text text-anchor="middle" x="2302.12" y="-438.2" font-family="Times New Roman,serif" font-size="14.00">&lt;containment&gt;</text>
<text text-anchor="middle" x="2302.12" y="-422.45" font-family="Times New Roman,serif" font-size="14.00">correct_fault_vel</text>
</g>
<!-- rover.fxns.plan_path.drive_control -->
<g id="node13" class="node">
<title>rover.fxns.plan_path.drive_control</title>
<polygon fill="lightgrey" stroke="grey" points="2930.88,-220.75 2596.88,-220.75 2596.88,-216.75 2592.88,-216.75 2592.88,-212.75 2596.88,-212.75 2596.88,-189.25 2592.88,-189.25 2592.88,-185.25 2596.88,-185.25 2596.88,-181.25 2930.88,-181.25 2930.88,-220.75"/>
<polyline fill="none" stroke="grey" points="2596.88,-216.75 2600.88,-216.75 2600.88,-212.75 2596.88,-212.75"/>
<polyline fill="none" stroke="grey" points="2596.88,-189.25 2600.88,-189.25 2600.88,-185.25 2596.88,-185.25"/>
<text text-anchor="middle" x="2763.88" y="-203.45" font-family="Times New Roman,serif" font-size="14.00">drive_control: method</text>
<text text-anchor="middle" x="2763.88" y="-187.7" font-family="Times New Roman,serif" font-size="14.00">Control of rpower/lpower signal based on percieved line.</text>
</g>
<!-- rover.fxns.plan_path&#45;&gt;rover.fxns.plan_path.drive_control -->
<g id="edge7" class="edge">
<title>rover.fxns.plan_path-&gt;rover.fxns.plan_path.drive_control</title>
<path fill="none" stroke="black" d="M1773.8,-487.62C1931.61,-485.01 2157.07,-476.58 2352.88,-451.5 2458.75,-437.94 2495.69,-455.81 2587.88,-402 2666.97,-355.83 2729,-261.44 2753.05,-221.04"/>
<polygon fill="black" stroke="black" points="1774.03,-487.62 1768.09,-491.71 1762.03,-487.81 1767.96,-483.71 1774.03,-487.62"/>
<text text-anchor="middle" x="2594.88" y="-438.2" font-family="Times New Roman,serif" font-size="14.00">&lt;containment&gt;</text>
<text text-anchor="middle" x="2594.88" y="-422.45" font-family="Times New Roman,serif" font-size="14.00">drive_control</text>
</g>
<!-- rover.fxns.plan_path.dynamic_behavior -->
<g id="node14" class="node">
<title>rover.fxns.plan_path.dynamic_behavior</title>
<polygon fill="lightgrey" stroke="grey" points="3370.38,-291.75 2949.38,-291.75 2949.38,-287.75 2945.38,-287.75 2945.38,-283.75 2949.38,-283.75 2949.38,-118.25 2945.38,-118.25 2945.38,-114.25 2949.38,-114.25 2949.38,-110.25 3370.38,-110.25 3370.38,-291.75"/>
<polyline fill="none" stroke="grey" points="2949.38,-287.75 2953.38,-287.75 2953.38,-283.75 2949.38,-283.75"/>
<polyline fill="none" stroke="grey" points="2949.38,-118.25 2953.38,-118.25 2953.38,-114.25 2949.38,-114.25"/>
<text text-anchor="middle" x="3159.88" y="-274.45" font-family="Times New Roman,serif" font-size="14.00">dynamic_behavior: method</text>
<text text-anchor="middle" x="3159.88" y="-258.7" font-family="Times New Roman,serif" font-size="14.00">Dynamic Behavior of Planning Module.</text>
<text text-anchor="middle" x="3159.88" y="-226.95" font-family="Times New Roman,serif" font-size="14.00">Step 1: Assign Operational Mode.</text>
<text text-anchor="middle" x="3159.88" y="-211.2" font-family="Times New Roman,serif" font-size="14.00">Step 2A: If Operational Mode is Drive determine if the rover has reached</text>
<text text-anchor="middle" x="3159.88" y="-195.45" font-family="Times New Roman,serif" font-size="14.00">the end point or emergency shut off is required and assign those modes</text>
<text text-anchor="middle" x="3159.88" y="-179.7" font-family="Times New Roman,serif" font-size="14.00">Step 2B: if none of the situations in step 2 applies, determines the</text>
<text text-anchor="middle" x="3159.88" y="-163.95" font-family="Times New Roman,serif" font-size="14.00">control signal for left and right motor power, based on percieced line</text>
<text text-anchor="middle" x="3159.88" y="-148.2" font-family="Times New Roman,serif" font-size="14.00">and current location.</text>
<text text-anchor="middle" x="3159.88" y="-132.45" font-family="Times New Roman,serif" font-size="14.00">Step 4: if mode is &quot;finished&quot; or &quot;em_off&quot;&quot; sets the left power and</text>
<text text-anchor="middle" x="3159.88" y="-116.7" font-family="Times New Roman,serif" font-size="14.00">right power control signal to 0.</text>
</g>
<!-- rover.fxns.plan_path&#45;&gt;rover.fxns.plan_path.dynamic_behavior -->
<g id="edge8" class="edge">
<title>rover.fxns.plan_path-&gt;rover.fxns.plan_path.dynamic_behavior</title>
<path fill="none" stroke="black" d="M1774.32,-489.08C1989.15,-488.16 2339.93,-481.47 2640.88,-451.5 2774.91,-438.15 2818.64,-460.7 2939.88,-402 2994,-375.79 3044.42,-332.02 3083.31,-292.09"/>
<polygon fill="black" stroke="black" points="1774.23,-489.08 1768.24,-493.1 1762.23,-489.12 1768.21,-485.1 1774.23,-489.08"/>
<text text-anchor="middle" x="2945.25" y="-438.2" font-family="Times New Roman,serif" font-size="14.00">&lt;containment&gt;</text>
<text text-anchor="middle" x="2945.25" y="-422.45" font-family="Times New Roman,serif" font-size="14.00">dynamic_behavior</text>
</g>
<!-- rover.fxns.plan_path.faultstates_in_bounds -->
<g id="node15" class="node">
<title>rover.fxns.plan_path.faultstates_in_bounds</title>
<polygon fill="lightgrey" stroke="grey" points="3599.38,-220.75 3388.38,-220.75 3388.38,-216.75 3384.38,-216.75 3384.38,-212.75 3388.38,-212.75 3388.38,-189.25 3384.38,-189.25 3384.38,-185.25 3388.38,-185.25 3388.38,-181.25 3599.38,-181.25 3599.38,-220.75"/>
<polyline fill="none" stroke="grey" points="3388.38,-216.75 3392.38,-216.75 3392.38,-212.75 3388.38,-212.75"/>
<polyline fill="none" stroke="grey" points="3388.38,-189.25 3392.38,-189.25 3392.38,-185.25 3388.38,-185.25"/>
<text text-anchor="middle" x="3493.88" y="-203.45" font-family="Times New Roman,serif" font-size="14.00">faultstates_in_bounds: method</text>
<text text-anchor="middle" x="3493.88" y="-187.7" font-family="Times New Roman,serif" font-size="14.00">Check if fault-states are in-bounds.</text>
</g>
<!-- rover.fxns.plan_path&#45;&gt;rover.fxns.plan_path.faultstates_in_bounds -->
<g id="edge9" class="edge">
<title>rover.fxns.plan_path-&gt;rover.fxns.plan_path.faultstates_in_bounds</title>
<path fill="none" stroke="black" d="M1773.83,-485.67C2108.63,-480.93 2768.75,-469.6 3000.88,-451.5 3170.24,-438.3 3238.84,-496.7 3379.88,-402 3445.74,-357.78 3478,-261.89 3489.17,-221.04"/>
<polygon fill="black" stroke="black" points="1773.98,-485.67 1768.04,-489.76 1761.98,-485.84 1767.92,-481.76 1773.98,-485.67"/>
<text text-anchor="middle" x="3409" y="-438.2" font-family="Times New Roman,serif" font-size="14.00">&lt;containment&gt;</text>
<text text-anchor="middle" x="3409" y="-422.45" font-family="Times New Roman,serif" font-size="14.00">faultstates_in_bounds</text>
</g>
</g>
</svg>