<svg xmlns="http://www.w3.org/2000/svg" xmlns:xlink="http://www.w3.org/1999/xlink" width="3507pt" height="517pt" viewBox="0.00 0.00 3507.00 517.00">
<g id="graph0" class="graph" transform="scale(1 1) rotate(0) translate(4 513)">
<polygon fill="white" stroke="none" points="-4,4 -4,-513 3503,-513 3503,4 -4,4"/>
<!-- rover.fxns.plan_path -->
<g id="node1" class="node">
<title>rover.fxns.plan_path</title>
<polygon fill="lightgrey" stroke="grey" stroke-width="2" points="1748,-509 1375,-509 1375,-469.5 1748,-469.5 1748,-509"/>
<text text-anchor="middle" x="1561.5" y="-491.7" font-family="Times New Roman,serif" font-size="14.00">plan_path: PlanPath</text>
<text text-anchor="middle" x="1561.5" y="-475.95" font-family="Times New Roman,serif" font-size="14.00">Plan the next drive move based on the current state of the rover.</text>
</g>
<!-- rover.fxns.plan_path.t -->
<g id="node2" class="node">
<title>rover.fxns.plan_path.t</title>
<polygon fill="lightgrey" stroke="grey" points="55,-219 12,-219 12,-223 0,-223 0,-183 55,-183 55,-219"/>
<polyline fill="none" stroke="grey" points="0,-219 12,-219"/>
<text text-anchor="middle" x="27.5" y="-195.57" font-family="Times New Roman,serif" font-size="14.00">t: Time</text>
</g>
<!-- rover.fxns.plan_path&#45;&gt;rover.fxns.plan_path.t -->
<g id="edge1" class="edge">
<title>rover.fxns.plan_path-&gt;rover.fxns.plan_path.t</title>
<path fill="none" stroke="black" d="M1361.18,-486.03C983.85,-481.43 200.3,-469.75 143.5,-451.5 106.18,-439.51 92.42,-434.5 70.5,-402 31.28,-343.85 26.98,-256.38 27.07,-219.45"/>
<polygon fill="black" stroke="black" points="1361.25,-486.03 1367.3,-482.1 1373.25,-486.17 1367.21,-490.1 1361.25,-486.03"/>
<text text-anchor="middle" x="185.5" y="-438.2" font-family="Times New Roman,serif" font-size="14.00">&lt;containment&gt;</text>
<text text-anchor="middle" x="185.5" y="-422.45" font-family="Times New Roman,serif" font-size="14.00">t</text>
</g>
<!-- rover.fxns.plan_path.sp -->
<g id="node3" class="node">
<title>rover.fxns.plan_path.sp</title>
<polygon fill="lightgrey" stroke="grey" points="173.12,-219 91.88,-219 91.88,-223 79.88,-223 79.88,-183 173.12,-183 173.12,-219"/>
<polyline fill="none" stroke="grey" points="79.88,-219 91.88,-219"/>
<text text-anchor="middle" x="126.5" y="-195.57" font-family="Times New Roman,serif" font-size="14.00">sp: SimParam</text>
</g>
<!-- rover.fxns.plan_path&#45;&gt;rover.fxns.plan_path.sp -->
<g id="edge2" class="edge">
<title>rover.fxns.plan_path-&gt;rover.fxns.plan_path.sp</title>
<path fill="none" stroke="black" d="M1361.19,-488.96C1000.08,-488.32 269.21,-477.57 182.5,-402 128,-354.5 124.52,-258.72 125.57,-219.43"/>
<polygon fill="black" stroke="black" points="1361.24,-488.96 1367.25,-484.96 1373.24,-488.97 1367.24,-492.96 1361.24,-488.96"/>
<text text-anchor="middle" x="412.5" y="-438.2" font-family="Times New Roman,serif" font-size="14.00">&lt;containment&gt;</text>
<text text-anchor="middle" x="412.5" y="-422.45" font-family="Times New Roman,serif" font-size="14.00">sp</text>
</g>
<!-- rover.fxns.plan_path.m -->
<g id="node4" class="node">
<title>rover.fxns.plan_path.m</title>
<polygon fill="lightgrey" stroke="grey" points="565.38,-339 203.62,-339 203.62,-343 191.62,-343 191.62,-63 565.38,-63 565.38,-339"/>
<polyline fill="none" stroke="grey" points="191.62,-339 203.62,-339"/>
<text text-anchor="middle" x="378.5" y="-321.7" font-family="Times New Roman,serif" font-size="14.00">m: PlanPathMode</text>
<text text-anchor="middle" x="378.5" y="-305.95" font-family="Times New Roman,serif" font-size="14.00">Possible modes for rover path planning.</text>
<text text-anchor="middle" x="378.5" y="-274.2" font-family="Times New Roman,serif" font-size="14.00">Modes</text>
<text text-anchor="middle" x="378.5" y="-258.45" font-family="Times New Roman,serif" font-size="14.00">-------</text>
<text text-anchor="middle" x="378.5" y="-242.7" font-family="Times New Roman,serif" font-size="14.00">no_con : Fault</text>
<text text-anchor="middle" x="378.5" y="-226.95" font-family="Times New Roman,serif" font-size="14.00">....Inability to send path planning commands</text>
<text text-anchor="middle" x="378.5" y="-211.2" font-family="Times New Roman,serif" font-size="14.00">crash : Fault</text>
<text text-anchor="middle" x="378.5" y="-195.45" font-family="Times New Roman,serif" font-size="14.00">....Rover crashed or maximum deviation from the path breached</text>
<text text-anchor="middle" x="378.5" y="-179.7" font-family="Times New Roman,serif" font-size="14.00">drive : Mode</text>
<text text-anchor="middle" x="378.5" y="-163.95" font-family="Times New Roman,serif" font-size="14.00">....Rover is in operation and sending position signals</text>
<text text-anchor="middle" x="378.5" y="-148.2" font-family="Times New Roman,serif" font-size="14.00">standby : Mode</text>
<text text-anchor="middle" x="378.5" y="-132.45" font-family="Times New Roman,serif" font-size="14.00">....Rover is in standby</text>
<text text-anchor="middle" x="378.5" y="-116.7" font-family="Times New Roman,serif" font-size="14.00">em_off : Mode</text>
<text text-anchor="middle" x="378.5" y="-100.95" font-family="Times New Roman,serif" font-size="14.00">....Rover is shut off due to an emergency</text>
<text text-anchor="middle" x="378.5" y="-85.2" font-family="Times New Roman,serif" font-size="14.00">finished : Mode</text>
<text text-anchor="middle" x="378.5" y="-69.45" font-family="Times New Roman,serif" font-size="14.00">....Rover has competed the mission</text>
</g>
<!-- rover.fxns.plan_path&#45;&gt;rover.fxns.plan_path.m -->
<g id="edge3" class="edge">
<title>rover.fxns.plan_path-&gt;rover.fxns.plan_path.m</title>
<path fill="none" stroke="black" d="M1361.29,-488.49C1113.22,-485.76 707.05,-470.49 574.5,-402 543.73,-386.1 514.9,-363.56 489.32,-339.3"/>
<polygon fill="black" stroke="black" points="1361.18,-488.49 1367.22,-484.55 1373.18,-488.61 1367.14,-492.55 1361.18,-488.49"/>
<text text-anchor="middle" x="794.5" y="-438.2" font-family="Times New Roman,serif" font-size="14.00">&lt;containment&gt;</text>
<text text-anchor="middle" x="794.5" y="-422.45" font-family="Times New Roman,serif" font-size="14.00">m</text>
</g>
<!-- rover.fxns.plan_path.p -->
<g id="node5" class="node">
<title>rover.fxns.plan_path.p</title>
<polygon fill="lightgrey" stroke="grey" points="929.12,-402 595.88,-402 595.88,-406 583.88,-406 583.88,0 929.12,0 929.12,-402"/>
<polyline fill="none" stroke="grey" points="583.88,-402 595.88,-402"/>
<text text-anchor="middle" x="756.5" y="-384.7" font-family="Times New Roman,serif" font-size="14.00">p: ResCorrection</text>
<text text-anchor="middle" x="756.5" y="-368.95" font-family="Times New Roman,serif" font-size="14.00">Correction parameters given faulty states.</text>
<text text-anchor="middle" x="756.5" y="-337.2" font-family="Times New Roman,serif" font-size="14.00">Fields</text>
<text text-anchor="middle" x="756.5" y="-321.45" font-family="Times New Roman,serif" font-size="14.00">------</text>
<text text-anchor="middle" x="756.5" y="-305.7" font-family="Times New Roman,serif" font-size="14.00">ub_f: float</text>
<text text-anchor="middle" x="756.5" y="-289.95" font-family="Times New Roman,serif" font-size="14.00">....upper bound of friction</text>
<text text-anchor="middle" x="756.5" y="-274.2" font-family="Times New Roman,serif" font-size="14.00">lb_f: float</text>
<text text-anchor="middle" x="756.5" y="-258.45" font-family="Times New Roman,serif" font-size="14.00">....lower bound of friction</text>
<text text-anchor="middle" x="756.5" y="-242.7" font-family="Times New Roman,serif" font-size="14.00">ub_t: float</text>
<text text-anchor="middle" x="756.5" y="-226.95" font-family="Times New Roman,serif" font-size="14.00">....upper bound of transfer</text>
<text text-anchor="middle" x="756.5" y="-211.2" font-family="Times New Roman,serif" font-size="14.00">lb_t: float</text>
<text text-anchor="middle" x="756.5" y="-195.45" font-family="Times New Roman,serif" font-size="14.00">....lower bound of transfer</text>
<text text-anchor="middle" x="756.5" y="-179.7" font-family="Times New Roman,serif" font-size="14.00">ub_d: float</text>
<text text-anchor="middle" x="756.5" y="-163.95" font-family="Times New Roman,serif" font-size="14.00">....upper bound of drift</text>
<text text-anchor="middle" x="756.5" y="-148.2" font-family="Times New Roman,serif" font-size="14.00">lb_d: float</text>
<text text-anchor="middle" x="756.5" y="-132.45" font-family="Times New Roman,serif" font-size="14.00">....lower bound of drift</text>
<text text-anchor="middle" x="756.5" y="-116.7" font-family="Times New Roman,serif" font-size="14.00">cor_d: float</text>
<text text-anchor="middle" x="756.5" y="-100.95" font-family="Times New Roman,serif" font-size="14.00">....correction factor for drift </text>
<text text-anchor="middle" x="756.5" y="-85.2" font-family="Times New Roman,serif" font-size="14.00">....(if drift is present, takes values between -1 and 1)</text>
<text text-anchor="middle" x="756.5" y="-69.45" font-family="Times New Roman,serif" font-size="14.00">cor_t: float</text>
<text text-anchor="middle" x="756.5" y="-53.7" font-family="Times New Roman,serif" font-size="14.00">....correction factor for transfer </text>
<text text-anchor="middle" x="756.5" y="-37.95" font-family="Times New Roman,serif" font-size="14.00">....(if transfer is low or hgih: takes values between -1 and 1)</text>
<text text-anchor="middle" x="756.5" y="-22.2" font-family="Times New Roman,serif" font-size="14.00">cor_f: float</text>
<text text-anchor="middle" x="756.5" y="-6.45" font-family="Times New Roman,serif" font-size="14.00">....correction for friction (if out of bounds)</text>
</g>
<!-- rover.fxns.plan_path&#45;&gt;rover.fxns.plan_path.p -->
<g id="edge4" class="edge">
<title>rover.fxns.plan_path-&gt;rover.fxns.plan_path.p</title>
<path fill="none" stroke="black" d="M1361.34,-482.42C1278.49,-477.44 1181.79,-468.28 1095.5,-451.5 1023.68,-437.53 1000.14,-441.42 938.5,-402 935.43,-400.04 932.39,-398.02 929.36,-395.93"/>
<polygon fill="black" stroke="black" points="1361.37,-482.42 1367.59,-478.78 1373.35,-483.12 1367.13,-486.77 1361.37,-482.42"/>
<text text-anchor="middle" x="1137.5" y="-438.2" font-family="Times New Roman,serif" font-size="14.00">&lt;containment&gt;</text>
<text text-anchor="middle" x="1137.5" y="-422.45" font-family="Times New Roman,serif" font-size="14.00">p</text>
</g>
<!-- rover.fxns.plan_path.s -->
<g id="node6" class="node">
<title>rover.fxns.plan_path.s</title>
<polygon fill="lightgrey" stroke="grey" points="1155.5,-323.25 959.5,-323.25 959.5,-327.25 947.5,-327.25 947.5,-78.75 1155.5,-78.75 1155.5,-323.25"/>
<polyline fill="none" stroke="grey" points="947.5,-323.25 959.5,-323.25"/>
<text text-anchor="middle" x="1051.5" y="-305.95" font-family="Times New Roman,serif" font-size="14.00">s: PlanPathState</text>
<text text-anchor="middle" x="1051.5" y="-290.2" font-family="Times New Roman,serif" font-size="14.00">States used in rover path planning.</text>
<text text-anchor="middle" x="1051.5" y="-258.45" font-family="Times New Roman,serif" font-size="14.00">Fields</text>
<text text-anchor="middle" x="1051.5" y="-242.7" font-family="Times New Roman,serif" font-size="14.00">------</text>
<text text-anchor="middle" x="1051.5" y="-226.95" font-family="Times New Roman,serif" font-size="14.00">u_self: tuple</text>
<text text-anchor="middle" x="1051.5" y="-211.2" font-family="Times New Roman,serif" font-size="14.00">....Position of the ownship.</text>
<text text-anchor="middle" x="1051.5" y="-195.45" font-family="Times New Roman,serif" font-size="14.00">u_lin: tuple</text>
<text text-anchor="middle" x="1051.5" y="-179.7" font-family="Times New Roman,serif" font-size="14.00">....Position of the line.</text>
<text text-anchor="middle" x="1051.5" y="-163.95" font-family="Times New Roman,serif" font-size="14.00">u_lin_dev: tuple</text>
<text text-anchor="middle" x="1051.5" y="-148.2" font-family="Times New Roman,serif" font-size="14.00">....Deviation of ownship from line.</text>
<text text-anchor="middle" x="1051.5" y="-132.45" font-family="Times New Roman,serif" font-size="14.00">rdiff: float</text>
<text text-anchor="middle" x="1051.5" y="-116.7" font-family="Times New Roman,serif" font-size="14.00">....Projected turning around.</text>
<text text-anchor="middle" x="1051.5" y="-100.95" font-family="Times New Roman,serif" font-size="14.00">vel_adj: float</text>
<text text-anchor="middle" x="1051.5" y="-85.2" font-family="Times New Roman,serif" font-size="14.00">....Velocity adjustment (for faults).</text>
</g>
<!-- rover.fxns.plan_path&#45;&gt;rover.fxns.plan_path.s -->
<g id="edge5" class="edge">
<title>rover.fxns.plan_path-&gt;rover.fxns.plan_path.s</title>
<path fill="none" stroke="black" d="M1361.39,-472.7C1310.85,-467.11 1264.22,-460.04 1240.5,-451.5 1202.57,-437.84 1192.09,-431.39 1164.5,-402 1142.93,-379.03 1123.92,-351.19 1107.93,-323.68"/>
<polygon fill="black" stroke="black" points="1361.48,-472.71 1367.87,-469.37 1373.41,-473.99 1367.02,-477.33 1361.48,-472.71"/>
<text text-anchor="middle" x="1282.5" y="-438.2" font-family="Times New Roman,serif" font-size="14.00">&lt;containment&gt;</text>
<text text-anchor="middle" x="1282.5" y="-422.45" font-family="Times New Roman,serif" font-size="14.00">s</text>
</g>
<!-- rover.flows.video -->
<g id="node7" class="node">
<title>rover.flows.video</title>
<ellipse fill="lightgrey" stroke="grey" stroke-width="0" cx="1235.5" cy="-201" rx="61.7" ry="27.93"/>
<text text-anchor="middle" x="1235.5" y="-203.45" font-family="Times New Roman,serif" font-size="14.00">video: Video</text>
<text text-anchor="middle" x="1235.5" y="-187.7" font-family="Times New Roman,serif" font-size="14.00">Video flow.</text>
</g>
<!-- rover.fxns.plan_path&#45;&gt;rover.flows.video -->
<g id="edge10" class="edge">
<title>rover.fxns.plan_path-&gt;rover.flows.video</title>
<path fill="none" stroke="black" d="M1420.16,-464.85C1379.23,-452.1 1337.32,-432.4 1306.5,-402 1257.97,-354.13 1242.5,-271 1237.66,-228.57"/>
<polygon fill="none" stroke="black" points="1420.16,-464.85 1427.05,-462.71 1431.67,-468.25 1424.78,-470.39 1420.16,-464.85"/>
<text text-anchor="middle" x="1419.62" y="-438.2" font-family="Times New Roman,serif" font-size="14.00">&lt;aggregation&gt;</text>
<text text-anchor="middle" x="1419.62" y="-422.45" font-family="Times New Roman,serif" font-size="14.00">video</text>
</g>
<!-- rover.flows.pos_signal -->
<g id="node8" class="node">
<title>rover.flows.pos_signal</title>
<ellipse fill="lightgrey" stroke="grey" stroke-width="0" cx="1441.5" cy="-201" rx="126.4" ry="27.93"/>
<text text-anchor="middle" x="1441.5" y="-203.45" font-family="Times New Roman,serif" font-size="14.00">pos_signal: Pos</text>
<text text-anchor="middle" x="1441.5" y="-187.7" font-family="Times New Roman,serif" font-size="14.00">Rover position/velocity flow.</text>
</g>
<!-- rover.fxns.plan_path&#45;&gt;rover.flows.pos_signal -->
<g id="edge11" class="edge">
<title>rover.fxns.plan_path-&gt;rover.flows.pos_signal</title>
<path fill="none" stroke="black" d="M1548.33,-456.83C1524.57,-400.15 1474.94,-281.76 1452.7,-228.71"/>
<polygon fill="none" stroke="black" points="1548.26,-456.68 1554.27,-460.66 1552.9,-467.74 1546.89,-463.76 1548.26,-456.68"/>
<text text-anchor="middle" x="1584.62" y="-438.2" font-family="Times New Roman,serif" font-size="14.00">&lt;aggregation&gt;</text>
<text text-anchor="middle" x="1584.62" y="-422.45" font-family="Times New Roman,serif" font-size="14.00">pos_signal</text>
</g>
<!-- rover.flows.auto_control -->
<g id="node9" class="node">
<title>rover.flows.auto_control</title>
<ellipse fill="lightgrey" stroke="grey" stroke-width="0" cx="1682.5" cy="-201" rx="96.7" ry="27.93"/>
<text text-anchor="middle" x="1682.5" y="-203.45" font-family="Times New Roman,serif" font-size="14.00">auto_control: Control</text>
<text text-anchor="middle" x="1682.5" y="-187.7" font-family="Times New Roman,serif" font-size="14.00">Control flow.</text>
</g>
<!-- rover.fxns.plan_path&#45;&gt;rover.flows.auto_control -->
<g id="edge13" class="edge">
<title>rover.fxns.plan_path-&gt;rover.flows.auto_control</title>
<path fill="none" stroke="black" d="M1619.94,-460.76C1623.1,-457.93 1626,-454.85 1628.5,-451.5 1679.26,-383.48 1684.3,-277.61 1683.61,-228.58"/>
<polygon fill="none" stroke="black" points="1620.05,-460.67 1617.71,-467.49 1610.52,-467.96 1612.86,-461.14 1620.05,-460.67"/>
<text text-anchor="middle" x="1687.62" y="-438.2" font-family="Times New Roman,serif" font-size="14.00">&lt;aggregation&gt;</text>
<text text-anchor="middle" x="1687.62" y="-422.45" font-family="Times New Roman,serif" font-size="14.00">control</text>
</g>
<!-- rover.flows.fault_sig -->
<g id="node10" class="node">
<title>rover.flows.fault_sig</title>
<ellipse fill="lightgrey" stroke="grey" stroke-width="0" cx="1880.5" cy="-201" rx="82.91" ry="27.93"/>
<text text-anchor="middle" x="1880.5" y="-203.45" font-family="Times New Roman,serif" font-size="14.00">fault_sig: FaultSig</text>
<text text-anchor="middle" x="1880.5" y="-187.7" font-family="Times New Roman,serif" font-size="14.00">Rover fault signal.</text>
</g>
<!-- rover.fxns.plan_path&#45;&gt;rover.flows.fault_sig -->
<g id="edge14" class="edge">
<title>rover.fxns.plan_path-&gt;rover.flows.fault_sig</title>
<path fill="none" stroke="black" d="M1699.54,-464.7C1710.59,-460.93 1721.39,-456.56 1731.5,-451.5 1820.38,-407.02 1860.7,-283.25 1874.57,-228.56"/>
<polygon fill="none" stroke="black" points="1699.74,-464.63 1695.25,-470.26 1688.31,-468.28 1692.81,-462.64 1699.74,-464.63"/>
<text text-anchor="middle" x="1815.62" y="-438.2" font-family="Times New Roman,serif" font-size="14.00">&lt;aggregation&gt;</text>
<text text-anchor="middle" x="1815.62" y="-422.45" font-family="Times New Roman,serif" font-size="14.00">fault_sig</text>
</g>
<!-- rover.flows.ground -->
<g id="node11" class="node">
<title>rover.flows.ground</title>
<polygon fill="lightgrey" stroke="grey" points="2185.62,-220.75 1981.38,-220.75 1981.38,-181.25 2185.62,-181.25 2185.62,-220.75"/>
<text text-anchor="middle" x="2083.5" y="-203.45" font-family="Times New Roman,serif" font-size="14.00">ground: Ground</text>
<text text-anchor="middle" x="2083.5" y="-187.7" font-family="Times New Roman,serif" font-size="14.00">Ground environment of the rover.</text>
</g>
<!-- rover.fxns.plan_path&#45;&gt;rover.flows.ground -->
<g id="edge12" class="edge">
<title>rover.fxns.plan_path-&gt;rover.flows.ground</title>
<path fill="none" stroke="black" d="M1761.37,-471.73C1794.47,-466.68 1828.19,-460.09 1859.5,-451.5 1912.38,-436.99 1931.95,-438.91 1972.5,-402 2030.06,-349.6 2064.55,-260.2 2077.55,-221.17"/>
<polygon fill="none" stroke="black" points="1761.48,-471.71 1756.13,-476.54 1749.61,-473.46 1754.96,-468.63 1761.48,-471.71"/>
<text text-anchor="middle" x="1988.62" y="-438.2" font-family="Times New Roman,serif" font-size="14.00">&lt;aggregation&gt;</text>
<text text-anchor="middle" x="1988.62" y="-422.45" font-family="Times New Roman,serif" font-size="14.00">ground</text>
</g>
<!-- rover.fxns.plan_path.correct_fault_vel -->
<g id="node12" class="node">
<title>rover.fxns.plan_path.correct_fault_vel</title>
<polygon fill="lightgrey" stroke="grey" points="2478.88,-220.75 2204.12,-220.75 2204.12,-216.75 2200.12,-216.75 2200.12,-212.75 2204.12,-212.75 2204.12,-189.25 2200.12,-189.25 2200.12,-185.25 2204.12,-185.25 2204.12,-181.25 2478.88,-181.25 2478.88,-220.75"/>
<polyline fill="none" stroke="grey" points="2204.12,-216.75 2208.12,-216.75 2208.12,-212.75 2204.12,-212.75"/>
<polyline fill="none" stroke="grey" points="2204.12,-189.25 2208.12,-189.25 2208.12,-185.25 2204.12,-185.25"/>
<text text-anchor="middle" x="2341.5" y="-203.45" font-family="Times New Roman,serif" font-size="14.00">correct_fault_vel: method</text>
<text text-anchor="middle" x="2341.5" y="-187.7" font-family="Times New Roman,serif" font-size="14.00">Slow down the rover when faults are detected.</text>
</g>
<!-- rover.fxns.plan_path&#45;&gt;rover.fxns.plan_path.correct_fault_vel -->
<g id="edge6" class="edge">
<title>rover.fxns.plan_path-&gt;rover.fxns.plan_path.correct_fault_vel</title>
<path fill="none" stroke="black" d="M1761.72,-480.91C1920.48,-471.51 2126.56,-450.17 2194.5,-402 2263.75,-352.9 2313.47,-260.93 2332.71,-221.15"/>
<polygon fill="black" stroke="black" points="1761.81,-480.91 1756.05,-485.25 1749.83,-481.6 1755.59,-477.26 1761.81,-480.91"/>
<text text-anchor="middle" x="2206.75" y="-438.2" font-family="Times New Roman,serif" font-size="14.00">&lt;containment&gt;</text>
<text text-anchor="middle" x="2206.75" y="-422.45" font-family="Times New Roman,serif" font-size="14.00">correct_fault_vel</text>
</g>
<!-- rover.fxns.plan_path.drive_control -->
<g id="node13" class="node">
<title>rover.fxns.plan_path.drive_control</title>
<polygon fill="lightgrey" stroke="grey" points="2830.5,-220.75 2496.5,-220.75 2496.5,-216.75 2492.5,-216.75 2492.5,-212.75 2496.5,-212.75 2496.5,-189.25 2492.5,-189.25 2492.5,-185.25 2496.5,-185.25 2496.5,-181.25 2830.5,-181.25 2830.5,-220.75"/>
<polyline fill="none" stroke="grey" points="2496.5,-216.75 2500.5,-216.75 2500.5,-212.75 2496.5,-212.75"/>
<polyline fill="none" stroke="grey" points="2496.5,-189.25 2500.5,-189.25 2500.5,-185.25 2496.5,-185.25"/>
<text text-anchor="middle" x="2663.5" y="-203.45" font-family="Times New Roman,serif" font-size="14.00">drive_control: method</text>
<text text-anchor="middle" x="2663.5" y="-187.7" font-family="Times New Roman,serif" font-size="14.00">Control of rpower/lpower signal based on percieved line.</text>
</g>
<!-- rover.fxns.plan_path&#45;&gt;rover.fxns.plan_path.drive_control -->
<g id="edge7" class="edge">
<title>rover.fxns.plan_path-&gt;rover.fxns.plan_path.drive_control</title>
<path fill="none" stroke="black" d="M1761.64,-486.11C1901.15,-482.57 2091.32,-473.63 2257.5,-451.5 2361.15,-437.7 2397.31,-454.91 2487.5,-402 2566.49,-355.66 2628.58,-261.36 2652.65,-221.01"/>
<polygon fill="black" stroke="black" points="1761.62,-486.11 1755.72,-490.26 1749.62,-486.41 1755.52,-482.26 1761.62,-486.11"/>
<text text-anchor="middle" x="2494.5" y="-438.2" font-family="Times New Roman,serif" font-size="14.00">&lt;containment&gt;</text>
<text text-anchor="middle" x="2494.5" y="-422.45" font-family="Times New Roman,serif" font-size="14.00">drive_control</text>
</g>
<!-- rover.fxns.plan_path.dynamic_behavior -->
<g id="node14" class="node">
<title>rover.fxns.plan_path.dynamic_behavior</title>
<polygon fill="lightgrey" stroke="grey" points="3270,-291.75 2849,-291.75 2849,-287.75 2845,-287.75 2845,-283.75 2849,-283.75 2849,-118.25 2845,-118.25 2845,-114.25 2849,-114.25 2849,-110.25 3270,-110.25 3270,-291.75"/>
<polyline fill="none" stroke="grey" points="2849,-287.75 2853,-287.75 2853,-283.75 2849,-283.75"/>
<polyline fill="none" stroke="grey" points="2849,-118.25 2853,-118.25 2853,-114.25 2849,-114.25"/>
<text text-anchor="middle" x="3059.5" y="-274.45" font-family="Times New Roman,serif" font-size="14.00">dynamic_behavior: method</text>
<text text-anchor="middle" x="3059.5" y="-258.7" font-family="Times New Roman,serif" font-size="14.00">Dynamic Behavior of Planning Module.</text>
<text text-anchor="middle" x="3059.5" y="-226.95" font-family="Times New Roman,serif" font-size="14.00">Step 1: Assign Operational Mode.</text>
<text text-anchor="middle" x="3059.5" y="-211.2" font-family="Times New Roman,serif" font-size="14.00">Step 2A: If Operational Mode is Drive determine if the rover has reached</text>
<text text-anchor="middle" x="3059.5" y="-195.45" font-family="Times New Roman,serif" font-size="14.00">the end point or emergency shut off is required and assign those modes</text>
<text text-anchor="middle" x="3059.5" y="-179.7" font-family="Times New Roman,serif" font-size="14.00">Step 2B: if none of the situations in step 2 applies, determines the</text>
<text text-anchor="middle" x="3059.5" y="-163.95" font-family="Times New Roman,serif" font-size="14.00">control signal for left and right motor power, based on percieced line</text>
<text text-anchor="middle" x="3059.5" y="-148.2" font-family="Times New Roman,serif" font-size="14.00">and current location.</text>
<text text-anchor="middle" x="3059.5" y="-132.45" font-family="Times New Roman,serif" font-size="14.00">Step 4: if mode is &quot;finished&quot; or &quot;em_off&quot;&quot; sets the left power and</text>
<text text-anchor="middle" x="3059.5" y="-116.7" font-family="Times New Roman,serif" font-size="14.00">right power control signal to 0.</text>
</g>
<!-- rover.fxns.plan_path&#45;&gt;rover.fxns.plan_path.dynamic_behavior -->
<g id="edge8" class="edge">
<title>rover.fxns.plan_path-&gt;rover.fxns.plan_path.dynamic_behavior</title>
<path fill="none" stroke="black" d="M1761.65,-488.13C1959.87,-486.28 2271.84,-478.67 2540.5,-451.5 2674.51,-437.95 2718.27,-460.7 2839.5,-402 2893.62,-375.79 2944.05,-332.02 2982.93,-292.09"/>
<polygon fill="black" stroke="black" points="1761.66,-488.13 1755.69,-492.18 1749.66,-488.24 1755.62,-484.18 1761.66,-488.13"/>
<text text-anchor="middle" x="2844.88" y="-438.2" font-family="Times New Roman,serif" font-size="14.00">&lt;containment&gt;</text>
<text text-anchor="middle" x="2844.88" y="-422.45" font-family="Times New Roman,serif" font-size="14.00">dynamic_behavior</text>
</g>
<!-- rover.fxns.plan_path.faultstates_in_bounds -->
<g id="node15" class="node">
<title>rover.fxns.plan_path.faultstates_in_bounds</title>
<polygon fill="lightgrey" stroke="grey" points="3499,-220.75 3288,-220.75 3288,-216.75 3284,-216.75 3284,-212.75 3288,-212.75 3288,-189.25 3284,-189.25 3284,-185.25 3288,-185.25 3288,-181.25 3499,-181.25 3499,-220.75"/>
<polyline fill="none" stroke="grey" points="3288,-216.75 3292,-216.75 3292,-212.75 3288,-212.75"/>
<polyline fill="none" stroke="grey" points="3288,-189.25 3292,-189.25 3292,-185.25 3288,-185.25"/>
<text text-anchor="middle" x="3393.5" y="-203.45" font-family="Times New Roman,serif" font-size="14.00">faultstates_in_bounds: method</text>
<text text-anchor="middle" x="3393.5" y="-187.7" font-family="Times New Roman,serif" font-size="14.00">Check if fault-states are in-bounds.</text>
</g>
<!-- rover.fxns.plan_path&#45;&gt;rover.fxns.plan_path.faultstates_in_bounds -->
<g id="edge9" class="edge">
<title>rover.fxns.plan_path-&gt;rover.fxns.plan_path.faultstates_in_bounds</title>
<path fill="none" stroke="black" d="M1761.64,-489.14C2023.69,-488.84 2497.19,-483.29 2900.5,-451.5 3069.85,-438.15 3138.47,-496.7 3279.5,-402 3345.36,-357.78 3377.63,-261.89 3388.8,-221.04"/>
<polygon fill="black" stroke="black" points="1761.83,-489.14 1755.84,-493.14 1749.83,-489.15 1755.83,-485.14 1761.83,-489.14"/>
<text text-anchor="middle" x="3308.62" y="-438.2" font-family="Times New Roman,serif" font-size="14.00">&lt;containment&gt;</text>
<text text-anchor="middle" x="3308.62" y="-422.45" font-family="Times New Roman,serif" font-size="14.00">faultstates_in_bounds</text>
</g>
</g>
</svg>