<svg xmlns="http://www.w3.org/2000/svg" xmlns:xlink="http://www.w3.org/1999/xlink" width="1628pt" height="1184pt" viewBox="0.00 0.00 1628.00 1184.00">
<g id="graph0" class="graph" transform="scale(1 1) rotate(0) translate(4 1180)">
<polygon fill="white" stroke="none" points="-4,4 -4,-1180 1624,-1180 1624,4 -4,4"/>
<!-- rover.fxns.move_rover -->
<g id="node1" class="node">
<title>rover.fxns.move_rover</title>
<polygon fill="lightgrey" stroke="grey" stroke-width="2" points="862.75,-1176 705.75,-1176 705.75,-1140 862.75,-1140 862.75,-1176"/>
<text text-anchor="middle" x="784.25" y="-1152.58" font-family="Times New Roman,serif" font-size="14.00">move_rover: MoveRover</text>
</g>
<!-- rover.fxns.move_rover.t -->
<g id="node2" class="node">
<title>rover.fxns.move_rover.t</title>
<polygon fill="lightgrey" stroke="grey" points="96.75,-1017.62 53.75,-1017.62 53.75,-1021.62 41.75,-1021.62 41.75,-981.62 96.75,-981.62 96.75,-1017.62"/>
<polyline fill="none" stroke="grey" points="41.75,-1017.62 53.75,-1017.62"/>
<text text-anchor="middle" x="69.25" y="-994.2" font-family="Times New Roman,serif" font-size="14.00">t: Time</text>
</g>
<!-- rover.fxns.move_rover&#45;&gt;rover.fxns.move_rover.t -->
<g id="edge1" class="edge">
<title>rover.fxns.move_rover-&gt;rover.fxns.move_rover.t</title>
<path fill="none" stroke="black" d="M692.21,-1157.08C548.9,-1156.29 279.44,-1150.85 188.25,-1122 148.39,-1109.39 136.96,-1102.89 108.25,-1072.5 93.14,-1056.5 82.03,-1033.53 75.62,-1017.89"/>
<polygon fill="black" stroke="black" points="691.93,-1157.08 697.95,-1153.11 703.93,-1157.14 697.91,-1161.11 691.93,-1157.08"/>
<text text-anchor="middle" x="230.25" y="-1108.7" font-family="Times New Roman,serif" font-size="14.00">&lt;containment&gt;</text>
<text text-anchor="middle" x="230.25" y="-1092.95" font-family="Times New Roman,serif" font-size="14.00">t</text>
</g>
<!-- rover.fxns.move_rover.sp -->
<g id="node3" class="node">
<title>rover.fxns.move_rover.sp</title>
<polygon fill="lightgrey" stroke="grey" points="210.88,-1017.62 129.62,-1017.62 129.62,-1021.62 117.62,-1021.62 117.62,-981.62 210.88,-981.62 210.88,-1017.62"/>
<polyline fill="none" stroke="grey" points="117.62,-1017.62 129.62,-1017.62"/>
<text text-anchor="middle" x="164.25" y="-994.2" font-family="Times New Roman,serif" font-size="14.00">sp: SimParam</text>
</g>
<!-- rover.fxns.move_rover&#45;&gt;rover.fxns.move_rover.sp -->
<g id="edge2" class="edge">
<title>rover.fxns.move_rover-&gt;rover.fxns.move_rover.sp</title>
<path fill="none" stroke="black" d="M691.91,-1155.44C580.73,-1152.57 401.12,-1144.5 338.25,-1122 273.75,-1098.92 211.12,-1045.3 181.7,-1017.71"/>
<polygon fill="black" stroke="black" points="691.88,-1155.43 697.98,-1151.58 703.88,-1155.73 697.78,-1159.58 691.88,-1155.43"/>
<text text-anchor="middle" x="380.25" y="-1108.7" font-family="Times New Roman,serif" font-size="14.00">&lt;containment&gt;</text>
<text text-anchor="middle" x="380.25" y="-1092.95" font-family="Times New Roman,serif" font-size="14.00">sp</text>
</g>
<!-- rover.fxns.move_rover.s -->
<g id="node4" class="node">
<title>rover.fxns.move_rover.s</title>
<polygon fill="lightgrey" stroke="grey" points="407.88,-1017.62 296.62,-1017.62 296.62,-1021.62 284.62,-1021.62 284.62,-981.62 407.88,-981.62 407.88,-1017.62"/>
<polyline fill="none" stroke="grey" points="284.62,-1017.62 296.62,-1017.62"/>
<text text-anchor="middle" x="346.25" y="-994.2" font-family="Times New Roman,serif" font-size="14.00">s: MoveRoverState</text>
</g>
<!-- rover.fxns.move_rover&#45;&gt;rover.fxns.move_rover.s -->
<g id="edge3" class="edge">
<title>rover.fxns.move_rover-&gt;rover.fxns.move_rover.s</title>
<path fill="none" stroke="black" d="M692.3,-1153.05C615.18,-1148.57 511.81,-1139.48 474.25,-1122 422.89,-1098.09 378.91,-1045.35 358.47,-1017.94"/>
<polygon fill="black" stroke="black" points="692.04,-1153.04 698.25,-1149.38 704.02,-1153.71 697.81,-1157.37 692.04,-1153.04"/>
<text text-anchor="middle" x="516.25" y="-1108.7" font-family="Times New Roman,serif" font-size="14.00">&lt;containment&gt;</text>
<text text-anchor="middle" x="516.25" y="-1092.95" font-family="Times New Roman,serif" font-size="14.00">s</text>
</g>
<!-- rover.fxns.move_rover.m -->
<g id="node5" class="node">
<title>rover.fxns.move_rover.m</title>
<polygon fill="lightgrey" stroke="grey" points="568.75,-1017.62 447.75,-1017.62 447.75,-1021.62 435.75,-1021.62 435.75,-981.62 568.75,-981.62 568.75,-1017.62"/>
<polyline fill="none" stroke="grey" points="435.75,-1017.62 447.75,-1017.62"/>
<text text-anchor="middle" x="502.25" y="-994.2" font-family="Times New Roman,serif" font-size="14.00">m: MoveRoverMode</text>
</g>
<!-- rover.fxns.move_rover&#45;&gt;rover.fxns.move_rover.m -->
<g id="edge4" class="edge">
<title>rover.fxns.move_rover-&gt;rover.fxns.move_rover.m</title>
<path fill="none" stroke="black" d="M692.62,-1153.04C660.63,-1148.35 625.66,-1139.26 597.25,-1122 555.17,-1096.44 524.5,-1044.92 510.58,-1017.96"/>
<polygon fill="black" stroke="black" points="692.38,-1153.01 698.85,-1149.82 704.28,-1154.57 697.81,-1157.75 692.38,-1153.01"/>
<text text-anchor="middle" x="639.25" y="-1108.7" font-family="Times New Roman,serif" font-size="14.00">&lt;containment&gt;</text>
<text text-anchor="middle" x="639.25" y="-1092.95" font-family="Times New Roman,serif" font-size="14.00">m</text>
</g>
<!-- __main__.MoveRover -->
<g id="node20" class="node">
<title>__main__.MoveRover</title>
<polygon fill="lightgrey" stroke="grey" points="732.12,-1072.5 586.38,-1072.5 586.38,-926.75 732.12,-926.75 732.12,-1072.5"/>
<polyline fill="none" stroke="grey" points="598.38,-1072.5 586.38,-1060.5"/>
<polyline fill="none" stroke="grey" points="586.38,-938.75 598.38,-926.75"/>
<polyline fill="none" stroke="grey" points="720.12,-926.75 732.12,-938.75"/>
<polyline fill="none" stroke="grey" points="732.12,-1060.5 720.12,-1072.5"/>
<text text-anchor="middle" x="659.25" y="-994.2" font-family="Times New Roman,serif" font-size="14.00">MoveRover: BaseType</text>
</g>
<!-- rover.fxns.move_rover&#45;&gt;__main__.MoveRover -->
<g id="edge11" class="edge">
<title>rover.fxns.move_rover-&gt;__main__.MoveRover</title>
<path fill="none" stroke="black" d="M727.77,-1139.12C719.19,-1134.56 711.04,-1128.92 704.5,-1122 693.96,-1110.84 685.82,-1097.01 679.56,-1082.72"/>
<polygon fill="none" stroke="black" points="682.52,-1081.72 675.51,-1073.78 676.04,-1084.36 682.52,-1081.72"/>
<text text-anchor="middle" x="743.12" y="-1108.7" font-family="Times New Roman,serif" font-size="14.00">&lt;inheritance&gt;</text>
<text text-anchor="middle" x="743.12" y="-1092.95" font-family="Times New Roman,serif" font-size="14.00">base</text>
</g>
<!-- rover.flows.ee -->
<g id="node24" class="node">
<title>rover.flows.ee</title>
<ellipse fill="lightgrey" stroke="grey" stroke-width="0" cx="784.25" cy="-999.62" rx="34.1" ry="18"/>
<text text-anchor="middle" x="784.25" y="-994.2" font-family="Times New Roman,serif" font-size="14.00">ee: EE</text>
</g>
<!-- rover.fxns.move_rover&#45;&gt;rover.flows.ee -->
<g id="edge7" class="edge">
<title>rover.fxns.move_rover-&gt;rover.flows.ee</title>
<path fill="none" stroke="black" d="M784.25,-1126.3C784.25,-1093.7 784.25,-1043.38 784.25,-1017.41"/>
<polygon fill="none" stroke="black" points="784.25,-1126.16 788.25,-1132.16 784.25,-1138.16 780.25,-1132.16 784.25,-1126.16"/>
<text text-anchor="middle" x="824.38" y="-1108.7" font-family="Times New Roman,serif" font-size="14.00">&lt;aggregation&gt;</text>
<text text-anchor="middle" x="824.38" y="-1092.95" font-family="Times New Roman,serif" font-size="14.00">ee</text>
</g>
<!-- rover.flows.control -->
<g id="node25" class="node">
<title>rover.flows.control</title>
<ellipse fill="lightgrey" stroke="grey" stroke-width="0" cx="906.25" cy="-999.62" rx="70.03" ry="18"/>
<text text-anchor="middle" x="906.25" y="-994.2" font-family="Times New Roman,serif" font-size="14.00">control: Control</text>
</g>
<!-- rover.fxns.move_rover&#45;&gt;rover.flows.control -->
<g id="edge8" class="edge">
<title>rover.fxns.move_rover-&gt;rover.flows.control</title>
<path fill="none" stroke="black" d="M856.13,-1132.57C860.55,-1129.45 864.66,-1125.94 868.25,-1122 895.49,-1092.15 903.2,-1042.95 905.39,-1017.32"/>
<polygon fill="none" stroke="black" points="856.34,-1132.44 853.31,-1138.99 846.1,-1138.71 849.13,-1132.16 856.34,-1132.44"/>
<text text-anchor="middle" x="927.38" y="-1108.7" font-family="Times New Roman,serif" font-size="14.00">&lt;aggregation&gt;</text>
<text text-anchor="middle" x="927.38" y="-1092.95" font-family="Times New Roman,serif" font-size="14.00">control</text>
</g>
<!-- rover.flows.ground -->
<g id="node26" class="node">
<title>rover.flows.ground</title>
<ellipse fill="lightgrey" stroke="grey" stroke-width="0" cx="1065.25" cy="-999.62" rx="70.52" ry="18"/>
<text text-anchor="middle" x="1065.25" y="-994.2" font-family="Times New Roman,serif" font-size="14.00">ground: Ground</text>
</g>
<!-- rover.fxns.move_rover&#45;&gt;rover.flows.ground -->
<g id="edge9" class="edge">
<title>rover.fxns.move_rover-&gt;rover.flows.ground</title>
<path fill="none" stroke="black" d="M875.93,-1153.12C907.92,-1148.44 942.88,-1139.33 971.25,-1122 1013.55,-1096.16 1044.01,-1043.79 1057.5,-1017.09"/>
<polygon fill="none" stroke="black" points="876.16,-1153.09 870.73,-1157.83 864.26,-1154.64 869.7,-1149.9 876.16,-1153.09"/>
<text text-anchor="middle" x="1047.38" y="-1108.7" font-family="Times New Roman,serif" font-size="14.00">&lt;aggregation&gt;</text>
<text text-anchor="middle" x="1047.38" y="-1092.95" font-family="Times New Roman,serif" font-size="14.00">ground</text>
</g>
<!-- rover.flows.force -->
<g id="node27" class="node">
<title>rover.flows.force</title>
<ellipse fill="lightgrey" stroke="grey" stroke-width="0" cx="1210.25" cy="-999.62" rx="56.55" ry="18"/>
<text text-anchor="middle" x="1210.25" y="-994.2" font-family="Times New Roman,serif" font-size="14.00">force: Force</text>
</g>
<!-- rover.fxns.move_rover&#45;&gt;rover.flows.force -->
<g id="edge10" class="edge">
<title>rover.fxns.move_rover-&gt;rover.flows.force</title>
<path fill="none" stroke="black" d="M876.42,-1152.76C952.62,-1148.1 1054.11,-1138.93 1091.25,-1122 1141.73,-1098.99 1182.25,-1044.32 1200.21,-1016.9"/>
<polygon fill="none" stroke="black" points="876.35,-1152.76 870.6,-1157.11 864.37,-1153.46 870.13,-1149.12 876.35,-1152.76"/>
<text text-anchor="middle" x="1177.38" y="-1108.7" font-family="Times New Roman,serif" font-size="14.00">&lt;aggregation&gt;</text>
<text text-anchor="middle" x="1177.38" y="-1092.95" font-family="Times New Roman,serif" font-size="14.00">force</text>
</g>
<!-- rover.fxns.move_rover.dynamic_behavior -->
<g id="node28" class="node">
<title>rover.fxns.move_rover.dynamic_behavior</title>
<polygon fill="lightgrey" stroke="grey" points="1452,-1017.62 1284.5,-1017.62 1284.5,-1013.62 1280.5,-1013.62 1280.5,-1009.62 1284.5,-1009.62 1284.5,-989.62 1280.5,-989.62 1280.5,-985.62 1284.5,-985.62 1284.5,-981.62 1452,-981.62 1452,-1017.62"/>
<polyline fill="none" stroke="grey" points="1284.5,-1013.62 1288.5,-1013.62 1288.5,-1009.62 1284.5,-1009.62"/>
<polyline fill="none" stroke="grey" points="1284.5,-989.62 1288.5,-989.62 1288.5,-985.62 1284.5,-985.62"/>
<text text-anchor="middle" x="1368.25" y="-994.2" font-family="Times New Roman,serif" font-size="14.00">dynamic_behavior: method</text>
</g>
<!-- rover.fxns.move_rover&#45;&gt;rover.fxns.move_rover.dynamic_behavior -->
<g id="edge5" class="edge">
<title>rover.fxns.move_rover-&gt;rover.fxns.move_rover.dynamic_behavior</title>
<path fill="none" stroke="black" d="M876.29,-1156.08C985.63,-1153.87 1160.84,-1146.48 1221.25,-1122 1278.3,-1098.88 1330.05,-1045.28 1354.08,-1017.7"/>
<polygon fill="black" stroke="black" points="876.2,-1156.08 870.27,-1160.2 864.2,-1156.31 870.12,-1152.2 876.2,-1156.08"/>
<text text-anchor="middle" x="1326.62" y="-1108.7" font-family="Times New Roman,serif" font-size="14.00">&lt;containment&gt;</text>
<text text-anchor="middle" x="1326.62" y="-1092.95" font-family="Times New Roman,serif" font-size="14.00">dynamic_behavior</text>
</g>
<!-- rover.fxns.move_rover.static_behavior -->
<g id="node29" class="node">
<title>rover.fxns.move_rover.static_behavior</title>
<polygon fill="lightgrey" stroke="grey" points="1620,-1017.62 1470.5,-1017.62 1470.5,-1013.62 1466.5,-1013.62 1466.5,-1009.62 1470.5,-1009.62 1470.5,-989.62 1466.5,-989.62 1466.5,-985.62 1470.5,-985.62 1470.5,-981.62 1620,-981.62 1620,-1017.62"/>
<polyline fill="none" stroke="grey" points="1470.5,-1013.62 1474.5,-1013.62 1474.5,-1009.62 1470.5,-1009.62"/>
<polyline fill="none" stroke="grey" points="1470.5,-989.62 1474.5,-989.62 1474.5,-985.62 1470.5,-985.62"/>
<text text-anchor="middle" x="1545.25" y="-994.2" font-family="Times New Roman,serif" font-size="14.00">static_behavior: method</text>
</g>
<!-- rover.fxns.move_rover&#45;&gt;rover.fxns.move_rover.static_behavior -->
<g id="edge6" class="edge">
<title>rover.fxns.move_rover-&gt;rover.fxns.move_rover.static_behavior</title>
<path fill="none" stroke="black" d="M876.34,-1157.17C1020.07,-1156.49 1290.77,-1151.21 1382.25,-1122 1445.1,-1101.93 1503.1,-1046.42 1529.81,-1017.95"/>
<polygon fill="black" stroke="black" points="876.58,-1157.16 870.6,-1161.19 864.58,-1157.21 870.56,-1153.19 876.58,-1157.16"/>
<text text-anchor="middle" x="1483.62" y="-1108.7" font-family="Times New Roman,serif" font-size="14.00">&lt;containment&gt;</text>
<text text-anchor="middle" x="1483.62" y="-1092.95" font-family="Times New Roman,serif" font-size="14.00">static_behavior</text>
</g>
<!-- fmdtools.define.container.time.Time -->
<g id="node6" class="node">
<title>fmdtools.define.container.time.Time</title>
<polygon fill="lightgrey" stroke="grey" points="98.5,-671.5 0,-671.5 0,-573 98.5,-573 98.5,-671.5"/>
<polyline fill="none" stroke="grey" points="12,-671.5 0,-659.5"/>
<polyline fill="none" stroke="grey" points="0,-585 12,-573"/>
<polyline fill="none" stroke="grey" points="86.5,-573 98.5,-585"/>
<polyline fill="none" stroke="grey" points="98.5,-659.5 86.5,-671.5"/>
<text text-anchor="middle" x="49.25" y="-616.83" font-family="Times New Roman,serif" font-size="14.00">Time: datatype</text>
</g>
<!-- rover.fxns.move_rover.t&#45;&gt;fmdtools.define.container.time.Time -->
<g id="edge12" class="edge">
<title>rover.fxns.move_rover.t-&gt;fmdtools.define.container.time.Time</title>
<path fill="none" stroke="black" d="M68.34,-981.52C65.56,-929.32 57.09,-770.31 52.42,-682.71"/>
<polygon fill="none" stroke="black" points="55.87,-682.68 51.84,-672.88 48.88,-683.05 55.87,-682.68"/>
<text text-anchor="middle" x="102.12" y="-895.45" font-family="Times New Roman,serif" font-size="14.00">&lt;inheritance&gt;</text>
<text text-anchor="middle" x="102.12" y="-879.7" font-family="Times New Roman,serif" font-size="14.00">base</text>
</g>
<!-- fmdtools.define.block.base.SimParam -->
<g id="node8" class="node">
<title>fmdtools.define.block.base.SimParam</title>
<polygon fill="lightgrey" stroke="grey" points="216.75,-837.88 89.75,-837.88 89.75,-710.88 216.75,-710.88 216.75,-837.88"/>
<polyline fill="none" stroke="grey" points="101.75,-837.88 89.75,-825.88"/>
<polyline fill="none" stroke="grey" points="89.75,-722.88 101.75,-710.88"/>
<polyline fill="none" stroke="grey" points="204.75,-710.88 216.75,-722.88"/>
<polyline fill="none" stroke="grey" points="216.75,-825.88 204.75,-837.88"/>
<text text-anchor="middle" x="153.25" y="-768.95" font-family="Times New Roman,serif" font-size="14.00">SimParam: datatype</text>
</g>
<!-- rover.fxns.move_rover.sp&#45;&gt;fmdtools.define.block.base.SimParam -->
<g id="edge14" class="edge">
<title>rover.fxns.move_rover.sp-&gt;fmdtools.define.block.base.SimParam</title>
<path fill="none" stroke="black" d="M163.41,-981.48C162.02,-953.44 159.2,-896.19 156.88,-849.13"/>
<polygon fill="none" stroke="black" points="160.34,-849.15 156.35,-839.33 153.35,-849.49 160.34,-849.15"/>
<text text-anchor="middle" x="198.12" y="-895.45" font-family="Times New Roman,serif" font-size="14.00">&lt;inheritance&gt;</text>
<text text-anchor="middle" x="198.12" y="-879.7" font-family="Times New Roman,serif" font-size="14.00">base</text>
</g>
<!-- __main__.MoveRoverState -->
<g id="node10" class="node">
<title>__main__.MoveRoverState</title>
<polygon fill="lightgrey" stroke="grey" points="399.5,-856.62 235,-856.62 235,-692.12 399.5,-692.12 399.5,-856.62"/>
<polyline fill="none" stroke="grey" points="247,-856.62 235,-844.62"/>
<polyline fill="none" stroke="grey" points="235,-704.12 247,-692.12"/>
<polyline fill="none" stroke="grey" points="387.5,-692.12 399.5,-704.12"/>
<polyline fill="none" stroke="grey" points="399.5,-844.62 387.5,-856.62"/>
<text text-anchor="middle" x="317.25" y="-768.95" font-family="Times New Roman,serif" font-size="14.00">MoveRoverState: datatype</text>
</g>
<!-- rover.fxns.move_rover.s&#45;&gt;__main__.MoveRoverState -->
<g id="edge17" class="edge">
<title>rover.fxns.move_rover.s-&gt;__main__.MoveRoverState</title>
<path fill="none" stroke="black" d="M344.02,-981.48C340.85,-957.05 334.8,-910.46 329.25,-867.74"/>
<polygon fill="none" stroke="black" points="332.61,-867.45 327.85,-857.98 325.67,-868.35 332.61,-867.45"/>
<text text-anchor="middle" x="373.12" y="-895.45" font-family="Times New Roman,serif" font-size="14.00">&lt;inheritance&gt;</text>
<text text-anchor="middle" x="373.12" y="-879.7" font-family="Times New Roman,serif" font-size="14.00">base</text>
</g>
<!-- __main__.MoveRoverMode -->
<g id="node12" class="node">
<title>__main__.MoveRoverMode</title>
<polygon fill="lightgrey" stroke="grey" points="587.12,-859.25 417.38,-859.25 417.38,-689.5 587.12,-689.5 587.12,-859.25"/>
<polyline fill="none" stroke="grey" points="429.38,-859.25 417.38,-847.25"/>
<polyline fill="none" stroke="grey" points="417.38,-701.5 429.38,-689.5"/>
<polyline fill="none" stroke="grey" points="575.12,-689.5 587.12,-701.5"/>
<polyline fill="none" stroke="grey" points="587.12,-847.25 575.12,-859.25"/>
<text text-anchor="middle" x="502.25" y="-768.95" font-family="Times New Roman,serif" font-size="14.00">MoveRoverMode: datatype</text>
</g>
<!-- rover.fxns.move_rover.m&#45;&gt;__main__.MoveRoverMode -->
<g id="edge20" class="edge">
<title>rover.fxns.move_rover.m-&gt;__main__.MoveRoverMode</title>
<path fill="none" stroke="black" d="M502.25,-981.48C502.25,-957.57 502.25,-912.44 502.25,-870.48"/>
<polygon fill="none" stroke="black" points="505.75,-870.61 502.25,-860.61 498.75,-870.61 505.75,-870.61"/>
<text text-anchor="middle" x="540.12" y="-895.45" font-family="Times New Roman,serif" font-size="14.00">&lt;inheritance&gt;</text>
<text text-anchor="middle" x="540.12" y="-879.7" font-family="Times New Roman,serif" font-size="14.00">base</text>
</g>
<!-- fmdtools.define.container.base.BaseContainer -->
<g id="node7" class="node">
<title>fmdtools.define.container.base.BaseContainer</title>
<polygon fill="lightgrey" stroke="grey" points="324.75,-362 173.75,-362 173.75,-211 324.75,-211 324.75,-362"/>
<polyline fill="none" stroke="grey" points="185.75,-362 173.75,-350"/>
<polyline fill="none" stroke="grey" points="173.75,-223 185.75,-211"/>
<polyline fill="none" stroke="grey" points="312.75,-211 324.75,-223"/>
<polyline fill="none" stroke="grey" points="324.75,-350 312.75,-362"/>
<text text-anchor="middle" x="249.25" y="-281.07" font-family="Times New Roman,serif" font-size="14.00">BaseContainer: datatype</text>
</g>
<!-- fmdtools.define.container.time.Time&#45;&gt;fmdtools.define.container.base.BaseContainer -->
<g id="edge13" class="edge">
<title>fmdtools.define.container.time.Time-&gt;fmdtools.define.container.base.BaseContainer</title>
<path fill="none" stroke="black" d="M35.17,-572.6C26.25,-531.96 20.28,-473.73 43.5,-429.5 68.92,-381.08 119.16,-345.92 163.63,-322.7"/>
<polygon fill="none" stroke="black" points="164.98,-325.43 172.31,-317.78 161.81,-319.19 164.98,-325.43"/>
<text text-anchor="middle" x="82.12" y="-494.7" font-family="Times New Roman,serif" font-size="14.00">&lt;inheritance&gt;</text>
<text text-anchor="middle" x="82.12" y="-478.95" font-family="Times New Roman,serif" font-size="14.00">base</text>
</g>
<!-- fmdtools.define.container.parameter.Parameter -->
<g id="node9" class="node">
<title>fmdtools.define.container.parameter.Parameter</title>
<polygon fill="lightgrey" stroke="grey" points="254,-555 128.5,-555 128.5,-429.5 254,-429.5 254,-555"/>
<polyline fill="none" stroke="grey" points="140.5,-555 128.5,-543"/>
<polyline fill="none" stroke="grey" points="128.5,-441.5 140.5,-429.5"/>
<polyline fill="none" stroke="grey" points="242,-429.5 254,-441.5"/>
<polyline fill="none" stroke="grey" points="254,-543 242,-555"/>
<text text-anchor="middle" x="191.25" y="-486.82" font-family="Times New Roman,serif" font-size="14.00">Parameter: datatype</text>
</g>
<!-- fmdtools.define.block.base.SimParam&#45;&gt;fmdtools.define.container.parameter.Parameter -->
<g id="edge15" class="edge">
<title>fmdtools.define.block.base.SimParam-&gt;fmdtools.define.container.parameter.Parameter</title>
<path fill="none" stroke="black" d="M161.78,-710.51C167.58,-667.74 175.28,-611.01 181.35,-566.24"/>
<polygon fill="none" stroke="black" points="184.94,-566.8 182.82,-556.42 178,-565.86 184.94,-566.8"/>
<text text-anchor="middle" x="218.12" y="-624.7" font-family="Times New Roman,serif" font-size="14.00">&lt;inheritance&gt;</text>
<text text-anchor="middle" x="218.12" y="-608.95" font-family="Times New Roman,serif" font-size="14.00">base</text>
</g>
<!-- fmdtools.define.container.parameter.Parameter&#45;&gt;fmdtools.define.container.base.BaseContainer -->
<g id="edge16" class="edge">
<title>fmdtools.define.container.parameter.Parameter-&gt;fmdtools.define.container.base.BaseContainer</title>
<path fill="none" stroke="black" d="M197.95,-429.12C200.49,-412.95 203.92,-395.66 208.5,-380 209.22,-377.55 209.98,-375.08 210.79,-372.59"/>
<polygon fill="none" stroke="black" points="214.37,-373.96 214.34,-363.36 207.76,-371.67 214.37,-373.96"/>
<text text-anchor="middle" x="247.12" y="-398.2" font-family="Times New Roman,serif" font-size="14.00">&lt;inheritance&gt;</text>
<text text-anchor="middle" x="247.12" y="-382.45" font-family="Times New Roman,serif" font-size="14.00">base</text>
</g>
<!-- fmdtools.define.container.state.State -->
<g id="node11" class="node">
<title>fmdtools.define.container.state.State</title>
<polygon fill="lightgrey" stroke="grey" points="370.12,-541.12 272.38,-541.12 272.38,-443.38 370.12,-443.38 370.12,-541.12"/>
<polyline fill="none" stroke="grey" points="284.38,-541.12 272.38,-529.12"/>
<polyline fill="none" stroke="grey" points="272.38,-455.38 284.38,-443.38"/>
<polyline fill="none" stroke="grey" points="358.12,-443.38 370.12,-455.38"/>
<polyline fill="none" stroke="grey" points="370.12,-529.12 358.12,-541.12"/>
<text text-anchor="middle" x="321.25" y="-486.82" font-family="Times New Roman,serif" font-size="14.00">State: datatype</text>
</g>
<!-- __main__.MoveRoverState&#45;&gt;fmdtools.define.container.state.State -->
<g id="edge18" class="edge">
<title>__main__.MoveRoverState-&gt;fmdtools.define.container.state.State</title>
<path fill="none" stroke="black" d="M318.41,-691.97C319.05,-647.29 319.83,-592.88 320.41,-552.29"/>
<polygon fill="none" stroke="black" points="323.92,-552.55 320.56,-542.5 316.92,-552.45 323.92,-552.55"/>
<text text-anchor="middle" x="358.12" y="-624.7" font-family="Times New Roman,serif" font-size="14.00">&lt;inheritance&gt;</text>
<text text-anchor="middle" x="358.12" y="-608.95" font-family="Times New Roman,serif" font-size="14.00">base</text>
</g>
<!-- fmdtools.define.container.state.State&#45;&gt;fmdtools.define.container.base.BaseContainer -->
<g id="edge19" class="edge">
<title>fmdtools.define.container.state.State-&gt;fmdtools.define.container.base.BaseContainer</title>
<path fill="none" stroke="black" d="M305.65,-442.92C299.2,-423.32 291.54,-400.52 284.25,-380 283.39,-377.58 282.51,-375.12 281.62,-372.64"/>
<polygon fill="none" stroke="black" points="284.59,-371.57 277.88,-363.37 278.01,-373.97 284.59,-371.57"/>
<text text-anchor="middle" x="333.12" y="-398.2" font-family="Times New Roman,serif" font-size="14.00">&lt;inheritance&gt;</text>
<text text-anchor="middle" x="333.12" y="-382.45" font-family="Times New Roman,serif" font-size="14.00">base</text>
</g>
<!-- fmdtools.define.container.mode.Mode -->
<g id="node13" class="node">
<title>fmdtools.define.container.mode.Mode</title>
<polygon fill="lightgrey" stroke="grey" points="515.75,-543.75 412.75,-543.75 412.75,-440.75 515.75,-440.75 515.75,-543.75"/>
<polyline fill="none" stroke="grey" points="424.75,-543.75 412.75,-531.75"/>
<polyline fill="none" stroke="grey" points="412.75,-452.75 424.75,-440.75"/>
<polyline fill="none" stroke="grey" points="503.75,-440.75 515.75,-452.75"/>
<polyline fill="none" stroke="grey" points="515.75,-531.75 503.75,-543.75"/>
<text text-anchor="middle" x="464.25" y="-486.82" font-family="Times New Roman,serif" font-size="14.00">Mode: datatype</text>
</g>
<!-- __main__.MoveRoverMode&#45;&gt;fmdtools.define.container.mode.Mode -->
<g id="edge21" class="edge">
<title>__main__.MoveRoverMode-&gt;fmdtools.define.container.mode.Mode</title>
<path fill="none" stroke="black" d="M490.85,-689.33C484.97,-646.02 477.94,-594.16 472.58,-554.65"/>
<polygon fill="none" stroke="black" points="475.93,-554.29 471.11,-544.85 468.99,-555.23 475.93,-554.29"/>
<text text-anchor="middle" x="526.12" y="-624.7" font-family="Times New Roman,serif" font-size="14.00">&lt;inheritance&gt;</text>
<text text-anchor="middle" x="526.12" y="-608.95" font-family="Times New Roman,serif" font-size="14.00">base</text>
</g>
<!-- fmdtools.define.container.mode.Mode&#45;&gt;fmdtools.define.container.base.BaseContainer -->
<g id="edge22" class="edge">
<title>fmdtools.define.container.mode.Mode-&gt;fmdtools.define.container.base.BaseContainer</title>
<path fill="none" stroke="black" d="M428.09,-440.4C412.85,-420.55 394.26,-398.24 375.25,-380 362.48,-367.75 348.04,-355.74 333.61,-344.64"/>
<polygon fill="none" stroke="black" points="336.22,-341.47 326.13,-338.22 331.99,-347.05 336.22,-341.47"/>
<text text-anchor="middle" x="443.12" y="-398.2" font-family="Times New Roman,serif" font-size="14.00">&lt;inheritance&gt;</text>
<text text-anchor="middle" x="443.12" y="-382.45" font-family="Times New Roman,serif" font-size="14.00">base</text>
</g>
<!-- __main__.EE -->
<g id="node14" class="node">
<title>__main__.EE</title>
<polygon fill="lightgrey" stroke="grey" points="847,-822.12 751.5,-822.12 751.5,-726.62 847,-726.62 847,-822.12"/>
<polyline fill="none" stroke="grey" points="763.5,-822.12 751.5,-810.12"/>
<polyline fill="none" stroke="grey" points="751.5,-738.62 763.5,-726.62"/>
<polyline fill="none" stroke="grey" points="835,-726.62 847,-738.62"/>
<polyline fill="none" stroke="grey" points="847,-810.12 835,-822.12"/>
<text text-anchor="middle" x="799.25" y="-768.95" font-family="Times New Roman,serif" font-size="14.00">EE: BaseType</text>
</g>
<!-- fmdtools.define.flow.base.Flow -->
<g id="node15" class="node">
<title>fmdtools.define.flow.base.Flow</title>
<polygon fill="lightgrey" stroke="grey" points="980,-546 872.5,-546 872.5,-438.5 980,-438.5 980,-546"/>
<polyline fill="none" stroke="grey" points="884.5,-546 872.5,-534"/>
<polyline fill="none" stroke="grey" points="872.5,-450.5 884.5,-438.5"/>
<polyline fill="none" stroke="grey" points="968,-438.5 980,-450.5"/>
<polyline fill="none" stroke="grey" points="980,-534 968,-546"/>
<text text-anchor="middle" x="926.25" y="-486.82" font-family="Times New Roman,serif" font-size="14.00">Flow: BaseType</text>
</g>
<!-- __main__.EE&#45;&gt;fmdtools.define.flow.base.Flow -->
<g id="edge24" class="edge">
<title>__main__.EE-&gt;fmdtools.define.flow.base.Flow</title>
<path fill="none" stroke="black" d="M803.01,-726.19C808.05,-683.82 819.7,-621.08 846.5,-573 851.58,-563.89 857.99,-555.12 864.97,-546.95"/>
<polygon fill="none" stroke="black" points="867.04,-549.76 871.1,-539.97 861.83,-545.09 867.04,-549.76"/>
<text text-anchor="middle" x="885.12" y="-624.7" font-family="Times New Roman,serif" font-size="14.00">&lt;inheritance&gt;</text>
<text text-anchor="middle" x="885.12" y="-608.95" font-family="Times New Roman,serif" font-size="14.00">base</text>
</g>
<!-- fmdtools.define.object.base.BaseObject -->
<g id="node16" class="node">
<title>fmdtools.define.object.base.BaseObject</title>
<polygon fill="lightgrey" stroke="grey" points="901,-143.5 757.5,-143.5 757.5,0 901,0 901,-143.5"/>
<polyline fill="none" stroke="grey" points="769.5,-143.5 757.5,-131.5"/>
<polyline fill="none" stroke="grey" points="757.5,-12 769.5,0"/>
<polyline fill="none" stroke="grey" points="889,0 901,-12"/>
<polyline fill="none" stroke="grey" points="901,-131.5 889,-143.5"/>
<text text-anchor="middle" x="829.25" y="-66.33" font-family="Times New Roman,serif" font-size="14.00">BaseObject: BaseType</text>
</g>
<!-- fmdtools.define.flow.base.Flow&#45;&gt;fmdtools.define.object.base.BaseObject -->
<g id="edge25" class="edge">
<title>fmdtools.define.flow.base.Flow-&gt;fmdtools.define.object.base.BaseObject</title>
<path fill="none" stroke="black" d="M926.37,-438.26C924.98,-371.75 917.42,-255.06 884.25,-161.5 883.34,-158.92 882.34,-156.34 881.27,-153.76"/>
<polygon fill="none" stroke="black" points="884.12,-152.55 876.83,-144.86 877.73,-155.42 884.12,-152.55"/>
<text text-anchor="middle" x="961.12" y="-288.95" font-family="Times New Roman,serif" font-size="14.00">&lt;inheritance&gt;</text>
<text text-anchor="middle" x="961.12" y="-273.2" font-family="Times New Roman,serif" font-size="14.00">base</text>
</g>
<!-- __main__.Control -->
<g id="node17" class="node">
<title>__main__.Control</title>
<polygon fill="lightgrey" stroke="grey" points="987.12,-835.25 865.38,-835.25 865.38,-713.5 987.12,-713.5 987.12,-835.25"/>
<polyline fill="none" stroke="grey" points="877.38,-835.25 865.38,-823.25"/>
<polyline fill="none" stroke="grey" points="865.38,-725.5 877.38,-713.5"/>
<polyline fill="none" stroke="grey" points="975.12,-713.5 987.12,-725.5"/>
<polyline fill="none" stroke="grey" points="987.12,-823.25 975.12,-835.25"/>
<text text-anchor="middle" x="926.25" y="-768.95" font-family="Times New Roman,serif" font-size="14.00">Control: BaseType</text>
</g>
<!-- __main__.Control&#45;&gt;fmdtools.define.flow.base.Flow -->
<g id="edge27" class="edge">
<title>__main__.Control-&gt;fmdtools.define.flow.base.Flow</title>
<path fill="none" stroke="black" d="M926.25,-713.28C926.25,-667.29 926.25,-604.01 926.25,-557.11"/>
<polygon fill="none" stroke="black" points="929.75,-557.16 926.25,-547.16 922.75,-557.16 929.75,-557.16"/>
<text text-anchor="middle" x="964.12" y="-624.7" font-family="Times New Roman,serif" font-size="14.00">&lt;inheritance&gt;</text>
<text text-anchor="middle" x="964.12" y="-608.95" font-family="Times New Roman,serif" font-size="14.00">base</text>
</g>
<!-- __main__.Ground -->
<g id="node18" class="node">
<title>__main__.Ground</title>
<polygon fill="lightgrey" stroke="grey" points="1127.5,-835.62 1005,-835.62 1005,-713.12 1127.5,-713.12 1127.5,-835.62"/>
<polyline fill="none" stroke="grey" points="1017,-835.62 1005,-823.62"/>
<polyline fill="none" stroke="grey" points="1005,-725.12 1017,-713.12"/>
<polyline fill="none" stroke="grey" points="1115.5,-713.12 1127.5,-725.12"/>
<polyline fill="none" stroke="grey" points="1127.5,-823.62 1115.5,-835.62"/>
<text text-anchor="middle" x="1066.25" y="-768.95" font-family="Times New Roman,serif" font-size="14.00">Ground: BaseType</text>
</g>
<!-- __main__.Ground&#45;&gt;fmdtools.define.flow.base.Flow -->
<g id="edge29" class="edge">
<title>__main__.Ground-&gt;fmdtools.define.flow.base.Flow</title>
<path fill="none" stroke="black" d="M1056.25,-712.77C1047.51,-671.27 1032.06,-616.16 1006.25,-573 1001.02,-564.26 994.62,-555.78 987.74,-547.81"/>
<polygon fill="none" stroke="black" points="990.72,-545.79 981.42,-540.71 985.53,-550.48 990.72,-545.79"/>
<text text-anchor="middle" x="1083.12" y="-624.7" font-family="Times New Roman,serif" font-size="14.00">&lt;inheritance&gt;</text>
<text text-anchor="middle" x="1083.12" y="-608.95" font-family="Times New Roman,serif" font-size="14.00">base</text>
</g>
<!-- __main__.Force -->
<g id="node19" class="node">
<title>__main__.Force</title>
<polygon fill="lightgrey" stroke="grey" points="1261.25,-830.38 1149.25,-830.38 1149.25,-718.38 1261.25,-718.38 1261.25,-830.38"/>
<polyline fill="none" stroke="grey" points="1161.25,-830.38 1149.25,-818.38"/>
<polyline fill="none" stroke="grey" points="1149.25,-730.38 1161.25,-718.38"/>
<polyline fill="none" stroke="grey" points="1249.25,-718.38 1261.25,-730.38"/>
<polyline fill="none" stroke="grey" points="1261.25,-818.38 1249.25,-830.38"/>
<text text-anchor="middle" x="1205.25" y="-768.95" font-family="Times New Roman,serif" font-size="14.00">Force: BaseType</text>
</g>
<!-- __main__.Force&#45;&gt;fmdtools.define.flow.base.Flow -->
<g id="edge31" class="edge">
<title>__main__.Force-&gt;fmdtools.define.flow.base.Flow</title>
<path fill="none" stroke="black" d="M1195.68,-718.32C1185.32,-673.89 1164.69,-612.49 1125.25,-573 1088.88,-536.58 1033.74,-516.24 990.72,-505.23"/>
<polygon fill="none" stroke="black" points="991.6,-501.6 981.06,-502.63 989.94,-508.4 991.6,-501.6"/>
<text text-anchor="middle" x="1219.12" y="-624.7" font-family="Times New Roman,serif" font-size="14.00">&lt;inheritance&gt;</text>
<text text-anchor="middle" x="1219.12" y="-608.95" font-family="Times New Roman,serif" font-size="14.00">base</text>
</g>
<!-- fmdtools.define.block.function.Function -->
<g id="node21" class="node">
<title>fmdtools.define.block.function.Function</title>
<polygon fill="lightgrey" stroke="grey" points="733.5,-838.62 605,-838.62 605,-710.12 733.5,-710.12 733.5,-838.62"/>
<polyline fill="none" stroke="grey" points="617,-838.62 605,-826.62"/>
<polyline fill="none" stroke="grey" points="605,-722.12 617,-710.12"/>
<polyline fill="none" stroke="grey" points="721.5,-710.12 733.5,-722.12"/>
<polyline fill="none" stroke="grey" points="733.5,-826.62 721.5,-838.62"/>
<text text-anchor="middle" x="669.25" y="-768.95" font-family="Times New Roman,serif" font-size="14.00">Function: BaseType</text>
</g>
<!-- __main__.MoveRover&#45;&gt;fmdtools.define.block.function.Function -->
<g id="edge32" class="edge">
<title>__main__.MoveRover-&gt;fmdtools.define.block.function.Function</title>
<path fill="none" stroke="black" d="M662.48,-926.45C663.58,-901.93 664.81,-874.49 665.92,-849.79"/>
<polygon fill="none" stroke="black" points="669.45,-850.17 666.4,-840.02 662.45,-849.86 669.45,-850.17"/>
<text text-anchor="middle" x="703.12" y="-895.45" font-family="Times New Roman,serif" font-size="14.00">&lt;inheritance&gt;</text>
<text text-anchor="middle" x="703.12" y="-879.7" font-family="Times New Roman,serif" font-size="14.00">base</text>
</g>
<!-- fmdtools.define.block.base.Block -->
<g id="node22" class="node">
<title>fmdtools.define.block.base.Block</title>
<polygon fill="lightgrey" stroke="grey" points="800.25,-548.25 688.25,-548.25 688.25,-436.25 800.25,-436.25 800.25,-548.25"/>
<polyline fill="none" stroke="grey" points="700.25,-548.25 688.25,-536.25"/>
<polyline fill="none" stroke="grey" points="688.25,-448.25 700.25,-436.25"/>
<polyline fill="none" stroke="grey" points="788.25,-436.25 800.25,-448.25"/>
<polyline fill="none" stroke="grey" points="800.25,-536.25 788.25,-548.25"/>
<text text-anchor="middle" x="744.25" y="-486.82" font-family="Times New Roman,serif" font-size="14.00">Block: BaseType</text>
</g>
<!-- fmdtools.define.block.function.Function&#45;&gt;fmdtools.define.block.base.Block -->
<g id="edge33" class="edge">
<title>fmdtools.define.block.function.Function-&gt;fmdtools.define.block.base.Block</title>
<path fill="none" stroke="black" d="M681.92,-709.7C690.31,-670.07 702.19,-618.21 715.5,-573 716.85,-568.43 718.31,-563.74 719.84,-559.03"/>
<polygon fill="none" stroke="black" points="723.43,-560.34 723.29,-549.74 716.8,-558.12 723.43,-560.34"/>
<text text-anchor="middle" x="754.12" y="-624.7" font-family="Times New Roman,serif" font-size="14.00">&lt;inheritance&gt;</text>
<text text-anchor="middle" x="754.12" y="-608.95" font-family="Times New Roman,serif" font-size="14.00">base</text>
</g>
<!-- fmdtools.define.block.base.Simulable -->
<g id="node23" class="node">
<title>fmdtools.define.block.base.Simulable</title>
<polygon fill="lightgrey" stroke="grey" points="838.75,-353 705.75,-353 705.75,-220 838.75,-220 838.75,-353"/>
<polyline fill="none" stroke="grey" points="717.75,-353 705.75,-341"/>
<polyline fill="none" stroke="grey" points="705.75,-232 717.75,-220"/>
<polyline fill="none" stroke="grey" points="826.75,-220 838.75,-232"/>
<polyline fill="none" stroke="grey" points="838.75,-341 826.75,-353"/>
<text text-anchor="middle" x="772.25" y="-281.07" font-family="Times New Roman,serif" font-size="14.00">Simulable: BaseType</text>
</g>
<!-- fmdtools.define.block.base.Block&#45;&gt;fmdtools.define.block.base.Simulable -->
<g id="edge34" class="edge">
<title>fmdtools.define.block.base.Block-&gt;fmdtools.define.block.base.Simulable</title>
<path fill="none" stroke="black" d="M751.86,-435.84C754.9,-413.77 758.44,-387.99 761.71,-364.18"/>
<polygon fill="none" stroke="black" points="765.3,-364.78 763.19,-354.39 758.37,-363.82 765.3,-364.78"/>
<text text-anchor="middle" x="797.12" y="-398.2" font-family="Times New Roman,serif" font-size="14.00">&lt;inheritance&gt;</text>
<text text-anchor="middle" x="797.12" y="-382.45" font-family="Times New Roman,serif" font-size="14.00">base</text>
</g>
<!-- fmdtools.define.block.base.Simulable&#45;&gt;fmdtools.define.object.base.BaseObject -->
<g id="edge35" class="edge">
<title>fmdtools.define.block.base.Simulable-&gt;fmdtools.define.object.base.BaseObject</title>
<path fill="none" stroke="black" d="M789.89,-219.64C795.43,-198.98 801.61,-175.92 807.4,-154.31"/>
<polygon fill="none" stroke="black" points="811,-155.4 810.2,-144.84 804.24,-153.59 811,-155.4"/>
<text text-anchor="middle" x="842.12" y="-179.7" font-family="Times New Roman,serif" font-size="14.00">&lt;inheritance&gt;</text>
<text text-anchor="middle" x="842.12" y="-163.95" font-family="Times New Roman,serif" font-size="14.00">base</text>
</g>
<!-- rover.flows.ee&#45;&gt;__main__.EE -->
<g id="edge23" class="edge">
<title>rover.flows.ee-&gt;__main__.EE</title>
<path fill="none" stroke="black" d="M785.38,-981.84C787.47,-950.73 792.03,-882.77 795.36,-833.29"/>
<polygon fill="none" stroke="black" points="798.91,-833.62 796.09,-823.41 791.93,-833.15 798.91,-833.62"/>
<text text-anchor="middle" x="830.12" y="-895.45" font-family="Times New Roman,serif" font-size="14.00">&lt;inheritance&gt;</text>
<text text-anchor="middle" x="830.12" y="-879.7" font-family="Times New Roman,serif" font-size="14.00">base</text>
</g>
<!-- rover.flows.control&#45;&gt;__main__.Control -->
<g id="edge26" class="edge">
<title>rover.flows.control-&gt;__main__.Control</title>
<path fill="none" stroke="black" d="M907.75,-981.84C910.3,-953.43 915.6,-894.29 919.87,-846.56"/>
<polygon fill="none" stroke="black" points="923.45,-846.9 920.85,-836.63 916.47,-846.28 923.45,-846.9"/>
<text text-anchor="middle" x="955.12" y="-895.45" font-family="Times New Roman,serif" font-size="14.00">&lt;inheritance&gt;</text>
<text text-anchor="middle" x="955.12" y="-879.7" font-family="Times New Roman,serif" font-size="14.00">base</text>
</g>
<!-- rover.flows.ground&#45;&gt;__main__.Ground -->
<g id="edge28" class="edge">
<title>rover.flows.ground-&gt;__main__.Ground</title>
<path fill="none" stroke="black" d="M1065.33,-981.84C1065.45,-953.53 1065.72,-894.68 1065.93,-847.03"/>
<polygon fill="none" stroke="black" points="1069.43,-847.13 1065.98,-837.12 1062.43,-847.1 1069.43,-847.13"/>
<text text-anchor="middle" x="1104.12" y="-895.45" font-family="Times New Roman,serif" font-size="14.00">&lt;inheritance&gt;</text>
<text text-anchor="middle" x="1104.12" y="-879.7" font-family="Times New Roman,serif" font-size="14.00">base</text>
</g>
<!-- rover.flows.force&#45;&gt;__main__.Force -->
<g id="edge30" class="edge">
<title>rover.flows.force-&gt;__main__.Force</title>
<path fill="none" stroke="black" d="M1209.87,-981.84C1209.22,-952.43 1207.82,-890.08 1206.73,-841.55"/>
<polygon fill="none" stroke="black" points="1210.21,-841.71 1206.49,-831.79 1203.22,-841.87 1210.21,-841.71"/>
<text text-anchor="middle" x="1246.12" y="-895.45" font-family="Times New Roman,serif" font-size="14.00">&lt;inheritance&gt;</text>
<text text-anchor="middle" x="1246.12" y="-879.7" font-family="Times New Roman,serif" font-size="14.00">base</text>
</g>
</g>
</svg>