<svg xmlns="http://www.w3.org/2000/svg" xmlns:xlink="http://www.w3.org/1999/xlink" width="2475pt" height="156pt" viewBox="0.00 0.00 2475.49 156.00">
<g id="graph0" class="graph" transform="scale(1 1) rotate(0) translate(4 152)">
<polygon fill="white" stroke="transparent" points="-4,4 -4,-152 2471.49,-152 2471.49,4 -4,4"/>
<!-- rover -->
<g id="node1" class="node">
<title>rover</title>
<polygon fill="lightgrey" stroke="grey" points="1164.49,-148 1026.92,-113.5 1302.07,-113.5 1164.49,-148"/>
<text text-anchor="middle" x="1164.49" y="-121.3" font-family="Times,serif" font-size="14.00">rover: Rover</text>
</g>
<!-- rover.flows.ground -->
<g id="node2" class="node">
<title>rover.flows.ground</title>
<ellipse fill="lightgrey" stroke="grey" stroke-width="0" cx="84.49" cy="-18" rx="84.49" ry="18"/>
<text text-anchor="middle" x="84.49" y="-14.3" font-family="Times,serif" font-size="14.00">ground: Ground</text>
</g>
<!-- rover&#45;&gt;rover.flows.ground -->
<g id="edge1" class="edge">
<title>rover-&gt;rover.flows.ground</title>
<path fill="none" stroke="black" d="M1057.69,-124.27C813.44,-124.25 228.85,-120.35 147.49,-84 124.97,-73.94 106.37,-51.77 95.36,-36.13"/>
<polygon fill="black" stroke="black" points="1057.76,-124.27 1063.76,-120.27 1069.76,-124.27 1063.76,-128.27 1057.76,-124.27"/>
<text text-anchor="middle" x="204.49" y="-72.8" font-family="Times,serif" font-size="14.00">&lt;containment&gt;</text>
<text text-anchor="middle" x="204.49" y="-57.8" font-family="Times,serif" font-size="14.00">flows.ground</text>
</g>
<!-- rover.flows.force -->
<g id="node3" class="node">
<title>rover.flows.force</title>
<ellipse fill="lightgrey" stroke="grey" stroke-width="0" cx="252.49" cy="-18" rx="65.79" ry="18"/>
<text text-anchor="middle" x="252.49" y="-14.3" font-family="Times,serif" font-size="14.00">force: Force</text>
</g>
<!-- rover&#45;&gt;rover.flows.force -->
<g id="edge2" class="edge">
<title>rover-&gt;rover.flows.force</title>
<path fill="none" stroke="black" d="M1059.6,-124.83C841.44,-125.74 353.65,-123.29 289.49,-84 272.22,-73.42 262.26,-51.6 257.11,-36.16"/>
<polygon fill="black" stroke="black" points="1059.68,-124.83 1065.66,-120.8 1071.68,-124.77 1065.7,-128.8 1059.68,-124.83"/>
<text text-anchor="middle" x="346.49" y="-72.8" font-family="Times,serif" font-size="14.00">&lt;containment&gt;</text>
<text text-anchor="middle" x="346.49" y="-57.8" font-family="Times,serif" font-size="14.00">flows.force</text>
</g>
<!-- rover.flows.ee -->
<g id="node4" class="node">
<title>rover.flows.ee</title>
<ellipse fill="lightgrey" stroke="grey" stroke-width="0" cx="383.49" cy="-18" rx="40.89" ry="18"/>
<text text-anchor="middle" x="383.49" y="-14.3" font-family="Times,serif" font-size="14.00">ee: EE</text>
</g>
<!-- rover&#45;&gt;rover.flows.ee -->
<g id="edge3" class="edge">
<title>rover-&gt;rover.flows.ee</title>
<path fill="none" stroke="black" d="M1051.3,-122.48C861.58,-119.24 494.87,-109.7 441.49,-84 419.96,-73.63 402.92,-51.3 393.02,-35.73"/>
<polygon fill="black" stroke="black" points="1051.53,-122.49 1057.6,-118.59 1063.53,-122.69 1057.47,-126.59 1051.53,-122.49"/>
<text text-anchor="middle" x="498.49" y="-72.8" font-family="Times,serif" font-size="14.00">&lt;containment&gt;</text>
<text text-anchor="middle" x="498.49" y="-57.8" font-family="Times,serif" font-size="14.00">flows.ee</text>
</g>
<!-- rover.flows.video -->
<g id="node5" class="node">
<title>rover.flows.video</title>
<ellipse fill="lightgrey" stroke="grey" stroke-width="0" cx="510.49" cy="-18" rx="67.69" ry="18"/>
<text text-anchor="middle" x="510.49" y="-14.3" font-family="Times,serif" font-size="14.00">video: Video</text>
</g>
<!-- rover&#45;&gt;rover.flows.video -->
<g id="edge4" class="edge">
<title>rover-&gt;rover.flows.video</title>
<path fill="none" stroke="black" d="M1049.9,-122.06C913.21,-118.63 693.42,-109.27 615.49,-84 583.07,-73.49 550.41,-50.96 530.33,-35.4"/>
<polygon fill="black" stroke="black" points="1050.04,-122.06 1056.14,-118.21 1062.04,-122.36 1055.94,-126.21 1050.04,-122.06"/>
<text text-anchor="middle" x="672.49" y="-72.8" font-family="Times,serif" font-size="14.00">&lt;containment&gt;</text>
<text text-anchor="middle" x="672.49" y="-57.8" font-family="Times,serif" font-size="14.00">flows.video</text>
</g>
<!-- rover.flows.control -->
<g id="node6" class="node">
<title>rover.flows.control</title>
<ellipse fill="lightgrey" stroke="grey" stroke-width="0" cx="679.49" cy="-18" rx="83.69" ry="18"/>
<text text-anchor="middle" x="679.49" y="-14.3" font-family="Times,serif" font-size="14.00">control: Control</text>
</g>
<!-- rover&#45;&gt;rover.flows.control -->
<g id="edge5" class="edge">
<title>rover-&gt;rover.flows.control</title>
<path fill="none" stroke="black" d="M1057.26,-123.81C982.09,-120.95 880.14,-111.54 794.49,-84 760,-72.91 724.28,-50.75 701.98,-35.41"/>
<polygon fill="black" stroke="black" points="1057.56,-123.82 1063.7,-120.03 1069.56,-124.23 1063.42,-128.02 1057.56,-123.82"/>
<text text-anchor="middle" x="851.49" y="-72.8" font-family="Times,serif" font-size="14.00">&lt;containment&gt;</text>
<text text-anchor="middle" x="851.49" y="-57.8" font-family="Times,serif" font-size="14.00">flows.control</text>
</g>
<!-- rover.flows.comms -->
<g id="node7" class="node">
<title>rover.flows.comms</title>
<ellipse fill="lightgrey" stroke="grey" stroke-width="0" cx="852.49" cy="-18" rx="71.49" ry="18"/>
<text text-anchor="middle" x="852.49" y="-14.3" font-family="Times,serif" font-size="14.00">comms: Flow</text>
</g>
<!-- rover&#45;&gt;rover.flows.comms -->
<g id="edge6" class="edge">
<title>rover-&gt;rover.flows.comms</title>
<path fill="none" stroke="black" d="M1076.75,-111.27C1043.49,-105.02 1005.67,-96.14 972.49,-84 937.78,-71.29 900.82,-49.94 877.23,-35.19"/>
<polygon fill="black" stroke="black" points="1076.97,-111.31 1083.59,-108.45 1088.77,-113.46 1082.15,-116.32 1076.97,-111.31"/>
<text text-anchor="middle" x="1029.49" y="-72.8" font-family="Times,serif" font-size="14.00">&lt;containment&gt;</text>
<text text-anchor="middle" x="1029.49" y="-57.8" font-family="Times,serif" font-size="14.00">flows.comms</text>
</g>
<!-- rover.fxns.control_rover -->
<g id="node8" class="node">
<title>rover.fxns.control_rover</title>
<polygon fill="lightgrey" stroke="grey" stroke-width="2" points="1157.49,-36 941.49,-36 941.49,0 1157.49,0 1157.49,-36"/>
<text text-anchor="middle" x="1049.49" y="-14.3" font-family="Times,serif" font-size="14.00">control_rover: ControlRover</text>
</g>
<!-- rover&#45;&gt;rover.fxns.control_rover -->
<g id="edge7" class="edge">
<title>rover-&gt;rover.fxns.control_rover</title>
<path fill="none" stroke="black" d="M1143.66,-104.98C1122.19,-85.38 1089.01,-55.08 1068.31,-36.18"/>
<polygon fill="black" stroke="black" points="1143.76,-105.07 1150.88,-106.16 1152.62,-113.16 1145.49,-112.07 1143.76,-105.07"/>
<text text-anchor="middle" x="1186.49" y="-72.8" font-family="Times,serif" font-size="14.00">&lt;containment&gt;</text>
<text text-anchor="middle" x="1186.49" y="-57.8" font-family="Times,serif" font-size="14.00">fxns.control_rover</text>
</g>
<!-- rover.fxns.store_energy -->
<g id="node9" class="node">
<title>rover.fxns.store_energy</title>
<polygon fill="lightgrey" stroke="grey" stroke-width="2" points="1384.99,-36 1175.99,-36 1175.99,0 1384.99,0 1384.99,-36"/>
<text text-anchor="middle" x="1280.49" y="-14.3" font-family="Times,serif" font-size="14.00">store_energy: StoreEnergy</text>
</g>
<!-- rover&#45;&gt;rover.fxns.store_energy -->
<g id="edge8" class="edge">
<title>rover-&gt;rover.fxns.store_energy</title>
<path fill="none" stroke="black" d="M1217.69,-108.86C1231.39,-102.91 1245.16,-94.83 1255.49,-84 1268.1,-70.79 1274.53,-50.55 1277.69,-36.17"/>
<polygon fill="black" stroke="black" points="1217.44,-108.96 1213.33,-114.89 1206.28,-113.38 1210.38,-107.45 1217.44,-108.96"/>
<text text-anchor="middle" x="1336.49" y="-72.8" font-family="Times,serif" font-size="14.00">&lt;containment&gt;</text>
<text text-anchor="middle" x="1336.49" y="-57.8" font-family="Times,serif" font-size="14.00">fxns.store_energy</text>
</g>
<!-- rover.fxns.move_rover -->
<g id="node10" class="node">
<title>rover.fxns.move_rover</title>
<polygon fill="lightgrey" stroke="grey" stroke-width="2" points="1593.49,-36 1403.49,-36 1403.49,0 1593.49,0 1593.49,-36"/>
<text text-anchor="middle" x="1498.49" y="-14.3" font-family="Times,serif" font-size="14.00">move_rover: MoveRover</text>
</g>
<!-- rover&#45;&gt;rover.fxns.move_rover -->
<g id="edge9" class="edge">
<title>rover-&gt;rover.fxns.move_rover</title>
<path fill="none" stroke="black" d="M1303.22,-111.49C1337.15,-105.57 1372.8,-96.85 1404.49,-84 1432.81,-72.52 1461.07,-51.33 1479.1,-36.27"/>
<polygon fill="black" stroke="black" points="1303.13,-111.5 1297.87,-116.43 1291.3,-113.47 1296.56,-108.54 1303.13,-111.5"/>
<text text-anchor="middle" x="1515.49" y="-72.8" font-family="Times,serif" font-size="14.00">&lt;containment&gt;</text>
<text text-anchor="middle" x="1515.49" y="-57.8" font-family="Times,serif" font-size="14.00">fxns.move_rover</text>
</g>
<!-- rover.fxns.view_ground -->
<g id="node11" class="node">
<title>rover.fxns.view_ground</title>
<polygon fill="lightgrey" stroke="grey" stroke-width="2" points="1815.49,-36 1611.49,-36 1611.49,0 1815.49,0 1815.49,-36"/>
<text text-anchor="middle" x="1713.49" y="-14.3" font-family="Times,serif" font-size="14.00">view_ground: ViewGround</text>
</g>
<!-- rover&#45;&gt;rover.fxns.view_ground -->
<g id="edge10" class="edge">
<title>rover-&gt;rover.fxns.view_ground</title>
<path fill="none" stroke="black" d="M1271.76,-123.91C1356.47,-121.4 1476.91,-112.39 1578.49,-84 1617.57,-73.08 1659.16,-51.33 1685.68,-36.01"/>
<polygon fill="black" stroke="black" points="1271.52,-123.92 1265.63,-128.08 1259.53,-124.24 1265.42,-120.08 1271.52,-123.92"/>
<text text-anchor="middle" x="1713.49" y="-72.8" font-family="Times,serif" font-size="14.00">&lt;containment&gt;</text>
<text text-anchor="middle" x="1713.49" y="-57.8" font-family="Times,serif" font-size="14.00">fxns.view_ground</text>
</g>
<!-- rover.fxns.communicate -->
<g id="node12" class="node">
<title>rover.fxns.communicate</title>
<polygon fill="lightgrey" stroke="grey" stroke-width="2" points="2052.99,-36 1833.99,-36 1833.99,0 2052.99,0 2052.99,-36"/>
<text text-anchor="middle" x="1943.49" y="-14.3" font-family="Times,serif" font-size="14.00">communicate: Communicate</text>
</g>
<!-- rover&#45;&gt;rover.fxns.communicate -->
<g id="edge11" class="edge">
<title>rover-&gt;rover.fxns.communicate</title>
<path fill="none" stroke="black" d="M1283.93,-120.7C1435.78,-115.72 1689.21,-104.62 1780.49,-84 1827,-73.5 1877.56,-51.54 1909.84,-36.06"/>
<polygon fill="black" stroke="black" points="1283.81,-120.7 1277.95,-124.89 1271.82,-121.09 1277.69,-116.89 1283.81,-120.7"/>
<text text-anchor="middle" x="1932.49" y="-72.8" font-family="Times,serif" font-size="14.00">&lt;containment&gt;</text>
<text text-anchor="middle" x="1932.49" y="-57.8" font-family="Times,serif" font-size="14.00">fxns.communicate</text>
</g>
<!-- rover.m -->
<g id="node13" class="node">
<title>rover.m</title>
<polygon fill="lightgrey" stroke="grey" points="2149.99,-36 2082.99,-36 2082.99,-40 2070.99,-40 2070.99,0 2149.99,0 2149.99,-36"/>
<polyline fill="none" stroke="grey" points="2070.99,-36 2082.99,-36 "/>
<text text-anchor="middle" x="2110.49" y="-14.3" font-family="Times,serif" font-size="14.00">m: Mode</text>
</g>
<!-- rover&#45;&gt;rover.m -->
<g id="edge12" class="edge">
<title>rover-&gt;rover.m</title>
<path fill="none" stroke="black" d="M1281.02,-121.57C1494.91,-116.64 1934.46,-104.2 2001.49,-84 2034.61,-74.02 2068.11,-51.83 2089.06,-36.17"/>
<polygon fill="black" stroke="black" points="1280.82,-121.57 1274.92,-125.71 1268.83,-121.85 1274.73,-117.71 1280.82,-121.57"/>
<text text-anchor="middle" x="2120.49" y="-72.8" font-family="Times,serif" font-size="14.00">&lt;containment&gt;</text>
<text text-anchor="middle" x="2120.49" y="-57.8" font-family="Times,serif" font-size="14.00">m</text>
</g>
<!-- rover.sp -->
<g id="node14" class="node">
<title>rover.sp</title>
<polygon fill="lightgrey" stroke="grey" points="2287.49,-36 2183.49,-36 2183.49,-40 2171.49,-40 2171.49,0 2287.49,0 2287.49,-36"/>
<polyline fill="none" stroke="grey" points="2171.49,-36 2183.49,-36 "/>
<text text-anchor="middle" x="2229.49" y="-14.3" font-family="Times,serif" font-size="14.00">sp: SimParam</text>
</g>
<!-- rover&#45;&gt;rover.sp -->
<g id="edge13" class="edge">
<title>rover-&gt;rover.sp</title>
<path fill="none" stroke="black" d="M1279.02,-122.14C1536.59,-117.61 2142.22,-104.8 2181.49,-84 2200.96,-73.69 2214.6,-51.58 2222.24,-36.02"/>
<polygon fill="black" stroke="black" points="1279.02,-122.14 1273.09,-126.25 1267.02,-122.35 1272.95,-118.25 1279.02,-122.14"/>
<text text-anchor="middle" x="2268.49" y="-72.8" font-family="Times,serif" font-size="14.00">&lt;containment&gt;</text>
<text text-anchor="middle" x="2268.49" y="-57.8" font-family="Times,serif" font-size="14.00">sp</text>
</g>
<!-- rover.t -->
<g id="node15" class="node">
<title>rover.t</title>
<polygon fill="lightgrey" stroke="grey" points="2399.99,-36 2344.99,-36 2344.99,-40 2332.99,-40 2332.99,0 2399.99,0 2399.99,-36"/>
<polyline fill="none" stroke="grey" points="2332.99,-36 2344.99,-36 "/>
<text text-anchor="middle" x="2366.49" y="-14.3" font-family="Times,serif" font-size="14.00">t: Time</text>
</g>
<!-- rover&#45;&gt;rover.t -->
<g id="edge14" class="edge">
<title>rover-&gt;rover.t</title>
<path fill="none" stroke="black" d="M1276.11,-123.1C1559.01,-120.42 2284.94,-110.94 2329.49,-84 2346.83,-73.52 2356.77,-51.67 2361.9,-36.21"/>
<polygon fill="black" stroke="black" points="1275.79,-123.1 1269.83,-127.16 1263.79,-123.21 1269.76,-119.16 1275.79,-123.1"/>
<text text-anchor="middle" x="2410.49" y="-72.8" font-family="Times,serif" font-size="14.00">&lt;containment&gt;</text>
<text text-anchor="middle" x="2410.49" y="-57.8" font-family="Times,serif" font-size="14.00">t</text>
</g>
</g>
</svg>