<svg xmlns="http://www.w3.org/2000/svg" xmlns:xlink="http://www.w3.org/1999/xlink" width="553pt" height="620pt" viewBox="0.00 0.00 553.48 620.14">
<g id="graph0" class="graph" transform="scale(1 1) rotate(0) translate(4 616.14)">
<polygon fill="white" stroke="transparent" points="-4,4 -4,-616.14 549.48,-616.14 549.48,4 -4,4"/>
<!-- drone.flows.force_st -->
<g id="node1" class="node">
<title>drone.flows.force_st</title>
<ellipse fill="lightgrey" stroke="grey" stroke-width="0" cx="169.22" cy="-355.75" rx="47.39" ry="18"/>
<text text-anchor="middle" x="169.22" y="-352.05" font-family="Times,serif" font-size="14.00">force_st</text>
</g>
<!-- drone.flows.force_lin -->
<g id="node2" class="node">
<title>drone.flows.force_lin</title>
<ellipse fill="lightgrey" stroke="grey" stroke-width="0" cx="79.43" cy="-18" rx="50.09" ry="18"/>
<text text-anchor="middle" x="79.43" y="-14.3" font-family="Times,serif" font-size="14.00">force_lin</text>
</g>
<!-- drone.flows.ee_1 -->
<g id="node3" class="node">
<title>drone.flows.ee_1</title>
<ellipse fill="lightgrey" stroke="grey" stroke-width="0" cx="259" cy="-243.17" rx="31.7" ry="18"/>
<text text-anchor="middle" x="259" y="-239.47" font-family="Times,serif" font-size="14.00">ee_1</text>
</g>
<!-- drone.flows.ee_mot -->
<g id="node4" class="node">
<title>drone.flows.ee_mot</title>
<ellipse fill="lightgrey" stroke="grey" stroke-width="0" cx="291.04" cy="-102.78" rx="44.39" ry="18"/>
<text text-anchor="middle" x="291.04" y="-99.08" font-family="Times,serif" font-size="14.00">ee_mot</text>
</g>
<!-- drone.flows.ee_ctl -->
<g id="node5" class="node">
<title>drone.flows.ee_ctl</title>
<ellipse fill="lightgrey" stroke="grey" stroke-width="0" cx="388.74" cy="-180.69" rx="37.89" ry="18"/>
<text text-anchor="middle" x="388.74" y="-176.99" font-family="Times,serif" font-size="14.00">ee_ctl</text>
</g>
<!-- drone.flows.ctl -->
<g id="node6" class="node">
<title>drone.flows.ctl</title>
<ellipse fill="lightgrey" stroke="grey" stroke-width="0" cx="518.48" cy="-368.13" rx="27" ry="18"/>
<text text-anchor="middle" x="518.48" y="-364.43" font-family="Times,serif" font-size="14.00">ctl</text>
</g>
<!-- drone.flows.dofs -->
<g id="node7" class="node">
<title>drone.flows.dofs</title>
<ellipse fill="lightgrey" stroke="grey" stroke-width="0" cx="323.09" cy="-523.95" rx="30.59" ry="18"/>
<text text-anchor="middle" x="323.09" y="-520.25" font-family="Times,serif" font-size="14.00">dofs</text>
</g>
<!-- drone.flows.des_traj -->
<g id="node8" class="node">
<title>drone.flows.des_traj</title>
<ellipse fill="lightgrey" stroke="grey" stroke-width="0" cx="79.43" cy="-468.33" rx="48.19" ry="18"/>
<text text-anchor="middle" x="79.43" y="-464.63" font-family="Times,serif" font-size="14.00">des_traj</text>
</g>
<!-- drone.fxns.store_ee -->
<g id="node9" class="node">
<title>drone.fxns.store_ee</title>
<polygon fill="lightgrey" stroke="grey" stroke-width="2" points="252.61,-317.46 175.61,-317.46 175.61,-281.46 252.61,-281.46 252.61,-317.46"/>
<text text-anchor="middle" x="214.11" y="-295.76" font-family="Times,serif" font-size="14.00">store_ee</text>
</g>
<!-- drone.fxns.store_ee&#45;&gt;drone.flows.force_st -->
<g id="edge2" class="edge">
<title>drone.fxns.store_ee-&gt;drone.flows.force_st</title>
<path fill="none" stroke="black" d="M192.12,-327.03C189.02,-330.92 185.91,-334.81 183.03,-338.43"/>
<polygon fill="none" stroke="black" points="192.18,-326.96 192.79,-319.78 199.66,-317.58 199.04,-324.77 192.18,-326.96"/>
<text text-anchor="middle" x="160.57" y="-321.53" font-family="Times,serif" font-size="14.00">&lt;flow&gt;</text>
</g>
<!-- drone.fxns.store_ee&#45;&gt;drone.flows.ee_1 -->
<g id="edge1" class="edge">
<title>drone.fxns.store_ee-&gt;drone.flows.ee_1</title>
<path fill="none" stroke="black" d="M236.12,-271.86C239.43,-267.71 242.75,-263.55 245.79,-259.73"/>
<polygon fill="none" stroke="black" points="236.04,-271.96 235.43,-279.14 228.56,-281.34 229.17,-274.15 236.04,-271.96"/>
<text text-anchor="middle" x="267.96" y="-269.59" font-family="Times,serif" font-size="14.00">&lt;flow&gt;</text>
</g>
<!-- drone.fxns.dist_ee -->
<g id="node10" class="node">
<title>drone.fxns.dist_ee</title>
<polygon fill="lightgrey" stroke="grey" stroke-width="2" points="337.39,-204.88 270.39,-204.88 270.39,-168.88 337.39,-168.88 337.39,-204.88"/>
<text text-anchor="middle" x="303.89" y="-183.18" font-family="Times,serif" font-size="14.00">dist_ee</text>
</g>
<!-- drone.fxns.dist_ee&#45;&gt;drone.flows.force_st -->
<g id="edge6" class="edge">
<title>drone.fxns.dist_ee-&gt;drone.flows.force_st</title>
<path fill="none" stroke="black" d="M281.81,-214.57C253.84,-249.64 206.5,-309.01 183.12,-338.31"/>
<polygon fill="none" stroke="black" points="282,-214.33 282.61,-207.15 289.48,-204.95 288.87,-212.13 282,-214.33"/>
<text text-anchor="middle" x="205.46" y="-265.24" font-family="Times,serif" font-size="14.00">&lt;flow&gt;</text>
</g>
<!-- drone.fxns.dist_ee&#45;&gt;drone.flows.ee_1 -->
<g id="edge3" class="edge">
<title>drone.fxns.dist_ee-&gt;drone.flows.ee_1</title>
<path fill="none" stroke="black" d="M281.88,-214.48C278.57,-218.62 275.25,-222.79 272.21,-226.61"/>
<polygon fill="none" stroke="black" points="281.96,-214.38 282.57,-207.19 289.44,-205 288.83,-212.18 281.96,-214.38"/>
<text text-anchor="middle" x="304.04" y="-209.34" font-family="Times,serif" font-size="14.00">&lt;flow&gt;</text>
</g>
<!-- drone.fxns.dist_ee&#45;&gt;drone.flows.ee_mot -->
<g id="edge4" class="edge">
<title>drone.fxns.dist_ee-&gt;drone.flows.ee_mot</title>
<path fill="none" stroke="black" d="M299.24,-156.46C297.43,-144.57 295.41,-131.34 293.83,-120.99"/>
<polygon fill="none" stroke="black" points="299.29,-156.77 304.15,-162.09 301.1,-168.63 296.24,-163.3 299.29,-156.77"/>
<text text-anchor="middle" x="269.53" y="-142.52" font-family="Times,serif" font-size="14.00">&lt;flow&gt;</text>
</g>
<!-- drone.fxns.dist_ee&#45;&gt;drone.flows.ee_ctl -->
<g id="edge5" class="edge">
<title>drone.fxns.dist_ee-&gt;drone.flows.ee_ctl</title>
<path fill="none" stroke="black" d="M349.52,-183.55C350.1,-183.51 350.67,-183.46 351.25,-183.42"/>
<polygon fill="none" stroke="black" points="349.39,-183.56 343.7,-187.98 337.43,-184.43 343.12,-180 349.39,-183.56"/>
<text text-anchor="middle" x="323.39" y="-187.29" font-family="Times,serif" font-size="14.00">&lt;flow&gt;</text>
</g>
<!-- drone.fxns.affect_dof -->
<g id="node11" class="node">
<title>drone.fxns.affect_dof</title>
<polygon fill="lightgrey" stroke="grey" stroke-width="2" points="350.06,-50.58 264.06,-50.58 264.06,-14.58 350.06,-14.58 350.06,-50.58"/>
<text text-anchor="middle" x="307.06" y="-28.88" font-family="Times,serif" font-size="14.00">affect_dof</text>
</g>
<!-- drone.fxns.affect_dof&#45;&gt;drone.flows.force_lin -->
<g id="edge10" class="edge">
<title>drone.fxns.affect_dof-&gt;drone.flows.force_lin</title>
<path fill="none" stroke="black" d="M251.76,-29.04C214.32,-26.64 165.27,-23.5 129.07,-21.18"/>
<polygon fill="none" stroke="black" points="252.01,-29.06 258.25,-25.45 263.98,-29.82 257.74,-33.43 252.01,-29.06"/>
<text text-anchor="middle" x="163.42" y="-28.91" font-family="Times,serif" font-size="14.00">&lt;flow&gt;</text>
</g>
<!-- drone.fxns.affect_dof&#45;&gt;drone.flows.ee_mot -->
<g id="edge7" class="edge">
<title>drone.fxns.affect_dof-&gt;drone.flows.ee_mot</title>
<path fill="none" stroke="black" d="M300.26,-62.38C298.55,-69.9 296.75,-77.76 295.21,-84.52"/>
<polygon fill="none" stroke="black" points="300.27,-62.36 297.7,-55.62 302.94,-50.66 305.5,-57.4 300.27,-62.36"/>
<text text-anchor="middle" x="270.74" y="-62.25" font-family="Times,serif" font-size="14.00">&lt;flow&gt;</text>
</g>
<!-- drone.fxns.affect_dof&#45;&gt;drone.flows.ctl -->
<g id="edge8" class="edge">
<title>drone.fxns.affect_dof-&gt;drone.flows.ctl</title>
<path fill="none" stroke="black" d="M324.92,-60.92C367.46,-128.44 473.78,-297.18 507.82,-351.21"/>
<polygon fill="none" stroke="black" points="324.83,-60.78 318.25,-57.83 318.43,-50.62 325.01,-53.57 324.83,-60.78"/>
<text text-anchor="middle" x="389.37" y="-209.86" font-family="Times,serif" font-size="14.00">&lt;flow&gt;</text>
</g>
<!-- drone.fxns.affect_dof&#45;&gt;drone.flows.dofs -->
<g id="edge9" class="edge">
<title>drone.fxns.affect_dof-&gt;drone.flows.dofs</title>
<path fill="none" stroke="black" d="M308.05,-62.92C311.07,-155.4 320.09,-431.97 322.49,-505.71"/>
<polygon fill="none" stroke="black" points="308.04,-62.65 303.85,-56.78 307.65,-50.65 311.85,-56.52 308.04,-62.65"/>
<text text-anchor="middle" x="288.27" y="-288.11" font-family="Times,serif" font-size="14.00">&lt;flow&gt;</text>
</g>
<!-- drone.fxns.ctl_dof -->
<g id="node12" class="node">
<title>drone.fxns.ctl_dof</title>
<polygon fill="lightgrey" stroke="grey" stroke-width="2" points="339.06,-471.75 275.06,-471.75 275.06,-435.75 339.06,-435.75 339.06,-471.75"/>
<text text-anchor="middle" x="307.06" y="-450.05" font-family="Times,serif" font-size="14.00">ctl_dof</text>
</g>
<!-- drone.fxns.ctl_dof&#45;&gt;drone.flows.force_st -->
<g id="edge15" class="edge">
<title>drone.fxns.ctl_dof-&gt;drone.flows.force_st</title>
<path fill="none" stroke="black" d="M271.58,-428.53C246.49,-410.68 213.58,-387.29 191.94,-371.91"/>
<polygon fill="none" stroke="black" points="271.68,-428.6 278.89,-428.81 281.46,-435.55 274.25,-435.33 271.68,-428.6"/>
<text text-anchor="middle" x="204.76" y="-404.02" font-family="Times,serif" font-size="14.00">&lt;flow&gt;</text>
</g>
<!-- drone.fxns.ctl_dof&#45;&gt;drone.flows.ee_ctl -->
<g id="edge11" class="edge">
<title>drone.fxns.ctl_dof-&gt;drone.flows.ee_ctl</title>
<path fill="none" stroke="black" d="M316.07,-423.65C333.12,-366.63 369.66,-244.47 383.38,-198.59"/>
<polygon fill="none" stroke="black" points="315.99,-423.91 318.1,-430.81 312.55,-435.41 310.44,-428.52 315.99,-423.91"/>
<text text-anchor="middle" x="322.73" y="-314.92" font-family="Times,serif" font-size="14.00">&lt;flow&gt;</text>
</g>
<!-- drone.fxns.ctl_dof&#45;&gt;drone.flows.ctl -->
<g id="edge13" class="edge">
<title>drone.fxns.ctl_dof-&gt;drone.flows.ctl</title>
<path fill="none" stroke="black" d="M350.36,-436.22C394.23,-418.45 460.44,-391.63 495.23,-377.54"/>
<polygon fill="none" stroke="black" points="350.3,-436.24 346.24,-442.2 339.17,-440.75 343.23,-434.79 350.3,-436.24"/>
<text text-anchor="middle" x="395.8" y="-410.68" font-family="Times,serif" font-size="14.00">&lt;flow&gt;</text>
</g>
<!-- drone.fxns.ctl_dof&#45;&gt;drone.flows.dofs -->
<g id="edge14" class="edge">
<title>drone.fxns.ctl_dof-&gt;drone.flows.dofs</title>
<path fill="none" stroke="black" d="M313.86,-483.54C315.58,-491.07 317.37,-498.92 318.92,-505.69"/>
<polygon fill="none" stroke="black" points="313.86,-483.53 308.63,-478.57 311.19,-471.83 316.43,-476.79 313.86,-483.53"/>
<text text-anchor="middle" x="289.39" y="-483.42" font-family="Times,serif" font-size="14.00">&lt;flow&gt;</text>
</g>
<!-- drone.fxns.ctl_dof&#45;&gt;drone.flows.des_traj -->
<g id="edge12" class="edge">
<title>drone.fxns.ctl_dof-&gt;drone.flows.des_traj</title>
<path fill="none" stroke="black" d="M262.91,-456.58C223.81,-459.09 166.89,-462.73 126.85,-465.3"/>
<polygon fill="none" stroke="black" points="262.96,-456.58 268.69,-452.2 274.93,-455.81 269.2,-460.19 262.96,-456.58"/>
<text text-anchor="middle" x="167.88" y="-464.74" font-family="Times,serif" font-size="14.00">&lt;flow&gt;</text>
</g>
<!-- drone.fxns.plan_path -->
<g id="node13" class="node">
<title>drone.fxns.plan_path</title>
<polygon fill="lightgrey" stroke="grey" stroke-width="2" points="86,-261.17 0,-261.17 0,-225.17 86,-225.17 86,-261.17"/>
<text text-anchor="middle" x="43" y="-239.47" font-family="Times,serif" font-size="14.00">plan_path</text>
</g>
<!-- drone.fxns.plan_path&#45;&gt;drone.flows.force_st -->
<g id="edge18" class="edge">
<title>drone.fxns.plan_path-&gt;drone.flows.force_st</title>
<path fill="none" stroke="black" d="M72.35,-269.35C96.51,-290.9 130.03,-320.8 150.63,-339.18"/>
<polygon fill="none" stroke="black" points="72.23,-269.24 65.09,-268.23 63.28,-261.26 70.42,-262.26 72.23,-269.24"/>
<text text-anchor="middle" x="84.49" y="-308.06" font-family="Times,serif" font-size="14.00">&lt;flow&gt;</text>
</g>
<!-- drone.fxns.plan_path&#45;&gt;drone.flows.ee_ctl -->
<g id="edge16" class="edge">
<title>drone.fxns.plan_path-&gt;drone.flows.ee_ctl</title>
<path fill="none" stroke="black" d="M97.98,-233.23C169.61,-220.29 292.82,-198.02 353.24,-187.1"/>
<polygon fill="none" stroke="black" points="97.9,-233.25 92.7,-238.25 86.09,-235.38 91.28,-230.38 97.9,-233.25"/>
<text text-anchor="middle" x="198.61" y="-213.97" font-family="Times,serif" font-size="14.00">&lt;flow&gt;</text>
</g>
<!-- drone.fxns.plan_path&#45;&gt;drone.flows.dofs -->
<g id="edge19" class="edge">
<title>drone.fxns.plan_path-&gt;drone.flows.dofs</title>
<path fill="none" stroke="black" d="M69.96,-270.2C127.69,-328.07 261.73,-462.44 307.47,-508.29"/>
<polygon fill="none" stroke="black" points="69.85,-270.09 62.78,-268.66 61.38,-261.59 68.45,-263.01 69.85,-270.09"/>
<text text-anchor="middle" x="161.71" y="-378.04" font-family="Times,serif" font-size="14.00">&lt;flow&gt;</text>
</g>
<!-- drone.fxns.plan_path&#45;&gt;drone.flows.des_traj -->
<g id="edge17" class="edge">
<title>drone.fxns.plan_path-&gt;drone.flows.des_traj</title>
<path fill="none" stroke="black" d="M47.84,-273.08C55.51,-320.5 70.24,-411.51 76.5,-450.2"/>
<polygon fill="none" stroke="black" points="47.84,-273.06 42.93,-267.78 45.92,-261.21 50.83,-266.5 47.84,-273.06"/>
<text text-anchor="middle" x="35.17" y="-365.44" font-family="Times,serif" font-size="14.00">&lt;flow&gt;</text>
</g>
<!-- drone.fxns.hold_payload -->
<g id="node14" class="node">
<title>drone.fxns.hold_payload</title>
<polygon fill="lightgrey" stroke="grey" stroke-width="2" points="179.33,-92.29 69.33,-92.29 69.33,-56.29 179.33,-56.29 179.33,-92.29"/>
<text text-anchor="middle" x="124.33" y="-70.59" font-family="Times,serif" font-size="14.00">hold_payload</text>
</g>
<!-- drone.fxns.hold_payload&#45;&gt;drone.flows.force_st -->
<g id="edge22" class="edge">
<title>drone.fxns.hold_payload-&gt;drone.flows.force_st</title>
<path fill="none" stroke="black" d="M129.12,-104.34C138.44,-162.76 158.75,-290.11 166.31,-337.5"/>
<polygon fill="none" stroke="black" points="129.09,-104.18 124.2,-98.88 127.2,-92.33 132.1,-97.62 129.09,-104.18"/>
<text text-anchor="middle" x="120.71" y="-224.72" font-family="Times,serif" font-size="14.00">&lt;flow&gt;</text>
</g>
<!-- drone.fxns.hold_payload&#45;&gt;drone.flows.force_lin -->
<g id="edge21" class="edge">
<title>drone.fxns.hold_payload-&gt;drone.flows.force_lin</title>
<path fill="none" stroke="black" d="M102.34,-46.72C99.24,-42.83 96.13,-38.94 93.25,-35.32"/>
<polygon fill="none" stroke="black" points="102.39,-46.79 109.26,-48.99 109.88,-56.17 103.01,-53.97 102.39,-46.79"/>
<text text-anchor="middle" x="70.79" y="-44.82" font-family="Times,serif" font-size="14.00">&lt;flow&gt;</text>
</g>
<!-- drone.fxns.hold_payload&#45;&gt;drone.flows.dofs -->
<g id="edge20" class="edge">
<title>drone.fxns.hold_payload-&gt;drone.flows.dofs</title>
<path fill="none" stroke="black" d="M137.33,-103.71C175.3,-189.61 285.26,-438.38 315.38,-506.52"/>
<polygon fill="none" stroke="black" points="137.22,-103.45 131.13,-99.58 132.36,-92.48 138.45,-96.35 137.22,-103.45"/>
<text text-anchor="middle" x="253.35" y="-308.91" font-family="Times,serif" font-size="14.00">&lt;flow&gt;</text>
</g>
<!-- drone.fxns.view_env -->
<g id="node15" class="node">
<title>drone.fxns.view_env</title>
<polygon fill="lightgrey" stroke="grey" stroke-width="2" points="380.11,-612.14 298.11,-612.14 298.11,-576.14 380.11,-576.14 380.11,-612.14"/>
<text text-anchor="middle" x="339.11" y="-590.44" font-family="Times,serif" font-size="14.00">view_env</text>
</g>
<!-- drone.fxns.view_env&#45;&gt;drone.flows.dofs -->
<g id="edge23" class="edge">
<title>drone.fxns.view_env-&gt;drone.flows.dofs</title>
<path fill="none" stroke="black" d="M332.31,-564.35C330.59,-556.83 328.8,-548.97 327.25,-542.21"/>
<polygon fill="none" stroke="black" points="332.31,-564.37 337.55,-569.32 334.98,-576.06 329.75,-571.11 332.31,-564.37"/>
<text text-anchor="middle" x="302.78" y="-557.08" font-family="Times,serif" font-size="14.00">&lt;flow&gt;</text>
</g>
</g>
</svg>