<svg xmlns="http://www.w3.org/2000/svg" xmlns:xlink="http://www.w3.org/1999/xlink" width="808pt" height="447pt" viewBox="0.00 0.00 807.62 447.00">
<g id="graph0" class="graph" transform="scale(1 1) rotate(0) translate(4 443)">
<polygon fill="white" stroke="none" points="-4,4 -4,-443 803.62,-443 803.62,4 -4,4"/>
<!-- Rover -->
<g id="node1" class="node">
<title>Rover</title>
<polygon fill="lightgrey" stroke="grey" points="324.01,-439 256.82,-403.38 391.21,-403.38 324.01,-439"/>
<text text-anchor="middle" x="324.01" y="-409.82" font-family="Times New Roman,serif" font-size="14.00">Rover</text>
</g>
<!-- ControlRover -->
<g id="node2" class="node">
<title>ControlRover</title>
<polygon fill="lightgrey" stroke="grey" stroke-width="2" points="103.64,-231.75 10.39,-231.75 10.39,-195.75 103.64,-195.75 103.64,-231.75"/>
<text text-anchor="middle" x="57.01" y="-208.32" font-family="Times New Roman,serif" font-size="14.00">ControlRover</text>
</g>
<!-- Rover&#45;&gt;ControlRover -->
<g id="edge1" class="edge">
<title>Rover-&gt;ControlRover</title>
<path fill="none" stroke="black" d="M281.85,-398.15C242.97,-382.01 184.97,-354.56 142.01,-319.5 110.63,-293.88 82.84,-255.05 68.13,-232.56"/>
<polygon fill="black" stroke="black" points="281.8,-398.13 288.86,-396.68 292.92,-402.65 285.85,-404.09 281.8,-398.13"/>
<text text-anchor="middle" x="184.01" y="-306.2" font-family="Times New Roman,serif" font-size="14.00">&lt;containment&gt;</text>
</g>
<!-- StoreEnergy -->
<g id="node3" class="node">
<title>StoreEnergy</title>
<polygon fill="lightgrey" stroke="grey" stroke-width="2" points="259.51,-231.75 174.51,-231.75 174.51,-195.75 259.51,-195.75 259.51,-231.75"/>
<text text-anchor="middle" x="217.01" y="-208.32" font-family="Times New Roman,serif" font-size="14.00">StoreEnergy</text>
</g>
<!-- Rover&#45;&gt;StoreEnergy -->
<g id="edge2" class="edge">
<title>Rover-&gt;StoreEnergy</title>
<path fill="none" stroke="black" d="M298.94,-394.81C278.34,-377.39 250.18,-349.95 235.01,-319.5 220.95,-291.26 217.64,-254.01 217,-232.38"/>
<polygon fill="black" stroke="black" points="298.92,-394.8 306.1,-395.5 308.21,-402.39 301.03,-401.69 298.92,-394.8"/>
<text text-anchor="middle" x="277.01" y="-306.2" font-family="Times New Roman,serif" font-size="14.00">&lt;containment&gt;</text>
</g>
<!-- ViewGround -->
<g id="node4" class="node">
<title>ViewGround</title>
<polygon fill="lightgrey" stroke="grey" stroke-width="2" points="558.01,-231.75 470.01,-231.75 470.01,-195.75 558.01,-195.75 558.01,-231.75"/>
<text text-anchor="middle" x="514.01" y="-208.32" font-family="Times New Roman,serif" font-size="14.00">ViewGround</text>
</g>
<!-- Rover&#45;&gt;ViewGround -->
<g id="edge3" class="edge">
<title>Rover-&gt;ViewGround</title>
<path fill="none" stroke="black" d="M343.71,-393.57C381.14,-354.27 461.97,-269.4 497.12,-232.49"/>
<polygon fill="black" stroke="black" points="343.67,-393.61 342.43,-400.71 335.4,-402.3 336.64,-395.2 343.67,-393.61"/>
<text text-anchor="middle" x="467.01" y="-306.2" font-family="Times New Roman,serif" font-size="14.00">&lt;containment&gt;</text>
</g>
<!-- Communicate -->
<g id="node5" class="node">
<title>Communicate</title>
<polygon fill="lightgrey" stroke="grey" stroke-width="2" points="752.64,-231.75 659.39,-231.75 659.39,-195.75 752.64,-195.75 752.64,-231.75"/>
<text text-anchor="middle" x="706.01" y="-208.32" font-family="Times New Roman,serif" font-size="14.00">Communicate</text>
</g>
<!-- Rover&#45;&gt;Communicate -->
<g id="edge4" class="edge">
<title>Rover-&gt;Communicate</title>
<path fill="none" stroke="black" d="M358.55,-397.36C396.57,-378.66 459.43,-347.46 513.01,-319.5 569.97,-289.78 635.56,-253.8 673.75,-232.68"/>
<polygon fill="black" stroke="black" points="358.7,-397.28 355.08,-403.52 347.93,-402.57 351.55,-396.34 358.7,-397.28"/>
<text text-anchor="middle" x="581.01" y="-306.2" font-family="Times New Roman,serif" font-size="14.00">&lt;containment&gt;</text>
</g>
<!-- MoveRover -->
<g id="node6" class="node">
<title>MoveRover</title>
<polygon fill="lightgrey" stroke="grey" stroke-width="2" points="363.39,-231.75 280.64,-231.75 280.64,-195.75 363.39,-195.75 363.39,-231.75"/>
<text text-anchor="middle" x="322.01" y="-208.32" font-family="Times New Roman,serif" font-size="14.00">MoveRover</text>
</g>
<!-- Rover&#45;&gt;MoveRover -->
<g id="edge5" class="edge">
<title>Rover-&gt;MoveRover</title>
<path fill="none" stroke="black" d="M323.77,-389.94C323.36,-349.25 322.55,-268.3 322.19,-232.49"/>
<polygon fill="black" stroke="black" points="323.77,-390.05 327.83,-396.01 323.89,-402.05 319.83,-396.09 323.77,-390.05"/>
<text text-anchor="middle" x="365.01" y="-306.2" font-family="Times New Roman,serif" font-size="14.00">&lt;containment&gt;</text>
</g>
<!-- Control -->
<g id="node11" class="node">
<title>Control</title>
<ellipse fill="lightgrey" stroke="grey" stroke-width="0" cx="66.01" cy="-18" rx="39.09" ry="18"/>
<text text-anchor="middle" x="66.01" y="-12.57" font-family="Times New Roman,serif" font-size="14.00">Control</text>
</g>
<!-- ControlRover&#45;&gt;Control -->
<g id="edge6" class="edge">
<title>ControlRover-&gt;Control</title>
<path fill="none" stroke="black" d="M29.06,-185.42C11.58,-164.91 -6.08,-135.71 2.76,-108 12.1,-78.75 34.95,-50.88 50.47,-34.35"/>
<polygon fill="none" stroke="black" points="29.11,-185.47 36.1,-187.22 37.18,-194.35 30.18,-192.6 29.11,-185.47"/>
<text text-anchor="middle" x="23.64" y="-110.45" font-family="Times New Roman,serif" font-size="14.00">&lt;flow&gt;</text>
</g>
<!-- EE -->
<g id="node9" class="node">
<title>EE</title>
<ellipse fill="lightgrey" stroke="grey" stroke-width="0" cx="507.01" cy="-18" rx="27" ry="18"/>
<text text-anchor="middle" x="507.01" y="-12.57" font-family="Times New Roman,serif" font-size="14.00">EE</text>
</g>
<!-- StoreEnergy&#45;&gt;EE -->
<g id="edge8" class="edge">
<title>StoreEnergy-&gt;EE</title>
<path fill="none" stroke="black" d="M227.47,-183.18C237.05,-159.92 253.33,-128.17 276.76,-108 338.48,-54.88 435.42,-31.59 481.3,-23.11"/>
<polygon fill="none" stroke="black" points="227.51,-183.08 229.06,-190.12 223.16,-194.26 221.61,-187.22 227.51,-183.08"/>
<text text-anchor="middle" x="297.64" y="-110.45" font-family="Times New Roman,serif" font-size="14.00">&lt;flow&gt;</text>
</g>
<!-- StoreEnergy&#45;&gt;Control -->
<g id="edge7" class="edge">
<title>StoreEnergy-&gt;Control</title>
<path fill="none" stroke="black" d="M161.66,-195.66C127.78,-182.02 87.15,-159.22 66.76,-123.75 50.91,-96.16 56.38,-57.34 61.43,-35.54"/>
<polygon fill="none" stroke="black" points="161.73,-195.68 168.76,-194.08 172.94,-199.95 165.91,-201.56 161.73,-195.68"/>
<text text-anchor="middle" x="87.64" y="-110.45" font-family="Times New Roman,serif" font-size="14.00">&lt;flow&gt;</text>
</g>
<!-- Ground -->
<g id="node7" class="node">
<title>Ground</title>
<ellipse fill="lightgrey" stroke="grey" stroke-width="0" cx="343.01" cy="-18" rx="39.59" ry="18"/>
<text text-anchor="middle" x="343.01" y="-12.57" font-family="Times New Roman,serif" font-size="14.00">Ground</text>
</g>
<!-- ViewGround&#45;&gt;Ground -->
<g id="edge10" class="edge">
<title>ViewGround-&gt;Ground</title>
<path fill="none" stroke="black" d="M513.97,-182.31C512.52,-159.89 507.48,-129.67 492.01,-108 462.88,-67.16 408.61,-41.8 374.23,-29.05"/>
<polygon fill="none" stroke="black" points="513.96,-182.22 518.19,-188.06 514.43,-194.21 510.2,-188.37 513.96,-182.22"/>
<text text-anchor="middle" x="521.64" y="-110.45" font-family="Times New Roman,serif" font-size="14.00">&lt;flow&gt;</text>
</g>
<!-- Force -->
<g id="node8" class="node">
<title>Force</title>
<ellipse fill="lightgrey" stroke="grey" stroke-width="0" cx="223.01" cy="-18" rx="32.6" ry="18"/>
<text text-anchor="middle" x="223.01" y="-12.57" font-family="Times New Roman,serif" font-size="14.00">Force</text>
</g>
<!-- ViewGround&#45;&gt;Force -->
<g id="edge9" class="edge">
<title>ViewGround-&gt;Force</title>
<path fill="none" stroke="black" d="M475.02,-187.82C448.52,-170.51 412.94,-146.56 382.76,-123.75 374.08,-117.19 372.8,-114.42 364.01,-108 323.34,-78.29 272.82,-47.85 244.63,-31.4"/>
<polygon fill="none" stroke="black" points="474.96,-187.78 482.17,-187.69 485.02,-194.32 477.81,-194.4 474.96,-187.78"/>
<text text-anchor="middle" x="403.64" y="-110.45" font-family="Times New Roman,serif" font-size="14.00">&lt;flow&gt;</text>
</g>
<!-- ViewGround&#45;&gt;EE -->
<g id="edge11" class="edge">
<title>ViewGround-&gt;EE</title>
<path fill="none" stroke="black" d="M536.02,-184.48C549.47,-163.78 562.89,-134.74 556.01,-108 548.77,-79.81 530.51,-50.99 518.44,-34.06"/>
<polygon fill="none" stroke="black" points="536.03,-184.47 535.89,-191.68 529.18,-194.32 529.32,-187.11 536.03,-184.47"/>
<text text-anchor="middle" x="577.64" y="-110.45" font-family="Times New Roman,serif" font-size="14.00">&lt;flow&gt;</text>
</g>
<!-- Video -->
<g id="node10" class="node">
<title>Video</title>
<ellipse fill="lightgrey" stroke="grey" stroke-width="0" cx="642.01" cy="-18" rx="33.1" ry="18"/>
<text text-anchor="middle" x="642.01" y="-12.57" font-family="Times New Roman,serif" font-size="14.00">Video</text>
</g>
<!-- ViewGround&#45;&gt;Video -->
<g id="edge12" class="edge">
<title>ViewGround-&gt;Video</title>
<path fill="none" stroke="black" d="M545.89,-186.53C564.29,-170.06 586.72,-147.49 602.01,-123.75 620.36,-95.27 632.24,-57.12 637.98,-35.59"/>
<polygon fill="none" stroke="black" points="545.88,-186.54 543.99,-193.5 536.84,-194.43 538.73,-187.47 545.88,-186.54"/>
<text text-anchor="middle" x="629.64" y="-110.45" font-family="Times New Roman,serif" font-size="14.00">&lt;flow&gt;</text>
</g>
<!-- Communicate&#45;&gt;EE -->
<g id="edge14" class="edge">
<title>Communicate-&gt;EE</title>
<path fill="none" stroke="black" d="M696.34,-182.79C687.9,-160.23 673.89,-129.61 654.01,-108 617.97,-68.8 560.72,-41 529.36,-27.75"/>
<polygon fill="none" stroke="black" points="696.36,-182.85 702.13,-187.17 700.36,-194.16 694.59,-189.84 696.36,-182.85"/>
<text text-anchor="middle" x="685.64" y="-110.45" font-family="Times New Roman,serif" font-size="14.00">&lt;flow&gt;</text>
</g>
<!-- Flow -->
<g id="node12" class="node">
<title>Flow</title>
<ellipse fill="lightgrey" stroke="grey" stroke-width="0" cx="770.01" cy="-18" rx="29.61" ry="18"/>
<text text-anchor="middle" x="770.01" y="-12.57" font-family="Times New Roman,serif" font-size="14.00">Flow</text>
</g>
<!-- Communicate&#45;&gt;Flow -->
<g id="edge13" class="edge">
<title>Communicate-&gt;Flow</title>
<path fill="none" stroke="black" d="M721.97,-183.45C730.69,-166.43 741.1,-144.34 748.01,-123.75 758.19,-93.45 764.62,-56.58 767.75,-35.65"/>
<polygon fill="none" stroke="black" points="721.98,-183.43 722.74,-190.6 716.41,-194.06 715.65,-186.89 721.98,-183.43"/>
<text text-anchor="middle" x="772.64" y="-110.45" font-family="Times New Roman,serif" font-size="14.00">&lt;flow&gt;</text>
</g>
<!-- MoveRover&#45;&gt;Ground -->
<g id="edge16" class="edge">
<title>MoveRover-&gt;Ground</title>
<path fill="none" stroke="black" d="M320.49,-182C319.88,-161.07 319.89,-132.78 322.76,-108 325.74,-82.34 333.14,-53.28 338.12,-35.54"/>
<polygon fill="none" stroke="black" points="320.49,-181.99 324.71,-187.84 320.94,-193.98 316.72,-188.14 320.49,-181.99"/>
<text text-anchor="middle" x="343.64" y="-110.45" font-family="Times New Roman,serif" font-size="14.00">&lt;flow&gt;</text>
</g>
<!-- MoveRover&#45;&gt;Force -->
<g id="edge15" class="edge">
<title>MoveRover-&gt;Force</title>
<path fill="none" stroke="black" d="M268.47,-190.21C241.1,-175.6 210.35,-153.67 194.76,-123.75 179.45,-94.35 198.55,-55.86 211.98,-34.68"/>
<polygon fill="none" stroke="black" points="268.43,-190.19 275.59,-189.33 279.13,-195.61 271.97,-196.47 268.43,-190.19"/>
<text text-anchor="middle" x="215.64" y="-110.45" font-family="Times New Roman,serif" font-size="14.00">&lt;flow&gt;</text>
</g>
<!-- MoveRover&#45;&gt;EE -->
<g id="edge18" class="edge">
<title>MoveRover-&gt;EE</title>
<path fill="none" stroke="black" d="M356.16,-187.31C377.82,-170.42 405.84,-147.12 428.01,-123.75 455.77,-94.51 482.91,-55.63 497.02,-34.41"/>
<polygon fill="none" stroke="black" points="356.31,-187.2 354,-194.02 346.8,-194.52 349.12,-187.69 356.31,-187.2"/>
<text text-anchor="middle" x="460.64" y="-110.45" font-family="Times New Roman,serif" font-size="14.00">&lt;flow&gt;</text>
</g>
<!-- MoveRover&#45;&gt;Control -->
<g id="edge17" class="edge">
<title>MoveRover-&gt;Control</title>
<path fill="none" stroke="black" d="M267.66,-192.86C230.76,-177.62 182.23,-154.08 145.76,-123.75 114.66,-97.88 88.44,-57.71 75.23,-35.38"/>
<polygon fill="none" stroke="black" points="267.73,-192.88 274.79,-191.41 278.86,-197.36 271.8,-198.83 267.73,-192.88"/>
<text text-anchor="middle" x="166.64" y="-110.45" font-family="Times New Roman,serif" font-size="14.00">&lt;flow&gt;</text>
</g>
</g>
</svg>