<svg xmlns="http://www.w3.org/2000/svg" xmlns:xlink="http://www.w3.org/1999/xlink" width="1570pt" height="1120pt" viewBox="0.00 0.00 1569.62 1119.50">
<g id="graph0" class="graph" transform="scale(1 1) rotate(0) translate(4 1115.5)">
<polygon fill="white" stroke="none" points="-4,4 -4,-1115.5 1565.62,-1115.5 1565.62,4 -4,4"/>
<!-- rover.fxns.move_rover -->
<g id="node1" class="node">
<title>rover.fxns.move_rover</title>
<polygon fill="lightgrey" stroke="grey" stroke-width="2" points="840.38,-1111.5 683.38,-1111.5 683.38,-1075.5 840.38,-1075.5 840.38,-1111.5"/>
<text text-anchor="middle" x="761.88" y="-1088.08" font-family="Times New Roman,serif" font-size="14.00">move_rover: MoveRover</text>
</g>
<!-- rover.fxns.move_rover.m -->
<g id="node2" class="node">
<title>rover.fxns.move_rover.m</title>
<polygon fill="lightgrey" stroke="grey" points="192.38,-969.25 71.38,-969.25 71.38,-973.25 59.38,-973.25 59.38,-933.25 192.38,-933.25 192.38,-969.25"/>
<polyline fill="none" stroke="grey" points="59.38,-969.25 71.38,-969.25"/>
<text text-anchor="middle" x="125.88" y="-945.83" font-family="Times New Roman,serif" font-size="14.00">m: MoveRoverMode</text>
</g>
<!-- rover.fxns.move_rover&#45;&gt;rover.fxns.move_rover.m -->
<g id="edge1" class="edge">
<title>rover.fxns.move_rover-&gt;rover.fxns.move_rover.m</title>
<path fill="none" stroke="black" d="M669.63,-1090.09C527.16,-1085.83 265.85,-1075.64 226.88,-1057.5 185.55,-1038.26 152.4,-994.04 136.37,-969.48"/>
<polygon fill="black" stroke="black" points="669.72,-1090.09 675.84,-1086.27 681.72,-1090.45 675.6,-1094.27 669.72,-1090.09"/>
<text text-anchor="middle" x="268.88" y="-1044.2" font-family="Times New Roman,serif" font-size="14.00">&lt;containment&gt;</text>
<text text-anchor="middle" x="268.88" y="-1028.45" font-family="Times New Roman,serif" font-size="14.00">m</text>
</g>
<!-- rover.fxns.move_rover.s -->
<g id="node3" class="node">
<title>rover.fxns.move_rover.s</title>
<polygon fill="lightgrey" stroke="grey" points="343.5,-969.25 232.25,-969.25 232.25,-973.25 220.25,-973.25 220.25,-933.25 343.5,-933.25 343.5,-969.25"/>
<polyline fill="none" stroke="grey" points="220.25,-969.25 232.25,-969.25"/>
<text text-anchor="middle" x="281.88" y="-945.83" font-family="Times New Roman,serif" font-size="14.00">s: MoveRoverState</text>
</g>
<!-- rover.fxns.move_rover&#45;&gt;rover.fxns.move_rover.s -->
<g id="edge2" class="edge">
<title>rover.fxns.move_rover-&gt;rover.fxns.move_rover.s</title>
<path fill="none" stroke="black" d="M669.74,-1089.2C555.29,-1084.41 371.73,-1074.25 344.88,-1057.5 312.53,-1037.33 294.62,-993.91 286.77,-969.61"/>
<polygon fill="black" stroke="black" points="669.76,-1089.2 675.92,-1085.45 681.75,-1089.69 675.6,-1093.44 669.76,-1089.2"/>
<text text-anchor="middle" x="386.88" y="-1044.2" font-family="Times New Roman,serif" font-size="14.00">&lt;containment&gt;</text>
<text text-anchor="middle" x="386.88" y="-1028.45" font-family="Times New Roman,serif" font-size="14.00">s</text>
</g>
<!-- rover.fxns.move_rover.sp -->
<g id="node4" class="node">
<title>rover.fxns.move_rover.sp</title>
<polygon fill="lightgrey" stroke="grey" points="469.5,-969.25 388.25,-969.25 388.25,-973.25 376.25,-973.25 376.25,-933.25 469.5,-933.25 469.5,-969.25"/>
<polyline fill="none" stroke="grey" points="376.25,-969.25 388.25,-969.25"/>
<text text-anchor="middle" x="422.88" y="-945.83" font-family="Times New Roman,serif" font-size="14.00">sp: SimParam</text>
</g>
<!-- rover.fxns.move_rover&#45;&gt;rover.fxns.move_rover.sp -->
<g id="edge3" class="edge">
<title>rover.fxns.move_rover-&gt;rover.fxns.move_rover.sp</title>
<path fill="none" stroke="black" d="M669.52,-1092.96C590.84,-1091.42 485.64,-1084.18 453.88,-1057.5 427.91,-1035.69 423.07,-993.32 422.52,-969.53"/>
<polygon fill="black" stroke="black" points="669.49,-1092.96 675.56,-1089.05 681.49,-1093.15 675.43,-1097.05 669.49,-1092.96"/>
<text text-anchor="middle" x="495.88" y="-1044.2" font-family="Times New Roman,serif" font-size="14.00">&lt;containment&gt;</text>
<text text-anchor="middle" x="495.88" y="-1028.45" font-family="Times New Roman,serif" font-size="14.00">sp</text>
</g>
<!-- rover.fxns.move_rover.t -->
<g id="node5" class="node">
<title>rover.fxns.move_rover.t</title>
<polygon fill="lightgrey" stroke="grey" points="542.38,-969.25 499.38,-969.25 499.38,-973.25 487.38,-973.25 487.38,-933.25 542.38,-933.25 542.38,-969.25"/>
<polyline fill="none" stroke="grey" points="487.38,-969.25 499.38,-969.25"/>
<text text-anchor="middle" x="514.88" y="-945.83" font-family="Times New Roman,serif" font-size="14.00">t: Time</text>
</g>
<!-- rover.fxns.move_rover&#45;&gt;rover.fxns.move_rover.t -->
<g id="edge4" class="edge">
<title>rover.fxns.move_rover-&gt;rover.fxns.move_rover.t</title>
<path fill="none" stroke="black" d="M669.57,-1083.74C627.88,-1078.22 584.31,-1069.77 567.88,-1057.5 538.7,-1035.71 524.47,-993.34 518.51,-969.54"/>
<polygon fill="black" stroke="black" points="669.62,-1083.75 676.07,-1080.53 681.52,-1085.25 675.07,-1088.47 669.62,-1083.75"/>
<text text-anchor="middle" x="609.88" y="-1044.2" font-family="Times New Roman,serif" font-size="14.00">&lt;containment&gt;</text>
<text text-anchor="middle" x="609.88" y="-1028.45" font-family="Times New Roman,serif" font-size="14.00">t</text>
</g>
<!-- __main__.MoveRover -->
<g id="node20" class="node">
<title>__main__.MoveRover</title>
<polygon fill="lightgrey" stroke="grey" points="673.62,-1008 560.12,-1008 560.12,-894.5 673.62,-894.5 673.62,-1008"/>
<polyline fill="none" stroke="grey" points="572.12,-1008 560.12,-996"/>
<polyline fill="none" stroke="grey" points="560.12,-906.5 572.12,-894.5"/>
<polyline fill="none" stroke="grey" points="661.62,-894.5 673.62,-906.5"/>
<polyline fill="none" stroke="grey" points="673.62,-996 661.62,-1008"/>
<text text-anchor="middle" x="616.88" y="-945.83" font-family="Times New Roman,serif" font-size="14.00">MoveRover: type</text>
</g>
<!-- rover.fxns.move_rover&#45;&gt;__main__.MoveRover -->
<g id="edge11" class="edge">
<title>rover.fxns.move_rover-&gt;__main__.MoveRover</title>
<path fill="none" stroke="black" d="M709,-1074.7C699.43,-1070.03 690,-1064.34 682.12,-1057.5 669.22,-1046.3 658.03,-1031.9 648.75,-1017.38"/>
<polygon fill="none" stroke="black" points="651.42,-1016.04 643.21,-1009.35 645.45,-1019.7 651.42,-1016.04"/>
<text text-anchor="middle" x="720.75" y="-1044.2" font-family="Times New Roman,serif" font-size="14.00">&lt;inheritance&gt;</text>
<text text-anchor="middle" x="720.75" y="-1028.45" font-family="Times New Roman,serif" font-size="14.00">base</text>
</g>
<!-- rover.flows.control -->
<g id="node24" class="node">
<title>rover.flows.control</title>
<ellipse fill="lightgrey" stroke="grey" stroke-width="0" cx="761.88" cy="-951.25" rx="70.03" ry="18"/>
<text text-anchor="middle" x="761.88" y="-945.83" font-family="Times New Roman,serif" font-size="14.00">control: Control</text>
</g>
<!-- rover.fxns.move_rover&#45;&gt;rover.flows.control -->
<g id="edge7" class="edge">
<title>rover.fxns.move_rover-&gt;rover.flows.control</title>
<path fill="none" stroke="black" d="M761.88,-1061.91C761.88,-1033.39 761.88,-991.9 761.88,-969"/>
<polygon fill="none" stroke="black" points="761.88,-1061.84 765.88,-1067.84 761.88,-1073.84 757.88,-1067.84 761.88,-1061.84"/>
<text text-anchor="middle" x="802" y="-1044.2" font-family="Times New Roman,serif" font-size="14.00">&lt;aggregation&gt;</text>
<text text-anchor="middle" x="802" y="-1028.45" font-family="Times New Roman,serif" font-size="14.00">control</text>
</g>
<!-- rover.flows.ee -->
<g id="node25" class="node">
<title>rover.flows.ee</title>
<ellipse fill="lightgrey" stroke="grey" stroke-width="0" cx="883.88" cy="-951.25" rx="34.1" ry="18"/>
<text text-anchor="middle" x="883.88" y="-945.83" font-family="Times New Roman,serif" font-size="14.00">ee: EE</text>
</g>
<!-- rover.fxns.move_rover&#45;&gt;rover.flows.ee -->
<g id="edge8" class="edge">
<title>rover.fxns.move_rover-&gt;rover.flows.ee</title>
<path fill="none" stroke="black" d="M833.34,-1068.05C837.89,-1064.93 842.14,-1061.42 845.88,-1057.5 869.6,-1032.61 878.68,-991.82 882.03,-969.02"/>
<polygon fill="none" stroke="black" points="833.34,-1068.04 830.24,-1074.55 823.04,-1074.2 826.14,-1067.69 833.34,-1068.04"/>
<text text-anchor="middle" x="906" y="-1044.2" font-family="Times New Roman,serif" font-size="14.00">&lt;aggregation&gt;</text>
<text text-anchor="middle" x="906" y="-1028.45" font-family="Times New Roman,serif" font-size="14.00">ee</text>
</g>
<!-- rover.flows.force -->
<g id="node26" class="node">
<title>rover.flows.force</title>
<ellipse fill="lightgrey" stroke="grey" stroke-width="0" cx="992.88" cy="-951.25" rx="56.55" ry="18"/>
<text text-anchor="middle" x="992.88" y="-945.83" font-family="Times New Roman,serif" font-size="14.00">force: Force</text>
</g>
<!-- rover.fxns.move_rover&#45;&gt;rover.flows.force -->
<g id="edge9" class="edge">
<title>rover.fxns.move_rover-&gt;rover.flows.force</title>
<path fill="none" stroke="black" d="M854.1,-1083.67C893.88,-1078.21 934.75,-1069.82 949.88,-1057.5 977.27,-1035.19 987.38,-992.62 990.98,-969.03"/>
<polygon fill="none" stroke="black" points="854.05,-1083.68 848.62,-1088.42 842.16,-1085.23 847.59,-1080.49 854.05,-1083.68"/>
<text text-anchor="middle" x="1014" y="-1044.2" font-family="Times New Roman,serif" font-size="14.00">&lt;aggregation&gt;</text>
<text text-anchor="middle" x="1014" y="-1028.45" font-family="Times New Roman,serif" font-size="14.00">force</text>
</g>
<!-- rover.flows.ground -->
<g id="node27" class="node">
<title>rover.flows.ground</title>
<ellipse fill="lightgrey" stroke="grey" stroke-width="0" cx="1137.88" cy="-951.25" rx="70.52" ry="18"/>
<text text-anchor="middle" x="1137.88" y="-945.83" font-family="Times New Roman,serif" font-size="14.00">ground: Ground</text>
</g>
<!-- rover.fxns.move_rover&#45;&gt;rover.flows.ground -->
<g id="edge10" class="edge">
<title>rover.fxns.move_rover-&gt;rover.flows.ground</title>
<path fill="none" stroke="black" d="M854.08,-1089.41C927.75,-1085.52 1024.08,-1076.82 1057.88,-1057.5 1093.94,-1036.88 1119,-992.81 1130.59,-968.75"/>
<polygon fill="none" stroke="black" points="853.96,-1089.42 848.16,-1093.71 841.97,-1090.01 847.77,-1085.72 853.96,-1089.42"/>
<text text-anchor="middle" x="1134" y="-1044.2" font-family="Times New Roman,serif" font-size="14.00">&lt;aggregation&gt;</text>
<text text-anchor="middle" x="1134" y="-1028.45" font-family="Times New Roman,serif" font-size="14.00">ground</text>
</g>
<!-- rover.fxns.move_rover.dynamic_behavior -->
<g id="node28" class="node">
<title>rover.fxns.move_rover.dynamic_behavior</title>
<polygon fill="lightgrey" stroke="grey" points="1393.62,-969.25 1226.12,-969.25 1226.12,-965.25 1222.12,-965.25 1222.12,-961.25 1226.12,-961.25 1226.12,-941.25 1222.12,-941.25 1222.12,-937.25 1226.12,-937.25 1226.12,-933.25 1393.62,-933.25 1393.62,-969.25"/>
<polyline fill="none" stroke="grey" points="1226.12,-965.25 1230.12,-965.25 1230.12,-961.25 1226.12,-961.25"/>
<polyline fill="none" stroke="grey" points="1226.12,-941.25 1230.12,-941.25 1230.12,-937.25 1226.12,-937.25"/>
<text text-anchor="middle" x="1309.88" y="-945.83" font-family="Times New Roman,serif" font-size="14.00">dynamic_behavior: method</text>
</g>
<!-- rover.fxns.move_rover&#45;&gt;rover.fxns.move_rover.dynamic_behavior -->
<g id="edge5" class="edge">
<title>rover.fxns.move_rover-&gt;rover.fxns.move_rover.dynamic_behavior</title>
<path fill="none" stroke="black" d="M854.04,-1090.95C958.32,-1088.12 1121.04,-1080.1 1177.88,-1057.5 1226.9,-1038 1272.24,-993.89 1294.84,-969.42"/>
<polygon fill="black" stroke="black" points="853.89,-1090.96 848,-1095.11 841.9,-1091.26 847.79,-1087.11 853.89,-1090.96"/>
<text text-anchor="middle" x="1281.25" y="-1044.2" font-family="Times New Roman,serif" font-size="14.00">&lt;containment&gt;</text>
<text text-anchor="middle" x="1281.25" y="-1028.45" font-family="Times New Roman,serif" font-size="14.00">dynamic_behavior</text>
</g>
<!-- rover.fxns.move_rover.static_behavior -->
<g id="node29" class="node">
<title>rover.fxns.move_rover.static_behavior</title>
<polygon fill="lightgrey" stroke="grey" points="1561.62,-969.25 1412.12,-969.25 1412.12,-965.25 1408.12,-965.25 1408.12,-961.25 1412.12,-961.25 1412.12,-941.25 1408.12,-941.25 1408.12,-937.25 1412.12,-937.25 1412.12,-933.25 1561.62,-933.25 1561.62,-969.25"/>
<polyline fill="none" stroke="grey" points="1412.12,-965.25 1416.12,-965.25 1416.12,-961.25 1412.12,-961.25"/>
<polyline fill="none" stroke="grey" points="1412.12,-941.25 1416.12,-941.25 1416.12,-937.25 1412.12,-937.25"/>
<text text-anchor="middle" x="1486.88" y="-945.83" font-family="Times New Roman,serif" font-size="14.00">static_behavior: method</text>
</g>
<!-- rover.fxns.move_rover&#45;&gt;rover.fxns.move_rover.static_behavior -->
<g id="edge6" class="edge">
<title>rover.fxns.move_rover-&gt;rover.fxns.move_rover.static_behavior</title>
<path fill="none" stroke="black" d="M854.05,-1092.95C993.34,-1092.62 1250.42,-1087.73 1336.88,-1057.5 1390.93,-1038.6 1443.13,-994.25 1469.36,-969.57"/>
<polygon fill="black" stroke="black" points="854.25,-1092.95 848.26,-1096.96 842.25,-1092.97 848.25,-1088.96 854.25,-1092.95"/>
<text text-anchor="middle" x="1436.25" y="-1044.2" font-family="Times New Roman,serif" font-size="14.00">&lt;containment&gt;</text>
<text text-anchor="middle" x="1436.25" y="-1028.45" font-family="Times New Roman,serif" font-size="14.00">static_behavior</text>
</g>
<!-- __main__.MoveRoverMode -->
<g id="node6" class="node">
<title>__main__.MoveRoverMode</title>
<polygon fill="lightgrey" stroke="grey" points="169.75,-827 0,-827 0,-657.25 169.75,-657.25 169.75,-827"/>
<polyline fill="none" stroke="grey" points="12,-827 0,-815"/>
<polyline fill="none" stroke="grey" points="0,-669.25 12,-657.25"/>
<polyline fill="none" stroke="grey" points="157.75,-657.25 169.75,-669.25"/>
<polyline fill="none" stroke="grey" points="169.75,-815 157.75,-827"/>
<text text-anchor="middle" x="84.88" y="-736.7" font-family="Times New Roman,serif" font-size="14.00">MoveRoverMode: datatype</text>
</g>
<!-- rover.fxns.move_rover.m&#45;&gt;__main__.MoveRoverMode -->
<g id="edge12" class="edge">
<title>rover.fxns.move_rover.m-&gt;__main__.MoveRoverMode</title>
<path fill="none" stroke="black" d="M122.45,-932.95C118.25,-911.71 110.79,-874.04 103.62,-837.83"/>
<polygon fill="none" stroke="black" points="106.89,-837.3 101.51,-828.17 100.02,-838.65 106.89,-837.3"/>
<text text-anchor="middle" x="148.75" y="-863.2" font-family="Times New Roman,serif" font-size="14.00">&lt;inheritance&gt;</text>
<text text-anchor="middle" x="148.75" y="-847.45" font-family="Times New Roman,serif" font-size="14.00">base</text>
</g>
<!-- __main__.MoveRoverState -->
<g id="node9" class="node">
<title>__main__.MoveRoverState</title>
<polygon fill="lightgrey" stroke="grey" points="352.12,-824.38 187.62,-824.38 187.62,-659.88 352.12,-659.88 352.12,-824.38"/>
<polyline fill="none" stroke="grey" points="199.62,-824.38 187.62,-812.38"/>
<polyline fill="none" stroke="grey" points="187.62,-671.88 199.62,-659.88"/>
<polyline fill="none" stroke="grey" points="340.12,-659.88 352.12,-671.88"/>
<polyline fill="none" stroke="grey" points="352.12,-812.38 340.12,-824.38"/>
<text text-anchor="middle" x="269.88" y="-736.7" font-family="Times New Roman,serif" font-size="14.00">MoveRoverState: datatype</text>
</g>
<!-- rover.fxns.move_rover.s&#45;&gt;__main__.MoveRoverState -->
<g id="edge15" class="edge">
<title>rover.fxns.move_rover.s-&gt;__main__.MoveRoverState</title>
<path fill="none" stroke="black" d="M280.87,-932.95C279.62,-911.27 277.37,-872.46 275.23,-835.57"/>
<polygon fill="none" stroke="black" points="278.67,-835.5 274.6,-825.72 271.69,-835.9 278.67,-835.5"/>
<text text-anchor="middle" x="315.75" y="-863.2" font-family="Times New Roman,serif" font-size="14.00">&lt;inheritance&gt;</text>
<text text-anchor="middle" x="315.75" y="-847.45" font-family="Times New Roman,serif" font-size="14.00">base</text>
</g>
<!-- fmdtools.define.block.base.SimParam -->
<g id="node11" class="node">
<title>fmdtools.define.block.base.SimParam</title>
<polygon fill="lightgrey" stroke="grey" points="497.38,-805.62 370.38,-805.62 370.38,-678.62 497.38,-678.62 497.38,-805.62"/>
<polyline fill="none" stroke="grey" points="382.38,-805.62 370.38,-793.62"/>
<polyline fill="none" stroke="grey" points="370.38,-690.62 382.38,-678.62"/>
<polyline fill="none" stroke="grey" points="485.38,-678.62 497.38,-690.62"/>
<polyline fill="none" stroke="grey" points="497.38,-793.62 485.38,-805.62"/>
<text text-anchor="middle" x="433.88" y="-736.7" font-family="Times New Roman,serif" font-size="14.00">SimParam: datatype</text>
</g>
<!-- rover.fxns.move_rover.sp&#45;&gt;fmdtools.define.block.base.SimParam -->
<g id="edge18" class="edge">
<title>rover.fxns.move_rover.sp-&gt;fmdtools.define.block.base.SimParam</title>
<path fill="none" stroke="black" d="M423.79,-932.95C425.14,-907.55 427.74,-858.64 429.96,-816.84"/>
<polygon fill="none" stroke="black" points="433.5,-817.27 430.53,-807.1 426.51,-816.9 433.5,-817.27"/>
<text text-anchor="middle" x="466.75" y="-863.2" font-family="Times New Roman,serif" font-size="14.00">&lt;inheritance&gt;</text>
<text text-anchor="middle" x="466.75" y="-847.45" font-family="Times New Roman,serif" font-size="14.00">base</text>
</g>
<!-- fmdtools.define.container.time.Time -->
<g id="node13" class="node">
<title>fmdtools.define.container.time.Time</title>
<polygon fill="lightgrey" stroke="grey" points="576.12,-639.25 477.62,-639.25 477.62,-540.75 576.12,-540.75 576.12,-639.25"/>
<polyline fill="none" stroke="grey" points="489.62,-639.25 477.62,-627.25"/>
<polyline fill="none" stroke="grey" points="477.62,-552.75 489.62,-540.75"/>
<polyline fill="none" stroke="grey" points="564.12,-540.75 576.12,-552.75"/>
<polyline fill="none" stroke="grey" points="576.12,-627.25 564.12,-639.25"/>
<text text-anchor="middle" x="526.88" y="-584.58" font-family="Times New Roman,serif" font-size="14.00">Time: datatype</text>
</g>
<!-- rover.fxns.move_rover.t&#45;&gt;fmdtools.define.container.time.Time -->
<g id="edge21" class="edge">
<title>rover.fxns.move_rover.t-&gt;fmdtools.define.container.time.Time</title>
<path fill="none" stroke="black" d="M515.45,-932.92C517.14,-882.55 522.08,-734.45 524.88,-650.62"/>
<polygon fill="none" stroke="black" points="528.41,-650.84 525.25,-640.73 521.42,-650.6 528.41,-650.84"/>
<text text-anchor="middle" x="556.75" y="-863.2" font-family="Times New Roman,serif" font-size="14.00">&lt;inheritance&gt;</text>
<text text-anchor="middle" x="556.75" y="-847.45" font-family="Times New Roman,serif" font-size="14.00">base</text>
</g>
<!-- fmdtools.define.container.mode.Mode -->
<g id="node7" class="node">
<title>fmdtools.define.container.mode.Mode</title>
<polygon fill="lightgrey" stroke="grey" points="185.38,-511.5 82.38,-511.5 82.38,-408.5 185.38,-408.5 185.38,-511.5"/>
<polyline fill="none" stroke="grey" points="94.38,-511.5 82.38,-499.5"/>
<polyline fill="none" stroke="grey" points="82.38,-420.5 94.38,-408.5"/>
<polyline fill="none" stroke="grey" points="173.38,-408.5 185.38,-420.5"/>
<polyline fill="none" stroke="grey" points="185.38,-499.5 173.38,-511.5"/>
<text text-anchor="middle" x="133.88" y="-454.57" font-family="Times New Roman,serif" font-size="14.00">Mode: datatype</text>
</g>
<!-- __main__.MoveRoverMode&#45;&gt;fmdtools.define.container.mode.Mode -->
<g id="edge13" class="edge">
<title>__main__.MoveRoverMode-&gt;fmdtools.define.container.mode.Mode</title>
<path fill="none" stroke="black" d="M99.58,-657.08C107.15,-613.77 116.22,-561.91 123.13,-522.4"/>
<polygon fill="none" stroke="black" points="126.75,-523.06 125.02,-512.6 119.85,-521.85 126.75,-523.06"/>
<text text-anchor="middle" x="157.75" y="-592.45" font-family="Times New Roman,serif" font-size="14.00">&lt;inheritance&gt;</text>
<text text-anchor="middle" x="157.75" y="-576.7" font-family="Times New Roman,serif" font-size="14.00">base</text>
</g>
<!-- fmdtools.define.container.base.BaseContainer -->
<g id="node8" class="node">
<title>fmdtools.define.container.base.BaseContainer</title>
<polygon fill="lightgrey" stroke="grey" points="401.38,-329.75 250.38,-329.75 250.38,-178.75 401.38,-178.75 401.38,-329.75"/>
<polyline fill="none" stroke="grey" points="262.38,-329.75 250.38,-317.75"/>
<polyline fill="none" stroke="grey" points="250.38,-190.75 262.38,-178.75"/>
<polyline fill="none" stroke="grey" points="389.38,-178.75 401.38,-190.75"/>
<polyline fill="none" stroke="grey" points="401.38,-317.75 389.38,-329.75"/>
<text text-anchor="middle" x="325.88" y="-248.82" font-family="Times New Roman,serif" font-size="14.00">BaseContainer: datatype</text>
</g>
<!-- fmdtools.define.container.mode.Mode&#45;&gt;fmdtools.define.container.base.BaseContainer -->
<g id="edge14" class="edge">
<title>fmdtools.define.container.mode.Mode-&gt;fmdtools.define.container.base.BaseContainer</title>
<path fill="none" stroke="black" d="M157.97,-408.15C168.88,-388.08 182.98,-365.6 199.12,-347.75 211.62,-333.94 226.47,-320.92 241.54,-309.24"/>
<polygon fill="none" stroke="black" points="243.06,-311.72 248.92,-302.89 238.83,-306.14 243.06,-311.72"/>
<text text-anchor="middle" x="237.75" y="-365.95" font-family="Times New Roman,serif" font-size="14.00">&lt;inheritance&gt;</text>
<text text-anchor="middle" x="237.75" y="-350.2" font-family="Times New Roman,serif" font-size="14.00">base</text>
</g>
<!-- fmdtools.define.container.state.State -->
<g id="node10" class="node">
<title>fmdtools.define.container.state.State</title>
<polygon fill="lightgrey" stroke="grey" points="316.75,-508.88 219,-508.88 219,-411.12 316.75,-411.12 316.75,-508.88"/>
<polyline fill="none" stroke="grey" points="231,-508.88 219,-496.88"/>
<polyline fill="none" stroke="grey" points="219,-423.12 231,-411.12"/>
<polyline fill="none" stroke="grey" points="304.75,-411.12 316.75,-423.12"/>
<polyline fill="none" stroke="grey" points="316.75,-496.88 304.75,-508.88"/>
<text text-anchor="middle" x="267.88" y="-454.57" font-family="Times New Roman,serif" font-size="14.00">State: datatype</text>
</g>
<!-- __main__.MoveRoverState&#45;&gt;fmdtools.define.container.state.State -->
<g id="edge16" class="edge">
<title>__main__.MoveRoverState-&gt;fmdtools.define.container.state.State</title>
<path fill="none" stroke="black" d="M269.29,-659.72C268.97,-615.04 268.59,-560.63 268.3,-520.04"/>
<polygon fill="none" stroke="black" points="271.79,-520.22 268.22,-510.25 264.79,-520.27 271.79,-520.22"/>
<text text-anchor="middle" x="307.75" y="-592.45" font-family="Times New Roman,serif" font-size="14.00">&lt;inheritance&gt;</text>
<text text-anchor="middle" x="307.75" y="-576.7" font-family="Times New Roman,serif" font-size="14.00">base</text>
</g>
<!-- fmdtools.define.container.state.State&#45;&gt;fmdtools.define.container.base.BaseContainer -->
<g id="edge17" class="edge">
<title>fmdtools.define.container.state.State-&gt;fmdtools.define.container.base.BaseContainer</title>
<path fill="none" stroke="black" d="M272.57,-410.76C275.21,-390.98 279.2,-368.01 285.12,-347.75 285.84,-345.3 286.61,-342.83 287.42,-340.34"/>
<polygon fill="none" stroke="black" points="291,-341.71 290.96,-331.11 284.38,-339.42 291,-341.71"/>
<text text-anchor="middle" x="323.75" y="-365.95" font-family="Times New Roman,serif" font-size="14.00">&lt;inheritance&gt;</text>
<text text-anchor="middle" x="323.75" y="-350.2" font-family="Times New Roman,serif" font-size="14.00">base</text>
</g>
<!-- fmdtools.define.container.parameter.Parameter -->
<g id="node12" class="node">
<title>fmdtools.define.container.parameter.Parameter</title>
<polygon fill="lightgrey" stroke="grey" points="460.62,-522.75 335.12,-522.75 335.12,-397.25 460.62,-397.25 460.62,-522.75"/>
<polyline fill="none" stroke="grey" points="347.12,-522.75 335.12,-510.75"/>
<polyline fill="none" stroke="grey" points="335.12,-409.25 347.12,-397.25"/>
<polyline fill="none" stroke="grey" points="448.62,-397.25 460.62,-409.25"/>
<polyline fill="none" stroke="grey" points="460.62,-510.75 448.62,-522.75"/>
<text text-anchor="middle" x="397.88" y="-454.57" font-family="Times New Roman,serif" font-size="14.00">Parameter: datatype</text>
</g>
<!-- fmdtools.define.block.base.SimParam&#45;&gt;fmdtools.define.container.parameter.Parameter -->
<g id="edge19" class="edge">
<title>fmdtools.define.block.base.SimParam-&gt;fmdtools.define.container.parameter.Parameter</title>
<path fill="none" stroke="black" d="M404.49,-678.4C399.78,-665.7 395.63,-652.25 393.12,-639.25 386.52,-604.97 386.66,-566.31 388.88,-533.78"/>
<polygon fill="none" stroke="black" points="392.43,-534.23 389.7,-523.99 385.45,-533.7 392.43,-534.23"/>
<text text-anchor="middle" x="431.75" y="-592.45" font-family="Times New Roman,serif" font-size="14.00">&lt;inheritance&gt;</text>
<text text-anchor="middle" x="431.75" y="-576.7" font-family="Times New Roman,serif" font-size="14.00">base</text>
</g>
<!-- fmdtools.define.container.parameter.Parameter&#45;&gt;fmdtools.define.container.base.BaseContainer -->
<g id="edge20" class="edge">
<title>fmdtools.define.container.parameter.Parameter-&gt;fmdtools.define.container.base.BaseContainer</title>
<path fill="none" stroke="black" d="M377.67,-396.77C372.34,-380.75 366.5,-363.57 360.88,-347.75 360.01,-345.33 359.13,-342.87 358.24,-340.39"/>
<polygon fill="none" stroke="black" points="361.21,-339.32 354.5,-331.12 354.63,-341.72 361.21,-339.32"/>
<text text-anchor="middle" x="409.75" y="-365.95" font-family="Times New Roman,serif" font-size="14.00">&lt;inheritance&gt;</text>
<text text-anchor="middle" x="409.75" y="-350.2" font-family="Times New Roman,serif" font-size="14.00">base</text>
</g>
<!-- fmdtools.define.container.time.Time&#45;&gt;fmdtools.define.container.base.BaseContainer -->
<g id="edge22" class="edge">
<title>fmdtools.define.container.time.Time-&gt;fmdtools.define.container.base.BaseContainer</title>
<path fill="none" stroke="black" d="M521.56,-540.7C513.77,-488.64 495.15,-405.49 451.88,-347.75 440.34,-332.36 425.53,-318.4 410.15,-306.26"/>
<polygon fill="none" stroke="black" points="412.64,-302.99 402.57,-299.71 408.39,-308.56 412.64,-302.99"/>
<text text-anchor="middle" x="556.75" y="-462.45" font-family="Times New Roman,serif" font-size="14.00">&lt;inheritance&gt;</text>
<text text-anchor="middle" x="556.75" y="-446.7" font-family="Times New Roman,serif" font-size="14.00">base</text>
</g>
<!-- __main__.Control -->
<g id="node14" class="node">
<title>__main__.Control</title>
<polygon fill="lightgrey" stroke="grey" points="812.62,-786.88 723.12,-786.88 723.12,-697.38 812.62,-697.38 812.62,-786.88"/>
<polyline fill="none" stroke="grey" points="735.12,-786.88 723.12,-774.88"/>
<polyline fill="none" stroke="grey" points="723.12,-709.38 735.12,-697.38"/>
<polyline fill="none" stroke="grey" points="800.62,-697.38 812.62,-709.38"/>
<polyline fill="none" stroke="grey" points="812.62,-774.88 800.62,-786.88"/>
<text text-anchor="middle" x="767.88" y="-736.7" font-family="Times New Roman,serif" font-size="14.00">Control: type</text>
</g>
<!-- fmdtools.define.flow.base.Flow -->
<g id="node15" class="node">
<title>fmdtools.define.flow.base.Flow</title>
<polygon fill="lightgrey" stroke="grey" points="921.5,-497.62 846.25,-497.62 846.25,-422.38 921.5,-422.38 921.5,-497.62"/>
<polyline fill="none" stroke="grey" points="858.25,-497.62 846.25,-485.62"/>
<polyline fill="none" stroke="grey" points="846.25,-434.38 858.25,-422.38"/>
<polyline fill="none" stroke="grey" points="909.5,-422.38 921.5,-434.38"/>
<polyline fill="none" stroke="grey" points="921.5,-485.62 909.5,-497.62"/>
<text text-anchor="middle" x="883.88" y="-454.57" font-family="Times New Roman,serif" font-size="14.00">Flow: type</text>
</g>
<!-- __main__.Control&#45;&gt;fmdtools.define.flow.base.Flow -->
<g id="edge24" class="edge">
<title>__main__.Control-&gt;fmdtools.define.flow.base.Flow</title>
<path fill="none" stroke="black" d="M768.36,-697.27C770.49,-654.97 778.22,-590.24 804.12,-540.75 812.47,-524.8 825.11,-510.03 837.87,-497.64"/>
<polygon fill="none" stroke="black" points="839.88,-500.62 844.8,-491.24 835.1,-495.5 839.88,-500.62"/>
<text text-anchor="middle" x="842.75" y="-592.45" font-family="Times New Roman,serif" font-size="14.00">&lt;inheritance&gt;</text>
<text text-anchor="middle" x="842.75" y="-576.7" font-family="Times New Roman,serif" font-size="14.00">base</text>
</g>
<!-- fmdtools.define.object.base.BaseObject -->
<g id="node16" class="node">
<title>fmdtools.define.object.base.BaseObject</title>
<polygon fill="lightgrey" stroke="grey" points="857.5,-111.25 746.25,-111.25 746.25,0 857.5,0 857.5,-111.25"/>
<polyline fill="none" stroke="grey" points="758.25,-111.25 746.25,-99.25"/>
<polyline fill="none" stroke="grey" points="746.25,-12 758.25,0"/>
<polyline fill="none" stroke="grey" points="845.5,0 857.5,-12"/>
<polyline fill="none" stroke="grey" points="857.5,-99.25 845.5,-111.25"/>
<text text-anchor="middle" x="801.88" y="-50.2" font-family="Times New Roman,serif" font-size="14.00">BaseObject: type</text>
</g>
<!-- fmdtools.define.flow.base.Flow&#45;&gt;fmdtools.define.object.base.BaseObject -->
<g id="edge25" class="edge">
<title>fmdtools.define.flow.base.Flow-&gt;fmdtools.define.object.base.BaseObject</title>
<path fill="none" stroke="black" d="M881.48,-422.21C876.77,-360.57 864,-232.95 833.88,-129.25 833.16,-126.79 832.38,-124.31 831.55,-121.82"/>
<polygon fill="none" stroke="black" points="834.55,-120.81 827.88,-112.57 827.96,-123.17 834.55,-120.81"/>
<text text-anchor="middle" x="909.75" y="-256.7" font-family="Times New Roman,serif" font-size="14.00">&lt;inheritance&gt;</text>
<text text-anchor="middle" x="909.75" y="-240.95" font-family="Times New Roman,serif" font-size="14.00">base</text>
</g>
<!-- __main__.EE -->
<g id="node17" class="node">
<title>__main__.EE</title>
<polygon fill="lightgrey" stroke="grey" points="915.5,-773.75 852.25,-773.75 852.25,-710.5 915.5,-710.5 915.5,-773.75"/>
<polyline fill="none" stroke="grey" points="864.25,-773.75 852.25,-761.75"/>
<polyline fill="none" stroke="grey" points="852.25,-722.5 864.25,-710.5"/>
<polyline fill="none" stroke="grey" points="903.5,-710.5 915.5,-722.5"/>
<polyline fill="none" stroke="grey" points="915.5,-761.75 903.5,-773.75"/>
<text text-anchor="middle" x="883.88" y="-736.7" font-family="Times New Roman,serif" font-size="14.00">EE: type</text>
</g>
<!-- __main__.EE&#45;&gt;fmdtools.define.flow.base.Flow -->
<g id="edge27" class="edge">
<title>__main__.EE-&gt;fmdtools.define.flow.base.Flow</title>
<path fill="none" stroke="black" d="M883.88,-710.08C883.88,-661.33 883.88,-566.49 883.88,-508.94"/>
<polygon fill="none" stroke="black" points="887.38,-508.95 883.88,-498.95 880.38,-508.95 887.38,-508.95"/>
<text text-anchor="middle" x="921.75" y="-592.45" font-family="Times New Roman,serif" font-size="14.00">&lt;inheritance&gt;</text>
<text text-anchor="middle" x="921.75" y="-576.7" font-family="Times New Roman,serif" font-size="14.00">base</text>
</g>
<!-- __main__.Force -->
<g id="node18" class="node">
<title>__main__.Force</title>
<polygon fill="lightgrey" stroke="grey" points="1025.75,-782 946,-782 946,-702.25 1025.75,-702.25 1025.75,-782"/>
<polyline fill="none" stroke="grey" points="958,-782 946,-770"/>
<polyline fill="none" stroke="grey" points="946,-714.25 958,-702.25"/>
<polyline fill="none" stroke="grey" points="1013.75,-702.25 1025.75,-714.25"/>
<polyline fill="none" stroke="grey" points="1025.75,-770 1013.75,-782"/>
<text text-anchor="middle" x="985.88" y="-736.7" font-family="Times New Roman,serif" font-size="14.00">Force: type</text>
</g>
<!-- __main__.Force&#45;&gt;fmdtools.define.flow.base.Flow -->
<g id="edge29" class="edge">
<title>__main__.Force-&gt;fmdtools.define.flow.base.Flow</title>
<path fill="none" stroke="black" d="M988.43,-701.78C989.55,-659.82 986.62,-592.41 961.88,-540.75 954.18,-524.69 941.96,-509.89 929.45,-497.5"/>
<polygon fill="none" stroke="black" points="932.32,-495.46 922.66,-491.11 927.51,-500.53 932.32,-495.46"/>
<text text-anchor="middle" x="1024.75" y="-592.45" font-family="Times New Roman,serif" font-size="14.00">&lt;inheritance&gt;</text>
<text text-anchor="middle" x="1024.75" y="-576.7" font-family="Times New Roman,serif" font-size="14.00">base</text>
</g>
<!-- __main__.Ground -->
<g id="node19" class="node">
<title>__main__.Ground</title>
<polygon fill="lightgrey" stroke="grey" points="1138,-787.25 1047.75,-787.25 1047.75,-697 1138,-697 1138,-787.25"/>
<polyline fill="none" stroke="grey" points="1059.75,-787.25 1047.75,-775.25"/>
<polyline fill="none" stroke="grey" points="1047.75,-709 1059.75,-697"/>
<polyline fill="none" stroke="grey" points="1126,-697 1138,-709"/>
<polyline fill="none" stroke="grey" points="1138,-775.25 1126,-787.25"/>
<text text-anchor="middle" x="1092.88" y="-736.7" font-family="Times New Roman,serif" font-size="14.00">Ground: type</text>
</g>
<!-- __main__.Ground&#45;&gt;fmdtools.define.flow.base.Flow -->
<g id="edge31" class="edge">
<title>__main__.Ground-&gt;fmdtools.define.flow.base.Flow</title>
<path fill="none" stroke="black" d="M1098.59,-696.65C1101.78,-652.66 1099.68,-585.6 1065.88,-540.75 1033.98,-498.43 974.82,-478.18 932.61,-468.76"/>
<polygon fill="none" stroke="black" points="933.5,-465.16 923,-466.53 932.07,-472.01 933.5,-465.16"/>
<text text-anchor="middle" x="1136.75" y="-592.45" font-family="Times New Roman,serif" font-size="14.00">&lt;inheritance&gt;</text>
<text text-anchor="middle" x="1136.75" y="-576.7" font-family="Times New Roman,serif" font-size="14.00">base</text>
</g>
<!-- fmdtools.define.block.function.Function -->
<g id="node21" class="node">
<title>fmdtools.define.block.function.Function</title>
<polygon fill="lightgrey" stroke="grey" points="687,-790.25 590.75,-790.25 590.75,-694 687,-694 687,-790.25"/>
<polyline fill="none" stroke="grey" points="602.75,-790.25 590.75,-778.25"/>
<polyline fill="none" stroke="grey" points="590.75,-706 602.75,-694"/>
<polyline fill="none" stroke="grey" points="675,-694 687,-706"/>
<polyline fill="none" stroke="grey" points="687,-778.25 675,-790.25"/>
<text text-anchor="middle" x="638.88" y="-736.7" font-family="Times New Roman,serif" font-size="14.00">Function: type</text>
</g>
<!-- __main__.MoveRover&#45;&gt;fmdtools.define.block.function.Function -->
<g id="edge32" class="edge">
<title>__main__.MoveRover-&gt;fmdtools.define.block.function.Function</title>
<path fill="none" stroke="black" d="M622.83,-894.2C625.89,-865.41 629.61,-830.37 632.7,-801.28"/>
<polygon fill="none" stroke="black" points="636.27,-801.76 633.85,-791.45 629.31,-801.02 636.27,-801.76"/>
<text text-anchor="middle" x="665.75" y="-863.2" font-family="Times New Roman,serif" font-size="14.00">&lt;inheritance&gt;</text>
<text text-anchor="middle" x="665.75" y="-847.45" font-family="Times New Roman,serif" font-size="14.00">base</text>
</g>
<!-- fmdtools.define.block.base.Block -->
<g id="node22" class="node">
<title>fmdtools.define.block.base.Block</title>
<polygon fill="lightgrey" stroke="grey" points="693.75,-499.88 614,-499.88 614,-420.12 693.75,-420.12 693.75,-499.88"/>
<polyline fill="none" stroke="grey" points="626,-499.88 614,-487.88"/>
<polyline fill="none" stroke="grey" points="614,-432.12 626,-420.12"/>
<polyline fill="none" stroke="grey" points="681.75,-420.12 693.75,-432.12"/>
<polyline fill="none" stroke="grey" points="693.75,-487.88 681.75,-499.88"/>
<text text-anchor="middle" x="653.88" y="-454.57" font-family="Times New Roman,serif" font-size="14.00">Block: type</text>
</g>
<!-- fmdtools.define.block.function.Function&#45;&gt;fmdtools.define.block.base.Block -->
<g id="edge33" class="edge">
<title>fmdtools.define.block.function.Function-&gt;fmdtools.define.block.base.Block</title>
<path fill="none" stroke="black" d="M641.42,-693.61C644.14,-642.85 648.43,-562.75 651.19,-511.05"/>
<polygon fill="none" stroke="black" points="654.74,-511.32 651.78,-501.15 647.75,-510.95 654.74,-511.32"/>
<text text-anchor="middle" x="687.75" y="-592.45" font-family="Times New Roman,serif" font-size="14.00">&lt;inheritance&gt;</text>
<text text-anchor="middle" x="687.75" y="-576.7" font-family="Times New Roman,serif" font-size="14.00">base</text>
</g>
<!-- fmdtools.define.block.base.Simulable -->
<g id="node23" class="node">
<title>fmdtools.define.block.base.Simulable</title>
<polygon fill="lightgrey" stroke="grey" points="807.25,-304.62 706.5,-304.62 706.5,-203.88 807.25,-203.88 807.25,-304.62"/>
<polyline fill="none" stroke="grey" points="718.5,-304.62 706.5,-292.62"/>
<polyline fill="none" stroke="grey" points="706.5,-215.88 718.5,-203.88"/>
<polyline fill="none" stroke="grey" points="795.25,-203.88 807.25,-215.88"/>
<polyline fill="none" stroke="grey" points="807.25,-292.62 795.25,-304.62"/>
<text text-anchor="middle" x="756.88" y="-248.82" font-family="Times New Roman,serif" font-size="14.00">Simulable: type</text>
</g>
<!-- fmdtools.define.block.base.Block&#45;&gt;fmdtools.define.block.base.Simulable -->
<g id="edge34" class="edge">
<title>fmdtools.define.block.base.Block-&gt;fmdtools.define.block.base.Simulable</title>
<path fill="none" stroke="black" d="M673.73,-419.71C688.79,-389.93 709.74,-348.49 726.84,-314.66"/>
<polygon fill="none" stroke="black" points="730.4,-316.38 731.79,-305.88 724.15,-313.23 730.4,-316.38"/>
<text text-anchor="middle" x="746.75" y="-365.95" font-family="Times New Roman,serif" font-size="14.00">&lt;inheritance&gt;</text>
<text text-anchor="middle" x="746.75" y="-350.2" font-family="Times New Roman,serif" font-size="14.00">base</text>
</g>
<!-- fmdtools.define.block.base.Simulable&#45;&gt;fmdtools.define.object.base.BaseObject -->
<g id="edge35" class="edge">
<title>fmdtools.define.block.base.Simulable-&gt;fmdtools.define.object.base.BaseObject</title>
<path fill="none" stroke="black" d="M751.45,-203.52C750.44,-180.51 751.37,-153.07 758.12,-129.25 758.86,-126.65 759.72,-124.04 760.67,-121.45"/>
<polygon fill="none" stroke="black" points="764.18,-123.13 764.8,-112.56 757.72,-120.44 764.18,-123.13"/>
<text text-anchor="middle" x="796.75" y="-147.45" font-family="Times New Roman,serif" font-size="14.00">&lt;inheritance&gt;</text>
<text text-anchor="middle" x="796.75" y="-131.7" font-family="Times New Roman,serif" font-size="14.00">base</text>
</g>
<!-- rover.flows.control&#45;&gt;__main__.Control -->
<g id="edge23" class="edge">
<title>rover.flows.control-&gt;__main__.Control</title>
<path fill="none" stroke="black" d="M762.37,-933.3C763.21,-904.11 764.98,-843.16 766.28,-798.09"/>
<polygon fill="none" stroke="black" points="769.8,-798.39 766.6,-788.29 762.81,-798.19 769.8,-798.39"/>
<text text-anchor="middle" x="802.75" y="-863.2" font-family="Times New Roman,serif" font-size="14.00">&lt;inheritance&gt;</text>
<text text-anchor="middle" x="802.75" y="-847.45" font-family="Times New Roman,serif" font-size="14.00">base</text>
</g>
<!-- rover.flows.ee&#45;&gt;__main__.EE -->
<g id="edge26" class="edge">
<title>rover.flows.ee-&gt;__main__.EE</title>
<path fill="none" stroke="black" d="M883.88,-933.3C883.88,-901.08 883.88,-830.14 883.88,-784.6"/>
<polygon fill="none" stroke="black" points="887.38,-784.89 883.88,-774.89 880.38,-784.89 887.38,-784.89"/>
<text text-anchor="middle" x="921.75" y="-863.2" font-family="Times New Roman,serif" font-size="14.00">&lt;inheritance&gt;</text>
<text text-anchor="middle" x="921.75" y="-847.45" font-family="Times New Roman,serif" font-size="14.00">base</text>
</g>
<!-- rover.flows.force&#45;&gt;__main__.Force -->
<g id="edge28" class="edge">
<title>rover.flows.force-&gt;__main__.Force</title>
<path fill="none" stroke="black" d="M992.3,-933.3C991.28,-903.04 989.1,-838.65 987.57,-793.2"/>
<polygon fill="none" stroke="black" points="991.04,-793.25 987.2,-783.37 984.04,-793.48 991.04,-793.25"/>
<text text-anchor="middle" x="1028.75" y="-863.2" font-family="Times New Roman,serif" font-size="14.00">&lt;inheritance&gt;</text>
<text text-anchor="middle" x="1028.75" y="-847.45" font-family="Times New Roman,serif" font-size="14.00">base</text>
</g>
<!-- rover.flows.ground&#45;&gt;__main__.Ground -->
<g id="edge30" class="edge">
<title>rover.flows.ground-&gt;__main__.Ground</title>
<path fill="none" stroke="black" d="M1134.19,-933.3C1127.86,-904.14 1114.63,-843.28 1104.85,-798.22"/>
<polygon fill="none" stroke="black" points="1108.11,-797.74 1102.56,-788.71 1101.27,-799.23 1108.11,-797.74"/>
<text text-anchor="middle" x="1158.75" y="-863.2" font-family="Times New Roman,serif" font-size="14.00">&lt;inheritance&gt;</text>
<text text-anchor="middle" x="1158.75" y="-847.45" font-family="Times New Roman,serif" font-size="14.00">base</text>
</g>
</g>
</svg>