<svg xmlns="http://www.w3.org/2000/svg" xmlns:xlink="http://www.w3.org/1999/xlink" width="1917pt" height="717pt" viewBox="0.00 0.00 1916.50 717.00">
<g id="graph0" class="graph" transform="scale(1 1) rotate(0) translate(4 713)">
<polygon fill="white" stroke="transparent" points="-4,4 -4,-713 1912.5,-713 1912.5,4 -4,4"/>
<!-- rover.fxns.move_rover -->
<g id="node1" class="node">
<title>rover.fxns.move_rover</title>
<polygon fill="lightgrey" stroke="grey" stroke-width="2" points="1049.5,-709 859.5,-709 859.5,-673 1049.5,-673 1049.5,-709"/>
<text text-anchor="middle" x="954.5" y="-687.3" font-family="Times,serif" font-size="14.00">move_rover: MoveRover</text>
</g>
<!-- rover.fxns.move_rover.m -->
<g id="node2" class="node">
<title>rover.fxns.move_rover.m</title>
<polygon fill="lightgrey" stroke="grey" points="250.5,-556 102.5,-556 102.5,-560 90.5,-560 90.5,-520 250.5,-520 250.5,-556"/>
<polyline fill="none" stroke="grey" points="90.5,-556 102.5,-556 "/>
<text text-anchor="middle" x="170.5" y="-534.3" font-family="Times,serif" font-size="14.00">m: MoveRoverMode</text>
</g>
<!-- rover.fxns.move_rover&#45;&gt;rover.fxns.move_rover.m -->
<g id="edge1" class="edge">
<title>rover.fxns.move_rover-&gt;rover.fxns.move_rover.m</title>
<path fill="none" stroke="black" d="M847.16,-688.91C668.96,-686.44 326.61,-678.65 276.5,-655 231.11,-633.57 196.21,-583.02 180.17,-556.28"/>
<polygon fill="black" stroke="black" points="847.18,-688.91 853.23,-684.99 859.18,-689.07 853.12,-692.99 847.18,-688.91"/>
<text text-anchor="middle" x="333.5" y="-643.8" font-family="Times,serif" font-size="14.00">&lt;containment&gt;</text>
<text text-anchor="middle" x="333.5" y="-628.8" font-family="Times,serif" font-size="14.00">m</text>
</g>
<!-- rover.fxns.move_rover.s -->
<g id="node3" class="node">
<title>rover.fxns.move_rover.s</title>
<polygon fill="lightgrey" stroke="grey" points="433.5,-556 293.5,-556 293.5,-560 281.5,-560 281.5,-520 433.5,-520 433.5,-556"/>
<polyline fill="none" stroke="grey" points="281.5,-556 293.5,-556 "/>
<text text-anchor="middle" x="357.5" y="-534.3" font-family="Times,serif" font-size="14.00">s: MoveRoverState</text>
</g>
<!-- rover.fxns.move_rover&#45;&gt;rover.fxns.move_rover.s -->
<g id="edge2" class="edge">
<title>rover.fxns.move_rover-&gt;rover.fxns.move_rover.s</title>
<path fill="none" stroke="black" d="M846.95,-688.23C702.65,-685.04 460.36,-676.53 425.5,-655 388.96,-632.43 369.82,-582.38 361.94,-556.01"/>
<polygon fill="black" stroke="black" points="847.31,-688.24 853.4,-684.37 859.31,-688.5 853.22,-692.37 847.31,-688.24"/>
<text text-anchor="middle" x="482.5" y="-643.8" font-family="Times,serif" font-size="14.00">&lt;containment&gt;</text>
<text text-anchor="middle" x="482.5" y="-628.8" font-family="Times,serif" font-size="14.00">s</text>
</g>
<!-- rover.fxns.move_rover.sp -->
<g id="node4" class="node">
<title>rover.fxns.move_rover.sp</title>
<polygon fill="lightgrey" stroke="grey" points="593.5,-556 489.5,-556 489.5,-560 477.5,-560 477.5,-520 593.5,-520 593.5,-556"/>
<polyline fill="none" stroke="grey" points="477.5,-556 489.5,-556 "/>
<text text-anchor="middle" x="535.5" y="-534.3" font-family="Times,serif" font-size="14.00">sp: SimParam</text>
</g>
<!-- rover.fxns.move_rover&#45;&gt;rover.fxns.move_rover.sp -->
<g id="edge3" class="edge">
<title>rover.fxns.move_rover-&gt;rover.fxns.move_rover.sp</title>
<path fill="none" stroke="black" d="M847.39,-686.82C738.76,-682.58 583.66,-673.39 562.5,-655 534.1,-630.31 532.43,-582.1 533.84,-556.29"/>
<polygon fill="black" stroke="black" points="847.41,-686.82 853.56,-683.05 859.41,-687.27 853.26,-691.04 847.41,-686.82"/>
<text text-anchor="middle" x="619.5" y="-643.8" font-family="Times,serif" font-size="14.00">&lt;containment&gt;</text>
<text text-anchor="middle" x="619.5" y="-628.8" font-family="Times,serif" font-size="14.00">sp</text>
</g>
<!-- rover.fxns.move_rover.t -->
<g id="node5" class="node">
<title>rover.fxns.move_rover.t</title>
<polygon fill="lightgrey" stroke="grey" points="696,-556 641,-556 641,-560 629,-560 629,-520 696,-520 696,-556"/>
<polyline fill="none" stroke="grey" points="629,-556 641,-556 "/>
<text text-anchor="middle" x="662.5" y="-534.3" font-family="Times,serif" font-size="14.00">t: Time</text>
</g>
<!-- rover.fxns.move_rover&#45;&gt;rover.fxns.move_rover.t -->
<g id="edge4" class="edge">
<title>rover.fxns.move_rover-&gt;rover.fxns.move_rover.t</title>
<path fill="none" stroke="black" d="M847.46,-686.3C788.86,-682.17 723.74,-673.43 701.5,-655 671.73,-630.33 664.57,-582.11 662.93,-556.29"/>
<polygon fill="black" stroke="black" points="847.49,-686.3 853.74,-682.71 859.47,-687.09 853.22,-690.69 847.49,-686.3"/>
<text text-anchor="middle" x="758.5" y="-643.8" font-family="Times,serif" font-size="14.00">&lt;containment&gt;</text>
<text text-anchor="middle" x="758.5" y="-628.8" font-family="Times,serif" font-size="14.00">t</text>
</g>
<!-- __main__.MoveRover -->
<g id="node17" class="node">
<title>__main__.MoveRover</title>
<polygon fill="lightgrey" stroke="grey" points="852.5,-607 714.5,-607 714.5,-469 852.5,-469 852.5,-607"/>
<polyline fill="none" stroke="grey" points="726.5,-607 714.5,-595 "/>
<polyline fill="none" stroke="grey" points="714.5,-481 726.5,-469 "/>
<polyline fill="none" stroke="grey" points="840.5,-469 852.5,-481 "/>
<polyline fill="none" stroke="grey" points="852.5,-595 840.5,-607 "/>
<text text-anchor="middle" x="783.5" y="-534.3" font-family="Times,serif" font-size="14.00">MoveRover: type</text>
</g>
<!-- rover.fxns.move_rover&#45;&gt;__main__.MoveRover -->
<g id="edge11" class="edge">
<title>rover.fxns.move_rover-&gt;__main__.MoveRover</title>
<path fill="none" stroke="black" d="M874.87,-672.97C863.93,-668.34 853.41,-662.46 844.5,-655 831.93,-644.47 821.61,-630.68 813.26,-616.3"/>
<polygon fill="none" stroke="black" points="816.2,-614.37 808.31,-607.29 810.06,-617.74 816.2,-614.37"/>
<text text-anchor="middle" x="897.5" y="-643.8" font-family="Times,serif" font-size="14.00">&lt;inheritance&gt;</text>
<text text-anchor="middle" x="897.5" y="-628.8" font-family="Times,serif" font-size="14.00">base</text>
</g>
<!-- rover.flows.control -->
<g id="node19" class="node">
<title>rover.flows.control</title>
<ellipse fill="lightgrey" stroke="grey" stroke-width="0" cx="954.5" cy="-538" rx="83.69" ry="18"/>
<text text-anchor="middle" x="954.5" y="-534.3" font-family="Times,serif" font-size="14.00">control: Control</text>
</g>
<!-- rover.fxns.move_rover&#45;&gt;rover.flows.control -->
<g id="edge7" class="edge">
<title>rover.fxns.move_rover-&gt;rover.flows.control</title>
<path fill="none" stroke="black" d="M954.5,-660.82C954.5,-629.77 954.5,-581.67 954.5,-556.2"/>
<polygon fill="none" stroke="black" points="954.5,-660.97 958.5,-666.97 954.5,-672.97 950.5,-666.97 954.5,-660.97"/>
<text text-anchor="middle" x="1010" y="-643.8" font-family="Times,serif" font-size="14.00">&lt;aggregation&gt;</text>
<text text-anchor="middle" x="1010" y="-628.8" font-family="Times,serif" font-size="14.00">control</text>
</g>
<!-- rover.flows.ee -->
<g id="node20" class="node">
<title>rover.flows.ee</title>
<ellipse fill="lightgrey" stroke="grey" stroke-width="0" cx="1097.5" cy="-538" rx="40.89" ry="18"/>
<text text-anchor="middle" x="1097.5" y="-534.3" font-family="Times,serif" font-size="14.00">ee: EE</text>
</g>
<!-- rover.fxns.move_rover&#45;&gt;rover.flows.ee -->
<g id="edge8" class="edge">
<title>rover.fxns.move_rover-&gt;rover.flows.ee</title>
<path fill="none" stroke="black" d="M1051.96,-666.9C1057.25,-663.47 1062.16,-659.52 1066.5,-655 1092.62,-627.77 1097.3,-581.06 1097.8,-556.02"/>
<polygon fill="none" stroke="black" points="1051.82,-666.98 1048.57,-673.42 1041.38,-672.9 1044.62,-666.46 1051.82,-666.98"/>
<text text-anchor="middle" x="1141" y="-643.8" font-family="Times,serif" font-size="14.00">&lt;aggregation&gt;</text>
<text text-anchor="middle" x="1141" y="-628.8" font-family="Times,serif" font-size="14.00">ee</text>
</g>
<!-- rover.flows.force -->
<g id="node21" class="node">
<title>rover.flows.force</title>
<ellipse fill="lightgrey" stroke="grey" stroke-width="0" cx="1222.5" cy="-538" rx="65.79" ry="18"/>
<text text-anchor="middle" x="1222.5" y="-534.3" font-family="Times,serif" font-size="14.00">force: Force</text>
</g>
<!-- rover.fxns.move_rover&#45;&gt;rover.flows.force -->
<g id="edge9" class="edge">
<title>rover.fxns.move_rover-&gt;rover.flows.force</title>
<path fill="none" stroke="black" d="M1061.73,-686.86C1118.45,-682.9 1180.44,-674.16 1200.5,-655 1227.48,-629.24 1227.22,-581.47 1224.81,-556.02"/>
<polygon fill="none" stroke="black" points="1061.69,-686.86 1055.96,-691.24 1049.72,-687.63 1055.45,-683.25 1061.69,-686.86"/>
<text text-anchor="middle" x="1274" y="-643.8" font-family="Times,serif" font-size="14.00">&lt;aggregation&gt;</text>
<text text-anchor="middle" x="1274" y="-628.8" font-family="Times,serif" font-size="14.00">force</text>
</g>
<!-- rover.flows.ground -->
<g id="node22" class="node">
<title>rover.flows.ground</title>
<ellipse fill="lightgrey" stroke="grey" stroke-width="0" cx="1390.5" cy="-538" rx="84.49" ry="18"/>
<text text-anchor="middle" x="1390.5" y="-534.3" font-family="Times,serif" font-size="14.00">ground: Ground</text>
</g>
<!-- rover.fxns.move_rover&#45;&gt;rover.flows.ground -->
<g id="edge10" class="edge">
<title>rover.fxns.move_rover-&gt;rover.flows.ground</title>
<path fill="none" stroke="black" d="M1062.13,-685.41C1166.26,-680.11 1311.51,-670.14 1333.5,-655 1367.32,-631.71 1381.91,-582.44 1387.49,-556.24"/>
<polygon fill="none" stroke="black" points="1061.95,-685.42 1056.15,-689.71 1049.96,-686.02 1055.75,-681.72 1061.95,-685.42"/>
<text text-anchor="middle" x="1416" y="-643.8" font-family="Times,serif" font-size="14.00">&lt;aggregation&gt;</text>
<text text-anchor="middle" x="1416" y="-628.8" font-family="Times,serif" font-size="14.00">ground</text>
</g>
<!-- rover.fxns.move_rover.dynamic_behavior -->
<g id="node23" class="node">
<title>rover.fxns.move_rover.dynamic_behavior</title>
<polygon fill="lightgrey" stroke="grey" points="1702,-556 1493,-556 1493,-552 1489,-552 1489,-548 1493,-548 1493,-528 1489,-528 1489,-524 1493,-524 1493,-520 1702,-520 1702,-556"/>
<polyline fill="none" stroke="grey" points="1493,-552 1497,-552 1497,-548 1493,-548 "/>
<polyline fill="none" stroke="grey" points="1493,-528 1497,-528 1497,-524 1493,-524 "/>
<text text-anchor="middle" x="1597.5" y="-534.3" font-family="Times,serif" font-size="14.00">dynamic_behavior: method</text>
</g>
<!-- rover.fxns.move_rover&#45;&gt;rover.fxns.move_rover.dynamic_behavior -->
<g id="edge5" class="edge">
<title>rover.fxns.move_rover-&gt;rover.fxns.move_rover.dynamic_behavior</title>
<path fill="none" stroke="black" d="M1061.73,-686.68C1203.21,-681.71 1438.72,-671.14 1475.5,-655 1524.74,-633.38 1566.22,-582.92 1585.66,-556.24"/>
<polygon fill="black" stroke="black" points="1061.59,-686.69 1055.74,-690.89 1049.6,-687.1 1055.46,-682.9 1061.59,-686.69"/>
<text text-anchor="middle" x="1587.5" y="-643.8" font-family="Times,serif" font-size="14.00">&lt;containment&gt;</text>
<text text-anchor="middle" x="1587.5" y="-628.8" font-family="Times,serif" font-size="14.00">dynamic_behavior</text>
</g>
<!-- rover.fxns.move_rover.static_behavior -->
<g id="node24" class="node">
<title>rover.fxns.move_rover.static_behavior</title>
<polygon fill="lightgrey" stroke="grey" points="1908.5,-556 1720.5,-556 1720.5,-552 1716.5,-552 1716.5,-548 1720.5,-548 1720.5,-528 1716.5,-528 1716.5,-524 1720.5,-524 1720.5,-520 1908.5,-520 1908.5,-556"/>
<polyline fill="none" stroke="grey" points="1720.5,-552 1724.5,-552 1724.5,-548 1720.5,-548 "/>
<polyline fill="none" stroke="grey" points="1720.5,-528 1724.5,-528 1724.5,-524 1720.5,-524 "/>
<text text-anchor="middle" x="1814.5" y="-534.3" font-family="Times,serif" font-size="14.00">static_behavior: method</text>
</g>
<!-- rover.fxns.move_rover&#45;&gt;rover.fxns.move_rover.static_behavior -->
<g id="edge6" class="edge">
<title>rover.fxns.move_rover-&gt;rover.fxns.move_rover.static_behavior</title>
<path fill="none" stroke="black" d="M1061.7,-688.05C1244.49,-684.21 1602.1,-674.34 1656.5,-655 1715.5,-634.03 1771.31,-583.28 1798.04,-556.39"/>
<polygon fill="black" stroke="black" points="1061.65,-688.05 1055.73,-692.17 1049.65,-688.3 1055.57,-684.17 1061.65,-688.05"/>
<text text-anchor="middle" x="1770.5" y="-643.8" font-family="Times,serif" font-size="14.00">&lt;containment&gt;</text>
<text text-anchor="middle" x="1770.5" y="-628.8" font-family="Times,serif" font-size="14.00">static_behavior</text>
</g>
<!-- __main__.MoveRoverMode -->
<g id="node6" class="node">
<title>__main__.MoveRoverMode</title>
<polygon fill="lightgrey" stroke="grey" points="209,-403 0,-403 0,-194 209,-194 209,-403"/>
<polyline fill="none" stroke="grey" points="12,-403 0,-391 "/>
<polyline fill="none" stroke="grey" points="0,-206 12,-194 "/>
<polyline fill="none" stroke="grey" points="197,-194 209,-206 "/>
<polyline fill="none" stroke="grey" points="209,-391 197,-403 "/>
<text text-anchor="middle" x="104.5" y="-294.8" font-family="Times,serif" font-size="14.00">MoveRoverMode: datatype</text>
</g>
<!-- rover.fxns.move_rover.m&#45;&gt;__main__.MoveRoverMode -->
<g id="edge12" class="edge">
<title>rover.fxns.move_rover.m-&gt;__main__.MoveRoverMode</title>
<path fill="none" stroke="black" d="M165.75,-519.92C159.39,-497.03 147.55,-454.43 135.97,-412.74"/>
<polygon fill="none" stroke="black" points="139.32,-411.72 133.27,-403.02 132.57,-413.6 139.32,-411.72"/>
<text text-anchor="middle" x="198.5" y="-439.8" font-family="Times,serif" font-size="14.00">&lt;inheritance&gt;</text>
<text text-anchor="middle" x="198.5" y="-424.8" font-family="Times,serif" font-size="14.00">base</text>
</g>
<!-- __main__.MoveRoverState -->
<g id="node8" class="node">
<title>__main__.MoveRoverState</title>
<polygon fill="lightgrey" stroke="grey" points="435.5,-402.5 227.5,-402.5 227.5,-194.5 435.5,-194.5 435.5,-402.5"/>
<polyline fill="none" stroke="grey" points="239.5,-402.5 227.5,-390.5 "/>
<polyline fill="none" stroke="grey" points="227.5,-206.5 239.5,-194.5 "/>
<polyline fill="none" stroke="grey" points="423.5,-194.5 435.5,-206.5 "/>
<polyline fill="none" stroke="grey" points="435.5,-390.5 423.5,-402.5 "/>
<text text-anchor="middle" x="331.5" y="-294.8" font-family="Times,serif" font-size="14.00">MoveRoverState: datatype</text>
</g>
<!-- rover.fxns.move_rover.s&#45;&gt;__main__.MoveRoverState -->
<g id="edge14" class="edge">
<title>rover.fxns.move_rover.s-&gt;__main__.MoveRoverState</title>
<path fill="none" stroke="black" d="M355.63,-519.92C353.12,-497.03 348.46,-454.43 343.9,-412.73"/>
<polygon fill="none" stroke="black" points="347.37,-412.29 342.8,-402.73 340.41,-413.06 347.37,-412.29"/>
<text text-anchor="middle" x="401.5" y="-439.8" font-family="Times,serif" font-size="14.00">&lt;inheritance&gt;</text>
<text text-anchor="middle" x="401.5" y="-424.8" font-family="Times,serif" font-size="14.00">base</text>
</g>
<!-- fmdtools.define.block.base.SimParam -->
<g id="node10" class="node">
<title>fmdtools.define.block.base.SimParam</title>
<polygon fill="lightgrey" stroke="grey" points="615.5,-379.5 453.5,-379.5 453.5,-217.5 615.5,-217.5 615.5,-379.5"/>
<polyline fill="none" stroke="grey" points="465.5,-379.5 453.5,-367.5 "/>
<polyline fill="none" stroke="grey" points="453.5,-229.5 465.5,-217.5 "/>
<polyline fill="none" stroke="grey" points="603.5,-217.5 615.5,-229.5 "/>
<polyline fill="none" stroke="grey" points="615.5,-367.5 603.5,-379.5 "/>
<text text-anchor="middle" x="534.5" y="-294.8" font-family="Times,serif" font-size="14.00">SimParam: datatype</text>
</g>
<!-- rover.fxns.move_rover.sp&#45;&gt;fmdtools.define.block.base.SimParam -->
<g id="edge16" class="edge">
<title>rover.fxns.move_rover.sp-&gt;fmdtools.define.block.base.SimParam</title>
<path fill="none" stroke="black" d="M535.43,-519.92C535.31,-492.81 535.08,-438.07 534.88,-389.93"/>
<polygon fill="none" stroke="black" points="538.38,-389.75 534.84,-379.77 531.38,-389.78 538.38,-389.75"/>
<text text-anchor="middle" x="588.5" y="-439.8" font-family="Times,serif" font-size="14.00">&lt;inheritance&gt;</text>
<text text-anchor="middle" x="588.5" y="-424.8" font-family="Times,serif" font-size="14.00">base</text>
</g>
<!-- fmdtools.define.container.time.Time -->
<g id="node11" class="node">
<title>fmdtools.define.container.time.Time</title>
<polygon fill="lightgrey" stroke="grey" points="757.5,-360.5 633.5,-360.5 633.5,-236.5 757.5,-236.5 757.5,-360.5"/>
<polyline fill="none" stroke="grey" points="645.5,-360.5 633.5,-348.5 "/>
<polyline fill="none" stroke="grey" points="633.5,-248.5 645.5,-236.5 "/>
<polyline fill="none" stroke="grey" points="745.5,-236.5 757.5,-248.5 "/>
<polyline fill="none" stroke="grey" points="757.5,-348.5 745.5,-360.5 "/>
<text text-anchor="middle" x="695.5" y="-294.8" font-family="Times,serif" font-size="14.00">Time: datatype</text>
</g>
<!-- rover.fxns.move_rover.t&#45;&gt;fmdtools.define.container.time.Time -->
<g id="edge17" class="edge">
<title>rover.fxns.move_rover.t-&gt;fmdtools.define.container.time.Time</title>
<path fill="none" stroke="black" d="M664.87,-519.92C669.15,-489.16 678.37,-422.82 685.58,-370.91"/>
<polygon fill="none" stroke="black" points="689.08,-371.12 686.99,-360.73 682.15,-370.16 689.08,-371.12"/>
<text text-anchor="middle" x="731.5" y="-439.8" font-family="Times,serif" font-size="14.00">&lt;inheritance&gt;</text>
<text text-anchor="middle" x="731.5" y="-424.8" font-family="Times,serif" font-size="14.00">base</text>
</g>
<!-- fmdtools.define.container.mode.Mode -->
<g id="node7" class="node">
<title>fmdtools.define.container.mode.Mode</title>
<polygon fill="lightgrey" stroke="grey" points="168.5,-128 40.5,-128 40.5,0 168.5,0 168.5,-128"/>
<polyline fill="none" stroke="grey" points="52.5,-128 40.5,-116 "/>
<polyline fill="none" stroke="grey" points="40.5,-12 52.5,0 "/>
<polyline fill="none" stroke="grey" points="156.5,0 168.5,-12 "/>
<polyline fill="none" stroke="grey" points="168.5,-116 156.5,-128 "/>
<text text-anchor="middle" x="104.5" y="-60.3" font-family="Times,serif" font-size="14.00">Mode: datatype</text>
</g>
<!-- __main__.MoveRoverMode&#45;&gt;fmdtools.define.container.mode.Mode -->
<g id="edge13" class="edge">
<title>__main__.MoveRoverMode-&gt;fmdtools.define.container.mode.Mode</title>
<path fill="none" stroke="black" d="M104.5,-193.83C104.5,-175.1 104.5,-155.93 104.5,-138.3"/>
<polygon fill="none" stroke="black" points="108,-138.11 104.5,-128.11 101,-138.11 108,-138.11"/>
<text text-anchor="middle" x="157.5" y="-164.8" font-family="Times,serif" font-size="14.00">&lt;inheritance&gt;</text>
<text text-anchor="middle" x="157.5" y="-149.8" font-family="Times,serif" font-size="14.00">base</text>
</g>
<!-- fmdtools.define.container.state.State -->
<g id="node9" class="node">
<title>fmdtools.define.container.state.State</title>
<polygon fill="lightgrey" stroke="grey" points="395,-127.5 268,-127.5 268,-0.5 395,-0.5 395,-127.5"/>
<polyline fill="none" stroke="grey" points="280,-127.5 268,-115.5 "/>
<polyline fill="none" stroke="grey" points="268,-12.5 280,-0.5 "/>
<polyline fill="none" stroke="grey" points="383,-0.5 395,-12.5 "/>
<polyline fill="none" stroke="grey" points="395,-115.5 383,-127.5 "/>
<text text-anchor="middle" x="331.5" y="-60.3" font-family="Times,serif" font-size="14.00">State: datatype</text>
</g>
<!-- __main__.MoveRoverState&#45;&gt;fmdtools.define.container.state.State -->
<g id="edge15" class="edge">
<title>__main__.MoveRoverState-&gt;fmdtools.define.container.state.State</title>
<path fill="none" stroke="black" d="M331.5,-194.17C331.5,-175.12 331.5,-155.61 331.5,-137.7"/>
<polygon fill="none" stroke="black" points="335,-137.65 331.5,-127.65 328,-137.65 335,-137.65"/>
<text text-anchor="middle" x="384.5" y="-164.8" font-family="Times,serif" font-size="14.00">&lt;inheritance&gt;</text>
<text text-anchor="middle" x="384.5" y="-149.8" font-family="Times,serif" font-size="14.00">base</text>
</g>
<!-- __main__.Control -->
<g id="node12" class="node">
<title>__main__.Control</title>
<polygon fill="lightgrey" stroke="grey" points="1023.5,-353.5 913.5,-353.5 913.5,-243.5 1023.5,-243.5 1023.5,-353.5"/>
<polyline fill="none" stroke="grey" points="925.5,-353.5 913.5,-341.5 "/>
<polyline fill="none" stroke="grey" points="913.5,-255.5 925.5,-243.5 "/>
<polyline fill="none" stroke="grey" points="1011.5,-243.5 1023.5,-255.5 "/>
<polyline fill="none" stroke="grey" points="1023.5,-341.5 1011.5,-353.5 "/>
<text text-anchor="middle" x="968.5" y="-294.8" font-family="Times,serif" font-size="14.00">Control: type</text>
</g>
<!-- fmdtools.define.flow.base.Flow -->
<g id="node13" class="node">
<title>fmdtools.define.flow.base.Flow</title>
<polygon fill="lightgrey" stroke="grey" points="1207.5,-110 1115.5,-110 1115.5,-18 1207.5,-18 1207.5,-110"/>
<polyline fill="none" stroke="grey" points="1127.5,-110 1115.5,-98 "/>
<polyline fill="none" stroke="grey" points="1115.5,-30 1127.5,-18 "/>
<polyline fill="none" stroke="grey" points="1195.5,-18 1207.5,-30 "/>
<polyline fill="none" stroke="grey" points="1207.5,-98 1195.5,-110 "/>
<text text-anchor="middle" x="1161.5" y="-60.3" font-family="Times,serif" font-size="14.00">Flow: type</text>
</g>
<!-- __main__.Control&#45;&gt;fmdtools.define.flow.base.Flow -->
<g id="edge19" class="edge">
<title>__main__.Control-&gt;fmdtools.define.flow.base.Flow</title>
<path fill="none" stroke="black" d="M960.84,-243.49C959.3,-212.3 962.65,-173.86 982.5,-146 1011.11,-105.83 1064.5,-85.2 1105.55,-74.85"/>
<polygon fill="none" stroke="black" points="1106.52,-78.22 1115.43,-72.49 1104.9,-71.41 1106.52,-78.22"/>
<text text-anchor="middle" x="1035.5" y="-164.8" font-family="Times,serif" font-size="14.00">&lt;inheritance&gt;</text>
<text text-anchor="middle" x="1035.5" y="-149.8" font-family="Times,serif" font-size="14.00">base</text>
</g>
<!-- __main__.EE -->
<g id="node14" class="node">
<title>__main__.EE</title>
<polygon fill="lightgrey" stroke="grey" points="1136.5,-337.5 1058.5,-337.5 1058.5,-259.5 1136.5,-259.5 1136.5,-337.5"/>
<polyline fill="none" stroke="grey" points="1070.5,-337.5 1058.5,-325.5 "/>
<polyline fill="none" stroke="grey" points="1058.5,-271.5 1070.5,-259.5 "/>
<polyline fill="none" stroke="grey" points="1124.5,-259.5 1136.5,-271.5 "/>
<polyline fill="none" stroke="grey" points="1136.5,-325.5 1124.5,-337.5 "/>
<text text-anchor="middle" x="1097.5" y="-294.8" font-family="Times,serif" font-size="14.00">EE: type</text>
</g>
<!-- __main__.EE&#45;&gt;fmdtools.define.flow.base.Flow -->
<g id="edge21" class="edge">
<title>__main__.EE-&gt;fmdtools.define.flow.base.Flow</title>
<path fill="none" stroke="black" d="M1091.11,-259.31C1087.42,-227.97 1085.7,-182.9 1098.5,-146 1101.78,-136.53 1106.67,-127.31 1112.29,-118.69"/>
<polygon fill="none" stroke="black" points="1115.29,-120.5 1118.12,-110.29 1109.54,-116.51 1115.29,-120.5"/>
<text text-anchor="middle" x="1151.5" y="-164.8" font-family="Times,serif" font-size="14.00">&lt;inheritance&gt;</text>
<text text-anchor="middle" x="1151.5" y="-149.8" font-family="Times,serif" font-size="14.00">base</text>
</g>
<!-- __main__.Force -->
<g id="node15" class="node">
<title>__main__.Force</title>
<polygon fill="lightgrey" stroke="grey" points="1275,-347 1178,-347 1178,-250 1275,-250 1275,-347"/>
<polyline fill="none" stroke="grey" points="1190,-347 1178,-335 "/>
<polyline fill="none" stroke="grey" points="1178,-262 1190,-250 "/>
<polyline fill="none" stroke="grey" points="1263,-250 1275,-262 "/>
<polyline fill="none" stroke="grey" points="1275,-335 1263,-347 "/>
<text text-anchor="middle" x="1226.5" y="-294.8" font-family="Times,serif" font-size="14.00">Force: type</text>
</g>
<!-- __main__.Force&#45;&gt;fmdtools.define.flow.base.Flow -->
<g id="edge23" class="edge">
<title>__main__.Force-&gt;fmdtools.define.flow.base.Flow</title>
<path fill="none" stroke="black" d="M1223.79,-249.8C1221.04,-219.47 1215.53,-179.72 1204.5,-146 1201.56,-137.02 1197.67,-127.84 1193.43,-119.05"/>
<polygon fill="none" stroke="black" points="1196.53,-117.41 1188.91,-110.05 1190.27,-120.55 1196.53,-117.41"/>
<text text-anchor="middle" x="1265.5" y="-164.8" font-family="Times,serif" font-size="14.00">&lt;inheritance&gt;</text>
<text text-anchor="middle" x="1265.5" y="-149.8" font-family="Times,serif" font-size="14.00">base</text>
</g>
<!-- __main__.Ground -->
<g id="node16" class="node">
<title>__main__.Ground</title>
<polygon fill="lightgrey" stroke="grey" points="1436.5,-353.5 1326.5,-353.5 1326.5,-243.5 1436.5,-243.5 1436.5,-353.5"/>
<polyline fill="none" stroke="grey" points="1338.5,-353.5 1326.5,-341.5 "/>
<polyline fill="none" stroke="grey" points="1326.5,-255.5 1338.5,-243.5 "/>
<polyline fill="none" stroke="grey" points="1424.5,-243.5 1436.5,-255.5 "/>
<polyline fill="none" stroke="grey" points="1436.5,-341.5 1424.5,-353.5 "/>
<text text-anchor="middle" x="1381.5" y="-294.8" font-family="Times,serif" font-size="14.00">Ground: type</text>
</g>
<!-- __main__.Ground&#45;&gt;fmdtools.define.flow.base.Flow -->
<g id="edge25" class="edge">
<title>__main__.Ground-&gt;fmdtools.define.flow.base.Flow</title>
<path fill="none" stroke="black" d="M1370.63,-243.25C1362.02,-211.79 1347.19,-173.15 1322.5,-146 1294.31,-115 1251.56,-94.27 1217.19,-81.55"/>
<polygon fill="none" stroke="black" points="1218.34,-78.24 1207.74,-78.17 1215.98,-84.83 1218.34,-78.24"/>
<text text-anchor="middle" x="1396.5" y="-164.8" font-family="Times,serif" font-size="14.00">&lt;inheritance&gt;</text>
<text text-anchor="middle" x="1396.5" y="-149.8" font-family="Times,serif" font-size="14.00">base</text>
</g>
<!-- fmdtools.define.block.function.Function -->
<g id="node18" class="node">
<title>fmdtools.define.block.function.Function</title>
<polygon fill="lightgrey" stroke="grey" points="895.5,-358.5 775.5,-358.5 775.5,-238.5 895.5,-238.5 895.5,-358.5"/>
<polyline fill="none" stroke="grey" points="787.5,-358.5 775.5,-346.5 "/>
<polyline fill="none" stroke="grey" points="775.5,-250.5 787.5,-238.5 "/>
<polyline fill="none" stroke="grey" points="883.5,-238.5 895.5,-250.5 "/>
<polyline fill="none" stroke="grey" points="895.5,-346.5 883.5,-358.5 "/>
<text text-anchor="middle" x="835.5" y="-294.8" font-family="Times,serif" font-size="14.00">Function: type</text>
</g>
<!-- __main__.MoveRover&#45;&gt;fmdtools.define.block.function.Function -->
<g id="edge26" class="edge">
<title>__main__.MoveRover-&gt;fmdtools.define.block.function.Function</title>
<path fill="none" stroke="black" d="M798.4,-468.94C805.28,-437.53 813.43,-400.28 820.34,-368.72"/>
<polygon fill="none" stroke="black" points="823.82,-369.21 822.54,-358.69 816.98,-367.71 823.82,-369.21"/>
<text text-anchor="middle" x="861.5" y="-439.8" font-family="Times,serif" font-size="14.00">&lt;inheritance&gt;</text>
<text text-anchor="middle" x="861.5" y="-424.8" font-family="Times,serif" font-size="14.00">base</text>
</g>
<!-- rover.flows.control&#45;&gt;__main__.Control -->
<g id="edge18" class="edge">
<title>rover.flows.control-&gt;__main__.Control</title>
<path fill="none" stroke="black" d="M955.51,-519.92C957.4,-487.81 961.58,-416.94 964.69,-364.18"/>
<polygon fill="none" stroke="black" points="968.2,-364.07 965.29,-353.88 961.21,-363.66 968.2,-364.07"/>
<text text-anchor="middle" x="1014.5" y="-439.8" font-family="Times,serif" font-size="14.00">&lt;inheritance&gt;</text>
<text text-anchor="middle" x="1014.5" y="-424.8" font-family="Times,serif" font-size="14.00">base</text>
</g>
<!-- rover.flows.ee&#45;&gt;__main__.EE -->
<g id="edge20" class="edge">
<title>rover.flows.ee-&gt;__main__.EE</title>
<path fill="none" stroke="black" d="M1097.5,-519.92C1097.5,-484.42 1097.5,-401.54 1097.5,-348.14"/>
<polygon fill="none" stroke="black" points="1101,-347.87 1097.5,-337.87 1094,-347.87 1101,-347.87"/>
<text text-anchor="middle" x="1150.5" y="-439.8" font-family="Times,serif" font-size="14.00">&lt;inheritance&gt;</text>
<text text-anchor="middle" x="1150.5" y="-424.8" font-family="Times,serif" font-size="14.00">base</text>
</g>
<!-- rover.flows.force&#45;&gt;__main__.Force -->
<g id="edge22" class="edge">
<title>rover.flows.force-&gt;__main__.Force</title>
<path fill="none" stroke="black" d="M1222.79,-519.92C1223.35,-486.35 1224.63,-410.39 1225.53,-357.07"/>
<polygon fill="none" stroke="black" points="1229.03,-357.12 1225.7,-347.06 1222.03,-357 1229.03,-357.12"/>
<text text-anchor="middle" x="1277.5" y="-439.8" font-family="Times,serif" font-size="14.00">&lt;inheritance&gt;</text>
<text text-anchor="middle" x="1277.5" y="-424.8" font-family="Times,serif" font-size="14.00">base</text>
</g>
<!-- rover.flows.ground&#45;&gt;__main__.Ground -->
<g id="edge24" class="edge">
<title>rover.flows.ground-&gt;__main__.Ground</title>
<path fill="none" stroke="black" d="M1389.85,-519.92C1388.64,-487.81 1385.95,-416.94 1383.95,-364.18"/>
<polygon fill="none" stroke="black" points="1387.44,-363.75 1383.56,-353.88 1380.44,-364.01 1387.44,-363.75"/>
<text text-anchor="middle" x="1440.5" y="-439.8" font-family="Times,serif" font-size="14.00">&lt;inheritance&gt;</text>
<text text-anchor="middle" x="1440.5" y="-424.8" font-family="Times,serif" font-size="14.00">base</text>
</g>
</g>
</svg>