<svg xmlns="http://www.w3.org/2000/svg" xmlns:xlink="http://www.w3.org/1999/xlink" width="4018pt" height="315pt" viewBox="0.00 0.00 4018.00 315.00">
<g id="graph0" class="graph" transform="scale(1 1) rotate(0) translate(4 311)">
<polygon fill="white" stroke="transparent" points="-4,4 -4,-311 4014,-311 4014,4 -4,4"/>
<!-- rover -->
<g id="node1" class="node">
<title>rover</title>
<polygon fill="lightgrey" stroke="grey" points="1965,-307 1893.51,-272.5 2036.49,-272.5 1965,-307"/>
<text text-anchor="middle" x="1965" y="-280.3" font-family="Times,serif" font-size="14.00">rover</text>
</g>
<!-- rover.flows.ground -->
<g id="node2" class="node">
<title>rover.flows.ground</title>
<ellipse fill="lightgrey" stroke="grey" stroke-width="0" cx="2246" cy="-105" rx="44.39" ry="18"/>
<text text-anchor="middle" x="2246" y="-101.3" font-family="Times,serif" font-size="14.00">ground</text>
</g>
<!-- rover&#45;&gt;rover.flows.ground -->
<g id="edge1" class="edge">
<title>rover-&gt;rover.flows.ground</title>
<path fill="none" stroke="black" d="M2033.73,-278.94C2120.71,-273.09 2261.19,-260.97 2277,-243 2281.4,-238 2277.83,-234.62 2277,-228 2275.7,-217.59 2258.91,-154.17 2250.6,-123.11"/>
<polygon fill="black" stroke="black" points="2033.54,-278.95 2027.82,-283.34 2021.57,-279.74 2027.29,-275.35 2033.54,-278.95"/>
<text text-anchor="middle" x="2330" y="-188.3" font-family="Times,serif" font-size="14.00">&lt;containment&gt;</text>
</g>
<!-- rover.flows.force -->
<g id="node3" class="node">
<title>rover.flows.force</title>
<ellipse fill="lightgrey" stroke="grey" stroke-width="0" cx="1749" cy="-105" rx="34.39" ry="18"/>
<text text-anchor="middle" x="1749" y="-101.3" font-family="Times,serif" font-size="14.00">force</text>
</g>
<!-- rover&#45;&gt;rover.flows.force -->
<g id="edge2" class="edge">
<title>rover-&gt;rover.flows.force</title>
<path fill="none" stroke="black" d="M1890.83,-275.42C1853.42,-269.72 1808.03,-259.87 1770,-243 1747.33,-232.94 1736.21,-232.12 1725,-210 1710.43,-181.24 1726.75,-143.53 1738.7,-122.32"/>
<polygon fill="black" stroke="black" points="1891.31,-275.49 1897.82,-272.39 1903.19,-277.2 1896.68,-280.3 1891.31,-275.49"/>
<text text-anchor="middle" x="1782" y="-188.3" font-family="Times,serif" font-size="14.00">&lt;containment&gt;</text>
</g>
<!-- rover.flows.ee -->
<g id="node4" class="node">
<title>rover.flows.ee</title>
<ellipse fill="lightgrey" stroke="grey" stroke-width="0" cx="2502" cy="-105" rx="27" ry="18"/>
<text text-anchor="middle" x="2502" y="-101.3" font-family="Times,serif" font-size="14.00">ee</text>
</g>
<!-- rover&#45;&gt;rover.flows.ee -->
<g id="edge3" class="edge">
<title>rover-&gt;rover.flows.ee</title>
<path fill="none" stroke="black" d="M2028.61,-281.65C2114.37,-277.75 2270.24,-263.19 2391,-210 2436.16,-190.11 2457.44,-194.74 2488,-156 2495.37,-146.66 2498.86,-133.66 2500.52,-123.25"/>
<polygon fill="black" stroke="black" points="2028.47,-281.66 2022.64,-285.9 2016.48,-282.16 2022.31,-277.91 2028.47,-281.66"/>
<text text-anchor="middle" x="2527" y="-188.3" font-family="Times,serif" font-size="14.00">&lt;containment&gt;</text>
</g>
<!-- rover.flows.video -->
<g id="node5" class="node">
<title>rover.flows.video</title>
<ellipse fill="lightgrey" stroke="grey" stroke-width="0" cx="1614" cy="-105" rx="36" ry="18"/>
<text text-anchor="middle" x="1614" y="-101.3" font-family="Times,serif" font-size="14.00">video</text>
</g>
<!-- rover&#45;&gt;rover.flows.video -->
<g id="edge4" class="edge">
<title>rover-&gt;rover.flows.video</title>
<path fill="none" stroke="black" d="M1897.62,-279.57C1802.84,-273.15 1637.71,-255.57 1602,-210 1582.27,-184.82 1595.34,-145.11 1605.44,-122.74"/>
<polygon fill="black" stroke="black" points="1897.68,-279.57 1903.93,-275.97 1909.66,-280.35 1903.41,-283.95 1897.68,-279.57"/>
<text text-anchor="middle" x="1659" y="-188.3" font-family="Times,serif" font-size="14.00">&lt;containment&gt;</text>
</g>
<!-- rover.flows.control -->
<g id="node6" class="node">
<title>rover.flows.control</title>
<ellipse fill="lightgrey" stroke="grey" stroke-width="0" cx="683" cy="-105" rx="43.59" ry="18"/>
<text text-anchor="middle" x="683" y="-101.3" font-family="Times,serif" font-size="14.00">control</text>
</g>
<!-- rover&#45;&gt;rover.flows.control -->
<g id="edge5" class="edge">
<title>rover-&gt;rover.flows.control</title>
<path fill="none" stroke="black" d="M1898.83,-280.6C1745.8,-274.43 1355.83,-255.26 1033,-210 897.1,-190.95 849.33,-221.96 729,-156 714.52,-148.06 702.12,-133.85 693.86,-122.61"/>
<polygon fill="black" stroke="black" points="1899.18,-280.61 1905.33,-276.85 1911.17,-281.09 1905.01,-284.85 1899.18,-280.61"/>
<text text-anchor="middle" x="1090" y="-188.3" font-family="Times,serif" font-size="14.00">&lt;containment&gt;</text>
</g>
<!-- rover.flows.comms -->
<g id="node7" class="node">
<title>rover.flows.comms</title>
<ellipse fill="lightgrey" stroke="grey" stroke-width="0" cx="3896" cy="-105" rx="43.59" ry="18"/>
<text text-anchor="middle" x="3896" y="-101.3" font-family="Times,serif" font-size="14.00">comms</text>
</g>
<!-- rover&#45;&gt;rover.flows.comms -->
<g id="edge6" class="edge">
<title>rover-&gt;rover.flows.comms</title>
<path fill="none" stroke="black" d="M2029.42,-281.71C2298.06,-276.08 3330.18,-252.13 3653,-210 3770.46,-194.67 3839.2,-247.86 3914,-156 3921.92,-146.27 3916.35,-132.77 3909.38,-122.25"/>
<polygon fill="black" stroke="black" points="2029.2,-281.71 2023.29,-285.83 2017.21,-281.96 2023.12,-277.84 2029.2,-281.71"/>
<text text-anchor="middle" x="3953" y="-188.3" font-family="Times,serif" font-size="14.00">&lt;containment&gt;</text>
</g>
<!-- rover.m -->
<g id="node28" class="node">
<title>rover.m</title>
<polygon fill="lightgrey" stroke="grey" points="2028,-210 1986,-210 1986,-214 1974,-214 1974,-174 2028,-174 2028,-210"/>
<polyline fill="none" stroke="grey" points="1974,-210 1986,-210 "/>
<text text-anchor="middle" x="2001" y="-188.3" font-family="Times,serif" font-size="14.00">m</text>
</g>
<!-- rover&#45;&gt;rover.m -->
<g id="edge12" class="edge">
<title>rover-&gt;rover.m</title>
<path fill="none" stroke="black" d="M1923.24,-267.23C1903.35,-257.29 1886.21,-243.44 1898,-228 1916.46,-203.84 1935.42,-220.38 1964,-210 1967.19,-208.84 1970.48,-207.52 1973.73,-206.14"/>
<polygon fill="black" stroke="black" points="1923.49,-267.35 1930.61,-266.21 1934.4,-272.34 1927.28,-273.48 1923.49,-267.35"/>
<text text-anchor="middle" x="1955" y="-231.8" font-family="Times,serif" font-size="14.00">&lt;containment&gt;</text>
</g>
<!-- rover.sp -->
<g id="node29" class="node">
<title>rover.sp</title>
<polygon fill="lightgrey" stroke="grey" points="2100,-210 2058,-210 2058,-214 2046,-214 2046,-174 2100,-174 2100,-210"/>
<polyline fill="none" stroke="grey" points="2046,-210 2058,-210 "/>
<text text-anchor="middle" x="2073" y="-188.3" font-family="Times,serif" font-size="14.00">sp</text>
</g>
<!-- rover&#45;&gt;rover.sp -->
<g id="edge13" class="edge">
<title>rover-&gt;rover.sp</title>
<path fill="none" stroke="black" d="M1987.24,-264.47C2006.39,-248.51 2033.82,-225.65 2052.46,-210.12"/>
<polygon fill="black" stroke="black" points="1987.03,-264.64 1984.98,-271.55 1977.81,-272.32 1979.86,-265.41 1987.03,-264.64"/>
<text text-anchor="middle" x="2086" y="-231.8" font-family="Times,serif" font-size="14.00">&lt;containment&gt;</text>
</g>
<!-- rover.t -->
<g id="node30" class="node">
<title>rover.t</title>
<polygon fill="lightgrey" stroke="grey" points="2198,-210 2156,-210 2156,-214 2144,-214 2144,-174 2198,-174 2198,-210"/>
<polyline fill="none" stroke="grey" points="2144,-210 2156,-210 "/>
<text text-anchor="middle" x="2171" y="-188.3" font-family="Times,serif" font-size="14.00">t</text>
</g>
<!-- rover&#45;&gt;rover.t -->
<g id="edge14" class="edge">
<title>rover-&gt;rover.t</title>
<path fill="none" stroke="black" d="M2044.83,-272.48C2086,-265.69 2130.9,-255.75 2147,-243 2157.27,-234.87 2163.4,-221.27 2166.89,-210.3"/>
<polygon fill="black" stroke="black" points="2044.63,-272.51 2039.33,-277.4 2032.78,-274.39 2038.08,-269.5 2044.63,-272.51"/>
<text text-anchor="middle" x="2216" y="-231.8" font-family="Times,serif" font-size="14.00">&lt;containment&gt;</text>
</g>
<!-- rover.fxns.control_rover -->
<g id="node31" class="node">
<title>rover.fxns.control_rover</title>
<polygon fill="lightgrey" stroke="grey" stroke-width="2" points="456,-210 344,-210 344,-174 456,-174 456,-210"/>
<text text-anchor="middle" x="400" y="-188.3" font-family="Times,serif" font-size="14.00">control_rover</text>
</g>
<!-- rover&#45;&gt;rover.fxns.control_rover -->
<g id="edge7" class="edge">
<title>rover-&gt;rover.fxns.control_rover</title>
<path fill="none" stroke="black" d="M1903.89,-283.45C1669.23,-284.85 825.93,-286.66 562,-243 521.05,-236.23 476.07,-221.75 443.91,-210.1"/>
<polygon fill="black" stroke="black" points="1903.89,-283.45 1909.87,-279.42 1915.89,-283.38 1909.92,-287.42 1903.89,-283.45"/>
<text text-anchor="middle" x="619" y="-231.8" font-family="Times,serif" font-size="14.00">&lt;containment&gt;</text>
</g>
<!-- rover.fxns.store_energy -->
<g id="node32" class="node">
<title>rover.fxns.store_energy</title>
<polygon fill="lightgrey" stroke="grey" stroke-width="2" points="1266,-210 1156,-210 1156,-174 1266,-174 1266,-210"/>
<text text-anchor="middle" x="1211" y="-188.3" font-family="Times,serif" font-size="14.00">store_energy</text>
</g>
<!-- rover&#45;&gt;rover.fxns.store_energy -->
<g id="edge8" class="edge">
<title>rover-&gt;rover.fxns.store_energy</title>
<path fill="none" stroke="black" d="M1899.71,-281.01C1799.81,-277.29 1603.18,-267.34 1438,-243 1378.71,-234.27 1311.83,-218.84 1266.1,-207.42"/>
<polygon fill="black" stroke="black" points="1900,-281.02 1906.14,-277.23 1911.99,-281.45 1905.85,-285.23 1900,-281.02"/>
<text text-anchor="middle" x="1495" y="-231.8" font-family="Times,serif" font-size="14.00">&lt;containment&gt;</text>
</g>
<!-- rover.fxns.move_rover -->
<g id="node33" class="node">
<title>rover.fxns.move_rover</title>
<polygon fill="lightgrey" stroke="grey" stroke-width="2" points="2739,-210 2639,-210 2639,-174 2739,-174 2739,-210"/>
<text text-anchor="middle" x="2689" y="-188.3" font-family="Times,serif" font-size="14.00">move_rover</text>
</g>
<!-- rover&#45;&gt;rover.fxns.move_rover -->
<g id="edge9" class="edge">
<title>rover-&gt;rover.fxns.move_rover</title>
<path fill="none" stroke="black" d="M2027.48,-282.69C2130.2,-281.25 2340.85,-274.31 2516,-243 2558.62,-235.38 2605.76,-221.37 2640.06,-210.11"/>
<polygon fill="black" stroke="black" points="2027.2,-282.7 2021.25,-286.77 2015.2,-282.85 2021.15,-278.77 2027.2,-282.7"/>
<text text-anchor="middle" x="2635" y="-231.8" font-family="Times,serif" font-size="14.00">&lt;containment&gt;</text>
</g>
<!-- rover.fxns.view_ground -->
<g id="node34" class="node">
<title>rover.fxns.view_ground</title>
<polygon fill="lightgrey" stroke="grey" stroke-width="2" points="1955.5,-210 1848.5,-210 1848.5,-174 1955.5,-174 1955.5,-210"/>
<text text-anchor="middle" x="1902" y="-188.3" font-family="Times,serif" font-size="14.00">view_ground</text>
</g>
<!-- rover&#45;&gt;rover.fxns.view_ground -->
<g id="edge10" class="edge">
<title>rover-&gt;rover.fxns.view_ground</title>
<path fill="none" stroke="black" d="M1893.52,-277.02C1846.77,-271.46 1791.73,-261.19 1777,-243 1772.81,-237.82 1772.97,-233.31 1777,-228 1779.35,-224.9 1815.49,-214.97 1848.31,-206.48"/>
<polygon fill="black" stroke="black" points="1893.58,-277.03 1899.99,-273.72 1905.51,-278.37 1899.1,-281.67 1893.58,-277.03"/>
<text text-anchor="middle" x="1834" y="-231.8" font-family="Times,serif" font-size="14.00">&lt;containment&gt;</text>
</g>
<!-- rover.fxns.communicate -->
<g id="node35" class="node">
<title>rover.fxns.communicate</title>
<polygon fill="lightgrey" stroke="grey" stroke-width="2" points="3644,-210 3532,-210 3532,-174 3644,-174 3644,-210"/>
<text text-anchor="middle" x="3588" y="-188.3" font-family="Times,serif" font-size="14.00">communicate</text>
</g>
<!-- rover&#45;&gt;rover.fxns.communicate -->
<g id="edge11" class="edge">
<title>rover-&gt;rover.fxns.communicate</title>
<path fill="none" stroke="black" d="M2033.42,-279.29C2162.82,-272.26 2452.27,-256.5 2696,-243 3012.12,-225.49 3391.24,-204.11 3531.9,-196.17"/>
<polygon fill="black" stroke="black" points="2033.39,-279.29 2027.61,-283.61 2021.41,-279.94 2027.18,-275.62 2033.39,-279.29"/>
<text text-anchor="middle" x="2998" y="-231.8" font-family="Times,serif" font-size="14.00">&lt;containment&gt;</text>
</g>
<!-- rover.flows.ground.s -->
<g id="node8" class="node">
<title>rover.flows.ground.s</title>
<polygon fill="lightgrey" stroke="grey" points="2273,-36 2231,-36 2231,-40 2219,-40 2219,0 2273,0 2273,-36"/>
<polyline fill="none" stroke="grey" points="2219,-36 2231,-36 "/>
<text text-anchor="middle" x="2246" y="-14.3" font-family="Times,serif" font-size="14.00">s</text>
</g>
<!-- rover.flows.ground&#45;&gt;rover.flows.ground.s -->
<g id="edge15" class="edge">
<title>rover.flows.ground-&gt;rover.flows.ground.s</title>
<path fill="none" stroke="black" d="M2246,-74.74C2246,-61.88 2246,-47.23 2246,-36.18"/>
<polygon fill="black" stroke="black" points="2246,-74.8 2250,-80.8 2246,-86.8 2242,-80.8 2246,-74.8"/>
<text text-anchor="middle" x="2303" y="-57.8" font-family="Times,serif" font-size="14.00">&lt;containment&gt;</text>
</g>
<!-- rover.flows.force.s -->
<g id="node9" class="node">
<title>rover.flows.force.s</title>
<polygon fill="lightgrey" stroke="grey" points="1777,-36 1735,-36 1735,-40 1723,-40 1723,0 1777,0 1777,-36"/>
<polyline fill="none" stroke="grey" points="1723,-36 1735,-36 "/>
<text text-anchor="middle" x="1750" y="-14.3" font-family="Times,serif" font-size="14.00">s</text>
</g>
<!-- rover.flows.force&#45;&gt;rover.flows.force.s -->
<g id="edge16" class="edge">
<title>rover.flows.force-&gt;rover.flows.force.s</title>
<path fill="none" stroke="black" d="M1749.34,-74.74C1749.5,-61.88 1749.67,-47.23 1749.8,-36.18"/>
<polygon fill="black" stroke="black" points="1749.34,-74.8 1753.27,-80.85 1749.2,-86.8 1745.27,-80.75 1749.34,-74.8"/>
<text text-anchor="middle" x="1807" y="-57.8" font-family="Times,serif" font-size="14.00">&lt;containment&gt;</text>
</g>
<!-- rover.flows.ee.s -->
<g id="node10" class="node">
<title>rover.flows.ee.s</title>
<polygon fill="lightgrey" stroke="grey" points="2529,-36 2487,-36 2487,-40 2475,-40 2475,0 2529,0 2529,-36"/>
<polyline fill="none" stroke="grey" points="2475,-36 2487,-36 "/>
<text text-anchor="middle" x="2502" y="-14.3" font-family="Times,serif" font-size="14.00">s</text>
</g>
<!-- rover.flows.ee&#45;&gt;rover.flows.ee.s -->
<g id="edge17" class="edge">
<title>rover.flows.ee-&gt;rover.flows.ee.s</title>
<path fill="none" stroke="black" d="M2502,-74.74C2502,-61.88 2502,-47.23 2502,-36.18"/>
<polygon fill="black" stroke="black" points="2502,-74.8 2506,-80.8 2502,-86.8 2498,-80.8 2502,-74.8"/>
<text text-anchor="middle" x="2559" y="-57.8" font-family="Times,serif" font-size="14.00">&lt;containment&gt;</text>
</g>
<!-- rover.flows.video.s -->
<g id="node11" class="node">
<title>rover.flows.video.s</title>
<polygon fill="lightgrey" stroke="grey" points="1640,-36 1598,-36 1598,-40 1586,-40 1586,0 1640,0 1640,-36"/>
<polyline fill="none" stroke="grey" points="1586,-36 1598,-36 "/>
<text text-anchor="middle" x="1613" y="-14.3" font-family="Times,serif" font-size="14.00">s</text>
</g>
<!-- rover.flows.video&#45;&gt;rover.flows.video.s -->
<g id="edge18" class="edge">
<title>rover.flows.video-&gt;rover.flows.video.s</title>
<path fill="none" stroke="black" d="M1613.66,-74.74C1613.5,-61.88 1613.33,-47.23 1613.2,-36.18"/>
<polygon fill="black" stroke="black" points="1613.66,-74.8 1617.73,-80.75 1613.8,-86.8 1609.73,-80.85 1613.66,-74.8"/>
<text text-anchor="middle" x="1671" y="-57.8" font-family="Times,serif" font-size="14.00">&lt;containment&gt;</text>
</g>
<!-- rover.flows.control.s -->
<g id="node12" class="node">
<title>rover.flows.control.s</title>
<polygon fill="lightgrey" stroke="grey" points="710,-36 668,-36 668,-40 656,-40 656,0 710,0 710,-36"/>
<polyline fill="none" stroke="grey" points="656,-36 668,-36 "/>
<text text-anchor="middle" x="683" y="-14.3" font-family="Times,serif" font-size="14.00">s</text>
</g>
<!-- rover.flows.control&#45;&gt;rover.flows.control.s -->
<g id="edge19" class="edge">
<title>rover.flows.control-&gt;rover.flows.control.s</title>
<path fill="none" stroke="black" d="M683,-74.74C683,-61.88 683,-47.23 683,-36.18"/>
<polygon fill="black" stroke="black" points="683,-74.8 687,-80.8 683,-86.8 679,-80.8 683,-74.8"/>
<text text-anchor="middle" x="740" y="-57.8" font-family="Times,serif" font-size="14.00">&lt;containment&gt;</text>
</g>
<!-- rover.fxns.control_rover.m -->
<g id="node13" class="node">
<title>rover.fxns.control_rover.m</title>
<polygon fill="lightgrey" stroke="grey" points="237,-123 195,-123 195,-127 183,-127 183,-87 237,-87 237,-123"/>
<polyline fill="none" stroke="grey" points="183,-123 195,-123 "/>
<text text-anchor="middle" x="210" y="-101.3" font-family="Times,serif" font-size="14.00">m</text>
</g>
<!-- rover.fxns.control_rover.sp -->
<g id="node14" class="node">
<title>rover.fxns.control_rover.sp</title>
<polygon fill="lightgrey" stroke="grey" points="374,-123 332,-123 332,-127 320,-127 320,-87 374,-87 374,-123"/>
<polyline fill="none" stroke="grey" points="320,-123 332,-123 "/>
<text text-anchor="middle" x="347" y="-101.3" font-family="Times,serif" font-size="14.00">sp</text>
</g>
<!-- rover.fxns.control_rover.t -->
<g id="node15" class="node">
<title>rover.fxns.control_rover.t</title>
<polygon fill="lightgrey" stroke="grey" points="511,-123 469,-123 469,-127 457,-127 457,-87 511,-87 511,-123"/>
<polyline fill="none" stroke="grey" points="457,-123 469,-123 "/>
<text text-anchor="middle" x="484" y="-101.3" font-family="Times,serif" font-size="14.00">t</text>
</g>
<!-- rover.fxns.store_energy.m -->
<g id="node16" class="node">
<title>rover.fxns.store_energy.m</title>
<polygon fill="lightgrey" stroke="grey" points="964,-123 922,-123 922,-127 910,-127 910,-87 964,-87 964,-123"/>
<polyline fill="none" stroke="grey" points="910,-123 922,-123 "/>
<text text-anchor="middle" x="937" y="-101.3" font-family="Times,serif" font-size="14.00">m</text>
</g>
<!-- rover.fxns.store_energy.s -->
<g id="node17" class="node">
<title>rover.fxns.store_energy.s</title>
<polygon fill="lightgrey" stroke="grey" points="1101,-123 1059,-123 1059,-127 1047,-127 1047,-87 1101,-87 1101,-123"/>
<polyline fill="none" stroke="grey" points="1047,-123 1059,-123 "/>
<text text-anchor="middle" x="1074" y="-101.3" font-family="Times,serif" font-size="14.00">s</text>
</g>
<!-- rover.fxns.store_energy.sp -->
<g id="node18" class="node">
<title>rover.fxns.store_energy.sp</title>
<polygon fill="lightgrey" stroke="grey" points="1238,-123 1196,-123 1196,-127 1184,-127 1184,-87 1238,-87 1238,-123"/>
<polyline fill="none" stroke="grey" points="1184,-123 1196,-123 "/>
<text text-anchor="middle" x="1211" y="-101.3" font-family="Times,serif" font-size="14.00">sp</text>
</g>
<!-- rover.fxns.store_energy.t -->
<g id="node19" class="node">
<title>rover.fxns.store_energy.t</title>
<polygon fill="lightgrey" stroke="grey" points="1375,-123 1333,-123 1333,-127 1321,-127 1321,-87 1375,-87 1375,-123"/>
<polyline fill="none" stroke="grey" points="1321,-123 1333,-123 "/>
<text text-anchor="middle" x="1348" y="-101.3" font-family="Times,serif" font-size="14.00">t</text>
</g>
<!-- rover.fxns.move_rover.m -->
<g id="node20" class="node">
<title>rover.fxns.move_rover.m</title>
<polygon fill="lightgrey" stroke="grey" points="3127,-123 3085,-123 3085,-127 3073,-127 3073,-87 3127,-87 3127,-123"/>
<polyline fill="none" stroke="grey" points="3073,-123 3085,-123 "/>
<text text-anchor="middle" x="3100" y="-101.3" font-family="Times,serif" font-size="14.00">m</text>
</g>
<!-- rover.fxns.move_rover.s -->
<g id="node21" class="node">
<title>rover.fxns.move_rover.s</title>
<polygon fill="lightgrey" stroke="grey" points="3264,-123 3222,-123 3222,-127 3210,-127 3210,-87 3264,-87 3264,-123"/>
<polyline fill="none" stroke="grey" points="3210,-123 3222,-123 "/>
<text text-anchor="middle" x="3237" y="-101.3" font-family="Times,serif" font-size="14.00">s</text>
</g>
<!-- rover.fxns.move_rover.sp -->
<g id="node22" class="node">
<title>rover.fxns.move_rover.sp</title>
<polygon fill="lightgrey" stroke="grey" points="3401,-123 3359,-123 3359,-127 3347,-127 3347,-87 3401,-87 3401,-123"/>
<polyline fill="none" stroke="grey" points="3347,-123 3359,-123 "/>
<text text-anchor="middle" x="3374" y="-101.3" font-family="Times,serif" font-size="14.00">sp</text>
</g>
<!-- rover.fxns.move_rover.t -->
<g id="node23" class="node">
<title>rover.fxns.move_rover.t</title>
<polygon fill="lightgrey" stroke="grey" points="2716,-123 2674,-123 2674,-127 2662,-127 2662,-87 2716,-87 2716,-123"/>
<polyline fill="none" stroke="grey" points="2662,-123 2674,-123 "/>
<text text-anchor="middle" x="2689" y="-101.3" font-family="Times,serif" font-size="14.00">t</text>
</g>
<!-- rover.fxns.view_ground.sp -->
<g id="node24" class="node">
<title>rover.fxns.view_ground.sp</title>
<polygon fill="lightgrey" stroke="grey" points="1930,-123 1888,-123 1888,-127 1876,-127 1876,-87 1930,-87 1930,-123"/>
<polyline fill="none" stroke="grey" points="1876,-123 1888,-123 "/>
<text text-anchor="middle" x="1903" y="-101.3" font-family="Times,serif" font-size="14.00">sp</text>
</g>
<!-- rover.fxns.view_ground.t -->
<g id="node25" class="node">
<title>rover.fxns.view_ground.t</title>
<polygon fill="lightgrey" stroke="grey" points="2067,-123 2025,-123 2025,-127 2013,-127 2013,-87 2067,-87 2067,-123"/>
<polyline fill="none" stroke="grey" points="2013,-123 2025,-123 "/>
<text text-anchor="middle" x="2040" y="-101.3" font-family="Times,serif" font-size="14.00">t</text>
</g>
<!-- rover.fxns.communicate.sp -->
<g id="node26" class="node">
<title>rover.fxns.communicate.sp</title>
<polygon fill="lightgrey" stroke="grey" points="3615,-123 3573,-123 3573,-127 3561,-127 3561,-87 3615,-87 3615,-123"/>
<polyline fill="none" stroke="grey" points="3561,-123 3573,-123 "/>
<text text-anchor="middle" x="3588" y="-101.3" font-family="Times,serif" font-size="14.00">sp</text>
</g>
<!-- rover.fxns.communicate.t -->
<g id="node27" class="node">
<title>rover.fxns.communicate.t</title>
<polygon fill="lightgrey" stroke="grey" points="3752,-123 3710,-123 3710,-127 3698,-127 3698,-87 3752,-87 3752,-123"/>
<polyline fill="none" stroke="grey" points="3698,-123 3710,-123 "/>
<text text-anchor="middle" x="3725" y="-101.3" font-family="Times,serif" font-size="14.00">t</text>
</g>
<!-- rover.fxns.control_rover&#45;&gt;rover.flows.control -->
<g id="edge40" class="edge">
<title>rover.fxns.control_rover-&gt;rover.flows.control</title>
<path fill="none" stroke="black" d="M468.17,-183.67C504.97,-178.42 550.76,-169.78 590,-156 603.75,-151.17 636.3,-133.05 658.98,-120.02"/>
<polygon fill="none" stroke="black" points="467.94,-183.7 462.54,-188.47 456.05,-185.32 461.46,-180.55 467.94,-183.7"/>
<text text-anchor="middle" x="647" y="-144.8" font-family="Times,serif" font-size="14.00">&lt;flow&gt;</text>
</g>
<!-- rover.fxns.control_rover&#45;&gt;rover.fxns.control_rover.m -->
<g id="edge20" class="edge">
<title>rover.fxns.control_rover-&gt;rover.fxns.control_rover.m</title>
<path fill="none" stroke="black" d="M331.5,-184.36C289.8,-178.98 241.62,-169.98 226,-156 216.76,-147.74 212.82,-134.14 211.16,-123.21"/>
<polygon fill="black" stroke="black" points="331.72,-184.38 338.16,-181.14 343.63,-185.84 337.18,-189.08 331.72,-184.38"/>
<text text-anchor="middle" x="283" y="-144.8" font-family="Times,serif" font-size="14.00">&lt;containment&gt;</text>
</g>
<!-- rover.fxns.control_rover&#45;&gt;rover.fxns.control_rover.sp -->
<g id="edge21" class="edge">
<title>rover.fxns.control_rover-&gt;rover.fxns.control_rover.sp</title>
<path fill="none" stroke="black" d="M355.56,-166.14C352.61,-163.07 350.01,-159.69 348,-156 342.6,-146.09 342.42,-133.35 343.56,-123.21"/>
<polygon fill="black" stroke="black" points="355.56,-166.15 362.71,-167.05 364.63,-174 357.48,-173.1 355.56,-166.15"/>
<text text-anchor="middle" x="405" y="-144.8" font-family="Times,serif" font-size="14.00">&lt;containment&gt;</text>
</g>
<!-- rover.fxns.control_rover&#45;&gt;rover.fxns.control_rover.t -->
<g id="edge22" class="edge">
<title>rover.fxns.control_rover-&gt;rover.fxns.control_rover.t</title>
<path fill="none" stroke="black" d="M449.47,-167.16C454.02,-163.8 458.31,-160.08 462,-156 470.4,-146.72 475.99,-133.72 479.43,-123.3"/>
<polygon fill="black" stroke="black" points="449.2,-167.34 446.39,-173.98 439.18,-173.94 441.99,-167.3 449.2,-167.34"/>
<text text-anchor="middle" x="529" y="-144.8" font-family="Times,serif" font-size="14.00">&lt;containment&gt;</text>
</g>
<!-- rover.fxns.control_rover.dynamic_behavior -->
<g id="node36" class="node">
<title>rover.fxns.control_rover.dynamic_behavior</title>
<polygon fill="lightgrey" stroke="grey" points="146,-123 0,-123 0,-119 -4,-119 -4,-115 0,-115 0,-95 -4,-95 -4,-91 0,-91 0,-87 146,-87 146,-123"/>
<polyline fill="none" stroke="grey" points="0,-119 4,-119 4,-115 0,-115 "/>
<polyline fill="none" stroke="grey" points="0,-95 4,-95 4,-91 0,-91 "/>
<text text-anchor="middle" x="73" y="-101.3" font-family="Times,serif" font-size="14.00">dynamic_behavior</text>
</g>
<!-- rover.fxns.control_rover&#45;&gt;rover.fxns.control_rover.dynamic_behavior -->
<g id="edge23" class="edge">
<title>rover.fxns.control_rover-&gt;rover.fxns.control_rover.dynamic_behavior</title>
<path fill="none" stroke="black" d="M331.49,-190.35C254.51,-188.37 135.52,-181.17 99,-156 87.88,-148.34 81.2,-134.41 77.39,-123.19"/>
<polygon fill="black" stroke="black" points="331.94,-190.36 338.03,-186.5 343.93,-190.63 337.84,-194.5 331.94,-190.36"/>
<text text-anchor="middle" x="156" y="-144.8" font-family="Times,serif" font-size="14.00">&lt;containment&gt;</text>
</g>
<!-- rover.fxns.store_energy&#45;&gt;rover.flows.ee -->
<g id="edge42" class="edge">
<title>rover.fxns.store_energy-&gt;rover.flows.ee</title>
<path fill="none" stroke="black" d="M1278.16,-187.01C1345.4,-183.15 1451.83,-177.4 1544,-174 1587.87,-172.38 2292.69,-170.87 2334,-156 2344.12,-152.36 2343.31,-145.67 2353,-141 2393.21,-121.6 2444.81,-112.59 2475.54,-108.69"/>
<polygon fill="none" stroke="black" points="1278.05,-187.02 1272.29,-191.36 1266.07,-187.71 1271.83,-183.37 1278.05,-187.02"/>
<text text-anchor="middle" x="2380" y="-144.8" font-family="Times,serif" font-size="14.00">&lt;flow&gt;</text>
</g>
<!-- rover.fxns.store_energy&#45;&gt;rover.flows.control -->
<g id="edge41" class="edge">
<title>rover.fxns.store_energy-&gt;rover.flows.control</title>
<path fill="none" stroke="black" d="M1143.68,-189.66C1036.41,-186.86 831.78,-178.66 763,-156 740.13,-148.47 717.15,-133.1 701.72,-121.38"/>
<polygon fill="none" stroke="black" points="1143.95,-189.66 1150.05,-185.82 1155.95,-189.96 1149.85,-193.81 1143.95,-189.66"/>
<text text-anchor="middle" x="790" y="-144.8" font-family="Times,serif" font-size="14.00">&lt;flow&gt;</text>
</g>
<!-- rover.fxns.store_energy&#45;&gt;rover.fxns.store_energy.m -->
<g id="edge24" class="edge">
<title>rover.fxns.store_energy-&gt;rover.fxns.store_energy.m</title>
<path fill="none" stroke="black" d="M1143.61,-188.06C1080.97,-184.16 993.23,-175.35 965,-156 953.67,-148.24 946.42,-134.32 942.14,-123.13"/>
<polygon fill="black" stroke="black" points="1143.79,-188.07 1150.02,-184.43 1155.77,-188.78 1149.55,-192.42 1143.79,-188.07"/>
<text text-anchor="middle" x="1022" y="-144.8" font-family="Times,serif" font-size="14.00">&lt;containment&gt;</text>
</g>
<!-- rover.fxns.store_energy&#45;&gt;rover.fxns.store_energy.s -->
<g id="edge25" class="edge">
<title>rover.fxns.store_energy-&gt;rover.fxns.store_energy.s</title>
<path fill="none" stroke="black" d="M1144.18,-182.41C1125.8,-177.26 1107.07,-169.06 1093,-156 1083.88,-147.54 1079.1,-134.23 1076.62,-123.48"/>
<polygon fill="black" stroke="black" points="1144.2,-182.41 1150.99,-179.98 1155.85,-185.3 1149.06,-187.74 1144.2,-182.41"/>
<text text-anchor="middle" x="1150" y="-144.8" font-family="Times,serif" font-size="14.00">&lt;containment&gt;</text>
</g>
<!-- rover.fxns.store_energy&#45;&gt;rover.fxns.store_energy.sp -->
<g id="edge26" class="edge">
<title>rover.fxns.store_energy-&gt;rover.fxns.store_energy.sp</title>
<path fill="none" stroke="black" d="M1211,-161.74C1211,-148.88 1211,-134.23 1211,-123.18"/>
<polygon fill="black" stroke="black" points="1211,-161.8 1215,-167.8 1211,-173.8 1207,-167.8 1211,-161.8"/>
<text text-anchor="middle" x="1268" y="-144.8" font-family="Times,serif" font-size="14.00">&lt;containment&gt;</text>
</g>
<!-- rover.fxns.store_energy&#45;&gt;rover.fxns.store_energy.t -->
<g id="edge27" class="edge">
<title>rover.fxns.store_energy-&gt;rover.fxns.store_energy.t</title>
<path fill="none" stroke="black" d="M1277.95,-180.98C1295.14,-175.8 1312.56,-167.93 1326,-156 1335.65,-147.44 1341.25,-133.86 1344.39,-123.02"/>
<polygon fill="black" stroke="black" points="1277.73,-181.04 1272.97,-186.46 1266.14,-184.16 1270.89,-178.74 1277.73,-181.04"/>
<text text-anchor="middle" x="1394" y="-144.8" font-family="Times,serif" font-size="14.00">&lt;containment&gt;</text>
</g>
<!-- rover.fxns.store_energy.dynamic_behavior -->
<g id="node37" class="node">
<title>rover.fxns.store_energy.dynamic_behavior</title>
<polygon fill="lightgrey" stroke="grey" points="1558,-123 1412,-123 1412,-119 1408,-119 1408,-115 1412,-115 1412,-95 1408,-95 1408,-91 1412,-91 1412,-87 1558,-87 1558,-123"/>
<polyline fill="none" stroke="grey" points="1412,-119 1416,-119 1416,-115 1412,-115 "/>
<polyline fill="none" stroke="grey" points="1412,-95 1416,-95 1416,-91 1412,-91 "/>
<text text-anchor="middle" x="1485" y="-101.3" font-family="Times,serif" font-size="14.00">dynamic_behavior</text>
</g>
<!-- rover.fxns.store_energy&#45;&gt;rover.fxns.store_energy.dynamic_behavior -->
<g id="edge28" class="edge">
<title>rover.fxns.store_energy-&gt;rover.fxns.store_energy.dynamic_behavior</title>
<path fill="none" stroke="black" d="M1278.28,-187.78C1340.27,-183.68 1426.8,-174.73 1455,-156 1466.64,-148.27 1474.44,-134.34 1479.17,-123.15"/>
<polygon fill="black" stroke="black" points="1278.2,-187.78 1272.47,-192.15 1266.23,-188.54 1271.97,-184.17 1278.2,-187.78"/>
<text text-anchor="middle" x="1527" y="-144.8" font-family="Times,serif" font-size="14.00">&lt;containment&gt;</text>
</g>
<!-- rover.fxns.store_energy.static_behavior -->
<g id="node38" class="node">
<title>rover.fxns.store_energy.static_behavior</title>
<polygon fill="lightgrey" stroke="grey" points="869.5,-123 744.5,-123 744.5,-119 740.5,-119 740.5,-115 744.5,-115 744.5,-95 740.5,-95 740.5,-91 744.5,-91 744.5,-87 869.5,-87 869.5,-123"/>
<polyline fill="none" stroke="grey" points="744.5,-119 748.5,-119 748.5,-115 744.5,-115 "/>
<polyline fill="none" stroke="grey" points="744.5,-95 748.5,-95 748.5,-91 744.5,-91 "/>
<text text-anchor="middle" x="807" y="-101.3" font-family="Times,serif" font-size="14.00">static_behavior</text>
</g>
<!-- rover.fxns.store_energy&#45;&gt;rover.fxns.store_energy.static_behavior -->
<g id="edge29" class="edge">
<title>rover.fxns.store_energy-&gt;rover.fxns.store_energy.static_behavior</title>
<path fill="none" stroke="black" d="M1143.62,-188.18C1042.13,-183.41 859.17,-172.64 834,-156 822.64,-148.49 815.68,-134.55 811.68,-123.29"/>
<polygon fill="black" stroke="black" points="1143.89,-188.19 1150.07,-184.47 1155.88,-188.74 1149.7,-192.46 1143.89,-188.19"/>
<text text-anchor="middle" x="891" y="-144.8" font-family="Times,serif" font-size="14.00">&lt;containment&gt;</text>
</g>
<!-- rover.fxns.move_rover&#45;&gt;rover.flows.ground -->
<g id="edge46" class="edge">
<title>rover.fxns.move_rover-&gt;rover.flows.ground</title>
<path fill="none" stroke="black" d="M2627.01,-175.6C2624.64,-175.05 2622.3,-174.52 2620,-174 2581.06,-165.22 2570.41,-166.89 2532,-156 2513.33,-150.71 2509.82,-145.73 2491,-141 2421.41,-123.5 2338.35,-113.94 2289.01,-109.41"/>
<polygon fill="none" stroke="black" points="2627.25,-175.66 2634.01,-173.15 2638.93,-178.42 2632.17,-180.93 2627.25,-175.66"/>
<text text-anchor="middle" x="2559" y="-144.8" font-family="Times,serif" font-size="14.00">&lt;flow&gt;</text>
</g>
<!-- rover.fxns.move_rover&#45;&gt;rover.flows.force -->
<g id="edge45" class="edge">
<title>rover.fxns.move_rover-&gt;rover.flows.force</title>
<path fill="none" stroke="black" d="M2626.66,-175.08C2624.42,-174.69 2622.19,-174.33 2620,-174 2470.31,-151.8 2428.77,-183.69 2280,-156 2258.86,-152.06 2255.15,-144.89 2234,-141 2073.39,-111.42 2029.55,-138.66 1867,-123 1837.85,-120.19 1804.87,-115.29 1781.21,-111.47"/>
<polygon fill="none" stroke="black" points="2626.95,-175.14 2633.6,-172.37 2638.72,-177.45 2632.06,-180.22 2626.95,-175.14"/>
<text text-anchor="middle" x="2307" y="-144.8" font-family="Times,serif" font-size="14.00">&lt;flow&gt;</text>
</g>
<!-- rover.fxns.move_rover&#45;&gt;rover.flows.ee -->
<g id="edge44" class="edge">
<title>rover.fxns.move_rover-&gt;rover.flows.ee</title>
<path fill="none" stroke="black" d="M2645.94,-168.2C2628.71,-159.36 2608.58,-149.37 2590,-141 2568.26,-131.21 2542.92,-121.28 2525.03,-114.51"/>
<polygon fill="none" stroke="black" points="2646.14,-168.31 2653.31,-167.51 2656.8,-173.82 2649.64,-174.62 2646.14,-168.31"/>
<text text-anchor="middle" x="2647" y="-144.8" font-family="Times,serif" font-size="14.00">&lt;flow&gt;</text>
</g>
<!-- rover.fxns.move_rover&#45;&gt;rover.flows.control -->
<g id="edge43" class="edge">
<title>rover.fxns.move_rover-&gt;rover.flows.control</title>
<path fill="none" stroke="black" d="M2626.67,-175C2624.43,-174.63 2622.2,-174.29 2620,-174 2449.24,-151.26 2014.27,-188.02 1845,-156 1825.93,-152.39 1823.08,-144.55 1804,-141 1570.41,-97.58 969.31,-162.35 735,-123 728.07,-121.84 720.8,-119.92 713.97,-117.79"/>
<polygon fill="none" stroke="black" points="2626.95,-175.05 2633.59,-172.23 2638.75,-177.27 2632.11,-180.09 2626.95,-175.05"/>
<text text-anchor="middle" x="1872" y="-144.8" font-family="Times,serif" font-size="14.00">&lt;flow&gt;</text>
</g>
<!-- rover.fxns.move_rover&#45;&gt;rover.fxns.move_rover.m -->
<g id="edge30" class="edge">
<title>rover.fxns.move_rover-&gt;rover.fxns.move_rover.m</title>
<path fill="none" stroke="black" d="M2751.31,-191.44C2844.11,-191.05 3013.26,-186.07 3065,-156 3077.64,-148.65 3086.83,-134.7 3092.6,-123.39"/>
<polygon fill="black" stroke="black" points="2751.29,-191.44 2745.3,-195.45 2739.29,-191.46 2745.28,-187.45 2751.29,-191.44"/>
<text text-anchor="middle" x="3137" y="-144.8" font-family="Times,serif" font-size="14.00">&lt;containment&gt;</text>
</g>
<!-- rover.fxns.move_rover&#45;&gt;rover.fxns.move_rover.s -->
<g id="edge31" class="edge">
<title>rover.fxns.move_rover-&gt;rover.fxns.move_rover.s</title>
<path fill="none" stroke="black" d="M2751.62,-189.54C2878.99,-186.16 3159.49,-176.47 3198,-156 3211.61,-148.77 3222,-134.49 3228.62,-123.04"/>
<polygon fill="black" stroke="black" points="2751.42,-189.54 2745.52,-193.7 2739.42,-189.86 2745.31,-185.7 2751.42,-189.54"/>
<text text-anchor="middle" x="3272" y="-144.8" font-family="Times,serif" font-size="14.00">&lt;containment&gt;</text>
</g>
<!-- rover.fxns.move_rover&#45;&gt;rover.fxns.move_rover.sp -->
<g id="edge32" class="edge">
<title>rover.fxns.move_rover-&gt;rover.fxns.move_rover.sp</title>
<path fill="none" stroke="black" d="M2751.31,-190.45C2902.86,-188.72 3282.03,-181.84 3333,-156 3347.02,-148.89 3357.97,-134.61 3365.01,-123.12"/>
<polygon fill="black" stroke="black" points="2751.08,-190.46 2745.13,-194.52 2739.08,-190.59 2745.04,-186.52 2751.08,-190.46"/>
<text text-anchor="middle" x="3407" y="-144.8" font-family="Times,serif" font-size="14.00">&lt;containment&gt;</text>
</g>
<!-- rover.fxns.move_rover&#45;&gt;rover.fxns.move_rover.t -->
<g id="edge33" class="edge">
<title>rover.fxns.move_rover-&gt;rover.fxns.move_rover.t</title>
<path fill="none" stroke="black" d="M2689,-161.74C2689,-148.88 2689,-134.23 2689,-123.18"/>
<polygon fill="black" stroke="black" points="2689,-161.8 2693,-167.8 2689,-173.8 2685,-167.8 2689,-161.8"/>
<text text-anchor="middle" x="2746" y="-144.8" font-family="Times,serif" font-size="14.00">&lt;containment&gt;</text>
</g>
<!-- rover.fxns.move_rover.dynamic_behavior -->
<g id="node39" class="node">
<title>rover.fxns.move_rover.dynamic_behavior</title>
<polygon fill="lightgrey" stroke="grey" points="2891,-123 2745,-123 2745,-119 2741,-119 2741,-115 2745,-115 2745,-95 2741,-95 2741,-91 2745,-91 2745,-87 2891,-87 2891,-123"/>
<polyline fill="none" stroke="grey" points="2745,-119 2749,-119 2749,-115 2745,-115 "/>
<polyline fill="none" stroke="grey" points="2745,-95 2749,-95 2749,-91 2745,-91 "/>
<text text-anchor="middle" x="2818" y="-101.3" font-family="Times,serif" font-size="14.00">dynamic_behavior</text>
</g>
<!-- rover.fxns.move_rover&#45;&gt;rover.fxns.move_rover.dynamic_behavior -->
<g id="edge34" class="edge">
<title>rover.fxns.move_rover-&gt;rover.fxns.move_rover.dynamic_behavior</title>
<path fill="none" stroke="black" d="M2750.91,-183.94C2770.12,-178.91 2789.92,-170.4 2804,-156 2812.45,-147.36 2815.88,-134.07 2817.25,-123.36"/>
<polygon fill="black" stroke="black" points="2750.79,-183.96 2745.83,-189.2 2739.09,-186.63 2744.05,-181.4 2750.79,-183.96"/>
<text text-anchor="middle" x="2869" y="-144.8" font-family="Times,serif" font-size="14.00">&lt;containment&gt;</text>
</g>
<!-- rover.fxns.move_rover.static_behavior -->
<g id="node40" class="node">
<title>rover.fxns.move_rover.static_behavior</title>
<polygon fill="lightgrey" stroke="grey" points="3034.5,-123 2909.5,-123 2909.5,-119 2905.5,-119 2905.5,-115 2909.5,-115 2909.5,-95 2905.5,-95 2905.5,-91 2909.5,-91 2909.5,-87 3034.5,-87 3034.5,-123"/>
<polyline fill="none" stroke="grey" points="2909.5,-119 2913.5,-119 2913.5,-115 2909.5,-115 "/>
<polyline fill="none" stroke="grey" points="2909.5,-95 2913.5,-95 2913.5,-91 2909.5,-91 "/>
<text text-anchor="middle" x="2972" y="-101.3" font-family="Times,serif" font-size="14.00">static_behavior</text>
</g>
<!-- rover.fxns.move_rover&#45;&gt;rover.fxns.move_rover.static_behavior -->
<g id="edge35" class="edge">
<title>rover.fxns.move_rover-&gt;rover.fxns.move_rover.static_behavior</title>
<path fill="none" stroke="black" d="M2751.22,-186.99C2812.19,-182.18 2900.2,-172.6 2930,-156 2943.67,-148.39 2954.8,-134.45 2962.17,-123.22"/>
<polygon fill="black" stroke="black" points="2750.99,-187.01 2745.31,-191.45 2739.02,-187.92 2744.7,-183.48 2750.99,-187.01"/>
<text text-anchor="middle" x="3004" y="-144.8" font-family="Times,serif" font-size="14.00">&lt;containment&gt;</text>
</g>
<!-- rover.fxns.view_ground&#45;&gt;rover.flows.ground -->
<g id="edge49" class="edge">
<title>rover.fxns.view_ground-&gt;rover.flows.ground</title>
<path fill="none" stroke="black" d="M1967.94,-173.76C2047.32,-161.08 2072.61,-177.64 2147,-156 2150.86,-154.88 2191.81,-133.94 2219.82,-119.52"/>
<polygon fill="none" stroke="black" points="1967.65,-173.81 1962.42,-178.77 1955.82,-175.85 1961.06,-170.89 1967.65,-173.81"/>
<text text-anchor="middle" x="2203" y="-144.8" font-family="Times,serif" font-size="14.00">&lt;flow&gt;</text>
</g>
<!-- rover.fxns.view_ground&#45;&gt;rover.flows.force -->
<g id="edge48" class="edge">
<title>rover.fxns.view_ground-&gt;rover.flows.force</title>
<path fill="none" stroke="black" d="M1836.18,-174.51C1835.45,-174.34 1834.72,-174.17 1834,-174 1796.81,-165.37 1774.3,-185.45 1750,-156 1742.6,-147.03 1742.67,-133.75 1744.42,-123.13"/>
<polygon fill="none" stroke="black" points="1836.55,-174.59 1843.31,-172.09 1848.22,-177.38 1841.46,-179.88 1836.55,-174.59"/>
<text text-anchor="middle" x="1777" y="-144.8" font-family="Times,serif" font-size="14.00">&lt;flow&gt;</text>
</g>
<!-- rover.fxns.view_ground&#45;&gt;rover.flows.ee -->
<g id="edge47" class="edge">
<title>rover.fxns.view_ground-&gt;rover.flows.ee</title>
<path fill="none" stroke="black" d="M1967.97,-174C2081.16,-160.88 2319.92,-185.09 2411,-156 2422.63,-152.29 2423.45,-147.13 2434,-141 2449.27,-132.12 2467.02,-123.02 2480.56,-116.33"/>
<polygon fill="none" stroke="black" points="1967.68,-174.04 1962.27,-178.8 1955.79,-175.64 1961.2,-170.88 1967.68,-174.04"/>
<text text-anchor="middle" x="2461" y="-144.8" font-family="Times,serif" font-size="14.00">&lt;flow&gt;</text>
</g>
<!-- rover.fxns.view_ground&#45;&gt;rover.flows.video -->
<g id="edge50" class="edge">
<title>rover.fxns.view_ground-&gt;rover.flows.video</title>
<path fill="none" stroke="black" d="M1836.2,-174.41C1835.46,-174.27 1834.73,-174.13 1834,-174 1768.84,-161.94 1747.92,-179.59 1686,-156 1665.09,-148.04 1644.46,-132.73 1630.67,-121.14"/>
<polygon fill="none" stroke="black" points="1836.56,-174.49 1843.25,-171.79 1848.31,-176.93 1841.63,-179.62 1836.56,-174.49"/>
<text text-anchor="middle" x="1713" y="-144.8" font-family="Times,serif" font-size="14.00">&lt;flow&gt;</text>
</g>
<!-- rover.fxns.view_ground&#45;&gt;rover.fxns.view_ground.sp -->
<g id="edge36" class="edge">
<title>rover.fxns.view_ground-&gt;rover.fxns.view_ground.sp</title>
<path fill="none" stroke="black" d="M1902.34,-161.74C1902.5,-148.88 1902.67,-134.23 1902.8,-123.18"/>
<polygon fill="black" stroke="black" points="1902.34,-161.8 1906.27,-167.85 1902.2,-173.8 1898.27,-167.75 1902.34,-161.8"/>
<text text-anchor="middle" x="1960" y="-144.8" font-family="Times,serif" font-size="14.00">&lt;containment&gt;</text>
</g>
<!-- rover.fxns.view_ground&#45;&gt;rover.fxns.view_ground.t -->
<g id="edge37" class="edge">
<title>rover.fxns.view_ground-&gt;rover.fxns.view_ground.t</title>
<path fill="none" stroke="black" d="M1967.38,-172.48C1992.49,-165.15 2015.75,-157.99 2018,-156 2027.66,-147.45 2033.26,-133.87 2036.4,-123.02"/>
<polygon fill="black" stroke="black" points="1967.31,-172.5 1962.66,-178.01 1955.78,-175.84 1960.43,-170.33 1967.31,-172.5"/>
<text text-anchor="middle" x="2086" y="-144.8" font-family="Times,serif" font-size="14.00">&lt;containment&gt;</text>
</g>
<!-- rover.fxns.communicate&#45;&gt;rover.flows.ee -->
<g id="edge52" class="edge">
<title>rover.fxns.communicate-&gt;rover.flows.ee</title>
<path fill="none" stroke="black" d="M3545.4,-168.68C3523.01,-158.14 3494.73,-146.65 3468,-141 3379.38,-122.26 2743.37,-129.07 2653,-123 2609.04,-120.05 2558.18,-113.71 2528.12,-109.66"/>
<polygon fill="none" stroke="black" points="3545.41,-168.68 3552.55,-167.69 3556.21,-173.91 3549.06,-174.89 3545.41,-168.68"/>
<text text-anchor="middle" x="3542" y="-144.8" font-family="Times,serif" font-size="14.00">&lt;flow&gt;</text>
</g>
<!-- rover.fxns.communicate&#45;&gt;rover.flows.comms -->
<g id="edge51" class="edge">
<title>rover.fxns.communicate-&gt;rover.flows.comms</title>
<path fill="none" stroke="black" d="M3656.19,-190.38C3706.31,-187.76 3775.13,-179.58 3831,-156 3849.76,-148.08 3867.84,-133.41 3880.15,-122"/>
<polygon fill="none" stroke="black" points="3656.18,-190.38 3650.36,-194.64 3644.19,-190.91 3650,-186.65 3656.18,-190.38"/>
<text text-anchor="middle" x="3883" y="-144.8" font-family="Times,serif" font-size="14.00">&lt;flow&gt;</text>
</g>
<!-- rover.fxns.communicate&#45;&gt;rover.fxns.communicate.sp -->
<g id="edge38" class="edge">
<title>rover.fxns.communicate-&gt;rover.fxns.communicate.sp</title>
<path fill="none" stroke="black" d="M3588,-161.74C3588,-148.88 3588,-134.23 3588,-123.18"/>
<polygon fill="black" stroke="black" points="3588,-161.8 3592,-167.8 3588,-173.8 3584,-167.8 3588,-161.8"/>
<text text-anchor="middle" x="3645" y="-144.8" font-family="Times,serif" font-size="14.00">&lt;containment&gt;</text>
</g>
<!-- rover.fxns.communicate&#45;&gt;rover.fxns.communicate.t -->
<g id="edge39" class="edge">
<title>rover.fxns.communicate-&gt;rover.fxns.communicate.t</title>
<path fill="none" stroke="black" d="M3655.68,-180.76C3672.64,-175.57 3689.75,-167.76 3703,-156 3712.65,-147.44 3718.25,-133.86 3721.39,-123.02"/>
<polygon fill="black" stroke="black" points="3655.59,-180.78 3650.86,-186.22 3644.02,-183.94 3648.75,-178.5 3655.59,-180.78"/>
<text text-anchor="middle" x="3770" y="-144.8" font-family="Times,serif" font-size="14.00">&lt;containment&gt;</text>
</g>
</g>
</svg>