<svg xmlns="http://www.w3.org/2000/svg" xmlns:xlink="http://www.w3.org/1999/xlink" width="1054pt" height="705pt" viewBox="0.00 0.00 1053.83 705.44">
<g id="graph0" class="graph" transform="scale(1 1) rotate(0) translate(4 701.44)">
<polygon fill="white" stroke="transparent" points="-4,4 -4,-701.44 1049.83,-701.44 1049.83,4 -4,4"/>
<!-- rover.flows.ground -->
<g id="node1" class="node">
<title>rover.flows.ground</title>
<ellipse fill="orange" stroke="grey" stroke-width="0" cx="535.06" cy="-337.81" rx="106.13" ry="26.74"/>
<text text-anchor="middle" x="535.06" y="-341.61" font-family="Times,serif" font-size="14.00">rover.flows.ground</text>
<text text-anchor="middle" x="535.06" y="-326.61" font-family="Times,serif" font-size="14.00">[]</text>
</g>
<!-- rover.flows.force -->
<g id="node2" class="node">
<title>rover.flows.force</title>
<ellipse fill="lightgrey" stroke="grey" stroke-width="0" cx="922.36" cy="-602.23" rx="95.42" ry="26.74"/>
<text text-anchor="middle" x="922.36" y="-606.03" font-family="Times,serif" font-size="14.00">rover.flows.force</text>
<text text-anchor="middle" x="922.36" y="-591.03" font-family="Times,serif" font-size="14.00">[]</text>
</g>
<!-- rover.flows.ee -->
<g id="node3" class="node">
<title>rover.flows.ee</title>
<ellipse fill="lightgrey" stroke="grey" stroke-width="0" cx="82.02" cy="-562.14" rx="82.05" ry="26.74"/>
<text text-anchor="middle" x="82.02" y="-565.94" font-family="Times,serif" font-size="14.00">rover.flows.ee</text>
<text text-anchor="middle" x="82.02" y="-550.94" font-family="Times,serif" font-size="14.00">[]</text>
</g>
<!-- rover.flows.video -->
<g id="node4" class="node">
<title>rover.flows.video</title>
<ellipse fill="lightgrey" stroke="grey" stroke-width="0" cx="405.35" cy="-42.61" rx="96.75" ry="26.74"/>
<text text-anchor="middle" x="405.35" y="-46.41" font-family="Times,serif" font-size="14.00">rover.flows.video</text>
<text text-anchor="middle" x="405.35" y="-31.41" font-family="Times,serif" font-size="14.00">[]</text>
</g>
<!-- rover.flows.control -->
<g id="node5" class="node">
<title>rover.flows.control</title>
<ellipse fill="lightgrey" stroke="grey" stroke-width="0" cx="682.69" cy="-26.87" rx="105.22" ry="26.74"/>
<text text-anchor="middle" x="682.69" y="-30.67" font-family="Times,serif" font-size="14.00">rover.flows.control</text>
<text text-anchor="middle" x="682.69" y="-15.67" font-family="Times,serif" font-size="14.00">[]</text>
</g>
<!-- rover.flows.comms -->
<g id="node6" class="node">
<title>rover.flows.comms</title>
<ellipse fill="lightgrey" stroke="grey" stroke-width="0" cx="339.06" cy="-670.57" rx="105.22" ry="26.74"/>
<text text-anchor="middle" x="339.06" y="-674.37" font-family="Times,serif" font-size="14.00">rover.flows.comms</text>
<text text-anchor="middle" x="339.06" y="-659.37" font-family="Times,serif" font-size="14.00">[]</text>
</g>
<!-- rover.fxns.control_rover -->
<g id="node7" class="node">
<title>rover.fxns.control_rover</title>
<polygon fill="lightgrey" stroke="grey" stroke-width="2" points="1045.83,-142.64 857.83,-142.64 857.83,-104.64 1045.83,-104.64 1045.83,-142.64"/>
<text text-anchor="middle" x="951.83" y="-127.44" font-family="Times,serif" font-size="14.00">rover.fxns.control_rover</text>
<text text-anchor="middle" x="951.83" y="-112.44" font-family="Times,serif" font-size="14.00">[]</text>
</g>
<!-- rover.fxns.control_rover&#45;&gt;rover.flows.control -->
<g id="edge1" class="edge">
<title>rover.fxns.control_rover-&gt;rover.flows.control</title>
<path fill="none" stroke="black" d="M887.65,-100.57C844.08,-84.9 786.82,-64.31 743.9,-48.88"/>
<polygon fill="none" stroke="black" points="887.69,-100.58 894.68,-98.85 898.98,-104.64 891.98,-106.37 887.69,-100.58"/>
<text text-anchor="middle" x="788.77" y="-78.52" font-family="Times,serif" font-size="14.00">&lt;flow&gt;</text>
</g>
<!-- rover.fxns.view_ground -->
<g id="node8" class="node">
<title>rover.fxns.view_ground</title>
<polygon fill="lightgrey" stroke="grey" stroke-width="2" points="410.38,-372.68 227.38,-372.68 227.38,-334.68 410.38,-334.68 410.38,-372.68"/>
<text text-anchor="middle" x="318.88" y="-357.48" font-family="Times,serif" font-size="14.00">rover.fxns.view_ground</text>
<text text-anchor="middle" x="318.88" y="-342.48" font-family="Times,serif" font-size="14.00">[]</text>
</g>
<!-- rover.fxns.view_ground&#45;&gt;rover.flows.ground -->
<g id="edge10" class="edge">
<title>rover.fxns.view_ground-&gt;rover.flows.ground</title>
<path fill="none" stroke="black" d="M422.55,-346.07C426.09,-345.81 429.64,-345.55 433.17,-345.29"/>
<polygon fill="none" stroke="black" points="422.53,-346.07 416.84,-350.5 410.56,-346.95 416.25,-342.52 422.53,-346.07"/>
<text text-anchor="middle" x="400.86" y="-334.48" font-family="Times,serif" font-size="14.00">&lt;flow&gt;</text>
</g>
<!-- rover.fxns.view_ground&#45;&gt;rover.flows.force -->
<g id="edge9" class="edge">
<title>rover.fxns.view_ground-&gt;rover.flows.force</title>
<path fill="none" stroke="black" d="M376.36,-377.36C492.69,-425.27 754.58,-533.13 868.14,-579.9"/>
<polygon fill="none" stroke="black" points="376.33,-377.35 369.26,-378.76 365.23,-372.78 372.3,-371.36 376.33,-377.35"/>
<text text-anchor="middle" x="595.25" y="-482.43" font-family="Times,serif" font-size="14.00">&lt;flow&gt;</text>
</g>
<!-- rover.fxns.view_ground&#45;&gt;rover.flows.ee -->
<g id="edge8" class="edge">
<title>rover.fxns.view_ground-&gt;rover.flows.ee</title>
<path fill="none" stroke="black" d="M287.8,-381.04C241.62,-421.68 155.52,-497.46 110.74,-536.86"/>
<polygon fill="none" stroke="black" points="288.01,-380.85 289.88,-373.88 297.02,-372.92 295.16,-379.89 288.01,-380.85"/>
<text text-anchor="middle" x="172.27" y="-462.75" font-family="Times,serif" font-size="14.00">&lt;flow&gt;</text>
</g>
<!-- rover.fxns.view_ground&#45;&gt;rover.flows.video -->
<g id="edge11" class="edge">
<title>rover.fxns.view_ground-&gt;rover.flows.video</title>
<path fill="none" stroke="black" d="M327.59,-322.36C344.55,-261.32 381.78,-127.39 397.79,-69.81"/>
<polygon fill="none" stroke="black" points="327.5,-322.66 329.75,-329.52 324.29,-334.23 322.04,-327.37 327.5,-322.66"/>
<text text-anchor="middle" x="335.69" y="-199.88" font-family="Times,serif" font-size="14.00">&lt;flow&gt;</text>
</g>
<!-- rover.fxns.communicate -->
<g id="node9" class="node">
<title>rover.fxns.communicate</title>
<polygon fill="lightgrey" stroke="grey" stroke-width="2" points="708.7,-666.88 520.7,-666.88 520.7,-628.88 708.7,-628.88 708.7,-666.88"/>
<text text-anchor="middle" x="614.7" y="-651.68" font-family="Times,serif" font-size="14.00">rover.fxns.communicate</text>
<text text-anchor="middle" x="614.7" y="-636.68" font-family="Times,serif" font-size="14.00">[]</text>
</g>
<!-- rover.fxns.communicate&#45;&gt;rover.flows.ee -->
<g id="edge13" class="edge">
<title>rover.fxns.communicate-&gt;rover.flows.ee</title>
<path fill="none" stroke="black" d="M508.54,-630.79C404.09,-613.98 247.35,-588.75 155.81,-574.02"/>
<polygon fill="none" stroke="black" points="508.84,-630.84 515.4,-627.84 520.69,-632.75 514.13,-635.74 508.84,-630.84"/>
<text text-anchor="middle" x="305.17" y="-606.2" font-family="Times,serif" font-size="14.00">&lt;flow&gt;</text>
</g>
<!-- rover.fxns.communicate&#45;&gt;rover.flows.comms -->
<g id="edge12" class="edge">
<title>rover.fxns.communicate-&gt;rover.flows.comms</title>
<path fill="none" stroke="black" d="M508.56,-656.62C485.96,-658.48 462.17,-660.44 439.79,-662.28"/>
<polygon fill="none" stroke="black" points="508.65,-656.61 514.3,-652.13 520.61,-655.62 514.96,-660.1 508.65,-656.61"/>
<text text-anchor="middle" x="487.67" y="-648.25" font-family="Times,serif" font-size="14.00">&lt;flow&gt;</text>
</g>
<!-- rover.fxns.store_energy -->
<g id="node10" class="node">
<title>rover.fxns.store_energy</title>
<polygon fill="orange" stroke="red" stroke-width="2" points="198.45,-120.76 13.45,-120.76 13.45,-82.76 198.45,-82.76 198.45,-120.76"/>
<text text-anchor="middle" x="105.95" y="-105.56" font-family="Times,serif" font-size="14.00">rover.fxns.store_energy</text>
<text text-anchor="middle" x="105.95" y="-90.56" font-family="Times,serif" font-size="14.00">['no_charge']</text>
</g>
<!-- rover.fxns.store_energy&#45;&gt;rover.flows.ee -->
<g id="edge3" class="edge">
<title>rover.fxns.store_energy-&gt;rover.flows.ee</title>
<path fill="none" stroke="black" d="M104.32,-133.12C99.88,-218.65 87.6,-454.93 83.43,-535.11"/>
<polygon fill="none" stroke="black" points="104.33,-132.94 100.65,-126.74 104.95,-120.96 108.64,-127.16 104.33,-132.94"/>
<text text-anchor="middle" x="66.87" y="-337.92" font-family="Times,serif" font-size="14.00">&lt;flow&gt;</text>
</g>
<!-- rover.fxns.store_energy&#45;&gt;rover.flows.control -->
<g id="edge2" class="edge">
<title>rover.fxns.store_energy-&gt;rover.flows.control</title>
<path fill="none" stroke="black" d="M210.8,-88.15C318.5,-74.16 484.64,-52.59 588.34,-39.12"/>
<polygon fill="none" stroke="black" points="210.51,-88.18 205.08,-92.92 198.61,-89.73 204.05,-84.99 210.51,-88.18"/>
<text text-anchor="middle" x="372.57" y="-67.43" font-family="Times,serif" font-size="14.00">&lt;flow&gt;</text>
</g>
<!-- rover.fxns.move_rover -->
<g id="node11" class="node">
<title>rover.fxns.move_rover</title>
<polygon fill="orange" stroke="red" stroke-width="2" points="838.57,-357.81 662.57,-357.81 662.57,-319.81 838.57,-319.81 838.57,-357.81"/>
<text text-anchor="middle" x="750.57" y="-342.61" font-family="Times,serif" font-size="14.00">rover.fxns.move_rover</text>
<text text-anchor="middle" x="750.57" y="-327.61" font-family="Times,serif" font-size="14.00">['short']</text>
</g>
<!-- rover.fxns.move_rover&#45;&gt;rover.flows.ground -->
<g id="edge7" class="edge">
<title>rover.fxns.move_rover-&gt;rover.flows.ground</title>
<path fill="none" stroke="black" d="M650.11,-338.34C647.13,-338.33 644.14,-338.32 641.15,-338.3"/>
<polygon fill="none" stroke="black" points="650.29,-338.34 656.31,-334.37 662.29,-338.4 656.27,-342.37 650.29,-338.34"/>
<text text-anchor="middle" x="632.13" y="-327.12" font-family="Times,serif" font-size="14.00">&lt;flow&gt;</text>
</g>
<!-- rover.fxns.move_rover&#45;&gt;rover.flows.force -->
<g id="edge6" class="edge">
<title>rover.fxns.move_rover-&gt;rover.flows.force</title>
<path fill="none" stroke="black" d="M769.83,-368.34C803.52,-420 872.64,-526 904.97,-575.57"/>
<polygon fill="none" stroke="black" points="769.76,-368.24 763.13,-365.39 763.2,-358.18 769.83,-361.02 769.76,-368.24"/>
<text text-anchor="middle" x="810.4" y="-475.76" font-family="Times,serif" font-size="14.00">&lt;flow&gt;</text>
</g>
<!-- rover.fxns.move_rover&#45;&gt;rover.flows.ee -->
<g id="edge5" class="edge">
<title>rover.fxns.move_rover-&gt;rover.flows.ee</title>
<path fill="none" stroke="black" d="M682.06,-361.7C550.09,-405.78 262.85,-501.73 139.83,-542.83"/>
<polygon fill="none" stroke="black" points="682.19,-361.66 686.61,-355.96 693.57,-357.85 689.15,-363.55 682.19,-361.66"/>
<text text-anchor="middle" x="383.94" y="-456.07" font-family="Times,serif" font-size="14.00">&lt;flow&gt;</text>
</g>
<!-- rover.fxns.move_rover&#45;&gt;rover.flows.control -->
<g id="edge4" class="edge">
<title>rover.fxns.move_rover-&gt;rover.flows.control</title>
<path fill="none" stroke="black" d="M743.85,-307.91C730.55,-246.82 701.11,-111.5 688.55,-53.79"/>
<polygon fill="none" stroke="black" points="743.88,-308.04 749.06,-313.06 746.43,-319.77 741.24,-314.76 743.88,-308.04"/>
<text text-anchor="middle" x="689.2" y="-184.65" font-family="Times,serif" font-size="14.00">&lt;flow&gt;</text>
</g>
</g>
</svg>