<svg xmlns="http://www.w3.org/2000/svg" xmlns:xlink="http://www.w3.org/1999/xlink" width="2190pt" height="482pt" viewBox="0.00 0.00 2189.85 482.00">
<g id="graph0" class="graph" transform="scale(1 1) rotate(0) translate(4 478)">
<polygon fill="white" stroke="none" points="-4,4 -4,-478 2185.85,-478 2185.85,4 -4,4"/>
<!-- rover -->
<g id="node1" class="node">
<title>rover</title>
<polygon fill="lightgrey" stroke="grey" points="115.1,-474 0,-438.38 230.2,-438.38 115.1,-474"/>
<text text-anchor="middle" x="115.1" y="-444.82" font-family="Times New Roman,serif" font-size="14.00">rover: Rover</text>
</g>
<!-- __main__.Rover -->
<g id="node22" class="node">
<title>__main__.Rover</title>
<polygon fill="lightgrey" stroke="grey" points="155.73,-336.12 74.48,-336.12 74.48,-254.88 155.73,-254.88 155.73,-336.12"/>
<polyline fill="none" stroke="grey" points="86.48,-336.12 74.48,-324.12"/>
<polyline fill="none" stroke="grey" points="74.48,-266.88 86.48,-254.88"/>
<polyline fill="none" stroke="grey" points="143.73,-254.88 155.73,-266.88"/>
<polyline fill="none" stroke="grey" points="155.73,-324.12 143.73,-336.12"/>
<text text-anchor="middle" x="115.1" y="-290.07" font-family="Times New Roman,serif" font-size="14.00">Rover: type</text>
</g>
<!-- rover&#45;&gt;__main__.Rover -->
<g id="edge1" class="edge">
<title>rover-&gt;__main__.Rover</title>
<path fill="none" stroke="black" d="M115.1,-438.26C115.1,-419.4 115.1,-379.72 115.1,-347.12"/>
<polygon fill="none" stroke="black" points="118.6,-347.38 115.1,-337.38 111.6,-347.38 118.6,-347.38"/>
<text text-anchor="middle" x="152.98" y="-395.2" font-family="Times New Roman,serif" font-size="14.00">&lt;inheritance&gt;</text>
<text text-anchor="middle" x="152.98" y="-379.45" font-family="Times New Roman,serif" font-size="14.00">base</text>
</g>
<!-- rover.flows.ground -->
<g id="node2" class="node">
<title>rover.flows.ground</title>
<ellipse fill="lightgrey" stroke="grey" stroke-width="0" cx="319.1" cy="-450.25" rx="70.52" ry="18"/>
<text text-anchor="middle" x="319.1" y="-444.82" font-family="Times New Roman,serif" font-size="14.00">ground: Ground</text>
</g>
<!-- __main__.Ground -->
<g id="node8" class="node">
<title>__main__.Ground</title>
<polygon fill="lightgrey" stroke="grey" points="364.23,-340.62 273.98,-340.62 273.98,-250.38 364.23,-250.38 364.23,-340.62"/>
<polyline fill="none" stroke="grey" points="285.98,-340.62 273.98,-328.62"/>
<polyline fill="none" stroke="grey" points="273.98,-262.38 285.98,-250.38"/>
<polyline fill="none" stroke="grey" points="352.23,-250.38 364.23,-262.38"/>
<polyline fill="none" stroke="grey" points="364.23,-328.62 352.23,-340.62"/>
<text text-anchor="middle" x="319.1" y="-290.07" font-family="Times New Roman,serif" font-size="14.00">Ground: type</text>
</g>
<!-- rover.flows.ground&#45;&gt;__main__.Ground -->
<g id="edge2" class="edge">
<title>rover.flows.ground-&gt;__main__.Ground</title>
<path fill="none" stroke="black" d="M319.1,-432.32C319.1,-412.9 319.1,-380.05 319.1,-351.52"/>
<polygon fill="none" stroke="black" points="322.6,-351.84 319.1,-341.84 315.6,-351.84 322.6,-351.84"/>
<text text-anchor="middle" x="356.98" y="-395.2" font-family="Times New Roman,serif" font-size="14.00">&lt;inheritance&gt;</text>
<text text-anchor="middle" x="356.98" y="-379.45" font-family="Times New Roman,serif" font-size="14.00">base</text>
</g>
<!-- rover.flows.force -->
<g id="node3" class="node">
<title>rover.flows.force</title>
<ellipse fill="lightgrey" stroke="grey" stroke-width="0" cx="547.1" cy="-450.25" rx="56.55" ry="18"/>
<text text-anchor="middle" x="547.1" y="-444.82" font-family="Times New Roman,serif" font-size="14.00">force: Force</text>
</g>
<!-- __main__.Force -->
<g id="node10" class="node">
<title>__main__.Force</title>
<polygon fill="lightgrey" stroke="grey" points="602.98,-335.38 523.23,-335.38 523.23,-255.62 602.98,-255.62 602.98,-335.38"/>
<polyline fill="none" stroke="grey" points="535.23,-335.38 523.23,-323.38"/>
<polyline fill="none" stroke="grey" points="523.23,-267.62 535.23,-255.62"/>
<polyline fill="none" stroke="grey" points="590.98,-255.62 602.98,-267.62"/>
<polyline fill="none" stroke="grey" points="602.98,-323.38 590.98,-335.38"/>
<text text-anchor="middle" x="563.1" y="-290.07" font-family="Times New Roman,serif" font-size="14.00">Force: type</text>
</g>
<!-- rover.flows.force&#45;&gt;__main__.Force -->
<g id="edge4" class="edge">
<title>rover.flows.force-&gt;__main__.Force</title>
<path fill="none" stroke="black" d="M548.88,-432.32C551.03,-411.7 554.78,-375.97 557.88,-346.32"/>
<polygon fill="none" stroke="black" points="561.43,-347.03 558.99,-336.72 554.47,-346.3 561.43,-347.03"/>
<text text-anchor="middle" x="592.98" y="-395.2" font-family="Times New Roman,serif" font-size="14.00">&lt;inheritance&gt;</text>
<text text-anchor="middle" x="592.98" y="-379.45" font-family="Times New Roman,serif" font-size="14.00">base</text>
</g>
<!-- rover.flows.ee -->
<g id="node4" class="node">
<title>rover.flows.ee</title>
<ellipse fill="lightgrey" stroke="grey" stroke-width="0" cx="656.1" cy="-450.25" rx="34.1" ry="18"/>
<text text-anchor="middle" x="656.1" y="-444.82" font-family="Times New Roman,serif" font-size="14.00">ee: EE</text>
</g>
<!-- __main__.EE -->
<g id="node11" class="node">
<title>__main__.EE</title>
<polygon fill="lightgrey" stroke="grey" points="688.73,-327.12 625.48,-327.12 625.48,-263.88 688.73,-263.88 688.73,-327.12"/>
<polyline fill="none" stroke="grey" points="637.48,-327.12 625.48,-315.12"/>
<polyline fill="none" stroke="grey" points="625.48,-275.88 637.48,-263.88"/>
<polyline fill="none" stroke="grey" points="676.73,-263.88 688.73,-275.88"/>
<polyline fill="none" stroke="grey" points="688.73,-315.12 676.73,-327.12"/>
<text text-anchor="middle" x="657.1" y="-290.07" font-family="Times New Roman,serif" font-size="14.00">EE: type</text>
</g>
<!-- rover.flows.ee&#45;&gt;__main__.EE -->
<g id="edge6" class="edge">
<title>rover.flows.ee-&gt;__main__.EE</title>
<path fill="none" stroke="black" d="M656.21,-432.32C656.36,-409.84 656.62,-369.36 656.83,-338.43"/>
<polygon fill="none" stroke="black" points="660.33,-338.54 656.9,-328.52 653.33,-338.49 660.33,-338.54"/>
<text text-anchor="middle" x="694.98" y="-395.2" font-family="Times New Roman,serif" font-size="14.00">&lt;inheritance&gt;</text>
<text text-anchor="middle" x="694.98" y="-379.45" font-family="Times New Roman,serif" font-size="14.00">base</text>
</g>
<!-- rover.flows.video -->
<g id="node5" class="node">
<title>rover.flows.video</title>
<ellipse fill="lightgrey" stroke="grey" stroke-width="0" cx="766.1" cy="-450.25" rx="58.05" ry="18"/>
<text text-anchor="middle" x="766.1" y="-444.82" font-family="Times New Roman,serif" font-size="14.00">video: Video</text>
</g>
<!-- __main__.Video -->
<g id="node12" class="node">
<title>__main__.Video</title>
<polygon fill="lightgrey" stroke="grey" points="805.35,-335.75 724.85,-335.75 724.85,-255.25 805.35,-255.25 805.35,-335.75"/>
<polyline fill="none" stroke="grey" points="736.85,-335.75 724.85,-323.75"/>
<polyline fill="none" stroke="grey" points="724.85,-267.25 736.85,-255.25"/>
<polyline fill="none" stroke="grey" points="793.35,-255.25 805.35,-267.25"/>
<polyline fill="none" stroke="grey" points="805.35,-323.75 793.35,-335.75"/>
<text text-anchor="middle" x="765.1" y="-290.07" font-family="Times New Roman,serif" font-size="14.00">Video: type</text>
</g>
<!-- rover.flows.video&#45;&gt;__main__.Video -->
<g id="edge8" class="edge">
<title>rover.flows.video-&gt;__main__.Video</title>
<path fill="none" stroke="black" d="M765.99,-432.32C765.86,-411.86 765.63,-376.52 765.43,-347.01"/>
<polygon fill="none" stroke="black" points="768.93,-347.01 765.36,-337.03 761.93,-347.05 768.93,-347.01"/>
<text text-anchor="middle" x="803.98" y="-395.2" font-family="Times New Roman,serif" font-size="14.00">&lt;inheritance&gt;</text>
<text text-anchor="middle" x="803.98" y="-379.45" font-family="Times New Roman,serif" font-size="14.00">base</text>
</g>
<!-- rover.flows.control -->
<g id="node6" class="node">
<title>rover.flows.control</title>
<ellipse fill="lightgrey" stroke="grey" stroke-width="0" cx="912.1" cy="-450.25" rx="70.03" ry="18"/>
<text text-anchor="middle" x="912.1" y="-444.82" font-family="Times New Roman,serif" font-size="14.00">control: Control</text>
</g>
<!-- __main__.Control -->
<g id="node13" class="node">
<title>__main__.Control</title>
<polygon fill="lightgrey" stroke="grey" points="933.85,-340.25 844.35,-340.25 844.35,-250.75 933.85,-250.75 933.85,-340.25"/>
<polyline fill="none" stroke="grey" points="856.35,-340.25 844.35,-328.25"/>
<polyline fill="none" stroke="grey" points="844.35,-262.75 856.35,-250.75"/>
<polyline fill="none" stroke="grey" points="921.85,-250.75 933.85,-262.75"/>
<polyline fill="none" stroke="grey" points="933.85,-328.25 921.85,-340.25"/>
<text text-anchor="middle" x="889.1" y="-290.07" font-family="Times New Roman,serif" font-size="14.00">Control: type</text>
</g>
<!-- rover.flows.control&#45;&gt;__main__.Control -->
<g id="edge10" class="edge">
<title>rover.flows.control-&gt;__main__.Control</title>
<path fill="none" stroke="black" d="M909.55,-432.32C906.62,-412.83 901.65,-379.82 897.34,-351.22"/>
<polygon fill="none" stroke="black" points="900.68,-350.88 895.73,-341.51 893.76,-351.92 900.68,-350.88"/>
<text text-anchor="middle" x="943.98" y="-395.2" font-family="Times New Roman,serif" font-size="14.00">&lt;inheritance&gt;</text>
<text text-anchor="middle" x="943.98" y="-379.45" font-family="Times New Roman,serif" font-size="14.00">base</text>
</g>
<!-- rover.flows.comms -->
<g id="node7" class="node">
<title>rover.flows.comms</title>
<ellipse fill="lightgrey" stroke="grey" stroke-width="0" cx="444.1" cy="-295.5" rx="61.54" ry="18"/>
<text text-anchor="middle" x="444.1" y="-290.07" font-family="Times New Roman,serif" font-size="14.00">comms: Flow</text>
</g>
<!-- fmdtools.define.flow.base.Flow -->
<g id="node9" class="node">
<title>fmdtools.define.flow.base.Flow</title>
<polygon fill="lightgrey" stroke="grey" points="645.73,-119.88 570.48,-119.88 570.48,-44.62 645.73,-44.62 645.73,-119.88"/>
<polyline fill="none" stroke="grey" points="582.48,-119.88 570.48,-107.88"/>
<polyline fill="none" stroke="grey" points="570.48,-56.62 582.48,-44.62"/>
<polyline fill="none" stroke="grey" points="633.73,-44.62 645.73,-56.62"/>
<polyline fill="none" stroke="grey" points="645.73,-107.88 633.73,-119.88"/>
<text text-anchor="middle" x="608.1" y="-76.83" font-family="Times New Roman,serif" font-size="14.00">Flow: type</text>
</g>
<!-- rover.flows.comms&#45;&gt;fmdtools.define.flow.base.Flow -->
<g id="edge12" class="edge">
<title>rover.flows.comms-&gt;fmdtools.define.flow.base.Flow</title>
<path fill="none" stroke="black" d="M445.81,-277.52C448.85,-254.27 456.93,-212.03 477.35,-182.5 498.76,-151.54 532.88,-126.11 560.9,-108.74"/>
<polygon fill="none" stroke="black" points="562.38,-111.33 569.14,-103.17 558.77,-105.34 562.38,-111.33"/>
<text text-anchor="middle" x="515.98" y="-200.7" font-family="Times New Roman,serif" font-size="14.00">&lt;inheritance&gt;</text>
<text text-anchor="middle" x="515.98" y="-184.95" font-family="Times New Roman,serif" font-size="14.00">base</text>
</g>
<!-- __main__.Ground&#45;&gt;fmdtools.define.flow.base.Flow -->
<g id="edge3" class="edge">
<title>__main__.Ground-&gt;fmdtools.define.flow.base.Flow</title>
<path fill="none" stroke="black" d="M336.09,-250.14C346.59,-227.5 361.98,-200.93 382.35,-182.5 433.67,-136.07 510.18,-108.7 559.61,-94.84"/>
<polygon fill="none" stroke="black" points="560.31,-98 569.04,-92 558.47,-91.25 560.31,-98"/>
<text text-anchor="middle" x="420.98" y="-200.7" font-family="Times New Roman,serif" font-size="14.00">&lt;inheritance&gt;</text>
<text text-anchor="middle" x="420.98" y="-184.95" font-family="Times New Roman,serif" font-size="14.00">base</text>
</g>
<!-- __main__.Force&#45;&gt;fmdtools.define.flow.base.Flow -->
<g id="edge5" class="edge">
<title>__main__.Force-&gt;fmdtools.define.flow.base.Flow</title>
<path fill="none" stroke="black" d="M557.43,-255.15C555.47,-233.46 554.95,-206.2 560.35,-182.5 564.47,-164.44 572.31,-145.83 580.47,-129.68"/>
<polygon fill="none" stroke="black" points="584.02,-131.45 585.56,-120.96 577.82,-128.2 584.02,-131.45"/>
<text text-anchor="middle" x="598.98" y="-200.7" font-family="Times New Roman,serif" font-size="14.00">&lt;inheritance&gt;</text>
<text text-anchor="middle" x="598.98" y="-184.95" font-family="Times New Roman,serif" font-size="14.00">base</text>
</g>
<!-- __main__.EE&#45;&gt;fmdtools.define.flow.base.Flow -->
<g id="edge7" class="edge">
<title>__main__.EE-&gt;fmdtools.define.flow.base.Flow</title>
<path fill="none" stroke="black" d="M652.05,-263.44C648.19,-240.88 642.47,-209.66 636.1,-182.5 632.11,-165.48 627.1,-147.01 622.41,-130.67"/>
<polygon fill="none" stroke="black" points="625.55,-129.91 619.4,-121.28 618.82,-131.86 625.55,-129.91"/>
<text text-anchor="middle" x="680.98" y="-200.7" font-family="Times New Roman,serif" font-size="14.00">&lt;inheritance&gt;</text>
<text text-anchor="middle" x="680.98" y="-184.95" font-family="Times New Roman,serif" font-size="14.00">base</text>
</g>
<!-- __main__.Video&#45;&gt;fmdtools.define.flow.base.Flow -->
<g id="edge9" class="edge">
<title>__main__.Video-&gt;fmdtools.define.flow.base.Flow</title>
<path fill="none" stroke="black" d="M755.5,-254.85C748.8,-232.31 738.3,-204.31 723.1,-182.5 704.78,-156.22 677.95,-132.53 654.81,-114.89"/>
<polygon fill="none" stroke="black" points="657.26,-111.61 647.15,-108.44 653.08,-117.22 657.26,-111.61"/>
<text text-anchor="middle" x="778.98" y="-200.7" font-family="Times New Roman,serif" font-size="14.00">&lt;inheritance&gt;</text>
<text text-anchor="middle" x="778.98" y="-184.95" font-family="Times New Roman,serif" font-size="14.00">base</text>
</g>
<!-- __main__.Control&#45;&gt;fmdtools.define.flow.base.Flow -->
<g id="edge11" class="edge">
<title>__main__.Control-&gt;fmdtools.define.flow.base.Flow</title>
<path fill="none" stroke="black" d="M869.98,-250.34C858.45,-227.76 841.94,-201.17 821.1,-182.5 773.04,-139.44 703.05,-111.7 656.58,-96.79"/>
<polygon fill="none" stroke="black" points="657.76,-93.18 647.17,-93.53 655.67,-99.86 657.76,-93.18"/>
<text text-anchor="middle" x="884.98" y="-200.7" font-family="Times New Roman,serif" font-size="14.00">&lt;inheritance&gt;</text>
<text text-anchor="middle" x="884.98" y="-184.95" font-family="Times New Roman,serif" font-size="14.00">base</text>
</g>
<!-- __main__.ControlRover -->
<g id="node14" class="node">
<title>__main__.ControlRover</title>
<polygon fill="lightgrey" stroke="grey" points="1859.1,-357.5 1735.1,-357.5 1735.1,-233.5 1859.1,-233.5 1859.1,-357.5"/>
<polyline fill="none" stroke="grey" points="1747.1,-357.5 1735.1,-345.5"/>
<polyline fill="none" stroke="grey" points="1735.1,-245.5 1747.1,-233.5"/>
<polyline fill="none" stroke="grey" points="1847.1,-233.5 1859.1,-245.5"/>
<polyline fill="none" stroke="grey" points="1859.1,-345.5 1847.1,-357.5"/>
<text text-anchor="middle" x="1797.1" y="-290.07" font-family="Times New Roman,serif" font-size="14.00">ControlRover: type</text>
</g>
<!-- fmdtools.define.block.function.Function -->
<g id="node15" class="node">
<title>fmdtools.define.block.function.Function</title>
<polygon fill="lightgrey" stroke="grey" points="1488.23,-130.38 1391.98,-130.38 1391.98,-34.12 1488.23,-34.12 1488.23,-130.38"/>
<polyline fill="none" stroke="grey" points="1403.98,-130.38 1391.98,-118.38"/>
<polyline fill="none" stroke="grey" points="1391.98,-46.12 1403.98,-34.12"/>
<polyline fill="none" stroke="grey" points="1476.23,-34.12 1488.23,-46.12"/>
<polyline fill="none" stroke="grey" points="1488.23,-118.38 1476.23,-130.38"/>
<text text-anchor="middle" x="1440.1" y="-76.83" font-family="Times New Roman,serif" font-size="14.00">Function: type</text>
</g>
<!-- __main__.ControlRover&#45;&gt;fmdtools.define.block.function.Function -->
<g id="edge14" class="edge">
<title>__main__.ControlRover-&gt;fmdtools.define.block.function.Function</title>
<path fill="none" stroke="black" d="M1734.99,-252.58C1702.38,-231 1661.51,-204.65 1624.1,-182.5 1582.53,-157.89 1534.45,-132.04 1497.86,-112.89"/>
<polygon fill="none" stroke="black" points="1499.83,-109.45 1489.34,-107.92 1496.59,-115.65 1499.83,-109.45"/>
<text text-anchor="middle" x="1710.98" y="-200.7" font-family="Times New Roman,serif" font-size="14.00">&lt;inheritance&gt;</text>
<text text-anchor="middle" x="1710.98" y="-184.95" font-family="Times New Roman,serif" font-size="14.00">base</text>
</g>
<!-- __main__.StoreEnergy -->
<g id="node16" class="node">
<title>__main__.StoreEnergy</title>
<polygon fill="lightgrey" stroke="grey" points="1162.98,-353.38 1047.23,-353.38 1047.23,-237.62 1162.98,-237.62 1162.98,-353.38"/>
<polyline fill="none" stroke="grey" points="1059.23,-353.38 1047.23,-341.38"/>
<polyline fill="none" stroke="grey" points="1047.23,-249.62 1059.23,-237.62"/>
<polyline fill="none" stroke="grey" points="1150.98,-237.62 1162.98,-249.62"/>
<polyline fill="none" stroke="grey" points="1162.98,-341.38 1150.98,-353.38"/>
<text text-anchor="middle" x="1105.1" y="-290.07" font-family="Times New Roman,serif" font-size="14.00">StoreEnergy: type</text>
</g>
<!-- __main__.StoreEnergy&#45;&gt;fmdtools.define.block.function.Function -->
<g id="edge16" class="edge">
<title>__main__.StoreEnergy-&gt;fmdtools.define.block.function.Function</title>
<path fill="none" stroke="black" d="M1163.22,-249.64C1191.62,-228.41 1226.65,-203.23 1259.35,-182.5 1299.32,-157.16 1346.2,-131.53 1382.21,-112.66"/>
<polygon fill="none" stroke="black" points="1383.34,-115.49 1390.58,-107.77 1380.1,-109.29 1383.34,-115.49"/>
<text text-anchor="middle" x="1297.98" y="-200.7" font-family="Times New Roman,serif" font-size="14.00">&lt;inheritance&gt;</text>
<text text-anchor="middle" x="1297.98" y="-184.95" font-family="Times New Roman,serif" font-size="14.00">base</text>
</g>
<!-- __main__.MoveRover -->
<g id="node17" class="node">
<title>__main__.MoveRover</title>
<polygon fill="lightgrey" stroke="grey" points="1339.85,-352.25 1226.35,-352.25 1226.35,-238.75 1339.85,-238.75 1339.85,-352.25"/>
<polyline fill="none" stroke="grey" points="1238.35,-352.25 1226.35,-340.25"/>
<polyline fill="none" stroke="grey" points="1226.35,-250.75 1238.35,-238.75"/>
<polyline fill="none" stroke="grey" points="1327.85,-238.75 1339.85,-250.75"/>
<polyline fill="none" stroke="grey" points="1339.85,-340.25 1327.85,-352.25"/>
<text text-anchor="middle" x="1283.1" y="-290.07" font-family="Times New Roman,serif" font-size="14.00">MoveRover: type</text>
</g>
<!-- __main__.MoveRover&#45;&gt;fmdtools.define.block.function.Function -->
<g id="edge18" class="edge">
<title>__main__.MoveRover-&gt;fmdtools.define.block.function.Function</title>
<path fill="none" stroke="black" d="M1320.62,-238.39C1333,-220.35 1347.01,-200.4 1360.35,-182.5 1370.96,-168.26 1382.76,-153.19 1393.97,-139.2"/>
<polygon fill="none" stroke="black" points="1397.3,-141.64 1400.85,-131.65 1391.85,-137.25 1397.3,-141.64"/>
<text text-anchor="middle" x="1398.98" y="-200.7" font-family="Times New Roman,serif" font-size="14.00">&lt;inheritance&gt;</text>
<text text-anchor="middle" x="1398.98" y="-184.95" font-family="Times New Roman,serif" font-size="14.00">base</text>
</g>
<!-- __main__.ViewGround -->
<g id="node18" class="node">
<title>__main__.ViewGround</title>
<polygon fill="lightgrey" stroke="grey" points="1499.48,-354.88 1380.73,-354.88 1380.73,-236.12 1499.48,-236.12 1499.48,-354.88"/>
<polyline fill="none" stroke="grey" points="1392.73,-354.88 1380.73,-342.88"/>
<polyline fill="none" stroke="grey" points="1380.73,-248.12 1392.73,-236.12"/>
<polyline fill="none" stroke="grey" points="1487.48,-236.12 1499.48,-248.12"/>
<polyline fill="none" stroke="grey" points="1499.48,-342.88 1487.48,-354.88"/>
<text text-anchor="middle" x="1440.1" y="-290.07" font-family="Times New Roman,serif" font-size="14.00">ViewGround: type</text>
</g>
<!-- __main__.ViewGround&#45;&gt;fmdtools.define.block.function.Function -->
<g id="edge20" class="edge">
<title>__main__.ViewGround-&gt;fmdtools.define.block.function.Function</title>
<path fill="none" stroke="black" d="M1440.1,-235.66C1440.1,-206.32 1440.1,-170.95 1440.1,-141.67"/>
<polygon fill="none" stroke="black" points="1443.6,-141.77 1440.1,-131.77 1436.6,-141.77 1443.6,-141.77"/>
<text text-anchor="middle" x="1477.98" y="-200.7" font-family="Times New Roman,serif" font-size="14.00">&lt;inheritance&gt;</text>
<text text-anchor="middle" x="1477.98" y="-184.95" font-family="Times New Roman,serif" font-size="14.00">base</text>
</g>
<!-- __main__.Communicate -->
<g id="node19" class="node">
<title>__main__.Communicate</title>
<polygon fill="lightgrey" stroke="grey" points="1666.1,-357.5 1542.1,-357.5 1542.1,-233.5 1666.1,-233.5 1666.1,-357.5"/>
<polyline fill="none" stroke="grey" points="1554.1,-357.5 1542.1,-345.5"/>
<polyline fill="none" stroke="grey" points="1542.1,-245.5 1554.1,-233.5"/>
<polyline fill="none" stroke="grey" points="1654.1,-233.5 1666.1,-245.5"/>
<polyline fill="none" stroke="grey" points="1666.1,-345.5 1654.1,-357.5"/>
<text text-anchor="middle" x="1604.1" y="-290.07" font-family="Times New Roman,serif" font-size="14.00">Communicate: type</text>
</g>
<!-- __main__.Communicate&#45;&gt;fmdtools.define.block.function.Function -->
<g id="edge22" class="edge">
<title>__main__.Communicate-&gt;fmdtools.define.block.function.Function</title>
<path fill="none" stroke="black" d="M1558.71,-233.17C1546.31,-216.64 1532.78,-198.81 1520.1,-182.5 1509.03,-168.26 1496.9,-153.03 1485.5,-138.88"/>
<polygon fill="none" stroke="black" points="1487.9,-137.27 1478.89,-131.69 1482.45,-141.67 1487.9,-137.27"/>
<text text-anchor="middle" x="1581.98" y="-200.7" font-family="Times New Roman,serif" font-size="14.00">&lt;inheritance&gt;</text>
<text text-anchor="middle" x="1581.98" y="-184.95" font-family="Times New Roman,serif" font-size="14.00">base</text>
</g>
<!-- fmdtools.define.block.base.SimParam -->
<g id="node20" class="node">
<title>fmdtools.define.block.base.SimParam</title>
<polygon fill="lightgrey" stroke="grey" points="2038.6,-359 1911.6,-359 1911.6,-232 2038.6,-232 2038.6,-359"/>
<polyline fill="none" stroke="grey" points="1923.6,-359 1911.6,-347"/>
<polyline fill="none" stroke="grey" points="1911.6,-244 1923.6,-232"/>
<polyline fill="none" stroke="grey" points="2026.6,-232 2038.6,-244"/>
<polyline fill="none" stroke="grey" points="2038.6,-347 2026.6,-359"/>
<text text-anchor="middle" x="1975.1" y="-290.07" font-family="Times New Roman,serif" font-size="14.00">SimParam: datatype</text>
</g>
<!-- fmdtools.define.container.time.Time -->
<g id="node21" class="node">
<title>fmdtools.define.container.time.Time</title>
<polygon fill="lightgrey" stroke="grey" points="2155.35,-344.75 2056.85,-344.75 2056.85,-246.25 2155.35,-246.25 2155.35,-344.75"/>
<polyline fill="none" stroke="grey" points="2068.85,-344.75 2056.85,-332.75"/>
<polyline fill="none" stroke="grey" points="2056.85,-258.25 2068.85,-246.25"/>
<polyline fill="none" stroke="grey" points="2143.35,-246.25 2155.35,-258.25"/>
<polyline fill="none" stroke="grey" points="2155.35,-332.75 2143.35,-344.75"/>
<text text-anchor="middle" x="2106.1" y="-290.07" font-family="Times New Roman,serif" font-size="14.00">Time: datatype</text>
</g>
<!-- fmdtools.define.architecture.function.FunctionArchitecture -->
<g id="node23" class="node">
<title>fmdtools.define.architecture.function.FunctionArchitecture</title>
<polygon fill="lightgrey" stroke="grey" points="197.35,-164.5 32.85,-164.5 32.85,0 197.35,0 197.35,-164.5"/>
<polyline fill="none" stroke="grey" points="44.85,-164.5 32.85,-152.5"/>
<polyline fill="none" stroke="grey" points="32.85,-12 44.85,0"/>
<polyline fill="none" stroke="grey" points="185.35,0 197.35,-12"/>
<polyline fill="none" stroke="grey" points="197.35,-152.5 185.35,-164.5"/>
<text text-anchor="middle" x="115.1" y="-76.83" font-family="Times New Roman,serif" font-size="14.00">FunctionArchitecture: type</text>
</g>
<!-- __main__.Rover&#45;&gt;fmdtools.define.architecture.function.FunctionArchitecture -->
<g id="edge25" class="edge">
<title>__main__.Rover-&gt;fmdtools.define.architecture.function.FunctionArchitecture</title>
<path fill="none" stroke="black" d="M115.1,-254.77C115.1,-232.4 115.1,-203.46 115.1,-175.75"/>
<polygon fill="none" stroke="black" points="118.6,-175.8 115.1,-165.8 111.6,-175.8 118.6,-175.8"/>
<text text-anchor="middle" x="152.98" y="-200.7" font-family="Times New Roman,serif" font-size="14.00">&lt;inheritance&gt;</text>
<text text-anchor="middle" x="152.98" y="-184.95" font-family="Times New Roman,serif" font-size="14.00">base</text>
</g>
<!-- rover.fxns.control_rover -->
<g id="node24" class="node">
<title>rover.fxns.control_rover</title>
<polygon fill="lightgrey" stroke="grey" stroke-width="2" points="1910.35,-468.25 1733.85,-468.25 1733.85,-432.25 1910.35,-432.25 1910.35,-468.25"/>
<text text-anchor="middle" x="1822.1" y="-444.82" font-family="Times New Roman,serif" font-size="14.00">control_rover: ControlRover</text>
</g>
<!-- rover.fxns.control_rover&#45;&gt;__main__.ControlRover -->
<g id="edge13" class="edge">
<title>rover.fxns.control_rover-&gt;__main__.ControlRover</title>
<path fill="none" stroke="black" d="M1819.18,-431.43C1816.62,-415.73 1812.7,-391.79 1808.87,-368.41"/>
<polygon fill="none" stroke="black" points="1812.19,-368.04 1807.12,-358.73 1805.28,-369.17 1812.19,-368.04"/>
<text text-anchor="middle" x="1853.98" y="-395.2" font-family="Times New Roman,serif" font-size="14.00">&lt;inheritance&gt;</text>
<text text-anchor="middle" x="1853.98" y="-379.45" font-family="Times New Roman,serif" font-size="14.00">base</text>
</g>
<!-- rover.fxns.store_energy -->
<g id="node25" class="node">
<title>rover.fxns.store_energy</title>
<polygon fill="lightgrey" stroke="grey" stroke-width="2" points="1163.98,-468.25 1000.23,-468.25 1000.23,-432.25 1163.98,-432.25 1163.98,-468.25"/>
<text text-anchor="middle" x="1082.1" y="-444.82" font-family="Times New Roman,serif" font-size="14.00">store_energy: StoreEnergy</text>
</g>
<!-- rover.fxns.store_energy&#45;&gt;__main__.StoreEnergy -->
<g id="edge15" class="edge">
<title>rover.fxns.store_energy-&gt;__main__.StoreEnergy</title>
<path fill="none" stroke="black" d="M1084.79,-431.43C1087.28,-414.84 1091.17,-389.04 1094.87,-364.42"/>
<polygon fill="none" stroke="black" points="1098.48,-365.01 1096.5,-354.6 1091.55,-363.97 1098.48,-365.01"/>
<text text-anchor="middle" x="1130.98" y="-395.2" font-family="Times New Roman,serif" font-size="14.00">&lt;inheritance&gt;</text>
<text text-anchor="middle" x="1130.98" y="-379.45" font-family="Times New Roman,serif" font-size="14.00">base</text>
</g>
<!-- rover.fxns.move_rover -->
<g id="node26" class="node">
<title>rover.fxns.move_rover</title>
<polygon fill="lightgrey" stroke="grey" stroke-width="2" points="1338.6,-468.25 1181.6,-468.25 1181.6,-432.25 1338.6,-432.25 1338.6,-468.25"/>
<text text-anchor="middle" x="1260.1" y="-444.82" font-family="Times New Roman,serif" font-size="14.00">move_rover: MoveRover</text>
</g>
<!-- rover.fxns.move_rover&#45;&gt;__main__.MoveRover -->
<g id="edge17" class="edge">
<title>rover.fxns.move_rover-&gt;__main__.MoveRover</title>
<path fill="none" stroke="black" d="M1262.79,-431.43C1265.33,-414.56 1269.3,-388.16 1273.06,-363.17"/>
<polygon fill="none" stroke="black" points="1276.63,-363.99 1274.66,-353.58 1269.71,-362.95 1276.63,-363.99"/>
<text text-anchor="middle" x="1308.98" y="-395.2" font-family="Times New Roman,serif" font-size="14.00">&lt;inheritance&gt;</text>
<text text-anchor="middle" x="1308.98" y="-379.45" font-family="Times New Roman,serif" font-size="14.00">base</text>
</g>
<!-- rover.fxns.view_ground -->
<g id="node27" class="node">
<title>rover.fxns.view_ground</title>
<polygon fill="lightgrey" stroke="grey" stroke-width="2" points="1523.85,-468.25 1356.35,-468.25 1356.35,-432.25 1523.85,-432.25 1523.85,-468.25"/>
<text text-anchor="middle" x="1440.1" y="-444.82" font-family="Times New Roman,serif" font-size="14.00">view_ground: ViewGround</text>
</g>
<!-- rover.fxns.view_ground&#45;&gt;__main__.ViewGround -->
<g id="edge19" class="edge">
<title>rover.fxns.view_ground-&gt;__main__.ViewGround</title>
<path fill="none" stroke="black" d="M1440.1,-431.43C1440.1,-415.25 1440.1,-390.32 1440.1,-366.27"/>
<polygon fill="none" stroke="black" points="1443.6,-366.32 1440.1,-356.32 1436.6,-366.32 1443.6,-366.32"/>
<text text-anchor="middle" x="1477.98" y="-395.2" font-family="Times New Roman,serif" font-size="14.00">&lt;inheritance&gt;</text>
<text text-anchor="middle" x="1477.98" y="-379.45" font-family="Times New Roman,serif" font-size="14.00">base</text>
</g>
<!-- rover.fxns.communicate -->
<g id="node28" class="node">
<title>rover.fxns.communicate</title>
<polygon fill="lightgrey" stroke="grey" stroke-width="2" points="1716.23,-468.25 1541.98,-468.25 1541.98,-432.25 1716.23,-432.25 1716.23,-468.25"/>
<text text-anchor="middle" x="1629.1" y="-444.82" font-family="Times New Roman,serif" font-size="14.00">communicate: Communicate</text>
</g>
<!-- rover.fxns.communicate&#45;&gt;__main__.Communicate -->
<g id="edge21" class="edge">
<title>rover.fxns.communicate-&gt;__main__.Communicate</title>
<path fill="none" stroke="black" d="M1626.18,-431.43C1623.62,-415.73 1619.7,-391.79 1615.87,-368.41"/>
<polygon fill="none" stroke="black" points="1619.19,-368.04 1614.12,-358.73 1612.28,-369.17 1619.19,-368.04"/>
<text text-anchor="middle" x="1660.98" y="-395.2" font-family="Times New Roman,serif" font-size="14.00">&lt;inheritance&gt;</text>
<text text-anchor="middle" x="1660.98" y="-379.45" font-family="Times New Roman,serif" font-size="14.00">base</text>
</g>
<!-- rover.sp -->
<g id="node29" class="node">
<title>rover.sp</title>
<polygon fill="lightgrey" stroke="grey" points="2021.73,-468.25 1940.48,-468.25 1940.48,-472.25 1928.48,-472.25 1928.48,-432.25 2021.73,-432.25 2021.73,-468.25"/>
<polyline fill="none" stroke="grey" points="1928.48,-468.25 1940.48,-468.25"/>
<text text-anchor="middle" x="1975.1" y="-444.82" font-family="Times New Roman,serif" font-size="14.00">sp: SimParam</text>
</g>
<!-- rover.sp&#45;&gt;fmdtools.define.block.base.SimParam -->
<g id="edge23" class="edge">
<title>rover.sp-&gt;fmdtools.define.block.base.SimParam</title>
<path fill="none" stroke="black" d="M1975.1,-432.02C1975.1,-416.73 1975.1,-393.3 1975.1,-370.19"/>
<polygon fill="none" stroke="black" points="1978.6,-370.26 1975.1,-360.26 1971.6,-370.26 1978.6,-370.26"/>
<text text-anchor="middle" x="2012.98" y="-395.2" font-family="Times New Roman,serif" font-size="14.00">&lt;inheritance&gt;</text>
<text text-anchor="middle" x="2012.98" y="-379.45" font-family="Times New Roman,serif" font-size="14.00">base</text>
</g>
<!-- rover.t -->
<g id="node30" class="node">
<title>rover.t</title>
<polygon fill="lightgrey" stroke="grey" points="2133.6,-468.25 2090.6,-468.25 2090.6,-472.25 2078.6,-472.25 2078.6,-432.25 2133.6,-432.25 2133.6,-468.25"/>
<polyline fill="none" stroke="grey" points="2078.6,-468.25 2090.6,-468.25"/>
<text text-anchor="middle" x="2106.1" y="-444.82" font-family="Times New Roman,serif" font-size="14.00">t: Time</text>
</g>
<!-- rover.t&#45;&gt;fmdtools.define.container.time.Time -->
<g id="edge24" class="edge">
<title>rover.t-&gt;fmdtools.define.container.time.Time</title>
<path fill="none" stroke="black" d="M2106.1,-432.02C2106.1,-413.5 2106.1,-383 2106.1,-355.62"/>
<polygon fill="none" stroke="black" points="2109.6,-355.92 2106.1,-345.92 2102.6,-355.92 2109.6,-355.92"/>
<text text-anchor="middle" x="2143.98" y="-395.2" font-family="Times New Roman,serif" font-size="14.00">&lt;inheritance&gt;</text>
<text text-anchor="middle" x="2143.98" y="-379.45" font-family="Times New Roman,serif" font-size="14.00">base</text>
</g>
</g>
</svg>