<svg width="196" height="196" xmlns="http://www.w3.org/2000/svg" xmlns:xlink="http://www.w3.org/1999/xlink" xml:space="preserve" overflow="hidden"><g transform="translate(-63 -74)"><path d="M184.888 210.179C171.413 210.588 166.513 193.233 176.108 183.229L177.538 181.8C187.542 172.204 205.304 176.696 204.896 190.171 204.692 197.929 213.879 207.321 219.392 201.808L242.667 178.533 207.958 143.825C202.446 138.312 211.838 129.125 219.596 129.329 233.071 129.738 237.562 111.975 227.967 101.971L226.538 100.542C216.533 90.9458 199.179 95.8458 199.588 109.321 199.792 117.079 190.604 126.471 185.092 120.958L150.383 86.25 126.904 109.525C121.392 115.038 130.783 124.225 138.542 124.021 152.017 123.613 156.917 140.967 147.321 150.971L145.892 152.4C135.888 161.996 118.125 157.504 118.533 144.029 118.738 136.271 109.55 126.879 104.038 132.392L79.3333 157.3 114.042 192.008C119.554 197.521 110.163 206.708 102.404 206.504 88.9292 206.096 84.4375 223.858 94.0333 233.863L95.4625 235.292C105.467 244.887 122.821 239.988 122.413 226.512 122.208 218.754 131.396 209.363 136.908 214.875L171.617 249.583 196.525 224.675C202.038 219.163 192.85 209.975 184.888 210.179Z" fill="#FF8A02"/></g></svg>