<svg width="4146" height="946" xmlns="http://www.w3.org/2000/svg" xmlns:xlink="http://www.w3.org/1999/xlink" xml:space="preserve" overflow="hidden"><g transform="translate(-121 -594)"><rect x="215" y="726" width="1309" height="200" fill="#B4C7E7"/><rect x="186" y="970" width="1907" height="393" fill="#E2F0D9"/><rect x="226" y="858" width="848" height="115" fill="#F8CBAD"/><rect x="133" y="600" width="1926" height="935" stroke="#4472C4" stroke-width="10.3125" stroke-miterlimit="8" fill="none"/><path d="M298.673 1055.21 1142.92 1055.21 1142.92 1144.21 298.673 1144.21Z" fill="#00FF00" fill-rule="evenodd"/><path d="M1142.92 1055.21 1453.97 1055.21 1453.97 1144.21 1142.92 1144.21Z" fill="#00FF00" fill-rule="evenodd"/><path d="M1453.97 1055.21 2008.74 1055.21 2008.74 1144.21 1453.97 1144.21Z" fill="#00FF00" fill-rule="evenodd"/><path d="M165.757 1143.21 1764.51 1143.21 1764.51 1232.21 165.757 1232.21Z" fill="#00FF00" fill-rule="evenodd"/><path d="M165.757 1231.21 505.955 1231.21 505.955 1320.21 165.757 1320.21Z" fill="#00FF00" fill-rule="evenodd"/><text font-family="Calibri,Calibri_MSFontService,sans-serif" font-weight="400" font-size="73" transform="matrix(1 0 0 1 165.757 685)">class </text><text font-family="Calibri,Calibri_MSFontService,sans-serif" font-weight="400" font-size="73" transform="matrix(1 0 0 1 322.163 685)">FlowName</text><text font-family="Calibri,Calibri_MSFontService,sans-serif" font-weight="400" font-size="73" transform="matrix(1 0 0 1 641.553 685)">(Flow):</text><text font-family="Calibri,Calibri_MSFontService,sans-serif" font-weight="400" font-size="73" transform="matrix(1 0 0 1 232.215 773)">container_s</text><text font-family="Calibri,Calibri_MSFontService,sans-serif" font-weight="400" font-size="73" transform="matrix(1 0 0 1 597.255 773)">= </text><text font-family="Calibri,Calibri_MSFontService,sans-serif" font-weight="400" font-size="73" transform="matrix(1 0 0 1 650.536 773)">StateName</text><text font-family="Calibri,Calibri_MSFontService,sans-serif" font-weight="400" font-size="73" transform="matrix(1 0 0 1 232.215 861)">container_p</text><text font-family="Calibri,Calibri_MSFontService,sans-serif" font-weight="400" font-size="73" transform="matrix(1 0 0 1 606.994 861)">= </text><text font-family="Calibri,Calibri_MSFontService,sans-serif" font-weight="400" font-size="73" transform="matrix(1 0 0 1 660.276 861)">ParameterName</text><text font-family="Calibri,Calibri_MSFontService,sans-serif" font-weight="400" font-size="73" transform="matrix(1 0 0 1 232.215 949)">default_track</text><text font-family="Calibri,Calibri_MSFontService,sans-serif" font-weight="400" font-size="73" transform="matrix(1 0 0 1 643.409 949)">= [‘</text><text font-family="Calibri,Calibri_MSFontService,sans-serif" font-weight="400" font-size="73" transform="matrix(1 0 0 1 735.694 949)">s’,’m</text><text font-family="Calibri,Calibri_MSFontService,sans-serif" font-weight="400" font-size="73" transform="matrix(1 0 0 1 864.073 949)">’]</text><text font-family="Calibri,Calibri_MSFontService,sans-serif" font-weight="400" font-size="73" transform="matrix(1 0 0 1 182.371 1037)">def </text><text font-family="Calibri,Calibri_MSFontService,sans-serif" font-weight="400" font-size="73" transform="matrix(1 0 0 1 295.74 1037)">indicate_XXX</text><text font-family="Calibri,Calibri_MSFontService,sans-serif" font-weight="400" font-size="73" transform="matrix(1 0 0 1 680.946 1037)">(self):</text><text font-family="Calibri,Calibri_MSFontService,sans-serif" font-weight="400" font-size="73" transform="matrix(1 0 0 1 298.673 1125)">Conditional statement (e.g., </text><text font-family="Calibri,Calibri_MSFontService,sans-serif" font-weight="400" font-size="73" transform="matrix(1 0 0 1 1142.92 1125)">self.s.state</text><text font-family="Calibri,Calibri_MSFontService,sans-serif" font-weight="400" font-size="73" transform="matrix(1 0 0 1 1453.97 1125)">&gt;threshold) which </text><text font-family="Calibri,Calibri_MSFontService,sans-serif" font-weight="400" font-size="73" transform="matrix(1 0 0 1 165.757 1213)">is logged in the history and may be used to terminate </text><text font-family="Calibri,Calibri_MSFontService,sans-serif" font-weight="400" font-size="73" transform="matrix(1 0 0 1 165.757 1301)">simulations</text><rect x="2268" y="746" width="1999" height="227" fill="#B4C7E7"/><text font-family="Calibri,Calibri_MSFontService,sans-serif" font-weight="400" font-size="64" transform="matrix(1 0 0 1 2441.04 804)">Specifies which container classes play specific Flow </text><text font-family="Calibri,Calibri_MSFontService,sans-serif" font-weight="700" font-size="64" transform="matrix(1 0 0 1 3779.47 804)">roles </text><text font-family="Calibri,Calibri_MSFontService,sans-serif" font-weight="400" font-size="64" transform="matrix(1 0 0 1 3924.21 804)">(e.g., s </text><text font-family="Calibri,Calibri_MSFontService,sans-serif" font-weight="400" font-size="64" transform="matrix(1 0 0 1 2390.49 881)">corresponds to the state role, p corresponds to a parameter role, m </text><text font-family="Calibri,Calibri_MSFontService,sans-serif" font-weight="400" font-size="64" transform="matrix(1 0 0 1 2815.8 958)">corresponds to the mode role, </text><text font-family="Calibri,Calibri_MSFontService,sans-serif" font-weight="400" font-size="64" transform="matrix(1 0 0 1 3620.59 958)">etc</text><text font-family="Calibri,Calibri_MSFontService,sans-serif" font-weight="400" font-size="64" transform="matrix(1 0 0 1 3700.25 958)">)</text><path d="M2268.35 867.037 1542.17 846.829 1542.55 833.084 2268.73 853.292ZM1548.66 860.765 1508 839 1549.81 819.531Z" fill="#4472C4"/><rect x="2268" y="1255" width="1999" height="184" fill="#E2F0D9"/><text font-family="Calibri,Calibri_MSFontService,sans-serif" font-weight="400" font-size="64" transform="matrix(1 0 0 1 2379.78 1330)">These methods define Flow </text><text font-family="Calibri,Calibri_MSFontService,sans-serif" font-weight="700" font-size="64" transform="matrix(1 0 0 1 3111.95 1330)">indicators</text><text font-family="Calibri,Calibri_MSFontService,sans-serif" font-weight="400" font-size="64" transform="matrix(1 0 0 1 3388.6 1330)">and are called/tracked during </text><text font-family="Calibri,Calibri_MSFontService,sans-serif" font-weight="400" font-size="64" transform="matrix(1 0 0 1 3001.74 1407)">simulation (in </text><text font-family="Calibri,Calibri_MSFontService,sans-serif" font-weight="400" font-size="64" transform="matrix(1 0 0 1 3372.97 1407)">flow.i</text><text font-family="Calibri,Calibri_MSFontService,sans-serif" font-weight="400" font-size="64" transform="matrix(1 0 0 1 3513.56 1407)">)</text><path d="M2265.58 1354.3 1859.66 1252.06 1863.01 1238.73 2268.94 1340.96ZM1862.96 1267.07 1828 1237 1873.04 1227.07Z" fill="#70AD47"/><rect x="2268" y="992" width="1999" height="268" fill="#F8CBAD"/><text font-family="Calibri,Calibri_MSFontService,sans-serif" font-weight="400" font-size="64" transform="matrix(1 0 0 1 2328.08 1070)">Specifies </text><text font-family="Calibri,Calibri_MSFontService,sans-serif" font-weight="700" font-size="64" transform="matrix(1 0 0 1 2571 1070)">what should be tracked</text><text font-family="Calibri,Calibri_MSFontService,sans-serif" font-weight="400" font-size="64" transform="matrix(1 0 0 1 3207.17 1070)">in the </text><text font-family="Calibri,Calibri_MSFontService,sans-serif" font-weight="400" font-size="64" transform="matrix(1 0 0 1 3372.17 1070)">FxnBlock</text><text font-family="Calibri,Calibri_MSFontService,sans-serif" font-weight="400" font-size="64" transform="matrix(1 0 0 1 3617.38 1070)">history (</text><text font-family="Calibri,Calibri_MSFontService,sans-serif" font-weight="400" font-size="64" transform="matrix(1 0 0 1 3831.21 1070)">fxnname.h</text><text font-family="Calibri,Calibri_MSFontService,sans-serif" font-weight="400" font-size="64" transform="matrix(1 0 0 1 4110.22 1070)">) by </text><text font-family="Calibri,Calibri_MSFontService,sans-serif" font-weight="400" font-size="64" transform="matrix(1 0 0 1 2434.33 1147)">default. May be a </text><text font-family="Calibri,Calibri_MSFontService,sans-serif" font-weight="400" font-size="64" transform="matrix(1 0 0 1 2903.38 1147)">dict</text><text font-family="Calibri,Calibri_MSFontService,sans-serif" font-weight="400" font-size="64" transform="matrix(1 0 0 1 3015.1 1147)">({</text><text font-family="Calibri,Calibri_MSFontService,sans-serif" font-weight="400" font-size="64" transform="matrix(1 0 0 1 3054.63 1147)">role:value</text><text font-family="Calibri,Calibri_MSFontService,sans-serif" font-weight="400" font-size="64" transform="matrix(1 0 0 1 3313.91 1147)">}), list ([role1, role2]), or string </text><text font-family="Calibri,Calibri_MSFontService,sans-serif" font-weight="400" font-size="64" transform="matrix(1 0 0 1 2311.88 1224)">(“</text><text font-family="Calibri,Calibri_MSFontService,sans-serif" font-weight="400" font-size="64" transform="matrix(1 0 0 1 2356.73 1224)">all”,”none</text><text font-family="Calibri,Calibri_MSFontService,sans-serif" font-weight="400" font-size="64" transform="matrix(1 0 0 1 2608.84 1224)">”, </text><text font-family="Calibri,Calibri_MSFontService,sans-serif" font-weight="400" font-size="64" transform="matrix(1 0 0 1 2659.92 1224)">etc</text><text font-family="Calibri,Calibri_MSFontService,sans-serif" font-weight="400" font-size="64" transform="matrix(1 0 0 1 2739.58 1224)">). Overwritten by track parameter at model instantiation.</text><path d="M2266.45 1073.85 1065.43 943.543 1066.92 929.873 2267.94 1060.18ZM1070.78 957.954 1032 933 1075.23 916.945Z" fill="#FF8A02"/></g></svg>