<svg xmlns="http://www.w3.org/2000/svg" xmlns:xlink="http://www.w3.org/1999/xlink" width="1581pt" height="633pt" viewBox="0.00 0.00 1580.62 632.75">
<g id="graph0" class="graph" transform="scale(1 1) rotate(0) translate(4 628.75)">
<polygon fill="white" stroke="none" points="-4,4 -4,-628.75 1576.62,-628.75 1576.62,4 -4,4"/>
<!-- rover.fxns.move_rover -->
<g id="node1" class="node">
<title>rover.fxns.move_rover</title>
<polygon fill="lightgrey" stroke="grey" stroke-width="2" points="851.38,-624.75 694.38,-624.75 694.38,-588.75 851.38,-588.75 851.38,-624.75"/>
<text text-anchor="middle" x="772.88" y="-601.33" font-family="Times New Roman,serif" font-size="14.00">move_rover: MoveRover</text>
</g>
<!-- rover.fxns.move_rover.m -->
<g id="node2" class="node">
<title>rover.fxns.move_rover.m</title>
<polygon fill="lightgrey" stroke="grey" points="208.38,-482.5 87.38,-482.5 87.38,-486.5 75.38,-486.5 75.38,-446.5 208.38,-446.5 208.38,-482.5"/>
<polyline fill="none" stroke="grey" points="75.38,-482.5 87.38,-482.5"/>
<text text-anchor="middle" x="141.88" y="-459.07" font-family="Times New Roman,serif" font-size="14.00">m: MoveRoverMode</text>
</g>
<!-- rover.fxns.move_rover&#45;&gt;rover.fxns.move_rover.m -->
<g id="edge1" class="edge">
<title>rover.fxns.move_rover-&gt;rover.fxns.move_rover.m</title>
<path fill="none" stroke="black" d="M680.67,-603.39C538.62,-599.19 278.54,-589.11 239.88,-570.75 199.28,-551.47 167.32,-507.27 151.92,-482.72"/>
<polygon fill="black" stroke="black" points="680.72,-603.39 686.83,-599.56 692.71,-603.74 686.6,-607.56 680.72,-603.39"/>
<text text-anchor="middle" x="281.88" y="-557.45" font-family="Times New Roman,serif" font-size="14.00">&lt;containment&gt;</text>
<text text-anchor="middle" x="281.88" y="-541.7" font-family="Times New Roman,serif" font-size="14.00">m</text>
</g>
<!-- rover.fxns.move_rover.s -->
<g id="node3" class="node">
<title>rover.fxns.move_rover.s</title>
<polygon fill="lightgrey" stroke="grey" points="359.5,-482.5 248.25,-482.5 248.25,-486.5 236.25,-486.5 236.25,-446.5 359.5,-446.5 359.5,-482.5"/>
<polyline fill="none" stroke="grey" points="236.25,-482.5 248.25,-482.5"/>
<text text-anchor="middle" x="297.88" y="-459.07" font-family="Times New Roman,serif" font-size="14.00">s: MoveRoverState</text>
</g>
<!-- rover.fxns.move_rover&#45;&gt;rover.fxns.move_rover.s -->
<g id="edge2" class="edge">
<title>rover.fxns.move_rover-&gt;rover.fxns.move_rover.s</title>
<path fill="none" stroke="black" d="M680.65,-602.59C566.1,-597.97 382.43,-587.98 355.88,-570.75 324.54,-550.43 308.67,-507.07 301.96,-482.82"/>
<polygon fill="black" stroke="black" points="680.68,-602.59 686.84,-598.84 692.67,-603.07 686.52,-606.83 680.68,-602.59"/>
<text text-anchor="middle" x="397.88" y="-557.45" font-family="Times New Roman,serif" font-size="14.00">&lt;containment&gt;</text>
<text text-anchor="middle" x="397.88" y="-541.7" font-family="Times New Roman,serif" font-size="14.00">s</text>
</g>
<!-- rover.fxns.move_rover.sp -->
<g id="node4" class="node">
<title>rover.fxns.move_rover.sp</title>
<polygon fill="lightgrey" stroke="grey" points="480.5,-482.5 399.25,-482.5 399.25,-486.5 387.25,-486.5 387.25,-446.5 480.5,-446.5 480.5,-482.5"/>
<polyline fill="none" stroke="grey" points="387.25,-482.5 399.25,-482.5"/>
<text text-anchor="middle" x="433.88" y="-459.07" font-family="Times New Roman,serif" font-size="14.00">sp: SimParam</text>
</g>
<!-- rover.fxns.move_rover&#45;&gt;rover.fxns.move_rover.sp -->
<g id="edge3" class="edge">
<title>rover.fxns.move_rover-&gt;rover.fxns.move_rover.sp</title>
<path fill="none" stroke="black" d="M680.52,-606.21C601.84,-604.67 496.64,-597.43 464.88,-570.75 438.91,-548.94 434.07,-506.57 433.52,-482.78"/>
<polygon fill="black" stroke="black" points="680.49,-606.21 686.56,-602.3 692.49,-606.4 686.43,-610.3 680.49,-606.21"/>
<text text-anchor="middle" x="506.88" y="-557.45" font-family="Times New Roman,serif" font-size="14.00">&lt;containment&gt;</text>
<text text-anchor="middle" x="506.88" y="-541.7" font-family="Times New Roman,serif" font-size="14.00">sp</text>
</g>
<!-- rover.fxns.move_rover.t -->
<g id="node5" class="node">
<title>rover.fxns.move_rover.t</title>
<polygon fill="lightgrey" stroke="grey" points="553.38,-482.5 510.38,-482.5 510.38,-486.5 498.38,-486.5 498.38,-446.5 553.38,-446.5 553.38,-482.5"/>
<polyline fill="none" stroke="grey" points="498.38,-482.5 510.38,-482.5"/>
<text text-anchor="middle" x="525.88" y="-459.07" font-family="Times New Roman,serif" font-size="14.00">t: Time</text>
</g>
<!-- rover.fxns.move_rover&#45;&gt;rover.fxns.move_rover.t -->
<g id="edge4" class="edge">
<title>rover.fxns.move_rover-&gt;rover.fxns.move_rover.t</title>
<path fill="none" stroke="black" d="M680.57,-596.99C638.88,-591.47 595.31,-583.02 578.88,-570.75 549.7,-548.96 535.47,-506.59 529.51,-482.79"/>
<polygon fill="black" stroke="black" points="680.62,-597 687.07,-593.78 692.52,-598.5 686.07,-601.72 680.62,-597"/>
<text text-anchor="middle" x="620.88" y="-557.45" font-family="Times New Roman,serif" font-size="14.00">&lt;containment&gt;</text>
<text text-anchor="middle" x="620.88" y="-541.7" font-family="Times New Roman,serif" font-size="14.00">t</text>
</g>
<!-- __main__.MoveRover -->
<g id="node17" class="node">
<title>__main__.MoveRover</title>
<polygon fill="lightgrey" stroke="grey" points="684.62,-521.25 571.12,-521.25 571.12,-407.75 684.62,-407.75 684.62,-521.25"/>
<polyline fill="none" stroke="grey" points="583.12,-521.25 571.12,-509.25"/>
<polyline fill="none" stroke="grey" points="571.12,-419.75 583.12,-407.75"/>
<polyline fill="none" stroke="grey" points="672.62,-407.75 684.62,-419.75"/>
<polyline fill="none" stroke="grey" points="684.62,-509.25 672.62,-521.25"/>
<text text-anchor="middle" x="627.88" y="-459.07" font-family="Times New Roman,serif" font-size="14.00">MoveRover: type</text>
</g>
<!-- rover.fxns.move_rover&#45;&gt;__main__.MoveRover -->
<g id="edge11" class="edge">
<title>rover.fxns.move_rover-&gt;__main__.MoveRover</title>
<path fill="none" stroke="black" d="M720,-587.95C710.43,-583.28 701,-577.59 693.12,-570.75 680.22,-559.55 669.03,-545.15 659.75,-530.63"/>
<polygon fill="none" stroke="black" points="662.42,-529.29 654.21,-522.6 656.45,-532.95 662.42,-529.29"/>
<text text-anchor="middle" x="731.75" y="-557.45" font-family="Times New Roman,serif" font-size="14.00">&lt;inheritance&gt;</text>
<text text-anchor="middle" x="731.75" y="-541.7" font-family="Times New Roman,serif" font-size="14.00">base</text>
</g>
<!-- rover.flows.control -->
<g id="node19" class="node">
<title>rover.flows.control</title>
<ellipse fill="lightgrey" stroke="grey" stroke-width="0" cx="772.88" cy="-464.5" rx="70.03" ry="18"/>
<text text-anchor="middle" x="772.88" y="-459.07" font-family="Times New Roman,serif" font-size="14.00">control: Control</text>
</g>
<!-- rover.fxns.move_rover&#45;&gt;rover.flows.control -->
<g id="edge7" class="edge">
<title>rover.fxns.move_rover-&gt;rover.flows.control</title>
<path fill="none" stroke="black" d="M772.88,-575.16C772.88,-546.64 772.88,-505.15 772.88,-482.25"/>
<polygon fill="none" stroke="black" points="772.88,-575.09 776.88,-581.09 772.88,-587.09 768.88,-581.09 772.88,-575.09"/>
<text text-anchor="middle" x="813" y="-557.45" font-family="Times New Roman,serif" font-size="14.00">&lt;aggregation&gt;</text>
<text text-anchor="middle" x="813" y="-541.7" font-family="Times New Roman,serif" font-size="14.00">control</text>
</g>
<!-- rover.flows.ee -->
<g id="node20" class="node">
<title>rover.flows.ee</title>
<ellipse fill="lightgrey" stroke="grey" stroke-width="0" cx="894.88" cy="-464.5" rx="34.1" ry="18"/>
<text text-anchor="middle" x="894.88" y="-459.07" font-family="Times New Roman,serif" font-size="14.00">ee: EE</text>
</g>
<!-- rover.fxns.move_rover&#45;&gt;rover.flows.ee -->
<g id="edge8" class="edge">
<title>rover.fxns.move_rover-&gt;rover.flows.ee</title>
<path fill="none" stroke="black" d="M844.34,-581.3C848.89,-578.18 853.14,-574.67 856.88,-570.75 880.6,-545.86 889.68,-505.07 893.03,-482.27"/>
<polygon fill="none" stroke="black" points="844.34,-581.29 841.24,-587.8 834.04,-587.45 837.14,-580.94 844.34,-581.29"/>
<text text-anchor="middle" x="917" y="-557.45" font-family="Times New Roman,serif" font-size="14.00">&lt;aggregation&gt;</text>
<text text-anchor="middle" x="917" y="-541.7" font-family="Times New Roman,serif" font-size="14.00">ee</text>
</g>
<!-- rover.flows.force -->
<g id="node21" class="node">
<title>rover.flows.force</title>
<ellipse fill="lightgrey" stroke="grey" stroke-width="0" cx="1003.88" cy="-464.5" rx="56.55" ry="18"/>
<text text-anchor="middle" x="1003.88" y="-459.07" font-family="Times New Roman,serif" font-size="14.00">force: Force</text>
</g>
<!-- rover.fxns.move_rover&#45;&gt;rover.flows.force -->
<g id="edge9" class="edge">
<title>rover.fxns.move_rover-&gt;rover.flows.force</title>
<path fill="none" stroke="black" d="M865.1,-596.92C904.88,-591.46 945.75,-583.07 960.88,-570.75 988.27,-548.44 998.38,-505.87 1001.98,-482.28"/>
<polygon fill="none" stroke="black" points="865.05,-596.93 859.62,-601.67 853.16,-598.48 858.59,-593.74 865.05,-596.93"/>
<text text-anchor="middle" x="1025" y="-557.45" font-family="Times New Roman,serif" font-size="14.00">&lt;aggregation&gt;</text>
<text text-anchor="middle" x="1025" y="-541.7" font-family="Times New Roman,serif" font-size="14.00">force</text>
</g>
<!-- rover.flows.ground -->
<g id="node22" class="node">
<title>rover.flows.ground</title>
<ellipse fill="lightgrey" stroke="grey" stroke-width="0" cx="1148.88" cy="-464.5" rx="70.52" ry="18"/>
<text text-anchor="middle" x="1148.88" y="-459.07" font-family="Times New Roman,serif" font-size="14.00">ground: Ground</text>
</g>
<!-- rover.fxns.move_rover&#45;&gt;rover.flows.ground -->
<g id="edge10" class="edge">
<title>rover.fxns.move_rover-&gt;rover.flows.ground</title>
<path fill="none" stroke="black" d="M865.08,-602.66C938.75,-598.77 1035.08,-590.07 1068.88,-570.75 1104.94,-550.13 1130,-506.06 1141.59,-482"/>
<polygon fill="none" stroke="black" points="864.96,-602.67 859.16,-606.96 852.97,-603.26 858.77,-598.97 864.96,-602.67"/>
<text text-anchor="middle" x="1145" y="-557.45" font-family="Times New Roman,serif" font-size="14.00">&lt;aggregation&gt;</text>
<text text-anchor="middle" x="1145" y="-541.7" font-family="Times New Roman,serif" font-size="14.00">ground</text>
</g>
<!-- rover.fxns.move_rover.dynamic_behavior -->
<g id="node23" class="node">
<title>rover.fxns.move_rover.dynamic_behavior</title>
<polygon fill="lightgrey" stroke="grey" points="1404.62,-482.5 1237.12,-482.5 1237.12,-478.5 1233.12,-478.5 1233.12,-474.5 1237.12,-474.5 1237.12,-454.5 1233.12,-454.5 1233.12,-450.5 1237.12,-450.5 1237.12,-446.5 1404.62,-446.5 1404.62,-482.5"/>
<polyline fill="none" stroke="grey" points="1237.12,-478.5 1241.12,-478.5 1241.12,-474.5 1237.12,-474.5"/>
<polyline fill="none" stroke="grey" points="1237.12,-454.5 1241.12,-454.5 1241.12,-450.5 1237.12,-450.5"/>
<text text-anchor="middle" x="1320.88" y="-459.07" font-family="Times New Roman,serif" font-size="14.00">dynamic_behavior: method</text>
</g>
<!-- rover.fxns.move_rover&#45;&gt;rover.fxns.move_rover.dynamic_behavior -->
<g id="edge5" class="edge">
<title>rover.fxns.move_rover-&gt;rover.fxns.move_rover.dynamic_behavior</title>
<path fill="none" stroke="black" d="M865.04,-604.2C969.32,-601.37 1132.04,-593.35 1188.88,-570.75 1237.9,-551.25 1283.24,-507.14 1305.84,-482.67"/>
<polygon fill="black" stroke="black" points="864.89,-604.21 859,-608.36 852.9,-604.51 858.79,-600.36 864.89,-604.21"/>
<text text-anchor="middle" x="1292.25" y="-557.45" font-family="Times New Roman,serif" font-size="14.00">&lt;containment&gt;</text>
<text text-anchor="middle" x="1292.25" y="-541.7" font-family="Times New Roman,serif" font-size="14.00">dynamic_behavior</text>
</g>
<!-- rover.fxns.move_rover.static_behavior -->
<g id="node24" class="node">
<title>rover.fxns.move_rover.static_behavior</title>
<polygon fill="lightgrey" stroke="grey" points="1572.62,-482.5 1423.12,-482.5 1423.12,-478.5 1419.12,-478.5 1419.12,-474.5 1423.12,-474.5 1423.12,-454.5 1419.12,-454.5 1419.12,-450.5 1423.12,-450.5 1423.12,-446.5 1572.62,-446.5 1572.62,-482.5"/>
<polyline fill="none" stroke="grey" points="1423.12,-478.5 1427.12,-478.5 1427.12,-474.5 1423.12,-474.5"/>
<polyline fill="none" stroke="grey" points="1423.12,-454.5 1427.12,-454.5 1427.12,-450.5 1423.12,-450.5"/>
<text text-anchor="middle" x="1497.88" y="-459.07" font-family="Times New Roman,serif" font-size="14.00">static_behavior: method</text>
</g>
<!-- rover.fxns.move_rover&#45;&gt;rover.fxns.move_rover.static_behavior -->
<g id="edge6" class="edge">
<title>rover.fxns.move_rover-&gt;rover.fxns.move_rover.static_behavior</title>
<path fill="none" stroke="black" d="M865.05,-606.2C1004.34,-605.87 1261.42,-600.98 1347.88,-570.75 1401.93,-551.85 1454.13,-507.5 1480.36,-482.82"/>
<polygon fill="black" stroke="black" points="865.25,-606.2 859.26,-610.21 853.25,-606.22 859.25,-602.21 865.25,-606.2"/>
<text text-anchor="middle" x="1447.25" y="-557.45" font-family="Times New Roman,serif" font-size="14.00">&lt;containment&gt;</text>
<text text-anchor="middle" x="1447.25" y="-541.7" font-family="Times New Roman,serif" font-size="14.00">static_behavior</text>
</g>
<!-- __main__.MoveRoverMode -->
<g id="node6" class="node">
<title>__main__.MoveRoverMode</title>
<polygon fill="lightgrey" stroke="grey" points="169.75,-340.25 0,-340.25 0,-170.5 169.75,-170.5 169.75,-340.25"/>
<polyline fill="none" stroke="grey" points="12,-340.25 0,-328.25"/>
<polyline fill="none" stroke="grey" points="0,-182.5 12,-170.5"/>
<polyline fill="none" stroke="grey" points="157.75,-170.5 169.75,-182.5"/>
<polyline fill="none" stroke="grey" points="169.75,-328.25 157.75,-340.25"/>
<text text-anchor="middle" x="84.88" y="-249.95" font-family="Times New Roman,serif" font-size="14.00">MoveRoverMode: datatype</text>
</g>
<!-- rover.fxns.move_rover.m&#45;&gt;__main__.MoveRoverMode -->
<g id="edge12" class="edge">
<title>rover.fxns.move_rover.m-&gt;__main__.MoveRoverMode</title>
<path fill="none" stroke="black" d="M137.11,-446.2C131.24,-424.87 120.81,-386.97 110.81,-350.61"/>
<polygon fill="none" stroke="black" points="114.03,-350.13 108,-341.42 107.28,-351.99 114.03,-350.13"/>
<text text-anchor="middle" x="158.75" y="-376.45" font-family="Times New Roman,serif" font-size="14.00">&lt;inheritance&gt;</text>
<text text-anchor="middle" x="158.75" y="-360.7" font-family="Times New Roman,serif" font-size="14.00">base</text>
</g>
<!-- __main__.MoveRoverState -->
<g id="node8" class="node">
<title>__main__.MoveRoverState</title>
<polygon fill="lightgrey" stroke="grey" points="352.12,-337.62 187.62,-337.62 187.62,-173.12 352.12,-173.12 352.12,-337.62"/>
<polyline fill="none" stroke="grey" points="199.62,-337.62 187.62,-325.62"/>
<polyline fill="none" stroke="grey" points="187.62,-185.12 199.62,-173.12"/>
<polyline fill="none" stroke="grey" points="340.12,-173.12 352.12,-185.12"/>
<polyline fill="none" stroke="grey" points="352.12,-325.62 340.12,-337.62"/>
<text text-anchor="middle" x="269.88" y="-249.95" font-family="Times New Roman,serif" font-size="14.00">MoveRoverState: datatype</text>
</g>
<!-- rover.fxns.move_rover.s&#45;&gt;__main__.MoveRoverState -->
<g id="edge14" class="edge">
<title>rover.fxns.move_rover.s-&gt;__main__.MoveRoverState</title>
<path fill="none" stroke="black" d="M295.54,-446.2C292.61,-424.52 287.36,-385.71 282.37,-348.82"/>
<polygon fill="none" stroke="black" points="285.71,-348.41 280.9,-338.97 278.78,-349.34 285.71,-348.41"/>
<text text-anchor="middle" x="325.75" y="-376.45" font-family="Times New Roman,serif" font-size="14.00">&lt;inheritance&gt;</text>
<text text-anchor="middle" x="325.75" y="-360.7" font-family="Times New Roman,serif" font-size="14.00">base</text>
</g>
<!-- fmdtools.define.block.base.SimParam -->
<g id="node10" class="node">
<title>fmdtools.define.block.base.SimParam</title>
<polygon fill="lightgrey" stroke="grey" points="497.38,-318.88 370.38,-318.88 370.38,-191.88 497.38,-191.88 497.38,-318.88"/>
<polyline fill="none" stroke="grey" points="382.38,-318.88 370.38,-306.88"/>
<polyline fill="none" stroke="grey" points="370.38,-203.88 382.38,-191.88"/>
<polyline fill="none" stroke="grey" points="485.38,-191.88 497.38,-203.88"/>
<polyline fill="none" stroke="grey" points="497.38,-306.88 485.38,-318.88"/>
<text text-anchor="middle" x="433.88" y="-249.95" font-family="Times New Roman,serif" font-size="14.00">SimParam: datatype</text>
</g>
<!-- rover.fxns.move_rover.sp&#45;&gt;fmdtools.define.block.base.SimParam -->
<g id="edge16" class="edge">
<title>rover.fxns.move_rover.sp-&gt;fmdtools.define.block.base.SimParam</title>
<path fill="none" stroke="black" d="M433.88,-446.2C433.88,-420.8 433.88,-371.89 433.88,-330.09"/>
<polygon fill="none" stroke="black" points="437.38,-330.35 433.88,-320.35 430.38,-330.35 437.38,-330.35"/>
<text text-anchor="middle" x="471.75" y="-376.45" font-family="Times New Roman,serif" font-size="14.00">&lt;inheritance&gt;</text>
<text text-anchor="middle" x="471.75" y="-360.7" font-family="Times New Roman,serif" font-size="14.00">base</text>
</g>
<!-- fmdtools.define.container.time.Time -->
<g id="node11" class="node">
<title>fmdtools.define.container.time.Time</title>
<polygon fill="lightgrey" stroke="grey" points="614.12,-304.62 515.62,-304.62 515.62,-206.12 614.12,-206.12 614.12,-304.62"/>
<polyline fill="none" stroke="grey" points="527.62,-304.62 515.62,-292.62"/>
<polyline fill="none" stroke="grey" points="515.62,-218.12 527.62,-206.12"/>
<polyline fill="none" stroke="grey" points="602.12,-206.12 614.12,-218.12"/>
<polyline fill="none" stroke="grey" points="614.12,-292.62 602.12,-304.62"/>
<text text-anchor="middle" x="564.88" y="-249.95" font-family="Times New Roman,serif" font-size="14.00">Time: datatype</text>
</g>
<!-- rover.fxns.move_rover.t&#45;&gt;fmdtools.define.container.time.Time -->
<g id="edge17" class="edge">
<title>rover.fxns.move_rover.t-&gt;fmdtools.define.container.time.Time</title>
<path fill="none" stroke="black" d="M529.13,-446.2C534.48,-417.81 545.35,-360.09 553.7,-315.7"/>
<polygon fill="none" stroke="black" points="557.3,-316.5 555.72,-306.02 550.43,-315.2 557.3,-316.5"/>
<text text-anchor="middle" x="583.75" y="-376.45" font-family="Times New Roman,serif" font-size="14.00">&lt;inheritance&gt;</text>
<text text-anchor="middle" x="583.75" y="-360.7" font-family="Times New Roman,serif" font-size="14.00">base</text>
</g>
<!-- fmdtools.define.container.mode.Mode -->
<g id="node7" class="node">
<title>fmdtools.define.container.mode.Mode</title>
<polygon fill="lightgrey" stroke="grey" points="136.38,-103 33.38,-103 33.38,0 136.38,0 136.38,-103"/>
<polyline fill="none" stroke="grey" points="45.38,-103 33.38,-91"/>
<polyline fill="none" stroke="grey" points="33.38,-12 45.38,0"/>
<polyline fill="none" stroke="grey" points="124.38,0 136.38,-12"/>
<polyline fill="none" stroke="grey" points="136.38,-91 124.38,-103"/>
<text text-anchor="middle" x="84.88" y="-46.08" font-family="Times New Roman,serif" font-size="14.00">Mode: datatype</text>
</g>
<!-- __main__.MoveRoverMode&#45;&gt;fmdtools.define.container.mode.Mode -->
<g id="edge13" class="edge">
<title>__main__.MoveRoverMode-&gt;fmdtools.define.container.mode.Mode</title>
<path fill="none" stroke="black" d="M84.88,-170.22C84.88,-151.41 84.88,-131.79 84.88,-114.09"/>
<polygon fill="none" stroke="black" points="88.38,-114.34 84.88,-104.34 81.38,-114.34 88.38,-114.34"/>
<text text-anchor="middle" x="122.75" y="-139.2" font-family="Times New Roman,serif" font-size="14.00">&lt;inheritance&gt;</text>
<text text-anchor="middle" x="122.75" y="-123.45" font-family="Times New Roman,serif" font-size="14.00">base</text>
</g>
<!-- fmdtools.define.container.state.State -->
<g id="node9" class="node">
<title>fmdtools.define.container.state.State</title>
<polygon fill="lightgrey" stroke="grey" points="318.75,-100.38 221,-100.38 221,-2.62 318.75,-2.62 318.75,-100.38"/>
<polyline fill="none" stroke="grey" points="233,-100.38 221,-88.38"/>
<polyline fill="none" stroke="grey" points="221,-14.62 233,-2.62"/>
<polyline fill="none" stroke="grey" points="306.75,-2.62 318.75,-14.62"/>
<polyline fill="none" stroke="grey" points="318.75,-88.38 306.75,-100.38"/>
<text text-anchor="middle" x="269.88" y="-46.08" font-family="Times New Roman,serif" font-size="14.00">State: datatype</text>
</g>
<!-- __main__.MoveRoverState&#45;&gt;fmdtools.define.container.state.State -->
<g id="edge15" class="edge">
<title>__main__.MoveRoverState-&gt;fmdtools.define.container.state.State</title>
<path fill="none" stroke="black" d="M269.88,-172.85C269.88,-152.36 269.88,-130.76 269.88,-111.6"/>
<polygon fill="none" stroke="black" points="273.38,-111.63 269.88,-101.63 266.38,-111.63 273.38,-111.63"/>
<text text-anchor="middle" x="307.75" y="-139.2" font-family="Times New Roman,serif" font-size="14.00">&lt;inheritance&gt;</text>
<text text-anchor="middle" x="307.75" y="-123.45" font-family="Times New Roman,serif" font-size="14.00">base</text>
</g>
<!-- __main__.Control -->
<g id="node12" class="node">
<title>__main__.Control</title>
<polygon fill="lightgrey" stroke="grey" points="838.62,-300.12 749.12,-300.12 749.12,-210.62 838.62,-210.62 838.62,-300.12"/>
<polyline fill="none" stroke="grey" points="761.12,-300.12 749.12,-288.12"/>
<polyline fill="none" stroke="grey" points="749.12,-222.62 761.12,-210.62"/>
<polyline fill="none" stroke="grey" points="826.62,-210.62 838.62,-222.62"/>
<polyline fill="none" stroke="grey" points="838.62,-288.12 826.62,-300.12"/>
<text text-anchor="middle" x="793.88" y="-249.95" font-family="Times New Roman,serif" font-size="14.00">Control: type</text>
</g>
<!-- fmdtools.define.flow.base.Flow -->
<g id="node13" class="node">
<title>fmdtools.define.flow.base.Flow</title>
<polygon fill="lightgrey" stroke="grey" points="986.5,-89.12 911.25,-89.12 911.25,-13.88 986.5,-13.88 986.5,-89.12"/>
<polyline fill="none" stroke="grey" points="923.25,-89.12 911.25,-77.12"/>
<polyline fill="none" stroke="grey" points="911.25,-25.87 923.25,-13.88"/>
<polyline fill="none" stroke="grey" points="974.5,-13.88 986.5,-25.88"/>
<polyline fill="none" stroke="grey" points="986.5,-77.12 974.5,-89.12"/>
<text text-anchor="middle" x="948.88" y="-46.08" font-family="Times New Roman,serif" font-size="14.00">Flow: type</text>
</g>
<!-- __main__.Control&#45;&gt;fmdtools.define.flow.base.Flow -->
<g id="edge19" class="edge">
<title>__main__.Control-&gt;fmdtools.define.flow.base.Flow</title>
<path fill="none" stroke="black" d="M791.17,-210.32C791.64,-182.31 796.53,-146.62 815.12,-121 835.68,-92.67 871.44,-75.22 900.81,-65.02"/>
<polygon fill="none" stroke="black" points="901.48,-68.16 909.89,-61.72 899.3,-61.51 901.48,-68.16"/>
<text text-anchor="middle" x="853.75" y="-139.2" font-family="Times New Roman,serif" font-size="14.00">&lt;inheritance&gt;</text>
<text text-anchor="middle" x="853.75" y="-123.45" font-family="Times New Roman,serif" font-size="14.00">base</text>
</g>
<!-- __main__.EE -->
<g id="node14" class="node">
<title>__main__.EE</title>
<polygon fill="lightgrey" stroke="grey" points="930.5,-287 867.25,-287 867.25,-223.75 930.5,-223.75 930.5,-287"/>
<polyline fill="none" stroke="grey" points="879.25,-287 867.25,-275"/>
<polyline fill="none" stroke="grey" points="867.25,-235.75 879.25,-223.75"/>
<polyline fill="none" stroke="grey" points="918.5,-223.75 930.5,-235.75"/>
<polyline fill="none" stroke="grey" points="930.5,-275 918.5,-287"/>
<text text-anchor="middle" x="898.88" y="-249.95" font-family="Times New Roman,serif" font-size="14.00">EE: type</text>
</g>
<!-- __main__.EE&#45;&gt;fmdtools.define.flow.base.Flow -->
<g id="edge21" class="edge">
<title>__main__.EE-&gt;fmdtools.define.flow.base.Flow</title>
<path fill="none" stroke="black" d="M894.38,-223.35C891.55,-195.77 890.22,-154.71 901.12,-121 903.63,-113.24 907.35,-105.59 911.61,-98.36"/>
<polygon fill="none" stroke="black" points="914.85,-100.78 917.26,-90.47 908.94,-97.03 914.85,-100.78"/>
<text text-anchor="middle" x="939.75" y="-139.2" font-family="Times New Roman,serif" font-size="14.00">&lt;inheritance&gt;</text>
<text text-anchor="middle" x="939.75" y="-123.45" font-family="Times New Roman,serif" font-size="14.00">base</text>
</g>
<!-- __main__.Force -->
<g id="node15" class="node">
<title>__main__.Force</title>
<polygon fill="lightgrey" stroke="grey" points="1038.75,-295.25 959,-295.25 959,-215.5 1038.75,-215.5 1038.75,-295.25"/>
<polyline fill="none" stroke="grey" points="971,-295.25 959,-283.25"/>
<polyline fill="none" stroke="grey" points="959,-227.5 971,-215.5"/>
<polyline fill="none" stroke="grey" points="1026.75,-215.5 1038.75,-227.5"/>
<polyline fill="none" stroke="grey" points="1038.75,-283.25 1026.75,-295.25"/>
<text text-anchor="middle" x="998.88" y="-249.95" font-family="Times New Roman,serif" font-size="14.00">Force: type</text>
</g>
<!-- __main__.Force&#45;&gt;fmdtools.define.flow.base.Flow -->
<g id="edge23" class="edge">
<title>__main__.Force-&gt;fmdtools.define.flow.base.Flow</title>
<path fill="none" stroke="black" d="M994.75,-215.06C991.36,-188.22 985.66,-152.05 976.88,-121 974.88,-113.94 972.38,-106.62 969.7,-99.51"/>
<polygon fill="none" stroke="black" points="972.6,-98.32 965.68,-90.29 966.08,-100.88 972.6,-98.32"/>
<text text-anchor="middle" x="1022.75" y="-139.2" font-family="Times New Roman,serif" font-size="14.00">&lt;inheritance&gt;</text>
<text text-anchor="middle" x="1022.75" y="-123.45" font-family="Times New Roman,serif" font-size="14.00">base</text>
</g>
<!-- __main__.Ground -->
<g id="node16" class="node">
<title>__main__.Ground</title>
<polygon fill="lightgrey" stroke="grey" points="1149,-300.5 1058.75,-300.5 1058.75,-210.25 1149,-210.25 1149,-300.5"/>
<polyline fill="none" stroke="grey" points="1070.75,-300.5 1058.75,-288.5"/>
<polyline fill="none" stroke="grey" points="1058.75,-222.25 1070.75,-210.25"/>
<polyline fill="none" stroke="grey" points="1137,-210.25 1149,-222.25"/>
<polyline fill="none" stroke="grey" points="1149,-288.5 1137,-300.5"/>
<text text-anchor="middle" x="1103.88" y="-249.95" font-family="Times New Roman,serif" font-size="14.00">Ground: type</text>
</g>
<!-- __main__.Ground&#45;&gt;fmdtools.define.flow.base.Flow -->
<g id="edge25" class="edge">
<title>__main__.Ground-&gt;fmdtools.define.flow.base.Flow</title>
<path fill="none" stroke="black" d="M1099.27,-209.76C1094.47,-181.87 1084.72,-146.52 1064.88,-121 1047.41,-98.54 1020.36,-81.96 996.77,-70.75"/>
<polygon fill="none" stroke="black" points="998.46,-67.22 987.91,-66.26 995.57,-73.59 998.46,-67.22"/>
<text text-anchor="middle" x="1120.75" y="-139.2" font-family="Times New Roman,serif" font-size="14.00">&lt;inheritance&gt;</text>
<text text-anchor="middle" x="1120.75" y="-123.45" font-family="Times New Roman,serif" font-size="14.00">base</text>
</g>
<!-- fmdtools.define.block.function.Function -->
<g id="node18" class="node">
<title>fmdtools.define.block.function.Function</title>
<polygon fill="lightgrey" stroke="grey" points="728,-303.5 631.75,-303.5 631.75,-207.25 728,-207.25 728,-303.5"/>
<polyline fill="none" stroke="grey" points="643.75,-303.5 631.75,-291.5"/>
<polyline fill="none" stroke="grey" points="631.75,-219.25 643.75,-207.25"/>
<polyline fill="none" stroke="grey" points="716,-207.25 728,-219.25"/>
<polyline fill="none" stroke="grey" points="728,-291.5 716,-303.5"/>
<text text-anchor="middle" x="679.88" y="-249.95" font-family="Times New Roman,serif" font-size="14.00">Function: type</text>
</g>
<!-- __main__.MoveRover&#45;&gt;fmdtools.define.block.function.Function -->
<g id="edge26" class="edge">
<title>__main__.MoveRover-&gt;fmdtools.define.block.function.Function</title>
<path fill="none" stroke="black" d="M641.95,-407.45C649.21,-378.53 658.05,-343.31 665.37,-314.15"/>
<polygon fill="none" stroke="black" points="668.95,-315.25 667.99,-304.7 662.16,-313.55 668.95,-315.25"/>
<text text-anchor="middle" x="691.75" y="-376.45" font-family="Times New Roman,serif" font-size="14.00">&lt;inheritance&gt;</text>
<text text-anchor="middle" x="691.75" y="-360.7" font-family="Times New Roman,serif" font-size="14.00">base</text>
</g>
<!-- rover.flows.control&#45;&gt;__main__.Control -->
<g id="edge18" class="edge">
<title>rover.flows.control-&gt;__main__.Control</title>
<path fill="none" stroke="black" d="M774.59,-446.55C777.55,-417.36 783.73,-356.41 788.3,-311.34"/>
<polygon fill="none" stroke="black" points="791.87,-311.85 789.4,-301.54 784.91,-311.14 791.87,-311.85"/>
<text text-anchor="middle" x="821.75" y="-376.45" font-family="Times New Roman,serif" font-size="14.00">&lt;inheritance&gt;</text>
<text text-anchor="middle" x="821.75" y="-360.7" font-family="Times New Roman,serif" font-size="14.00">base</text>
</g>
<!-- rover.flows.ee&#45;&gt;__main__.EE -->
<g id="edge20" class="edge">
<title>rover.flows.ee-&gt;__main__.EE</title>
<path fill="none" stroke="black" d="M895.2,-446.55C895.82,-414.33 897.19,-343.39 898.07,-297.85"/>
<polygon fill="none" stroke="black" points="901.59,-298.21 898.28,-288.14 894.59,-298.07 901.59,-298.21"/>
<text text-anchor="middle" x="934.75" y="-376.45" font-family="Times New Roman,serif" font-size="14.00">&lt;inheritance&gt;</text>
<text text-anchor="middle" x="934.75" y="-360.7" font-family="Times New Roman,serif" font-size="14.00">base</text>
</g>
<!-- rover.flows.force&#45;&gt;__main__.Force -->
<g id="edge22" class="edge">
<title>rover.flows.force-&gt;__main__.Force</title>
<path fill="none" stroke="black" d="M1003.47,-446.55C1002.74,-416.29 1001.18,-351.9 1000.08,-306.45"/>
<polygon fill="none" stroke="black" points="1003.56,-306.53 999.82,-296.62 996.56,-306.7 1003.56,-306.53"/>
<text text-anchor="middle" x="1040.75" y="-376.45" font-family="Times New Roman,serif" font-size="14.00">&lt;inheritance&gt;</text>
<text text-anchor="middle" x="1040.75" y="-360.7" font-family="Times New Roman,serif" font-size="14.00">base</text>
</g>
<!-- rover.flows.ground&#45;&gt;__main__.Ground -->
<g id="edge24" class="edge">
<title>rover.flows.ground-&gt;__main__.Ground</title>
<path fill="none" stroke="black" d="M1145.19,-446.55C1138.86,-417.39 1125.63,-356.53 1115.85,-311.47"/>
<polygon fill="none" stroke="black" points="1119.11,-310.99 1113.56,-301.96 1112.27,-312.48 1119.11,-310.99"/>
<text text-anchor="middle" x="1169.75" y="-376.45" font-family="Times New Roman,serif" font-size="14.00">&lt;inheritance&gt;</text>
<text text-anchor="middle" x="1169.75" y="-360.7" font-family="Times New Roman,serif" font-size="14.00">base</text>
</g>
</g>
</svg>