<svg width="1280" height="720" xmlns="http://www.w3.org/2000/svg" xmlns:xlink="http://www.w3.org/1999/xlink" overflow="hidden"><g><rect x="0" y="0" width="1280" height="720" fill="#FFFFFF"/><rect x="417" y="537" width="703" height="88" fill="#F1D9F1"/><rect x="412" y="403" width="708" height="124" fill="#E2F0D9"/><rect x="412" y="213" width="708" height="181" fill="#D0CECE"/><rect x="437" y="185" width="276" height="22" fill="#F8CBAD"/><rect x="437" y="155" width="339" height="29" fill="#C5E0B4"/><rect x="437" y="132" width="228" height="20" fill="#B4C7E7"/><rect x="410.5" y="69.5001" width="707" height="550" stroke="#4472C4" stroke-width="3" stroke-miterlimit="8" fill="none"/><path d="M458.167 432.012 650.707 432.012 650.707 458.012 458.167 458.012Z" fill="#00FF00" fill-rule="evenodd"/><path d="M458.167 458.012 506.393 458.012 506.393 484.012 458.167 484.012Z" fill="#00FF00" fill-rule="evenodd"/><path d="M506.393 458.012 575.387 458.012 575.387 484.012 506.393 484.012Z" fill="#00FF00" fill-rule="evenodd"/><path d="M575.387 458.012 590.887 458.012 590.887 484.012 575.387 484.012Z" fill="#00FF00" fill-rule="evenodd"/><path d="M590.887 458.012 712.22 458.012 712.22 484.012 590.887 484.012Z" fill="#00FF00" fill-rule="evenodd"/><path d="M712.22 458.012 733.053 458.012 733.053 484.012 712.22 484.012Z" fill="#00FF00" fill-rule="evenodd"/><path d="M733.053 458.012 789.293 458.012 789.293 484.012 733.053 484.012Z" fill="#00FF00" fill-rule="evenodd"/><path d="M789.293 458.012 889.513 458.012 889.513 484.012 789.293 484.012Z" fill="#00FF00" fill-rule="evenodd"/><path d="M419.5 484.012 424.333 484.012 424.333 510.012 419.5 510.012Z" fill="#00FF00" fill-rule="evenodd"/><path d="M424.333 484.012 1044.73 484.012 1044.73 510.012 424.333 510.012Z" fill="#00FF00" fill-rule="evenodd"/><path d="M419.5 560.012 458.167 560.012 458.167 586.012 419.5 586.012Z" fill="#E997E9" fill-rule="evenodd"/><path d="M458.167 560.012 920.813 560.012 920.813 586.012 458.167 586.012Z" fill="#E997E9" fill-rule="evenodd"/><text font-family="Calibri,Calibri_MSFontService,sans-serif" font-weight="400" font-size="21" transform="translate(419.5 94)">class</text><text font-family="Calibri,Calibri_MSFontService,sans-serif" font-weight="400" font-size="21" transform="translate(465 94)">ArchitectureName</text><text font-family="Calibri,Calibri_MSFontService,sans-serif" font-weight="400" font-size="21" transform="translate(624.013 94)">(</text><text font-family="Calibri,Calibri_MSFontService,sans-serif" font-weight="400" font-size="21" transform="translate(630.513 94)">FunctionArchitecture</text><text font-family="Calibri,Calibri_MSFontService,sans-serif" font-weight="400" font-size="21" transform="translate(813.527 94)">):</text><text font-family="Calibri,Calibri_MSFontService,sans-serif" font-weight="400" font-size="21" transform="translate(438.833 120)">__slots__ = ()</text><text font-family="Calibri,Calibri_MSFontService,sans-serif" font-weight="400" font-size="21" transform="translate(438.833 145)">container_p</text><text font-family="Calibri,Calibri_MSFontService,sans-serif" font-weight="400" font-size="21" transform="translate(543.027 145)">=</text><text font-family="Calibri,Calibri_MSFontService,sans-serif" font-weight="400" font-size="21" transform="translate(558.527 145)">ModelParam</text><text font-family="Calibri,Calibri_MSFontService,sans-serif" font-weight="400" font-size="21" transform="translate(438.833 171)">default_sp</text><text font-family="Calibri,Calibri_MSFontService,sans-serif" font-weight="400" font-size="21" transform="translate(534.893 171)">= {‘</text><text font-family="Calibri,Calibri_MSFontService,sans-serif" font-weight="400" font-size="21" transform="translate(561.487 171)">end_time</text><text font-family="Calibri,Calibri_MSFontService,sans-serif" font-weight="400" font-size="21" transform="translate(644.82 171)">’:</text><text font-family="Calibri,Calibri_MSFontService,sans-serif" font-weight="400" font-size="21" transform="translate(660.653 171)">100</text><text font-family="Calibri,Calibri_MSFontService,sans-serif" font-weight="400" font-size="21" transform="translate(693.153 171)">}</text><text font-family="Calibri,Calibri_MSFontService,sans-serif" font-weight="400" font-size="21" transform="translate(438.833 196)">default_track</text><text font-family="Calibri,Calibri_MSFontService,sans-serif" font-weight="400" font-size="21" transform="translate(558.453 196)">= [“</text><text font-family="Calibri,Calibri_MSFontService,sans-serif" font-weight="400" font-size="21" transform="translate(589.453 196)">fxns</text><text font-family="Calibri,Calibri_MSFontService,sans-serif" font-weight="400" font-size="21" transform="translate(624.62 196)">”, “flows]</text><text font-family="Calibri,Calibri_MSFontService,sans-serif" font-weight="400" font-size="21" transform="translate(438.833 248)">def</text><text font-family="Calibri,Calibri_MSFontService,sans-serif" font-weight="400" font-size="21" transform="translate(471.813 248)">init_architecture</text><text font-family="Calibri,Calibri_MSFontService,sans-serif" font-weight="400" font-size="21" transform="translate(615.66 248)">(self, **</text><text font-family="Calibri,Calibri_MSFontService,sans-serif" font-weight="400" font-size="21" transform="translate(682.68 248)">kwargs</text><text font-family="Calibri,Calibri_MSFontService,sans-serif" font-weight="400" font-size="21" transform="translate(743.147 248)">):</text><text font-family="Calibri,Calibri_MSFontService,sans-serif" font-weight="400" font-size="21" transform="translate(458.167 273)">self.add_flow</text><text font-family="Calibri,Calibri_MSFontService,sans-serif" font-weight="400" font-size="21" transform="translate(573.493 273)">(“</text><text font-family="Calibri,Calibri_MSFontService,sans-serif" font-weight="400" font-size="21" transform="translate(588.993 273)">flowname</text><text font-family="Calibri,Calibri_MSFontService,sans-serif" font-weight="400" font-size="21" transform="translate(675.907 273)">”,</text><text font-family="Calibri,Calibri_MSFontService,sans-serif" font-weight="400" font-size="21" transform="translate(693.013 273)">FlowClass</text><text font-family="Calibri,Calibri_MSFontService,sans-serif" font-weight="400" font-size="21" transform="translate(777.26 273)">)</text><text font-family="Calibri,Calibri_MSFontService,sans-serif" font-weight="400" font-size="21" transform="translate(458.167 299)">…</text><text font-family="Calibri,Calibri_MSFontService,sans-serif" font-weight="400" font-size="21" transform="translate(458.167 324)">self.add_fxn</text><text font-family="Calibri,Calibri_MSFontService,sans-serif" font-weight="400" font-size="21" transform="translate(562.413 324)">(“</text><text font-family="Calibri,Calibri_MSFontService,sans-serif" font-weight="400" font-size="21" transform="translate(577.913 324)">functionname</text><text font-family="Calibri,Calibri_MSFontService,sans-serif" font-weight="400" font-size="21" transform="translate(699.247 324)">”,</text><text font-family="Calibri,Calibri_MSFontService,sans-serif" font-weight="400" font-size="21" transform="translate(716.353 324)">FunctionClass</text><text font-family="Calibri,Calibri_MSFontService,sans-serif" font-weight="400" font-size="21" transform="translate(835.02 324)">, “flowname1”, “flowname2”)</text><text font-family="Calibri,Calibri_MSFontService,sans-serif" font-weight="400" font-size="21" transform="translate(458.167 350)">…</text><text font-family="Calibri,Calibri_MSFontService,sans-serif" font-weight="400" font-size="21" transform="translate(419.5 427)">def</text><text font-family="Calibri,Calibri_MSFontService,sans-serif" font-weight="400" font-size="21" transform="translate(452.48 427)">indicate_XXX</text><text font-family="Calibri,Calibri_MSFontService,sans-serif" font-weight="400" font-size="21" transform="translate(564.54 427)">(self, time):</text><text font-family="Calibri,Calibri_MSFontService,sans-serif" font-weight="400" font-size="21" transform="translate(458.167 452)">Conditional statement</text><text font-family="Calibri,Calibri_MSFontService,sans-serif" font-weight="400" font-size="21" transform="translate(458.167 478)">(e.g.,</text><text font-family="Calibri,Calibri_MSFontService,sans-serif" font-weight="400" font-size="21" transform="translate(506.393 478)">self.fxns</text><text font-family="Calibri,Calibri_MSFontService,sans-serif" font-weight="400" font-size="21" transform="translate(575.387 478)">[“</text><text font-family="Calibri,Calibri_MSFontService,sans-serif" font-weight="400" font-size="21" transform="translate(590.887 478)">functionname</text><text font-family="Calibri,Calibri_MSFontService,sans-serif" font-weight="400" font-size="21" transform="translate(712.22 478)">”].</text><text font-family="Calibri,Calibri_MSFontService,sans-serif" font-weight="400" font-size="21" transform="translate(733.053 478)">s.state</text><text font-family="Calibri,Calibri_MSFontService,sans-serif" font-weight="400" font-size="21" transform="translate(789.293 478)">&gt;threshold)</text><text font-family="Calibri,Calibri_MSFontService,sans-serif" font-weight="400" font-size="21" transform="translate(419.5 504)"></text><text font-family="Calibri,Calibri_MSFontService,sans-serif" font-weight="400" font-size="21" transform="translate(424.333 504)">which is logged in the history and may be used to terminate simulations</text><text font-family="Calibri,Calibri_MSFontService,sans-serif" font-weight="400" font-size="21" transform="translate(419.5 555)">def</text><text font-family="Calibri,Calibri_MSFontService,sans-serif" font-weight="400" font-size="21" transform="translate(452.48 555)">find_classification</text><text font-family="Calibri,Calibri_MSFontService,sans-serif" font-weight="400" font-size="21" transform="translate(606.933 555)">(self, time):</text><text font-family="Calibri,Calibri_MSFontService,sans-serif" font-weight="400" font-size="21" transform="translate(419.5 580)"></text><text font-family="Calibri,Calibri_MSFontService,sans-serif" font-weight="400" font-size="21" transform="translate(458.167 580)">Returns a Result dictionary (calculated at completion)</text><rect x="831" y="173" width="428" height="99" fill="#F8CBAD"/><text font-family="Calibri,Calibri_MSFontService,sans-serif" font-weight="400" font-size="19" transform="translate(868.676 194)">Specifies</text><text font-family="Calibri,Calibri_MSFontService,sans-serif" font-weight="700" font-size="19" transform="translate(939.342 194)">what should be tracked</text><text font-family="Calibri,Calibri_MSFontService,sans-serif" font-weight="400" font-size="19" transform="translate(1124.41 194)">in the Model</text><text font-family="Calibri,Calibri_MSFontService,sans-serif" font-weight="400" font-size="19" transform="translate(856.562 217)">history by default. May be a</text><text font-family="Calibri,Calibri_MSFontService,sans-serif" font-weight="400" font-size="19" transform="translate(1071.96 217)">dict</text><text font-family="Calibri,Calibri_MSFontService,sans-serif" font-weight="400" font-size="19" transform="translate(1104.46 217)">({</text><text font-family="Calibri,Calibri_MSFontService,sans-serif" font-weight="400" font-size="19" transform="translate(1115.96 217)">role:value</text><text font-family="Calibri,Calibri_MSFontService,sans-serif" font-weight="400" font-size="19" transform="translate(1191.39 217)">}), list</text><text font-family="Calibri,Calibri_MSFontService,sans-serif" font-weight="400" font-size="19" transform="translate(884.649 239)">([role1, role2]), or string (“</text><text font-family="Calibri,Calibri_MSFontService,sans-serif" font-weight="400" font-size="19" transform="translate(1084.06 239)">all”,”none</text><text font-family="Calibri,Calibri_MSFontService,sans-serif" font-weight="400" font-size="19" transform="translate(1157.4 239)">”,</text><text font-family="Calibri,Calibri_MSFontService,sans-serif" font-weight="400" font-size="19" transform="translate(1172.26 239)">etc</text><text font-family="Calibri,Calibri_MSFontService,sans-serif" font-weight="400" font-size="19" transform="translate(1195.43 239)">).</text><text font-family="Calibri,Calibri_MSFontService,sans-serif" font-weight="400" font-size="19" transform="translate(872.769 262)">Overwritten by the track option in propagate.</text><rect x="776" y="126" width="483" height="51" fill="#B4C7E7"/><text font-family="Calibri,Calibri_MSFontService,sans-serif" font-weight="400" font-size="19" transform="translate(815.875 146)">Points to a Parameter representing immutable model</text><text font-family="Calibri,Calibri_MSFontService,sans-serif" font-weight="400" font-size="19" transform="translate(804.882 169)">characteristics instantiated at the start of the simulation</text><rect x="22" y="235" width="368" height="133" fill="#D0CECE"/><text font-family="Calibri,Calibri_MSFontService,sans-serif" font-weight="400" font-size="19" transform="translate(36.5492 262)">Method to</text><text font-family="Calibri,Calibri_MSFontService,sans-serif" font-weight="700" font-size="19" transform="translate(121.936 262)">instantiate the model and define</text><text font-family="Calibri,Calibri_MSFontService,sans-serif" font-weight="700" font-size="19" transform="translate(154.063 285)">its structure:</text><text font-family="Calibri,Calibri_MSFontService,sans-serif" font-weight="400" font-size="19" transform="translate(252.649 285)">,</text><text font-family="Calibri,Calibri_MSFontService,sans-serif" font-weight="400" font-size="19" transform="translate(31.2759 307)">-</text><text font-family="Calibri,Calibri_MSFontService,sans-serif" font-weight="700" font-size="19" transform="translate(61.2759 307)">.</text><text font-family="Calibri,Calibri_MSFontService,sans-serif" font-weight="700" font-size="19" transform="translate(66.2759 307)">add_flow</text><text font-family="Calibri,Calibri_MSFontService,sans-serif" font-weight="400" font-size="19" transform="translate(143.243 307)">is used to instantiate a flow</text><text font-family="Calibri,Calibri_MSFontService,sans-serif" font-weight="400" font-size="19" transform="translate(31.2759 330)">-</text><text font-family="Calibri,Calibri_MSFontService,sans-serif" font-weight="400" font-size="19" transform="translate(61.2759 330)">.</text><text font-family="Calibri,Calibri_MSFontService,sans-serif" font-weight="700" font-size="19" transform="translate(65.9426 330)">add_fxn</text><text font-family="Calibri,Calibri_MSFontService,sans-serif" font-weight="400" font-size="19" transform="translate(132.943 330)">is used to instantiate a function</text><text font-family="Calibri,Calibri_MSFontService,sans-serif" font-weight="400" font-size="19" transform="translate(61.2759 352)">and attach connected flows</text><path d="M2.37775e-06-2 78.3077-1.99991 78.3077 2.00009-2.37775e-06 2ZM76.3077-5.99991 88.3077 0.000104987 76.3077 6.00009Z" fill="#4472C4" transform="matrix(-1 0 0 1 776.308 146)"/><path d="M721 194 821.145 194 821.145 198 721 198ZM819.145 190 831.145 196 819.145 202Z" fill="#C55A11"/><path d="M339.005 165 422.164 165.217 422.154 169.217 338.995 169ZM420.175 161.212 432.159 167.243 420.143 173.212Z" fill="#70AD47"/><path d="M384 311 405.722 311 405.722 315 384 315ZM403.722 307 415.722 313 403.722 319Z" fill="#7F7F7F"/><rect x="40" y="431" width="319" height="78" fill="#E2F0D9"/><text font-family="Calibri,Calibri_MSFontService,sans-serif" font-weight="400" font-size="19" transform="translate(88.4573 453)">These methods define Model</text><text font-family="Calibri,Calibri_MSFontService,sans-serif" font-weight="700" font-size="19" transform="translate(74.5239 476)">indicators</text><text font-family="Calibri,Calibri_MSFontService,sans-serif" font-weight="400" font-size="19" transform="translate(155.004 476)">and are called/tracked</text><text font-family="Calibri,Calibri_MSFontService,sans-serif" font-weight="400" font-size="19" transform="translate(65.9906 498)">during simulation (in</text><text font-family="Calibri,Calibri_MSFontService,sans-serif" font-weight="400" font-size="19" transform="translate(227.317 498)">modelname.i</text><text font-family="Calibri,Calibri_MSFontService,sans-serif" font-weight="400" font-size="19" transform="translate(327.484 498)">)</text><rect x="18" y="110" width="356" height="78" fill="#C5E0B4"/><text font-family="Calibri,Calibri_MSFontService,sans-serif" font-weight="400" font-size="19" transform="translate(32.6171 132)">Default</text><text font-family="Calibri,Calibri_MSFontService,sans-serif" font-weight="700" font-size="19" transform="translate(92.2505 132)">keyword arguments for</text><text font-family="Calibri,Calibri_MSFontService,sans-serif" font-weight="700" font-size="19" transform="translate(276.45 132)">SimParam</text><text font-family="Calibri,Calibri_MSFontService,sans-serif" font-weight="400" font-size="19" transform="translate(354.504 132)">.</text><text font-family="Calibri,Calibri_MSFontService,sans-serif" font-weight="400" font-size="19" transform="translate(37.8171 155)">Defines max time of the simulation, along</text><text font-family="Calibri,Calibri_MSFontService,sans-serif" font-weight="400" font-size="19" transform="translate(70.9238 177)">with phases, timestep, units, etc.</text><path d="M359 475 405.557 475 405.557 479 359 479ZM403.557 471 415.557 477 403.557 483Z" fill="#70AD47"/><rect x="40" y="537" width="319" height="70" fill="#F1D9F1"/><text font-family="Calibri,Calibri_MSFontService,sans-serif" font-weight="400" font-size="19" transform="translate(60.1035 567)">This method defines the Result to be</text><text font-family="Calibri,Calibri_MSFontService,sans-serif" font-weight="400" font-size="19" transform="translate(109.27 590)">returned</text><text font-family="Calibri,Calibri_MSFontService,sans-serif" font-weight="400" font-size="19" transform="translate(184.757 590)">by the model.</text><path d="M361 572 407.557 572 407.557 576 361 576ZM405.557 568 417.557 574 405.557 580Z" fill="#E890E8"/><rect x="810" y="95" width="442" height="33" fill="#FA7676"/><text font-family="Calibri,Calibri_MSFontService,sans-serif" font-weight="400" font-size="19" transform="translate(825.384 117)">Architecture classes are usually given empty __slots__</text><path d="M0.0193349-1.99991 226.101 0.185829 226.062 4.18564-0.0193349 1.99991ZM224.14-3.83331 236.082 2.28241 224.024 8.16612Z" fill="#FA7676" transform="matrix(-1 0 0 1 810.082 112)"/></g></svg>