<svg width="4295" height="1796" xmlns="http://www.w3.org/2000/svg" xmlns:xlink="http://www.w3.org/1999/xlink" xml:space="preserve" overflow="hidden"><g transform="translate(2 -138)"><rect x="1380" y="1042" width="2320" height="791" fill="#DAE3F3"/><rect x="1457" y="861" width="1313" height="176" fill="#D0CECE"/><rect x="1457" y="780" width="713" height="80.0001" fill="#F8CBAD"/><rect x="1457" y="677" width="939" height="97.0003" fill="#C5E0B4"/><rect x="1457" y="510" width="1525" height="177" fill="#FFC000"/><rect x="1457" y="241" width="939" height="269" fill="#B4C7E7"/><rect x="0" y="643" width="1256" height="394" fill="#F8CBAD"/><text font-family="Calibri,Calibri_MSFontService,sans-serif" font-weight="400" font-size="64" transform="matrix(1 0 0 1 113.181 708)">Specifies </text><text font-family="Calibri,Calibri_MSFontService,sans-serif" font-weight="700" font-size="64" transform="matrix(1 0 0 1 356.098 708)">what should be tracked</text><text font-family="Calibri,Calibri_MSFontService,sans-serif" font-weight="400" font-size="64" transform="matrix(1 0 0 1 992.265 708)">in the </text><text font-family="Calibri,Calibri_MSFontService,sans-serif" font-weight="400" font-size="64" transform="matrix(1 0 0 1 38.9771 785)">FxnBlock</text><text font-family="Calibri,Calibri_MSFontService,sans-serif" font-weight="400" font-size="64" transform="matrix(1 0 0 1 284.185 785)">history (</text><text font-family="Calibri,Calibri_MSFontService,sans-serif" font-weight="400" font-size="64" transform="matrix(1 0 0 1 498.021 785)">fxnname.h</text><text font-family="Calibri,Calibri_MSFontService,sans-serif" font-weight="400" font-size="64" transform="matrix(1 0 0 1 777.031 785)">) by default. May </text><text font-family="Calibri,Calibri_MSFontService,sans-serif" font-weight="400" font-size="64" transform="matrix(1 0 0 1 47.7771 862)">be a </text><text font-family="Calibri,Calibri_MSFontService,sans-serif" font-weight="400" font-size="64" transform="matrix(1 0 0 1 173.246 862)">dict</text><text font-family="Calibri,Calibri_MSFontService,sans-serif" font-weight="400" font-size="64" transform="matrix(1 0 0 1 284.965 862)">({</text><text font-family="Calibri,Calibri_MSFontService,sans-serif" font-weight="400" font-size="64" transform="matrix(1 0 0 1 324.496 862)">role:value</text><text font-family="Calibri,Calibri_MSFontService,sans-serif" font-weight="400" font-size="64" transform="matrix(1 0 0 1 583.775 862)">}), list ([role1, role2]), or </text><text font-family="Calibri,Calibri_MSFontService,sans-serif" font-weight="400" font-size="64" transform="matrix(1 0 0 1 60.45 939)">string (“</text><text font-family="Calibri,Calibri_MSFontService,sans-serif" font-weight="400" font-size="64" transform="matrix(1 0 0 1 267.296 939)">all”,”none</text><text font-family="Calibri,Calibri_MSFontService,sans-serif" font-weight="400" font-size="64" transform="matrix(1 0 0 1 519.402 939)">”, </text><text font-family="Calibri,Calibri_MSFontService,sans-serif" font-weight="400" font-size="64" transform="matrix(1 0 0 1 570.483 939)">etc</text><text font-family="Calibri,Calibri_MSFontService,sans-serif" font-weight="400" font-size="64" transform="matrix(1 0 0 1 650.142 939)">). Overwritten by the </text><text font-family="Calibri,Calibri_MSFontService,sans-serif" font-weight="400" font-size="64" transform="matrix(1 0 0 1 56.875 1016)">track parameter during model instantiation.</text><rect x="0" y="234" width="1256" height="422" fill="#FFC000"/><text font-family="Calibri,Calibri_MSFontService,sans-serif" font-weight="400" font-size="64" transform="matrix(1 0 0 1 67.9553 313)">flow_XXX</text><text font-family="Calibri,Calibri_MSFontService,sans-serif" font-weight="400" font-size="64" transform="matrix(1 0 0 1 327.807 313)">is used to append a </text><text font-family="Calibri,Calibri_MSFontService,sans-serif" font-weight="700" font-size="64" transform="matrix(1 0 0 1 848.543 313)">flow </text><text font-family="Calibri,Calibri_MSFontService,sans-serif" font-weight="400" font-size="64" transform="matrix(1 0 0 1 980.772 313)">of given </text><text font-family="Calibri,Calibri_MSFontService,sans-serif" font-weight="400" font-size="64" transform="matrix(1 0 0 1 47.7199 390)">type that is named XXX to the function class. </text><text font-family="Calibri,Calibri_MSFontService,sans-serif" font-weight="400" font-size="64" transform="matrix(1 0 0 1 82.3011 467)">If the flow(s) has a different name outside </text><text font-family="Calibri,Calibri_MSFontService,sans-serif" font-weight="400" font-size="64" transform="matrix(1 0 0 1 56.6574 544)">the function (optional), </text><text font-family="Calibri,Calibri_MSFontService,sans-serif" font-weight="400" font-size="64" transform="matrix(1 0 0 1 677.997 544)">flownames</text><text font-family="Calibri,Calibri_MSFontService,sans-serif" font-weight="400" font-size="64" transform="matrix(1 0 0 1 979.099 544)">matches </text><text font-family="Calibri,Calibri_MSFontService,sans-serif" font-weight="400" font-size="64" transform="matrix(1 0 0 1 113.239 621)">the external name to the internal name</text><rect x="2627" y="274" width="1661" height="227" fill="#B4C7E7"/><text font-family="Calibri,Calibri_MSFontService,sans-serif" font-weight="400" font-size="64" transform="matrix(1 0 0 1 2708.17 332)">Specifies which classes play specific </text><text font-family="Calibri,Calibri_MSFontService,sans-serif" font-weight="400" font-size="64" transform="matrix(1 0 0 1 3645.99 332)">FxnBlock</text><text font-family="Calibri,Calibri_MSFontService,sans-serif" font-weight="700" font-size="64" transform="matrix(1 0 0 1 3891.2 332)">roles </text><text font-family="Calibri,Calibri_MSFontService,sans-serif" font-weight="400" font-size="64" transform="matrix(1 0 0 1 4035.94 332)">(e.g., s </text><text font-family="Calibri,Calibri_MSFontService,sans-serif" font-weight="400" font-size="64" transform="matrix(1 0 0 1 2703.98 409)">corresponds to the state role, m corresponds to the mode </text><text font-family="Calibri,Calibri_MSFontService,sans-serif" font-weight="400" font-size="64" transform="matrix(1 0 0 1 3341.38 486)">role, </text><text font-family="Calibri,Calibri_MSFontService,sans-serif" font-weight="400" font-size="64" transform="matrix(1 0 0 1 3473.84 486)">etc</text><text font-family="Calibri,Calibri_MSFontService,sans-serif" font-weight="400" font-size="64" transform="matrix(1 0 0 1 3553.5 486)">)</text><rect x="2974" y="835" width="1314" height="313" fill="#D0CECE"/><text font-family="Calibri,Calibri_MSFontService,sans-serif" font-weight="700" font-size="64" transform="matrix(1 0 0 1 3042.97 897)">Optional</text><text font-family="Calibri,Calibri_MSFontService,sans-serif" font-weight="400" font-size="64" transform="matrix(1 0 0 1 3289.65 897)">method to call to set up </text><text font-family="Calibri,Calibri_MSFontService,sans-serif" font-weight="400" font-size="64" transform="matrix(1 0 0 1 3924.85 897)">FxnBlock</text><text font-family="Calibri,Calibri_MSFontService,sans-serif" font-weight="400" font-size="64" transform="matrix(1 0 0 1 4170.06 897)">in </text><text font-family="Calibri,Calibri_MSFontService,sans-serif" font-weight="400" font-size="64" transform="matrix(1 0 0 1 3048.03 974)">ways not already defined by role </text><text font-family="Calibri,Calibri_MSFontService,sans-serif" font-weight="400" font-size="64" transform="matrix(1 0 0 1 3909.59 974)">initalization</text><text font-family="Calibri,Calibri_MSFontService,sans-serif" font-weight="400" font-size="64" transform="matrix(1 0 0 1 3086.12 1051)">(e.g., attaching local </text><text font-family="Calibri,Calibri_MSFontService,sans-serif" font-weight="400" font-size="64" transform="matrix(1 0 0 1 3623.68 1051)">MultiFlows</text><text font-family="Calibri,Calibri_MSFontService,sans-serif" font-weight="400" font-size="64" transform="matrix(1 0 0 1 3926.5 1051)">or setting </text><text font-family="Calibri,Calibri_MSFontService,sans-serif" font-weight="400" font-size="64" transform="matrix(1 0 0 1 3113.76 1128)">initial values for States from Parameter)</text><path d="M2626.76 394.431 2429.99 384.584 2430.68 370.852 2627.45 380.698ZM2436.17 398.661 2396 376 2438.23 357.462Z" fill="#4472C4"/><path d="M1244 592.125 1442.04 592.125 1442.04 605.875 1244 605.875ZM1435.16 578.375 1476.41 599.001 1435.16 619.625Z" fill="#ED7D31"/><path d="M1256 813.125 1441.83 813.125 1441.83 826.875 1256 826.875ZM1434.95 799.375 1476.2 820 1434.95 840.625Z" fill="#C55A11"/><path d="M3.75019e-06-6.875 627.228-6.87466 627.228 6.87534-3.75019e-06 6.875ZM620.353-20.6247 661.603 0.000360892 620.353 20.6253Z" fill="#70AD47" transform="matrix(-1 0 0 1 3057.6 723)"/><path d="M1.21865e-05-6.875 169.222-6.8747 169.222 6.8753-1.21865e-05 6.875ZM162.347-20.6247 203.597 0.000360892 162.347 20.6253Z" fill="#7F7F7F" transform="matrix(-1 0 0 1 2973.6 966)"/><rect x="0.499836" y="1037.5" width="1256" height="262" stroke="#DAE3F3" stroke-width="4.58333" stroke-miterlimit="8" fill="#B4C7E7"/><text font-family="Calibri,Calibri_MSFontService,sans-serif" font-weight="400" font-size="64" transform="matrix(1 0 0 1 77.5458 1112)">These methods define the </text><text font-family="Calibri,Calibri_MSFontService,sans-serif" font-weight="700" font-size="64" transform="matrix(1 0 0 1 773.869 1112)">behavior</text><text font-family="Calibri,Calibri_MSFontService,sans-serif" font-weight="400" font-size="64" transform="matrix(1 0 0 1 1023.32 1112)">of the </text><text font-family="Calibri,Calibri_MSFontService,sans-serif" font-weight="400" font-size="64" transform="matrix(1 0 0 1 38.1521 1189)">FxnBlock</text><text font-family="Calibri,Calibri_MSFontService,sans-serif" font-weight="400" font-size="64" transform="matrix(1 0 0 1 283.36 1189)">and thus simulate at each time</text><text font-family="Calibri,Calibri_MSFontService,sans-serif" font-weight="400" font-size="64" transform="matrix(1 0 0 1 1087 1189)">-</text><text font-family="Calibri,Calibri_MSFontService,sans-serif" font-weight="400" font-size="64" transform="matrix(1 0 0 1 1106.48 1189)">step </text><text font-family="Calibri,Calibri_MSFontService,sans-serif" font-weight="400" font-size="64" transform="matrix(1 0 0 1 398.035 1266)">of the simulation. </text><path d="M1256 1247.12 1348.35 1247.13 1348.35 1260.88 1256 1260.88ZM1341.48 1233.38 1382.73 1254 1341.48 1274.63Z" fill="#4472C4"/><rect x="0" y="1313" width="1256" height="259" fill="#E2F0D9"/><text font-family="Calibri,Calibri_MSFontService,sans-serif" font-weight="400" font-size="64" transform="matrix(1 0 0 1 77.1108 1387)">These methods define </text><text font-family="Calibri,Calibri_MSFontService,sans-serif" font-weight="400" font-size="64" transform="matrix(1 0 0 1 671.455 1387)">FxnBlock</text><text font-family="Calibri,Calibri_MSFontService,sans-serif" font-weight="700" font-size="64" transform="matrix(1 0 0 1 916.663 1387)">indicators</text><text font-family="Calibri,Calibri_MSFontService,sans-serif" font-weight="400" font-size="64" transform="matrix(1 0 0 1 59.2358 1464)">and are called/tracked during simulation (in </text><text font-family="Calibri,Calibri_MSFontService,sans-serif" font-weight="400" font-size="64" transform="matrix(1 0 0 1 488.259 1541)">fxnname.i</text><text font-family="Calibri,Calibri_MSFontService,sans-serif" font-weight="400" font-size="64" transform="matrix(1 0 0 1 748.363 1541)">)</text><rect x="3060" y="568" width="1228" height="267" fill="#C5E0B4"/><text font-family="Calibri,Calibri_MSFontService,sans-serif" font-weight="400" font-size="64" transform="matrix(1 0 0 1 3112.75 646)">Default </text><text font-family="Calibri,Calibri_MSFontService,sans-serif" font-weight="700" font-size="64" transform="matrix(1 0 0 1 3317.74 646)">keyword arguments for </text><text font-family="Calibri,Calibri_MSFontService,sans-serif" font-weight="700" font-size="64" transform="matrix(1 0 0 1 3950.93 646)">SimParam</text><text font-family="Calibri,Calibri_MSFontService,sans-serif" font-weight="400" font-size="64" transform="matrix(1 0 0 1 4219.24 646)">. </text><text font-family="Calibri,Calibri_MSFontService,sans-serif" font-weight="400" font-size="64" transform="matrix(1 0 0 1 3108.68 723)">Only necessary when the </text><text font-family="Calibri,Calibri_MSFontService,sans-serif" font-weight="400" font-size="64" transform="matrix(1 0 0 1 3777.59 723)">functionblock</text><text font-family="Calibri,Calibri_MSFontService,sans-serif" font-weight="400" font-size="64" transform="matrix(1 0 0 1 4148.84 723)">will </text><text font-family="Calibri,Calibri_MSFontService,sans-serif" font-weight="400" font-size="64" transform="matrix(1 0 0 1 3342.77 800)">be simulated individually.</text><path d="M1256 1462.12 1360.5 1462.13 1360.5 1475.88 1256 1475.87ZM1353.62 1448.38 1394.87 1469 1353.62 1489.63Z" fill="#70AD47"/><rect x="0" y="1569" width="1254" height="240" fill="#F1D9F1"/><text font-family="Calibri,Calibri_MSFontService,sans-serif" font-weight="400" font-size="64" transform="matrix(1 0 0 1 147.821 1672)">This method defines the Result to be </text><text font-family="Calibri,Calibri_MSFontService,sans-serif" font-weight="400" font-size="64" transform="matrix(1 0 0 1 129.144 1749)">returned </text><text font-family="Calibri,Calibri_MSFontService,sans-serif" font-weight="700" font-size="64" transform="matrix(1 0 0 1 374.306 1749)">when simulated individually</text><path d="M1256 1695.12 1360.5 1695.13 1360.5 1708.88 1256 1708.87ZM1353.62 1681.38 1394.87 1702 1353.62 1722.63Z" fill="#E890E8"/><rect x="1378" y="1391" width="2321" height="278" fill="#E2F0D9"/><rect x="1377" y="1650" width="2307" height="183" fill="#F1D9F1"/><rect x="1368" y="144" width="2323" height="1785" stroke="#4472C4" stroke-width="10.3125" stroke-miterlimit="8" fill="none"/><path d="M1534.27 1127.98 2619.21 1127.98 2619.21 1216.98 1534.27 1216.98Z" fill="#00FFFF" fill-rule="evenodd"/><path d="M1534.27 1303.98 2712.14 1303.98 2712.14 1392.98 1534.27 1392.98Z" fill="#00FFFF" fill-rule="evenodd"/><path d="M1534.27 1479.98 2378.52 1479.98 2378.52 1568.98 1534.27 1568.98Z" fill="#00FF00" fill-rule="evenodd"/><path d="M2378.52 1479.98 2689.56 1479.98 2689.56 1568.98 2378.52 1568.98Z" fill="#00FF00" fill-rule="evenodd"/><path d="M2689.56 1479.98 3593.88 1479.98 3593.88 1568.98 2689.56 1568.98Z" fill="#00FF00" fill-rule="evenodd"/><path d="M1401.35 1567.98 2990.76 1567.98 2990.76 1656.98 1401.35 1656.98Z" fill="#00FF00" fill-rule="evenodd"/><path d="M1401.35 1743.98 1534.27 1743.98 1534.27 1832.98 1401.35 1832.98Z" fill="#E997E9" fill-rule="evenodd"/><path d="M1534.27 1743.98 3124.61 1743.98 3124.61 1832.98 1534.27 1832.98Z" fill="#E997E9" fill-rule="evenodd"/><text font-family="Calibri,Calibri_MSFontService,sans-serif" font-weight="400" font-size="73" transform="matrix(1 0 0 1 1401.35 230)">class </text><text font-family="Calibri,Calibri_MSFontService,sans-serif" font-weight="400" font-size="73" transform="matrix(1 0 0 1 1557.76 230)">FunctionName</text><text font-family="Calibri,Calibri_MSFontService,sans-serif" font-weight="400" font-size="73" transform="matrix(1 0 0 1 1995.46 230)">(Function):</text><text font-family="Calibri,Calibri_MSFontService,sans-serif" font-weight="400" font-size="73" transform="matrix(1 0 0 1 1467.81 318)">container</text><text font-family="Calibri,Calibri_MSFontService,sans-serif" font-weight="400" font-size="73" transform="matrix(1 0 0 1 1750.92 318)">_s</text><text font-family="Calibri,Calibri_MSFontService,sans-serif" font-weight="400" font-size="73" transform="matrix(1 0 0 1 1832.85 318)">= </text><text font-family="Calibri,Calibri_MSFontService,sans-serif" font-weight="400" font-size="73" transform="matrix(1 0 0 1 1886.13 318)">FunctionState</text><text font-family="Calibri,Calibri_MSFontService,sans-serif" font-weight="400" font-size="73" transform="matrix(1 0 0 1 1467.81 406)">container_m</text><text font-family="Calibri,Calibri_MSFontService,sans-serif" font-weight="400" font-size="73" transform="matrix(1 0 0 1 1862.64 406)">= </text><text font-family="Calibri,Calibri_MSFontService,sans-serif" font-weight="400" font-size="73" transform="matrix(1 0 0 1 1915.92 406)">FunctionMode</text><text font-family="Calibri,Calibri_MSFontService,sans-serif" font-weight="400" font-size="73" transform="matrix(1 0 0 1 1467.81 494)">container_t</text><text font-family="Calibri,Calibri_MSFontService,sans-serif" font-weight="400" font-size="73" transform="matrix(1 0 0 1 1828.84 494)">= </text><text font-family="Calibri,Calibri_MSFontService,sans-serif" font-weight="400" font-size="73" transform="matrix(1 0 0 1 1882.12 494)">FunctionTime</text><text font-family="Calibri,Calibri_MSFontService,sans-serif" font-weight="400" font-size="73" transform="matrix(1 0 0 1 1467.81 582)">flow_flowname1 = FlowClass1</text><text font-family="Calibri,Calibri_MSFontService,sans-serif" font-weight="400" font-size="73" transform="matrix(1 0 0 1 1467.81 670)">flownames</text><text font-family="Calibri,Calibri_MSFontService,sans-serif" font-weight="400" font-size="73" transform="matrix(1 0 0 1 1811.83 670)">= {“outsideflowname”:”flowname1”}</text><text font-family="Calibri,Calibri_MSFontService,sans-serif" font-weight="400" font-size="73" transform="matrix(1 0 0 1 1467.81 758)">default_sp</text><text font-family="Calibri,Calibri_MSFontService,sans-serif" font-weight="400" font-size="73" transform="matrix(1 0 0 1 1798.01 758)">= {‘</text><text font-family="Calibri,Calibri_MSFontService,sans-serif" font-weight="400" font-size="73" transform="matrix(1 0 0 1 1889.43 758)">end_time</text><text font-family="Calibri,Calibri_MSFontService,sans-serif" font-weight="400" font-size="73" transform="matrix(1 0 0 1 2175.89 758)">’: </text><text font-family="Calibri,Calibri_MSFontService,sans-serif" font-weight="400" font-size="73" transform="matrix(1 0 0 1 2230.31 758)">100</text><text font-family="Calibri,Calibri_MSFontService,sans-serif" font-weight="400" font-size="73" transform="matrix(1 0 0 1 2342.03 758)">}</text><text font-family="Calibri,Calibri_MSFontService,sans-serif" font-weight="400" font-size="73" transform="matrix(1 0 0 1 1467.81 846)">default_track</text><text font-family="Calibri,Calibri_MSFontService,sans-serif" font-weight="400" font-size="73" transform="matrix(1 0 0 1 1879 846)">= [‘</text><text font-family="Calibri,Calibri_MSFontService,sans-serif" font-weight="400" font-size="73" transform="matrix(1 0 0 1 1971.29 846)">s’,’m</text><text font-family="Calibri,Calibri_MSFontService,sans-serif" font-weight="400" font-size="73" transform="matrix(1 0 0 1 2099.67 846)">’]</text><text font-family="Calibri,Calibri_MSFontService,sans-serif" font-weight="400" font-size="73" transform="matrix(1 0 0 1 1467.81 934)">def </text><text font-family="Calibri,Calibri_MSFontService,sans-serif" font-weight="400" font-size="73" transform="matrix(1 0 0 1 1581.18 934)">init_block</text><text font-family="Calibri,Calibri_MSFontService,sans-serif" font-weight="400" font-size="73" transform="matrix(1 0 0 1 1872.22 934)">(self, **</text><text font-family="Calibri,Calibri_MSFontService,sans-serif" font-weight="400" font-size="73" transform="matrix(1 0 0 1 2102.6 934)">kwargs</text><text font-family="Calibri,Calibri_MSFontService,sans-serif" font-weight="400" font-size="73" transform="matrix(1 0 0 1 2310.45 934)">):</text><text font-family="Calibri,Calibri_MSFontService,sans-serif" font-weight="400" font-size="73" transform="matrix(1 0 0 1 1534.27 1022)">&lt;e.g., </text><text font-family="Calibri,Calibri_MSFontService,sans-serif" font-weight="400" font-size="73" transform="matrix(1 0 0 1 1714.37 1022)">self.s.x</text><text font-family="Calibri,Calibri_MSFontService,sans-serif" font-weight="400" font-size="73" transform="matrix(1 0 0 1 1927.2 1022)">= 2.0&gt;</text><text font-family="Calibri,Calibri_MSFontService,sans-serif" font-weight="400" font-size="73" transform="matrix(1 0 0 1 1451.19 1110)">def </text><text font-family="Calibri,Calibri_MSFontService,sans-serif" font-weight="400" font-size="73" transform="matrix(1 0 0 1 1564.56 1110)">static_behavior</text><text font-family="Calibri,Calibri_MSFontService,sans-serif" font-weight="400" font-size="73" transform="matrix(1 0 0 1 2020.99 1110)">(self):</text><text font-family="Calibri,Calibri_MSFontService,sans-serif" font-weight="400" font-size="73" transform="matrix(1 0 0 1 1534.27 1198)">Runs only in static propagation steps</text><text font-family="Calibri,Calibri_MSFontService,sans-serif" font-weight="400" font-size="73" transform="matrix(1 0 0 1 1467.81 1286)">def </text><text font-family="Calibri,Calibri_MSFontService,sans-serif" font-weight="400" font-size="73" transform="matrix(1 0 0 1 1581.18 1286)">dynamic_behavior</text><text font-family="Calibri,Calibri_MSFontService,sans-serif" font-weight="400" font-size="73" transform="matrix(1 0 0 1 2130.54 1286)">(self):</text><text font-family="Calibri,Calibri_MSFontService,sans-serif" font-weight="400" font-size="73" transform="matrix(1 0 0 1 1534.27 1374)">Runs only in dynamic propagation steps</text><text font-family="Calibri,Calibri_MSFontService,sans-serif" font-weight="400" font-size="73" transform="matrix(1 0 0 1 1401.35 1462)">def </text><text font-family="Calibri,Calibri_MSFontService,sans-serif" font-weight="400" font-size="73" transform="matrix(1 0 0 1 1514.72 1462)">indicate_XXX</text><text font-family="Calibri,Calibri_MSFontService,sans-serif" font-weight="400" font-size="73" transform="matrix(1 0 0 1 1899.93 1462)">(self):</text><text font-family="Calibri,Calibri_MSFontService,sans-serif" font-weight="400" font-size="73" transform="matrix(1 0 0 1 1534.27 1550)">Conditional statement (e.g., </text><text font-family="Calibri,Calibri_MSFontService,sans-serif" font-weight="400" font-size="73" transform="matrix(1 0 0 1 2378.52 1550)">self.s.state</text><text font-family="Calibri,Calibri_MSFontService,sans-serif" font-weight="400" font-size="73" transform="matrix(1 0 0 1 2689.56 1550)">&gt;threshold) which is logged in </text><text font-family="Calibri,Calibri_MSFontService,sans-serif" font-weight="400" font-size="73" transform="matrix(1 0 0 1 1401.35 1638)">the history and may be used to terminate simulations</text><text font-family="Calibri,Calibri_MSFontService,sans-serif" font-weight="400" font-size="73" transform="matrix(1 0 0 1 1467.81 1726)">def </text><text font-family="Calibri,Calibri_MSFontService,sans-serif" font-weight="400" font-size="73" transform="matrix(1 0 0 1 1581.18 1726)">find_classification</text><text font-family="Calibri,Calibri_MSFontService,sans-serif" font-weight="400" font-size="73" transform="matrix(1 0 0 1 2112.11 1726)">(self, </text><text font-family="Calibri,Calibri_MSFontService,sans-serif" font-weight="400" font-size="73" transform="matrix(1 0 0 1 2269.16 1726)">scen</text><text font-family="Calibri,Calibri_MSFontService,sans-serif" font-weight="400" font-size="73" transform="matrix(1 0 0 1 2403.79 1726)">, </text><text font-family="Calibri,Calibri_MSFontService,sans-serif" font-weight="400" font-size="73" transform="matrix(1 0 0 1 2438.74 1726)">mdlhists</text><text font-family="Calibri,Calibri_MSFontService,sans-serif" font-weight="400" font-size="73" transform="matrix(1 0 0 1 2688.28 1726)">):</text><text font-family="Calibri,Calibri_MSFontService,sans-serif" font-weight="400" font-size="73" transform="matrix(1 0 0 1 1401.35 1814)">        </text><text font-family="Calibri,Calibri_MSFontService,sans-serif" font-weight="400" font-size="73" transform="matrix(1 0 0 1 1534.27 1814)">Returns a Result dictionary (calculated at completion)</text></g></svg>