<?xml version="1.0" encoding="UTF-8" standalone="no"?>
<!DOCTYPE svg PUBLIC "-//W3C//DTD SVG 1.1//EN"
 "http://www.w3.org/Graphics/SVG/1.1/DTD/svg11.dtd">
<!-- Generated by graphviz version 8.0.5 (20230430.1635)
 -->
<!-- Pages: 1 -->
<svg width="120pt" height="44pt"
 viewBox="0.00 0.00 120.00 44.00" xmlns="http://www.w3.org/2000/svg" xmlns:xlink="http://www.w3.org/1999/xlink">
<g id="graph0" class="graph" transform="scale(1 1) rotate(0) translate(4 40)">
<polygon fill="white" stroke="none" points="-4,4 -4,-40 116,-40 116,4 -4,4"/>
<!-- 0 -->
<g id="node1" class="node">
<title>0</title>
<path fill="lightgrey" stroke="grey" stroke-width="2" d="M100,-36C100,-36 12,-36 12,-36 6,-36 0,-30 0,-24 0,-24 0,-12 0,-12 0,-6 6,0 12,0 12,0 100,0 100,0 106,0 112,-6 112,-12 112,-12 112,-24 112,-24 112,-30 106,-36 100,-36"/>
<text text-anchor="middle" x="56" y="-12.57" font-family="Times New Roman,serif" font-size="14.00">ActionNodeStyle</text>
</g>
</g>
</svg>
