<?xml version="1.0" encoding="UTF-8" standalone="no"?>
<!DOCTYPE svg PUBLIC "-//W3C//DTD SVG 1.1//EN"
 "http://www.w3.org/Graphics/SVG/1.1/DTD/svg11.dtd">
<!-- Generated by graphviz version 8.0.5 (20230430.1635)
 -->
<!-- Pages: 1 -->
<svg width="713pt" height="293pt"
 viewBox="0.00 0.00 713.03 292.50" xmlns="http://www.w3.org/2000/svg" xmlns:xlink="http://www.w3.org/1999/xlink">
<g id="graph0" class="graph" transform="scale(1 1) rotate(0) translate(4 288.5)">
<polygon fill="white" stroke="none" points="-4,4 -4,-288.5 709.03,-288.5 709.03,4 -4,4"/>
<!-- function_a -->
<g id="node1" class="node">
<title>function_a</title>
<polygon fill="lightgrey" stroke="grey" stroke-width="2" points="495.16,-284.5 419.91,-284.5 419.91,-248.5 495.16,-248.5 495.16,-284.5"/>
<text text-anchor="middle" x="457.53" y="-261.07" font-family="Times New Roman,serif" font-size="14.00">function_a</text>
</g>
<!-- function_b -->
<g id="node2" class="node">
<title>function_b</title>
<polygon fill="lightgrey" stroke="grey" stroke-width="2" points="318.91,-196.75 242.16,-196.75 242.16,-160.75 318.91,-160.75 318.91,-196.75"/>
<text text-anchor="middle" x="280.53" y="-173.32" font-family="Times New Roman,serif" font-size="14.00">function_b</text>
</g>
<!-- function_a&#45;&gt;function_b -->
<g id="edge10" class="edge">
<title>function_a&#45;&gt;function_b</title>
<path fill="none" stroke="black" stroke-dasharray="5,2" d="M418.92,-259.37C393.77,-254.23 360.92,-245.29 334.78,-230.5 322.91,-223.78 311.6,-213.96 302.4,-204.74"/>
<polygon fill="black" stroke="black" points="295.5,-197.54 305.67,-201.65 298.96,-201.15 302.42,-204.76 302.42,-204.76 302.42,-204.76 298.96,-201.15 299.17,-207.88 295.5,-197.54 295.5,-197.54"/>
<text text-anchor="middle" x="389.91" y="-217.2" font-family="Times New Roman,serif" font-size="14.00">new_control_signal</text>
</g>
<!-- external_signals -->
<g id="node4" class="node">
<title>external_signals</title>
<ellipse fill="lightgrey" stroke="grey" stroke-width="0" cx="554.53" cy="-178.75" rx="69.03" ry="18"/>
<text text-anchor="middle" x="554.53" y="-173.32" font-family="Times New Roman,serif" font-size="14.00">external_signals</text>
</g>
<!-- function_a&#45;&gt;external_signals -->
<g id="edge1" class="edge">
<title>function_a&#45;&gt;external_signals</title>
<path fill="none" stroke="black" d="M487.08,-239.38C503.05,-225.27 522.27,-208.27 536.1,-196.04"/>
<polygon fill="none" stroke="black" points="487.3,-239.19 485.45,-246.16 478.31,-247.14 480.15,-240.16 487.3,-239.19"/>
</g>
<!-- control_signal -->
<g id="node5" class="node">
<title>control_signal</title>
<ellipse fill="lightgrey" stroke="grey" stroke-width="0" cx="432.53" cy="-91" rx="63.04" ry="18"/>
<text text-anchor="middle" x="432.53" y="-85.58" font-family="Times New Roman,serif" font-size="14.00">control_signal</text>
</g>
<!-- function_a&#45;&gt;control_signal -->
<g id="edge2" class="edge">
<title>function_a&#45;&gt;control_signal</title>
<path fill="none" stroke="black" d="M453.1,-234.77C447.81,-198.03 439.14,-137.88 434.95,-108.79"/>
<polygon fill="none" stroke="black" points="453.11,-234.82 457.93,-240.18 454.82,-246.69 450.01,-241.33 453.11,-234.82"/>
</g>
<!-- function_c -->
<g id="node3" class="node">
<title>function_c</title>
<polygon fill="lightgrey" stroke="grey" stroke-width="2" points="287.53,-109 211.53,-109 211.53,-73 287.53,-73 287.53,-109"/>
<text text-anchor="middle" x="249.53" y="-85.58" font-family="Times New Roman,serif" font-size="14.00">function_c</text>
</g>
<!-- function_b&#45;&gt;function_c -->
<g id="edge11" class="edge">
<title>function_b&#45;&gt;function_c</title>
<path fill="none" stroke="black" stroke-dasharray="5,2" d="M241.26,-175.75C193.89,-172.43 118.45,-163.89 101.03,-142.75 71.51,-106.92 147.08,-96.3 200.92,-93.21"/>
<polygon fill="black" stroke="black" points="210.69,-92.72 200.93,-97.71 205.7,-92.97 200.7,-93.22 200.7,-93.22 200.7,-93.22 205.7,-92.97 200.47,-88.73 210.69,-92.72 210.69,-92.72"/>
<text text-anchor="middle" x="171.28" y="-129.45" font-family="Times New Roman,serif" font-size="14.00">change_in_energy_usage</text>
</g>
<!-- function_b&#45;&gt;control_signal -->
<g id="edge3" class="edge">
<title>function_b&#45;&gt;control_signal</title>
<path fill="none" stroke="black" d="M332.64,-176.85C361.48,-173.63 395.95,-164.87 418.53,-142.75 427.54,-133.92 430.91,-119.87 432.09,-108.78"/>
<polygon fill="none" stroke="black" points="332.7,-176.84 327.08,-181.35 320.75,-177.89 326.38,-173.38 332.7,-176.84"/>
</g>
<!-- external_energy_in -->
<g id="node6" class="node">
<title>external_energy_in</title>
<ellipse fill="lightgrey" stroke="grey" stroke-width="0" cx="593.53" cy="-91" rx="80.01" ry="18"/>
<text text-anchor="middle" x="593.53" y="-85.58" font-family="Times New Roman,serif" font-size="14.00">external_energy_in</text>
</g>
<!-- function_b&#45;&gt;external_energy_in -->
<g id="edge4" class="edge">
<title>function_b&#45;&gt;external_energy_in</title>
<path fill="none" stroke="black" d="M332.41,-167.48C363.15,-161.07 402.77,-152.26 437.53,-142.75 477.09,-131.93 521.51,-117.23 552.8,-106.43"/>
<polygon fill="none" stroke="black" points="332.46,-167.47 327.39,-172.6 320.7,-169.89 325.77,-164.76 332.46,-167.47"/>
</g>
<!-- internal_energy -->
<g id="node7" class="node">
<title>internal_energy</title>
<ellipse fill="lightgrey" stroke="grey" stroke-width="0" cx="66.53" cy="-18" rx="66.53" ry="18"/>
<text text-anchor="middle" x="66.53" y="-12.57" font-family="Times New Roman,serif" font-size="14.00">internal_energy</text>
</g>
<!-- function_b&#45;&gt;internal_energy -->
<g id="edge5" class="edge">
<title>function_b&#45;&gt;internal_energy</title>
<path fill="none" stroke="black" d="M228.63,-174.66C179.21,-170.61 109.62,-161.66 90.53,-142.75 61.77,-114.26 62.04,-62.32 64.41,-35.7"/>
<polygon fill="none" stroke="black" points="228.48,-174.65 234.77,-171.11 240.45,-175.56 234.16,-179.09 228.48,-174.65"/>
</g>
<!-- function_c&#45;&gt;function_b -->
<g id="edge12" class="edge">
<title>function_c&#45;&gt;function_b</title>
<path fill="none" stroke="black" stroke-dasharray="5,2" d="M253.42,-109.65C255.82,-119.53 259.22,-131.99 263.28,-142.75 264.29,-145.42 265.44,-148.17 266.65,-150.88"/>
<polygon fill="black" stroke="black" points="270.9,-159.88 262.56,-152.76 268.76,-155.36 266.63,-150.84 266.63,-150.84 266.63,-150.84 268.76,-155.36 270.7,-148.92 270.9,-159.88 270.9,-159.88"/>
<text text-anchor="middle" x="341.16" y="-129.45" font-family="Times New Roman,serif" font-size="14.00">change_in_energy_potential</text>
</g>
<!-- function_c&#45;&gt;internal_energy -->
<g id="edge6" class="edge">
<title>function_c&#45;&gt;internal_energy</title>
<path fill="none" stroke="black" d="M198.61,-70.24C168.17,-58.43 130.2,-43.7 102.8,-33.07"/>
<polygon fill="none" stroke="black" points="198.7,-70.28 205.74,-68.72 209.88,-74.62 202.84,-76.18 198.7,-70.28"/>
</g>
<!-- external_material_in -->
<g id="node8" class="node">
<title>external_material_in</title>
<ellipse fill="lightgrey" stroke="grey" stroke-width="0" cx="235.53" cy="-18" rx="84" ry="18"/>
<text text-anchor="middle" x="235.53" y="-12.57" font-family="Times New Roman,serif" font-size="14.00">external_material_in</text>
</g>
<!-- function_c&#45;&gt;external_material_in -->
<g id="edge7" class="edge">
<title>function_c&#45;&gt;external_material_in</title>
<path fill="none" stroke="black" d="M243.5,-59.43C241.9,-51.28 240.22,-42.78 238.82,-35.69"/>
<polygon fill="none" stroke="black" points="243.5,-59.43 248.59,-64.54 245.83,-71.2 240.74,-66.09 243.5,-59.43"/>
</g>
<!-- external_material_out -->
<g id="node9" class="node">
<title>external_material_out</title>
<ellipse fill="lightgrey" stroke="grey" stroke-width="0" cx="426.53" cy="-18" rx="89.49" ry="18"/>
<text text-anchor="middle" x="426.53" y="-12.57" font-family="Times New Roman,serif" font-size="14.00">external_material_out</text>
</g>
<!-- function_c&#45;&gt;external_material_out -->
<g id="edge8" class="edge">
<title>function_c&#45;&gt;external_material_out</title>
<path fill="none" stroke="black" d="M300.41,-69.59C328.56,-58.3 362.94,-44.51 388.69,-34.18"/>
<polygon fill="none" stroke="black" points="300.35,-69.62 296.27,-75.56 289.21,-74.08 293.29,-68.14 300.35,-69.62"/>
</g>
<!-- external_energy_out -->
<g id="node10" class="node">
<title>external_energy_out</title>
<ellipse fill="lightgrey" stroke="grey" stroke-width="0" cx="619.53" cy="-18" rx="85.49" ry="18"/>
<text text-anchor="middle" x="619.53" y="-12.57" font-family="Times New Roman,serif" font-size="14.00">external_energy_out</text>
</g>
<!-- function_c&#45;&gt;external_energy_out -->
<g id="edge9" class="edge">
<title>function_c&#45;&gt;external_energy_out</title>
<path fill="none" stroke="black" d="M300.83,-80.16C368.39,-67.19 487.02,-44.43 558.93,-30.63"/>
<polygon fill="none" stroke="black" points="301.1,-80.1 295.96,-85.16 289.32,-82.37 294.45,-77.31 301.1,-80.1"/>
</g>
</g>
</svg>
