<svg width="3723" height="768" xmlns="http://www.w3.org/2000/svg" xmlns:xlink="http://www.w3.org/1999/xlink" xml:space="preserve" overflow="hidden"><g transform="translate(-139 -1085)"><rect x="233" y="1680" width="572" height="125" fill="#F8CBAD"/><rect x="222" y="1576" width="842" height="126" fill="#FA7676"/><rect x="233" y="1359" width="1480" height="240" fill="#F1D9F1"/><rect x="158" y="1329" width="1997" height="464" stroke="#4472C4" stroke-width="10.3125" stroke-miterlimit="8" fill="none"/><text font-family="Calibri,Calibri_MSFontService,sans-serif" font-weight="400" font-size="73" transform="matrix(1 0 0 1 191.099 1414)">class </text><text font-family="Calibri,Calibri_MSFontService,sans-serif" font-weight="400" font-size="73" transform="matrix(1 0 0 1 347.506 1414)">ModeName</text><text font-family="Calibri,Calibri_MSFontService,sans-serif" font-weight="400" font-size="73" transform="matrix(1 0 0 1 701.568 1414)">(Mode):</text><text font-family="Calibri,Calibri_MSFontService,sans-serif" font-weight="400" font-size="73" transform="matrix(1 0 0 1 257.558 1502)">f</text><text font-family="Calibri,Calibri_MSFontService,sans-serif" font-weight="400" font-size="73" transform="matrix(1 0 0 1 278.458 1502)">ault_faultname1 = </text><text font-family="Calibri,Calibri_MSFontService,sans-serif" font-weight="400" font-size="73" transform="matrix(1 0 0 1 840.764 1502)">(0.001</text><text font-family="Calibri,Calibri_MSFontService,sans-serif" font-weight="400" font-size="73" transform="matrix(1 0 0 1 1030.4 1502)">, 200.0</text><text font-family="Calibri,Calibri_MSFontService,sans-serif" font-weight="400" font-size="73" transform="matrix(1 0 0 1 1232.64 1502)">),</text><text font-family="Calibri,Calibri_MSFontService,sans-serif" font-weight="400" font-size="73" transform="matrix(1 0 0 1 257.558 1590)">fault_faultname2 = (0.00001, 100.0, {‘on’: 1.0})</text><text font-family="Calibri,Calibri_MSFontService,sans-serif" font-weight="400" font-size="73" transform="matrix(1 0 0 1 257.558 1678)">opermodes</text><text font-family="Calibri,Calibri_MSFontService,sans-serif" font-weight="400" font-size="73" transform="matrix(1 0 0 1 615.058 1678)">= </text><text font-family="Calibri,Calibri_MSFontService,sans-serif" font-weight="400" font-size="73" transform="matrix(1 0 0 1 668.339 1678)">(</text><text font-family="Calibri,Calibri_MSFontService,sans-serif" font-weight="400" font-size="73" transform="matrix(1 0 0 1 690.683 1678)">“</text><text font-family="Calibri,Calibri_MSFontService,sans-serif" font-weight="400" font-size="73" transform="matrix(1 0 0 1 719.122 1678)">off”, “on</text><text font-family="Calibri,Calibri_MSFontService,sans-serif" font-weight="400" font-size="73" transform="matrix(1 0 0 1 970.541 1678)">”</text><text font-family="Calibri,Calibri_MSFontService,sans-serif" font-weight="400" font-size="73" transform="matrix(1 0 0 1 1001.48 1678)">)</text><text font-family="Calibri,Calibri_MSFontService,sans-serif" font-weight="400" font-size="73" transform="matrix(1 0 0 1 257.558 1766)">mode: str = “off”</text><text font-family="Calibri,Calibri_MSFontService,sans-serif" font-weight="700" font-size="83" transform="matrix(1 0 0 1 189.243 1187)">Mode classes are used to represent modes (faults and </text><text font-family="Calibri,Calibri_MSFontService,sans-serif" font-weight="700" font-size="83" transform="matrix(1 0 0 1 189.243 1286)">operational modes) that could occur in the system</text><rect x="2094" y="1354" width="1768" height="240" fill="#F1D9F1"/><text font-family="Calibri,Calibri_MSFontService,sans-serif" font-weight="400" font-size="64" transform="matrix(1 0 0 1 2187.5 1457)">Dictionary of fault names and their optional properties (rate, </text><text font-family="Calibri,Calibri_MSFontService,sans-serif" font-weight="400" font-size="64" transform="matrix(1 0 0 1 2303.32 1534)">repair cost, phases they could occur and their rates)</text><path d="M0.0697064-6.87465 345.893-3.36812 345.754 10.3812-0.0697064 6.87465ZM339.158-17.1871 380.197 3.85505 338.74 24.0608Z" fill="#E890E8" transform="matrix(-1 0 0 1 2093.2 1475)"/><rect x="2094" y="1588" width="1415" height="125" fill="#FA7676"/><text font-family="Calibri,Calibri_MSFontService,sans-serif" font-weight="400" font-size="64" transform="matrix(1 0 0 1 2185.56 1672)">List of potential operational modes (if multiple)</text><path d="M0.0232431-6.87496 995.218-3.51037 995.171 10.2396-0.0232431 6.87496ZM988.39-17.2835 1029.57 3.48081 988.25 23.9662Z" fill="#F91900" transform="matrix(-1 0 0 1 2093.57 1650)"/><rect x="2094" y="1713" width="1287" height="126" fill="#F8CBAD"/><text font-family="Calibri,Calibri_MSFontService,sans-serif" font-weight="400" font-size="64" transform="matrix(1 0 0 1 2134.01 1797)">Default mode (if multiple modes/not nominal)</text><path d="M2093.78 1783.3 851.284 1767.32 851.46 1753.57 2093.95 1769.55ZM857.981 1781.15 817 1760 858.512 1739.91Z" fill="#ED7D31"/></g></svg>