<svg width="2579" height="1025" xmlns="http://www.w3.org/2000/svg" xmlns:xlink="http://www.w3.org/1999/xlink" xml:space="preserve" overflow="hidden"><g transform="translate(-1803 -26)"><rect x="1857.5" y="699.5" width="1802" height="121" stroke="#DAE3F3" stroke-width="4.58333" stroke-miterlimit="8" fill="#D0CECE"/><rect x="1857.5" y="493.5" width="956" height="134" stroke="#DAE3F3" stroke-width="4.58333" stroke-miterlimit="8" fill="#FFE699"/><rect x="1814" y="319" width="1997" height="465" stroke="#4472C4" stroke-width="10.3125" stroke-miterlimit="8" fill="none"/><text font-family="Calibri,Calibri_MSFontService,sans-serif" font-weight="400" font-size="73" transform="matrix(1 0 0 1 1847.03 405)">class </text><text font-family="Calibri,Calibri_MSFontService,sans-serif" font-weight="400" font-size="73" transform="matrix(1 0 0 1 2003.44 405)">Parameter</text><text font-family="Calibri,Calibri_MSFontService,sans-serif" font-weight="400" font-size="73" transform="matrix(1 0 0 1 2314.85 405)">Name</text><text font-family="Calibri,Calibri_MSFontService,sans-serif" font-weight="400" font-size="73" transform="matrix(1 0 0 1 2492.46 405)">(</text><text font-family="Calibri,Calibri_MSFontService,sans-serif" font-weight="400" font-size="73" transform="matrix(1 0 0 1 2514.8 405)">Paramete</text><text font-family="Calibri,Calibri_MSFontService,sans-serif" font-weight="400" font-size="73" transform="matrix(1 0 0 1 2800.44 405)">r</text><text font-family="Calibri,Calibri_MSFontService,sans-serif" font-weight="400" font-size="73" transform="matrix(1 0 0 1 2826.22 405)">):</text><text font-family="Calibri,Calibri_MSFontService,sans-serif" font-weight="400" font-size="73" transform="matrix(1 0 0 1 1913.49 493)">varname1: float = 1.0</text><text font-family="Calibri,Calibri_MSFontService,sans-serif" font-weight="400" font-size="73" transform="matrix(1 0 0 1 1913.49 581)">varname1_range = (0.0, 10.0)</text><text font-family="Calibri,Calibri_MSFontService,sans-serif" font-weight="400" font-size="73" transform="matrix(1 0 0 1 1913.49 669)">varname2 : str = “</text><text font-family="Calibri,Calibri_MSFontService,sans-serif" font-weight="400" font-size="73" transform="matrix(1 0 0 1 2440.51 669)">default_value</text><text font-family="Calibri,Calibri_MSFontService,sans-serif" font-weight="400" font-size="73" transform="matrix(1 0 0 1 2845.83 669)">”</text><text font-family="Calibri,Calibri_MSFontService,sans-serif" font-weight="400" font-size="73" transform="matrix(1 0 0 1 1913.49 757)">varname2_set = (“</text><text font-family="Calibri,Calibri_MSFontService,sans-serif" font-weight="400" font-size="73" transform="matrix(1 0 0 1 2458.13 757)">default_value</text><text font-family="Calibri,Calibri_MSFontService,sans-serif" font-weight="400" font-size="73" transform="matrix(1 0 0 1 2863.46 757)">”, “</text><text font-family="Calibri,Calibri_MSFontService,sans-serif" font-weight="400" font-size="73" transform="matrix(1 0 0 1 2950.7 757)">other_possible_value</text><text font-family="Calibri,Calibri_MSFontService,sans-serif" font-weight="400" font-size="73" transform="matrix(1 0 0 1 3590.14 757)">”)</text><text font-family="Calibri,Calibri_MSFontService,sans-serif" font-weight="700" font-size="83" transform="matrix(1 0 0 1 1939.79 128)">Parameter classes are used to represent variables that </text><text font-family="Calibri,Calibri_MSFontService,sans-serif" font-weight="700" font-size="83" transform="matrix(1 0 0 1 1939.79 227)">don’t change over time, with similar syntax to States </text><rect x="3131.5" y="457.5" width="1232" height="189" stroke="#DAE3F3" stroke-width="4.58333" stroke-miterlimit="8" fill="#FFE699"/><text font-family="Calibri,Calibri_MSFontService,sans-serif" font-weight="400" font-size="64" transform="matrix(1 0 0 1 3165.46 534)">varname1_range defines allowable range for </text><text font-family="Calibri,Calibri_MSFontService,sans-serif" font-weight="400" font-size="64" transform="matrix(1 0 0 1 3453.68 611)">the variable varname1</text><path d="M0.0887148-6.87443 284.464-3.20455 284.286 10.5443-0.0887148 6.87443ZM277.767-17.0421 318.747 4.11345 277.235 24.2044Z" fill="#FFE699" transform="matrix(-1 0 0 1 3131.75 551)"/><rect x="1882.5" y="913.5" width="1752" height="121" stroke="#DAE3F3" stroke-width="4.58333" stroke-miterlimit="8" fill="#D0CECE"/><text font-family="Calibri,Calibri_MSFontService,sans-serif" font-weight="400" font-size="64" transform="matrix(1 0 0 1 1948.27 995)">varname2_set defines allowable values for the field varname2</text><path d="M6.875-2.66091e-05 6.87523 58.8687-6.87477 58.8688-6.875 2.66091e-05ZM20.6252 51.9937 0.000360892 93.2438-20.6248 51.9938Z" fill="#BFBFBF" transform="matrix(1 0 0 -1 2758 913.244)"/></g></svg>