<svg xmlns="http://www.w3.org/2000/svg" xmlns:xlink="http://www.w3.org/1999/xlink" width="2791pt" height="557pt" viewBox="0.00 0.00 2790.79 557.00">
<g id="graph0" class="graph" transform="scale(1 1) rotate(0) translate(4 553)">
<polygon fill="white" stroke="transparent" points="-4,4 -4,-553 2786.79,-553 2786.79,4 -4,4"/>
<!-- rover -->
<g id="node1" class="node">
<title>rover</title>
<polygon fill="lightgrey" stroke="grey" points="137.79,-549 0.21,-514.5 275.36,-514.5 137.79,-549"/>
<text text-anchor="middle" x="137.79" y="-522.3" font-family="Times,serif" font-size="14.00">rover: Rover</text>
</g>
<!-- __main__.Rover -->
<g id="node23" class="node">
<title>__main__.Rover</title>
<polygon fill="lightgrey" stroke="grey" points="187.29,-405.5 88.29,-405.5 88.29,-306.5 187.29,-306.5 187.29,-405.5"/>
<polyline fill="none" stroke="grey" points="100.29,-405.5 88.29,-393.5 "/>
<polyline fill="none" stroke="grey" points="88.29,-318.5 100.29,-306.5 "/>
<polyline fill="none" stroke="grey" points="175.29,-306.5 187.29,-318.5 "/>
<polyline fill="none" stroke="grey" points="187.29,-393.5 175.29,-405.5 "/>
<text text-anchor="middle" x="137.79" y="-352.3" font-family="Times,serif" font-size="14.00">Rover: type</text>
</g>
<!-- rover&#45;&gt;__main__.Rover -->
<g id="edge1" class="edge">
<title>rover-&gt;__main__.Rover</title>
<path fill="none" stroke="black" d="M137.79,-514.49C137.79,-495.07 137.79,-452.26 137.79,-416.17"/>
<polygon fill="none" stroke="black" points="141.29,-415.7 137.79,-405.7 134.29,-415.7 141.29,-415.7"/>
<text text-anchor="middle" x="190.79" y="-473.8" font-family="Times,serif" font-size="14.00">&lt;inheritance&gt;</text>
<text text-anchor="middle" x="190.79" y="-458.8" font-family="Times,serif" font-size="14.00">base</text>
</g>
<!-- rover.flows.ground -->
<g id="node2" class="node">
<title>rover.flows.ground</title>
<ellipse fill="lightgrey" stroke="grey" stroke-width="0" cx="377.79" cy="-526" rx="84.49" ry="18"/>
<text text-anchor="middle" x="377.79" y="-522.3" font-family="Times,serif" font-size="14.00">ground: Ground</text>
</g>
<!-- __main__.Ground -->
<g id="node8" class="node">
<title>__main__.Ground</title>
<polygon fill="lightgrey" stroke="grey" points="432.79,-411 322.79,-411 322.79,-301 432.79,-301 432.79,-411"/>
<polyline fill="none" stroke="grey" points="334.79,-411 322.79,-399 "/>
<polyline fill="none" stroke="grey" points="322.79,-313 334.79,-301 "/>
<polyline fill="none" stroke="grey" points="420.79,-301 432.79,-313 "/>
<polyline fill="none" stroke="grey" points="432.79,-399 420.79,-411 "/>
<text text-anchor="middle" x="377.79" y="-352.3" font-family="Times,serif" font-size="14.00">Ground: type</text>
</g>
<!-- rover.flows.ground&#45;&gt;__main__.Ground -->
<g id="edge2" class="edge">
<title>rover.flows.ground-&gt;__main__.Ground</title>
<path fill="none" stroke="black" d="M377.79,-507.97C377.79,-487.73 377.79,-452.78 377.79,-421.6"/>
<polygon fill="none" stroke="black" points="381.29,-421.2 377.79,-411.2 374.29,-421.2 381.29,-421.2"/>
<text text-anchor="middle" x="430.79" y="-473.8" font-family="Times,serif" font-size="14.00">&lt;inheritance&gt;</text>
<text text-anchor="middle" x="430.79" y="-458.8" font-family="Times,serif" font-size="14.00">base</text>
</g>
<!-- rover.flows.force -->
<g id="node3" class="node">
<title>rover.flows.force</title>
<ellipse fill="lightgrey" stroke="grey" stroke-width="0" cx="654.79" cy="-526" rx="65.79" ry="18"/>
<text text-anchor="middle" x="654.79" y="-522.3" font-family="Times,serif" font-size="14.00">force: Force</text>
</g>
<!-- __main__.Force -->
<g id="node10" class="node">
<title>__main__.Force</title>
<polygon fill="lightgrey" stroke="grey" points="708.29,-404.5 611.29,-404.5 611.29,-307.5 708.29,-307.5 708.29,-404.5"/>
<polyline fill="none" stroke="grey" points="623.29,-404.5 611.29,-392.5 "/>
<polyline fill="none" stroke="grey" points="611.29,-319.5 623.29,-307.5 "/>
<polyline fill="none" stroke="grey" points="696.29,-307.5 708.29,-319.5 "/>
<polyline fill="none" stroke="grey" points="708.29,-392.5 696.29,-404.5 "/>
<text text-anchor="middle" x="659.79" y="-352.3" font-family="Times,serif" font-size="14.00">Force: type</text>
</g>
<!-- rover.flows.force&#45;&gt;__main__.Force -->
<g id="edge4" class="edge">
<title>rover.flows.force-&gt;__main__.Force</title>
<path fill="none" stroke="black" d="M655.29,-507.97C655.94,-486.29 657.09,-447.72 658.06,-415"/>
<polygon fill="none" stroke="black" points="661.57,-414.71 658.37,-404.61 654.57,-414.5 661.57,-414.71"/>
<text text-anchor="middle" x="710.79" y="-473.8" font-family="Times,serif" font-size="14.00">&lt;inheritance&gt;</text>
<text text-anchor="middle" x="710.79" y="-458.8" font-family="Times,serif" font-size="14.00">base</text>
</g>
<!-- rover.flows.ee -->
<g id="node4" class="node">
<title>rover.flows.ee</title>
<ellipse fill="lightgrey" stroke="grey" stroke-width="0" cx="783.79" cy="-526" rx="40.89" ry="18"/>
<text text-anchor="middle" x="783.79" y="-522.3" font-family="Times,serif" font-size="14.00">ee: EE</text>
</g>
<!-- __main__.EE -->
<g id="node11" class="node">
<title>__main__.EE</title>
<polygon fill="lightgrey" stroke="grey" points="822.79,-395 744.79,-395 744.79,-317 822.79,-317 822.79,-395"/>
<polyline fill="none" stroke="grey" points="756.79,-395 744.79,-383 "/>
<polyline fill="none" stroke="grey" points="744.79,-329 756.79,-317 "/>
<polyline fill="none" stroke="grey" points="810.79,-317 822.79,-329 "/>
<polyline fill="none" stroke="grey" points="822.79,-383 810.79,-395 "/>
<text text-anchor="middle" x="783.79" y="-352.3" font-family="Times,serif" font-size="14.00">EE: type</text>
</g>
<!-- rover.flows.ee&#45;&gt;__main__.EE -->
<g id="edge6" class="edge">
<title>rover.flows.ee-&gt;__main__.EE</title>
<path fill="none" stroke="black" d="M783.79,-507.97C783.79,-484.15 783.79,-439.96 783.79,-405.52"/>
<polygon fill="none" stroke="black" points="787.29,-405.18 783.79,-395.18 780.29,-405.18 787.29,-405.18"/>
<text text-anchor="middle" x="836.79" y="-473.8" font-family="Times,serif" font-size="14.00">&lt;inheritance&gt;</text>
<text text-anchor="middle" x="836.79" y="-458.8" font-family="Times,serif" font-size="14.00">base</text>
</g>
<!-- rover.flows.video -->
<g id="node5" class="node">
<title>rover.flows.video</title>
<ellipse fill="lightgrey" stroke="grey" stroke-width="0" cx="912.79" cy="-526" rx="67.69" ry="18"/>
<text text-anchor="middle" x="912.79" y="-522.3" font-family="Times,serif" font-size="14.00">video: Video</text>
</g>
<!-- __main__.Video -->
<g id="node12" class="node">
<title>__main__.Video</title>
<polygon fill="lightgrey" stroke="grey" points="961.29,-404.5 864.29,-404.5 864.29,-307.5 961.29,-307.5 961.29,-404.5"/>
<polyline fill="none" stroke="grey" points="876.29,-404.5 864.29,-392.5 "/>
<polyline fill="none" stroke="grey" points="864.29,-319.5 876.29,-307.5 "/>
<polyline fill="none" stroke="grey" points="949.29,-307.5 961.29,-319.5 "/>
<polyline fill="none" stroke="grey" points="961.29,-392.5 949.29,-404.5 "/>
<text text-anchor="middle" x="912.79" y="-352.3" font-family="Times,serif" font-size="14.00">Video: type</text>
</g>
<!-- rover.flows.video&#45;&gt;__main__.Video -->
<g id="edge8" class="edge">
<title>rover.flows.video-&gt;__main__.Video</title>
<path fill="none" stroke="black" d="M912.79,-507.97C912.79,-486.29 912.79,-447.72 912.79,-415"/>
<polygon fill="none" stroke="black" points="916.29,-414.61 912.79,-404.61 909.29,-414.61 916.29,-414.61"/>
<text text-anchor="middle" x="965.79" y="-473.8" font-family="Times,serif" font-size="14.00">&lt;inheritance&gt;</text>
<text text-anchor="middle" x="965.79" y="-458.8" font-family="Times,serif" font-size="14.00">base</text>
</g>
<!-- rover.flows.control -->
<g id="node6" class="node">
<title>rover.flows.control</title>
<ellipse fill="lightgrey" stroke="grey" stroke-width="0" cx="1081.79" cy="-526" rx="83.69" ry="18"/>
<text text-anchor="middle" x="1081.79" y="-522.3" font-family="Times,serif" font-size="14.00">control: Control</text>
</g>
<!-- __main__.Control -->
<g id="node13" class="node">
<title>__main__.Control</title>
<polygon fill="lightgrey" stroke="grey" points="1126.79,-411 1016.79,-411 1016.79,-301 1126.79,-301 1126.79,-411"/>
<polyline fill="none" stroke="grey" points="1028.79,-411 1016.79,-399 "/>
<polyline fill="none" stroke="grey" points="1016.79,-313 1028.79,-301 "/>
<polyline fill="none" stroke="grey" points="1114.79,-301 1126.79,-313 "/>
<polyline fill="none" stroke="grey" points="1126.79,-399 1114.79,-411 "/>
<text text-anchor="middle" x="1071.79" y="-352.3" font-family="Times,serif" font-size="14.00">Control: type</text>
</g>
<!-- rover.flows.control&#45;&gt;__main__.Control -->
<g id="edge10" class="edge">
<title>rover.flows.control-&gt;__main__.Control</title>
<path fill="none" stroke="black" d="M1080.77,-507.97C1079.56,-487.64 1077.47,-452.48 1075.61,-421.2"/>
<polygon fill="none" stroke="black" points="1079.1,-420.98 1075.01,-411.2 1072.11,-421.39 1079.1,-420.98"/>
<text text-anchor="middle" x="1132.79" y="-473.8" font-family="Times,serif" font-size="14.00">&lt;inheritance&gt;</text>
<text text-anchor="middle" x="1132.79" y="-458.8" font-family="Times,serif" font-size="14.00">base</text>
</g>
<!-- rover.flows.comms -->
<g id="node7" class="node">
<title>rover.flows.comms</title>
<ellipse fill="lightgrey" stroke="grey" stroke-width="0" cx="521.79" cy="-356" rx="71.49" ry="18"/>
<text text-anchor="middle" x="521.79" y="-352.3" font-family="Times,serif" font-size="14.00">comms: Flow</text>
</g>
<!-- fmdtools.define.flow.base.Flow -->
<g id="node9" class="node">
<title>fmdtools.define.flow.base.Flow</title>
<polygon fill="lightgrey" stroke="grey" points="764.79,-150.5 672.79,-150.5 672.79,-58.5 764.79,-58.5 764.79,-150.5"/>
<polyline fill="none" stroke="grey" points="684.79,-150.5 672.79,-138.5 "/>
<polyline fill="none" stroke="grey" points="672.79,-70.5 684.79,-58.5 "/>
<polyline fill="none" stroke="grey" points="752.79,-58.5 764.79,-70.5 "/>
<polyline fill="none" stroke="grey" points="764.79,-138.5 752.79,-150.5 "/>
<text text-anchor="middle" x="718.79" y="-100.8" font-family="Times,serif" font-size="14.00">Flow: type</text>
</g>
<!-- rover.flows.comms&#45;&gt;fmdtools.define.flow.base.Flow -->
<g id="edge12" class="edge">
<title>rover.flows.comms-&gt;fmdtools.define.flow.base.Flow</title>
<path fill="none" stroke="black" d="M520.37,-337.78C519.07,-311.72 519.97,-261.64 541.79,-227 570.45,-181.5 623.01,-148.7 663.44,-128.73"/>
<polygon fill="none" stroke="black" points="665.16,-131.79 672.65,-124.3 662.12,-125.48 665.16,-131.79"/>
<text text-anchor="middle" x="594.79" y="-245.8" font-family="Times,serif" font-size="14.00">&lt;inheritance&gt;</text>
<text text-anchor="middle" x="594.79" y="-230.8" font-family="Times,serif" font-size="14.00">base</text>
</g>
<!-- __main__.Ground&#45;&gt;fmdtools.define.flow.base.Flow -->
<g id="edge3" class="edge">
<title>__main__.Ground-&gt;fmdtools.define.flow.base.Flow</title>
<path fill="none" stroke="black" d="M384.9,-300.78C390.65,-275.7 401.04,-247.09 419.79,-227 484.97,-157.16 595.96,-126.46 662.82,-113.73"/>
<polygon fill="none" stroke="black" points="663.55,-117.16 672.76,-111.92 662.29,-110.27 663.55,-117.16"/>
<text text-anchor="middle" x="472.79" y="-245.8" font-family="Times,serif" font-size="14.00">&lt;inheritance&gt;</text>
<text text-anchor="middle" x="472.79" y="-230.8" font-family="Times,serif" font-size="14.00">base</text>
</g>
<!-- __main__.Force&#45;&gt;fmdtools.define.flow.base.Flow -->
<g id="edge5" class="edge">
<title>__main__.Force-&gt;fmdtools.define.flow.base.Flow</title>
<path fill="none" stroke="black" d="M652.28,-307.26C649.96,-282.91 649.44,-253.03 655.79,-227 661.48,-203.67 672.49,-179.83 683.74,-159.52"/>
<polygon fill="none" stroke="black" points="686.83,-161.16 688.73,-150.74 680.74,-157.7 686.83,-161.16"/>
<text text-anchor="middle" x="708.79" y="-245.8" font-family="Times,serif" font-size="14.00">&lt;inheritance&gt;</text>
<text text-anchor="middle" x="708.79" y="-230.8" font-family="Times,serif" font-size="14.00">base</text>
</g>
<!-- __main__.EE&#45;&gt;fmdtools.define.flow.base.Flow -->
<g id="edge7" class="edge">
<title>__main__.EE-&gt;fmdtools.define.flow.base.Flow</title>
<path fill="none" stroke="black" d="M778.96,-316.83C775.3,-291.19 769.56,-256.78 761.79,-227 755.99,-204.76 747.92,-180.8 740.33,-160.09"/>
<polygon fill="none" stroke="black" points="743.54,-158.67 736.78,-150.51 736.98,-161.1 743.54,-158.67"/>
<text text-anchor="middle" x="821.79" y="-245.8" font-family="Times,serif" font-size="14.00">&lt;inheritance&gt;</text>
<text text-anchor="middle" x="821.79" y="-230.8" font-family="Times,serif" font-size="14.00">base</text>
</g>
<!-- __main__.Video&#45;&gt;fmdtools.define.flow.base.Flow -->
<g id="edge9" class="edge">
<title>__main__.Video-&gt;fmdtools.define.flow.base.Flow</title>
<path fill="none" stroke="black" d="M907.71,-307.2C903.2,-281.7 894.73,-250.78 878.79,-227 852.29,-187.47 808.59,-155.56 773.55,-134.38"/>
<polygon fill="none" stroke="black" points="775.23,-131.31 764.84,-129.23 771.67,-137.34 775.23,-131.31"/>
<text text-anchor="middle" x="946.79" y="-245.8" font-family="Times,serif" font-size="14.00">&lt;inheritance&gt;</text>
<text text-anchor="middle" x="946.79" y="-230.8" font-family="Times,serif" font-size="14.00">base</text>
</g>
<!-- __main__.Control&#45;&gt;fmdtools.define.flow.base.Flow -->
<g id="edge11" class="edge">
<title>__main__.Control-&gt;fmdtools.define.flow.base.Flow</title>
<path fill="none" stroke="black" d="M1052.74,-300.7C1041.68,-275.6 1025.57,-247 1003.79,-227 937.92,-166.53 837.41,-133.36 775.03,-117.53"/>
<polygon fill="none" stroke="black" points="775.53,-114.05 764.98,-115.05 773.85,-120.84 775.53,-114.05"/>
<text text-anchor="middle" x="1080.79" y="-245.8" font-family="Times,serif" font-size="14.00">&lt;inheritance&gt;</text>
<text text-anchor="middle" x="1080.79" y="-230.8" font-family="Times,serif" font-size="14.00">base</text>
</g>
<!-- __main__.ControlRover -->
<g id="node14" class="node">
<title>__main__.ControlRover</title>
<polygon fill="lightgrey" stroke="grey" points="2230.79,-432 2078.79,-432 2078.79,-280 2230.79,-280 2230.79,-432"/>
<polyline fill="none" stroke="grey" points="2090.79,-432 2078.79,-420 "/>
<polyline fill="none" stroke="grey" points="2078.79,-292 2090.79,-280 "/>
<polyline fill="none" stroke="grey" points="2218.79,-280 2230.79,-292 "/>
<polyline fill="none" stroke="grey" points="2230.79,-420 2218.79,-432 "/>
<text text-anchor="middle" x="2154.79" y="-352.3" font-family="Times,serif" font-size="14.00">ControlRover: type</text>
</g>
<!-- fmdtools.define.block.function.Function -->
<g id="node15" class="node">
<title>fmdtools.define.block.function.Function</title>
<polygon fill="lightgrey" stroke="grey" points="1780.79,-164.5 1660.79,-164.5 1660.79,-44.5 1780.79,-44.5 1780.79,-164.5"/>
<polyline fill="none" stroke="grey" points="1672.79,-164.5 1660.79,-152.5 "/>
<polyline fill="none" stroke="grey" points="1660.79,-56.5 1672.79,-44.5 "/>
<polyline fill="none" stroke="grey" points="1768.79,-44.5 1780.79,-56.5 "/>
<polyline fill="none" stroke="grey" points="1780.79,-152.5 1768.79,-164.5 "/>
<text text-anchor="middle" x="1720.79" y="-100.8" font-family="Times,serif" font-size="14.00">Function: type</text>
</g>
<!-- __main__.ControlRover&#45;&gt;fmdtools.define.block.function.Function -->
<g id="edge14" class="edge">
<title>__main__.ControlRover-&gt;fmdtools.define.block.function.Function</title>
<path fill="none" stroke="black" d="M2078.64,-301.48C2043.65,-277.68 2001.25,-249.92 1961.79,-227 1905.45,-194.27 1839.22,-161.26 1790.46,-137.92"/>
<polygon fill="none" stroke="black" points="1791.79,-134.67 1781.26,-133.53 1788.78,-140.99 1791.79,-134.67"/>
<text text-anchor="middle" x="2063.79" y="-245.8" font-family="Times,serif" font-size="14.00">&lt;inheritance&gt;</text>
<text text-anchor="middle" x="2063.79" y="-230.8" font-family="Times,serif" font-size="14.00">base</text>
</g>
<!-- __main__.StoreEnergy -->
<g id="node16" class="node">
<title>__main__.StoreEnergy</title>
<polygon fill="lightgrey" stroke="grey" points="1390.79,-430 1242.79,-430 1242.79,-282 1390.79,-282 1390.79,-430"/>
<polyline fill="none" stroke="grey" points="1254.79,-430 1242.79,-418 "/>
<polyline fill="none" stroke="grey" points="1242.79,-294 1254.79,-282 "/>
<polyline fill="none" stroke="grey" points="1378.79,-282 1390.79,-294 "/>
<polyline fill="none" stroke="grey" points="1390.79,-418 1378.79,-430 "/>
<text text-anchor="middle" x="1316.79" y="-352.3" font-family="Times,serif" font-size="14.00">StoreEnergy: type</text>
</g>
<!-- __main__.StoreEnergy&#45;&gt;fmdtools.define.block.function.Function -->
<g id="edge16" class="edge">
<title>__main__.StoreEnergy-&gt;fmdtools.define.block.function.Function</title>
<path fill="none" stroke="black" d="M1391.09,-293C1419.02,-270.97 1451.58,-246.76 1482.79,-227 1537.29,-192.49 1602.79,-159.63 1651.27,-136.8"/>
<polygon fill="none" stroke="black" points="1652.85,-139.93 1660.43,-132.52 1649.88,-133.59 1652.85,-139.93"/>
<text text-anchor="middle" x="1535.79" y="-245.8" font-family="Times,serif" font-size="14.00">&lt;inheritance&gt;</text>
<text text-anchor="middle" x="1535.79" y="-230.8" font-family="Times,serif" font-size="14.00">base</text>
</g>
<!-- __main__.MoveRover -->
<g id="node17" class="node">
<title>__main__.MoveRover</title>
<polygon fill="lightgrey" stroke="grey" points="1602.79,-425 1464.79,-425 1464.79,-287 1602.79,-287 1602.79,-425"/>
<polyline fill="none" stroke="grey" points="1476.79,-425 1464.79,-413 "/>
<polyline fill="none" stroke="grey" points="1464.79,-299 1476.79,-287 "/>
<polyline fill="none" stroke="grey" points="1590.79,-287 1602.79,-299 "/>
<polyline fill="none" stroke="grey" points="1602.79,-413 1590.79,-425 "/>
<text text-anchor="middle" x="1533.79" y="-352.3" font-family="Times,serif" font-size="14.00">MoveRover: type</text>
</g>
<!-- __main__.MoveRover&#45;&gt;fmdtools.define.block.function.Function -->
<g id="edge18" class="edge">
<title>__main__.MoveRover-&gt;fmdtools.define.block.function.Function</title>
<path fill="none" stroke="black" d="M1571.38,-286.98C1583.23,-267.12 1596.87,-245.74 1610.79,-227 1624.47,-208.58 1640.45,-189.7 1655.92,-172.49"/>
<polygon fill="none" stroke="black" points="1658.85,-174.46 1662.98,-164.71 1653.67,-169.76 1658.85,-174.46"/>
<text text-anchor="middle" x="1663.79" y="-245.8" font-family="Times,serif" font-size="14.00">&lt;inheritance&gt;</text>
<text text-anchor="middle" x="1663.79" y="-230.8" font-family="Times,serif" font-size="14.00">base</text>
</g>
<!-- __main__.ViewGround -->
<g id="node18" class="node">
<title>__main__.ViewGround</title>
<polygon fill="lightgrey" stroke="grey" points="1793.29,-428.5 1648.29,-428.5 1648.29,-283.5 1793.29,-283.5 1793.29,-428.5"/>
<polyline fill="none" stroke="grey" points="1660.29,-428.5 1648.29,-416.5 "/>
<polyline fill="none" stroke="grey" points="1648.29,-295.5 1660.29,-283.5 "/>
<polyline fill="none" stroke="grey" points="1781.29,-283.5 1793.29,-295.5 "/>
<polyline fill="none" stroke="grey" points="1793.29,-416.5 1781.29,-428.5 "/>
<text text-anchor="middle" x="1720.79" y="-352.3" font-family="Times,serif" font-size="14.00">ViewGround: type</text>
</g>
<!-- __main__.ViewGround&#45;&gt;fmdtools.define.block.function.Function -->
<g id="edge20" class="edge">
<title>__main__.ViewGround-&gt;fmdtools.define.block.function.Function</title>
<path fill="none" stroke="black" d="M1720.79,-283.17C1720.79,-249.12 1720.79,-208.61 1720.79,-174.88"/>
<polygon fill="none" stroke="black" points="1724.29,-174.64 1720.79,-164.64 1717.29,-174.64 1724.29,-174.64"/>
<text text-anchor="middle" x="1773.79" y="-245.8" font-family="Times,serif" font-size="14.00">&lt;inheritance&gt;</text>
<text text-anchor="middle" x="1773.79" y="-230.8" font-family="Times,serif" font-size="14.00">base</text>
</g>
<!-- __main__.Communicate -->
<g id="node19" class="node">
<title>__main__.Communicate</title>
<polygon fill="lightgrey" stroke="grey" points="1997.29,-433.5 1842.29,-433.5 1842.29,-278.5 1997.29,-278.5 1997.29,-433.5"/>
<polyline fill="none" stroke="grey" points="1854.29,-433.5 1842.29,-421.5 "/>
<polyline fill="none" stroke="grey" points="1842.29,-290.5 1854.29,-278.5 "/>
<polyline fill="none" stroke="grey" points="1985.29,-278.5 1997.29,-290.5 "/>
<polyline fill="none" stroke="grey" points="1997.29,-421.5 1985.29,-433.5 "/>
<text text-anchor="middle" x="1919.79" y="-352.3" font-family="Times,serif" font-size="14.00">Communicate: type</text>
</g>
<!-- __main__.Communicate&#45;&gt;fmdtools.define.block.function.Function -->
<g id="edge22" class="edge">
<title>__main__.Communicate-&gt;fmdtools.define.block.function.Function</title>
<path fill="none" stroke="black" d="M1868.88,-278.36C1856.8,-261.16 1843.67,-243.21 1830.79,-227 1816.35,-208.84 1799.96,-189.93 1784.32,-172.58"/>
<polygon fill="none" stroke="black" points="1786.5,-169.79 1777.19,-164.73 1781.32,-174.49 1786.5,-169.79"/>
<text text-anchor="middle" x="1904.79" y="-245.8" font-family="Times,serif" font-size="14.00">&lt;inheritance&gt;</text>
<text text-anchor="middle" x="1904.79" y="-230.8" font-family="Times,serif" font-size="14.00">base</text>
</g>
<!-- fmdtools.define.container.mode.Mode -->
<g id="node20" class="node">
<title>fmdtools.define.container.mode.Mode</title>
<polygon fill="lightgrey" stroke="grey" points="2416.79,-420 2288.79,-420 2288.79,-292 2416.79,-292 2416.79,-420"/>
<polyline fill="none" stroke="grey" points="2300.79,-420 2288.79,-408 "/>
<polyline fill="none" stroke="grey" points="2288.79,-304 2300.79,-292 "/>
<polyline fill="none" stroke="grey" points="2404.79,-292 2416.79,-304 "/>
<polyline fill="none" stroke="grey" points="2416.79,-408 2404.79,-420 "/>
<text text-anchor="middle" x="2352.79" y="-352.3" font-family="Times,serif" font-size="14.00">Mode: datatype</text>
</g>
<!-- fmdtools.define.block.base.SimParam -->
<g id="node21" class="node">
<title>fmdtools.define.block.base.SimParam</title>
<polygon fill="lightgrey" stroke="grey" points="2596.79,-437 2434.79,-437 2434.79,-275 2596.79,-275 2596.79,-437"/>
<polyline fill="none" stroke="grey" points="2446.79,-437 2434.79,-425 "/>
<polyline fill="none" stroke="grey" points="2434.79,-287 2446.79,-275 "/>
<polyline fill="none" stroke="grey" points="2584.79,-275 2596.79,-287 "/>
<polyline fill="none" stroke="grey" points="2596.79,-425 2584.79,-437 "/>
<text text-anchor="middle" x="2515.79" y="-352.3" font-family="Times,serif" font-size="14.00">SimParam: datatype</text>
</g>
<!-- fmdtools.define.container.time.Time -->
<g id="node22" class="node">
<title>fmdtools.define.container.time.Time</title>
<polygon fill="lightgrey" stroke="grey" points="2738.79,-418 2614.79,-418 2614.79,-294 2738.79,-294 2738.79,-418"/>
<polyline fill="none" stroke="grey" points="2626.79,-418 2614.79,-406 "/>
<polyline fill="none" stroke="grey" points="2614.79,-306 2626.79,-294 "/>
<polyline fill="none" stroke="grey" points="2726.79,-294 2738.79,-306 "/>
<polyline fill="none" stroke="grey" points="2738.79,-406 2726.79,-418 "/>
<text text-anchor="middle" x="2676.79" y="-352.3" font-family="Times,serif" font-size="14.00">Time: datatype</text>
</g>
<!-- fmdtools.define.architecture.function.FunctionArchitecture -->
<g id="node24" class="node">
<title>fmdtools.define.architecture.function.FunctionArchitecture</title>
<polygon fill="lightgrey" stroke="grey" points="242.29,-209 33.29,-209 33.29,0 242.29,0 242.29,-209"/>
<polyline fill="none" stroke="grey" points="45.29,-209 33.29,-197 "/>
<polyline fill="none" stroke="grey" points="33.29,-12 45.29,0 "/>
<polyline fill="none" stroke="grey" points="230.29,0 242.29,-12 "/>
<polyline fill="none" stroke="grey" points="242.29,-197 230.29,-209 "/>
<text text-anchor="middle" x="137.79" y="-100.8" font-family="Times,serif" font-size="14.00">FunctionArchitecture: type</text>
</g>
<!-- __main__.Rover&#45;&gt;fmdtools.define.architecture.function.FunctionArchitecture -->
<g id="edge26" class="edge">
<title>__main__.Rover-&gt;fmdtools.define.architecture.function.FunctionArchitecture</title>
<path fill="none" stroke="black" d="M137.79,-306.3C137.79,-281.39 137.79,-249.94 137.79,-219.37"/>
<polygon fill="none" stroke="black" points="141.29,-219.05 137.79,-209.05 134.29,-219.05 141.29,-219.05"/>
<text text-anchor="middle" x="190.79" y="-245.8" font-family="Times,serif" font-size="14.00">&lt;inheritance&gt;</text>
<text text-anchor="middle" x="190.79" y="-230.8" font-family="Times,serif" font-size="14.00">base</text>
</g>
<!-- rover.fxns.control_rover -->
<g id="node25" class="node">
<title>rover.fxns.control_rover</title>
<polygon fill="lightgrey" stroke="grey" stroke-width="2" points="2294.79,-544 2078.79,-544 2078.79,-508 2294.79,-508 2294.79,-544"/>
<text text-anchor="middle" x="2186.79" y="-522.3" font-family="Times,serif" font-size="14.00">control_rover: ControlRover</text>
</g>
<!-- rover.fxns.control_rover&#45;&gt;__main__.ControlRover -->
<g id="edge13" class="edge">
<title>rover.fxns.control_rover-&gt;__main__.ControlRover</title>
<path fill="none" stroke="black" d="M2183.54,-507.97C2180.53,-492.13 2175.8,-467.29 2171.04,-442.3"/>
<polygon fill="none" stroke="black" points="2174.45,-441.53 2169.14,-432.36 2167.57,-442.84 2174.45,-441.53"/>
<text text-anchor="middle" x="2232.79" y="-473.8" font-family="Times,serif" font-size="14.00">&lt;inheritance&gt;</text>
<text text-anchor="middle" x="2232.79" y="-458.8" font-family="Times,serif" font-size="14.00">base</text>
</g>
<!-- rover.fxns.store_energy -->
<g id="node26" class="node">
<title>rover.fxns.store_energy</title>
<polygon fill="lightgrey" stroke="grey" stroke-width="2" points="1392.29,-544 1183.29,-544 1183.29,-508 1392.29,-508 1392.29,-544"/>
<text text-anchor="middle" x="1287.79" y="-522.3" font-family="Times,serif" font-size="14.00">store_energy: StoreEnergy</text>
</g>
<!-- rover.fxns.store_energy&#45;&gt;__main__.StoreEnergy -->
<g id="edge15" class="edge">
<title>rover.fxns.store_energy-&gt;__main__.StoreEnergy</title>
<path fill="none" stroke="black" d="M1290.73,-507.97C1293.55,-491.62 1298.03,-465.67 1302.48,-439.86"/>
<polygon fill="none" stroke="black" points="1305.93,-440.45 1304.19,-430 1299.04,-439.26 1305.93,-440.45"/>
<text text-anchor="middle" x="1352.79" y="-473.8" font-family="Times,serif" font-size="14.00">&lt;inheritance&gt;</text>
<text text-anchor="middle" x="1352.79" y="-458.8" font-family="Times,serif" font-size="14.00">base</text>
</g>
<!-- rover.fxns.move_rover -->
<g id="node27" class="node">
<title>rover.fxns.move_rover</title>
<polygon fill="lightgrey" stroke="grey" stroke-width="2" points="1600.79,-544 1410.79,-544 1410.79,-508 1600.79,-508 1600.79,-544"/>
<text text-anchor="middle" x="1505.79" y="-522.3" font-family="Times,serif" font-size="14.00">move_rover: MoveRover</text>
</g>
<!-- rover.fxns.move_rover&#45;&gt;__main__.MoveRover -->
<g id="edge17" class="edge">
<title>rover.fxns.move_rover-&gt;__main__.MoveRover</title>
<path fill="none" stroke="black" d="M1508.63,-507.97C1511.51,-490.66 1516.19,-462.58 1520.74,-435.3"/>
<polygon fill="none" stroke="black" points="1524.21,-435.75 1522.4,-425.31 1517.31,-434.6 1524.21,-435.75"/>
<text text-anchor="middle" x="1570.79" y="-473.8" font-family="Times,serif" font-size="14.00">&lt;inheritance&gt;</text>
<text text-anchor="middle" x="1570.79" y="-458.8" font-family="Times,serif" font-size="14.00">base</text>
</g>
<!-- rover.fxns.view_ground -->
<g id="node28" class="node">
<title>rover.fxns.view_ground</title>
<polygon fill="lightgrey" stroke="grey" stroke-width="2" points="1822.79,-544 1618.79,-544 1618.79,-508 1822.79,-508 1822.79,-544"/>
<text text-anchor="middle" x="1720.79" y="-522.3" font-family="Times,serif" font-size="14.00">view_ground: ViewGround</text>
</g>
<!-- rover.fxns.view_ground&#45;&gt;__main__.ViewGround -->
<g id="edge19" class="edge">
<title>rover.fxns.view_ground-&gt;__main__.ViewGround</title>
<path fill="none" stroke="black" d="M1720.79,-507.97C1720.79,-491.47 1720.79,-465.2 1720.79,-439.16"/>
<polygon fill="none" stroke="black" points="1724.29,-438.83 1720.79,-428.83 1717.29,-438.83 1724.29,-438.83"/>
<text text-anchor="middle" x="1773.79" y="-473.8" font-family="Times,serif" font-size="14.00">&lt;inheritance&gt;</text>
<text text-anchor="middle" x="1773.79" y="-458.8" font-family="Times,serif" font-size="14.00">base</text>
</g>
<!-- rover.fxns.communicate -->
<g id="node29" class="node">
<title>rover.fxns.communicate</title>
<polygon fill="lightgrey" stroke="grey" stroke-width="2" points="2060.29,-544 1841.29,-544 1841.29,-508 2060.29,-508 2060.29,-544"/>
<text text-anchor="middle" x="1950.79" y="-522.3" font-family="Times,serif" font-size="14.00">communicate: Communicate</text>
</g>
<!-- rover.fxns.communicate&#45;&gt;__main__.Communicate -->
<g id="edge21" class="edge">
<title>rover.fxns.communicate-&gt;__main__.Communicate</title>
<path fill="none" stroke="black" d="M1947.64,-507.97C1944.78,-492.42 1940.31,-468.2 1935.78,-443.67"/>
<polygon fill="none" stroke="black" points="1939.17,-442.74 1933.91,-433.54 1932.28,-444.01 1939.17,-442.74"/>
<text text-anchor="middle" x="1996.79" y="-473.8" font-family="Times,serif" font-size="14.00">&lt;inheritance&gt;</text>
<text text-anchor="middle" x="1996.79" y="-458.8" font-family="Times,serif" font-size="14.00">base</text>
</g>
<!-- rover.m -->
<g id="node30" class="node">
<title>rover.m</title>
<polygon fill="lightgrey" stroke="grey" points="2392.29,-544 2325.29,-544 2325.29,-548 2313.29,-548 2313.29,-508 2392.29,-508 2392.29,-544"/>
<polyline fill="none" stroke="grey" points="2313.29,-544 2325.29,-544 "/>
<text text-anchor="middle" x="2352.79" y="-522.3" font-family="Times,serif" font-size="14.00">m: Mode</text>
</g>
<!-- rover.m&#45;&gt;fmdtools.define.container.mode.Mode -->
<g id="edge23" class="edge">
<title>rover.m-&gt;fmdtools.define.container.mode.Mode</title>
<path fill="none" stroke="black" d="M2352.79,-507.97C2352.79,-489.61 2352.79,-459.15 2352.79,-430.37"/>
<polygon fill="none" stroke="black" points="2356.29,-430.29 2352.79,-420.29 2349.29,-430.29 2356.29,-430.29"/>
<text text-anchor="middle" x="2405.79" y="-473.8" font-family="Times,serif" font-size="14.00">&lt;inheritance&gt;</text>
<text text-anchor="middle" x="2405.79" y="-458.8" font-family="Times,serif" font-size="14.00">base</text>
</g>
<!-- rover.sp -->
<g id="node31" class="node">
<title>rover.sp</title>
<polygon fill="lightgrey" stroke="grey" points="2573.79,-544 2469.79,-544 2469.79,-548 2457.79,-548 2457.79,-508 2573.79,-508 2573.79,-544"/>
<polyline fill="none" stroke="grey" points="2457.79,-544 2469.79,-544 "/>
<text text-anchor="middle" x="2515.79" y="-522.3" font-family="Times,serif" font-size="14.00">sp: SimParam</text>
</g>
<!-- rover.sp&#45;&gt;fmdtools.define.block.base.SimParam -->
<g id="edge24" class="edge">
<title>rover.sp-&gt;fmdtools.define.block.base.SimParam</title>
<path fill="none" stroke="black" d="M2515.79,-507.97C2515.79,-493.15 2515.79,-470.44 2515.79,-447.11"/>
<polygon fill="none" stroke="black" points="2519.29,-447.09 2515.79,-437.09 2512.29,-447.09 2519.29,-447.09"/>
<text text-anchor="middle" x="2568.79" y="-473.8" font-family="Times,serif" font-size="14.00">&lt;inheritance&gt;</text>
<text text-anchor="middle" x="2568.79" y="-458.8" font-family="Times,serif" font-size="14.00">base</text>
</g>
<!-- rover.t -->
<g id="node32" class="node">
<title>rover.t</title>
<polygon fill="lightgrey" stroke="grey" points="2710.29,-544 2655.29,-544 2655.29,-548 2643.29,-548 2643.29,-508 2710.29,-508 2710.29,-544"/>
<polyline fill="none" stroke="grey" points="2643.29,-544 2655.29,-544 "/>
<text text-anchor="middle" x="2676.79" y="-522.3" font-family="Times,serif" font-size="14.00">t: Time</text>
</g>
<!-- rover.t&#45;&gt;fmdtools.define.container.time.Time -->
<g id="edge25" class="edge">
<title>rover.t-&gt;fmdtools.define.container.time.Time</title>
<path fill="none" stroke="black" d="M2676.79,-507.97C2676.79,-489.24 2676.79,-457.9 2676.79,-428.62"/>
<polygon fill="none" stroke="black" points="2680.29,-428.37 2676.79,-418.37 2673.29,-428.37 2680.29,-428.37"/>
<text text-anchor="middle" x="2729.79" y="-473.8" font-family="Times,serif" font-size="14.00">&lt;inheritance&gt;</text>
<text text-anchor="middle" x="2729.79" y="-458.8" font-family="Times,serif" font-size="14.00">base</text>
</g>
</g>
</svg>