<svg xmlns="http://www.w3.org/2000/svg" xmlns:xlink="http://www.w3.org/1999/xlink" width="1978pt" height="605pt" viewBox="0.00 0.00 1978.27 604.50">
<g id="graph0" class="graph" transform="scale(1 1) rotate(0) translate(4 600.5)">
<polygon fill="white" stroke="none" points="-4,4 -4,-600.5 1974.27,-600.5 1974.27,4 -4,4"/>
<!-- rover -->
<g id="node1" class="node">
<title>rover</title>
<polygon fill="lightgrey" stroke="grey" points="839.52,-596.5 724.42,-560.88 954.63,-560.88 839.52,-596.5"/>
<text text-anchor="middle" x="839.52" y="-567.33" font-family="Times New Roman,serif" font-size="14.00">rover: Rover</text>
</g>
<!-- rover.flows.ground -->
<g id="node2" class="node">
<title>rover.flows.ground</title>
<ellipse fill="lightgrey" stroke="grey" stroke-width="0" cx="70.52" cy="-440.88" rx="70.52" ry="18"/>
<text text-anchor="middle" x="70.52" y="-435.45" font-family="Times New Roman,serif" font-size="14.00">ground: Ground</text>
</g>
<!-- rover&#45;&gt;rover.flows.ground -->
<g id="edge1" class="edge">
<title>rover-&gt;rover.flows.ground</title>
<path fill="none" stroke="black" d="M741.65,-570.44C562.04,-567.38 193.4,-557.89 141.52,-531 110.96,-515.16 89.15,-479.68 78.31,-458.57"/>
<polygon fill="black" stroke="black" points="741.61,-570.43 747.68,-566.54 753.61,-570.63 747.54,-574.53 741.61,-570.43"/>
<text text-anchor="middle" x="183.52" y="-517.7" font-family="Times New Roman,serif" font-size="14.00">&lt;containment&gt;</text>
<text text-anchor="middle" x="183.52" y="-501.95" font-family="Times New Roman,serif" font-size="14.00">flows.ground</text>
</g>
<!-- rover.flows.force -->
<g id="node3" class="node">
<title>rover.flows.force</title>
<ellipse fill="lightgrey" stroke="grey" stroke-width="0" cx="215.52" cy="-440.88" rx="56.55" ry="18"/>
<text text-anchor="middle" x="215.52" y="-435.45" font-family="Times New Roman,serif" font-size="14.00">force: Force</text>
</g>
<!-- rover&#45;&gt;rover.flows.force -->
<g id="edge2" class="edge">
<title>rover-&gt;rover.flows.force</title>
<path fill="none" stroke="black" d="M741.79,-570.52C585.09,-567.72 291.2,-558.8 252.52,-531 228.99,-514.08 220.37,-479.33 217.25,-458.57"/>
<polygon fill="black" stroke="black" points="741.77,-570.52 747.84,-566.62 753.77,-570.72 747.7,-574.62 741.77,-570.52"/>
<text text-anchor="middle" x="294.52" y="-517.7" font-family="Times New Roman,serif" font-size="14.00">&lt;containment&gt;</text>
<text text-anchor="middle" x="294.52" y="-501.95" font-family="Times New Roman,serif" font-size="14.00">flows.force</text>
</g>
<!-- rover.flows.ee -->
<g id="node4" class="node">
<title>rover.flows.ee</title>
<ellipse fill="lightgrey" stroke="grey" stroke-width="0" cx="324.52" cy="-440.88" rx="34.1" ry="18"/>
<text text-anchor="middle" x="324.52" y="-435.45" font-family="Times New Roman,serif" font-size="14.00">ee: EE</text>
</g>
<!-- rover&#45;&gt;rover.flows.ee -->
<g id="edge3" class="edge">
<title>rover-&gt;rover.flows.ee</title>
<path fill="none" stroke="black" d="M736.22,-568.47C605.32,-563.46 393.07,-552.17 363.52,-531 339.78,-513.98 330.31,-479.26 326.68,-458.54"/>
<polygon fill="black" stroke="black" points="736.13,-568.46 742.27,-564.69 748.12,-568.91 741.97,-572.68 736.13,-568.46"/>
<text text-anchor="middle" x="405.52" y="-517.7" font-family="Times New Roman,serif" font-size="14.00">&lt;containment&gt;</text>
<text text-anchor="middle" x="405.52" y="-501.95" font-family="Times New Roman,serif" font-size="14.00">flows.ee</text>
</g>
<!-- rover.flows.video -->
<g id="node5" class="node">
<title>rover.flows.video</title>
<ellipse fill="lightgrey" stroke="grey" stroke-width="0" cx="434.52" cy="-440.88" rx="58.05" ry="18"/>
<text text-anchor="middle" x="434.52" y="-435.45" font-family="Times New Roman,serif" font-size="14.00">video: Video</text>
</g>
<!-- rover&#45;&gt;rover.flows.video -->
<g id="edge4" class="edge">
<title>rover-&gt;rover.flows.video</title>
<path fill="none" stroke="black" d="M745.03,-571.5C651.76,-569.46 517.25,-561.14 475.52,-531 451.78,-513.85 441.43,-479.51 437.2,-458.82"/>
<polygon fill="black" stroke="black" points="745,-571.5 751.08,-567.61 757,-571.73 750.92,-575.61 745,-571.5"/>
<text text-anchor="middle" x="517.52" y="-517.7" font-family="Times New Roman,serif" font-size="14.00">&lt;containment&gt;</text>
<text text-anchor="middle" x="517.52" y="-501.95" font-family="Times New Roman,serif" font-size="14.00">flows.video</text>
</g>
<!-- rover.flows.control -->
<g id="node6" class="node">
<title>rover.flows.control</title>
<ellipse fill="lightgrey" stroke="grey" stroke-width="0" cx="580.52" cy="-440.88" rx="70.03" ry="18"/>
<text text-anchor="middle" x="580.52" y="-435.45" font-family="Times New Roman,serif" font-size="14.00">control: Control</text>
</g>
<!-- rover&#45;&gt;rover.flows.control -->
<g id="edge5" class="edge">
<title>rover-&gt;rover.flows.control</title>
<path fill="none" stroke="black" d="M740.88,-569.74C674.1,-566.04 594.23,-556.27 572.52,-531 555.32,-510.97 564.49,-478.24 572.6,-458.51"/>
<polygon fill="black" stroke="black" points="740.72,-569.73 746.91,-566.03 752.7,-570.33 746.51,-574.02 740.72,-569.73"/>
<text text-anchor="middle" x="614.52" y="-517.7" font-family="Times New Roman,serif" font-size="14.00">&lt;containment&gt;</text>
<text text-anchor="middle" x="614.52" y="-501.95" font-family="Times New Roman,serif" font-size="14.00">flows.control</text>
</g>
<!-- rover.flows.comms -->
<g id="node7" class="node">
<title>rover.flows.comms</title>
<ellipse fill="lightgrey" stroke="grey" stroke-width="0" cx="677.52" cy="-364.25" rx="61.54" ry="18"/>
<text text-anchor="middle" x="677.52" y="-358.82" font-family="Times New Roman,serif" font-size="14.00">comms: Flow</text>
</g>
<!-- rover&#45;&gt;rover.flows.comms -->
<g id="edge6" class="edge">
<title>rover-&gt;rover.flows.comms</title>
<path fill="none" stroke="black" d="M749.58,-557.75C720.15,-551.23 692.64,-542.37 683.52,-531 648.58,-487.41 663.15,-414.7 672.26,-382.04"/>
<polygon fill="black" stroke="black" points="749.63,-557.76 756.32,-555.07 761.38,-560.21 754.69,-562.9 749.63,-557.76"/>
<text text-anchor="middle" x="725.52" y="-517.7" font-family="Times New Roman,serif" font-size="14.00">&lt;containment&gt;</text>
<text text-anchor="middle" x="725.52" y="-501.95" font-family="Times New Roman,serif" font-size="14.00">flows.comms</text>
</g>
<!-- __main__.Rover -->
<g id="node22" class="node">
<title>__main__.Rover</title>
<polygon fill="lightgrey" stroke="grey" points="788.15,-481.5 706.9,-481.5 706.9,-400.25 788.15,-400.25 788.15,-481.5"/>
<polyline fill="none" stroke="grey" points="718.9,-481.5 706.9,-469.5"/>
<polyline fill="none" stroke="grey" points="706.9,-412.25 718.9,-400.25"/>
<polyline fill="none" stroke="grey" points="776.15,-400.25 788.15,-412.25"/>
<polyline fill="none" stroke="grey" points="788.15,-469.5 776.15,-481.5"/>
<text text-anchor="middle" x="747.52" y="-435.45" font-family="Times New Roman,serif" font-size="14.00">Rover: type</text>
</g>
<!-- rover&#45;&gt;__main__.Rover -->
<g id="edge14" class="edge">
<title>rover-&gt;__main__.Rover</title>
<path fill="none" stroke="black" d="M822.2,-560.5C811.8,-553.08 798.85,-542.61 789.77,-531 780.52,-519.17 772.65,-504.98 766.3,-491.44"/>
<polygon fill="none" stroke="black" points="769.23,-490.43 761.95,-482.74 762.85,-493.3 769.23,-490.43"/>
<text text-anchor="middle" x="828.4" y="-517.7" font-family="Times New Roman,serif" font-size="14.00">&lt;inheritance&gt;</text>
<text text-anchor="middle" x="828.4" y="-501.95" font-family="Times New Roman,serif" font-size="14.00">base</text>
</g>
<!-- rover.fxns.control_rover -->
<g id="node24" class="node">
<title>rover.fxns.control_rover</title>
<polygon fill="lightgrey" stroke="grey" stroke-width="2" points="982.77,-458.88 806.27,-458.88 806.27,-422.88 982.77,-422.88 982.77,-458.88"/>
<text text-anchor="middle" x="894.52" y="-435.45" font-family="Times New Roman,serif" font-size="14.00">control_rover: ControlRover</text>
</g>
<!-- rover&#45;&gt;rover.fxns.control_rover -->
<g id="edge7" class="edge">
<title>rover-&gt;rover.fxns.control_rover</title>
<path fill="none" stroke="black" d="M857.22,-550.74C861.71,-544.66 866.2,-537.81 869.52,-531 880.94,-507.6 887.92,-478.13 891.51,-459.64"/>
<polygon fill="black" stroke="black" points="857.36,-550.56 856.79,-557.75 849.94,-559.99 850.51,-552.81 857.36,-550.56"/>
<text text-anchor="middle" x="933.65" y="-517.7" font-family="Times New Roman,serif" font-size="14.00">&lt;containment&gt;</text>
<text text-anchor="middle" x="933.65" y="-501.95" font-family="Times New Roman,serif" font-size="14.00">fxns.control_rover</text>
</g>
<!-- rover.fxns.store_energy -->
<g id="node25" class="node">
<title>rover.fxns.store_energy</title>
<polygon fill="lightgrey" stroke="grey" stroke-width="2" points="1164.4,-458.88 1000.65,-458.88 1000.65,-422.88 1164.4,-422.88 1164.4,-458.88"/>
<text text-anchor="middle" x="1082.52" y="-435.45" font-family="Times New Roman,serif" font-size="14.00">store_energy: StoreEnergy</text>
</g>
<!-- rover&#45;&gt;rover.fxns.store_energy -->
<g id="edge8" class="edge">
<title>rover-&gt;rover.fxns.store_energy</title>
<path fill="none" stroke="black" d="M921.7,-557.27C944.58,-551.19 968.81,-542.71 989.52,-531 1022.23,-512.51 1052.06,-479.9 1068.7,-459.67"/>
<polygon fill="black" stroke="black" points="921.67,-557.28 916.82,-562.62 910.03,-560.19 914.88,-554.86 921.67,-557.28"/>
<text text-anchor="middle" x="1079.4" y="-517.7" font-family="Times New Roman,serif" font-size="14.00">&lt;containment&gt;</text>
<text text-anchor="middle" x="1079.4" y="-501.95" font-family="Times New Roman,serif" font-size="14.00">fxns.store_energy</text>
</g>
<!-- rover.fxns.move_rover -->
<g id="node26" class="node">
<title>rover.fxns.move_rover</title>
<polygon fill="lightgrey" stroke="grey" stroke-width="2" points="1339.02,-458.88 1182.02,-458.88 1182.02,-422.88 1339.02,-422.88 1339.02,-458.88"/>
<text text-anchor="middle" x="1260.52" y="-435.45" font-family="Times New Roman,serif" font-size="14.00">move_rover: MoveRover</text>
</g>
<!-- rover&#45;&gt;rover.fxns.move_rover -->
<g id="edge9" class="edge">
<title>rover-&gt;rover.fxns.move_rover</title>
<path fill="none" stroke="black" d="M938.19,-569.65C996.7,-565.6 1071.33,-555.47 1133.52,-531 1176.14,-514.24 1218.16,-480.43 1241.58,-459.62"/>
<polygon fill="black" stroke="black" points="938.08,-569.65 932.35,-574.02 926.11,-570.41 931.84,-566.04 938.08,-569.65"/>
<text text-anchor="middle" x="1237.15" y="-517.7" font-family="Times New Roman,serif" font-size="14.00">&lt;containment&gt;</text>
<text text-anchor="middle" x="1237.15" y="-501.95" font-family="Times New Roman,serif" font-size="14.00">fxns.move_rover</text>
</g>
<!-- rover.fxns.view_ground -->
<g id="node27" class="node">
<title>rover.fxns.view_ground</title>
<polygon fill="lightgrey" stroke="grey" stroke-width="2" points="1524.27,-458.88 1356.77,-458.88 1356.77,-422.88 1524.27,-422.88 1524.27,-458.88"/>
<text text-anchor="middle" x="1440.52" y="-435.45" font-family="Times New Roman,serif" font-size="14.00">view_ground: ViewGround</text>
</g>
<!-- rover&#45;&gt;rover.fxns.view_ground -->
<g id="edge10" class="edge">
<title>rover-&gt;rover.fxns.view_ground</title>
<path fill="none" stroke="black" d="M945.32,-567.48C1057.52,-562 1226.9,-550.77 1288.52,-531 1338.19,-515.07 1389.12,-480.82 1417.6,-459.73"/>
<polygon fill="black" stroke="black" points="945.5,-567.47 939.7,-571.75 933.51,-568.04 939.31,-563.76 945.5,-567.47"/>
<text text-anchor="middle" x="1404.77" y="-517.7" font-family="Times New Roman,serif" font-size="14.00">&lt;containment&gt;</text>
<text text-anchor="middle" x="1404.77" y="-501.95" font-family="Times New Roman,serif" font-size="14.00">fxns.view_ground</text>
</g>
<!-- rover.fxns.communicate -->
<g id="node28" class="node">
<title>rover.fxns.communicate</title>
<polygon fill="lightgrey" stroke="grey" stroke-width="2" points="1716.65,-458.88 1542.4,-458.88 1542.4,-422.88 1716.65,-422.88 1716.65,-458.88"/>
<text text-anchor="middle" x="1629.52" y="-435.45" font-family="Times New Roman,serif" font-size="14.00">communicate: Communicate</text>
</g>
<!-- rover&#45;&gt;rover.fxns.communicate -->
<g id="edge11" class="edge">
<title>rover-&gt;rover.fxns.communicate</title>
<path fill="none" stroke="black" d="M937.98,-570.2C1087.24,-567.01 1363.49,-557.62 1458.52,-531 1513.65,-515.56 1571.43,-480.98 1603.72,-459.72"/>
<polygon fill="black" stroke="black" points="938.16,-570.19 932.24,-574.32 926.16,-570.44 932.08,-566.32 938.16,-570.19"/>
<text text-anchor="middle" x="1583.52" y="-517.7" font-family="Times New Roman,serif" font-size="14.00">&lt;containment&gt;</text>
<text text-anchor="middle" x="1583.52" y="-501.95" font-family="Times New Roman,serif" font-size="14.00">fxns.communicate</text>
</g>
<!-- rover.sp -->
<g id="node29" class="node">
<title>rover.sp</title>
<polygon fill="lightgrey" stroke="grey" points="1828.15,-458.88 1746.9,-458.88 1746.9,-462.88 1734.9,-462.88 1734.9,-422.88 1828.15,-422.88 1828.15,-458.88"/>
<polyline fill="none" stroke="grey" points="1734.9,-458.88 1746.9,-458.88"/>
<text text-anchor="middle" x="1781.52" y="-435.45" font-family="Times New Roman,serif" font-size="14.00">sp: SimParam</text>
</g>
<!-- rover&#45;&gt;rover.sp -->
<g id="edge12" class="edge">
<title>rover-&gt;rover.sp</title>
<path fill="none" stroke="black" d="M931.94,-572.38C1113.1,-572.73 1508.55,-568.96 1638.52,-531 1687.39,-516.73 1735.89,-480.69 1761.95,-459.06"/>
<polygon fill="black" stroke="black" points="931.91,-572.38 925.9,-576.36 919.91,-572.35 925.92,-568.36 931.91,-572.38"/>
<text text-anchor="middle" x="1747.52" y="-517.7" font-family="Times New Roman,serif" font-size="14.00">&lt;containment&gt;</text>
<text text-anchor="middle" x="1747.52" y="-501.95" font-family="Times New Roman,serif" font-size="14.00">sp</text>
</g>
<!-- rover.t -->
<g id="node30" class="node">
<title>rover.t</title>
<polygon fill="lightgrey" stroke="grey" points="1916.02,-458.88 1873.02,-458.88 1873.02,-462.88 1861.02,-462.88 1861.02,-422.88 1916.02,-422.88 1916.02,-458.88"/>
<polyline fill="none" stroke="grey" points="1861.02,-458.88 1873.02,-458.88"/>
<text text-anchor="middle" x="1888.52" y="-435.45" font-family="Times New Roman,serif" font-size="14.00">t: Time</text>
</g>
<!-- rover&#45;&gt;rover.t -->
<g id="edge13" class="edge">
<title>rover-&gt;rover.t</title>
<path fill="none" stroke="black" d="M934.69,-571.43C1160.55,-570.14 1715.9,-563.64 1793.52,-531 1829.59,-515.83 1860.29,-480.46 1876.41,-459.12"/>
<polygon fill="black" stroke="black" points="934.81,-571.43 928.84,-575.46 922.81,-571.5 928.79,-567.46 934.81,-571.43"/>
<text text-anchor="middle" x="1880.52" y="-517.7" font-family="Times New Roman,serif" font-size="14.00">&lt;containment&gt;</text>
<text text-anchor="middle" x="1880.52" y="-501.95" font-family="Times New Roman,serif" font-size="14.00">t</text>
</g>
<!-- __main__.Ground -->
<g id="node8" class="node">
<title>__main__.Ground</title>
<polygon fill="lightgrey" stroke="grey" points="154.65,-291.12 64.4,-291.12 64.4,-200.88 154.65,-200.88 154.65,-291.12"/>
<polyline fill="none" stroke="grey" points="76.4,-291.12 64.4,-279.12"/>
<polyline fill="none" stroke="grey" points="64.4,-212.88 76.4,-200.88"/>
<polyline fill="none" stroke="grey" points="142.65,-200.88 154.65,-212.88"/>
<polyline fill="none" stroke="grey" points="154.65,-279.12 142.65,-291.12"/>
<text text-anchor="middle" x="109.52" y="-240.57" font-family="Times New Roman,serif" font-size="14.00">Ground: type</text>
</g>
<!-- rover.flows.ground&#45;&gt;__main__.Ground -->
<g id="edge15" class="edge">
<title>rover.flows.ground-&gt;__main__.Ground</title>
<path fill="none" stroke="black" d="M73.92,-423.1C79.31,-396.43 90.08,-343.19 98.36,-302.2"/>
<polygon fill="none" stroke="black" points="101.97,-303.03 100.52,-292.53 95.11,-301.64 101.97,-303.03"/>
<text text-anchor="middle" x="127.4" y="-366.7" font-family="Times New Roman,serif" font-size="14.00">&lt;inheritance&gt;</text>
<text text-anchor="middle" x="127.4" y="-350.95" font-family="Times New Roman,serif" font-size="14.00">base</text>
</g>
<!-- __main__.Force -->
<g id="node10" class="node">
<title>__main__.Force</title>
<polygon fill="lightgrey" stroke="grey" points="258.4,-285.88 178.65,-285.88 178.65,-206.12 258.4,-206.12 258.4,-285.88"/>
<polyline fill="none" stroke="grey" points="190.65,-285.88 178.65,-273.88"/>
<polyline fill="none" stroke="grey" points="178.65,-218.12 190.65,-206.12"/>
<polyline fill="none" stroke="grey" points="246.4,-206.12 258.4,-218.12"/>
<polyline fill="none" stroke="grey" points="258.4,-273.88 246.4,-285.88"/>
<text text-anchor="middle" x="218.52" y="-240.57" font-family="Times New Roman,serif" font-size="14.00">Force: type</text>
</g>
<!-- rover.flows.force&#45;&gt;__main__.Force -->
<g id="edge17" class="edge">
<title>rover.flows.force-&gt;__main__.Force</title>
<path fill="none" stroke="black" d="M215.79,-423.1C216.22,-395.25 217.1,-338.43 217.75,-296.84"/>
<polygon fill="none" stroke="black" points="221.26,-297.14 217.92,-287.09 214.26,-297.03 221.26,-297.14"/>
<text text-anchor="middle" x="255.4" y="-366.7" font-family="Times New Roman,serif" font-size="14.00">&lt;inheritance&gt;</text>
<text text-anchor="middle" x="255.4" y="-350.95" font-family="Times New Roman,serif" font-size="14.00">base</text>
</g>
<!-- __main__.EE -->
<g id="node11" class="node">
<title>__main__.EE</title>
<polygon fill="lightgrey" stroke="grey" points="356.15,-277.62 292.9,-277.62 292.9,-214.38 356.15,-214.38 356.15,-277.62"/>
<polyline fill="none" stroke="grey" points="304.9,-277.62 292.9,-265.62"/>
<polyline fill="none" stroke="grey" points="292.9,-226.38 304.9,-214.38"/>
<polyline fill="none" stroke="grey" points="344.15,-214.38 356.15,-226.38"/>
<polyline fill="none" stroke="grey" points="356.15,-265.62 344.15,-277.62"/>
<text text-anchor="middle" x="324.52" y="-240.57" font-family="Times New Roman,serif" font-size="14.00">EE: type</text>
</g>
<!-- rover.flows.ee&#45;&gt;__main__.EE -->
<g id="edge19" class="edge">
<title>rover.flows.ee-&gt;__main__.EE</title>
<path fill="none" stroke="black" d="M324.52,-423.1C324.52,-393.46 324.52,-331.02 324.52,-289.03"/>
<polygon fill="none" stroke="black" points="328.02,-289.04 324.52,-279.04 321.02,-289.04 328.02,-289.04"/>
<text text-anchor="middle" x="362.4" y="-366.7" font-family="Times New Roman,serif" font-size="14.00">&lt;inheritance&gt;</text>
<text text-anchor="middle" x="362.4" y="-350.95" font-family="Times New Roman,serif" font-size="14.00">base</text>
</g>
<!-- __main__.Video -->
<g id="node12" class="node">
<title>__main__.Video</title>
<polygon fill="lightgrey" stroke="grey" points="464.77,-286.25 384.27,-286.25 384.27,-205.75 464.77,-205.75 464.77,-286.25"/>
<polyline fill="none" stroke="grey" points="396.27,-286.25 384.27,-274.25"/>
<polyline fill="none" stroke="grey" points="384.27,-217.75 396.27,-205.75"/>
<polyline fill="none" stroke="grey" points="452.77,-205.75 464.77,-217.75"/>
<polyline fill="none" stroke="grey" points="464.77,-274.25 452.77,-286.25"/>
<text text-anchor="middle" x="424.52" y="-240.57" font-family="Times New Roman,serif" font-size="14.00">Video: type</text>
</g>
<!-- rover.flows.video&#45;&gt;__main__.Video -->
<g id="edge21" class="edge">
<title>rover.flows.video-&gt;__main__.Video</title>
<path fill="none" stroke="black" d="M433.65,-423.1C432.22,-395.33 429.28,-338.78 427.13,-297.22"/>
<polygon fill="none" stroke="black" points="430.58,-297.27 426.57,-287.47 423.59,-297.64 430.58,-297.27"/>
<text text-anchor="middle" x="469.4" y="-366.7" font-family="Times New Roman,serif" font-size="14.00">&lt;inheritance&gt;</text>
<text text-anchor="middle" x="469.4" y="-350.95" font-family="Times New Roman,serif" font-size="14.00">base</text>
</g>
<!-- __main__.Control -->
<g id="node13" class="node">
<title>__main__.Control</title>
<polygon fill="lightgrey" stroke="grey" points="574.27,-290.75 484.77,-290.75 484.77,-201.25 574.27,-201.25 574.27,-290.75"/>
<polyline fill="none" stroke="grey" points="496.77,-290.75 484.77,-278.75"/>
<polyline fill="none" stroke="grey" points="484.77,-213.25 496.77,-201.25"/>
<polyline fill="none" stroke="grey" points="562.27,-201.25 574.27,-213.25"/>
<polyline fill="none" stroke="grey" points="574.27,-278.75 562.27,-290.75"/>
<text text-anchor="middle" x="529.52" y="-240.57" font-family="Times New Roman,serif" font-size="14.00">Control: type</text>
</g>
<!-- rover.flows.control&#45;&gt;__main__.Control -->
<g id="edge23" class="edge">
<title>rover.flows.control-&gt;__main__.Control</title>
<path fill="none" stroke="black" d="M560.89,-423.66C549.77,-413.16 536.89,-398.45 530.77,-382.25 521.25,-356.99 520.02,-327.13 521.57,-301.91"/>
<polygon fill="none" stroke="black" points="525.13,-302.29 522.42,-292.04 518.15,-301.74 525.13,-302.29"/>
<text text-anchor="middle" x="569.4" y="-366.7" font-family="Times New Roman,serif" font-size="14.00">&lt;inheritance&gt;</text>
<text text-anchor="middle" x="569.4" y="-350.95" font-family="Times New Roman,serif" font-size="14.00">base</text>
</g>
<!-- fmdtools.define.flow.base.Flow -->
<g id="node9" class="node">
<title>fmdtools.define.flow.base.Flow</title>
<polygon fill="lightgrey" stroke="grey" points="412.15,-85.75 336.9,-85.75 336.9,-10.5 412.15,-10.5 412.15,-85.75"/>
<polyline fill="none" stroke="grey" points="348.9,-85.75 336.9,-73.75"/>
<polyline fill="none" stroke="grey" points="336.9,-22.5 348.9,-10.5"/>
<polyline fill="none" stroke="grey" points="400.15,-10.5 412.15,-22.5"/>
<polyline fill="none" stroke="grey" points="412.15,-73.75 400.15,-85.75"/>
<text text-anchor="middle" x="374.52" y="-42.7" font-family="Times New Roman,serif" font-size="14.00">Flow: type</text>
</g>
<!-- rover.flows.comms&#45;&gt;fmdtools.define.flow.base.Flow -->
<g id="edge25" class="edge">
<title>rover.flows.comms-&gt;fmdtools.define.flow.base.Flow</title>
<path fill="none" stroke="black" d="M645.65,-349.06C636.97,-343.72 628.42,-336.82 622.77,-328.25 569.74,-247.76 650.99,-186.8 587.52,-114.25 546.43,-67.27 472.47,-53.64 423.43,-49.99"/>
<polygon fill="none" stroke="black" points="423.65,-46.43 413.45,-49.3 423.21,-53.42 423.65,-46.43"/>
<text text-anchor="middle" x="661.4" y="-248.45" font-family="Times New Roman,serif" font-size="14.00">&lt;inheritance&gt;</text>
<text text-anchor="middle" x="661.4" y="-232.7" font-family="Times New Roman,serif" font-size="14.00">base</text>
</g>
<!-- __main__.Ground&#45;&gt;fmdtools.define.flow.base.Flow -->
<g id="edge16" class="edge">
<title>__main__.Ground-&gt;fmdtools.define.flow.base.Flow</title>
<path fill="none" stroke="black" d="M111.11,-200.42C114.45,-172.2 123.28,-136.9 145.77,-114.25 193.48,-66.21 273.92,-52.99 325.59,-49.7"/>
<polygon fill="none" stroke="black" points="325.67,-53.15 335.47,-49.12 325.3,-46.16 325.67,-53.15"/>
<text text-anchor="middle" x="184.4" y="-132.45" font-family="Times New Roman,serif" font-size="14.00">&lt;inheritance&gt;</text>
<text text-anchor="middle" x="184.4" y="-116.7" font-family="Times New Roman,serif" font-size="14.00">base</text>
</g>
<!-- __main__.Force&#45;&gt;fmdtools.define.flow.base.Flow -->
<g id="edge18" class="edge">
<title>__main__.Force-&gt;fmdtools.define.flow.base.Flow</title>
<path fill="none" stroke="black" d="M215.8,-205.88C215.85,-177.79 220.25,-140.43 239.77,-114.25 260.69,-86.21 296.87,-69.65 326.48,-60.25"/>
<polygon fill="none" stroke="black" points="327.06,-63.43 335.64,-57.22 325.06,-56.73 327.06,-63.43"/>
<text text-anchor="middle" x="278.4" y="-132.45" font-family="Times New Roman,serif" font-size="14.00">&lt;inheritance&gt;</text>
<text text-anchor="middle" x="278.4" y="-116.7" font-family="Times New Roman,serif" font-size="14.00">base</text>
</g>
<!-- __main__.EE&#45;&gt;fmdtools.define.flow.base.Flow -->
<g id="edge20" class="edge">
<title>__main__.EE-&gt;fmdtools.define.flow.base.Flow</title>
<path fill="none" stroke="black" d="M319.5,-213.98C316.35,-186.9 314.72,-146.94 325.77,-114.25 328.02,-107.6 331.24,-101.07 334.96,-94.88"/>
<polygon fill="none" stroke="black" points="338.18,-97.35 340.72,-87.06 332.32,-93.52 338.18,-97.35"/>
<text text-anchor="middle" x="364.4" y="-132.45" font-family="Times New Roman,serif" font-size="14.00">&lt;inheritance&gt;</text>
<text text-anchor="middle" x="364.4" y="-116.7" font-family="Times New Roman,serif" font-size="14.00">base</text>
</g>
<!-- __main__.Video&#45;&gt;fmdtools.define.flow.base.Flow -->
<g id="edge22" class="edge">
<title>__main__.Video-&gt;fmdtools.define.flow.base.Flow</title>
<path fill="none" stroke="black" d="M419.84,-205.29C416.19,-179.11 410.26,-144.23 401.52,-114.25 399.79,-108.3 397.69,-102.16 395.43,-96.14"/>
<polygon fill="none" stroke="black" points="398.43,-95.19 391.52,-87.16 391.91,-97.75 398.43,-95.19"/>
<text text-anchor="middle" x="447.4" y="-132.45" font-family="Times New Roman,serif" font-size="14.00">&lt;inheritance&gt;</text>
<text text-anchor="middle" x="447.4" y="-116.7" font-family="Times New Roman,serif" font-size="14.00">base</text>
</g>
<!-- __main__.Control&#45;&gt;fmdtools.define.flow.base.Flow -->
<g id="edge24" class="edge">
<title>__main__.Control-&gt;fmdtools.define.flow.base.Flow</title>
<path fill="none" stroke="black" d="M524.44,-200.81C519.38,-173.46 509.36,-138.97 489.52,-114.25 472.2,-92.66 445.66,-76.95 422.45,-66.38"/>
<polygon fill="none" stroke="black" points="423.96,-62.79 413.4,-62.03 421.18,-69.22 423.96,-62.79"/>
<text text-anchor="middle" x="545.4" y="-132.45" font-family="Times New Roman,serif" font-size="14.00">&lt;inheritance&gt;</text>
<text text-anchor="middle" x="545.4" y="-116.7" font-family="Times New Roman,serif" font-size="14.00">base</text>
</g>
<!-- __main__.ControlRover -->
<g id="node14" class="node">
<title>__main__.ControlRover</title>
<polygon fill="lightgrey" stroke="grey" points="1023.52,-308 899.52,-308 899.52,-184 1023.52,-184 1023.52,-308"/>
<polyline fill="none" stroke="grey" points="911.52,-308 899.52,-296"/>
<polyline fill="none" stroke="grey" points="899.52,-196 911.52,-184"/>
<polyline fill="none" stroke="grey" points="1011.52,-184 1023.52,-196"/>
<polyline fill="none" stroke="grey" points="1023.52,-296 1011.52,-308"/>
<text text-anchor="middle" x="961.52" y="-240.57" font-family="Times New Roman,serif" font-size="14.00">ControlRover: type</text>
</g>
<!-- fmdtools.define.block.function.Function -->
<g id="node15" class="node">
<title>fmdtools.define.block.function.Function</title>
<polygon fill="lightgrey" stroke="grey" points="1308.65,-96.25 1212.4,-96.25 1212.4,0 1308.65,0 1308.65,-96.25"/>
<polyline fill="none" stroke="grey" points="1224.4,-96.25 1212.4,-84.25"/>
<polyline fill="none" stroke="grey" points="1212.4,-12 1224.4,0"/>
<polyline fill="none" stroke="grey" points="1296.65,0 1308.65,-12"/>
<polyline fill="none" stroke="grey" points="1308.65,-84.25 1296.65,-96.25"/>
<text text-anchor="middle" x="1260.52" y="-42.7" font-family="Times New Roman,serif" font-size="14.00">Function: type</text>
</g>
<!-- __main__.ControlRover&#45;&gt;fmdtools.define.block.function.Function -->
<g id="edge27" class="edge">
<title>__main__.ControlRover-&gt;fmdtools.define.block.function.Function</title>
<path fill="none" stroke="black" d="M1007.28,-183.63C1027.86,-159.38 1053.81,-132.9 1081.77,-114.25 1118.29,-89.89 1165.05,-73.28 1201.6,-62.93"/>
<polygon fill="none" stroke="black" points="1202.38,-66.06 1211.1,-60.04 1200.53,-59.31 1202.38,-66.06"/>
<text text-anchor="middle" x="1120.4" y="-132.45" font-family="Times New Roman,serif" font-size="14.00">&lt;inheritance&gt;</text>
<text text-anchor="middle" x="1120.4" y="-116.7" font-family="Times New Roman,serif" font-size="14.00">base</text>
</g>
<!-- __main__.StoreEnergy -->
<g id="node16" class="node">
<title>__main__.StoreEnergy</title>
<polygon fill="lightgrey" stroke="grey" points="1176.4,-303.88 1060.65,-303.88 1060.65,-188.12 1176.4,-188.12 1176.4,-303.88"/>
<polyline fill="none" stroke="grey" points="1072.65,-303.88 1060.65,-291.88"/>
<polyline fill="none" stroke="grey" points="1060.65,-200.12 1072.65,-188.12"/>
<polyline fill="none" stroke="grey" points="1164.4,-188.12 1176.4,-200.12"/>
<polyline fill="none" stroke="grey" points="1176.4,-291.88 1164.4,-303.88"/>
<text text-anchor="middle" x="1118.52" y="-240.57" font-family="Times New Roman,serif" font-size="14.00">StoreEnergy: type</text>
</g>
<!-- __main__.StoreEnergy&#45;&gt;fmdtools.define.block.function.Function -->
<g id="edge29" class="edge">
<title>__main__.StoreEnergy-&gt;fmdtools.define.block.function.Function</title>
<path fill="none" stroke="black" d="M1139.24,-187.81C1149.56,-163.7 1163.55,-136.21 1180.77,-114.25 1187.55,-105.62 1195.66,-97.38 1204.07,-89.84"/>
<polygon fill="none" stroke="black" points="1205.91,-92.02 1211.2,-82.85 1201.34,-86.72 1205.91,-92.02"/>
<text text-anchor="middle" x="1219.4" y="-132.45" font-family="Times New Roman,serif" font-size="14.00">&lt;inheritance&gt;</text>
<text text-anchor="middle" x="1219.4" y="-116.7" font-family="Times New Roman,serif" font-size="14.00">base</text>
</g>
<!-- __main__.MoveRover -->
<g id="node17" class="node">
<title>__main__.MoveRover</title>
<polygon fill="lightgrey" stroke="grey" points="1317.27,-302.75 1203.77,-302.75 1203.77,-189.25 1317.27,-189.25 1317.27,-302.75"/>
<polyline fill="none" stroke="grey" points="1215.77,-302.75 1203.77,-290.75"/>
<polyline fill="none" stroke="grey" points="1203.77,-201.25 1215.77,-189.25"/>
<polyline fill="none" stroke="grey" points="1305.27,-189.25 1317.27,-201.25"/>
<polyline fill="none" stroke="grey" points="1317.27,-290.75 1305.27,-302.75"/>
<text text-anchor="middle" x="1260.52" y="-240.57" font-family="Times New Roman,serif" font-size="14.00">MoveRover: type</text>
</g>
<!-- __main__.MoveRover&#45;&gt;fmdtools.define.block.function.Function -->
<g id="edge31" class="edge">
<title>__main__.MoveRover-&gt;fmdtools.define.block.function.Function</title>
<path fill="none" stroke="black" d="M1260.52,-188.87C1260.52,-163.35 1260.52,-133.17 1260.52,-107.39"/>
<polygon fill="none" stroke="black" points="1264.02,-107.64 1260.52,-97.64 1257.02,-107.64 1264.02,-107.64"/>
<text text-anchor="middle" x="1298.4" y="-132.45" font-family="Times New Roman,serif" font-size="14.00">&lt;inheritance&gt;</text>
<text text-anchor="middle" x="1298.4" y="-116.7" font-family="Times New Roman,serif" font-size="14.00">base</text>
</g>
<!-- __main__.ViewGround -->
<g id="node18" class="node">
<title>__main__.ViewGround</title>
<polygon fill="lightgrey" stroke="grey" points="1465.9,-305.38 1347.15,-305.38 1347.15,-186.62 1465.9,-186.62 1465.9,-305.38"/>
<polyline fill="none" stroke="grey" points="1359.15,-305.38 1347.15,-293.38"/>
<polyline fill="none" stroke="grey" points="1347.15,-198.62 1359.15,-186.62"/>
<polyline fill="none" stroke="grey" points="1453.9,-186.62 1465.9,-198.62"/>
<polyline fill="none" stroke="grey" points="1465.9,-293.38 1453.9,-305.38"/>
<text text-anchor="middle" x="1406.52" y="-240.57" font-family="Times New Roman,serif" font-size="14.00">ViewGround: type</text>
</g>
<!-- __main__.ViewGround&#45;&gt;fmdtools.define.block.function.Function -->
<g id="edge33" class="edge">
<title>__main__.ViewGround-&gt;fmdtools.define.block.function.Function</title>
<path fill="none" stroke="black" d="M1383.27,-186.21C1372.31,-162.51 1357.82,-135.75 1340.52,-114.25 1333.63,-105.68 1325.45,-97.48 1316.98,-89.96"/>
<polygon fill="none" stroke="black" points="1319.69,-86.82 1309.82,-82.97 1315.14,-92.13 1319.69,-86.82"/>
<text text-anchor="middle" x="1399.4" y="-132.45" font-family="Times New Roman,serif" font-size="14.00">&lt;inheritance&gt;</text>
<text text-anchor="middle" x="1399.4" y="-116.7" font-family="Times New Roman,serif" font-size="14.00">base</text>
</g>
<!-- __main__.Communicate -->
<g id="node19" class="node">
<title>__main__.Communicate</title>
<polygon fill="lightgrey" stroke="grey" points="1658.52,-308 1534.52,-308 1534.52,-184 1658.52,-184 1658.52,-308"/>
<polyline fill="none" stroke="grey" points="1546.52,-308 1534.52,-296"/>
<polyline fill="none" stroke="grey" points="1534.52,-196 1546.52,-184"/>
<polyline fill="none" stroke="grey" points="1646.52,-184 1658.52,-196"/>
<polyline fill="none" stroke="grey" points="1658.52,-296 1646.52,-308"/>
<text text-anchor="middle" x="1596.52" y="-240.57" font-family="Times New Roman,serif" font-size="14.00">Communicate: type</text>
</g>
<!-- __main__.Communicate&#45;&gt;fmdtools.define.block.function.Function -->
<g id="edge35" class="edge">
<title>__main__.Communicate-&gt;fmdtools.define.block.function.Function</title>
<path fill="none" stroke="black" d="M1534.41,-183.8C1507.5,-159.72 1474.62,-133.33 1441.52,-114.25 1403.21,-92.16 1356.1,-75.5 1319.55,-64.56"/>
<polygon fill="none" stroke="black" points="1320.63,-60.93 1310.05,-61.48 1318.67,-67.65 1320.63,-60.93"/>
<text text-anchor="middle" x="1526.4" y="-132.45" font-family="Times New Roman,serif" font-size="14.00">&lt;inheritance&gt;</text>
<text text-anchor="middle" x="1526.4" y="-116.7" font-family="Times New Roman,serif" font-size="14.00">base</text>
</g>
<!-- fmdtools.define.block.base.SimParam -->
<g id="node20" class="node">
<title>fmdtools.define.block.base.SimParam</title>
<polygon fill="lightgrey" stroke="grey" points="1832.02,-309.5 1705.02,-309.5 1705.02,-182.5 1832.02,-182.5 1832.02,-309.5"/>
<polyline fill="none" stroke="grey" points="1717.02,-309.5 1705.02,-297.5"/>
<polyline fill="none" stroke="grey" points="1705.02,-194.5 1717.02,-182.5"/>
<polyline fill="none" stroke="grey" points="1820.02,-182.5 1832.02,-194.5"/>
<polyline fill="none" stroke="grey" points="1832.02,-297.5 1820.02,-309.5"/>
<text text-anchor="middle" x="1768.52" y="-240.57" font-family="Times New Roman,serif" font-size="14.00">SimParam: datatype</text>
</g>
<!-- fmdtools.define.container.time.Time -->
<g id="node21" class="node">
<title>fmdtools.define.container.time.Time</title>
<polygon fill="lightgrey" stroke="grey" points="1948.77,-295.25 1850.27,-295.25 1850.27,-196.75 1948.77,-196.75 1948.77,-295.25"/>
<polyline fill="none" stroke="grey" points="1862.27,-295.25 1850.27,-283.25"/>
<polyline fill="none" stroke="grey" points="1850.27,-208.75 1862.27,-196.75"/>
<polyline fill="none" stroke="grey" points="1936.77,-196.75 1948.77,-208.75"/>
<polyline fill="none" stroke="grey" points="1948.77,-283.25 1936.77,-295.25"/>
<text text-anchor="middle" x="1899.52" y="-240.57" font-family="Times New Roman,serif" font-size="14.00">Time: datatype</text>
</g>
<!-- fmdtools.define.architecture.function.FunctionArchitecture -->
<g id="node23" class="node">
<title>fmdtools.define.architecture.function.FunctionArchitecture</title>
<polygon fill="lightgrey" stroke="grey" points="871.77,-328.25 707.27,-328.25 707.27,-163.75 871.77,-163.75 871.77,-328.25"/>
<polyline fill="none" stroke="grey" points="719.27,-328.25 707.27,-316.25"/>
<polyline fill="none" stroke="grey" points="707.27,-175.75 719.27,-163.75"/>
<polyline fill="none" stroke="grey" points="859.77,-163.75 871.77,-175.75"/>
<polyline fill="none" stroke="grey" points="871.77,-316.25 859.77,-328.25"/>
<text text-anchor="middle" x="789.52" y="-240.57" font-family="Times New Roman,serif" font-size="14.00">FunctionArchitecture: type</text>
</g>
<!-- __main__.Rover&#45;&gt;fmdtools.define.architecture.function.FunctionArchitecture -->
<g id="edge38" class="edge">
<title>__main__.Rover-&gt;fmdtools.define.architecture.function.FunctionArchitecture</title>
<path fill="none" stroke="black" d="M756.23,-399.91C760.07,-382.26 764.76,-360.71 769.4,-339.42"/>
<polygon fill="none" stroke="black" points="773.03,-340.19 771.74,-329.68 766.19,-338.7 773.03,-340.19"/>
<text text-anchor="middle" x="805.4" y="-366.7" font-family="Times New Roman,serif" font-size="14.00">&lt;inheritance&gt;</text>
<text text-anchor="middle" x="805.4" y="-350.95" font-family="Times New Roman,serif" font-size="14.00">base</text>
</g>
<!-- rover.fxns.control_rover&#45;&gt;__main__.ControlRover -->
<g id="edge26" class="edge">
<title>rover.fxns.control_rover-&gt;__main__.ControlRover</title>
<path fill="none" stroke="black" d="M900.71,-422.08C908.85,-398.63 923.66,-356.01 936.62,-318.69"/>
<polygon fill="none" stroke="black" points="940.25,-319.92 940.22,-309.33 933.63,-317.62 940.25,-319.92"/>
<text text-anchor="middle" x="964.4" y="-366.7" font-family="Times New Roman,serif" font-size="14.00">&lt;inheritance&gt;</text>
<text text-anchor="middle" x="964.4" y="-350.95" font-family="Times New Roman,serif" font-size="14.00">base</text>
</g>
<!-- rover.fxns.store_energy&#45;&gt;__main__.StoreEnergy -->
<g id="edge28" class="edge">
<title>rover.fxns.store_energy-&gt;__main__.StoreEnergy</title>
<path fill="none" stroke="black" d="M1085.85,-422.08C1090.38,-397.78 1098.76,-352.89 1105.9,-314.64"/>
<polygon fill="none" stroke="black" points="1109.48,-315.53 1107.88,-305.05 1102.6,-314.24 1109.48,-315.53"/>
<text text-anchor="middle" x="1137.4" y="-366.7" font-family="Times New Roman,serif" font-size="14.00">&lt;inheritance&gt;</text>
<text text-anchor="middle" x="1137.4" y="-350.95" font-family="Times New Roman,serif" font-size="14.00">base</text>
</g>
<!-- rover.fxns.move_rover&#45;&gt;__main__.MoveRover -->
<g id="edge30" class="edge">
<title>rover.fxns.move_rover-&gt;__main__.MoveRover</title>
<path fill="none" stroke="black" d="M1260.52,-422.08C1260.52,-397.61 1260.52,-352.25 1260.52,-313.84"/>
<polygon fill="none" stroke="black" points="1264.02,-314.21 1260.52,-304.21 1257.02,-314.21 1264.02,-314.21"/>
<text text-anchor="middle" x="1298.4" y="-366.7" font-family="Times New Roman,serif" font-size="14.00">&lt;inheritance&gt;</text>
<text text-anchor="middle" x="1298.4" y="-350.95" font-family="Times New Roman,serif" font-size="14.00">base</text>
</g>
<!-- rover.fxns.view_ground&#45;&gt;__main__.ViewGround -->
<g id="edge32" class="edge">
<title>rover.fxns.view_ground-&gt;__main__.ViewGround</title>
<path fill="none" stroke="black" d="M1437.39,-422.08C1433.16,-398.12 1425.41,-354.14 1418.73,-316.26"/>
<polygon fill="none" stroke="black" points="1422.06,-315.99 1416.88,-306.75 1415.17,-317.21 1422.06,-315.99"/>
<text text-anchor="middle" x="1468.4" y="-366.7" font-family="Times New Roman,serif" font-size="14.00">&lt;inheritance&gt;</text>
<text text-anchor="middle" x="1468.4" y="-350.95" font-family="Times New Roman,serif" font-size="14.00">base</text>
</g>
<!-- rover.fxns.communicate&#45;&gt;__main__.Communicate -->
<g id="edge34" class="edge">
<title>rover.fxns.communicate-&gt;__main__.Communicate</title>
<path fill="none" stroke="black" d="M1626.48,-422.08C1622.47,-398.63 1615.18,-356.01 1608.79,-318.69"/>
<polygon fill="none" stroke="black" points="1612.15,-318.59 1607.02,-309.33 1605.25,-319.77 1612.15,-318.59"/>
<text text-anchor="middle" x="1657.4" y="-366.7" font-family="Times New Roman,serif" font-size="14.00">&lt;inheritance&gt;</text>
<text text-anchor="middle" x="1657.4" y="-350.95" font-family="Times New Roman,serif" font-size="14.00">base</text>
</g>
<!-- rover.sp&#45;&gt;fmdtools.define.block.base.SimParam -->
<g id="edge36" class="edge">
<title>rover.sp-&gt;fmdtools.define.block.base.SimParam</title>
<path fill="none" stroke="black" d="M1780.35,-422.42C1778.8,-399.46 1775.99,-357.69 1773.49,-320.67"/>
<polygon fill="none" stroke="black" points="1776.93,-320.61 1772.76,-310.87 1769.94,-321.08 1776.93,-320.61"/>
<text text-anchor="middle" x="1815.4" y="-366.7" font-family="Times New Roman,serif" font-size="14.00">&lt;inheritance&gt;</text>
<text text-anchor="middle" x="1815.4" y="-350.95" font-family="Times New Roman,serif" font-size="14.00">base</text>
</g>
<!-- rover.t&#45;&gt;fmdtools.define.container.time.Time -->
<g id="edge37" class="edge">
<title>rover.t-&gt;fmdtools.define.container.time.Time</title>
<path fill="none" stroke="black" d="M1889.52,-422.42C1891,-396.43 1893.86,-346.32 1896.14,-306.29"/>
<polygon fill="none" stroke="black" points="1899.68,-306.74 1896.76,-296.56 1892.69,-306.34 1899.68,-306.74"/>
<text text-anchor="middle" x="1932.4" y="-366.7" font-family="Times New Roman,serif" font-size="14.00">&lt;inheritance&gt;</text>
<text text-anchor="middle" x="1932.4" y="-350.95" font-family="Times New Roman,serif" font-size="14.00">base</text>
</g>
</g>
</svg>