<svg xmlns="http://www.w3.org/2000/svg" xmlns:xlink="http://www.w3.org/1999/xlink" width="4487pt" height="496pt" viewBox="0.00 0.00 4487.00 496.00">
<g id="graph0" class="graph" transform="scale(1 1) rotate(0) translate(4 492)">
<polygon fill="white" stroke="transparent" points="-4,4 -4,-492 4483,-492 4483,4 -4,4"/>
<!-- rover.fxns.plan_path -->
<g id="node1" class="node">
<title>rover.fxns.plan_path</title>
<polygon fill="lightgrey" stroke="grey" stroke-width="2" points="2201,-488 1719,-488 1719,-450 2201,-450 2201,-488"/>
<text text-anchor="middle" x="1960" y="-472.8" font-family="Times,serif" font-size="14.00">plan_path: PlanPath</text>
<text text-anchor="middle" x="1960" y="-457.8" font-family="Times,serif" font-size="14.00">Plan the next drive move based on the current state of the rover.</text>
</g>
<!-- rover.fxns.plan_path.m -->
<g id="node2" class="node">
<title>rover.fxns.plan_path.m</title>
<polygon fill="lightgrey" stroke="grey" points="476,-324 12,-324 12,-328 0,-328 0,-60 476,-60 476,-324"/>
<polyline fill="none" stroke="grey" points="0,-324 12,-324 "/>
<text text-anchor="middle" x="238" y="-308.8" font-family="Times,serif" font-size="14.00">m: PlanPathMode</text>
<text text-anchor="middle" x="238" y="-293.8" font-family="Times,serif" font-size="14.00">Possible modes for rover path planning.</text>
<text text-anchor="middle" x="238" y="-262.8" font-family="Times,serif" font-size="14.00">Modes</text>
<text text-anchor="middle" x="238" y="-247.8" font-family="Times,serif" font-size="14.00">-------</text>
<text text-anchor="middle" x="238" y="-232.8" font-family="Times,serif" font-size="14.00">no_con : Fault</text>
<text text-anchor="middle" x="238" y="-217.8" font-family="Times,serif" font-size="14.00">....Inability to send path planning commands</text>
<text text-anchor="middle" x="238" y="-202.8" font-family="Times,serif" font-size="14.00">crash : Fault</text>
<text text-anchor="middle" x="238" y="-187.8" font-family="Times,serif" font-size="14.00">....Rover crashed or maximum deviation from the path breached</text>
<text text-anchor="middle" x="238" y="-172.8" font-family="Times,serif" font-size="14.00">drive : Mode</text>
<text text-anchor="middle" x="238" y="-157.8" font-family="Times,serif" font-size="14.00">....Rover is in operation and sending position signals</text>
<text text-anchor="middle" x="238" y="-142.8" font-family="Times,serif" font-size="14.00">standby : Mode</text>
<text text-anchor="middle" x="238" y="-127.8" font-family="Times,serif" font-size="14.00">....Rover is in standby</text>
<text text-anchor="middle" x="238" y="-112.8" font-family="Times,serif" font-size="14.00">em_off : Mode</text>
<text text-anchor="middle" x="238" y="-97.8" font-family="Times,serif" font-size="14.00">....Rover is shut off due to an emergency</text>
<text text-anchor="middle" x="238" y="-82.8" font-family="Times,serif" font-size="14.00">finished : Mode</text>
<text text-anchor="middle" x="238" y="-67.8" font-family="Times,serif" font-size="14.00">....Rover has competed the mission</text>
</g>
<!-- rover.fxns.plan_path&#45;&gt;rover.fxns.plan_path.m -->
<g id="edge1" class="edge">
<title>rover.fxns.plan_path-&gt;rover.fxns.plan_path.m</title>
<path fill="none" stroke="black" d="M1706.67,-466.36C1484.29,-463.33 1152.26,-454.94 864,-432 694.75,-418.53 641.9,-448.88 485,-384 448.93,-369.09 413.62,-347.45 381.48,-324.06"/>
<polygon fill="black" stroke="black" points="1706.84,-466.36 1712.89,-462.44 1718.84,-466.52 1712.78,-470.44 1706.84,-466.36"/>
<text text-anchor="middle" x="921" y="-420.8" font-family="Times,serif" font-size="14.00">&lt;containment&gt;</text>
<text text-anchor="middle" x="921" y="-405.8" font-family="Times,serif" font-size="14.00">m</text>
</g>
<!-- rover.fxns.plan_path.p -->
<g id="node3" class="node">
<title>rover.fxns.plan_path.p</title>
<polygon fill="lightgrey" stroke="grey" points="937.5,-384 506.5,-384 506.5,-388 494.5,-388 494.5,0 937.5,0 937.5,-384"/>
<polyline fill="none" stroke="grey" points="494.5,-384 506.5,-384 "/>
<text text-anchor="middle" x="716" y="-368.8" font-family="Times,serif" font-size="14.00">p: ResCorrection</text>
<text text-anchor="middle" x="716" y="-353.8" font-family="Times,serif" font-size="14.00">Correction parameters given faulty states.</text>
<text text-anchor="middle" x="716" y="-322.8" font-family="Times,serif" font-size="14.00">Fields</text>
<text text-anchor="middle" x="716" y="-307.8" font-family="Times,serif" font-size="14.00">------</text>
<text text-anchor="middle" x="716" y="-292.8" font-family="Times,serif" font-size="14.00">ub_f: float</text>
<text text-anchor="middle" x="716" y="-277.8" font-family="Times,serif" font-size="14.00">....upper bound of friction</text>
<text text-anchor="middle" x="716" y="-262.8" font-family="Times,serif" font-size="14.00">lb_f: float</text>
<text text-anchor="middle" x="716" y="-247.8" font-family="Times,serif" font-size="14.00">....lower bound of friction</text>
<text text-anchor="middle" x="716" y="-232.8" font-family="Times,serif" font-size="14.00">ub_t: float</text>
<text text-anchor="middle" x="716" y="-217.8" font-family="Times,serif" font-size="14.00">....upper bound of transfer</text>
<text text-anchor="middle" x="716" y="-202.8" font-family="Times,serif" font-size="14.00">lb_t: float</text>
<text text-anchor="middle" x="716" y="-187.8" font-family="Times,serif" font-size="14.00">....lower bound of transfer</text>
<text text-anchor="middle" x="716" y="-172.8" font-family="Times,serif" font-size="14.00">ub_d: float</text>
<text text-anchor="middle" x="716" y="-157.8" font-family="Times,serif" font-size="14.00">....upper bound of drift</text>
<text text-anchor="middle" x="716" y="-142.8" font-family="Times,serif" font-size="14.00">lb_d: float</text>
<text text-anchor="middle" x="716" y="-127.8" font-family="Times,serif" font-size="14.00">....lower bound of drift</text>
<text text-anchor="middle" x="716" y="-112.8" font-family="Times,serif" font-size="14.00">cor_d: float</text>
<text text-anchor="middle" x="716" y="-97.8" font-family="Times,serif" font-size="14.00">....correction factor for drift </text>
<text text-anchor="middle" x="716" y="-82.8" font-family="Times,serif" font-size="14.00">....(if drift is present, takes values between -1 and 1)</text>
<text text-anchor="middle" x="716" y="-67.8" font-family="Times,serif" font-size="14.00">cor_t: float</text>
<text text-anchor="middle" x="716" y="-52.8" font-family="Times,serif" font-size="14.00">....correction factor for transfer </text>
<text text-anchor="middle" x="716" y="-37.8" font-family="Times,serif" font-size="14.00">....(if transfer is low or hgih: takes values between -1 and 1)</text>
<text text-anchor="middle" x="716" y="-22.8" font-family="Times,serif" font-size="14.00">cor_f: float</text>
<text text-anchor="middle" x="716" y="-7.8" font-family="Times,serif" font-size="14.00">....correction for friction (if out of bounds)</text>
</g>
<!-- rover.fxns.plan_path&#45;&gt;rover.fxns.plan_path.p -->
<g id="edge2" class="edge">
<title>rover.fxns.plan_path-&gt;rover.fxns.plan_path.p</title>
<path fill="none" stroke="black" d="M1706.7,-467.16C1486.64,-464.7 1185.32,-456.71 1068,-432 1022.82,-422.49 978.73,-403.37 937.87,-379.91"/>
<polygon fill="black" stroke="black" points="1706.76,-467.16 1712.8,-463.22 1718.76,-467.29 1712.72,-471.22 1706.76,-467.16"/>
<text text-anchor="middle" x="1125" y="-420.8" font-family="Times,serif" font-size="14.00">&lt;containment&gt;</text>
<text text-anchor="middle" x="1125" y="-405.8" font-family="Times,serif" font-size="14.00">p</text>
</g>
<!-- rover.fxns.plan_path.s -->
<g id="node4" class="node">
<title>rover.fxns.plan_path.s</title>
<polygon fill="lightgrey" stroke="grey" points="1224.5,-309 967.5,-309 967.5,-313 955.5,-313 955.5,-75 1224.5,-75 1224.5,-309"/>
<polyline fill="none" stroke="grey" points="955.5,-309 967.5,-309 "/>
<text text-anchor="middle" x="1090" y="-293.8" font-family="Times,serif" font-size="14.00">s: PlanPathState</text>
<text text-anchor="middle" x="1090" y="-278.8" font-family="Times,serif" font-size="14.00">States used in rover path planning.</text>
<text text-anchor="middle" x="1090" y="-247.8" font-family="Times,serif" font-size="14.00">Fields</text>
<text text-anchor="middle" x="1090" y="-232.8" font-family="Times,serif" font-size="14.00">------</text>
<text text-anchor="middle" x="1090" y="-217.8" font-family="Times,serif" font-size="14.00">u_self: tuple</text>
<text text-anchor="middle" x="1090" y="-202.8" font-family="Times,serif" font-size="14.00">....Position of the ownship.</text>
<text text-anchor="middle" x="1090" y="-187.8" font-family="Times,serif" font-size="14.00">u_lin: tuple</text>
<text text-anchor="middle" x="1090" y="-172.8" font-family="Times,serif" font-size="14.00">....Position of the line.</text>
<text text-anchor="middle" x="1090" y="-157.8" font-family="Times,serif" font-size="14.00">u_lin_dev: tuple</text>
<text text-anchor="middle" x="1090" y="-142.8" font-family="Times,serif" font-size="14.00">....Deviation of ownship from line.</text>
<text text-anchor="middle" x="1090" y="-127.8" font-family="Times,serif" font-size="14.00">rdiff: float</text>
<text text-anchor="middle" x="1090" y="-112.8" font-family="Times,serif" font-size="14.00">....Projected turning around.</text>
<text text-anchor="middle" x="1090" y="-97.8" font-family="Times,serif" font-size="14.00">vel_adj: float</text>
<text text-anchor="middle" x="1090" y="-82.8" font-family="Times,serif" font-size="14.00">....Velocity adjustment (for faults).</text>
</g>
<!-- rover.fxns.plan_path&#45;&gt;rover.fxns.plan_path.s -->
<g id="edge3" class="edge">
<title>rover.fxns.plan_path-&gt;rover.fxns.plan_path.s</title>
<path fill="none" stroke="black" d="M1706.79,-467.86C1508.65,-465.73 1259.98,-457.82 1219,-432 1174.62,-404.04 1144.45,-355.24 1124.52,-309"/>
<polygon fill="black" stroke="black" points="1706.86,-467.86 1712.9,-463.92 1718.86,-467.98 1712.82,-471.92 1706.86,-467.86"/>
<text text-anchor="middle" x="1276" y="-420.8" font-family="Times,serif" font-size="14.00">&lt;containment&gt;</text>
<text text-anchor="middle" x="1276" y="-405.8" font-family="Times,serif" font-size="14.00">s</text>
</g>
<!-- rover.fxns.plan_path.sp -->
<g id="node5" class="node">
<title>rover.fxns.plan_path.sp</title>
<polygon fill="lightgrey" stroke="grey" points="1359,-210 1255,-210 1255,-214 1243,-214 1243,-174 1359,-174 1359,-210"/>
<polyline fill="none" stroke="grey" points="1243,-210 1255,-210 "/>
<text text-anchor="middle" x="1301" y="-188.3" font-family="Times,serif" font-size="14.00">sp: SimParam</text>
</g>
<!-- rover.fxns.plan_path&#45;&gt;rover.fxns.plan_path.sp -->
<g id="edge4" class="edge">
<title>rover.fxns.plan_path-&gt;rover.fxns.plan_path.sp</title>
<path fill="none" stroke="black" d="M1706.78,-466.53C1556.19,-463.27 1389.25,-454.51 1362,-432 1293.83,-375.68 1295.95,-254.71 1299.31,-210.03"/>
<polygon fill="black" stroke="black" points="1706.97,-466.53 1713.06,-462.66 1718.97,-466.78 1712.89,-470.66 1706.97,-466.53"/>
<text text-anchor="middle" x="1419" y="-420.8" font-family="Times,serif" font-size="14.00">&lt;containment&gt;</text>
<text text-anchor="middle" x="1419" y="-405.8" font-family="Times,serif" font-size="14.00">sp</text>
</g>
<!-- rover.fxns.plan_path.t -->
<g id="node6" class="node">
<title>rover.fxns.plan_path.t</title>
<polygon fill="lightgrey" stroke="grey" points="1444.5,-210 1389.5,-210 1389.5,-214 1377.5,-214 1377.5,-174 1444.5,-174 1444.5,-210"/>
<polyline fill="none" stroke="grey" points="1377.5,-210 1389.5,-210 "/>
<text text-anchor="middle" x="1411" y="-188.3" font-family="Times,serif" font-size="14.00">t: Time</text>
</g>
<!-- rover.fxns.plan_path&#45;&gt;rover.fxns.plan_path.t -->
<g id="edge5" class="edge">
<title>rover.fxns.plan_path-&gt;rover.fxns.plan_path.t</title>
<path fill="none" stroke="black" d="M1706.66,-454.23C1598.87,-442.84 1489.75,-422.03 1454,-384 1407.79,-334.84 1407.39,-247.08 1409.54,-210.14"/>
<polygon fill="black" stroke="black" points="1706.84,-454.25 1713.21,-450.89 1718.78,-455.48 1712.4,-458.84 1706.84,-454.25"/>
<text text-anchor="middle" x="1617" y="-420.8" font-family="Times,serif" font-size="14.00">&lt;containment&gt;</text>
<text text-anchor="middle" x="1617" y="-405.8" font-family="Times,serif" font-size="14.00">t</text>
</g>
<!-- rover.flows.auto_control -->
<g id="node7" class="node">
<title>rover.flows.auto_control</title>
<ellipse fill="lightgrey" stroke="grey" stroke-width="0" cx="1581" cy="-192" rx="118.17" ry="26.74"/>
<text text-anchor="middle" x="1581" y="-195.8" font-family="Times,serif" font-size="14.00">auto_control: Control</text>
<text text-anchor="middle" x="1581" y="-180.8" font-family="Times,serif" font-size="14.00">Control flow.</text>
</g>
<!-- rover.fxns.plan_path&#45;&gt;rover.flows.auto_control -->
<g id="edge10" class="edge">
<title>rover.fxns.plan_path-&gt;rover.flows.auto_control</title>
<path fill="none" stroke="black" d="M1836.8,-446.78C1792.43,-434.33 1744.39,-414.72 1708,-384 1652.16,-336.86 1611.12,-259.17 1592.35,-218.94"/>
<polygon fill="none" stroke="black" points="1837.01,-446.84 1843.84,-444.53 1848.59,-449.96 1841.76,-452.26 1837.01,-446.84"/>
<text text-anchor="middle" x="1844.5" y="-420.8" font-family="Times,serif" font-size="14.00">&lt;aggregation&gt;</text>
<text text-anchor="middle" x="1844.5" y="-405.8" font-family="Times,serif" font-size="14.00">control</text>
</g>
<!-- rover.flows.fault_sig -->
<g id="node8" class="node">
<title>rover.flows.fault_sig</title>
<ellipse fill="lightgrey" stroke="grey" stroke-width="0" cx="1822" cy="-192" rx="104.8" ry="26.74"/>
<text text-anchor="middle" x="1822" y="-195.8" font-family="Times,serif" font-size="14.00">fault_sig: FaultSig</text>
<text text-anchor="middle" x="1822" y="-180.8" font-family="Times,serif" font-size="14.00">Rover fault signal.</text>
</g>
<!-- rover.fxns.plan_path&#45;&gt;rover.flows.fault_sig -->
<g id="edge11" class="edge">
<title>rover.fxns.plan_path-&gt;rover.flows.fault_sig</title>
<path fill="none" stroke="black" d="M1945.52,-439.14C1918.5,-385.31 1860.83,-270.38 1834.99,-218.89"/>
<polygon fill="none" stroke="black" points="1945.56,-439.23 1951.83,-442.8 1950.95,-449.96 1944.68,-446.39 1945.56,-439.23"/>
<text text-anchor="middle" x="1995.5" y="-420.8" font-family="Times,serif" font-size="14.00">&lt;aggregation&gt;</text>
<text text-anchor="middle" x="1995.5" y="-405.8" font-family="Times,serif" font-size="14.00">fault_sig</text>
</g>
<!-- rover.flows.pos_signal -->
<g id="node9" class="node">
<title>rover.flows.pos_signal</title>
<ellipse fill="lightgrey" stroke="grey" stroke-width="0" cx="2098" cy="-192" rx="153.38" ry="26.74"/>
<text text-anchor="middle" x="2098" y="-195.8" font-family="Times,serif" font-size="14.00">pos_signal: Pos</text>
<text text-anchor="middle" x="2098" y="-180.8" font-family="Times,serif" font-size="14.00">Rover position/velocity flow.</text>
</g>
<!-- rover.fxns.plan_path&#45;&gt;rover.flows.pos_signal -->
<g id="edge13" class="edge">
<title>rover.fxns.plan_path-&gt;rover.flows.pos_signal</title>
<path fill="none" stroke="black" d="M2042.97,-443.27C2047.41,-439.97 2051.48,-436.24 2055,-432 2106.6,-369.9 2105.06,-266.97 2101.01,-219.04"/>
<polygon fill="none" stroke="black" points="2042.84,-443.35 2039.94,-449.95 2032.73,-449.81 2035.63,-443.21 2042.84,-443.35"/>
<text text-anchor="middle" x="2128.5" y="-420.8" font-family="Times,serif" font-size="14.00">&lt;aggregation&gt;</text>
<text text-anchor="middle" x="2128.5" y="-405.8" font-family="Times,serif" font-size="14.00">pos_signal</text>
</g>
<!-- rover.flows.video -->
<g id="node10" class="node">
<title>rover.flows.video</title>
<ellipse fill="lightgrey" stroke="grey" stroke-width="0" cx="2343" cy="-192" rx="73.58" ry="26.74"/>
<text text-anchor="middle" x="2343" y="-195.8" font-family="Times,serif" font-size="14.00">video: Video</text>
<text text-anchor="middle" x="2343" y="-180.8" font-family="Times,serif" font-size="14.00">Video flow.</text>
</g>
<!-- rover.fxns.plan_path&#45;&gt;rover.flows.video -->
<g id="edge14" class="edge">
<title>rover.fxns.plan_path-&gt;rover.flows.video</title>
<path fill="none" stroke="black" d="M2140.14,-447.07C2156.57,-442.92 2172.76,-437.95 2188,-432 2223.82,-418.01 2235.33,-413.51 2260,-384 2302.21,-333.52 2326.35,-258.28 2336.78,-219"/>
<polygon fill="none" stroke="black" points="2139.81,-447.15 2134.91,-452.44 2128.14,-449.95 2133.04,-444.66 2139.81,-447.15"/>
<text text-anchor="middle" x="2298.5" y="-420.8" font-family="Times,serif" font-size="14.00">&lt;aggregation&gt;</text>
<text text-anchor="middle" x="2298.5" y="-405.8" font-family="Times,serif" font-size="14.00">video</text>
</g>
<!-- rover.flows.ground -->
<g id="node11" class="node">
<title>rover.flows.ground</title>
<polygon fill="lightgrey" stroke="grey" stroke-width="0" points="2827.9,-179.92 2827.9,-204.08 2712.56,-221.17 2549.44,-221.17 2434.1,-204.08 2434.1,-179.92 2549.44,-162.83 2712.56,-162.83 2827.9,-179.92"/>
<text text-anchor="middle" x="2631" y="-195.8" font-family="Times,serif" font-size="14.00">ground: Ground</text>
<text text-anchor="middle" x="2631" y="-180.8" font-family="Times,serif" font-size="14.00">Ground environment of the rover.</text>
</g>
<!-- rover.fxns.plan_path&#45;&gt;rover.flows.ground -->
<g id="edge12" class="edge">
<title>rover.fxns.plan_path-&gt;rover.flows.ground</title>
<path fill="none" stroke="black" d="M2213.43,-455.35C2274.1,-449.98 2329.54,-442.47 2358,-432 2472.4,-389.93 2569.83,-274.91 2610.59,-221.26"/>
<polygon fill="none" stroke="black" points="2213.19,-455.37 2207.55,-459.86 2201.24,-456.39 2206.87,-451.89 2213.19,-455.37"/>
<text text-anchor="middle" x="2467.5" y="-420.8" font-family="Times,serif" font-size="14.00">&lt;aggregation&gt;</text>
<text text-anchor="middle" x="2467.5" y="-405.8" font-family="Times,serif" font-size="14.00">ground</text>
</g>
<!-- rover.fxns.plan_path.correct_fault_vel -->
<g id="node12" class="node">
<title>rover.fxns.plan_path.correct_fault_vel</title>
<polygon fill="lightgrey" stroke="grey" points="3196.5,-211 2845.5,-211 2845.5,-207 2841.5,-207 2841.5,-203 2845.5,-203 2845.5,-181 2841.5,-181 2841.5,-177 2845.5,-177 2845.5,-173 3196.5,-173 3196.5,-211"/>
<polyline fill="none" stroke="grey" points="2845.5,-207 2849.5,-207 2849.5,-203 2845.5,-203 "/>
<polyline fill="none" stroke="grey" points="2845.5,-181 2849.5,-181 2849.5,-177 2845.5,-177 "/>
<text text-anchor="middle" x="3021" y="-195.8" font-family="Times,serif" font-size="14.00">correct_fault_vel: method</text>
<text text-anchor="middle" x="3021" y="-180.8" font-family="Times,serif" font-size="14.00">Slow down the rover when faults are detected.</text>
</g>
<!-- rover.fxns.plan_path&#45;&gt;rover.fxns.plan_path.correct_fault_vel -->
<g id="edge6" class="edge">
<title>rover.fxns.plan_path-&gt;rover.fxns.plan_path.correct_fault_vel</title>
<path fill="none" stroke="black" d="M2213.11,-464.58C2432.87,-457.87 2731.86,-438.58 2837,-384 2918.12,-341.89 2984.07,-250.25 3009.6,-211.21"/>
<polygon fill="black" stroke="black" points="2213.06,-464.58 2207.18,-468.76 2201.06,-464.94 2206.94,-460.76 2213.06,-464.58"/>
<text text-anchor="middle" x="2845.5" y="-420.8" font-family="Times,serif" font-size="14.00">&lt;containment&gt;</text>
<text text-anchor="middle" x="2845.5" y="-405.8" font-family="Times,serif" font-size="14.00">correct_fault_vel</text>
</g>
<!-- rover.fxns.plan_path.drive_control -->
<g id="node13" class="node">
<title>rover.fxns.plan_path.drive_control</title>
<polygon fill="lightgrey" stroke="grey" points="3637,-211 3215,-211 3215,-207 3211,-207 3211,-203 3215,-203 3215,-181 3211,-181 3211,-177 3215,-177 3215,-173 3637,-173 3637,-211"/>
<polyline fill="none" stroke="grey" points="3215,-207 3219,-207 3219,-203 3215,-203 "/>
<polyline fill="none" stroke="grey" points="3215,-181 3219,-181 3219,-177 3215,-177 "/>
<text text-anchor="middle" x="3426" y="-195.8" font-family="Times,serif" font-size="14.00">drive_control: method</text>
<text text-anchor="middle" x="3426" y="-180.8" font-family="Times,serif" font-size="14.00">Control of rpower/lpower signal based on percieved line.</text>
</g>
<!-- rover.fxns.plan_path&#45;&gt;rover.fxns.plan_path.drive_control -->
<g id="edge7" class="edge">
<title>rover.fxns.plan_path-&gt;rover.fxns.plan_path.drive_control</title>
<path fill="none" stroke="black" d="M2213.62,-466.83C2405.1,-463.9 2674.1,-455.41 2909,-432 3041.62,-418.78 3084.24,-440.37 3205,-384 3296.21,-341.42 3378.85,-250.04 3411.37,-211.13"/>
<polygon fill="black" stroke="black" points="2213.41,-466.83 2207.47,-470.92 2201.41,-467.01 2207.35,-462.92 2213.41,-466.83"/>
<text text-anchor="middle" x="3216" y="-420.8" font-family="Times,serif" font-size="14.00">&lt;containment&gt;</text>
<text text-anchor="middle" x="3216" y="-405.8" font-family="Times,serif" font-size="14.00">drive_control</text>
</g>
<!-- rover.fxns.plan_path.dynamic_behavior -->
<g id="node14" class="node">
<title>rover.fxns.plan_path.dynamic_behavior</title>
<polygon fill="lightgrey" stroke="grey" points="4194.5,-279 3655.5,-279 3655.5,-275 3651.5,-275 3651.5,-271 3655.5,-271 3655.5,-113 3651.5,-113 3651.5,-109 3655.5,-109 3655.5,-105 4194.5,-105 4194.5,-279"/>
<polyline fill="none" stroke="grey" points="3655.5,-275 3659.5,-275 3659.5,-271 3655.5,-271 "/>
<polyline fill="none" stroke="grey" points="3655.5,-113 3659.5,-113 3659.5,-109 3655.5,-109 "/>
<text text-anchor="middle" x="3925" y="-263.8" font-family="Times,serif" font-size="14.00">dynamic_behavior: method</text>
<text text-anchor="middle" x="3925" y="-248.8" font-family="Times,serif" font-size="14.00">Dynamic Behavior of Planning Module.</text>
<text text-anchor="middle" x="3925" y="-217.8" font-family="Times,serif" font-size="14.00">Step 1: Assign Operational Mode.</text>
<text text-anchor="middle" x="3925" y="-202.8" font-family="Times,serif" font-size="14.00">Step 2A: If Operational Mode is Drive determine if the rover has reached</text>
<text text-anchor="middle" x="3925" y="-187.8" font-family="Times,serif" font-size="14.00">the end point or emergency shut off is required and assign those modes</text>
<text text-anchor="middle" x="3925" y="-172.8" font-family="Times,serif" font-size="14.00">Step 2B: if none of the situations in step 2 applies, determines the</text>
<text text-anchor="middle" x="3925" y="-157.8" font-family="Times,serif" font-size="14.00">control signal for left and right motor power, based on percieced line</text>
<text text-anchor="middle" x="3925" y="-142.8" font-family="Times,serif" font-size="14.00">and current location.</text>
<text text-anchor="middle" x="3925" y="-127.8" font-family="Times,serif" font-size="14.00">Step 4: if mode is &quot;finished&quot; or &quot;em_off&quot;&quot; sets the left power and</text>
<text text-anchor="middle" x="3925" y="-112.8" font-family="Times,serif" font-size="14.00">right power control signal to 0.</text>
</g>
<!-- rover.fxns.plan_path&#45;&gt;rover.fxns.plan_path.dynamic_behavior -->
<g id="edge8" class="edge">
<title>rover.fxns.plan_path-&gt;rover.fxns.plan_path.dynamic_behavior</title>
<path fill="none" stroke="black" d="M2213.13,-468.73C2478.59,-467.71 2907.71,-460.99 3277,-432 3441.87,-419.06 3491.5,-443.01 3646,-384 3710.16,-359.5 3773.95,-317.49 3824.31,-279.11"/>
<polygon fill="black" stroke="black" points="2213.01,-468.73 2207.03,-472.75 2201.01,-468.78 2207,-464.75 2213.01,-468.73"/>
<text text-anchor="middle" x="3652" y="-420.8" font-family="Times,serif" font-size="14.00">&lt;containment&gt;</text>
<text text-anchor="middle" x="3652" y="-405.8" font-family="Times,serif" font-size="14.00">dynamic_behavior</text>
</g>
<!-- rover.fxns.plan_path.faultstates_in_bounds -->
<g id="node15" class="node">
<title>rover.fxns.plan_path.faultstates_in_bounds</title>
<polygon fill="lightgrey" stroke="grey" points="4479,-211 4213,-211 4213,-207 4209,-207 4209,-203 4213,-203 4213,-181 4209,-181 4209,-177 4213,-177 4213,-173 4479,-173 4479,-211"/>
<polyline fill="none" stroke="grey" points="4213,-207 4217,-207 4217,-203 4213,-203 "/>
<polyline fill="none" stroke="grey" points="4213,-181 4217,-181 4217,-177 4213,-177 "/>
<text text-anchor="middle" x="4346" y="-195.8" font-family="Times,serif" font-size="14.00">faultstates_in_bounds: method</text>
<text text-anchor="middle" x="4346" y="-180.8" font-family="Times,serif" font-size="14.00">Check if fault-states are in-bounds.</text>
</g>
<!-- rover.fxns.plan_path&#45;&gt;rover.fxns.plan_path.faultstates_in_bounds -->
<g id="edge9" class="edge">
<title>rover.fxns.plan_path-&gt;rover.fxns.plan_path.faultstates_in_bounds</title>
<path fill="none" stroke="black" d="M2213.25,-465.28C2628.31,-460.4 3435.74,-449.06 3721,-432 3936.34,-419.12 4016.29,-490.3 4204,-384 4275.55,-343.48 4321.67,-250.54 4338.66,-211.16"/>
<polygon fill="black" stroke="black" points="2213.09,-465.28 2207.13,-469.35 2201.09,-465.42 2207.04,-461.35 2213.09,-465.28"/>
<text text-anchor="middle" x="4239" y="-420.8" font-family="Times,serif" font-size="14.00">&lt;containment&gt;</text>
<text text-anchor="middle" x="4239" y="-405.8" font-family="Times,serif" font-size="14.00">faultstates_in_bounds</text>
</g>
</g>
</svg>