<svg xmlns="http://www.w3.org/2000/svg" xmlns:xlink="http://www.w3.org/1999/xlink" width="3204pt" height="319pt" viewBox="0.00 0.00 3204.38 318.75">
<g id="graph0" class="graph" transform="scale(1 1) rotate(0) translate(4 314.75)">
<polygon fill="white" stroke="none" points="-4,4 -4,-314.75 3200.38,-314.75 3200.38,4 -4,4"/>
<!-- rover -->
<g id="node1" class="node">
<title>rover</title>
<polygon fill="lightgrey" stroke="grey" points="1598.38,-310.75 1538.16,-275.12 1658.59,-275.12 1598.38,-310.75"/>
<text text-anchor="middle" x="1598.38" y="-281.57" font-family="Times New Roman,serif" font-size="14.00">rover</text>
</g>
<!-- rover.flows.ground -->
<g id="node2" class="node">
<title>rover.flows.ground</title>
<ellipse fill="lightgrey" stroke="grey" stroke-width="0" cx="1794.38" cy="-105.75" rx="37.09" ry="18"/>
<text text-anchor="middle" x="1794.38" y="-100.33" font-family="Times New Roman,serif" font-size="14.00">ground</text>
</g>
<!-- rover&#45;&gt;rover.flows.ground -->
<g id="edge1" class="edge">
<title>rover-&gt;rover.flows.ground</title>
<path fill="none" stroke="black" d="M1656.33,-284.06C1717.66,-280.64 1808.57,-271.22 1830.38,-245.25 1842.37,-230.96 1834.34,-246.84 1808.38,-157.5 1805.06,-146.09 1801.5,-133.18 1798.8,-123.24"/>
<polygon fill="black" stroke="black" points="1656.23,-284.06 1650.44,-288.36 1644.25,-284.67 1650.03,-280.37 1656.23,-284.06"/>
<text text-anchor="middle" x="1867.38" y="-188.07" font-family="Times New Roman,serif" font-size="14.00">&lt;containment&gt;</text>
</g>
<!-- rover.flows.force -->
<g id="node3" class="node">
<title>rover.flows.force</title>
<ellipse fill="lightgrey" stroke="grey" stroke-width="0" cx="1396.38" cy="-105.75" rx="30.11" ry="18"/>
<text text-anchor="middle" x="1396.38" y="-100.33" font-family="Times New Roman,serif" font-size="14.00">force</text>
</g>
<!-- rover&#45;&gt;rover.flows.force -->
<g id="edge2" class="edge">
<title>rover-&gt;rover.flows.force</title>
<path fill="none" stroke="black" d="M1543.82,-285.88C1489.44,-282.42 1408.91,-267.41 1372.38,-211.5 1354.21,-183.7 1372.91,-143.92 1385.99,-122.26"/>
<polygon fill="black" stroke="black" points="1543.81,-285.88 1550,-282.18 1555.79,-286.48 1549.6,-290.17 1543.81,-285.88"/>
<text text-anchor="middle" x="1414.38" y="-188.07" font-family="Times New Roman,serif" font-size="14.00">&lt;containment&gt;</text>
</g>
<!-- rover.flows.ee -->
<g id="node4" class="node">
<title>rover.flows.ee</title>
<ellipse fill="lightgrey" stroke="grey" stroke-width="0" cx="2011.38" cy="-105.75" rx="27" ry="18"/>
<text text-anchor="middle" x="2011.38" y="-100.33" font-family="Times New Roman,serif" font-size="14.00">ee</text>
</g>
<!-- rover&#45;&gt;rover.flows.ee -->
<g id="edge3" class="edge">
<title>rover-&gt;rover.flows.ee</title>
<path fill="none" stroke="black" d="M1659.71,-281.15C1710.66,-275.88 1784.54,-265.38 1846.38,-245.25 1878.08,-234.93 1884.42,-228.04 1913.38,-211.5 1951.91,-189.49 1971.07,-193.25 1997.38,-157.5 2004.63,-147.63 2008.13,-134.19 2009.81,-123.62"/>
<polygon fill="black" stroke="black" points="1659.78,-281.14 1654.2,-285.71 1647.84,-282.31 1653.42,-277.75 1659.78,-281.14"/>
<text text-anchor="middle" x="2022.38" y="-188.07" font-family="Times New Roman,serif" font-size="14.00">&lt;containment&gt;</text>
</g>
<!-- rover.flows.video -->
<g id="node5" class="node">
<title>rover.flows.video</title>
<ellipse fill="lightgrey" stroke="grey" stroke-width="0" cx="1286.38" cy="-105.75" rx="31.1" ry="18"/>
<text text-anchor="middle" x="1286.38" y="-100.33" font-family="Times New Roman,serif" font-size="14.00">video</text>
</g>
<!-- rover&#45;&gt;rover.flows.video -->
<g id="edge4" class="edge">
<title>rover-&gt;rover.flows.video</title>
<path fill="none" stroke="black" d="M1536.42,-280.99C1451.94,-272.68 1307.59,-252.71 1277.38,-211.5 1258.27,-185.44 1269.89,-145.34 1278.88,-123.08"/>
<polygon fill="black" stroke="black" points="1536.35,-280.98 1542.7,-277.57 1548.29,-282.12 1541.94,-285.53 1536.35,-280.98"/>
<text text-anchor="middle" x="1319.38" y="-188.07" font-family="Times New Roman,serif" font-size="14.00">&lt;containment&gt;</text>
</g>
<!-- rover.flows.control -->
<g id="node6" class="node">
<title>rover.flows.control</title>
<ellipse fill="lightgrey" stroke="grey" stroke-width="0" cx="539.38" cy="-105.75" rx="37.09" ry="18"/>
<text text-anchor="middle" x="539.38" y="-100.33" font-family="Times New Roman,serif" font-size="14.00">control</text>
</g>
<!-- rover&#45;&gt;rover.flows.control -->
<g id="edge5" class="edge">
<title>rover-&gt;rover.flows.control</title>
<path fill="none" stroke="black" d="M1540,-283.58C1410.37,-277.51 1089.07,-258.62 824.38,-211.5 715.45,-192.11 675.75,-215.24 581.38,-157.5 567.52,-149.02 556.11,-134.34 548.7,-122.94"/>
<polygon fill="black" stroke="black" points="1539.78,-283.57 1545.95,-279.85 1551.76,-284.12 1545.59,-287.84 1539.78,-283.57"/>
<text text-anchor="middle" x="866.38" y="-188.07" font-family="Times New Roman,serif" font-size="14.00">&lt;containment&gt;</text>
</g>
<!-- rover.flows.comms -->
<g id="node7" class="node">
<title>rover.flows.comms</title>
<ellipse fill="lightgrey" stroke="grey" stroke-width="0" cx="3120.38" cy="-105.75" rx="38.09" ry="18"/>
<text text-anchor="middle" x="3120.38" y="-100.33" font-family="Times New Roman,serif" font-size="14.00">comms</text>
</g>
<!-- rover&#45;&gt;rover.flows.comms -->
<g id="edge6" class="edge">
<title>rover-&gt;rover.flows.comms</title>
<path fill="none" stroke="black" d="M1655.9,-284.51C1878.18,-278.47 2681.09,-254.12 2932.38,-211.5 3021.88,-196.32 3074.32,-229.68 3129.38,-157.5 3136.86,-147.68 3133.66,-133.7 3129.12,-122.9"/>
<polygon fill="black" stroke="black" points="1655.91,-284.51 1650.02,-288.67 1643.91,-284.83 1649.8,-280.67 1655.91,-284.51"/>
<text text-anchor="middle" x="3154.38" y="-188.07" font-family="Times New Roman,serif" font-size="14.00">&lt;containment&gt;</text>
</g>
<!-- rover.m -->
<g id="node28" class="node">
<title>rover.m</title>
<polygon fill="lightgrey" stroke="grey" points="1625.38,-211.5 1583.38,-211.5 1583.38,-215.5 1571.38,-215.5 1571.38,-175.5 1625.38,-175.5 1625.38,-211.5"/>
<polyline fill="none" stroke="grey" points="1571.38,-211.5 1583.38,-211.5"/>
<text text-anchor="middle" x="1598.38" y="-188.07" font-family="Times New Roman,serif" font-size="14.00">m</text>
</g>
<!-- rover&#45;&gt;rover.m -->
<g id="edge12" class="edge">
<title>rover-&gt;rover.m</title>
<path fill="none" stroke="black" d="M1564.65,-267.85C1550.4,-257.61 1538.66,-243.99 1546.38,-229.5 1551.74,-219.41 1561.46,-211.71 1571.05,-206.14"/>
<polygon fill="black" stroke="black" points="1564.39,-267.68 1571.61,-267.56 1574.48,-274.18 1567.27,-274.29 1564.39,-267.68"/>
<text text-anchor="middle" x="1588.38" y="-231.95" font-family="Times New Roman,serif" font-size="14.00">&lt;containment&gt;</text>
</g>
<!-- rover.sp -->
<g id="node29" class="node">
<title>rover.sp</title>
<polygon fill="lightgrey" stroke="grey" points="1697.38,-211.5 1655.38,-211.5 1655.38,-215.5 1643.38,-215.5 1643.38,-175.5 1697.38,-175.5 1697.38,-211.5"/>
<polyline fill="none" stroke="grey" points="1643.38,-211.5 1655.38,-211.5"/>
<text text-anchor="middle" x="1670.38" y="-188.07" font-family="Times New Roman,serif" font-size="14.00">sp</text>
</g>
<!-- rover&#45;&gt;rover.sp -->
<g id="edge13" class="edge">
<title>rover-&gt;rover.sp</title>
<path fill="none" stroke="black" d="M1615.14,-264.7C1627.81,-248.6 1644.98,-226.77 1656.8,-211.75"/>
<polygon fill="black" stroke="black" points="1615.18,-264.64 1614.61,-271.83 1607.76,-274.07 1608.33,-266.88 1615.18,-264.64"/>
<text text-anchor="middle" x="1683.38" y="-231.95" font-family="Times New Roman,serif" font-size="14.00">&lt;containment&gt;</text>
</g>
<!-- rover.t -->
<g id="node30" class="node">
<title>rover.t</title>
<polygon fill="lightgrey" stroke="grey" points="1786.38,-211.5 1744.38,-211.5 1744.38,-215.5 1732.38,-215.5 1732.38,-175.5 1786.38,-175.5 1786.38,-211.5"/>
<polyline fill="none" stroke="grey" points="1732.38,-211.5 1744.38,-211.5"/>
<text text-anchor="middle" x="1759.38" y="-188.07" font-family="Times New Roman,serif" font-size="14.00">t</text>
</g>
<!-- rover&#45;&gt;rover.t -->
<g id="edge14" class="edge">
<title>rover-&gt;rover.t</title>
<path fill="none" stroke="black" d="M1667.39,-274.63C1688.87,-268.58 1711.57,-259.33 1729.38,-245.25 1740.29,-236.61 1748.08,-222.83 1752.98,-211.81"/>
<polygon fill="black" stroke="black" points="1667.42,-274.63 1662.6,-280 1655.79,-277.62 1660.61,-272.25 1667.42,-274.63"/>
<text text-anchor="middle" x="1784.38" y="-231.95" font-family="Times New Roman,serif" font-size="14.00">&lt;containment&gt;</text>
</g>
<!-- rover.fxns.control_rover -->
<g id="node31" class="node">
<title>rover.fxns.control_rover</title>
<polygon fill="lightgrey" stroke="grey" stroke-width="2" points="362.62,-211.5 270.12,-211.5 270.12,-175.5 362.62,-175.5 362.62,-211.5"/>
<text text-anchor="middle" x="316.38" y="-188.07" font-family="Times New Roman,serif" font-size="14.00">control_rover</text>
</g>
<!-- rover&#45;&gt;rover.fxns.control_rover -->
<g id="edge7" class="edge">
<title>rover-&gt;rover.fxns.control_rover</title>
<path fill="none" stroke="black" d="M1541.75,-285.12C1324.78,-281.61 553.06,-267.65 445.38,-245.25 412.74,-238.46 377.66,-224.16 352.33,-212.47"/>
<polygon fill="black" stroke="black" points="1541.74,-285.12 1547.81,-281.22 1553.74,-285.32 1547.68,-289.22 1541.74,-285.12"/>
<text text-anchor="middle" x="487.38" y="-231.95" font-family="Times New Roman,serif" font-size="14.00">&lt;containment&gt;</text>
</g>
<!-- rover.fxns.store_energy -->
<g id="node32" class="node">
<title>rover.fxns.store_energy</title>
<polygon fill="lightgrey" stroke="grey" stroke-width="2" points="1005.38,-211.5 917.38,-211.5 917.38,-175.5 1005.38,-175.5 1005.38,-211.5"/>
<text text-anchor="middle" x="961.38" y="-188.07" font-family="Times New Roman,serif" font-size="14.00">store_energy</text>
</g>
<!-- rover&#45;&gt;rover.fxns.store_energy -->
<g id="edge8" class="edge">
<title>rover-&gt;rover.fxns.store_energy</title>
<path fill="none" stroke="black" d="M1540.4,-284.11C1453.81,-280.54 1285.83,-270.72 1145.38,-245.25 1097.12,-236.5 1043.16,-220.9 1006.22,-209.3"/>
<polygon fill="black" stroke="black" points="1540.44,-284.11 1546.59,-280.35 1552.43,-284.59 1546.28,-288.35 1540.44,-284.11"/>
<text text-anchor="middle" x="1187.38" y="-231.95" font-family="Times New Roman,serif" font-size="14.00">&lt;containment&gt;</text>
</g>
<!-- rover.fxns.move_rover -->
<g id="node33" class="node">
<title>rover.fxns.move_rover</title>
<polygon fill="lightgrey" stroke="grey" stroke-width="2" points="2214.12,-211.5 2130.62,-211.5 2130.62,-175.5 2214.12,-175.5 2214.12,-211.5"/>
<text text-anchor="middle" x="2172.38" y="-188.07" font-family="Times New Roman,serif" font-size="14.00">move_rover</text>
</g>
<!-- rover&#45;&gt;rover.fxns.move_rover -->
<g id="edge9" class="edge">
<title>rover-&gt;rover.fxns.move_rover</title>
<path fill="none" stroke="black" d="M1655.04,-284.85C1737.45,-282.23 1894.78,-273.6 2025.38,-245.25 2061.39,-237.43 2100.79,-223.52 2129.73,-212.24"/>
<polygon fill="black" stroke="black" points="1655.13,-284.85 1649.25,-289.03 1643.14,-285.21 1649.02,-281.03 1655.13,-284.85"/>
<text text-anchor="middle" x="2120.38" y="-231.95" font-family="Times New Roman,serif" font-size="14.00">&lt;containment&gt;</text>
</g>
<!-- rover.fxns.view_ground -->
<g id="node34" class="node">
<title>rover.fxns.view_ground</title>
<polygon fill="lightgrey" stroke="grey" stroke-width="2" points="1553.75,-211.5 1465,-211.5 1465,-175.5 1553.75,-175.5 1553.75,-211.5"/>
<text text-anchor="middle" x="1509.38" y="-188.07" font-family="Times New Roman,serif" font-size="14.00">view_ground</text>
</g>
<!-- rover&#45;&gt;rover.fxns.view_ground -->
<g id="edge10" class="edge">
<title>rover-&gt;rover.fxns.view_ground</title>
<path fill="none" stroke="black" d="M1526.83,-273.74C1496.24,-266.9 1465.46,-257.31 1456.38,-245.25 1447.33,-233.24 1457.88,-221.52 1471.89,-212.38"/>
<polygon fill="black" stroke="black" points="1526.79,-273.73 1533.49,-271.06 1538.53,-276.22 1531.83,-278.89 1526.79,-273.73"/>
<text text-anchor="middle" x="1498.38" y="-231.95" font-family="Times New Roman,serif" font-size="14.00">&lt;containment&gt;</text>
</g>
<!-- rover.fxns.communicate -->
<g id="node35" class="node">
<title>rover.fxns.communicate</title>
<polygon fill="lightgrey" stroke="grey" stroke-width="2" points="2923.5,-211.5 2833.25,-211.5 2833.25,-175.5 2923.5,-175.5 2923.5,-211.5"/>
<text text-anchor="middle" x="2878.38" y="-188.07" font-family="Times New Roman,serif" font-size="14.00">communicate</text>
</g>
<!-- rover&#45;&gt;rover.fxns.communicate -->
<g id="edge11" class="edge">
<title>rover-&gt;rover.fxns.communicate</title>
<path fill="none" stroke="black" d="M1659.91,-281.6C1881.78,-265.74 2637.85,-211.69 2832.42,-197.79"/>
<polygon fill="black" stroke="black" points="1659.86,-281.6 1654.16,-286.02 1647.89,-282.46 1653.59,-278.04 1659.86,-281.6"/>
<text text-anchor="middle" x="2394.38" y="-231.95" font-family="Times New Roman,serif" font-size="14.00">&lt;containment&gt;</text>
</g>
<!-- rover.flows.ground.s -->
<g id="node8" class="node">
<title>rover.flows.ground.s</title>
<polygon fill="lightgrey" stroke="grey" points="1821.38,-36 1779.38,-36 1779.38,-40 1767.38,-40 1767.38,0 1821.38,0 1821.38,-36"/>
<polyline fill="none" stroke="grey" points="1767.38,-36 1779.38,-36"/>
<text text-anchor="middle" x="1794.38" y="-12.57" font-family="Times New Roman,serif" font-size="14.00">s</text>
</g>
<!-- rover.flows.ground&#45;&gt;rover.flows.ground.s -->
<g id="edge15" class="edge">
<title>rover.flows.ground-&gt;rover.flows.ground.s</title>
<path fill="none" stroke="black" d="M1794.38,-74.83C1794.38,-62.02 1794.38,-47.51 1794.38,-36.49"/>
<polygon fill="black" stroke="black" points="1794.38,-74.91 1798.38,-80.91 1794.38,-86.91 1790.38,-80.91 1794.38,-74.91"/>
<text text-anchor="middle" x="1836.38" y="-56.45" font-family="Times New Roman,serif" font-size="14.00">&lt;containment&gt;</text>
</g>
<!-- rover.flows.force.s -->
<g id="node9" class="node">
<title>rover.flows.force.s</title>
<polygon fill="lightgrey" stroke="grey" points="1423.38,-36 1381.38,-36 1381.38,-40 1369.38,-40 1369.38,0 1423.38,0 1423.38,-36"/>
<polyline fill="none" stroke="grey" points="1369.38,-36 1381.38,-36"/>
<text text-anchor="middle" x="1396.38" y="-12.57" font-family="Times New Roman,serif" font-size="14.00">s</text>
</g>
<!-- rover.flows.force&#45;&gt;rover.flows.force.s -->
<g id="edge16" class="edge">
<title>rover.flows.force-&gt;rover.flows.force.s</title>
<path fill="none" stroke="black" d="M1396.38,-74.83C1396.38,-62.02 1396.38,-47.51 1396.38,-36.49"/>
<polygon fill="black" stroke="black" points="1396.38,-74.91 1400.38,-80.91 1396.38,-86.91 1392.38,-80.91 1396.38,-74.91"/>
<text text-anchor="middle" x="1438.38" y="-56.45" font-family="Times New Roman,serif" font-size="14.00">&lt;containment&gt;</text>
</g>
<!-- rover.flows.ee.s -->
<g id="node10" class="node">
<title>rover.flows.ee.s</title>
<polygon fill="lightgrey" stroke="grey" points="2038.38,-36 1996.38,-36 1996.38,-40 1984.38,-40 1984.38,0 2038.38,0 2038.38,-36"/>
<polyline fill="none" stroke="grey" points="1984.38,-36 1996.38,-36"/>
<text text-anchor="middle" x="2011.38" y="-12.57" font-family="Times New Roman,serif" font-size="14.00">s</text>
</g>
<!-- rover.flows.ee&#45;&gt;rover.flows.ee.s -->
<g id="edge17" class="edge">
<title>rover.flows.ee-&gt;rover.flows.ee.s</title>
<path fill="none" stroke="black" d="M2011.38,-74.83C2011.38,-62.02 2011.38,-47.51 2011.38,-36.49"/>
<polygon fill="black" stroke="black" points="2011.38,-74.91 2015.38,-80.91 2011.38,-86.91 2007.38,-80.91 2011.38,-74.91"/>
<text text-anchor="middle" x="2053.38" y="-56.45" font-family="Times New Roman,serif" font-size="14.00">&lt;containment&gt;</text>
</g>
<!-- rover.flows.video.s -->
<g id="node11" class="node">
<title>rover.flows.video.s</title>
<polygon fill="lightgrey" stroke="grey" points="1313.38,-36 1271.38,-36 1271.38,-40 1259.38,-40 1259.38,0 1313.38,0 1313.38,-36"/>
<polyline fill="none" stroke="grey" points="1259.38,-36 1271.38,-36"/>
<text text-anchor="middle" x="1286.38" y="-12.57" font-family="Times New Roman,serif" font-size="14.00">s</text>
</g>
<!-- rover.flows.video&#45;&gt;rover.flows.video.s -->
<g id="edge18" class="edge">
<title>rover.flows.video-&gt;rover.flows.video.s</title>
<path fill="none" stroke="black" d="M1286.38,-74.83C1286.38,-62.02 1286.38,-47.51 1286.38,-36.49"/>
<polygon fill="black" stroke="black" points="1286.38,-74.91 1290.38,-80.91 1286.38,-86.91 1282.38,-80.91 1286.38,-74.91"/>
<text text-anchor="middle" x="1328.38" y="-56.45" font-family="Times New Roman,serif" font-size="14.00">&lt;containment&gt;</text>
</g>
<!-- rover.flows.control.s -->
<g id="node12" class="node">
<title>rover.flows.control.s</title>
<polygon fill="lightgrey" stroke="grey" points="566.38,-36 524.38,-36 524.38,-40 512.38,-40 512.38,0 566.38,0 566.38,-36"/>
<polyline fill="none" stroke="grey" points="512.38,-36 524.38,-36"/>
<text text-anchor="middle" x="539.38" y="-12.57" font-family="Times New Roman,serif" font-size="14.00">s</text>
</g>
<!-- rover.flows.control&#45;&gt;rover.flows.control.s -->
<g id="edge19" class="edge">
<title>rover.flows.control-&gt;rover.flows.control.s</title>
<path fill="none" stroke="black" d="M539.38,-74.83C539.38,-62.02 539.38,-47.51 539.38,-36.49"/>
<polygon fill="black" stroke="black" points="539.38,-74.91 543.38,-80.91 539.38,-86.91 535.38,-80.91 539.38,-74.91"/>
<text text-anchor="middle" x="581.38" y="-56.45" font-family="Times New Roman,serif" font-size="14.00">&lt;containment&gt;</text>
</g>
<!-- rover.fxns.control_rover.m -->
<g id="node13" class="node">
<title>rover.fxns.control_rover.m</title>
<polygon fill="lightgrey" stroke="grey" points="193.38,-123.75 151.38,-123.75 151.38,-127.75 139.38,-127.75 139.38,-87.75 193.38,-87.75 193.38,-123.75"/>
<polyline fill="none" stroke="grey" points="139.38,-123.75 151.38,-123.75"/>
<text text-anchor="middle" x="166.38" y="-100.33" font-family="Times New Roman,serif" font-size="14.00">m</text>
</g>
<!-- rover.fxns.control_rover.sp -->
<g id="node14" class="node">
<title>rover.fxns.control_rover.sp</title>
<polygon fill="lightgrey" stroke="grey" points="300.38,-123.75 258.38,-123.75 258.38,-127.75 246.38,-127.75 246.38,-87.75 300.38,-87.75 300.38,-123.75"/>
<polyline fill="none" stroke="grey" points="246.38,-123.75 258.38,-123.75"/>
<text text-anchor="middle" x="273.38" y="-100.33" font-family="Times New Roman,serif" font-size="14.00">sp</text>
</g>
<!-- rover.fxns.control_rover.t -->
<g id="node15" class="node">
<title>rover.fxns.control_rover.t</title>
<polygon fill="lightgrey" stroke="grey" points="407.38,-123.75 365.38,-123.75 365.38,-127.75 353.38,-127.75 353.38,-87.75 407.38,-87.75 407.38,-123.75"/>
<polyline fill="none" stroke="grey" points="353.38,-123.75 365.38,-123.75"/>
<text text-anchor="middle" x="380.38" y="-100.33" font-family="Times New Roman,serif" font-size="14.00">t</text>
</g>
<!-- rover.fxns.store_energy.m -->
<g id="node16" class="node">
<title>rover.fxns.store_energy.m</title>
<polygon fill="lightgrey" stroke="grey" points="774.38,-123.75 732.38,-123.75 732.38,-127.75 720.38,-127.75 720.38,-87.75 774.38,-87.75 774.38,-123.75"/>
<polyline fill="none" stroke="grey" points="720.38,-123.75 732.38,-123.75"/>
<text text-anchor="middle" x="747.38" y="-100.33" font-family="Times New Roman,serif" font-size="14.00">m</text>
</g>
<!-- rover.fxns.store_energy.s -->
<g id="node17" class="node">
<title>rover.fxns.store_energy.s</title>
<polygon fill="lightgrey" stroke="grey" points="881.38,-123.75 839.38,-123.75 839.38,-127.75 827.38,-127.75 827.38,-87.75 881.38,-87.75 881.38,-123.75"/>
<polyline fill="none" stroke="grey" points="827.38,-123.75 839.38,-123.75"/>
<text text-anchor="middle" x="854.38" y="-100.33" font-family="Times New Roman,serif" font-size="14.00">s</text>
</g>
<!-- rover.fxns.store_energy.sp -->
<g id="node18" class="node">
<title>rover.fxns.store_energy.sp</title>
<polygon fill="lightgrey" stroke="grey" points="988.38,-123.75 946.38,-123.75 946.38,-127.75 934.38,-127.75 934.38,-87.75 988.38,-87.75 988.38,-123.75"/>
<polyline fill="none" stroke="grey" points="934.38,-123.75 946.38,-123.75"/>
<text text-anchor="middle" x="961.38" y="-100.33" font-family="Times New Roman,serif" font-size="14.00">sp</text>
</g>
<!-- rover.fxns.store_energy.t -->
<g id="node19" class="node">
<title>rover.fxns.store_energy.t</title>
<polygon fill="lightgrey" stroke="grey" points="1095.38,-123.75 1053.38,-123.75 1053.38,-127.75 1041.38,-127.75 1041.38,-87.75 1095.38,-87.75 1095.38,-123.75"/>
<polyline fill="none" stroke="grey" points="1041.38,-123.75 1053.38,-123.75"/>
<text text-anchor="middle" x="1068.38" y="-100.33" font-family="Times New Roman,serif" font-size="14.00">t</text>
</g>
<!-- rover.fxns.move_rover.m -->
<g id="node20" class="node">
<title>rover.fxns.move_rover.m</title>
<polygon fill="lightgrey" stroke="grey" points="2523.38,-123.75 2481.38,-123.75 2481.38,-127.75 2469.38,-127.75 2469.38,-87.75 2523.38,-87.75 2523.38,-123.75"/>
<polyline fill="none" stroke="grey" points="2469.38,-123.75 2481.38,-123.75"/>
<text text-anchor="middle" x="2496.38" y="-100.33" font-family="Times New Roman,serif" font-size="14.00">m</text>
</g>
<!-- rover.fxns.move_rover.s -->
<g id="node21" class="node">
<title>rover.fxns.move_rover.s</title>
<polygon fill="lightgrey" stroke="grey" points="2627.38,-123.75 2585.38,-123.75 2585.38,-127.75 2573.38,-127.75 2573.38,-87.75 2627.38,-87.75 2627.38,-123.75"/>
<polyline fill="none" stroke="grey" points="2573.38,-123.75 2585.38,-123.75"/>
<text text-anchor="middle" x="2600.38" y="-100.33" font-family="Times New Roman,serif" font-size="14.00">s</text>
</g>
<!-- rover.fxns.move_rover.sp -->
<g id="node22" class="node">
<title>rover.fxns.move_rover.sp</title>
<polygon fill="lightgrey" stroke="grey" points="2734.38,-123.75 2692.38,-123.75 2692.38,-127.75 2680.38,-127.75 2680.38,-87.75 2734.38,-87.75 2734.38,-123.75"/>
<polyline fill="none" stroke="grey" points="2680.38,-123.75 2692.38,-123.75"/>
<text text-anchor="middle" x="2707.38" y="-100.33" font-family="Times New Roman,serif" font-size="14.00">sp</text>
</g>
<!-- rover.fxns.move_rover.t -->
<g id="node23" class="node">
<title>rover.fxns.move_rover.t</title>
<polygon fill="lightgrey" stroke="grey" points="2196.38,-123.75 2154.38,-123.75 2154.38,-127.75 2142.38,-127.75 2142.38,-87.75 2196.38,-87.75 2196.38,-123.75"/>
<polyline fill="none" stroke="grey" points="2142.38,-123.75 2154.38,-123.75"/>
<text text-anchor="middle" x="2169.38" y="-100.33" font-family="Times New Roman,serif" font-size="14.00">t</text>
</g>
<!-- rover.fxns.view_ground.sp -->
<g id="node24" class="node">
<title>rover.fxns.view_ground.sp</title>
<polygon fill="lightgrey" stroke="grey" points="1551.38,-123.75 1509.38,-123.75 1509.38,-127.75 1497.38,-127.75 1497.38,-87.75 1551.38,-87.75 1551.38,-123.75"/>
<polyline fill="none" stroke="grey" points="1497.38,-123.75 1509.38,-123.75"/>
<text text-anchor="middle" x="1524.38" y="-100.33" font-family="Times New Roman,serif" font-size="14.00">sp</text>
</g>
<!-- rover.fxns.view_ground.t -->
<g id="node25" class="node">
<title>rover.fxns.view_ground.t</title>
<polygon fill="lightgrey" stroke="grey" points="1658.38,-123.75 1616.38,-123.75 1616.38,-127.75 1604.38,-127.75 1604.38,-87.75 1658.38,-87.75 1658.38,-123.75"/>
<polyline fill="none" stroke="grey" points="1604.38,-123.75 1616.38,-123.75"/>
<text text-anchor="middle" x="1631.38" y="-100.33" font-family="Times New Roman,serif" font-size="14.00">t</text>
</g>
<!-- rover.fxns.communicate.sp -->
<g id="node26" class="node">
<title>rover.fxns.communicate.sp</title>
<polygon fill="lightgrey" stroke="grey" points="2905.38,-123.75 2863.38,-123.75 2863.38,-127.75 2851.38,-127.75 2851.38,-87.75 2905.38,-87.75 2905.38,-123.75"/>
<polyline fill="none" stroke="grey" points="2851.38,-123.75 2863.38,-123.75"/>
<text text-anchor="middle" x="2878.38" y="-100.33" font-family="Times New Roman,serif" font-size="14.00">sp</text>
</g>
<!-- rover.fxns.communicate.t -->
<g id="node27" class="node">
<title>rover.fxns.communicate.t</title>
<polygon fill="lightgrey" stroke="grey" points="3012.38,-123.75 2970.38,-123.75 2970.38,-127.75 2958.38,-127.75 2958.38,-87.75 3012.38,-87.75 3012.38,-123.75"/>
<polyline fill="none" stroke="grey" points="2958.38,-123.75 2970.38,-123.75"/>
<text text-anchor="middle" x="2985.38" y="-100.33" font-family="Times New Roman,serif" font-size="14.00">t</text>
</g>
<!-- rover.fxns.control_rover&#45;&gt;rover.flows.control -->
<g id="edge40" class="edge">
<title>rover.fxns.control_rover-&gt;rover.flows.control</title>
<path fill="none" stroke="black" d="M376,-181.78C401.35,-176.16 430.88,-168.19 456.38,-157.5 479.58,-147.77 503.89,-132.18 520.16,-120.84"/>
<polygon fill="none" stroke="black" points="376.17,-181.75 371.13,-186.91 364.43,-184.24 369.47,-179.08 376.17,-181.75"/>
<text text-anchor="middle" x="508" y="-144.2" font-family="Times New Roman,serif" font-size="14.00">&lt;flow&gt;</text>
</g>
<!-- rover.fxns.control_rover&#45;&gt;rover.fxns.control_rover.m -->
<g id="edge20" class="edge">
<title>rover.fxns.control_rover-&gt;rover.fxns.control_rover.m</title>
<path fill="none" stroke="black" d="M256.61,-189.55C230.87,-185.36 202.2,-176.36 182.38,-157.5 173.27,-148.84 169.33,-135.06 167.63,-124.04"/>
<polygon fill="black" stroke="black" points="256.56,-189.55 263.05,-186.39 268.45,-191.17 261.97,-194.32 256.56,-189.55"/>
<text text-anchor="middle" x="224.38" y="-144.2" font-family="Times New Roman,serif" font-size="14.00">&lt;containment&gt;</text>
</g>
<!-- rover.fxns.control_rover&#45;&gt;rover.fxns.control_rover.sp -->
<g id="edge21" class="edge">
<title>rover.fxns.control_rover-&gt;rover.fxns.control_rover.sp</title>
<path fill="none" stroke="black" d="M279,-165.03C277.22,-162.65 275.64,-160.14 274.38,-157.5 269.41,-147.17 269.23,-134.25 270.26,-124.03"/>
<polygon fill="black" stroke="black" points="279.11,-165.14 286.13,-166.79 287.3,-173.91 280.28,-172.26 279.11,-165.14"/>
<text text-anchor="middle" x="316.38" y="-144.2" font-family="Times New Roman,serif" font-size="14.00">&lt;containment&gt;</text>
</g>
<!-- rover.fxns.control_rover&#45;&gt;rover.fxns.control_rover.t -->
<g id="edge22" class="edge">
<title>rover.fxns.control_rover-&gt;rover.fxns.control_rover.t</title>
<path fill="none" stroke="black" d="M351.08,-165.96C353.71,-163.25 356.19,-160.42 358.38,-157.5 365.97,-147.35 371.58,-134.18 375.24,-123.79"/>
<polygon fill="black" stroke="black" points="351.21,-165.84 349.53,-172.85 342.41,-174 344.09,-166.98 351.21,-165.84"/>
<text text-anchor="middle" x="410.38" y="-144.2" font-family="Times New Roman,serif" font-size="14.00">&lt;containment&gt;</text>
</g>
<!-- rover.fxns.control_rover.dynamic_behavior -->
<g id="node36" class="node">
<title>rover.fxns.control_rover.dynamic_behavior</title>
<polygon fill="lightgrey" stroke="grey" points="118.75,-123.75 0,-123.75 0,-119.75 -4,-119.75 -4,-115.75 0,-115.75 0,-95.75 -4,-95.75 -4,-91.75 0,-91.75 0,-87.75 118.75,-87.75 118.75,-123.75"/>
<polyline fill="none" stroke="grey" points="0,-119.75 4,-119.75 4,-115.75 0,-115.75"/>
<polyline fill="none" stroke="grey" points="0,-95.75 4,-95.75 4,-91.75 0,-91.75"/>
<text text-anchor="middle" x="59.38" y="-100.33" font-family="Times New Roman,serif" font-size="14.00">dynamic_behavior</text>
</g>
<!-- rover.fxns.control_rover&#45;&gt;rover.fxns.control_rover.dynamic_behavior -->
<g id="edge23" class="edge">
<title>rover.fxns.control_rover-&gt;rover.fxns.control_rover.dynamic_behavior</title>
<path fill="none" stroke="black" d="M256.28,-189.69C196.84,-185.82 111.01,-176.98 84.38,-157.5 73.43,-149.5 67.02,-135.38 63.44,-124.06"/>
<polygon fill="black" stroke="black" points="256.4,-189.69 262.63,-186.07 268.37,-190.43 262.14,-194.05 256.4,-189.69"/>
<text text-anchor="middle" x="126.38" y="-144.2" font-family="Times New Roman,serif" font-size="14.00">&lt;containment&gt;</text>
</g>
<!-- rover.fxns.store_energy&#45;&gt;rover.flows.ee -->
<g id="edge42" class="edge">
<title>rover.fxns.store_energy-&gt;rover.flows.ee</title>
<path fill="none" stroke="black" d="M1018.74,-188.13C1071.4,-184.26 1151.6,-178.75 1221.38,-175.5 1293.32,-172.15 1802.05,-183.09 1869.38,-157.5 1879.55,-153.63 1878.51,-146.85 1888.12,-141.75 1919.57,-125.07 1959.85,-115.57 1985.64,-110.79"/>
<polygon fill="none" stroke="black" points="1018.84,-188.12 1013.15,-192.55 1006.87,-189.01 1012.56,-184.58 1018.84,-188.12"/>
<text text-anchor="middle" x="1908" y="-144.2" font-family="Times New Roman,serif" font-size="14.00">&lt;flow&gt;</text>
</g>
<!-- rover.fxns.store_energy&#45;&gt;rover.flows.control -->
<g id="edge41" class="edge">
<title>rover.fxns.store_energy-&gt;rover.flows.control</title>
<path fill="none" stroke="black" d="M903.48,-189.99C819.31,-185.76 667.56,-175.85 616.12,-157.5 593.56,-149.45 571.09,-133.41 556.35,-121.51"/>
<polygon fill="none" stroke="black" points="903.5,-189.99 909.69,-186.28 915.49,-190.57 909.3,-194.27 903.5,-189.99"/>
<text text-anchor="middle" x="637" y="-144.2" font-family="Times New Roman,serif" font-size="14.00">&lt;flow&gt;</text>
</g>
<!-- rover.fxns.store_energy&#45;&gt;rover.fxns.store_energy.m -->
<g id="edge24" class="edge">
<title>rover.fxns.store_energy-&gt;rover.fxns.store_energy.m</title>
<path fill="none" stroke="black" d="M903.94,-186.93C857.45,-181.46 796.51,-171.85 776.38,-157.5 764.97,-149.37 757.44,-135.26 752.91,-123.98"/>
<polygon fill="black" stroke="black" points="903.8,-186.91 910.21,-183.61 915.72,-188.26 909.31,-191.56 903.8,-186.91"/>
<text text-anchor="middle" x="818.38" y="-144.2" font-family="Times New Roman,serif" font-size="14.00">&lt;containment&gt;</text>
</g>
<!-- rover.fxns.store_energy&#45;&gt;rover.fxns.store_energy.s -->
<g id="edge25" class="edge">
<title>rover.fxns.store_energy-&gt;rover.fxns.store_energy.s</title>
<path fill="none" stroke="black" d="M904.53,-177.95C893.12,-172.95 882,-166.3 873.38,-157.5 864.55,-148.5 859.76,-135.01 857.2,-124.21"/>
<polygon fill="black" stroke="black" points="904.42,-177.91 911.46,-176.36 915.6,-182.26 908.56,-183.81 904.42,-177.91"/>
<text text-anchor="middle" x="915.38" y="-144.2" font-family="Times New Roman,serif" font-size="14.00">&lt;containment&gt;</text>
</g>
<!-- rover.fxns.store_energy&#45;&gt;rover.fxns.store_energy.sp -->
<g id="edge26" class="edge">
<title>rover.fxns.store_energy-&gt;rover.fxns.store_energy.sp</title>
<path fill="none" stroke="black" d="M961.38,-161.85C961.38,-149.21 961.38,-135.02 961.38,-124.2"/>
<polygon fill="black" stroke="black" points="961.38,-161.83 965.38,-167.83 961.38,-173.83 957.38,-167.83 961.38,-161.83"/>
<text text-anchor="middle" x="1003.38" y="-144.2" font-family="Times New Roman,serif" font-size="14.00">&lt;containment&gt;</text>
</g>
<!-- rover.fxns.store_energy&#45;&gt;rover.fxns.store_energy.t -->
<g id="edge27" class="edge">
<title>rover.fxns.store_energy-&gt;rover.fxns.store_energy.t</title>
<path fill="none" stroke="black" d="M1017.95,-176.41C1028.3,-171.57 1038.35,-165.38 1046.38,-157.5 1055.56,-148.49 1061.15,-135 1064.4,-124.2"/>
<polygon fill="black" stroke="black" points="1018.13,-176.34 1014.14,-182.34 1007.06,-180.97 1011.05,-174.96 1018.13,-176.34"/>
<text text-anchor="middle" x="1099.38" y="-144.2" font-family="Times New Roman,serif" font-size="14.00">&lt;containment&gt;</text>
</g>
<!-- rover.fxns.store_energy.dynamic_behavior -->
<g id="node37" class="node">
<title>rover.fxns.store_energy.dynamic_behavior</title>
<polygon fill="lightgrey" stroke="grey" points="1234.75,-123.75 1116,-123.75 1116,-119.75 1112,-119.75 1112,-115.75 1116,-115.75 1116,-95.75 1112,-95.75 1112,-91.75 1116,-91.75 1116,-87.75 1234.75,-87.75 1234.75,-123.75"/>
<polyline fill="none" stroke="grey" points="1116,-119.75 1120,-119.75 1120,-115.75 1116,-115.75"/>
<polyline fill="none" stroke="grey" points="1116,-95.75 1120,-95.75 1120,-91.75 1116,-91.75"/>
<text text-anchor="middle" x="1175.38" y="-100.33" font-family="Times New Roman,serif" font-size="14.00">dynamic_behavior</text>
</g>
<!-- rover.fxns.store_energy&#45;&gt;rover.fxns.store_energy.dynamic_behavior -->
<g id="edge28" class="edge">
<title>rover.fxns.store_energy-&gt;rover.fxns.store_energy.dynamic_behavior</title>
<path fill="none" stroke="black" d="M1019.17,-186.73C1065.28,-181.19 1125.35,-171.57 1145.38,-157.5 1156.93,-149.38 1164.75,-135.27 1169.5,-123.98"/>
<polygon fill="black" stroke="black" points="1019.09,-186.74 1013.59,-191.4 1007.17,-188.12 1012.67,-183.46 1019.09,-186.74"/>
<text text-anchor="middle" x="1202.38" y="-144.2" font-family="Times New Roman,serif" font-size="14.00">&lt;containment&gt;</text>
</g>
<!-- rover.fxns.store_energy.static_behavior -->
<g id="node38" class="node">
<title>rover.fxns.store_energy.static_behavior</title>
<polygon fill="lightgrey" stroke="grey" points="694.75,-123.75 594,-123.75 594,-119.75 590,-119.75 590,-115.75 594,-115.75 594,-95.75 590,-95.75 590,-91.75 594,-91.75 594,-87.75 694.75,-87.75 694.75,-123.75"/>
<polyline fill="none" stroke="grey" points="594,-119.75 598,-119.75 598,-115.75 594,-115.75"/>
<polyline fill="none" stroke="grey" points="594,-95.75 598,-95.75 598,-91.75 594,-91.75"/>
<text text-anchor="middle" x="644.38" y="-100.33" font-family="Times New Roman,serif" font-size="14.00">static_behavior</text>
</g>
<!-- rover.fxns.store_energy&#45;&gt;rover.fxns.store_energy.static_behavior -->
<g id="edge29" class="edge">
<title>rover.fxns.store_energy-&gt;rover.fxns.store_energy.static_behavior</title>
<path fill="none" stroke="black" d="M903.6,-191.29C831.16,-188.78 712,-181.08 675.38,-157.5 663.4,-149.79 655.32,-135.64 650.43,-124.24"/>
<polygon fill="black" stroke="black" points="903.66,-191.29 909.79,-187.48 915.66,-191.67 909.53,-195.48 903.66,-191.29"/>
<text text-anchor="middle" x="717.38" y="-144.2" font-family="Times New Roman,serif" font-size="14.00">&lt;containment&gt;</text>
</g>
<!-- rover.fxns.move_rover&#45;&gt;rover.flows.ground -->
<g id="edge46" class="edge">
<title>rover.fxns.move_rover-&gt;rover.flows.ground</title>
<path fill="none" stroke="black" d="M2117.14,-179.19C2093.55,-173.14 2065.82,-165.54 2041.12,-157.5 2022.66,-151.49 2019.1,-146.9 2000.38,-141.75 1941.62,-125.58 1871.26,-115.56 1829.84,-110.58"/>
<polygon fill="none" stroke="black" points="2117.26,-179.22 2124.06,-176.81 2128.9,-182.16 2122.1,-184.57 2117.26,-179.22"/>
<text text-anchor="middle" x="2061" y="-144.2" font-family="Times New Roman,serif" font-size="14.00">&lt;flow&gt;</text>
</g>
<!-- rover.fxns.move_rover&#45;&gt;rover.flows.force -->
<g id="edge45" class="edge">
<title>rover.fxns.move_rover-&gt;rover.flows.force</title>
<path fill="none" stroke="black" d="M2117.44,-178.7C2111.37,-177.48 2105.26,-176.37 2099.38,-175.5 1979.87,-157.74 1946.56,-181.37 1828.12,-157.5 1807.04,-153.25 1803.47,-145.95 1782.38,-141.75 1653.98,-116.21 1618.31,-139.67 1488.38,-123.75 1466.61,-121.08 1442.22,-116.5 1424.02,-112.77"/>
<polygon fill="none" stroke="black" points="2117.14,-178.64 2123.84,-175.99 2128.87,-181.16 2122.16,-183.81 2117.14,-178.64"/>
<text text-anchor="middle" x="1848" y="-144.2" font-family="Times New Roman,serif" font-size="14.00">&lt;flow&gt;</text>
</g>
<!-- rover.fxns.move_rover&#45;&gt;rover.flows.ee -->
<g id="edge44" class="edge">
<title>rover.fxns.move_rover-&gt;rover.flows.ee</title>
<path fill="none" stroke="black" d="M2132.67,-167.99C2118.26,-159.38 2101.75,-149.85 2086.38,-141.75 2068.7,-132.44 2048.11,-122.92 2032.98,-116.17"/>
<polygon fill="none" stroke="black" points="2132.66,-167.98 2139.87,-167.66 2142.94,-174.18 2135.73,-174.51 2132.66,-167.98"/>
<text text-anchor="middle" x="2133" y="-144.2" font-family="Times New Roman,serif" font-size="14.00">&lt;flow&gt;</text>
</g>
<!-- rover.fxns.move_rover&#45;&gt;rover.flows.control -->
<g id="edge43" class="edge">
<title>rover.fxns.move_rover-&gt;rover.flows.control</title>
<path fill="none" stroke="black" d="M2117.47,-178.48C2111.4,-177.3 2105.28,-176.26 2099.38,-175.5 1960.86,-157.57 1606.84,-190.49 1471.12,-157.5 1455.43,-153.69 1454.08,-145.51 1438.38,-141.75 1253.97,-97.66 771.65,-159.1 585.38,-123.75 578.85,-122.51 572.03,-120.45 565.7,-118.18"/>
<polygon fill="none" stroke="black" points="2117.17,-178.41 2123.86,-175.74 2128.91,-180.89 2122.21,-183.57 2117.17,-178.41"/>
<text text-anchor="middle" x="1492" y="-144.2" font-family="Times New Roman,serif" font-size="14.00">&lt;flow&gt;</text>
</g>
<!-- rover.fxns.move_rover&#45;&gt;rover.fxns.move_rover.m -->
<g id="edge30" class="edge">
<title>rover.fxns.move_rover-&gt;rover.fxns.move_rover.m</title>
<path fill="none" stroke="black" d="M2227.96,-191.03C2300.39,-188.23 2422.29,-180.19 2460.38,-157.5 2473.37,-149.76 2482.92,-135.31 2488.9,-123.8"/>
<polygon fill="black" stroke="black" points="2227.94,-191.03 2222.09,-195.25 2215.95,-191.46 2221.8,-187.25 2227.94,-191.03"/>
<text text-anchor="middle" x="2518.38" y="-144.2" font-family="Times New Roman,serif" font-size="14.00">&lt;containment&gt;</text>
</g>
<!-- rover.fxns.move_rover&#45;&gt;rover.fxns.move_rover.s -->
<g id="edge31" class="edge">
<title>rover.fxns.move_rover-&gt;rover.fxns.move_rover.s</title>
<path fill="none" stroke="black" d="M2227.86,-193.17C2322.05,-193.4 2508.48,-189.61 2564.38,-157.5 2577.49,-149.97 2587.03,-135.5 2592.98,-123.93"/>
<polygon fill="black" stroke="black" points="2227.83,-193.17 2221.81,-197.15 2215.83,-193.12 2221.85,-189.15 2227.83,-193.17"/>
<text text-anchor="middle" x="2623.38" y="-144.2" font-family="Times New Roman,serif" font-size="14.00">&lt;containment&gt;</text>
</g>
<!-- rover.fxns.move_rover&#45;&gt;rover.fxns.move_rover.sp -->
<g id="edge32" class="edge">
<title>rover.fxns.move_rover-&gt;rover.fxns.move_rover.sp</title>
<path fill="none" stroke="black" d="M2227.86,-191.18C2349.41,-187.92 2631.4,-178.2 2669.38,-157.5 2682.9,-150.12 2693,-135.64 2699.37,-124.02"/>
<polygon fill="black" stroke="black" points="2227.79,-191.18 2221.89,-195.34 2215.79,-191.5 2221.68,-187.34 2227.79,-191.18"/>
<text text-anchor="middle" x="2729.38" y="-144.2" font-family="Times New Roman,serif" font-size="14.00">&lt;containment&gt;</text>
</g>
<!-- rover.fxns.move_rover&#45;&gt;rover.fxns.move_rover.t -->
<g id="edge33" class="edge">
<title>rover.fxns.move_rover-&gt;rover.fxns.move_rover.t</title>
<path fill="none" stroke="black" d="M2171.3,-161.85C2170.86,-149.21 2170.36,-135.02 2169.99,-124.2"/>
<polygon fill="black" stroke="black" points="2171.3,-161.84 2175.51,-167.7 2171.72,-173.83 2167.51,-167.98 2171.3,-161.84"/>
<text text-anchor="middle" x="2212.38" y="-144.2" font-family="Times New Roman,serif" font-size="14.00">&lt;containment&gt;</text>
</g>
<!-- rover.fxns.move_rover.dynamic_behavior -->
<g id="node39" class="node">
<title>rover.fxns.move_rover.dynamic_behavior</title>
<polygon fill="lightgrey" stroke="grey" points="2332.75,-123.75 2214,-123.75 2214,-119.75 2210,-119.75 2210,-115.75 2214,-115.75 2214,-95.75 2210,-95.75 2210,-91.75 2214,-91.75 2214,-87.75 2332.75,-87.75 2332.75,-123.75"/>
<polyline fill="none" stroke="grey" points="2214,-119.75 2218,-119.75 2218,-115.75 2214,-115.75"/>
<polyline fill="none" stroke="grey" points="2214,-95.75 2218,-95.75 2218,-91.75 2214,-91.75"/>
<text text-anchor="middle" x="2273.38" y="-100.33" font-family="Times New Roman,serif" font-size="14.00">dynamic_behavior</text>
</g>
<!-- rover.fxns.move_rover&#45;&gt;rover.fxns.move_rover.dynamic_behavior -->
<g id="edge34" class="edge">
<title>rover.fxns.move_rover-&gt;rover.fxns.move_rover.dynamic_behavior</title>
<path fill="none" stroke="black" d="M2226.66,-178.41C2238.01,-173.36 2249.04,-166.57 2257.38,-157.5 2265.75,-148.38 2269.74,-134.9 2271.64,-124.13"/>
<polygon fill="black" stroke="black" points="2226.82,-178.34 2222.7,-184.26 2215.65,-182.74 2219.77,-176.82 2226.82,-178.34"/>
<text text-anchor="middle" x="2307.38" y="-144.2" font-family="Times New Roman,serif" font-size="14.00">&lt;containment&gt;</text>
</g>
<!-- rover.fxns.move_rover.static_behavior -->
<g id="node40" class="node">
<title>rover.fxns.move_rover.static_behavior</title>
<polygon fill="lightgrey" stroke="grey" points="2451.75,-123.75 2351,-123.75 2351,-119.75 2347,-119.75 2347,-115.75 2351,-115.75 2351,-95.75 2347,-95.75 2347,-91.75 2351,-91.75 2351,-87.75 2451.75,-87.75 2451.75,-123.75"/>
<polyline fill="none" stroke="grey" points="2351,-119.75 2355,-119.75 2355,-115.75 2351,-115.75"/>
<polyline fill="none" stroke="grey" points="2351,-95.75 2355,-95.75 2355,-91.75 2351,-91.75"/>
<text text-anchor="middle" x="2401.38" y="-100.33" font-family="Times New Roman,serif" font-size="14.00">static_behavior</text>
</g>
<!-- rover.fxns.move_rover&#45;&gt;rover.fxns.move_rover.static_behavior -->
<g id="edge35" class="edge">
<title>rover.fxns.move_rover-&gt;rover.fxns.move_rover.static_behavior</title>
<path fill="none" stroke="black" d="M2227.81,-190.58C2265.26,-187.24 2314.73,-178.72 2353.38,-157.5 2368.04,-149.45 2380.85,-135.33 2389.53,-124.02"/>
<polygon fill="black" stroke="black" points="2227.97,-190.57 2222.29,-195.02 2216,-191.49 2221.68,-187.04 2227.97,-190.57"/>
<text text-anchor="middle" x="2414.38" y="-144.2" font-family="Times New Roman,serif" font-size="14.00">&lt;containment&gt;</text>
</g>
<!-- rover.fxns.view_ground&#45;&gt;rover.flows.ground -->
<g id="edge49" class="edge">
<title>rover.fxns.view_ground-&gt;rover.flows.ground</title>
<path fill="none" stroke="black" d="M1567.38,-174.77C1628.46,-163.47 1649.7,-176.99 1707.38,-157.5 1720.79,-152.97 1752.07,-133.85 1773.23,-120.42"/>
<polygon fill="none" stroke="black" points="1567.25,-174.79 1562.18,-179.91 1555.5,-177.2 1560.58,-172.08 1567.25,-174.79"/>
<text text-anchor="middle" x="1758" y="-144.2" font-family="Times New Roman,serif" font-size="14.00">&lt;flow&gt;</text>
</g>
<!-- rover.fxns.view_ground&#45;&gt;rover.flows.force -->
<g id="edge48" class="edge">
<title>rover.fxns.view_ground-&gt;rover.flows.force</title>
<path fill="none" stroke="black" d="M1451.66,-175.28C1424.63,-167.08 1398.08,-158.77 1397.12,-157.5 1389.95,-147.9 1390.19,-134.18 1391.99,-123.42"/>
<polygon fill="none" stroke="black" points="1451.68,-175.28 1458.58,-173.19 1463.17,-178.75 1456.27,-180.85 1451.68,-175.28"/>
<text text-anchor="middle" x="1418" y="-144.2" font-family="Times New Roman,serif" font-size="14.00">&lt;flow&gt;</text>
</g>
<!-- rover.fxns.view_ground&#45;&gt;rover.flows.ee -->
<g id="edge47" class="edge">
<title>rover.fxns.view_ground-&gt;rover.flows.ee</title>
<path fill="none" stroke="black" d="M1567.28,-175.17C1662.33,-162.76 1858.72,-182.82 1933.38,-157.5 1945.02,-153.55 1945.87,-148.54 1956.12,-141.75 1968.15,-133.79 1981.84,-125.11 1992.58,-118.39"/>
<polygon fill="none" stroke="black" points="1567.32,-175.16 1562,-180.04 1555.46,-177.01 1560.77,-172.13 1567.32,-175.16"/>
<text text-anchor="middle" x="1976" y="-144.2" font-family="Times New Roman,serif" font-size="14.00">&lt;flow&gt;</text>
</g>
<!-- rover.fxns.view_ground&#45;&gt;rover.flows.video -->
<g id="edge50" class="edge">
<title>rover.fxns.view_ground-&gt;rover.flows.video</title>
<path fill="none" stroke="black" d="M1451.77,-175.59C1451.64,-175.56 1451.51,-175.53 1451.38,-175.5 1405.57,-164.87 1389.8,-177.25 1347.12,-157.5 1328.67,-148.96 1311.25,-133.33 1299.83,-121.66"/>
<polygon fill="none" stroke="black" points="1451.72,-175.58 1458.51,-173.16 1463.36,-178.51 1456.56,-180.92 1451.72,-175.58"/>
<text text-anchor="middle" x="1368" y="-144.2" font-family="Times New Roman,serif" font-size="14.00">&lt;flow&gt;</text>
</g>
<!-- rover.fxns.view_ground&#45;&gt;rover.fxns.view_ground.sp -->
<g id="edge36" class="edge">
<title>rover.fxns.view_ground-&gt;rover.fxns.view_ground.sp</title>
<path fill="none" stroke="black" d="M1514.67,-162.26C1516.89,-149.51 1519.41,-135.13 1521.32,-124.2"/>
<polygon fill="black" stroke="black" points="1514.71,-162.02 1517.61,-168.62 1512.64,-173.84 1509.73,-167.25 1514.71,-162.02"/>
<text text-anchor="middle" x="1560.38" y="-144.2" font-family="Times New Roman,serif" font-size="14.00">&lt;containment&gt;</text>
</g>
<!-- rover.fxns.view_ground&#45;&gt;rover.fxns.view_ground.t -->
<g id="edge37" class="edge">
<title>rover.fxns.view_ground-&gt;rover.fxns.view_ground.t</title>
<path fill="none" stroke="black" d="M1566.88,-173.7C1585.76,-167.15 1602.86,-160.65 1606.38,-157.5 1616.33,-148.6 1622.76,-134.83 1626.61,-123.88"/>
<polygon fill="black" stroke="black" points="1566.88,-173.7 1562.5,-179.42 1555.53,-177.57 1559.91,-171.85 1566.88,-173.7"/>
<text text-anchor="middle" x="1661.38" y="-144.2" font-family="Times New Roman,serif" font-size="14.00">&lt;containment&gt;</text>
</g>
<!-- rover.fxns.communicate&#45;&gt;rover.flows.ee -->
<g id="edge52" class="edge">
<title>rover.fxns.communicate-&gt;rover.flows.ee</title>
<path fill="none" stroke="black" d="M2839.1,-168.18C2820.5,-157.98 2797.54,-147.24 2775.38,-141.75 2636.84,-107.42 2275.6,-135.62 2133.38,-123.75 2099.92,-120.96 2061.61,-115.2 2036.99,-111.16"/>
<polygon fill="none" stroke="black" points="2839.13,-168.2 2846.32,-167.68 2849.57,-174.12 2842.37,-174.64 2839.13,-168.2"/>
<text text-anchor="middle" x="2837" y="-144.2" font-family="Times New Roman,serif" font-size="14.00">&lt;flow&gt;</text>
</g>
<!-- rover.fxns.communicate&#45;&gt;rover.flows.comms -->
<g id="edge51" class="edge">
<title>rover.fxns.communicate-&gt;rover.flows.comms</title>
<path fill="none" stroke="black" d="M2937.07,-189.04C2974.22,-185.01 3022.42,-176.3 3061.38,-157.5 3079.14,-148.93 3095.83,-133.62 3106.9,-122.06"/>
<polygon fill="none" stroke="black" points="2937.27,-189.02 2931.68,-193.59 2925.32,-190.19 2930.9,-185.63 2937.27,-189.02"/>
<text text-anchor="middle" x="3105" y="-144.2" font-family="Times New Roman,serif" font-size="14.00">&lt;flow&gt;</text>
</g>
<!-- rover.fxns.communicate&#45;&gt;rover.fxns.communicate.sp -->
<g id="edge38" class="edge">
<title>rover.fxns.communicate-&gt;rover.fxns.communicate.sp</title>
<path fill="none" stroke="black" d="M2878.38,-161.85C2878.38,-149.21 2878.38,-135.02 2878.38,-124.2"/>
<polygon fill="black" stroke="black" points="2878.38,-161.83 2882.38,-167.83 2878.38,-173.83 2874.38,-167.83 2878.38,-161.83"/>
<text text-anchor="middle" x="2920.38" y="-144.2" font-family="Times New Roman,serif" font-size="14.00">&lt;containment&gt;</text>
</g>
<!-- rover.fxns.communicate&#45;&gt;rover.fxns.communicate.t -->
<g id="edge39" class="edge">
<title>rover.fxns.communicate-&gt;rover.fxns.communicate.t</title>
<path fill="none" stroke="black" d="M2935.92,-175.96C2945.92,-171.19 2955.6,-165.13 2963.38,-157.5 2972.56,-148.49 2978.15,-135 2981.4,-124.2"/>
<polygon fill="black" stroke="black" points="2935.98,-175.93 2932.03,-181.96 2924.94,-180.63 2928.89,-174.6 2935.98,-175.93"/>
<text text-anchor="middle" x="3015.38" y="-144.2" font-family="Times New Roman,serif" font-size="14.00">&lt;containment&gt;</text>
</g>
</g>
</svg>