<svg xmlns="http://www.w3.org/2000/svg" xmlns:xlink="http://www.w3.org/1999/xlink" width="2057pt" height="159pt" viewBox="0.00 0.00 2056.52 159.00">
<g id="graph0" class="graph" transform="scale(1 1) rotate(0) translate(4 155)">
<polygon fill="white" stroke="none" points="-4,4 -4,-155 2052.52,-155 2052.52,4 -4,4"/>
<!-- rover -->
<g id="node1" class="node">
<title>rover</title>
<polygon fill="lightgrey" stroke="grey" points="992.52,-151 877.42,-115.38 1107.63,-115.38 992.52,-151"/>
<text text-anchor="middle" x="992.52" y="-121.83" font-family="Times New Roman,serif" font-size="14.00">rover: Rover</text>
</g>
<!-- rover.flows.ground -->
<g id="node2" class="node">
<title>rover.flows.ground</title>
<ellipse fill="lightgrey" stroke="grey" stroke-width="0" cx="70.52" cy="-18" rx="70.52" ry="18"/>
<text text-anchor="middle" x="70.52" y="-12.57" font-family="Times New Roman,serif" font-size="14.00">ground: Ground</text>
</g>
<!-- rover&#45;&gt;rover.flows.ground -->
<g id="edge1" class="edge">
<title>rover-&gt;rover.flows.ground</title>
<path fill="none" stroke="black" d="M895.03,-125.15C687.28,-122.3 214.32,-112.85 146.52,-85.5 120.51,-75 97.33,-51.65 83.6,-35.61"/>
<polygon fill="black" stroke="black" points="895.12,-125.15 901.18,-121.24 907.12,-125.32 901.07,-129.24 895.12,-125.15"/>
<text text-anchor="middle" x="188.52" y="-72.2" font-family="Times New Roman,serif" font-size="14.00">&lt;containment&gt;</text>
<text text-anchor="middle" x="188.52" y="-56.45" font-family="Times New Roman,serif" font-size="14.00">flows.ground</text>
</g>
<!-- rover.flows.force -->
<g id="node3" class="node">
<title>rover.flows.force</title>
<ellipse fill="lightgrey" stroke="grey" stroke-width="0" cx="215.52" cy="-18" rx="56.55" ry="18"/>
<text text-anchor="middle" x="215.52" y="-12.57" font-family="Times New Roman,serif" font-size="14.00">force: Force</text>
</g>
<!-- rover&#45;&gt;rover.flows.force -->
<g id="edge2" class="edge">
<title>rover-&gt;rover.flows.force</title>
<path fill="none" stroke="black" d="M895.73,-125.34C710.56,-122.93 319.68,-114.46 265.52,-85.5 245.27,-74.67 230.89,-51.64 222.9,-35.74"/>
<polygon fill="black" stroke="black" points="895.8,-125.34 901.85,-121.41 907.8,-125.49 901.75,-129.41 895.8,-125.34"/>
<text text-anchor="middle" x="307.52" y="-72.2" font-family="Times New Roman,serif" font-size="14.00">&lt;containment&gt;</text>
<text text-anchor="middle" x="307.52" y="-56.45" font-family="Times New Roman,serif" font-size="14.00">flows.force</text>
</g>
<!-- rover.flows.ee -->
<g id="node4" class="node">
<title>rover.flows.ee</title>
<ellipse fill="lightgrey" stroke="grey" stroke-width="0" cx="324.52" cy="-18" rx="34.1" ry="18"/>
<text text-anchor="middle" x="324.52" y="-12.57" font-family="Times New Roman,serif" font-size="14.00">ee: EE</text>
</g>
<!-- rover&#45;&gt;rover.flows.ee -->
<g id="edge3" class="edge">
<title>rover-&gt;rover.flows.ee</title>
<path fill="none" stroke="black" d="M889.12,-122.96C730.17,-117.35 439.46,-104.62 395.52,-85.5 370.44,-74.58 348.67,-50.85 336.07,-34.9"/>
<polygon fill="black" stroke="black" points="888.84,-122.95 894.98,-119.17 900.84,-123.37 894.7,-127.16 888.84,-122.95"/>
<text text-anchor="middle" x="437.52" y="-72.2" font-family="Times New Roman,serif" font-size="14.00">&lt;containment&gt;</text>
<text text-anchor="middle" x="437.52" y="-56.45" font-family="Times New Roman,serif" font-size="14.00">flows.ee</text>
</g>
<!-- rover.flows.video -->
<g id="node5" class="node">
<title>rover.flows.video</title>
<ellipse fill="lightgrey" stroke="grey" stroke-width="0" cx="434.52" cy="-18" rx="58.05" ry="18"/>
<text text-anchor="middle" x="434.52" y="-12.57" font-family="Times New Roman,serif" font-size="14.00">video: Video</text>
</g>
<!-- rover&#45;&gt;rover.flows.video -->
<g id="edge4" class="edge">
<title>rover-&gt;rover.flows.video</title>
<path fill="none" stroke="black" d="M886.1,-121.93C774.63,-116.45 607.44,-105.25 546.52,-85.5 511.68,-74.2 476.08,-50.57 454.64,-34.74"/>
<polygon fill="black" stroke="black" points="886.18,-121.94 892.37,-118.23 898.17,-122.52 891.99,-126.22 886.18,-121.94"/>
<text text-anchor="middle" x="588.52" y="-72.2" font-family="Times New Roman,serif" font-size="14.00">&lt;containment&gt;</text>
<text text-anchor="middle" x="588.52" y="-56.45" font-family="Times New Roman,serif" font-size="14.00">flows.video</text>
</g>
<!-- rover.flows.control -->
<g id="node6" class="node">
<title>rover.flows.control</title>
<ellipse fill="lightgrey" stroke="grey" stroke-width="0" cx="580.52" cy="-18" rx="70.03" ry="18"/>
<text text-anchor="middle" x="580.52" y="-12.57" font-family="Times New Roman,serif" font-size="14.00">control: Control</text>
</g>
<!-- rover&#45;&gt;rover.flows.control -->
<g id="edge5" class="edge">
<title>rover-&gt;rover.flows.control</title>
<path fill="none" stroke="black" d="M886.31,-121.49C828.88,-116.49 757.46,-106.28 696.52,-85.5 661.37,-73.51 624.85,-50.53 602.4,-34.98"/>
<polygon fill="black" stroke="black" points="886.22,-121.49 892.53,-117.99 898.18,-122.47 891.88,-125.96 886.22,-121.49"/>
<text text-anchor="middle" x="738.52" y="-72.2" font-family="Times New Roman,serif" font-size="14.00">&lt;containment&gt;</text>
<text text-anchor="middle" x="738.52" y="-56.45" font-family="Times New Roman,serif" font-size="14.00">flows.control</text>
</g>
<!-- rover.flows.comms -->
<g id="node7" class="node">
<title>rover.flows.comms</title>
<ellipse fill="lightgrey" stroke="grey" stroke-width="0" cx="730.52" cy="-18" rx="61.54" ry="18"/>
<text text-anchor="middle" x="730.52" y="-12.57" font-family="Times New Roman,serif" font-size="14.00">comms: Flow</text>
</g>
<!-- rover&#45;&gt;rover.flows.comms -->
<g id="edge6" class="edge">
<title>rover-&gt;rover.flows.comms</title>
<path fill="none" stroke="black" d="M925.92,-111.82C900,-105.21 870.38,-96.38 844.52,-85.5 811.16,-71.46 775.55,-49.42 753.18,-34.6"/>
<polygon fill="black" stroke="black" points="925.78,-111.79 932.57,-109.35 937.43,-114.68 930.65,-117.12 925.78,-111.79"/>
<text text-anchor="middle" x="886.52" y="-72.2" font-family="Times New Roman,serif" font-size="14.00">&lt;containment&gt;</text>
<text text-anchor="middle" x="886.52" y="-56.45" font-family="Times New Roman,serif" font-size="14.00">flows.comms</text>
</g>
<!-- rover.fxns.control_rover -->
<g id="node8" class="node">
<title>rover.fxns.control_rover</title>
<polygon fill="lightgrey" stroke="grey" stroke-width="2" points="986.77,-36 810.27,-36 810.27,0 986.77,0 986.77,-36"/>
<text text-anchor="middle" x="898.52" y="-12.57" font-family="Times New Roman,serif" font-size="14.00">control_rover: ControlRover</text>
</g>
<!-- rover&#45;&gt;rover.fxns.control_rover -->
<g id="edge7" class="edge">
<title>rover-&gt;rover.fxns.control_rover</title>
<path fill="none" stroke="black" d="M974.35,-105.52C956.91,-85.61 930.82,-55.85 914.24,-36.93"/>
<polygon fill="black" stroke="black" points="974.32,-105.47 981.28,-107.35 982.22,-114.5 975.26,-112.62 974.32,-105.47"/>
<text text-anchor="middle" x="1009.65" y="-72.2" font-family="Times New Roman,serif" font-size="14.00">&lt;containment&gt;</text>
<text text-anchor="middle" x="1009.65" y="-56.45" font-family="Times New Roman,serif" font-size="14.00">fxns.control_rover</text>
</g>
<!-- rover.fxns.store_energy -->
<g id="node9" class="node">
<title>rover.fxns.store_energy</title>
<polygon fill="lightgrey" stroke="grey" stroke-width="2" points="1168.4,-36 1004.65,-36 1004.65,0 1168.4,0 1168.4,-36"/>
<text text-anchor="middle" x="1086.52" y="-12.57" font-family="Times New Roman,serif" font-size="14.00">store_energy: StoreEnergy</text>
</g>
<!-- rover&#45;&gt;rover.fxns.store_energy -->
<g id="edge8" class="edge">
<title>rover-&gt;rover.fxns.store_energy</title>
<path fill="none" stroke="black" d="M1034.64,-109.17C1045.59,-103.06 1056.54,-95.22 1064.52,-85.5 1076.03,-71.5 1081.59,-51.27 1084.23,-36.8"/>
<polygon fill="black" stroke="black" points="1034.86,-109.06 1031.32,-115.34 1024.16,-114.5 1027.69,-108.21 1034.86,-109.06"/>
<text text-anchor="middle" x="1130.4" y="-72.2" font-family="Times New Roman,serif" font-size="14.00">&lt;containment&gt;</text>
<text text-anchor="middle" x="1130.4" y="-56.45" font-family="Times New Roman,serif" font-size="14.00">fxns.store_energy</text>
</g>
<!-- rover.fxns.move_rover -->
<g id="node10" class="node">
<title>rover.fxns.move_rover</title>
<polygon fill="lightgrey" stroke="grey" stroke-width="2" points="1343.02,-36 1186.02,-36 1186.02,0 1343.02,0 1343.02,-36"/>
<text text-anchor="middle" x="1264.52" y="-12.57" font-family="Times New Roman,serif" font-size="14.00">move_rover: MoveRover</text>
</g>
<!-- rover&#45;&gt;rover.fxns.move_rover -->
<g id="edge9" class="edge">
<title>rover-&gt;rover.fxns.move_rover</title>
<path fill="none" stroke="black" d="M1102.81,-112.34C1130.38,-106.33 1159.26,-97.74 1184.52,-85.5 1209.39,-73.45 1233.11,-52.05 1248.17,-36.78"/>
<polygon fill="black" stroke="black" points="1102.9,-112.32 1097.83,-117.45 1091.14,-114.74 1096.21,-109.61 1102.9,-112.32"/>
<text text-anchor="middle" x="1277.15" y="-72.2" font-family="Times New Roman,serif" font-size="14.00">&lt;containment&gt;</text>
<text text-anchor="middle" x="1277.15" y="-56.45" font-family="Times New Roman,serif" font-size="14.00">fxns.move_rover</text>
</g>
<!-- rover.fxns.view_ground -->
<g id="node11" class="node">
<title>rover.fxns.view_ground</title>
<polygon fill="lightgrey" stroke="grey" stroke-width="2" points="1528.27,-36 1360.77,-36 1360.77,0 1528.27,0 1528.27,-36"/>
<text text-anchor="middle" x="1444.52" y="-12.57" font-family="Times New Roman,serif" font-size="14.00">view_ground: ViewGround</text>
</g>
<!-- rover&#45;&gt;rover.fxns.view_ground -->
<g id="edge10" class="edge">
<title>rover-&gt;rover.fxns.view_ground</title>
<path fill="none" stroke="black" d="M1090.29,-124.63C1158.56,-121.05 1250.99,-111.25 1328.52,-85.5 1362.45,-74.23 1397.54,-52.46 1420.11,-36.89"/>
<polygon fill="black" stroke="black" points="1090.29,-124.63 1084.49,-128.91 1078.3,-125.2 1084.1,-120.92 1090.29,-124.63"/>
<text text-anchor="middle" x="1444.77" y="-72.2" font-family="Times New Roman,serif" font-size="14.00">&lt;containment&gt;</text>
<text text-anchor="middle" x="1444.77" y="-56.45" font-family="Times New Roman,serif" font-size="14.00">fxns.view_ground</text>
</g>
<!-- rover.fxns.communicate -->
<g id="node12" class="node">
<title>rover.fxns.communicate</title>
<polygon fill="lightgrey" stroke="grey" stroke-width="2" points="1720.65,-36 1546.4,-36 1546.4,0 1720.65,0 1720.65,-36"/>
<text text-anchor="middle" x="1633.52" y="-12.57" font-family="Times New Roman,serif" font-size="14.00">communicate: Communicate</text>
</g>
<!-- rover&#45;&gt;rover.fxns.communicate -->
<g id="edge11" class="edge">
<title>rover-&gt;rover.fxns.communicate</title>
<path fill="none" stroke="black" d="M1097.59,-122.43C1223.21,-117.06 1425.65,-105.59 1498.52,-85.5 1537.56,-74.74 1578.82,-52.63 1605.3,-36.86"/>
<polygon fill="black" stroke="black" points="1097.44,-122.44 1091.61,-126.69 1085.45,-122.94 1091.28,-118.69 1097.44,-122.44"/>
<text text-anchor="middle" x="1625.52" y="-72.2" font-family="Times New Roman,serif" font-size="14.00">&lt;containment&gt;</text>
<text text-anchor="middle" x="1625.52" y="-56.45" font-family="Times New Roman,serif" font-size="14.00">fxns.communicate</text>
</g>
<!-- rover.m -->
<g id="node13" class="node">
<title>rover.m</title>
<polygon fill="lightgrey" stroke="grey" points="1804.65,-36 1750.4,-36 1750.4,-40 1738.4,-40 1738.4,0 1804.65,0 1804.65,-36"/>
<polyline fill="none" stroke="grey" points="1738.4,-36 1750.4,-36"/>
<text text-anchor="middle" x="1771.52" y="-12.57" font-family="Times New Roman,serif" font-size="14.00">m: Mode</text>
</g>
<!-- rover&#45;&gt;rover.m -->
<g id="edge12" class="edge">
<title>rover-&gt;rover.m</title>
<path fill="none" stroke="black" d="M1083.93,-127.19C1245.2,-127.79 1573.36,-124.03 1680.52,-85.5 1709.43,-75.11 1737.11,-52.45 1754.19,-36.48"/>
<polygon fill="black" stroke="black" points="1084.1,-127.19 1078.08,-131.16 1072.1,-127.13 1078.12,-123.16 1084.1,-127.19"/>
<text text-anchor="middle" x="1775.52" y="-72.2" font-family="Times New Roman,serif" font-size="14.00">&lt;containment&gt;</text>
<text text-anchor="middle" x="1775.52" y="-56.45" font-family="Times New Roman,serif" font-size="14.00">m</text>
</g>
<!-- rover.sp -->
<g id="node14" class="node">
<title>rover.sp</title>
<polygon fill="lightgrey" stroke="grey" points="1916.15,-36 1834.9,-36 1834.9,-40 1822.9,-40 1822.9,0 1916.15,0 1916.15,-36"/>
<polyline fill="none" stroke="grey" points="1822.9,-36 1834.9,-36"/>
<text text-anchor="middle" x="1869.52" y="-12.57" font-family="Times New Roman,serif" font-size="14.00">sp: SimParam</text>
</g>
<!-- rover&#45;&gt;rover.sp -->
<g id="edge13" class="edge">
<title>rover-&gt;rover.sp</title>
<path fill="none" stroke="black" d="M1087,-126.18C1290.79,-125.38 1758.4,-119.77 1821.52,-85.5 1841.17,-74.83 1854.77,-52.24 1862.36,-36.36"/>
<polygon fill="black" stroke="black" points="1086.87,-126.18 1080.88,-130.2 1074.87,-126.22 1080.86,-122.2 1086.87,-126.18"/>
<text text-anchor="middle" x="1894.52" y="-72.2" font-family="Times New Roman,serif" font-size="14.00">&lt;containment&gt;</text>
<text text-anchor="middle" x="1894.52" y="-56.45" font-family="Times New Roman,serif" font-size="14.00">sp</text>
</g>
<!-- rover.t -->
<g id="node15" class="node">
<title>rover.t</title>
<polygon fill="lightgrey" stroke="grey" points="2004.02,-36 1961.02,-36 1961.02,-40 1949.02,-40 1949.02,0 2004.02,0 2004.02,-36"/>
<polyline fill="none" stroke="grey" points="1949.02,-36 1961.02,-36"/>
<text text-anchor="middle" x="1976.52" y="-12.57" font-family="Times New Roman,serif" font-size="14.00">t: Time</text>
</g>
<!-- rover&#45;&gt;rover.t -->
<g id="edge14" class="edge">
<title>rover-&gt;rover.t</title>
<path fill="none" stroke="black" d="M1091.63,-124.61C1327.45,-120.35 1905.01,-107.71 1940.52,-85.5 1958,-74.57 1967.58,-52.04 1972.38,-36.24"/>
<polygon fill="black" stroke="black" points="1091.53,-124.61 1085.6,-128.72 1079.53,-124.82 1085.46,-120.72 1091.53,-124.61"/>
<text text-anchor="middle" x="2006.52" y="-72.2" font-family="Times New Roman,serif" font-size="14.00">&lt;containment&gt;</text>
<text text-anchor="middle" x="2006.52" y="-56.45" font-family="Times New Roman,serif" font-size="14.00">t</text>
</g>
</g>
</svg>