<svg xmlns="http://www.w3.org/2000/svg" xmlns:xlink="http://www.w3.org/1999/xlink" width="1886pt" height="1311pt" viewBox="0.00 0.00 1885.50 1311.00">
<g id="graph0" class="graph" transform="scale(1 1) rotate(0) translate(4 1307)">
<polygon fill="white" stroke="transparent" points="-4,4 -4,-1307 1881.5,-1307 1881.5,4 -4,4"/>
<!-- rover.fxns.move_rover -->
<g id="node1" class="node">
<title>rover.fxns.move_rover</title>
<polygon fill="lightgrey" stroke="grey" stroke-width="2" points="1018.5,-1303 828.5,-1303 828.5,-1267 1018.5,-1267 1018.5,-1303"/>
<text text-anchor="middle" x="923.5" y="-1281.3" font-family="Times,serif" font-size="14.00">move_rover: MoveRover</text>
</g>
<!-- rover.fxns.move_rover.m -->
<g id="node2" class="node">
<title>rover.fxns.move_rover.m</title>
<polygon fill="lightgrey" stroke="grey" points="223.5,-1150 75.5,-1150 75.5,-1154 63.5,-1154 63.5,-1114 223.5,-1114 223.5,-1150"/>
<polyline fill="none" stroke="grey" points="63.5,-1150 75.5,-1150 "/>
<text text-anchor="middle" x="143.5" y="-1128.3" font-family="Times,serif" font-size="14.00">m: MoveRoverMode</text>
</g>
<!-- rover.fxns.move_rover&#45;&gt;rover.fxns.move_rover.m -->
<g id="edge1" class="edge">
<title>rover.fxns.move_rover-&gt;rover.fxns.move_rover.m</title>
<path fill="none" stroke="black" d="M816.34,-1282.57C641.17,-1279.62 307.92,-1271.14 258.5,-1249 210.88,-1227.67 172.3,-1177.08 154.37,-1150.3"/>
<polygon fill="black" stroke="black" points="816.42,-1282.58 822.49,-1278.68 828.42,-1282.77 822.35,-1286.67 816.42,-1282.58"/>
<text text-anchor="middle" x="315.5" y="-1237.8" font-family="Times,serif" font-size="14.00">&lt;containment&gt;</text>
<text text-anchor="middle" x="315.5" y="-1222.8" font-family="Times,serif" font-size="14.00">m</text>
</g>
<!-- rover.fxns.move_rover.s -->
<g id="node3" class="node">
<title>rover.fxns.move_rover.s</title>
<polygon fill="lightgrey" stroke="grey" points="434.5,-1150 294.5,-1150 294.5,-1154 282.5,-1154 282.5,-1114 434.5,-1114 434.5,-1150"/>
<polyline fill="none" stroke="grey" points="282.5,-1150 294.5,-1150 "/>
<text text-anchor="middle" x="358.5" y="-1128.3" font-family="Times,serif" font-size="14.00">s: MoveRoverState</text>
</g>
<!-- rover.fxns.move_rover&#45;&gt;rover.fxns.move_rover.s -->
<g id="edge2" class="edge">
<title>rover.fxns.move_rover-&gt;rover.fxns.move_rover.s</title>
<path fill="none" stroke="black" d="M816.13,-1283.11C672.16,-1280.97 430.81,-1273.69 398.5,-1249 367.53,-1225.33 360.4,-1176.22 358.85,-1150.14"/>
<polygon fill="black" stroke="black" points="816.46,-1283.11 822.52,-1279.2 828.46,-1283.28 822.4,-1287.2 816.46,-1283.11"/>
<text text-anchor="middle" x="455.5" y="-1237.8" font-family="Times,serif" font-size="14.00">&lt;containment&gt;</text>
<text text-anchor="middle" x="455.5" y="-1222.8" font-family="Times,serif" font-size="14.00">s</text>
</g>
<!-- rover.fxns.move_rover.sp -->
<g id="node4" class="node">
<title>rover.fxns.move_rover.sp</title>
<polygon fill="lightgrey" stroke="grey" points="579.5,-1150 475.5,-1150 475.5,-1154 463.5,-1154 463.5,-1114 579.5,-1114 579.5,-1150"/>
<polyline fill="none" stroke="grey" points="463.5,-1150 475.5,-1150 "/>
<text text-anchor="middle" x="521.5" y="-1128.3" font-family="Times,serif" font-size="14.00">sp: SimParam</text>
</g>
<!-- rover.fxns.move_rover&#45;&gt;rover.fxns.move_rover.sp -->
<g id="edge3" class="edge">
<title>rover.fxns.move_rover-&gt;rover.fxns.move_rover.sp</title>
<path fill="none" stroke="black" d="M816.35,-1281.4C707.24,-1277.66 551.32,-1268.88 531.5,-1249 505.67,-1223.09 511.37,-1175.83 516.92,-1150.36"/>
<polygon fill="black" stroke="black" points="816.42,-1281.4 822.55,-1277.6 828.41,-1281.8 822.28,-1285.6 816.42,-1281.4"/>
<text text-anchor="middle" x="588.5" y="-1237.8" font-family="Times,serif" font-size="14.00">&lt;containment&gt;</text>
<text text-anchor="middle" x="588.5" y="-1222.8" font-family="Times,serif" font-size="14.00">sp</text>
</g>
<!-- rover.fxns.move_rover.t -->
<g id="node5" class="node">
<title>rover.fxns.move_rover.t</title>
<polygon fill="lightgrey" stroke="grey" points="665,-1150 610,-1150 610,-1154 598,-1154 598,-1114 665,-1114 665,-1150"/>
<polyline fill="none" stroke="grey" points="598,-1150 610,-1150 "/>
<text text-anchor="middle" x="631.5" y="-1128.3" font-family="Times,serif" font-size="14.00">t: Time</text>
</g>
<!-- rover.fxns.move_rover&#45;&gt;rover.fxns.move_rover.t -->
<g id="edge4" class="edge">
<title>rover.fxns.move_rover-&gt;rover.fxns.move_rover.t</title>
<path fill="none" stroke="black" d="M816.46,-1280.3C757.86,-1276.17 692.74,-1267.43 670.5,-1249 640.73,-1224.33 633.57,-1176.11 631.93,-1150.29"/>
<polygon fill="black" stroke="black" points="816.49,-1280.3 822.74,-1276.71 828.47,-1281.09 822.22,-1284.69 816.49,-1280.3"/>
<text text-anchor="middle" x="727.5" y="-1237.8" font-family="Times,serif" font-size="14.00">&lt;containment&gt;</text>
<text text-anchor="middle" x="727.5" y="-1222.8" font-family="Times,serif" font-size="14.00">t</text>
</g>
<!-- __main__.MoveRover -->
<g id="node20" class="node">
<title>__main__.MoveRover</title>
<polygon fill="lightgrey" stroke="grey" points="821.5,-1201 683.5,-1201 683.5,-1063 821.5,-1063 821.5,-1201"/>
<polyline fill="none" stroke="grey" points="695.5,-1201 683.5,-1189 "/>
<polyline fill="none" stroke="grey" points="683.5,-1075 695.5,-1063 "/>
<polyline fill="none" stroke="grey" points="809.5,-1063 821.5,-1075 "/>
<polyline fill="none" stroke="grey" points="821.5,-1189 809.5,-1201 "/>
<text text-anchor="middle" x="752.5" y="-1128.3" font-family="Times,serif" font-size="14.00">MoveRover: type</text>
</g>
<!-- rover.fxns.move_rover&#45;&gt;__main__.MoveRover -->
<g id="edge11" class="edge">
<title>rover.fxns.move_rover-&gt;__main__.MoveRover</title>
<path fill="none" stroke="black" d="M843.87,-1266.97C832.93,-1262.34 822.41,-1256.46 813.5,-1249 800.93,-1238.47 790.61,-1224.68 782.26,-1210.3"/>
<polygon fill="none" stroke="black" points="785.2,-1208.37 777.31,-1201.29 779.06,-1211.74 785.2,-1208.37"/>
<text text-anchor="middle" x="866.5" y="-1237.8" font-family="Times,serif" font-size="14.00">&lt;inheritance&gt;</text>
<text text-anchor="middle" x="866.5" y="-1222.8" font-family="Times,serif" font-size="14.00">base</text>
</g>
<!-- rover.flows.control -->
<g id="node24" class="node">
<title>rover.flows.control</title>
<ellipse fill="lightgrey" stroke="grey" stroke-width="0" cx="923.5" cy="-1132" rx="83.69" ry="18"/>
<text text-anchor="middle" x="923.5" y="-1128.3" font-family="Times,serif" font-size="14.00">control: Control</text>
</g>
<!-- rover.fxns.move_rover&#45;&gt;rover.flows.control -->
<g id="edge7" class="edge">
<title>rover.fxns.move_rover-&gt;rover.flows.control</title>
<path fill="none" stroke="black" d="M923.5,-1254.82C923.5,-1223.77 923.5,-1175.67 923.5,-1150.2"/>
<polygon fill="none" stroke="black" points="923.5,-1254.97 927.5,-1260.97 923.5,-1266.97 919.5,-1260.97 923.5,-1254.97"/>
<text text-anchor="middle" x="979" y="-1237.8" font-family="Times,serif" font-size="14.00">&lt;aggregation&gt;</text>
<text text-anchor="middle" x="979" y="-1222.8" font-family="Times,serif" font-size="14.00">control</text>
</g>
<!-- rover.flows.ee -->
<g id="node25" class="node">
<title>rover.flows.ee</title>
<ellipse fill="lightgrey" stroke="grey" stroke-width="0" cx="1066.5" cy="-1132" rx="40.89" ry="18"/>
<text text-anchor="middle" x="1066.5" y="-1128.3" font-family="Times,serif" font-size="14.00">ee: EE</text>
</g>
<!-- rover.fxns.move_rover&#45;&gt;rover.flows.ee -->
<g id="edge8" class="edge">
<title>rover.fxns.move_rover-&gt;rover.flows.ee</title>
<path fill="none" stroke="black" d="M1020.96,-1260.9C1026.25,-1257.47 1031.16,-1253.52 1035.5,-1249 1061.62,-1221.77 1066.3,-1175.06 1066.8,-1150.02"/>
<polygon fill="none" stroke="black" points="1020.82,-1260.98 1017.57,-1267.42 1010.38,-1266.9 1013.62,-1260.46 1020.82,-1260.98"/>
<text text-anchor="middle" x="1110" y="-1237.8" font-family="Times,serif" font-size="14.00">&lt;aggregation&gt;</text>
<text text-anchor="middle" x="1110" y="-1222.8" font-family="Times,serif" font-size="14.00">ee</text>
</g>
<!-- rover.flows.force -->
<g id="node26" class="node">
<title>rover.flows.force</title>
<ellipse fill="lightgrey" stroke="grey" stroke-width="0" cx="1191.5" cy="-1132" rx="65.79" ry="18"/>
<text text-anchor="middle" x="1191.5" y="-1128.3" font-family="Times,serif" font-size="14.00">force: Force</text>
</g>
<!-- rover.fxns.move_rover&#45;&gt;rover.flows.force -->
<g id="edge9" class="edge">
<title>rover.fxns.move_rover-&gt;rover.flows.force</title>
<path fill="none" stroke="black" d="M1030.73,-1280.86C1087.45,-1276.9 1149.44,-1268.16 1169.5,-1249 1196.48,-1223.24 1196.22,-1175.47 1193.81,-1150.02"/>
<polygon fill="none" stroke="black" points="1030.69,-1280.86 1024.96,-1285.24 1018.72,-1281.63 1024.45,-1277.25 1030.69,-1280.86"/>
<text text-anchor="middle" x="1243" y="-1237.8" font-family="Times,serif" font-size="14.00">&lt;aggregation&gt;</text>
<text text-anchor="middle" x="1243" y="-1222.8" font-family="Times,serif" font-size="14.00">force</text>
</g>
<!-- rover.flows.ground -->
<g id="node27" class="node">
<title>rover.flows.ground</title>
<ellipse fill="lightgrey" stroke="grey" stroke-width="0" cx="1359.5" cy="-1132" rx="84.49" ry="18"/>
<text text-anchor="middle" x="1359.5" y="-1128.3" font-family="Times,serif" font-size="14.00">ground: Ground</text>
</g>
<!-- rover.fxns.move_rover&#45;&gt;rover.flows.ground -->
<g id="edge10" class="edge">
<title>rover.fxns.move_rover-&gt;rover.flows.ground</title>
<path fill="none" stroke="black" d="M1031.13,-1279.41C1135.26,-1274.11 1280.51,-1264.14 1302.5,-1249 1336.32,-1225.71 1350.91,-1176.44 1356.49,-1150.24"/>
<polygon fill="none" stroke="black" points="1030.95,-1279.42 1025.15,-1283.71 1018.96,-1280.02 1024.75,-1275.72 1030.95,-1279.42"/>
<text text-anchor="middle" x="1385" y="-1237.8" font-family="Times,serif" font-size="14.00">&lt;aggregation&gt;</text>
<text text-anchor="middle" x="1385" y="-1222.8" font-family="Times,serif" font-size="14.00">ground</text>
</g>
<!-- rover.fxns.move_rover.dynamic_behavior -->
<g id="node28" class="node">
<title>rover.fxns.move_rover.dynamic_behavior</title>
<polygon fill="lightgrey" stroke="grey" points="1671,-1150 1462,-1150 1462,-1146 1458,-1146 1458,-1142 1462,-1142 1462,-1122 1458,-1122 1458,-1118 1462,-1118 1462,-1114 1671,-1114 1671,-1150"/>
<polyline fill="none" stroke="grey" points="1462,-1146 1466,-1146 1466,-1142 1462,-1142 "/>
<polyline fill="none" stroke="grey" points="1462,-1122 1466,-1122 1466,-1118 1462,-1118 "/>
<text text-anchor="middle" x="1566.5" y="-1128.3" font-family="Times,serif" font-size="14.00">dynamic_behavior: method</text>
</g>
<!-- rover.fxns.move_rover&#45;&gt;rover.fxns.move_rover.dynamic_behavior -->
<g id="edge5" class="edge">
<title>rover.fxns.move_rover-&gt;rover.fxns.move_rover.dynamic_behavior</title>
<path fill="none" stroke="black" d="M1030.73,-1280.68C1172.21,-1275.71 1407.72,-1265.14 1444.5,-1249 1493.74,-1227.38 1535.22,-1176.92 1554.66,-1150.24"/>
<polygon fill="black" stroke="black" points="1030.59,-1280.69 1024.74,-1284.89 1018.6,-1281.1 1024.46,-1276.9 1030.59,-1280.69"/>
<text text-anchor="middle" x="1556.5" y="-1237.8" font-family="Times,serif" font-size="14.00">&lt;containment&gt;</text>
<text text-anchor="middle" x="1556.5" y="-1222.8" font-family="Times,serif" font-size="14.00">dynamic_behavior</text>
</g>
<!-- rover.fxns.move_rover.static_behavior -->
<g id="node29" class="node">
<title>rover.fxns.move_rover.static_behavior</title>
<polygon fill="lightgrey" stroke="grey" points="1877.5,-1150 1689.5,-1150 1689.5,-1146 1685.5,-1146 1685.5,-1142 1689.5,-1142 1689.5,-1122 1685.5,-1122 1685.5,-1118 1689.5,-1118 1689.5,-1114 1877.5,-1114 1877.5,-1150"/>
<polyline fill="none" stroke="grey" points="1689.5,-1146 1693.5,-1146 1693.5,-1142 1689.5,-1142 "/>
<polyline fill="none" stroke="grey" points="1689.5,-1122 1693.5,-1122 1693.5,-1118 1689.5,-1118 "/>
<text text-anchor="middle" x="1783.5" y="-1128.3" font-family="Times,serif" font-size="14.00">static_behavior: method</text>
</g>
<!-- rover.fxns.move_rover&#45;&gt;rover.fxns.move_rover.static_behavior -->
<g id="edge6" class="edge">
<title>rover.fxns.move_rover-&gt;rover.fxns.move_rover.static_behavior</title>
<path fill="none" stroke="black" d="M1030.7,-1282.05C1213.49,-1278.21 1571.1,-1268.34 1625.5,-1249 1684.5,-1228.03 1740.31,-1177.28 1767.04,-1150.39"/>
<polygon fill="black" stroke="black" points="1030.65,-1282.05 1024.73,-1286.17 1018.65,-1282.3 1024.57,-1278.17 1030.65,-1282.05"/>
<text text-anchor="middle" x="1739.5" y="-1237.8" font-family="Times,serif" font-size="14.00">&lt;containment&gt;</text>
<text text-anchor="middle" x="1739.5" y="-1222.8" font-family="Times,serif" font-size="14.00">static_behavior</text>
</g>
<!-- __main__.MoveRoverMode -->
<g id="node6" class="node">
<title>__main__.MoveRoverMode</title>
<polygon fill="lightgrey" stroke="grey" points="209,-997 0,-997 0,-788 209,-788 209,-997"/>
<polyline fill="none" stroke="grey" points="12,-997 0,-985 "/>
<polyline fill="none" stroke="grey" points="0,-800 12,-788 "/>
<polyline fill="none" stroke="grey" points="197,-788 209,-800 "/>
<polyline fill="none" stroke="grey" points="209,-985 197,-997 "/>
<text text-anchor="middle" x="104.5" y="-888.8" font-family="Times,serif" font-size="14.00">MoveRoverMode: datatype</text>
</g>
<!-- rover.fxns.move_rover.m&#45;&gt;__main__.MoveRoverMode -->
<g id="edge12" class="edge">
<title>rover.fxns.move_rover.m-&gt;__main__.MoveRoverMode</title>
<path fill="none" stroke="black" d="M140.7,-1113.92C136.94,-1091.08 129.97,-1048.61 123.14,-1007"/>
<polygon fill="none" stroke="black" points="126.57,-1006.32 121.5,-997.02 119.67,-1007.46 126.57,-1006.32"/>
<text text-anchor="middle" x="182.5" y="-1033.8" font-family="Times,serif" font-size="14.00">&lt;inheritance&gt;</text>
<text text-anchor="middle" x="182.5" y="-1018.8" font-family="Times,serif" font-size="14.00">base</text>
</g>
<!-- __main__.MoveRoverState -->
<g id="node9" class="node">
<title>__main__.MoveRoverState</title>
<polygon fill="lightgrey" stroke="grey" points="435.5,-996.5 227.5,-996.5 227.5,-788.5 435.5,-788.5 435.5,-996.5"/>
<polyline fill="none" stroke="grey" points="239.5,-996.5 227.5,-984.5 "/>
<polyline fill="none" stroke="grey" points="227.5,-800.5 239.5,-788.5 "/>
<polyline fill="none" stroke="grey" points="423.5,-788.5 435.5,-800.5 "/>
<polyline fill="none" stroke="grey" points="435.5,-984.5 423.5,-996.5 "/>
<text text-anchor="middle" x="331.5" y="-888.8" font-family="Times,serif" font-size="14.00">MoveRoverState: datatype</text>
</g>
<!-- rover.fxns.move_rover.s&#45;&gt;__main__.MoveRoverState -->
<g id="edge15" class="edge">
<title>rover.fxns.move_rover.s-&gt;__main__.MoveRoverState</title>
<path fill="none" stroke="black" d="M356.56,-1113.92C353.96,-1091.03 349.11,-1048.43 344.37,-1006.73"/>
<polygon fill="none" stroke="black" points="347.84,-1006.28 343.24,-996.73 340.89,-1007.07 347.84,-1006.28"/>
<text text-anchor="middle" x="401.5" y="-1033.8" font-family="Times,serif" font-size="14.00">&lt;inheritance&gt;</text>
<text text-anchor="middle" x="401.5" y="-1018.8" font-family="Times,serif" font-size="14.00">base</text>
</g>
<!-- fmdtools.define.block.base.SimParam -->
<g id="node11" class="node">
<title>fmdtools.define.block.base.SimParam</title>
<polygon fill="lightgrey" stroke="grey" points="615.5,-973.5 453.5,-973.5 453.5,-811.5 615.5,-811.5 615.5,-973.5"/>
<polyline fill="none" stroke="grey" points="465.5,-973.5 453.5,-961.5 "/>
<polyline fill="none" stroke="grey" points="453.5,-823.5 465.5,-811.5 "/>
<polyline fill="none" stroke="grey" points="603.5,-811.5 615.5,-823.5 "/>
<polyline fill="none" stroke="grey" points="615.5,-961.5 603.5,-973.5 "/>
<text text-anchor="middle" x="534.5" y="-888.8" font-family="Times,serif" font-size="14.00">SimParam: datatype</text>
</g>
<!-- rover.fxns.move_rover.sp&#45;&gt;fmdtools.define.block.base.SimParam -->
<g id="edge18" class="edge">
<title>rover.fxns.move_rover.sp-&gt;fmdtools.define.block.base.SimParam</title>
<path fill="none" stroke="black" d="M521.64,-1113.69C521.9,-1091.01 522.61,-1050 524.5,-1015 525.05,-1004.83 525.75,-994.19 526.51,-983.62"/>
<polygon fill="none" stroke="black" points="530.01,-983.75 527.27,-973.52 523.03,-983.23 530.01,-983.75"/>
<text text-anchor="middle" x="577.5" y="-1033.8" font-family="Times,serif" font-size="14.00">&lt;inheritance&gt;</text>
<text text-anchor="middle" x="577.5" y="-1018.8" font-family="Times,serif" font-size="14.00">base</text>
</g>
<!-- fmdtools.define.container.time.Time -->
<g id="node13" class="node">
<title>fmdtools.define.container.time.Time</title>
<polygon fill="lightgrey" stroke="grey" points="716.5,-770 592.5,-770 592.5,-646 716.5,-646 716.5,-770"/>
<polyline fill="none" stroke="grey" points="604.5,-770 592.5,-758 "/>
<polyline fill="none" stroke="grey" points="592.5,-658 604.5,-646 "/>
<polyline fill="none" stroke="grey" points="704.5,-646 716.5,-658 "/>
<polyline fill="none" stroke="grey" points="716.5,-758 704.5,-770 "/>
<text text-anchor="middle" x="654.5" y="-704.3" font-family="Times,serif" font-size="14.00">Time: datatype</text>
</g>
<!-- rover.fxns.move_rover.t&#45;&gt;fmdtools.define.container.time.Time -->
<g id="edge21" class="edge">
<title>rover.fxns.move_rover.t-&gt;fmdtools.define.container.time.Time</title>
<path fill="none" stroke="black" d="M632.43,-1113.93C635.46,-1058.4 645.14,-880.65 650.63,-780.09"/>
<polygon fill="none" stroke="black" points="654.13,-780.18 651.17,-770.01 647.14,-779.8 654.13,-780.18"/>
<text text-anchor="middle" x="691.5" y="-1033.8" font-family="Times,serif" font-size="14.00">&lt;inheritance&gt;</text>
<text text-anchor="middle" x="691.5" y="-1018.8" font-family="Times,serif" font-size="14.00">base</text>
</g>
<!-- fmdtools.define.container.mode.Mode -->
<g id="node7" class="node">
<title>fmdtools.define.container.mode.Mode</title>
<polygon fill="lightgrey" stroke="grey" points="204.5,-610 76.5,-610 76.5,-482 204.5,-482 204.5,-610"/>
<polyline fill="none" stroke="grey" points="88.5,-610 76.5,-598 "/>
<polyline fill="none" stroke="grey" points="76.5,-494 88.5,-482 "/>
<polyline fill="none" stroke="grey" points="192.5,-482 204.5,-494 "/>
<polyline fill="none" stroke="grey" points="204.5,-598 192.5,-610 "/>
<text text-anchor="middle" x="140.5" y="-542.3" font-family="Times,serif" font-size="14.00">Mode: datatype</text>
</g>
<!-- __main__.MoveRoverMode&#45;&gt;fmdtools.define.container.mode.Mode -->
<g id="edge13" class="edge">
<title>__main__.MoveRoverMode-&gt;fmdtools.define.container.mode.Mode</title>
<path fill="none" stroke="black" d="M115.35,-787.67C120.99,-733.66 127.76,-668.94 132.85,-620.22"/>
<polygon fill="none" stroke="black" points="136.35,-620.39 133.91,-610.08 129.39,-619.66 136.35,-620.39"/>
<text text-anchor="middle" x="183.5" y="-711.8" font-family="Times,serif" font-size="14.00">&lt;inheritance&gt;</text>
<text text-anchor="middle" x="183.5" y="-696.8" font-family="Times,serif" font-size="14.00">base</text>
</g>
<!-- fmdtools.define.container.base.BaseContainer -->
<g id="node8" class="node">
<title>fmdtools.define.container.base.BaseContainer</title>
<polygon fill="lightgrey" stroke="grey" points="499.5,-398 305.5,-398 305.5,-204 499.5,-204 499.5,-398"/>
<polyline fill="none" stroke="grey" points="317.5,-398 305.5,-386 "/>
<polyline fill="none" stroke="grey" points="305.5,-216 317.5,-204 "/>
<polyline fill="none" stroke="grey" points="487.5,-204 499.5,-216 "/>
<polyline fill="none" stroke="grey" points="499.5,-386 487.5,-398 "/>
<text text-anchor="middle" x="402.5" y="-297.3" font-family="Times,serif" font-size="14.00">BaseContainer: datatype</text>
</g>
<!-- fmdtools.define.container.mode.Mode&#45;&gt;fmdtools.define.container.base.BaseContainer -->
<g id="edge14" class="edge">
<title>fmdtools.define.container.mode.Mode-&gt;fmdtools.define.container.base.BaseContainer</title>
<path fill="none" stroke="black" d="M181.67,-481.96C197.69,-459.82 217.09,-435.61 237.5,-416 255.46,-398.75 276.25,-382.24 296.91,-367.41"/>
<polygon fill="none" stroke="black" points="298.98,-370.23 305.12,-361.59 294.93,-364.52 298.98,-370.23"/>
<text text-anchor="middle" x="290.5" y="-434.8" font-family="Times,serif" font-size="14.00">&lt;inheritance&gt;</text>
<text text-anchor="middle" x="290.5" y="-419.8" font-family="Times,serif" font-size="14.00">base</text>
</g>
<!-- fmdtools.define.container.state.State -->
<g id="node10" class="node">
<title>fmdtools.define.container.state.State</title>
<polygon fill="lightgrey" stroke="grey" points="384,-609.5 257,-609.5 257,-482.5 384,-482.5 384,-609.5"/>
<polyline fill="none" stroke="grey" points="269,-609.5 257,-597.5 "/>
<polyline fill="none" stroke="grey" points="257,-494.5 269,-482.5 "/>
<polyline fill="none" stroke="grey" points="372,-482.5 384,-494.5 "/>
<polyline fill="none" stroke="grey" points="384,-597.5 372,-609.5 "/>
<text text-anchor="middle" x="320.5" y="-542.3" font-family="Times,serif" font-size="14.00">State: datatype</text>
</g>
<!-- __main__.MoveRoverState&#45;&gt;fmdtools.define.container.state.State -->
<g id="edge16" class="edge">
<title>__main__.MoveRoverState-&gt;fmdtools.define.container.state.State</title>
<path fill="none" stroke="black" d="M328.2,-788.14C326.47,-733.92 324.39,-668.81 322.83,-619.92"/>
<polygon fill="none" stroke="black" points="326.32,-619.62 322.5,-609.74 319.32,-619.85 326.32,-619.62"/>
<text text-anchor="middle" x="380.5" y="-711.8" font-family="Times,serif" font-size="14.00">&lt;inheritance&gt;</text>
<text text-anchor="middle" x="380.5" y="-696.8" font-family="Times,serif" font-size="14.00">base</text>
</g>
<!-- fmdtools.define.container.state.State&#45;&gt;fmdtools.define.container.base.BaseContainer -->
<g id="edge17" class="edge">
<title>fmdtools.define.container.state.State-&gt;fmdtools.define.container.base.BaseContainer</title>
<path fill="none" stroke="black" d="M335.84,-482.19C341.47,-460.99 348.25,-437.31 355.5,-416 356.44,-413.25 357.41,-410.46 358.41,-407.66"/>
<polygon fill="none" stroke="black" points="361.76,-408.67 361.89,-398.08 355.18,-406.28 361.76,-408.67"/>
<text text-anchor="middle" x="408.5" y="-434.8" font-family="Times,serif" font-size="14.00">&lt;inheritance&gt;</text>
<text text-anchor="middle" x="408.5" y="-419.8" font-family="Times,serif" font-size="14.00">base</text>
</g>
<!-- fmdtools.define.container.parameter.Parameter -->
<g id="node12" class="node">
<title>fmdtools.define.container.parameter.Parameter</title>
<polygon fill="lightgrey" stroke="grey" points="566.5,-628 402.5,-628 402.5,-464 566.5,-464 566.5,-628"/>
<polyline fill="none" stroke="grey" points="414.5,-628 402.5,-616 "/>
<polyline fill="none" stroke="grey" points="402.5,-476 414.5,-464 "/>
<polyline fill="none" stroke="grey" points="554.5,-464 566.5,-476 "/>
<polyline fill="none" stroke="grey" points="566.5,-616 554.5,-628 "/>
<text text-anchor="middle" x="484.5" y="-542.3" font-family="Times,serif" font-size="14.00">Parameter: datatype</text>
</g>
<!-- fmdtools.define.block.base.SimParam&#45;&gt;fmdtools.define.container.parameter.Parameter -->
<g id="edge19" class="edge">
<title>fmdtools.define.block.base.SimParam-&gt;fmdtools.define.container.parameter.Parameter</title>
<path fill="none" stroke="black" d="M490.91,-811.22C485.37,-797.8 480.57,-783.76 477.5,-770 468,-727.39 468.22,-679.08 471.45,-638.35"/>
<polygon fill="none" stroke="black" points="474.95,-638.42 472.33,-628.16 467.98,-637.82 474.95,-638.42"/>
<text text-anchor="middle" x="530.5" y="-711.8" font-family="Times,serif" font-size="14.00">&lt;inheritance&gt;</text>
<text text-anchor="middle" x="530.5" y="-696.8" font-family="Times,serif" font-size="14.00">base</text>
</g>
<!-- fmdtools.define.container.parameter.Parameter&#45;&gt;fmdtools.define.container.base.BaseContainer -->
<g id="edge20" class="edge">
<title>fmdtools.define.container.parameter.Parameter-&gt;fmdtools.define.container.base.BaseContainer</title>
<path fill="none" stroke="black" d="M473.89,-463.89C470.71,-447.79 466.65,-431.19 461.5,-416 460.56,-413.23 459.56,-410.44 458.51,-407.65"/>
<polygon fill="none" stroke="black" points="461.69,-406.17 454.77,-398.15 455.18,-408.73 461.69,-406.17"/>
<text text-anchor="middle" x="522.5" y="-434.8" font-family="Times,serif" font-size="14.00">&lt;inheritance&gt;</text>
<text text-anchor="middle" x="522.5" y="-419.8" font-family="Times,serif" font-size="14.00">base</text>
</g>
<!-- fmdtools.define.container.time.Time&#45;&gt;fmdtools.define.container.base.BaseContainer -->
<g id="edge22" class="edge">
<title>fmdtools.define.container.time.Time-&gt;fmdtools.define.container.base.BaseContainer</title>
<path fill="none" stroke="black" d="M651.6,-645.82C645.87,-582.85 628.98,-484.52 579.5,-416 561.06,-390.46 534.98,-369.2 508.49,-352.23"/>
<polygon fill="none" stroke="black" points="510.22,-349.19 499.88,-346.87 506.52,-355.13 510.22,-349.19"/>
<text text-anchor="middle" x="703.5" y="-549.8" font-family="Times,serif" font-size="14.00">&lt;inheritance&gt;</text>
<text text-anchor="middle" x="703.5" y="-534.8" font-family="Times,serif" font-size="14.00">base</text>
</g>
<!-- __main__.Control -->
<g id="node14" class="node">
<title>__main__.Control</title>
<polygon fill="lightgrey" stroke="grey" points="987.5,-947.5 877.5,-947.5 877.5,-837.5 987.5,-837.5 987.5,-947.5"/>
<polyline fill="none" stroke="grey" points="889.5,-947.5 877.5,-935.5 "/>
<polyline fill="none" stroke="grey" points="877.5,-849.5 889.5,-837.5 "/>
<polyline fill="none" stroke="grey" points="975.5,-837.5 987.5,-849.5 "/>
<polyline fill="none" stroke="grey" points="987.5,-935.5 975.5,-947.5 "/>
<text text-anchor="middle" x="932.5" y="-888.8" font-family="Times,serif" font-size="14.00">Control: type</text>
</g>
<!-- fmdtools.define.flow.base.Flow -->
<g id="node15" class="node">
<title>fmdtools.define.flow.base.Flow</title>
<polygon fill="lightgrey" stroke="grey" points="1108.5,-592 1016.5,-592 1016.5,-500 1108.5,-500 1108.5,-592"/>
<polyline fill="none" stroke="grey" points="1028.5,-592 1016.5,-580 "/>
<polyline fill="none" stroke="grey" points="1016.5,-512 1028.5,-500 "/>
<polyline fill="none" stroke="grey" points="1096.5,-500 1108.5,-512 "/>
<polyline fill="none" stroke="grey" points="1108.5,-580 1096.5,-592 "/>
<text text-anchor="middle" x="1062.5" y="-542.3" font-family="Times,serif" font-size="14.00">Flow: type</text>
</g>
<!-- __main__.Control&#45;&gt;fmdtools.define.flow.base.Flow -->
<g id="edge24" class="edge">
<title>__main__.Control-&gt;fmdtools.define.flow.base.Flow</title>
<path fill="none" stroke="black" d="M925.83,-837.24C921.94,-785.37 922.62,-706.36 952.5,-646 965.08,-620.58 987.27,-598.67 1008.44,-581.98"/>
<polygon fill="none" stroke="black" points="1010.65,-584.69 1016.48,-575.84 1006.41,-579.12 1010.65,-584.69"/>
<text text-anchor="middle" x="1005.5" y="-711.8" font-family="Times,serif" font-size="14.00">&lt;inheritance&gt;</text>
<text text-anchor="middle" x="1005.5" y="-696.8" font-family="Times,serif" font-size="14.00">base</text>
</g>
<!-- fmdtools.define.object.base.BaseObject -->
<g id="node16" class="node">
<title>fmdtools.define.object.base.BaseObject</title>
<polygon fill="lightgrey" stroke="grey" points="1035.5,-138 897.5,-138 897.5,0 1035.5,0 1035.5,-138"/>
<polyline fill="none" stroke="grey" points="909.5,-138 897.5,-126 "/>
<polyline fill="none" stroke="grey" points="897.5,-12 909.5,0 "/>
<polyline fill="none" stroke="grey" points="1023.5,0 1035.5,-12 "/>
<polyline fill="none" stroke="grey" points="1035.5,-126 1023.5,-138 "/>
<text text-anchor="middle" x="966.5" y="-65.3" font-family="Times,serif" font-size="14.00">BaseObject: type</text>
</g>
<!-- fmdtools.define.flow.base.Flow&#45;&gt;fmdtools.define.object.base.BaseObject -->
<g id="edge25" class="edge">
<title>fmdtools.define.flow.base.Flow-&gt;fmdtools.define.object.base.BaseObject</title>
<path fill="none" stroke="black" d="M1062.23,-499.78C1060.6,-426.02 1052.29,-275.98 1013.5,-156 1012.62,-153.27 1011.65,-150.52 1010.6,-147.78"/>
<polygon fill="none" stroke="black" points="1013.82,-146.4 1006.8,-138.46 1007.34,-149.04 1013.82,-146.4"/>
<text text-anchor="middle" x="1110.5" y="-304.8" font-family="Times,serif" font-size="14.00">&lt;inheritance&gt;</text>
<text text-anchor="middle" x="1110.5" y="-289.8" font-family="Times,serif" font-size="14.00">base</text>
</g>
<!-- __main__.EE -->
<g id="node17" class="node">
<title>__main__.EE</title>
<polygon fill="lightgrey" stroke="grey" points="1101.5,-931.5 1023.5,-931.5 1023.5,-853.5 1101.5,-853.5 1101.5,-931.5"/>
<polyline fill="none" stroke="grey" points="1035.5,-931.5 1023.5,-919.5 "/>
<polyline fill="none" stroke="grey" points="1023.5,-865.5 1035.5,-853.5 "/>
<polyline fill="none" stroke="grey" points="1089.5,-853.5 1101.5,-865.5 "/>
<polyline fill="none" stroke="grey" points="1101.5,-919.5 1089.5,-931.5 "/>
<text text-anchor="middle" x="1062.5" y="-888.8" font-family="Times,serif" font-size="14.00">EE: type</text>
</g>
<!-- __main__.EE&#45;&gt;fmdtools.define.flow.base.Flow -->
<g id="edge27" class="edge">
<title>__main__.EE-&gt;fmdtools.define.flow.base.Flow</title>
<path fill="none" stroke="black" d="M1062.5,-853.32C1062.5,-792.29 1062.5,-672.5 1062.5,-602.16"/>
<polygon fill="none" stroke="black" points="1066,-602.16 1062.5,-592.16 1059,-602.16 1066,-602.16"/>
<text text-anchor="middle" x="1115.5" y="-711.8" font-family="Times,serif" font-size="14.00">&lt;inheritance&gt;</text>
<text text-anchor="middle" x="1115.5" y="-696.8" font-family="Times,serif" font-size="14.00">base</text>
</g>
<!-- __main__.Force -->
<g id="node18" class="node">
<title>__main__.Force</title>
<polygon fill="lightgrey" stroke="grey" points="1240,-941 1143,-941 1143,-844 1240,-844 1240,-941"/>
<polyline fill="none" stroke="grey" points="1155,-941 1143,-929 "/>
<polyline fill="none" stroke="grey" points="1143,-856 1155,-844 "/>
<polyline fill="none" stroke="grey" points="1228,-844 1240,-856 "/>
<polyline fill="none" stroke="grey" points="1240,-929 1228,-941 "/>
<text text-anchor="middle" x="1191.5" y="-888.8" font-family="Times,serif" font-size="14.00">Force: type</text>
</g>
<!-- __main__.Force&#45;&gt;fmdtools.define.flow.base.Flow -->
<g id="edge29" class="edge">
<title>__main__.Force-&gt;fmdtools.define.flow.base.Flow</title>
<path fill="none" stroke="black" d="M1191.26,-843.94C1190.26,-782.57 1186.06,-679.7 1169.5,-646 1157.48,-621.54 1136.63,-600.14 1116.52,-583.55"/>
<polygon fill="none" stroke="black" points="1118.56,-580.71 1108.57,-577.2 1114.2,-586.18 1118.56,-580.71"/>
<text text-anchor="middle" x="1242.5" y="-711.8" font-family="Times,serif" font-size="14.00">&lt;inheritance&gt;</text>
<text text-anchor="middle" x="1242.5" y="-696.8" font-family="Times,serif" font-size="14.00">base</text>
</g>
<!-- __main__.Ground -->
<g id="node19" class="node">
<title>__main__.Ground</title>
<polygon fill="lightgrey" stroke="grey" points="1375.5,-947.5 1265.5,-947.5 1265.5,-837.5 1375.5,-837.5 1375.5,-947.5"/>
<polyline fill="none" stroke="grey" points="1277.5,-947.5 1265.5,-935.5 "/>
<polyline fill="none" stroke="grey" points="1265.5,-849.5 1277.5,-837.5 "/>
<polyline fill="none" stroke="grey" points="1363.5,-837.5 1375.5,-849.5 "/>
<polyline fill="none" stroke="grey" points="1375.5,-935.5 1363.5,-947.5 "/>
<text text-anchor="middle" x="1320.5" y="-888.8" font-family="Times,serif" font-size="14.00">Ground: type</text>
</g>
<!-- __main__.Ground&#45;&gt;fmdtools.define.flow.base.Flow -->
<g id="edge31" class="edge">
<title>__main__.Ground-&gt;fmdtools.define.flow.base.Flow</title>
<path fill="none" stroke="black" d="M1330.56,-837.39C1337.4,-783.6 1338.98,-701.35 1298.5,-646 1256.4,-588.44 1174.32,-564.14 1118.94,-554.02"/>
<polygon fill="none" stroke="black" points="1119.37,-550.54 1108.92,-552.29 1118.18,-557.44 1119.37,-550.54"/>
<text text-anchor="middle" x="1387.5" y="-711.8" font-family="Times,serif" font-size="14.00">&lt;inheritance&gt;</text>
<text text-anchor="middle" x="1387.5" y="-696.8" font-family="Times,serif" font-size="14.00">base</text>
</g>
<!-- fmdtools.define.block.function.Function -->
<g id="node21" class="node">
<title>fmdtools.define.block.function.Function</title>
<polygon fill="lightgrey" stroke="grey" points="854.5,-952.5 734.5,-952.5 734.5,-832.5 854.5,-832.5 854.5,-952.5"/>
<polyline fill="none" stroke="grey" points="746.5,-952.5 734.5,-940.5 "/>
<polyline fill="none" stroke="grey" points="734.5,-844.5 746.5,-832.5 "/>
<polyline fill="none" stroke="grey" points="842.5,-832.5 854.5,-844.5 "/>
<polyline fill="none" stroke="grey" points="854.5,-940.5 842.5,-952.5 "/>
<text text-anchor="middle" x="794.5" y="-888.8" font-family="Times,serif" font-size="14.00">Function: type</text>
</g>
<!-- __main__.MoveRover&#45;&gt;fmdtools.define.block.function.Function -->
<g id="edge32" class="edge">
<title>__main__.MoveRover-&gt;fmdtools.define.block.function.Function</title>
<path fill="none" stroke="black" d="M764.54,-1062.94C770.09,-1031.53 776.68,-994.28 782.26,-962.72"/>
<polygon fill="none" stroke="black" points="785.74,-963.15 784.03,-952.69 778.84,-961.93 785.74,-963.15"/>
<text text-anchor="middle" x="825.5" y="-1033.8" font-family="Times,serif" font-size="14.00">&lt;inheritance&gt;</text>
<text text-anchor="middle" x="825.5" y="-1018.8" font-family="Times,serif" font-size="14.00">base</text>
</g>
<!-- fmdtools.define.block.base.Block -->
<g id="node22" class="node">
<title>fmdtools.define.block.base.Block</title>
<polygon fill="lightgrey" stroke="grey" points="866.5,-594 770.5,-594 770.5,-498 866.5,-498 866.5,-594"/>
<polyline fill="none" stroke="grey" points="782.5,-594 770.5,-582 "/>
<polyline fill="none" stroke="grey" points="770.5,-510 782.5,-498 "/>
<polyline fill="none" stroke="grey" points="854.5,-498 866.5,-510 "/>
<polyline fill="none" stroke="grey" points="866.5,-582 854.5,-594 "/>
<text text-anchor="middle" x="818.5" y="-542.3" font-family="Times,serif" font-size="14.00">Block: type</text>
</g>
<!-- fmdtools.define.block.function.Function&#45;&gt;fmdtools.define.block.base.Block -->
<g id="edge33" class="edge">
<title>fmdtools.define.block.function.Function-&gt;fmdtools.define.block.base.Block</title>
<path fill="none" stroke="black" d="M795.26,-832.36C796.29,-782.57 798.73,-709.51 804.5,-646 805.73,-632.5 807.51,-618.02 809.39,-604.42"/>
<polygon fill="none" stroke="black" points="812.9,-604.62 810.84,-594.22 805.97,-603.63 812.9,-604.62"/>
<text text-anchor="middle" x="857.5" y="-711.8" font-family="Times,serif" font-size="14.00">&lt;inheritance&gt;</text>
<text text-anchor="middle" x="857.5" y="-696.8" font-family="Times,serif" font-size="14.00">base</text>
</g>
<!-- fmdtools.define.block.base.Simulable -->
<g id="node23" class="node">
<title>fmdtools.define.block.base.Simulable</title>
<polygon fill="lightgrey" stroke="grey" points="970.5,-365 842.5,-365 842.5,-237 970.5,-237 970.5,-365"/>
<polyline fill="none" stroke="grey" points="854.5,-365 842.5,-353 "/>
<polyline fill="none" stroke="grey" points="842.5,-249 854.5,-237 "/>
<polyline fill="none" stroke="grey" points="958.5,-237 970.5,-249 "/>
<polyline fill="none" stroke="grey" points="970.5,-353 958.5,-365 "/>
<text text-anchor="middle" x="906.5" y="-297.3" font-family="Times,serif" font-size="14.00">Simulable: type</text>
</g>
<!-- fmdtools.define.block.base.Block&#45;&gt;fmdtools.define.block.base.Simulable -->
<g id="edge34" class="edge">
<title>fmdtools.define.block.base.Block-&gt;fmdtools.define.block.base.Simulable</title>
<path fill="none" stroke="black" d="M835.57,-497.86C848.25,-462.85 865.78,-414.45 880.23,-374.53"/>
<polygon fill="none" stroke="black" points="883.53,-375.7 883.65,-365.1 876.95,-373.31 883.53,-375.7"/>
<text text-anchor="middle" x="918.5" y="-434.8" font-family="Times,serif" font-size="14.00">&lt;inheritance&gt;</text>
<text text-anchor="middle" x="918.5" y="-419.8" font-family="Times,serif" font-size="14.00">base</text>
</g>
<!-- fmdtools.define.block.base.Simulable&#45;&gt;fmdtools.define.object.base.BaseObject -->
<g id="edge35" class="edge">
<title>fmdtools.define.block.base.Simulable-&gt;fmdtools.define.object.base.BaseObject</title>
<path fill="none" stroke="black" d="M898.99,-236.74C897.99,-211.14 899.45,-181.64 907.5,-156 908.42,-153.07 909.48,-150.15 910.65,-147.26"/>
<polygon fill="none" stroke="black" points="913.86,-148.66 914.75,-138.1 907.47,-145.79 913.86,-148.66"/>
<text text-anchor="middle" x="960.5" y="-174.8" font-family="Times,serif" font-size="14.00">&lt;inheritance&gt;</text>
<text text-anchor="middle" x="960.5" y="-159.8" font-family="Times,serif" font-size="14.00">base</text>
</g>
<!-- rover.flows.control&#45;&gt;__main__.Control -->
<g id="edge23" class="edge">
<title>rover.flows.control-&gt;__main__.Control</title>
<path fill="none" stroke="black" d="M924.15,-1113.92C925.36,-1081.81 928.05,-1010.94 930.05,-958.18"/>
<polygon fill="none" stroke="black" points="933.56,-958.01 930.44,-947.88 926.56,-957.75 933.56,-958.01"/>
<text text-anchor="middle" x="981.5" y="-1033.8" font-family="Times,serif" font-size="14.00">&lt;inheritance&gt;</text>
<text text-anchor="middle" x="981.5" y="-1018.8" font-family="Times,serif" font-size="14.00">base</text>
</g>
<!-- rover.flows.ee&#45;&gt;__main__.EE -->
<g id="edge26" class="edge">
<title>rover.flows.ee-&gt;__main__.EE</title>
<path fill="none" stroke="black" d="M1066.21,-1113.92C1065.61,-1078.42 1064.22,-995.54 1063.32,-942.14"/>
<polygon fill="none" stroke="black" points="1066.81,-941.81 1063.15,-931.87 1059.82,-941.93 1066.81,-941.81"/>
<text text-anchor="middle" x="1118.5" y="-1033.8" font-family="Times,serif" font-size="14.00">&lt;inheritance&gt;</text>
<text text-anchor="middle" x="1118.5" y="-1018.8" font-family="Times,serif" font-size="14.00">base</text>
</g>
<!-- rover.flows.force&#45;&gt;__main__.Force -->
<g id="edge28" class="edge">
<title>rover.flows.force-&gt;__main__.Force</title>
<path fill="none" stroke="black" d="M1191.5,-1113.92C1191.5,-1080.35 1191.5,-1004.39 1191.5,-951.07"/>
<polygon fill="none" stroke="black" points="1195,-951.06 1191.5,-941.06 1188,-951.06 1195,-951.06"/>
<text text-anchor="middle" x="1244.5" y="-1033.8" font-family="Times,serif" font-size="14.00">&lt;inheritance&gt;</text>
<text text-anchor="middle" x="1244.5" y="-1018.8" font-family="Times,serif" font-size="14.00">base</text>
</g>
<!-- rover.flows.ground&#45;&gt;__main__.Ground -->
<g id="edge30" class="edge">
<title>rover.flows.ground-&gt;__main__.Ground</title>
<path fill="none" stroke="black" d="M1356.7,-1113.92C1351.41,-1081.75 1339.74,-1010.65 1331.07,-957.85"/>
<polygon fill="none" stroke="black" points="1334.5,-957.19 1329.43,-947.88 1327.6,-958.32 1334.5,-957.19"/>
<text text-anchor="middle" x="1398.5" y="-1033.8" font-family="Times,serif" font-size="14.00">&lt;inheritance&gt;</text>
<text text-anchor="middle" x="1398.5" y="-1018.8" font-family="Times,serif" font-size="14.00">base</text>
</g>
</g>
</svg>