<svg xmlns="http://www.w3.org/2000/svg" xmlns:xlink="http://www.w3.org/1999/xlink" width="1954pt" height="159pt" viewBox="0.00 0.00 1953.52 159.00">
<g id="graph0" class="graph" transform="scale(1 1) rotate(0) translate(4 155)">
<polygon fill="white" stroke="none" points="-4,4 -4,-155 1949.52,-155 1949.52,4 -4,4"/>
<!-- rover -->
<g id="node1" class="node">
<title>rover</title>
<polygon fill="lightgrey" stroke="grey" points="898.52,-151 783.42,-115.38 1013.63,-115.38 898.52,-151"/>
<text text-anchor="middle" x="898.52" y="-121.83" font-family="Times New Roman,serif" font-size="14.00">rover: Rover</text>
</g>
<!-- rover.flows.ground -->
<g id="node2" class="node">
<title>rover.flows.ground</title>
<ellipse fill="lightgrey" stroke="grey" stroke-width="0" cx="70.52" cy="-18" rx="70.52" ry="18"/>
<text text-anchor="middle" x="70.52" y="-12.57" font-family="Times New Roman,serif" font-size="14.00">ground: Ground</text>
</g>
<!-- rover&#45;&gt;rover.flows.ground -->
<g id="edge1" class="edge">
<title>rover-&gt;rover.flows.ground</title>
<path fill="none" stroke="black" d="M799.32,-124.51C608.61,-120.65 204.42,-109.69 145.52,-85.5 119.77,-74.92 96.91,-51.59 83.39,-35.58"/>
<polygon fill="black" stroke="black" points="799.22,-124.51 805.3,-120.63 811.22,-124.75 805.14,-128.63 799.22,-124.51"/>
<text text-anchor="middle" x="187.52" y="-72.2" font-family="Times New Roman,serif" font-size="14.00">&lt;containment&gt;</text>
<text text-anchor="middle" x="187.52" y="-56.45" font-family="Times New Roman,serif" font-size="14.00">flows.ground</text>
</g>
<!-- rover.flows.force -->
<g id="node3" class="node">
<title>rover.flows.force</title>
<ellipse fill="lightgrey" stroke="grey" stroke-width="0" cx="215.52" cy="-18" rx="56.55" ry="18"/>
<text text-anchor="middle" x="215.52" y="-12.57" font-family="Times New Roman,serif" font-size="14.00">force: Force</text>
</g>
<!-- rover&#45;&gt;rover.flows.force -->
<g id="edge2" class="edge">
<title>rover-&gt;rover.flows.force</title>
<path fill="none" stroke="black" d="M799.03,-124.44C632.3,-120.73 310.14,-110.42 264.52,-85.5 244.51,-74.57 230.46,-51.56 222.68,-35.7"/>
<polygon fill="black" stroke="black" points="799.08,-124.44 805.17,-120.57 811.08,-124.7 804.99,-128.57 799.08,-124.44"/>
<text text-anchor="middle" x="306.52" y="-72.2" font-family="Times New Roman,serif" font-size="14.00">&lt;containment&gt;</text>
<text text-anchor="middle" x="306.52" y="-56.45" font-family="Times New Roman,serif" font-size="14.00">flows.force</text>
</g>
<!-- rover.flows.ee -->
<g id="node4" class="node">
<title>rover.flows.ee</title>
<ellipse fill="lightgrey" stroke="grey" stroke-width="0" cx="324.52" cy="-18" rx="34.1" ry="18"/>
<text text-anchor="middle" x="324.52" y="-12.57" font-family="Times New Roman,serif" font-size="14.00">ee: EE</text>
</g>
<!-- rover&#45;&gt;rover.flows.ee -->
<g id="edge3" class="edge">
<title>rover-&gt;rover.flows.ee</title>
<path fill="none" stroke="black" d="M804.18,-126.15C678.7,-124.73 464.48,-117.5 393.52,-85.5 368.96,-74.42 347.85,-50.73 335.66,-34.83"/>
<polygon fill="black" stroke="black" points="804.25,-126.15 810.29,-122.21 816.25,-126.27 810.21,-130.21 804.25,-126.15"/>
<text text-anchor="middle" x="435.52" y="-72.2" font-family="Times New Roman,serif" font-size="14.00">&lt;containment&gt;</text>
<text text-anchor="middle" x="435.52" y="-56.45" font-family="Times New Roman,serif" font-size="14.00">flows.ee</text>
</g>
<!-- rover.flows.video -->
<g id="node5" class="node">
<title>rover.flows.video</title>
<ellipse fill="lightgrey" stroke="grey" stroke-width="0" cx="434.52" cy="-18" rx="58.05" ry="18"/>
<text text-anchor="middle" x="434.52" y="-12.57" font-family="Times New Roman,serif" font-size="14.00">video: Video</text>
</g>
<!-- rover&#45;&gt;rover.flows.video -->
<g id="edge4" class="edge">
<title>rover-&gt;rover.flows.video</title>
<path fill="none" stroke="black" d="M782.88,-118.66C695.68,-111.89 583.95,-100.71 540.52,-85.5 507.51,-73.94 474.1,-50.62 453.84,-34.9"/>
<polygon fill="black" stroke="black" points="782.96,-118.66 789.25,-115.13 794.93,-119.57 788.64,-123.11 782.96,-118.66"/>
<text text-anchor="middle" x="582.52" y="-72.2" font-family="Times New Roman,serif" font-size="14.00">&lt;containment&gt;</text>
<text text-anchor="middle" x="582.52" y="-56.45" font-family="Times New Roman,serif" font-size="14.00">flows.video</text>
</g>
<!-- rover.flows.control -->
<g id="node6" class="node">
<title>rover.flows.control</title>
<ellipse fill="lightgrey" stroke="grey" stroke-width="0" cx="580.52" cy="-18" rx="70.03" ry="18"/>
<text text-anchor="middle" x="580.52" y="-12.57" font-family="Times New Roman,serif" font-size="14.00">control: Control</text>
</g>
<!-- rover&#45;&gt;rover.flows.control -->
<g id="edge5" class="edge">
<title>rover-&gt;rover.flows.control</title>
<path fill="none" stroke="black" d="M780.88,-112.64C748.29,-106.59 713.39,-97.91 682.52,-85.5 651.34,-72.97 619.54,-50.35 599.93,-35.01"/>
<polygon fill="black" stroke="black" points="781.03,-112.67 787.63,-109.78 792.84,-114.76 786.24,-117.65 781.03,-112.67"/>
<text text-anchor="middle" x="724.52" y="-72.2" font-family="Times New Roman,serif" font-size="14.00">&lt;containment&gt;</text>
<text text-anchor="middle" x="724.52" y="-56.45" font-family="Times New Roman,serif" font-size="14.00">flows.control</text>
</g>
<!-- rover.flows.comms -->
<g id="node7" class="node">
<title>rover.flows.comms</title>
<ellipse fill="lightgrey" stroke="grey" stroke-width="0" cx="730.52" cy="-18" rx="61.54" ry="18"/>
<text text-anchor="middle" x="730.52" y="-12.57" font-family="Times New Roman,serif" font-size="14.00">comms: Flow</text>
</g>
<!-- rover&#45;&gt;rover.flows.comms -->
<g id="edge6" class="edge">
<title>rover-&gt;rover.flows.comms</title>
<path fill="none" stroke="black" d="M857.67,-109.98C842.41,-103.23 825.24,-94.8 810.52,-85.5 787.01,-70.64 762.84,-49.59 747.31,-35.18"/>
<polygon fill="black" stroke="black" points="857.55,-109.93 864.64,-108.62 868.58,-114.66 861.49,-115.97 857.55,-109.93"/>
<text text-anchor="middle" x="852.52" y="-72.2" font-family="Times New Roman,serif" font-size="14.00">&lt;containment&gt;</text>
<text text-anchor="middle" x="852.52" y="-56.45" font-family="Times New Roman,serif" font-size="14.00">flows.comms</text>
</g>
<!-- rover.fxns.control_rover -->
<g id="node8" class="node">
<title>rover.fxns.control_rover</title>
<polygon fill="lightgrey" stroke="grey" stroke-width="2" points="986.77,-36 810.27,-36 810.27,0 986.77,0 986.77,-36"/>
<text text-anchor="middle" x="898.52" y="-12.57" font-family="Times New Roman,serif" font-size="14.00">control_rover: ControlRover</text>
</g>
<!-- rover&#45;&gt;rover.fxns.control_rover -->
<g id="edge7" class="edge">
<title>rover-&gt;rover.fxns.control_rover</title>
<path fill="none" stroke="black" d="M898.52,-102.13C898.52,-82.35 898.52,-54.8 898.52,-36.93"/>
<polygon fill="black" stroke="black" points="898.52,-102.27 902.52,-108.27 898.52,-114.27 894.52,-108.27 898.52,-102.27"/>
<text text-anchor="middle" x="950.65" y="-72.2" font-family="Times New Roman,serif" font-size="14.00">&lt;containment&gt;</text>
<text text-anchor="middle" x="950.65" y="-56.45" font-family="Times New Roman,serif" font-size="14.00">fxns.control_rover</text>
</g>
<!-- rover.fxns.store_energy -->
<g id="node9" class="node">
<title>rover.fxns.store_energy</title>
<polygon fill="lightgrey" stroke="grey" stroke-width="2" points="1168.4,-36 1004.65,-36 1004.65,0 1168.4,0 1168.4,-36"/>
<text text-anchor="middle" x="1086.52" y="-12.57" font-family="Times New Roman,serif" font-size="14.00">store_energy: StoreEnergy</text>
</g>
<!-- rover&#45;&gt;rover.fxns.store_energy -->
<g id="edge8" class="edge">
<title>rover-&gt;rover.fxns.store_energy</title>
<path fill="none" stroke="black" d="M950.26,-110.67C968.63,-104.13 989.08,-95.66 1006.52,-85.5 1029.94,-71.87 1053.38,-51.38 1068.78,-36.75"/>
<polygon fill="black" stroke="black" points="950.13,-110.72 945.75,-116.44 938.78,-114.6 943.16,-108.87 950.13,-110.72"/>
<text text-anchor="middle" x="1098.4" y="-72.2" font-family="Times New Roman,serif" font-size="14.00">&lt;containment&gt;</text>
<text text-anchor="middle" x="1098.4" y="-56.45" font-family="Times New Roman,serif" font-size="14.00">fxns.store_energy</text>
</g>
<!-- rover.fxns.move_rover -->
<g id="node10" class="node">
<title>rover.fxns.move_rover</title>
<polygon fill="lightgrey" stroke="grey" stroke-width="2" points="1343.02,-36 1186.02,-36 1186.02,0 1343.02,0 1343.02,-36"/>
<text text-anchor="middle" x="1264.52" y="-12.57" font-family="Times New Roman,serif" font-size="14.00">move_rover: MoveRover</text>
</g>
<!-- rover&#45;&gt;rover.fxns.move_rover -->
<g id="edge9" class="edge">
<title>rover-&gt;rover.fxns.move_rover</title>
<path fill="none" stroke="black" d="M1019.88,-116.22C1062.68,-110.23 1110.57,-100.69 1152.52,-85.5 1185.06,-73.72 1218.71,-52.27 1240.52,-36.91"/>
<polygon fill="black" stroke="black" points="1019.85,-116.22 1014.43,-120.98 1007.96,-117.81 1013.38,-113.05 1019.85,-116.22"/>
<text text-anchor="middle" x="1261.15" y="-72.2" font-family="Times New Roman,serif" font-size="14.00">&lt;containment&gt;</text>
<text text-anchor="middle" x="1261.15" y="-56.45" font-family="Times New Roman,serif" font-size="14.00">fxns.move_rover</text>
</g>
<!-- rover.fxns.view_ground -->
<g id="node11" class="node">
<title>rover.fxns.view_ground</title>
<polygon fill="lightgrey" stroke="grey" stroke-width="2" points="1528.27,-36 1360.77,-36 1360.77,0 1528.27,0 1528.27,-36"/>
<text text-anchor="middle" x="1444.52" y="-12.57" font-family="Times New Roman,serif" font-size="14.00">view_ground: ViewGround</text>
</g>
<!-- rover&#45;&gt;rover.fxns.view_ground -->
<g id="edge10" class="edge">
<title>rover-&gt;rover.fxns.view_ground</title>
<path fill="none" stroke="black" d="M990.6,-126.8C1075.72,-125.07 1204.93,-116.72 1312.52,-85.5 1350.6,-74.45 1390.8,-52.52 1416.68,-36.86"/>
<polygon fill="black" stroke="black" points="990.49,-126.8 984.56,-130.9 978.49,-127 984.42,-122.9 990.49,-126.8"/>
<text text-anchor="middle" x="1436.77" y="-72.2" font-family="Times New Roman,serif" font-size="14.00">&lt;containment&gt;</text>
<text text-anchor="middle" x="1436.77" y="-56.45" font-family="Times New Roman,serif" font-size="14.00">fxns.view_ground</text>
</g>
<!-- rover.fxns.communicate -->
<g id="node12" class="node">
<title>rover.fxns.communicate</title>
<polygon fill="lightgrey" stroke="grey" stroke-width="2" points="1720.65,-36 1546.4,-36 1546.4,0 1720.65,0 1720.65,-36"/>
<text text-anchor="middle" x="1633.52" y="-12.57" font-family="Times New Roman,serif" font-size="14.00">communicate: Communicate</text>
</g>
<!-- rover&#45;&gt;rover.fxns.communicate -->
<g id="edge11" class="edge">
<title>rover-&gt;rover.fxns.communicate</title>
<path fill="none" stroke="black" d="M999.59,-123.74C1143.66,-119.41 1400.58,-108.66 1490.52,-85.5 1531.62,-74.92 1575.38,-52.77 1603.5,-36.94"/>
<polygon fill="black" stroke="black" points="999.76,-123.74 993.88,-127.91 987.77,-124.09 993.64,-119.92 999.76,-123.74"/>
<text text-anchor="middle" x="1621.52" y="-72.2" font-family="Times New Roman,serif" font-size="14.00">&lt;containment&gt;</text>
<text text-anchor="middle" x="1621.52" y="-56.45" font-family="Times New Roman,serif" font-size="14.00">fxns.communicate</text>
</g>
<!-- rover.sp -->
<g id="node13" class="node">
<title>rover.sp</title>
<polygon fill="lightgrey" stroke="grey" points="1832.15,-36 1750.9,-36 1750.9,-40 1738.9,-40 1738.9,0 1832.15,0 1832.15,-36"/>
<polyline fill="none" stroke="grey" points="1738.9,-36 1750.9,-36"/>
<text text-anchor="middle" x="1785.52" y="-12.57" font-family="Times New Roman,serif" font-size="14.00">sp: SimParam</text>
</g>
<!-- rover&#45;&gt;rover.sp -->
<g id="edge12" class="edge">
<title>rover-&gt;rover.sp</title>
<path fill="none" stroke="black" d="M990.54,-127.06C1167.99,-127.7 1551.02,-124.33 1676.52,-85.5 1709.98,-75.15 1743.66,-52.24 1764.54,-36.22"/>
<polygon fill="black" stroke="black" points="990.52,-127.06 984.5,-131.03 978.52,-127.01 984.53,-123.03 990.52,-127.06"/>
<text text-anchor="middle" x="1780.52" y="-72.2" font-family="Times New Roman,serif" font-size="14.00">&lt;containment&gt;</text>
<text text-anchor="middle" x="1780.52" y="-56.45" font-family="Times New Roman,serif" font-size="14.00">sp</text>
</g>
<!-- rover.t -->
<g id="node14" class="node">
<title>rover.t</title>
<polygon fill="lightgrey" stroke="grey" points="1912.02,-36 1869.02,-36 1869.02,-40 1857.02,-40 1857.02,0 1912.02,0 1912.02,-36"/>
<polyline fill="none" stroke="grey" points="1857.02,-36 1869.02,-36"/>
<text text-anchor="middle" x="1884.52" y="-12.57" font-family="Times New Roman,serif" font-size="14.00">t: Time</text>
</g>
<!-- rover&#45;&gt;rover.t -->
<g id="edge13" class="edge">
<title>rover-&gt;rover.t</title>
<path fill="none" stroke="black" d="M992.44,-126.3C1213.35,-125.82 1752.84,-120.98 1826.52,-85.5 1848.2,-75.07 1865.1,-52.42 1874.93,-36.46"/>
<polygon fill="black" stroke="black" points="992.53,-126.3 986.53,-130.31 980.53,-126.32 986.52,-122.31 992.53,-126.3"/>
<text text-anchor="middle" x="1903.52" y="-72.2" font-family="Times New Roman,serif" font-size="14.00">&lt;containment&gt;</text>
<text text-anchor="middle" x="1903.52" y="-56.45" font-family="Times New Roman,serif" font-size="14.00">t</text>
</g>
</g>
</svg>