<svg xmlns="http://www.w3.org/2000/svg" xmlns:xlink="http://www.w3.org/1999/xlink" width="437pt" height="406pt" viewBox="0.00 0.00 436.85 406.00">
<g id="graph0" class="graph" transform="scale(1 1) rotate(0) translate(4 402)">
<polygon fill="white" stroke="transparent" points="-4,4 -4,-402 432.85,-402 432.85,4 -4,4"/>
<!-- rover.flows.ground -->
<g id="node1" class="node">
<title>rover.flows.ground</title>
<ellipse fill="lightgrey" stroke="grey" stroke-width="0" cx="384.65" cy="-310.91" rx="44.39" ry="18"/>
<text text-anchor="middle" x="384.65" y="-307.21" font-family="Times,serif" font-size="14.00">ground</text>
</g>
<!-- rover.flows.force -->
<g id="node2" class="node">
<title>rover.flows.force</title>
<ellipse fill="lightgrey" stroke="grey" stroke-width="0" cx="389.05" cy="-148.6" rx="34.39" ry="18"/>
<text text-anchor="middle" x="389.05" y="-144.9" font-family="Times,serif" font-size="14.00">force</text>
</g>
<!-- rover.flows.ee -->
<g id="node3" class="node">
<title>rover.flows.ee</title>
<ellipse fill="lightgrey" stroke="grey" stroke-width="0" cx="178.83" cy="-186.83" rx="27" ry="18"/>
<text text-anchor="middle" x="178.83" y="-183.13" font-family="Times,serif" font-size="14.00">ee</text>
</g>
<!-- rover.flows.video -->
<g id="node4" class="node">
<title>rover.flows.video</title>
<ellipse fill="lightgrey" stroke="grey" stroke-width="0" cx="289.29" cy="-380" rx="36" ry="18"/>
<text text-anchor="middle" x="289.29" y="-376.3" font-family="Times,serif" font-size="14.00">video</text>
</g>
<!-- rover.flows.control -->
<g id="node5" class="node">
<title>rover.flows.control</title>
<ellipse fill="lightgrey" stroke="grey" stroke-width="0" cx="248.18" cy="-78.9" rx="43.59" ry="18"/>
<text text-anchor="middle" x="248.18" y="-75.2" font-family="Times,serif" font-size="14.00">control</text>
</g>
<!-- rover.flows.comms -->
<g id="node6" class="node">
<title>rover.flows.comms</title>
<ellipse fill="lightgrey" stroke="grey" stroke-width="0" cx="43.55" cy="-290.34" rx="43.59" ry="18"/>
<text text-anchor="middle" x="43.55" y="-286.64" font-family="Times,serif" font-size="14.00">comms</text>
</g>
<!-- rover.fxns.control_rover -->
<g id="node7" class="node">
<title>rover.fxns.control_rover</title>
<polygon fill="lightgrey" stroke="grey" stroke-width="2" points="393.82,-36 281.82,-36 281.82,0 393.82,0 393.82,-36"/>
<text text-anchor="middle" x="337.82" y="-14.3" font-family="Times,serif" font-size="14.00">control_rover</text>
</g>
<!-- rover.fxns.control_rover&#45;&gt;rover.flows.control -->
<g id="edge1" class="edge">
<title>rover.fxns.control_rover-&gt;rover.flows.control</title>
<path fill="none" stroke="black" d="M300.98,-43.03C290.76,-49.97 279.97,-57.31 270.82,-63.52"/>
<polygon fill="none" stroke="black" points="301,-43.02 303.72,-36.34 310.93,-36.27 308.21,-42.95 301,-43.02"/>
<text text-anchor="middle" x="258.9" y="-42.08" font-family="Times,serif" font-size="14.00">&lt;flow&gt;</text>
</g>
<!-- rover.fxns.store_energy -->
<g id="node8" class="node">
<title>rover.fxns.store_energy</title>
<polygon fill="lightgrey" stroke="grey" stroke-width="2" points="138.97,-82.8 28.97,-82.8 28.97,-46.8 138.97,-46.8 138.97,-82.8"/>
<text text-anchor="middle" x="83.97" y="-61.1" font-family="Times,serif" font-size="14.00">store_energy</text>
</g>
<!-- rover.fxns.store_energy&#45;&gt;rover.flows.ee -->
<g id="edge3" class="edge">
<title>rover.fxns.store_energy-&gt;rover.flows.ee</title>
<path fill="none" stroke="black" d="M105.47,-92.46C124.24,-116.6 150.81,-150.79 166.29,-170.7"/>
<polygon fill="none" stroke="black" points="105.33,-92.28 98.49,-90 97.97,-82.81 104.81,-85.09 105.33,-92.28"/>
<text text-anchor="middle" x="108.88" y="-135.38" font-family="Times,serif" font-size="14.00">&lt;flow&gt;</text>
</g>
<!-- rover.fxns.store_energy&#45;&gt;rover.flows.control -->
<g id="edge2" class="edge">
<title>rover.fxns.store_energy-&gt;rover.flows.control</title>
<path fill="none" stroke="black" d="M151.25,-70.58C169.55,-72.15 188.86,-73.81 205.39,-75.23"/>
<polygon fill="none" stroke="black" points="151.06,-70.56 144.74,-74.03 139.11,-69.53 145.43,-66.06 151.06,-70.56"/>
<text text-anchor="middle" x="178.32" y="-61.7" font-family="Times,serif" font-size="14.00">&lt;flow&gt;</text>
</g>
<!-- rover.fxns.move_rover -->
<g id="node9" class="node">
<title>rover.fxns.move_rover</title>
<polygon fill="lightgrey" stroke="grey" stroke-width="2" points="348.25,-210.81 248.25,-210.81 248.25,-174.81 348.25,-174.81 348.25,-210.81"/>
<text text-anchor="middle" x="298.25" y="-189.11" font-family="Times,serif" font-size="14.00">move_rover</text>
</g>
<!-- rover.fxns.move_rover&#45;&gt;rover.flows.ground -->
<g id="edge7" class="edge">
<title>rover.fxns.move_rover-&gt;rover.flows.ground</title>
<path fill="none" stroke="black" d="M318.67,-220.72C335.22,-243.35 358.02,-274.51 372.03,-293.65"/>
<polygon fill="none" stroke="black" points="318.65,-220.69 311.87,-218.21 311.56,-211 318.33,-213.49 318.65,-220.69"/>
<text text-anchor="middle" x="318.35" y="-245.99" font-family="Times,serif" font-size="14.00">&lt;flow&gt;</text>
</g>
<!-- rover.fxns.move_rover&#45;&gt;rover.flows.force -->
<g id="edge6" class="edge">
<title>rover.fxns.move_rover-&gt;rover.flows.force</title>
<path fill="none" stroke="black" d="M346.25,-169.44C352.27,-166.51 358.22,-163.61 363.69,-160.94"/>
<polygon fill="none" stroke="black" points="346.23,-169.45 342.59,-175.67 335.44,-174.7 339.09,-168.48 346.23,-169.45"/>
<text text-anchor="middle" x="327.97" y="-153.99" font-family="Times,serif" font-size="14.00">&lt;flow&gt;</text>
</g>
<!-- rover.fxns.move_rover&#45;&gt;rover.flows.ee -->
<g id="edge5" class="edge">
<title>rover.fxns.move_rover-&gt;rover.flows.ee</title>
<path fill="none" stroke="black" d="M235.7,-189.68C225.24,-189.16 214.89,-188.64 205.95,-188.19"/>
<polygon fill="none" stroke="black" points="235.97,-189.69 242.16,-186 247.95,-190.29 241.76,-193.99 235.97,-189.69"/>
<text text-anchor="middle" x="220.82" y="-177.74" font-family="Times,serif" font-size="14.00">&lt;flow&gt;</text>
</g>
<!-- rover.fxns.move_rover&#45;&gt;rover.flows.control -->
<g id="edge4" class="edge">
<title>rover.fxns.move_rover-&gt;rover.flows.control</title>
<path fill="none" stroke="black" d="M285.39,-163.56C276.13,-142.49 263.94,-114.75 256.08,-96.87"/>
<polygon fill="none" stroke="black" points="285.49,-163.78 291.56,-167.66 290.32,-174.76 284.24,-170.88 285.49,-163.78"/>
<text text-anchor="middle" x="243.73" y="-134.01" font-family="Times,serif" font-size="14.00">&lt;flow&gt;</text>
</g>
<!-- rover.fxns.view_ground -->
<g id="node10" class="node">
<title>rover.fxns.view_ground</title>
<polygon fill="lightgrey" stroke="grey" stroke-width="2" points="308.24,-305.9 201.24,-305.9 201.24,-269.9 308.24,-269.9 308.24,-305.9"/>
<text text-anchor="middle" x="254.74" y="-284.2" font-family="Times,serif" font-size="14.00">view_ground</text>
</g>
<!-- rover.fxns.view_ground&#45;&gt;rover.flows.ground -->
<g id="edge10" class="edge">
<title>rover.fxns.view_ground-&gt;rover.flows.ground</title>
<path fill="none" stroke="black" d="M320.42,-299.53C328.42,-300.95 336.4,-302.36 343.89,-303.69"/>
<polygon fill="none" stroke="black" points="320.14,-299.48 313.54,-302.38 308.33,-297.39 314.93,-294.5 320.14,-299.48"/>
<text text-anchor="middle" x="305.15" y="-305.41" font-family="Times,serif" font-size="14.00">&lt;flow&gt;</text>
</g>
<!-- rover.fxns.view_ground&#45;&gt;rover.flows.force -->
<g id="edge9" class="edge">
<title>rover.fxns.view_ground-&gt;rover.flows.force</title>
<path fill="none" stroke="black" d="M280.97,-260.69C308.36,-232.28 350.43,-188.65 373.16,-165.08"/>
<polygon fill="none" stroke="black" points="280.62,-261.05 279.34,-268.15 272.3,-269.69 273.58,-262.59 280.62,-261.05"/>
<text text-anchor="middle" x="300.07" y="-216.68" font-family="Times,serif" font-size="14.00">&lt;flow&gt;</text>
</g>
<!-- rover.fxns.view_ground&#45;&gt;rover.flows.ee -->
<g id="edge8" class="edge">
<title>rover.fxns.view_ground-&gt;rover.flows.ee</title>
<path fill="none" stroke="black" d="M233.78,-260C220.03,-241.7 202.54,-218.4 191.03,-203.08"/>
<polygon fill="none" stroke="black" points="233.96,-260.24 240.76,-262.63 241.17,-269.83 234.36,-267.44 233.96,-260.24"/>
<text text-anchor="middle" x="185.4" y="-235.34" font-family="Times,serif" font-size="14.00">&lt;flow&gt;</text>
</g>
<!-- rover.fxns.view_ground&#45;&gt;rover.flows.video -->
<g id="edge11" class="edge">
<title>rover.fxns.view_ground-&gt;rover.flows.video</title>
<path fill="none" stroke="black" d="M265.91,-317.67C271.41,-332.34 277.86,-349.54 282.6,-362.15"/>
<polygon fill="none" stroke="black" points="265.78,-317.33 259.93,-313.12 261.56,-306.1 267.42,-310.31 265.78,-317.33"/>
<text text-anchor="middle" x="247.25" y="-343.71" font-family="Times,serif" font-size="14.00">&lt;flow&gt;</text>
</g>
<!-- rover.fxns.communicate -->
<g id="node11" class="node">
<title>rover.fxns.communicate</title>
<polygon fill="lightgrey" stroke="grey" stroke-width="2" points="202.44,-354.77 90.44,-354.77 90.44,-318.77 202.44,-318.77 202.44,-354.77"/>
<text text-anchor="middle" x="146.44" y="-333.07" font-family="Times,serif" font-size="14.00">communicate</text>
</g>
<!-- rover.fxns.communicate&#45;&gt;rover.flows.ee -->
<g id="edge13" class="edge">
<title>rover.fxns.communicate-&gt;rover.flows.ee</title>
<path fill="none" stroke="black" d="M152.94,-306.71C159.51,-276.28 169.46,-230.23 174.91,-204.98"/>
<polygon fill="none" stroke="black" points="152.88,-306.95 155.53,-313.66 150.35,-318.68 147.71,-311.97 152.88,-306.95"/>
<text text-anchor="middle" x="136.92" y="-259.64" font-family="Times,serif" font-size="14.00">&lt;flow&gt;</text>
</g>
<!-- rover.fxns.communicate&#45;&gt;rover.flows.comms -->
<g id="edge12" class="edge">
<title>rover.fxns.communicate-&gt;rover.flows.comms</title>
<path fill="none" stroke="black" d="M95.32,-313.7C87.72,-310.27 80.11,-306.84 73.16,-303.7"/>
<polygon fill="none" stroke="black" points="95.43,-313.75 102.54,-312.57 106.37,-318.68 99.25,-319.86 95.43,-313.75"/>
<text text-anchor="middle" x="57.24" y="-312.5" font-family="Times,serif" font-size="14.00">&lt;flow&gt;</text>
</g>
</g>
</svg>